 <svg width="860" height="420" viewBox="0 0 860 420" xmlns="http://www.w3.org/2000/svg" style="background-color: #1f2937; color: #e5e7eb; font-family: sans-serif;"><title>BTC/JPY 1day chart</title><defs><clipPath id="plotArea"><rect x="96" y="36" width="752" height="352"/></clipPath></defs><g class="axes"><line x1="96" y1="36" x2="96" y2="388" stroke="#4b5563" stroke-width="1"/><g font-size="12" fill="#e5e7eb"><text x="88" y="388" text-anchor="end" dominant-baseline="middle">15,000,000</text><text x="88" y="300" text-anchor="end" dominant-baseline="middle">16,000,000</text><text x="88" y="212" text-anchor="end" dominant-baseline="middle">17,000,000</text><text x="88" y="124" text-anchor="end" dominant-baseline="middle">18,000,000</text><text x="88" y="36" text-anchor="end" dominant-baseline="middle">19,000,000</text></g><line x1="96" y1="388" x2="848" y2="388" stroke="#4b5563" stroke-width="1"/><g font-size="12" fill="#e5e7eb"><text x="96" y="404" text-anchor="middle" fill="#e5e7eb" font-size="10">7/22</text><text x="202.16470588235296" y="404" text-anchor="middle" fill="#e5e7eb" font-size="10">8/3</text><text x="308.3294117647059" y="404" text-anchor="middle" fill="#e5e7eb" font-size="10">8/15</text><text x="414.49411764705883" y="404" text-anchor="middle" fill="#e5e7eb" font-size="10">8/27</text><text x="520.6588235294118" y="404" text-anchor="middle" fill="#e5e7eb" font-size="10">9/8</text></g></g><g class="plot-area" clip-path="url(#plotArea)"><line x1="96" y1="156.120088" x2="96" y2="194.84" stroke="#9ca3af" stroke-width="1"/><line x1="104.84705882352941" y1="158.017984" x2="104.84705882352941" y2="192.631728" stroke="#9ca3af" stroke-width="1"/><line x1="113.69411764705882" y1="163.751096" x2="113.69411764705882" y2="193.52" stroke="#9ca3af" stroke-width="1"/><line x1="122.54117647058824" y1="174.160088" x2="122.54117647058824" y2="214.95768" stroke="#9ca3af" stroke-width="1"/><line x1="131.38823529411764" y1="171.259344" x2="131.38823529411764" y2="185.066808" stroke="#9ca3af" stroke-width="1"/><line x1="140.23529411764707" y1="152.555208" x2="140.23529411764707" y2="175.513616" stroke="#9ca3af" stroke-width="1"/><line x1="149.08235294117648" y1="150.373336" x2="149.08235294117648" y2="168.703912" stroke="#9ca3af" stroke-width="1"/><line x1="157.9294117647059" y1="145.722888" x2="157.9294117647059" y2="174.159912" stroke="#9ca3af" stroke-width="1"/><line x1="166.7764705882353" y1="150.477" x2="166.7764705882353" y2="183.89676" stroke="#9ca3af" stroke-width="1"/><line x1="175.6235294117647" y1="133.778912" x2="175.6235294117647" y2="172.4" stroke="#9ca3af" stroke-width="1"/><line x1="184.47058823529412" y1="165.516552" x2="184.47058823529412" y2="242.8" stroke="#9ca3af" stroke-width="1"/><line x1="193.31764705882352" y1="223.766568" x2="193.31764705882352" y2="252.48" stroke="#9ca3af" stroke-width="1"/><line x1="202.16470588235296" y1="216.408976" x2="202.16470588235296" y2="252.832" stroke="#9ca3af" stroke-width="1"/><line x1="211.01176470588234" y1="207.613728" x2="211.01176470588234" y2="226.96" stroke="#9ca3af" stroke-width="1"/><line x1="219.85882352941178" y1="210.470824" x2="219.85882352941178" y2="247.2" stroke="#9ca3af" stroke-width="1"/><line x1="228.7058823529412" y1="207.952" x2="228.7058823529412" y2="234.299288" stroke="#9ca3af" stroke-width="1"/><line x1="237.5529411764706" y1="184.264424" x2="237.5529411764706" y2="222.50896" stroke="#9ca3af" stroke-width="1"/><line x1="246.4" y1="182.080088" x2="246.4" y2="199.457624" stroke="#9ca3af" stroke-width="1"/><line x1="255.24705882352941" y1="177.37684" x2="255.24705882352941" y2="195.747456" stroke="#9ca3af" stroke-width="1"/><line x1="264.09411764705885" y1="158.045528" x2="264.09411764705885" y2="194.4" stroke="#9ca3af" stroke-width="1"/><line x1="272.94117647058823" y1="124.880088" x2="272.94117647058823" y2="167.908832" stroke="#9ca3af" stroke-width="1"/><line x1="281.7882352941176" y1="143.36" x2="281.7882352941176" y2="161.269408" stroke="#9ca3af" stroke-width="1"/><line x1="290.63529411764705" y1="108.072" x2="290.63529411764705" y2="156.559912" stroke="#9ca3af" stroke-width="1"/><line x1="299.4823529411765" y1="102.88" x2="299.4823529411765" y2="179.44" stroke="#9ca3af" stroke-width="1"/><line x1="308.3294117647059" y1="158.9712" x2="308.3294117647059" y2="193.742992" stroke="#9ca3af" stroke-width="1"/><line x1="317.1764705882353" y1="175.62828" x2="317.1764705882353" y2="191.395328" stroke="#9ca3af" stroke-width="1"/><line x1="326.0235294117647" y1="168.932272" x2="326.0235294117647" y2="189.364728" stroke="#9ca3af" stroke-width="1"/><line x1="334.8705882352941" y1="179.147928" x2="334.8705882352941" y2="217.013976" stroke="#9ca3af" stroke-width="1"/><line x1="343.71764705882356" y1="177.68" x2="343.71764705882356" y2="241.128" stroke="#9ca3af" stroke-width="1"/><line x1="352.56470588235294" y1="218.971008" x2="352.56470588235294" y2="249.424728" stroke="#9ca3af" stroke-width="1"/><line x1="361.4117647058824" y1="215.562944" x2="361.4117647058824" y2="242.8" stroke="#9ca3af" stroke-width="1"/><line x1="370.25882352941176" y1="190.528088" x2="370.25882352941176" y2="244.660496" stroke="#9ca3af" stroke-width="1"/><line x1="379.1058823529412" y1="197.04" x2="379.1058823529412" y2="226.96" stroke="#9ca3af" stroke-width="1"/><line x1="387.9529411764706" y1="212.370744" x2="387.9529411764706" y2="264.8" stroke="#9ca3af" stroke-width="1"/><line x1="396.8" y1="232.337856" x2="396.8" y2="283.944136" stroke="#9ca3af" stroke-width="1"/><line x1="405.6470588235294" y1="249.047912" x2="405.6470588235294" y2="297.36" stroke="#9ca3af" stroke-width="1"/><line x1="414.49411764705883" y1="239.980832" x2="414.49411764705883" y2="268.67103199999997" stroke="#9ca3af" stroke-width="1"/><line x1="423.3411764705882" y1="235.500488" x2="423.3411764705882" y2="266.56" stroke="#9ca3af" stroke-width="1"/><line x1="432.18823529411765" y1="247.402928" x2="432.18823529411765" y2="312.606088" stroke="#9ca3af" stroke-width="1"/><line x1="441.0352941176471" y1="295.281616" x2="441.0352941176471" y2="313.598904" stroke="#9ca3af" stroke-width="1"/><line x1="449.88235294117646" y1="288.087968" x2="449.88235294117646" y2="306.574832" stroke="#9ca3af" stroke-width="1"/><line x1="458.7294117647059" y1="283.042488" x2="458.7294117647059" y2="316.925832" stroke="#9ca3af" stroke-width="1"/><line x1="467.5764705882353" y1="252.839568" x2="467.5764705882353" y2="293.908552" stroke="#9ca3af" stroke-width="1"/><line x1="476.4235294117647" y1="241.040088" x2="476.4235294117647" y2="262.66837599999997" stroke="#9ca3af" stroke-width="1"/><line x1="485.2705882352941" y1="233.89" x2="485.2705882352941" y2="273.951912" stroke="#9ca3af" stroke-width="1"/><line x1="494.11764705882354" y1="231.36" x2="494.11764705882354" y2="277.429056" stroke="#9ca3af" stroke-width="1"/><line x1="502.9647058823529" y1="262.15999999999997" x2="502.9647058823529" y2="277.12" stroke="#9ca3af" stroke-width="1"/><line x1="511.81176470588235" y1="249.829176" x2="511.81176470588235" y2="275.55483200000003" stroke="#9ca3af" stroke-width="1"/><line x1="520.6588235294118" y1="240.6418" x2="520.6588235294118" y2="263.521096" stroke="#9ca3af" stroke-width="1"/><line x1="529.5058823529412" y1="240.623672" x2="529.5058823529412" y2="269.540296" stroke="#9ca3af" stroke-width="1"/><line x1="538.3529411764706" y1="226.08" x2="538.3529411764706" y2="266.67748" stroke="#9ca3af" stroke-width="1"/><line x1="547.2" y1="209.36" x2="547.2" y2="233.129856" stroke="#9ca3af" stroke-width="1"/><line x1="556.0470588235294" y1="191.738704" x2="556.0470588235294" y2="212" stroke="#9ca3af" stroke-width="1"/><line x1="564.8941176470588" y1="196.4152" x2="564.8941176470588" y2="210.992664" stroke="#9ca3af" stroke-width="1"/><line x1="573.7411764705882" y1="198.242696" x2="573.7411764705882" y2="209.1312" stroke="#9ca3af" stroke-width="1"/><line x1="582.5882352941176" y1="191.918136" x2="582.5882352941176" y2="222.11824" stroke="#9ca3af" stroke-width="1"/><line x1="591.4352941176471" y1="198.812144" x2="591.4352941176471" y2="220.8" stroke="#9ca3af" stroke-width="1"/><line x1="600.2823529411764" y1="191.274152" x2="600.2823529411764" y2="228.28" stroke="#9ca3af" stroke-width="1"/><line x1="609.1294117647059" y1="170.718496" x2="609.1294117647059" y2="203.84856" stroke="#9ca3af" stroke-width="1"/><line x1="617.9764705882353" y1="175.431248" x2="617.9764705882353" y2="190.724064" stroke="#9ca3af" stroke-width="1"/><rect x="92.24" y="157.979264" width="7.52" height="24.34783999999999" fill="#16a34a"/><rect x="101.0870588235294" y="158.017984" width="7.52" height="17.902015999999975" fill="#ef4444"/><rect x="109.93411764705881" y="175.87072" width="7.52" height="1" fill="#ef4444"/><rect x="118.78117647058824" y="176.71288" width="7.52" height="2.191903999999994" fill="#ef4444"/><rect x="127.62823529411763" y="174.037592" width="7.52" height="4.867104000000012" fill="#16a34a"/><rect x="136.47529411764708" y="156.136016" width="7.52" height="17.901575999999977" fill="#16a34a"/><rect x="145.3223529411765" y="155.834528" width="7.52" height="6.376655999999997" fill="#ef4444"/><rect x="154.1694117647059" y="162.004472" width="7.52" height="1.623424" fill="#ef4444"/><rect x="163.0164705882353" y="158.491512" width="7.52" height="5.136295999999987" fill="#16a34a"/><rect x="171.86352941176472" y="158.491424" width="7.52" height="10.146928000000003" fill="#ef4444"/><rect x="180.71058823529413" y="168.63844" width="7.52" height="66.78161599999999" fill="#ef4444"/><rect x="189.55764705882353" y="235.420056" width="7.52" height="10.735647999999998" fill="#ef4444"/><rect x="198.40470588235297" y="223.251328" width="7.52" height="22.904375999999985" fill="#16a34a"/><rect x="207.25176470588235" y="217.28" width="7.52" height="5.971328" fill="#16a34a"/><rect x="216.0988235294118" y="217.405488" width="7.52" height="6.338728000000003" fill="#ef4444"/><rect x="224.9458823529412" y="216.57468" width="7.52" height="7.169535999999994" fill="#16a34a"/><rect x="233.7929411764706" y="189.154496" width="7.52" height="27.421415999999994" fill="#16a34a"/><rect x="242.64000000000001" y="189.154496" width="7.52" height="2.7296719999999937" fill="#ef4444"/><rect x="251.48705882352942" y="191.884168" width="7.52" height="1.2956240000000037" fill="#ef4444"/><rect x="260.33411764705886" y="158.32" width="7.52" height="34.859792" fill="#16a34a"/><rect x="269.18117647058824" y="158.319912" width="7.52" height="1.3200879999999984" fill="#ef4444"/><rect x="278.0282352941176" y="145.119912" width="7.52" height="14.52000000000001" fill="#16a34a"/><rect x="286.87529411764706" y="112.16593599999999" width="7.52" height="32.95397600000001" fill="#16a34a"/><rect x="295.7223529411765" y="111.85160000000002" width="7.52" height="53.50074399999997" fill="#ef4444"/><rect x="304.56941176470593" y="165.352344" width="7.52" height="17.922168" fill="#ef4444"/><rect x="313.4164705882353" y="183.274512" width="7.52" height="1" fill="#ef4444"/><rect x="322.2635294117647" y="181.639912" width="7.52" height="1.9411039999999957" fill="#16a34a"/><rect x="331.11058823529413" y="181.639912" width="7.52" height="11.338448" fill="#ef4444"/><rect x="339.95764705882357" y="192.978448" width="7.52" height="45.65035200000003" fill="#ef4444"/><rect x="348.80470588235295" y="223.005896" width="7.52" height="15.622904000000005" fill="#16a34a"/><rect x="357.6517647058824" y="223.005984" width="7.52" height="13.996135999999979" fill="#ef4444"/><rect x="366.49882352941177" y="197.656088" width="7.52" height="39.34603199999998" fill="#16a34a"/><rect x="375.3458823529412" y="197.656" width="7.52" height="17.580111999999986" fill="#ef4444"/><rect x="384.1929411764706" y="215.236112" width="7.52" height="20.060304000000002" fill="#ef4444"/><rect x="393.04" y="235.296416" width="7.52" height="35.492424" fill="#ef4444"/><rect x="401.8870588235294" y="256.17467999999997" width="7.52" height="14.614072000000021" fill="#16a34a"/><rect x="410.73411764705884" y="256.17467999999997" width="7.52" height="8.231608000000051" fill="#ef4444"/><rect x="419.5811764705882" y="250.280088" width="7.52" height="14.126200000000011" fill="#16a34a"/><rect x="428.42823529411766" y="250.280088" width="7.52" height="49.719911999999994" fill="#ef4444"/><rect x="437.2752941176471" y="297.03105600000004" width="7.52" height="2.9688559999999597" fill="#16a34a"/><rect x="446.1223529411765" y="297.031144" width="7.52" height="7.8370160000000055" fill="#ef4444"/><rect x="454.9694117647059" y="291.526744" width="7.52" height="13.341415999999981" fill="#16a34a"/><rect x="463.8164705882353" y="254.048952" width="7.52" height="37.47788" fill="#16a34a"/><rect x="472.6635294117647" y="252.483872" width="7.52" height="1.1080960000000175" fill="#16a34a"/><rect x="481.5105882352941" y="252.483784" width="7.52" height="7.0715040000000045" fill="#ef4444"/><rect x="490.35764705882355" y="259.167824" width="7.52" height="11.508464000000004" fill="#ef4444"/><rect x="499.2047058823529" y="270.676288" width="7.52" height="4.878456000000028" fill="#ef4444"/><rect x="508.05176470588236" y="255.80068" width="7.52" height="19.754064000000028" fill="#16a34a"/><rect x="516.8988235294119" y="253.36" width="7.52" height="2.9163199999999847" fill="#16a34a"/><rect x="525.7458823529412" y="253.36" width="7.52" height="5.647223999999994" fill="#ef4444"/><rect x="534.5929411764706" y="228.552712" width="7.52" height="30.454511999999994" fill="#16a34a"/><rect x="543.44" y="209.48012" width="7.52" height="19.072592000000014" fill="#16a34a"/><rect x="552.2870588235294" y="198.475456" width="7.52" height="11.004663999999991" fill="#16a34a"/><rect x="561.1341176470588" y="198.475456" width="7.52" height="2.6049759999999935" fill="#ef4444"/><rect x="569.9811764705883" y="201.080344" width="7.52" height="5.557376000000005" fill="#ef4444"/><rect x="578.8282352941176" y="206.637808" width="7.52" height="1.913647999999995" fill="#ef4444"/><rect x="587.6752941176471" y="201.180312" width="7.52" height="7.371144000000015" fill="#16a34a"/><rect x="596.5223529411765" y="200.63128" width="7.52" height="1" fill="#16a34a"/><rect x="605.3694117647059" y="181.105312" width="7.52" height="19.525968000000006" fill="#16a34a"/><rect x="614.2164705882353" y="180.318944" width="7.52" height="1" fill="#16a34a"/></g><g class="legend"><g font-size="12" fill="#e5e7eb"></g></g></svg> 
