
    <svg width="860" height="420" viewBox="0 0 860 420" xmlns="http://www.w3.org/2000/svg" style="background-color: #1f2937; color: #e5e7eb; font-family: sans-serif;">
      <title>BTC/JPY 1day chart</title>
      <defs>
        <clipPath id="plotArea">
          <rect x="96" y="48" width="748" height="332"/>
        </clipPath>
      </defs>
      <g class="axes">
        
    <line x1="96" y1="48" x2="96" y2="380" stroke="#4b5563" stroke-width="1"/>
    <g font-size="12" fill="#e5e7eb">
      <text x="88" y="380" text-anchor="end" dominant-baseline="middle">14,000,000</text><text x="88" y="313.6" text-anchor="end" dominant-baseline="middle">15,000,000</text><text x="88" y="247.2" text-anchor="end" dominant-baseline="middle">16,000,000</text><text x="88" y="180.8" text-anchor="end" dominant-baseline="middle">17,000,000</text><text x="88" y="114.39999999999998" text-anchor="end" dominant-baseline="middle">18,000,000</text><text x="88" y="48" text-anchor="end" dominant-baseline="middle">19,000,000</text>
    </g>
  
        
    <line x1="96" y1="380" x2="844" y2="380" stroke="#4b5563" stroke-width="1"/>
    <g font-size="12" fill="#e5e7eb">
      <text x="96" y="396" text-anchor="middle" fill="#e5e7eb" font-size="10">6/15</text><text x="213.0782608695652" y="396" text-anchor="middle" fill="#e5e7eb" font-size="10">7/3</text><text x="330.1565217391304" y="396" text-anchor="middle" fill="#e5e7eb" font-size="10">7/21</text><text x="447.23478260869564" y="396" text-anchor="middle" fill="#e5e7eb" font-size="10">8/8</text><text x="564.3130434782609" y="396" text-anchor="middle" fill="#e5e7eb" font-size="10">8/26</text>
    </g>
  
      </g>
      <g class="plot-area" clip-path="url(#plotArea)">
        
        
        <path d="M -853.6347826086957,221.57069294400006 L -847.1304347826087,210.999555312 L -840.6260869565217,204.82364416799993 L -834.1217391304348,199.26798472000004 L -827.6173913043478,192.99584072000005 L -821.1130434782609,187.56583530399996 L -814.6086956521739,188.2233367359999 L -808.104347826087,186.9616112400001 L -801.6,186.7856439359999 L -795.0956521739131,188.5999183599999 L -788.591304347826,188.7231056319999 L -782.0869565217391,192.04759493599988 L -775.5826086956522,196.89745890399996 L -769.0782608695653,201.35896919199996 L -762.5739130434782,204.29659815199997 L -756.0695652173913,199.81033992000005 L -749.5652173913044,192.45507712799997 L -743.0608695652174,187.9903464400001 L -736.5565217391304,187.27295021600008 L -730.0521739130435,184.69712887999995 L -723.5478260869565,183.9560046160001 L -717.0434782608696,190.61271351199989 L -710.5391304347826,194.87102784800004 L -704.0347826086957,201.49316956799993 L -697.5304347826087,210.18267860800003 L -691.0260869565218,220.25185946399998 L -684.5217391304348,227.02760696 L -678.0173913043478,232.27489684 L -671.5130434782609,237.38304552000005 L -665.008695652174,248.709499088 L -658.5043478260869,263.51974020800003 L -652,276.97764904800005 L -645.4956521739131,286.08155252000006 L -638.991304347826,289.409128096 L -632.4869565217391,307.249737064 L -625.9826086956522,301.91060403200004 L -619.4782608695652,289.202464072 L -612.9739130434782,270.24533976799995 L -606.4695652173913,262.84204387999995 L -599.9652173913043,258.00275145599994 L -593.4608695652174,258.32932524800003 L -586.9565217391304,262.041739288 L -580.4521739130435,263.62117550399995 L -573.9478260869565,271.71818672000006 L -567.4434782608696,278.52317478400005 L -560.9391304347826,286.774604512 L -554.4347826086956,295.66892634400006 L -547.9304347826087,302.90535836799995 L -541.4260869565218,304.70862035199997 L -534.9217391304347,306.325245216 L -528.4173913043478,317.45994421599994 L -521.9130434782609,332.72963083999997 L -515.408695652174,344.4007986799999 L -508.9043478260869,360.26677456799996 L -502.4,377.91386272799997 L -495.89565217391305,386.4900163440001 L -489.3913043478261,390.17827672000004 L -482.8869565217391,390.249903728 L -476.38260869565215,389.28979558400005 L -469.8782608695652,389.59720367999995 L -463.3739130434783,391.390625848 L -456.86956521739125,413.7695792 L -450.3652173913043,414.09940061599997 L -443.8608695652174,412.90265084 L -437.35652173913047,418.77638089600003 L -430.85217391304343,422.44956647999993 L -424.3478260869565,419.110054176 L -417.8434782608696,419.66720064 L -411.3391304347826,421.317837576 L -404.83478260869566,428.1374914080001 L -398.3304347826087,428.368803776 L -391.82608695652175,427.532384888 L -385.32173913043476,429.05546609600003 L -378.81739130434784,427.93808955199995 L -372.31304347826085,427.766721776 L -365.8086956521739,427.648347176 L -359.30434782608694,418.690185064 L -352.8,415.855832672 L -346.295652173913,410.856012936 L -339.7913043478261,411.70990299199997 L -333.2869565217391,410.302006528 L -326.7826086956522,411.466228272 L -320.2782608695652,415.22014032000004 L -313.7739130434783,423.65786454400006 L -307.2695652173913,431.86361572000004 L -300.76521739130436,441.0926148 L -294.2608695652174,453.57986387200003 L -287.75652173913045,458.449801224 L -281.25217391304346,460.74208061599995 L -274.74782608695654,462.16602529600004 L -268.24347826086955,464.46389025599996 L -261.7391304347826,470.305335304 L -255.23478260869564,452.08879543200004 L -248.7304347826087,435.18769267999994 L -242.22608695652173,421.668962768 L -235.7217391304348,406.530887584 L -229.2173913043478,394.5847188320001 L -222.7130434782609,385.253944488 L -216.2086956521739,380.7871686799999 L -209.70434782608697,373.84479303999996 L -203.2,370.78505116 L -196.69565217391306,359.31369154400005 L -190.19130434782608,348.6729474559999 L -183.68695652173915,341.98271983999996 L -177.18260869565216,338.90480295199995 L -170.67826086956524,338.02350032000004 L -164.17391304347825,337.311080112 L -157.6695652173913,336.189114664 L -151.16521739130434,322.79712176799995 L -144.66086956521738,314.82901685599995 L -138.15652173913043,307.168573688 L -131.65217391304347,301.10168868799997 L -125.14782608695651,288.74519847999994 L -118.64347826086956,276.5512322320001 L -112.1391304347826,268.645816224 L -105.63478260869564,262.0527583679999 L -99.13043478260869,256.829575008 L -92.62608695652173,253.73969815199996 L -86.12173913043478,247.328733664 L -79.61739130434782,245.17959341599996 L -73.11304347826086,243.41759372000004 L -66.6086956521739,235.90683474400007 L -60.10434782608695,225.63648844800002 L -53.599999999999994,225.72162984800002 L -47.09565217391304,229.40500650399994 L -40.59130434782608,235.58472834400004 L -34.086956521739125,242.38297149600004 L -27.58260869565217,252.898795936 L -21.078260869565213,250.4780186 L -14.573913043478257,251.75258452799997 L -8.0695652173913,250.864095424 L -1.5652173913043441,250.66423474400005 L 4.939130434782612,250.650626064 L 11.443478260869568,250.587417912 L 17.947826086956525,250.56482929600006 L 24.45217391304348,249.96090270399995 L 30.956521739130437,246.46985763200007 L 37.46086956521739,246.54161345599994 L 43.96521739130435,247.36029823200008 L 50.469565217391306,247.44824967999995 L 56.97391304347826,243.09018527999996 L 63.47826086956522,240.69899047200002 L 69.98260869565217,245.70501860800005 L 76.48695652173913,245.87939895199997 L 82.99130434782609,246.24892092799996 L 89.49565217391304,248.07754040800003 L 96,250.31486118400005 L 102.50434782608696,252.87449552799995 L 109.00869565217391,256.70886312799996 L 115.51304347826087,256.70047415199997 L 122.01739130434783,256.76631705599993 L 128.52173913043478,256.77040530399995 L 135.02608695652174,256.59108147999996 L 141.5304347826087,255.54348536000003 L 148.03478260869565,254.86079907200002 L 154.5391304347826,254.32759976799994 L 161.04347826086956,255.90603201599995 L 167.54782608695652,254.94864096000003 L 174.05217391304348,253.98164315199998 L 180.55652173913043,252.82008603999998 L 187.0608695652174,256.000484024 L 193.56521739130434,262.76827945599996 L 200.0695652173913,266.476103264 L 206.57391304347826,264.50842956799994 L 213.0782608695652,259.384720712 L 219.58260869565217,256.98642575199995 L 226.08695652173913,254.79845279199998 L 232.59130434782608,251.57396454400006 L 239.09565217391304,248.172228136 L 245.6,243.12723780800005 L 252.10434782608695,235.13227011200001 L 258.6086956521739,215.47022149600005 L 265.11304347826086,193.89874194400005 L 271.61739130434785,178.4639484 L 278.1217391304348,159.5441442160001 L 284.6260869565217,140.35207745599993 L 291.1304347826087,126.89538440000001 L 297.6347826086957,115.17467352799997 L 304.1391304347826,103.66740147200005 L 310.64347826086953,95.56461943199992 L 317.1478260869565,88.21351195199998 L 323.6521739130435,84.54801947200002 L 330.1565217391304,85.33130507999999 L 336.66086956521735,82.79613448800012 L 343.16521739130434,81.87038037599996 L 349.6695652173913,83.80996753599987 L 356.17391304347825,88.14363192799999 L 362.67826086956524,93.31178429600004 L 369.18260869565216,100.62498932799997 L 375.68695652173915,111.41904437599999 L 382.1913043478261,126.21831223199993 L 388.69565217391306,130.91554252000003 L 395.2,131.7892655920001 L 401.704347826087,122.22065972799999 L 408.2086956521739,115.08936745599993 L 414.7130434782609,115.49713384000012 L 421.2173913043478,115.55924041600008 L 427.7217391304348,115.84063033599989 L 434.2260869565217,118.27069703199993 L 440.7304347826087,119.81584959999998 L 447.23478260869564,121.76826922400005 L 453.7391304347826,122.80131444800003 L 460.24347826086955,120.67232261600009 L 466.74782608695654,120.867553224 L 473.25217391304346,117.5032531359999 L 479.75652173913045,108.74869865599993 L 486.2608695652174,107.89671560799991 L 492.76521739130436,108.33996681600007 L 499.2695652173913,110.26088694400005 L 505.7739130434783,111.59026872799996 L 512.2782608695652,113.25859993599988 L 518.7826086956522,114.5826312079999 L 525.2869565217391,116.24814904800002 L 531.7913043478261,116.15910465599995 L 538.295652173913,117.56631520799988 L 544.8,117.7961030319999 L 551.304347826087,117.00151879999999 L 557.8086956521739,113.1825008880001 L 564.3130434782609,111.3907028640001 L 570.8173913043479,110.157791648 L 577.3217391304347,110.31191999200013 L 583.8260869565217,107.00273920799992 L 590.3304347826087,108.83746416800005 L 596.8347826086956,111.45321713599986 L 603.3391304347826,118.73204954400006 L 609.8434782608696,135.7625287119999 L 616.3478260869565,143.949411 L 622.8521739130434,150.15194522400003 L 629.3565217391305,157.18299673599986 L 635.8608695652174,165.7838504880001 L 642.3652173913043,173.23105536800009 L 648.8695652173913,174.264929928 L 655.3739130434783,177.4581112400001 L 661.8782608695652,176.4873372640001 L 668.3826086956522,178.86490745599994 L 674.8869565217391,177.48921366400012 L 674.8869565217391,256.2824602559999 L 668.3826086956522,255.482952464 L 661.8782608695652,256.96834569600003 L 655.3739130434783,256.63511796 L 648.8695652173913,257.1118354320001 L 642.3652173913043,257.034173992 L 635.8608695652174,259.74114927200003 L 629.3565217391305,261.255702064 L 622.8521739130434,261.71501941599996 L 616.3478260869565,262.16182236000003 L 609.8434782608696,263.7742348080001 L 603.3391304347826,270.09899549600004 L 596.8347826086956,266.33076694400006 L 590.3304347826087,257.98839511200003 L 583.8260869565217,249.35674039199995 L 577.3217391304347,237.98748936799993 L 570.8173913043479,233.735380112 L 564.3130434782609,226.824379136 L 557.8086956521739,222.044581112 L 551.304347826087,214.67583247999994 L 544.8,212.52182776799992 L 538.295652173913,213.356400072 L 531.7913043478261,218.42312710399995 L 525.2869565217391,218.21470879199995 L 518.7826086956522,215.777948312 L 512.2782608695652,211.05525694400006 L 505.7739130434783,210.50896223200007 L 499.2695652173913,210.372358176 L 492.76521739130436,210.22242830399995 L 486.2608695652174,209.968711912 L 479.75652173913045,210.139322064 L 473.25217391304346,206.25512790399995 L 466.74782608695654,205.21483445599995 L 460.24347826086955,205.28475498400005 L 453.7391304347826,204.96720827200002 L 447.23478260869564,204.53621981599997 L 440.7304347826087,204.27959112000005 L 434.2260869565217,203.98462704800002 L 427.7217391304348,201.54902126399998 L 421.2173913043478,197.243406224 L 414.7130434782609,193.3634112 L 408.2086956521739,188.13088934400005 L 401.704347826087,175.06803859200008 L 395.2,161.89341472799998 L 388.69565217391306,164.2960575599999 L 382.1913043478261,173.69475312799997 L 375.68695652173915,197.32311610399995 L 369.18260869565216,218.64673043200006 L 362.67826086956524,238.02606378400003 L 356.17391304347825,254.02582903200005 L 349.6695652173913,269.729132224 L 343.16521739130434,283.23105098400003 L 336.66086956521735,292.87010127200006 L 330.1565217391304,303.93439436000006 L 323.6521739130435,318.959822608 L 317.1478260869565,328.57652132799996 L 310.64347826086953,333.83689864800004 L 304.1391304347826,338.984083888 L 297.6347826086957,341.91203239199996 L 291.1304347826087,343.858812 L 284.6260869565217,343.64021390399995 L 278.1217391304348,340.025202024 L 271.61739130434785,335.28369024 L 265.11304347826086,336.27342805599994 L 258.6086956521739,329.90672514400006 L 252.10434782608695,321.926056688 L 245.6,320.51863299199994 L 239.09565217391304,320.49369514400007 L 232.59130434782608,320.852190736 L 226.08695652173913,319.99388640800004 L 219.58260869565217,320.34737344800004 L 213.0782608695652,320.8229501679999 L 206.57391304347826,319.025316912 L 200.0695652173913,319.55268961599995 L 193.56521739130434,319.882107984 L 187.0608695652174,323.215728616 L 180.55652173913043,324.85728004 L 174.05217391304348,325.48358940800006 L 167.54782608695652,325.98946312000004 L 161.04347826086956,327.63399590399996 L 154.5391304347826,335.227531112 L 148.03478260869565,337.22623684800004 L 141.5304347826087,337.76711664 L 135.02608695652174,334.68242164 L 128.52173913043478,332.79108005599994 L 122.01739130434783,332.92721798400004 L 115.51304347826087,334.44010280800006 L 109.00869565217391,334.457032152 L 102.50434782608696,335.08404735199997 L 96,335.799136176 L 89.49565217391304,335.649197672 L 82.99130434782609,334.986841072 L 76.48695652173913,334.693770728 L 69.98260869565217,334.00494443200006 L 63.47826086956522,336.51548792799997 L 56.97391304347826,335.40719423999997 L 50.469565217391306,334.14985047999994 L 43.96521739130435,333.97775960800004 L 37.46086956521739,333.45310598400005 L 30.956521739130437,333.75781292799996 L 24.45217391304348,327.019236816 L 17.947826086956525,325.380399824 L 11.443478260869568,325.232421448 L 4.939130434782612,323.37646641599997 L -1.5652173913043441,323.081852936 L -8.0695652173913,322.39564545599995 L -14.573913043478257,320.04617707200003 L -21.078260869565213,323.09077443999996 L -27.58260869565217,325.12480630399995 L -34.086956521739125,347.13901914400003 L -40.59130434782608,365.61246061599996 L -47.09565217391304,384.795546776 L -53.599999999999994,400.05103575199996 L -60.10434782608695,409.257007312 L -66.6086956521739,412.25408485599996 L -73.11304347826086,416.02250796000004 L -79.61739130434782,426.992110664 L -86.12173913043478,437.10148609600003 L -92.62608695652173,443.53598672799995 L -99.13043478260869,450.892828512 L -105.63478260869564,455.60617939199994 L -112.1391304347826,459.048452336 L -118.64347826086956,462.83276960800004 L -125.14782608695651,463.51326536 L -131.65217391304347,464.07869323200003 L -138.15652173913043,476.799528872 L -144.66086956521738,490.072841064 L -151.16521739130434,500.860206312 L -157.6695652173913,507.479201336 L -164.17391304347825,518.8300044480001 L -170.67826086956524,530.9727836 L -177.18260869565216,540.9360949679999 L -183.68695652173915,548.05926984 L -190.19130434782608,553.976078224 L -196.69565217391306,555.473818536 L -203.2,557.75896524 L -209.70434782608697,568.3510567200001 L -216.2086956521739,569.95573556 L -222.7130434782609,581.569406312 L -229.2173913043478,584.076550128 L -235.7217391304348,586.9493408159999 L -242.22608695652173,580.865098192 L -248.7304347826087,574.8301197200001 L -255.23478260869564,566.321093848 L -261.7391304347826,555.375353976 L -268.24347826086955,558.509398784 L -274.74782608695654,558.6862087039999 L -281.25217391304346,558.7220149039999 L -287.75652173913045,558.638913976 L -294.2608695652174,559.784501888 L -300.76521739130436,564.0677786399999 L -307.2695652173913,566.05292948 L -313.7739130434783,567.7345353759999 L -320.2782608695652,568.52120672 L -326.7826086956522,568.106686128 L -333.2869565217391,565.688999712 L -339.7913043478261,556.875458128 L -346.295652173913,555.321352184 L -352.8,538.371159248 L -359.30434782608694,531.0308696559999 L -365.8086956521739,514.2014855440001 L -372.31304347826085,513.866102464 L -378.81739130434784,511.969749008 L -385.32173913043476,508.57720966399995 L -391.82608695652175,511.37312575199996 L -398.3304347826087,512.743696784 L -404.83478260869566,513.577628992 L -411.3391304347826,525.480860184 L -417.8434782608696,530.30206392 L -424.3478260869565,530.2096191840001 L -430.85217391304343,528.92694648 L -437.35652173913047,530.867244784 L -443.8608695652174,534.05677476 L -450.3652173913043,533.550644744 L -456.86956521739125,533.6035715200001 L -463.3739130434783,544.5916579919999 L -469.8782608695652,543.647116 L -476.38260869565215,543.0585822559999 L -482.8869565217391,543.4073973919999 L -489.3913043478261,542.64600984 L -495.89565217391305,541.936843896 L -502.4,541.1233934320001 L -508.9043478260869,546.729731352 L -515.408695652174,549.775089 L -521.9130434782609,545.57891444 L -528.4173913043478,545.6430010639999 L -534.9217391304347,541.284866944 L -541.4260869565218,523.176893728 L -547.9304347826087,507.602007472 L -554.4347826086956,502.18524221599995 L -560.9391304347826,497.56138060800004 L -567.4434782608696,495.80528785599995 L -573.9478260869565,494.0611232 L -580.4521739130435,488.851501376 L -586.9565217391304,478.782471912 L -593.4608695652174,478.61435043200004 L -599.9652173913043,467.599678064 L -606.4695652173913,449.70735412000005 L -612.9739130434782,429.371356792 L -619.4782608695652,396.23728800800006 L -625.9826086956522,373.23473772799997 L -632.4869565217391,358.531650936 L -638.991304347826,367.08509774400005 L -645.4956521739131,365.23198596000003 L -652,366.1746255919999 L -658.5043478260869,371.521621712 L -665.008695652174,376.176228512 L -671.5130434782609,376.88730744 L -678.0173913043478,373.53693276 L -684.5217391304348,370.8131616 L -691.0260869565218,370.091173816 L -697.5304347826087,370.24908563200006 L -704.0347826086957,368.523787872 L -710.5391304347826,367.376458952 L -717.0434782608696,361.108846088 L -723.5478260869565,356.55452586399997 L -730.0521739130435,347.54579816 L -736.5565217391304,336.5918771440001 L -743.0608695652174,324.79461172000003 L -749.5652173913044,309.581593512 L -756.0695652173913,297.13899512000006 L -762.5739130434782,288.883421368 L -769.0782608695653,295.185996488 L -775.5826086956522,301.93734397599997 L -782.0869565217391,311.507703464 L -788.591304347826,321.669188288 L -795.0956521739131,329.5527361200001 L -801.6,341.17224542400004 L -808.104347826087,345.850563 L -814.6086956521739,347.818115184 L -821.1130434782609,347.903899336 L -827.6173913043478,348.3962028799999 L -834.1217391304348,348.39427063999995 L -840.6260869565217,348.463375112 L -847.1304347826087,348.865565888 L -853.6347826086957,348.96265065599994 Z" fill="rgba(59, 130, 246, 0.10)" stroke="none" />
        <path d="M -853.6347826086957,221.57069294400006 L -847.1304347826087,210.999555312 L -840.6260869565217,204.82364416799993 L -834.1217391304348,199.26798472000004 L -827.6173913043478,192.99584072000005 L -821.1130434782609,187.56583530399996 L -814.6086956521739,188.2233367359999 L -808.104347826087,186.9616112400001 L -801.6,186.7856439359999 L -795.0956521739131,188.5999183599999 L -788.591304347826,188.7231056319999 L -782.0869565217391,192.04759493599988 L -775.5826086956522,196.89745890399996 L -769.0782608695653,201.35896919199996 L -762.5739130434782,204.29659815199997 L -756.0695652173913,199.81033992000005 L -749.5652173913044,192.45507712799997 L -743.0608695652174,187.9903464400001 L -736.5565217391304,187.27295021600008 L -730.0521739130435,184.69712887999995 L -723.5478260869565,183.9560046160001 L -717.0434782608696,190.61271351199989 L -710.5391304347826,194.87102784800004 L -704.0347826086957,201.49316956799993 L -697.5304347826087,210.18267860800003 L -691.0260869565218,220.25185946399998 L -684.5217391304348,227.02760696 L -678.0173913043478,232.27489684 L -671.5130434782609,237.38304552000005 L -665.008695652174,248.709499088 L -658.5043478260869,263.51974020800003 L -652,276.97764904800005 L -645.4956521739131,286.08155252000006 L -638.991304347826,289.409128096 L -632.4869565217391,307.249737064 L -625.9826086956522,301.91060403200004 L -619.4782608695652,289.202464072 L -612.9739130434782,270.24533976799995 L -606.4695652173913,262.84204387999995 L -599.9652173913043,258.00275145599994 L -593.4608695652174,258.32932524800003 L -586.9565217391304,262.041739288 L -580.4521739130435,263.62117550399995 L -573.9478260869565,271.71818672000006 L -567.4434782608696,278.52317478400005 L -560.9391304347826,286.774604512 L -554.4347826086956,295.66892634400006 L -547.9304347826087,302.90535836799995 L -541.4260869565218,304.70862035199997 L -534.9217391304347,306.325245216 L -528.4173913043478,317.45994421599994 L -521.9130434782609,332.72963083999997 L -515.408695652174,344.4007986799999 L -508.9043478260869,360.26677456799996 L -502.4,377.91386272799997 L -495.89565217391305,386.4900163440001 L -489.3913043478261,390.17827672000004 L -482.8869565217391,390.249903728 L -476.38260869565215,389.28979558400005 L -469.8782608695652,389.59720367999995 L -463.3739130434783,391.390625848 L -456.86956521739125,413.7695792 L -450.3652173913043,414.09940061599997 L -443.8608695652174,412.90265084 L -437.35652173913047,418.77638089600003 L -430.85217391304343,422.44956647999993 L -424.3478260869565,419.110054176 L -417.8434782608696,419.66720064 L -411.3391304347826,421.317837576 L -404.83478260869566,428.1374914080001 L -398.3304347826087,428.368803776 L -391.82608695652175,427.532384888 L -385.32173913043476,429.05546609600003 L -378.81739130434784,427.93808955199995 L -372.31304347826085,427.766721776 L -365.8086956521739,427.648347176 L -359.30434782608694,418.690185064 L -352.8,415.855832672 L -346.295652173913,410.856012936 L -339.7913043478261,411.70990299199997 L -333.2869565217391,410.302006528 L -326.7826086956522,411.466228272 L -320.2782608695652,415.22014032000004 L -313.7739130434783,423.65786454400006 L -307.2695652173913,431.86361572000004 L -300.76521739130436,441.0926148 L -294.2608695652174,453.57986387200003 L -287.75652173913045,458.449801224 L -281.25217391304346,460.74208061599995 L -274.74782608695654,462.16602529600004 L -268.24347826086955,464.46389025599996 L -261.7391304347826,470.305335304 L -255.23478260869564,452.08879543200004 L -248.7304347826087,435.18769267999994 L -242.22608695652173,421.668962768 L -235.7217391304348,406.530887584 L -229.2173913043478,394.5847188320001 L -222.7130434782609,385.253944488 L -216.2086956521739,380.7871686799999 L -209.70434782608697,373.84479303999996 L -203.2,370.78505116 L -196.69565217391306,359.31369154400005 L -190.19130434782608,348.6729474559999 L -183.68695652173915,341.98271983999996 L -177.18260869565216,338.90480295199995 L -170.67826086956524,338.02350032000004 L -164.17391304347825,337.311080112 L -157.6695652173913,336.189114664 L -151.16521739130434,322.79712176799995 L -144.66086956521738,314.82901685599995 L -138.15652173913043,307.168573688 L -131.65217391304347,301.10168868799997 L -125.14782608695651,288.74519847999994 L -118.64347826086956,276.5512322320001 L -112.1391304347826,268.645816224 L -105.63478260869564,262.0527583679999 L -99.13043478260869,256.829575008 L -92.62608695652173,253.73969815199996 L -86.12173913043478,247.328733664 L -79.61739130434782,245.17959341599996 L -73.11304347826086,243.41759372000004 L -66.6086956521739,235.90683474400007 L -60.10434782608695,225.63648844800002 L -53.599999999999994,225.72162984800002 L -47.09565217391304,229.40500650399994 L -40.59130434782608,235.58472834400004 L -34.086956521739125,242.38297149600004 L -27.58260869565217,252.898795936 L -21.078260869565213,250.4780186 L -14.573913043478257,251.75258452799997 L -8.0695652173913,250.864095424 L -1.5652173913043441,250.66423474400005 L 4.939130434782612,250.650626064 L 11.443478260869568,250.587417912 L 17.947826086956525,250.56482929600006 L 24.45217391304348,249.96090270399995 L 30.956521739130437,246.46985763200007 L 37.46086956521739,246.54161345599994 L 43.96521739130435,247.36029823200008 L 50.469565217391306,247.44824967999995 L 56.97391304347826,243.09018527999996 L 63.47826086956522,240.69899047200002 L 69.98260869565217,245.70501860800005 L 76.48695652173913,245.87939895199997 L 82.99130434782609,246.24892092799996 L 89.49565217391304,248.07754040800003 L 96,250.31486118400005 L 102.50434782608696,252.87449552799995 L 109.00869565217391,256.70886312799996 L 115.51304347826087,256.70047415199997 L 122.01739130434783,256.76631705599993 L 128.52173913043478,256.77040530399995 L 135.02608695652174,256.59108147999996 L 141.5304347826087,255.54348536000003 L 148.03478260869565,254.86079907200002 L 154.5391304347826,254.32759976799994 L 161.04347826086956,255.90603201599995 L 167.54782608695652,254.94864096000003 L 174.05217391304348,253.98164315199998 L 180.55652173913043,252.82008603999998 L 187.0608695652174,256.000484024 L 193.56521739130434,262.76827945599996 L 200.0695652173913,266.476103264 L 206.57391304347826,264.50842956799994 L 213.0782608695652,259.384720712 L 219.58260869565217,256.98642575199995 L 226.08695652173913,254.79845279199998 L 232.59130434782608,251.57396454400006 L 239.09565217391304,248.172228136 L 245.6,243.12723780800005 L 252.10434782608695,235.13227011200001 L 258.6086956521739,215.47022149600005 L 265.11304347826086,193.89874194400005 L 271.61739130434785,178.4639484 L 278.1217391304348,159.5441442160001 L 284.6260869565217,140.35207745599993 L 291.1304347826087,126.89538440000001 L 297.6347826086957,115.17467352799997 L 304.1391304347826,103.66740147200005 L 310.64347826086953,95.56461943199992 L 317.1478260869565,88.21351195199998 L 323.6521739130435,84.54801947200002 L 330.1565217391304,85.33130507999999 L 336.66086956521735,82.79613448800012 L 343.16521739130434,81.87038037599996 L 349.6695652173913,83.80996753599987 L 356.17391304347825,88.14363192799999 L 362.67826086956524,93.31178429600004 L 369.18260869565216,100.62498932799997 L 375.68695652173915,111.41904437599999 L 382.1913043478261,126.21831223199993 L 388.69565217391306,130.91554252000003 L 395.2,131.7892655920001 L 401.704347826087,122.22065972799999 L 408.2086956521739,115.08936745599993 L 414.7130434782609,115.49713384000012 L 421.2173913043478,115.55924041600008 L 427.7217391304348,115.84063033599989 L 434.2260869565217,118.27069703199993 L 440.7304347826087,119.81584959999998 L 447.23478260869564,121.76826922400005 L 453.7391304347826,122.80131444800003 L 460.24347826086955,120.67232261600009 L 466.74782608695654,120.867553224 L 473.25217391304346,117.5032531359999 L 479.75652173913045,108.74869865599993 L 486.2608695652174,107.89671560799991 L 492.76521739130436,108.33996681600007 L 499.2695652173913,110.26088694400005 L 505.7739130434783,111.59026872799996 L 512.2782608695652,113.25859993599988 L 518.7826086956522,114.5826312079999 L 525.2869565217391,116.24814904800002 L 531.7913043478261,116.15910465599995 L 538.295652173913,117.56631520799988 L 544.8,117.7961030319999 L 551.304347826087,117.00151879999999 L 557.8086956521739,113.1825008880001 L 564.3130434782609,111.3907028640001 L 570.8173913043479,110.157791648 L 577.3217391304347,110.31191999200013 L 583.8260869565217,107.00273920799992 L 590.3304347826087,108.83746416800005 L 596.8347826086956,111.45321713599986 L 603.3391304347826,118.73204954400006 L 609.8434782608696,135.7625287119999 L 616.3478260869565,143.949411 L 622.8521739130434,150.15194522400003 L 629.3565217391305,157.18299673599986 L 635.8608695652174,165.7838504880001 L 642.3652173913043,173.23105536800009 L 648.8695652173913,174.264929928 L 655.3739130434783,177.4581112400001 L 661.8782608695652,176.4873372640001 L 668.3826086956522,178.86490745599994 L 674.8869565217391,177.48921366400012" fill="none" stroke="#3b82f6" stroke-width="1"/>
        <path d="M -853.6347826086957,348.96265065599994 L -847.1304347826087,348.865565888 L -840.6260869565217,348.463375112 L -834.1217391304348,348.39427063999995 L -827.6173913043478,348.3962028799999 L -821.1130434782609,347.903899336 L -814.6086956521739,347.818115184 L -808.104347826087,345.850563 L -801.6,341.17224542400004 L -795.0956521739131,329.5527361200001 L -788.591304347826,321.669188288 L -782.0869565217391,311.507703464 L -775.5826086956522,301.93734397599997 L -769.0782608695653,295.185996488 L -762.5739130434782,288.883421368 L -756.0695652173913,297.13899512000006 L -749.5652173913044,309.581593512 L -743.0608695652174,324.79461172000003 L -736.5565217391304,336.5918771440001 L -730.0521739130435,347.54579816 L -723.5478260869565,356.55452586399997 L -717.0434782608696,361.108846088 L -710.5391304347826,367.376458952 L -704.0347826086957,368.523787872 L -697.5304347826087,370.24908563200006 L -691.0260869565218,370.091173816 L -684.5217391304348,370.8131616 L -678.0173913043478,373.53693276 L -671.5130434782609,376.88730744 L -665.008695652174,376.176228512 L -658.5043478260869,371.521621712 L -652,366.1746255919999 L -645.4956521739131,365.23198596000003 L -638.991304347826,367.08509774400005 L -632.4869565217391,358.531650936 L -625.9826086956522,373.23473772799997 L -619.4782608695652,396.23728800800006 L -612.9739130434782,429.371356792 L -606.4695652173913,449.70735412000005 L -599.9652173913043,467.599678064 L -593.4608695652174,478.61435043200004 L -586.9565217391304,478.782471912 L -580.4521739130435,488.851501376 L -573.9478260869565,494.0611232 L -567.4434782608696,495.80528785599995 L -560.9391304347826,497.56138060800004 L -554.4347826086956,502.18524221599995 L -547.9304347826087,507.602007472 L -541.4260869565218,523.176893728 L -534.9217391304347,541.284866944 L -528.4173913043478,545.6430010639999 L -521.9130434782609,545.57891444 L -515.408695652174,549.775089 L -508.9043478260869,546.729731352 L -502.4,541.1233934320001 L -495.89565217391305,541.936843896 L -489.3913043478261,542.64600984 L -482.8869565217391,543.4073973919999 L -476.38260869565215,543.0585822559999 L -469.8782608695652,543.647116 L -463.3739130434783,544.5916579919999 L -456.86956521739125,533.6035715200001 L -450.3652173913043,533.550644744 L -443.8608695652174,534.05677476 L -437.35652173913047,530.867244784 L -430.85217391304343,528.92694648 L -424.3478260869565,530.2096191840001 L -417.8434782608696,530.30206392 L -411.3391304347826,525.480860184 L -404.83478260869566,513.577628992 L -398.3304347826087,512.743696784 L -391.82608695652175,511.37312575199996 L -385.32173913043476,508.57720966399995 L -378.81739130434784,511.969749008 L -372.31304347826085,513.866102464 L -365.8086956521739,514.2014855440001 L -359.30434782608694,531.0308696559999 L -352.8,538.371159248 L -346.295652173913,555.321352184 L -339.7913043478261,556.875458128 L -333.2869565217391,565.688999712 L -326.7826086956522,568.106686128 L -320.2782608695652,568.52120672 L -313.7739130434783,567.7345353759999 L -307.2695652173913,566.05292948 L -300.76521739130436,564.0677786399999 L -294.2608695652174,559.784501888 L -287.75652173913045,558.638913976 L -281.25217391304346,558.7220149039999 L -274.74782608695654,558.6862087039999 L -268.24347826086955,558.509398784 L -261.7391304347826,555.375353976 L -255.23478260869564,566.321093848 L -248.7304347826087,574.8301197200001 L -242.22608695652173,580.865098192 L -235.7217391304348,586.9493408159999 L -229.2173913043478,584.076550128 L -222.7130434782609,581.569406312 L -216.2086956521739,569.95573556 L -209.70434782608697,568.3510567200001 L -203.2,557.75896524 L -196.69565217391306,555.473818536 L -190.19130434782608,553.976078224 L -183.68695652173915,548.05926984 L -177.18260869565216,540.9360949679999 L -170.67826086956524,530.9727836 L -164.17391304347825,518.8300044480001 L -157.6695652173913,507.479201336 L -151.16521739130434,500.860206312 L -144.66086956521738,490.072841064 L -138.15652173913043,476.799528872 L -131.65217391304347,464.07869323200003 L -125.14782608695651,463.51326536 L -118.64347826086956,462.83276960800004 L -112.1391304347826,459.048452336 L -105.63478260869564,455.60617939199994 L -99.13043478260869,450.892828512 L -92.62608695652173,443.53598672799995 L -86.12173913043478,437.10148609600003 L -79.61739130434782,426.992110664 L -73.11304347826086,416.02250796000004 L -66.6086956521739,412.25408485599996 L -60.10434782608695,409.257007312 L -53.599999999999994,400.05103575199996 L -47.09565217391304,384.795546776 L -40.59130434782608,365.61246061599996 L -34.086956521739125,347.13901914400003 L -27.58260869565217,325.12480630399995 L -21.078260869565213,323.09077443999996 L -14.573913043478257,320.04617707200003 L -8.0695652173913,322.39564545599995 L -1.5652173913043441,323.081852936 L 4.939130434782612,323.37646641599997 L 11.443478260869568,325.232421448 L 17.947826086956525,325.380399824 L 24.45217391304348,327.019236816 L 30.956521739130437,333.75781292799996 L 37.46086956521739,333.45310598400005 L 43.96521739130435,333.97775960800004 L 50.469565217391306,334.14985047999994 L 56.97391304347826,335.40719423999997 L 63.47826086956522,336.51548792799997 L 69.98260869565217,334.00494443200006 L 76.48695652173913,334.693770728 L 82.99130434782609,334.986841072 L 89.49565217391304,335.649197672 L 96,335.799136176 L 102.50434782608696,335.08404735199997 L 109.00869565217391,334.457032152 L 115.51304347826087,334.44010280800006 L 122.01739130434783,332.92721798400004 L 128.52173913043478,332.79108005599994 L 135.02608695652174,334.68242164 L 141.5304347826087,337.76711664 L 148.03478260869565,337.22623684800004 L 154.5391304347826,335.227531112 L 161.04347826086956,327.63399590399996 L 167.54782608695652,325.98946312000004 L 174.05217391304348,325.48358940800006 L 180.55652173913043,324.85728004 L 187.0608695652174,323.215728616 L 193.56521739130434,319.882107984 L 200.0695652173913,319.55268961599995 L 206.57391304347826,319.025316912 L 213.0782608695652,320.8229501679999 L 219.58260869565217,320.34737344800004 L 226.08695652173913,319.99388640800004 L 232.59130434782608,320.852190736 L 239.09565217391304,320.49369514400007 L 245.6,320.51863299199994 L 252.10434782608695,321.926056688 L 258.6086956521739,329.90672514400006 L 265.11304347826086,336.27342805599994 L 271.61739130434785,335.28369024 L 278.1217391304348,340.025202024 L 284.6260869565217,343.64021390399995 L 291.1304347826087,343.858812 L 297.6347826086957,341.91203239199996 L 304.1391304347826,338.984083888 L 310.64347826086953,333.83689864800004 L 317.1478260869565,328.57652132799996 L 323.6521739130435,318.959822608 L 330.1565217391304,303.93439436000006 L 336.66086956521735,292.87010127200006 L 343.16521739130434,283.23105098400003 L 349.6695652173913,269.729132224 L 356.17391304347825,254.02582903200005 L 362.67826086956524,238.02606378400003 L 369.18260869565216,218.64673043200006 L 375.68695652173915,197.32311610399995 L 382.1913043478261,173.69475312799997 L 388.69565217391306,164.2960575599999 L 395.2,161.89341472799998 L 401.704347826087,175.06803859200008 L 408.2086956521739,188.13088934400005 L 414.7130434782609,193.3634112 L 421.2173913043478,197.243406224 L 427.7217391304348,201.54902126399998 L 434.2260869565217,203.98462704800002 L 440.7304347826087,204.27959112000005 L 447.23478260869564,204.53621981599997 L 453.7391304347826,204.96720827200002 L 460.24347826086955,205.28475498400005 L 466.74782608695654,205.21483445599995 L 473.25217391304346,206.25512790399995 L 479.75652173913045,210.139322064 L 486.2608695652174,209.968711912 L 492.76521739130436,210.22242830399995 L 499.2695652173913,210.372358176 L 505.7739130434783,210.50896223200007 L 512.2782608695652,211.05525694400006 L 518.7826086956522,215.777948312 L 525.2869565217391,218.21470879199995 L 531.7913043478261,218.42312710399995 L 538.295652173913,213.356400072 L 544.8,212.52182776799992 L 551.304347826087,214.67583247999994 L 557.8086956521739,222.044581112 L 564.3130434782609,226.824379136 L 570.8173913043479,233.735380112 L 577.3217391304347,237.98748936799993 L 583.8260869565217,249.35674039199995 L 590.3304347826087,257.98839511200003 L 596.8347826086956,266.33076694400006 L 603.3391304347826,270.09899549600004 L 609.8434782608696,263.7742348080001 L 616.3478260869565,262.16182236000003 L 622.8521739130434,261.71501941599996 L 629.3565217391305,261.255702064 L 635.8608695652174,259.74114927200003 L 642.3652173913043,257.034173992 L 648.8695652173913,257.1118354320001 L 655.3739130434783,256.63511796 L 661.8782608695652,256.96834569600003 L 668.3826086956522,255.482952464 L 674.8869565217391,256.2824602559999" fill="none" stroke="#3b82f6" stroke-width="1"/>
        <path d="M -853.6347826086957,285.2666718 L -847.1304347826087,279.9325606 L -840.6260869565217,276.64350964 L -834.1217391304348,273.83112767999995 L -827.6173913043478,270.6960218 L -821.1130434782609,267.73486732000003 L -814.6086956521739,268.02072596000005 L -808.104347826087,266.40608712000005 L -801.6,263.9789446799999 L -795.0956521739131,259.07632723999996 L -788.591304347826,255.19614696000002 L -782.0869565217391,251.7776492 L -775.5826086956522,249.41740144 L -769.0782608695653,248.27248283999998 L -762.5739130434782,246.59000976000002 L -756.0695652173913,248.47466752000005 L -749.5652173913044,251.01833532000006 L -743.0608695652174,256.39247907999993 L -736.5565217391304,261.93241367999997 L -730.0521739130435,266.12146352 L -723.5478260869565,270.25526523999997 L -717.0434782608696,275.8607798 L -710.5391304347826,281.12374339999997 L -704.0347826086957,285.0084787200001 L -697.5304347826087,290.21588212000006 L -691.0260869565218,295.17151664 L -684.5217391304348,298.92038427999995 L -678.0173913043478,302.9059148 L -671.5130434782609,307.1351764799999 L -665.008695652174,312.4428638 L -658.5043478260869,317.52068096000005 L -652,321.57613732000004 L -645.4956521739131,325.65676923999996 L -638.991304347826,328.24711292000006 L -632.4869565217391,332.890694 L -625.9826086956522,337.5726708799999 L -619.4782608695652,342.71987604 L -612.9739130434782,349.80834827999996 L -606.4695652173913,356.274699 L -599.9652173913043,362.80121476000005 L -593.4608695652174,368.47183784 L -586.9565217391304,370.4121056 L -580.4521739130435,376.23633844 L -573.9478260869565,382.88965496000003 L -567.4434782608696,387.16423132000006 L -560.9391304347826,392.16799256 L -554.4347826086956,398.92708428 L -547.9304347826087,405.2536829200001 L -541.4260869565218,413.94275703999995 L -534.9217391304347,423.80505607999993 L -528.4173913043478,431.55147264 L -521.9130434782609,439.15427264 L -515.408695652174,447.08794384 L -508.9043478260869,453.49825296000006 L -502.4,459.5186280799999 L -495.89565217391305,464.21343012000006 L -489.3913043478261,466.41214327999995 L -482.8869565217391,466.82865056 L -476.38260869565215,466.17418892000006 L -469.8782608695652,466.62215984 L -463.3739130434783,467.99114192 L -456.86956521739125,473.68657536 L -450.3652173913043,473.82502267999996 L -443.8608695652174,473.4797128 L -437.35652173913047,474.82181284 L -430.85217391304343,475.68825647999995 L -424.3478260869565,474.65983667999996 L -417.8434782608696,474.9846322799999 L -411.3391304347826,473.39934887999993 L -404.83478260869566,470.85756019999997 L -398.3304347826087,470.55625028 L -391.82608695652175,469.45275532000005 L -385.32173913043476,468.81633787999994 L -378.81739130434784,469.9539192799999 L -372.31304347826085,470.81641212000005 L -365.8086956521739,470.92491636 L -359.30434782608694,474.86052736 L -352.8,477.11349596 L -346.295652173913,483.08868256000005 L -339.7913043478261,484.29268056 L -333.2869565217391,487.9955031200001 L -326.7826086956522,489.7864572 L -320.2782608695652,491.8706735200001 L -313.7739130434783,495.69619996 L -307.2695652173913,498.9582726 L -300.76521739130436,502.58019672000006 L -294.2608695652174,506.6821828799999 L -287.75652173913045,508.5443576 L -281.25217391304346,509.73204776 L -274.74782608695654,510.426117 L -268.24347826086955,511.48664452 L -261.7391304347826,512.84034464 L -255.23478260869564,509.20494464 L -248.7304347826087,505.0089062 L -242.22608695652173,501.26703047999996 L -235.7217391304348,496.7401142 L -229.2173913043478,489.33063447999996 L -222.7130434782609,483.4116754 L -216.2086956521739,475.3714521200001 L -209.70434782608697,471.09792487999994 L -203.2,464.2720082 L -196.69565217391306,457.39375504 L -190.19130434782608,451.32451283999995 L -183.68695652173915,445.02099483999996 L -177.18260869565216,439.92044896000004 L -170.67826086956524,434.49814196 L -164.17391304347825,428.0705422799999 L -157.6695652173913,421.834158 L -151.16521739130434,411.82866404 L -144.66086956521738,402.45092896000006 L -138.15652173913043,391.98405127999996 L -131.65217391304347,382.59019096000003 L -125.14782608695651,376.12923192000005 L -118.64347826086956,369.69200092000005 L -112.1391304347826,363.84713428 L -105.63478260869564,358.8294688799999 L -99.13043478260869,353.86120176000003 L -92.62608695652173,348.63784244 L -86.12173913043478,342.21510987999994 L -79.61739130434782,336.08585203999996 L -73.11304347826086,329.72005084 L -66.6086956521739,324.08045979999997 L -60.10434782608695,317.44674788 L -53.599999999999994,312.8863328 L -47.09565217391304,307.10027663999995 L -40.59130434782608,300.59859448 L -34.086956521739125,294.76099532000006 L -27.58260869565217,289.0118011200001 L -21.078260869565213,286.7843965200001 L -14.573913043478257,285.8993808 L -8.0695652173913,286.62987044 L -1.5652173913043441,286.87304384 L 4.939130434782612,287.01354624 L 11.443478260869568,287.9099196799999 L 17.947826086956525,287.97261456 L 24.45217391304348,288.49006976000004 L 30.956521739130437,290.11383527999993 L 37.46086956521739,289.9973597200001 L 43.96521739130435,290.6690289200001 L 50.469565217391306,290.7990500799999 L 56.97391304347826,289.24868976000005 L 63.47826086956522,288.6072392 L 69.98260869565217,289.85498152 L 76.48695652173913,290.28658484 L 82.99130434782609,290.617881 L 89.49565217391304,291.86336903999995 L 96,293.05699867999994 L 102.50434782608696,293.97927144 L 109.00869565217391,295.58294764 L 115.51304347826087,295.57028847999993 L 122.01739130434783,294.84676752000007 L 128.52173913043478,294.78074267999995 L 135.02608695652174,295.63675156 L 141.5304347826087,296.655301 L 148.03478260869565,296.04351796000003 L 154.5391304347826,294.77756544 L 161.04347826086956,291.77001396 L 167.54782608695652,290.46905203999995 L 174.05217391304348,289.73261627999995 L 180.55652173913043,288.83868304 L 187.0608695652174,289.60810632000005 L 193.56521739130434,291.3251937200001 L 200.0695652173913,293.01439644 L 206.57391304347826,291.76687324 L 213.0782608695652,290.10383543999995 L 219.58260869565217,288.66689959999997 L 226.08695652173913,287.3961696 L 232.59130434782608,286.21307764 L 239.09565217391304,284.33296164 L 245.6,281.8229354 L 252.10434782608695,278.5291634 L 258.6086956521739,272.68847332000007 L 265.11304347826086,265.086085 L 271.61739130434785,256.87381932000005 L 278.1217391304348,249.78467312000006 L 284.6260869565217,241.99614567999996 L 291.1304347826087,235.3770982 L 297.6347826086957,228.54335296000002 L 304.1391304347826,221.32574267999993 L 310.64347826086953,214.70075903999998 L 317.1478260869565,208.39501664 L 323.6521739130435,201.75392104 L 330.1565217391304,194.63284972000005 L 336.66086956521735,187.83311787999995 L 343.16521739130434,182.55071567999994 L 349.6695652173913,176.76954987999994 L 356.17391304347825,171.08473047999993 L 362.67826086956524,165.6689240400001 L 369.18260869565216,159.63585987999997 L 375.68695652173915,154.3710802400001 L 382.1913043478261,149.95653267999998 L 388.69565217391306,147.6058000400001 L 395.2,146.8413401599999 L 401.704347826087,148.6443491599999 L 408.2086956521739,151.6101284 L 414.7130434782609,154.43027252000002 L 421.2173913043478,156.40132332000002 L 427.7217391304348,158.6948258 L 434.2260869565217,161.1276620400001 L 440.7304347826087,162.0477203599999 L 447.23478260869564,163.15224452000004 L 453.7391304347826,163.8842613599999 L 460.24347826086955,162.9785388 L 466.74782608695654,163.04119384000012 L 473.25217391304346,161.87919052000004 L 479.75652173913045,159.4440103599999 L 486.2608695652174,158.9327137599999 L 492.76521739130436,159.2811975599999 L 499.2695652173913,160.3166225599999 L 505.7739130434783,161.04961547999997 L 512.2782608695652,162.15692844000012 L 518.7826086956522,165.1802897599999 L 525.2869565217391,167.23142892000004 L 531.7913043478261,167.29111587999995 L 538.295652173913,165.4613576400001 L 544.8,165.1589654 L 551.304347826087,165.8386756400001 L 557.8086956521739,167.613541 L 564.3130434782609,169.107541 L 570.8173913043479,171.94658587999996 L 577.3217391304347,174.14970467999996 L 583.8260869565217,178.1797398 L 590.3304347826087,183.4129296400001 L 596.8347826086956,188.8919920400001 L 603.3391304347826,194.41552252000005 L 609.8434782608696,199.76838176 L 616.3478260869565,203.05561667999996 L 622.8521739130434,205.93348232000005 L 629.3565217391305,209.2193494 L 635.8608695652174,212.76249987999995 L 642.3652173913043,215.13261467999996 L 648.8695652173913,215.68838267999996 L 655.3739130434783,217.0466146 L 661.8782608695652,216.72784147999994 L 668.3826086956522,217.17392996 L 674.8869565217391,216.88583696" fill="none" stroke="#9ca3af" stroke-width="1" stroke-dasharray="4 4"/>
      
        <line x1="96" y1="292.666404" x2="96" y2="307.8903304" stroke="#9ca3af" stroke-width="1"/><line x1="102.50434782608696" y1="265.1944" x2="102.50434782608696" y2="301.6003248" stroke="#9ca3af" stroke-width="1"/><line x1="109.00869565217391" y1="271.493768" x2="109.00869565217391" y2="309.9084256" stroke="#9ca3af" stroke-width="1"/><line x1="115.51304347826087" y1="290.6233424" x2="115.51304347826087" y2="312.272" stroke="#9ca3af" stroke-width="1"/><line x1="122.01739130434783" y1="293.6800664" x2="122.01739130434783" y2="306.96" stroke="#9ca3af" stroke-width="1"/><line x1="128.52173913043478" y1="279.4565224" x2="128.52173913043478" y2="315.125208" stroke="#9ca3af" stroke-width="1"/><line x1="135.02608695652174" y1="297.5194472" x2="135.02608695652174" y2="326.88" stroke="#9ca3af" stroke-width="1"/><line x1="141.5304347826087" y1="304.0863408" x2="141.5304347826087" y2="354.8836688" stroke="#9ca3af" stroke-width="1"/><line x1="148.03478260869565" y1="283.056" x2="148.03478260869565" y2="339.2454064" stroke="#9ca3af" stroke-width="1"/><line x1="154.5391304347826" y1="287.7555928" x2="154.5391304347826" y2="300.0024088" stroke="#9ca3af" stroke-width="1"/><line x1="161.04347826086956" y1="264.582856" x2="161.04347826086956" y2="289.6952696" stroke="#9ca3af" stroke-width="1"/><line x1="167.54782608695652" y1="269.1890904" x2="167.54782608695652" y2="284.3839336" stroke="#9ca3af" stroke-width="1"/><line x1="174.05217391304348" y1="274.053488" x2="174.05217391304348" y2="284.2432984" stroke="#9ca3af" stroke-width="1"/><line x1="180.55652173913043" y1="275.2240536" x2="180.55652173913043" y2="280.736648" stroke="#9ca3af" stroke-width="1"/><line x1="187.0608695652174" y1="267.12" x2="187.0608695652174" y2="278.89338399999997" stroke="#9ca3af" stroke-width="1"/><line x1="193.56521739130434" y1="264.464" x2="193.56521739130434" y2="284.7808728" stroke="#9ca3af" stroke-width="1"/><line x1="200.0695652173913" y1="281.728" x2="200.0695652173913" y2="303.38934" stroke="#9ca3af" stroke-width="1"/><line x1="206.57391304347826" y1="265.03298159999997" x2="206.57391304347826" y2="304.33480959999997" stroke="#9ca3af" stroke-width="1"/><line x1="213.0782608695652" y1="250.52" x2="213.0782608695652" y2="276.0336024" stroke="#9ca3af" stroke-width="1"/><line x1="219.58260869565217" y1="257.7576" x2="219.58260869565217" y2="277.5682392" stroke="#9ca3af" stroke-width="1"/><line x1="226.08695652173913" y1="266.9275728" x2="226.08695652173913" y2="272.0570392" stroke="#9ca3af" stroke-width="1"/><line x1="232.59130434782608" y1="256.8295936" x2="232.59130434782608" y2="272.8316616" stroke="#9ca3af" stroke-width="1"/><line x1="239.09565217391304" y1="254.50400000000002" x2="239.09565217391304" y2="266.0862848" stroke="#9ca3af" stroke-width="1"/><line x1="245.6" y1="246.2704" x2="245.6" y2="265.0183072" stroke="#9ca3af" stroke-width="1"/><line x1="252.10434782608695" y1="225.288" x2="252.10434782608695" y2="253.6688208" stroke="#9ca3af" stroke-width="1"/><line x1="258.6086956521739" y1="180.8000664" x2="258.6086956521739" y2="237.1712096" stroke="#9ca3af" stroke-width="1"/><line x1="265.11304347826086" y1="150.5496872" x2="265.11304347826086" y2="192.6504744" stroke="#9ca3af" stroke-width="1"/><line x1="271.61739130434785" y1="156.232" x2="271.61739130434785" y2="165.939348" stroke="#9ca3af" stroke-width="1"/><line x1="278.1217391304348" y1="144.2800664" x2="278.1217391304348" y2="163.2276384" stroke="#9ca3af" stroke-width="1"/><line x1="284.6260869565217" y1="107.75999999999999" x2="284.6260869565217" y2="149.6323712" stroke="#9ca3af" stroke-width="1"/><line x1="291.1304347826087" y1="132.8866896" x2="291.1304347826087" y2="170.091672" stroke="#9ca3af" stroke-width="1"/><line x1="297.6347826086957" y1="129.0845592" x2="297.6347826086957" y2="151.157712" stroke="#9ca3af" stroke-width="1"/><line x1="304.1391304347826" y1="121.57936719999998" x2="304.1391304347826" y2="150.55812" stroke="#9ca3af" stroke-width="1"/><line x1="310.64347826086953" y1="116.392" x2="310.64347826086953" y2="156.896" stroke="#9ca3af" stroke-width="1"/><line x1="317.1478260869565" y1="136.7667072" x2="317.1478260869565" y2="147.6" stroke="#9ca3af" stroke-width="1"/><line x1="323.6521739130435" y1="134.4553232" x2="323.6521739130435" y2="158.888" stroke="#9ca3af" stroke-width="1"/><line x1="330.1565217391304" y1="133.4601864" x2="330.1565217391304" y2="166.0443928" stroke="#9ca3af" stroke-width="1"/><line x1="336.66086956521735" y1="138.6360664" x2="336.66086956521735" y2="167.852" stroke="#9ca3af" stroke-width="1"/><line x1="343.16521739130434" y1="140.0681152" x2="343.16521739130434" y2="166.1857584" stroke="#9ca3af" stroke-width="1"/><line x1="349.6695652173913" y1="144.3940088" x2="349.6695652173913" y2="166.856" stroke="#9ca3af" stroke-width="1"/><line x1="356.17391304347825" y1="152.2480664" x2="356.17391304347825" y2="183.031704" stroke="#9ca3af" stroke-width="1"/><line x1="362.67826086956524" y1="150.0593232" x2="362.67826086956524" y2="160.4776824" stroke="#9ca3af" stroke-width="1"/><line x1="369.18260869565216" y1="135.9462024" x2="369.18260869565216" y2="153.2693648" stroke="#9ca3af" stroke-width="1"/><line x1="375.68695652173915" y1="134.2998808" x2="375.68695652173915" y2="148.1311336" stroke="#9ca3af" stroke-width="1"/><line x1="382.1913043478261" y1="130.7909064" x2="382.1913043478261" y2="152.2479336" stroke="#9ca3af" stroke-width="1"/><line x1="388.69565217391306" y1="134.3781" x2="388.69565217391306" y2="159.594828" stroke="#9ca3af" stroke-width="1"/><line x1="395.2" y1="121.77863359999998" x2="395.2" y2="150.92" stroke="#9ca3af" stroke-width="1"/><line x1="401.704347826087" y1="145.7261256" x2="401.704347826087" y2="204.04" stroke="#9ca3af" stroke-width="1"/><line x1="408.2086956521739" y1="189.6784104" x2="408.2086956521739" y2="211.344" stroke="#9ca3af" stroke-width="1"/><line x1="414.7130434782609" y1="184.1267728" x2="414.7130434782609" y2="211.6096" stroke="#9ca3af" stroke-width="1"/><line x1="421.2173913043478" y1="177.4903584" x2="421.2173913043478" y2="192.088" stroke="#9ca3af" stroke-width="1"/><line x1="427.7217391304348" y1="179.6461672" x2="427.7217391304348" y2="207.36" stroke="#9ca3af" stroke-width="1"/><line x1="434.2260869565217" y1="177.7456" x2="434.2260869565217" y2="197.6258264" stroke="#9ca3af" stroke-width="1"/><line x1="440.7304347826087" y1="159.8722472" x2="440.7304347826087" y2="188.729488" stroke="#9ca3af" stroke-width="1"/><line x1="447.23478260869564" y1="158.2240664" x2="447.23478260869564" y2="171.3362072" stroke="#9ca3af" stroke-width="1"/><line x1="453.7391304347826" y1="154.675252" x2="453.7391304347826" y2="168.5367168" stroke="#9ca3af" stroke-width="1"/><line x1="460.24347826086955" y1="140.0888984" x2="460.24347826086955" y2="167.52" stroke="#9ca3af" stroke-width="1"/><line x1="466.74782608695654" y1="115.0640664" x2="466.74782608695654" y2="147.5312096" stroke="#9ca3af" stroke-width="1"/><line x1="473.25217391304346" y1="129.008" x2="473.25217391304346" y2="142.5214624" stroke="#9ca3af" stroke-width="1"/><line x1="479.75652173913045" y1="102.38159999999999" x2="479.75652173913045" y2="138.9679336" stroke="#9ca3af" stroke-width="1"/><line x1="486.2608695652174" y1="98.464" x2="486.2608695652174" y2="156.232" stroke="#9ca3af" stroke-width="1"/><line x1="492.76521739130436" y1="140.78736" x2="492.76521739130436" y2="167.0242576" stroke="#9ca3af" stroke-width="1"/><line x1="499.2695652173913" y1="153.355884" x2="499.2695652173913" y2="165.2528384" stroke="#9ca3af" stroke-width="1"/><line x1="505.7739130434783" y1="148.3034416" x2="505.7739130434783" y2="163.7206584" stroke="#9ca3af" stroke-width="1"/><line x1="512.2782608695652" y1="156.0116184" x2="512.2782608695652" y2="184.5832728" stroke="#9ca3af" stroke-width="1"/><line x1="518.7826086956522" y1="154.904" x2="518.7826086956522" y2="202.7784" stroke="#9ca3af" stroke-width="1"/><line x1="525.2869565217391" y1="186.0599424" x2="525.2869565217391" y2="209.0386584" stroke="#9ca3af" stroke-width="1"/><line x1="531.7913043478261" y1="183.4884032" x2="531.7913043478261" y2="204.04" stroke="#9ca3af" stroke-width="1"/><line x1="538.295652173913" y1="164.5984664" x2="538.295652173913" y2="205.4438288" stroke="#9ca3af" stroke-width="1"/><line x1="544.8" y1="169.512" x2="544.8" y2="192.088" stroke="#9ca3af" stroke-width="1"/><line x1="551.304347826087" y1="181.0797432" x2="551.304347826087" y2="220.64" stroke="#9ca3af" stroke-width="1"/><line x1="557.8086956521739" y1="196.1458368" x2="557.8086956521739" y2="235.0851208" stroke="#9ca3af" stroke-width="1"/><line x1="564.3130434782609" y1="208.7543336" x2="564.3130434782609" y2="245.208" stroke="#9ca3af" stroke-width="1"/><line x1="570.8173913043479" y1="201.9128096" x2="570.8173913043479" y2="223.5608696" stroke="#9ca3af" stroke-width="1"/><line x1="577.3217391304347" y1="198.5321864" x2="577.3217391304347" y2="221.968" stroke="#9ca3af" stroke-width="1"/><line x1="583.8260869565217" y1="207.5131184" x2="583.8260869565217" y2="256.7118664" stroke="#9ca3af" stroke-width="1"/><line x1="590.3304347826087" y1="243.6397648" x2="590.3304347826087" y2="257.46099119999997" stroke="#9ca3af" stroke-width="1"/><line x1="596.8347826086956" y1="238.2118304" x2="596.8347826086956" y2="252.1610096" stroke="#9ca3af" stroke-width="1"/><line x1="603.3391304347826" y1="234.4047864" x2="603.3391304347826" y2="259.9713096" stroke="#9ca3af" stroke-width="1"/><line x1="609.8434782608696" y1="211.6153104" x2="609.8434782608696" y2="242.6037256" stroke="#9ca3af" stroke-width="1"/><line x1="616.3478260869565" y1="202.7120664" x2="616.3478260869565" y2="219.0315928" stroke="#9ca3af" stroke-width="1"/><line x1="622.8521739130434" y1="197.317" x2="622.8521739130434" y2="227.5455336" stroke="#9ca3af" stroke-width="1"/><line x1="629.3565217391305" y1="195.408" x2="629.3565217391305" y2="230.1691968" stroke="#9ca3af" stroke-width="1"/><line x1="635.8608695652174" y1="218.648" x2="635.8608695652174" y2="229.936" stroke="#9ca3af" stroke-width="1"/><line x1="642.3652173913043" y1="209.3438328" x2="642.3652173913043" y2="228.7550096" stroke="#9ca3af" stroke-width="1"/><line x1="648.8695652173913" y1="202.41154" x2="648.8695652173913" y2="219.6750088" stroke="#9ca3af" stroke-width="1"/><line x1="655.3739130434783" y1="202.3978616" x2="655.3739130434783" y2="224.2167688" stroke="#9ca3af" stroke-width="1"/><line x1="661.8782608695652" y1="191.424" x2="661.8782608695652" y2="222.056644" stroke="#9ca3af" stroke-width="1"/><line x1="668.3826086956522" y1="178.808" x2="668.3826086956522" y2="196.7434368" stroke="#9ca3af" stroke-width="1"/><line x1="674.8869565217391" y1="170.84" x2="674.8869565217391" y2="180.7942232" stroke="#9ca3af" stroke-width="1"/>
        <rect x="93.50666666666666" y="294.9391432" width="4.986666666666667" height="3.597153600000013" fill="#16a34a"/><rect x="100.01101449275362" y="284.1336056" width="4.986666666666667" height="10.80553759999998" fill="#16a34a"/><rect x="106.51536231884057" y="284.0329432" width="4.986666666666667" height="12.87874480000005" fill="#ef4444"/><rect x="113.01971014492753" y="296.9117544" width="4.986666666666667" height="1.8164383999999814" fill="#ef4444"/><rect x="119.52405797101449" y="298.46744" width="4.986666666666667" height="1" fill="#16a34a"/><rect x="126.02840579710144" y="298.46744" width="4.986666666666667" height="5.786428000000001" fill="#ef4444"/><rect x="132.5327536231884" y="304.2538016" width="4.986666666666667" height="11.164828000000057" fill="#ef4444"/><rect x="139.03710144927535" y="315.418696" width="4.986666666666667" height="11.237934399999972" fill="#ef4444"/><rect x="145.5414492753623" y="289.0393704" width="4.986666666666667" height="37.61725999999999" fill="#16a34a"/><rect x="152.04579710144927" y="288.6573048" width="4.986666666666667" height="1" fill="#16a34a"/><rect x="158.55014492753622" y="277.7439336" width="4.986666666666667" height="10.690466399999991" fill="#16a34a"/><rect x="165.05449275362318" y="277.7439336" width="4.986666666666667" height="2.7224664000000303" fill="#ef4444"/><rect x="171.55884057971014" y="279.94728480000003" width="4.986666666666667" height="1" fill="#16a34a"/><rect x="178.0631884057971" y="277.6605352" width="4.986666666666667" height="2.2867496000000074" fill="#16a34a"/><rect x="184.56753623188405" y="269.6460552" width="4.986666666666667" height="8.014480000000049" fill="#16a34a"/><rect x="191.071884057971" y="269.6460552" width="4.986666666666667" height="15.13481760000002" fill="#ef4444"/><rect x="197.57623188405796" y="284.7331976" width="4.986666666666667" height="16.09868" fill="#ef4444"/><rect x="204.08057971014492" y="276.033536" width="4.986666666666667" height="24.798341599999958" fill="#16a34a"/><rect x="210.58492753623187" y="259.224044" width="4.986666666666667" height="16.809492000000034" fill="#16a34a"/><rect x="217.08927536231883" y="259.224044" width="4.986666666666667" height="10.57353599999999" fill="#ef4444"/><rect x="223.5936231884058" y="269.5245432" width="4.986666666666667" height="1" fill="#16a34a"/><rect x="230.09797101449274" y="260.4717664" width="4.986666666666667" height="9.053042400000038" fill="#16a34a"/><rect x="236.6023188405797" y="259.309368" width="4.986666666666667" height="1.170565599999975" fill="#16a34a"/><rect x="243.10666666666665" y="248.527668" width="4.986666666666667" height="10.78176639999998" fill="#16a34a"/><rect x="249.6110144927536" y="232.592" width="4.986666666666667" height="15.935667999999993" fill="#16a34a"/><rect x="256.11536231884054" y="187.4400664" width="4.986666666666667" height="45.15193360000001" fill="#16a34a"/><rect x="262.6197101449275" y="163.3708632" width="4.986666666666667" height="24.069136799999995" fill="#16a34a"/><rect x="269.1240579710145" y="162.4113168" width="4.986666666666667" height="1" fill="#16a34a"/><rect x="275.62840579710144" y="147.2564464" width="4.986666666666667" height="15.154804000000013" fill="#16a34a"/><rect x="282.13275362318836" y="132.886756" width="4.986666666666667" height="14.369624000000016" fill="#16a34a"/><rect x="288.63710144927535" y="132.8866896" width="4.986666666666667" height="12.4762944" fill="#ef4444"/><rect x="295.14144927536233" y="143.7914952" width="4.986666666666667" height="1.5714223999999888" fill="#16a34a"/><rect x="301.64579710144926" y="135.5950792" width="4.986666666666667" height="8.196416000000028" fill="#16a34a"/><rect x="308.1501449275362" y="135.5951456" width="4.986666666666667" height="9.565716800000018" fill="#ef4444"/><rect x="314.6544927536232" y="143.5312072" width="4.986666666666667" height="1.6295887999999934" fill="#16a34a"/><rect x="321.15884057971016" y="143.5312072" width="4.986666666666667" height="8.427753599999988" fill="#ef4444"/><rect x="327.6631884057971" y="151.9589608" width="4.986666666666667" height="6.4514904000000115" fill="#ef4444"/><rect x="334.167536231884" y="140.0388992" width="4.986666666666667" height="18.37155200000001" fill="#16a34a"/><rect x="340.671884057971" y="140.0681152" width="4.986666666666667" height="13.5078848" fill="#ef4444"/><rect x="347.176231884058" y="153.538816" width="4.986666666666667" height="1" fill="#ef4444"/><rect x="353.6805797101449" y="154.174264" width="4.986666666666667" height="1.653891200000004" fill="#ef4444"/><rect x="360.1849275362319" y="152.1556376" width="4.986666666666667" height="3.6724511999999834" fill="#16a34a"/><rect x="366.6892753623188" y="138.6480848" width="4.986666666666667" height="13.507552800000013" fill="#16a34a"/><rect x="373.1936231884058" y="138.4205984" width="4.986666666666667" height="4.811476800000008" fill="#ef4444"/><rect x="379.69797101449274" y="143.0761016" width="4.986666666666667" height="1.2249472000000026" fill="#ef4444"/><rect x="386.2023188405797" y="140.4254136" width="4.986666666666667" height="3.8755687999999964" fill="#16a34a"/><rect x="392.70666666666665" y="140.4253472" width="4.986666666666667" height="7.6563184000000035" fill="#ef4444"/><rect x="399.21101449275363" y="148.081732" width="4.986666666666667" height="50.38976480000002" fill="#ef4444"/><rect x="405.71536231884056" y="198.4714968" width="4.986666666666667" height="8.100534399999987" fill="#ef4444"/><rect x="412.21971014492755" y="189.2896384" width="4.986666666666667" height="17.282392799999997" fill="#16a34a"/><rect x="418.7240579710145" y="184.784" width="4.986666666666667" height="4.505638400000009" fill="#16a34a"/><rect x="425.22840579710146" y="184.8786864" width="4.986666666666667" height="4.782858400000009" fill="#ef4444"/><rect x="431.7327536231884" y="184.251804" width="4.986666666666667" height="5.409740800000009" fill="#16a34a"/><rect x="438.2371014492754" y="163.5620288" width="4.986666666666667" height="20.690704799999992" fill="#16a34a"/><rect x="444.7414492753623" y="163.5620288" width="4.986666666666667" height="2.0596615999999983" fill="#ef4444"/><rect x="451.2457971014493" y="165.6216904" width="4.986666666666667" height="1" fill="#ef4444"/><rect x="457.7501449275362" y="140.296" width="4.986666666666667" height="26.303297600000008" fill="#16a34a"/><rect x="464.2544927536232" y="140.2959336" width="4.986666666666667" height="1" fill="#ef4444"/><rect x="470.7588405797101" y="130.3359336" width="4.986666666666667" height="10.955999999999989" fill="#16a34a"/><rect x="477.2631884057971" y="105.47066080000002" width="4.986666666666667" height="24.865272799999985" fill="#16a34a"/><rect x="483.76753623188404" y="105.23347999999999" width="4.986666666666667" height="40.36874320000001" fill="#ef4444"/><rect x="490.271884057971" y="145.6022232" width="4.986666666666667" height="13.523090400000001" fill="#ef4444"/><rect x="496.77623188405795" y="159.1253136" width="4.986666666666667" height="1" fill="#ef4444"/><rect x="503.28057971014493" y="157.8919336" width="4.986666666666667" height="1.46465120000002" fill="#16a34a"/><rect x="509.78492753623186" y="157.8919336" width="4.986666666666667" height="8.555374400000005" fill="#ef4444"/><rect x="516.2892753623189" y="166.4473744" width="4.986666666666667" height="34.4452656" fill="#ef4444"/><rect x="522.7936231884057" y="189.1044488" width="4.986666666666667" height="11.7881912" fill="#16a34a"/><rect x="529.2979710144928" y="189.1045152" width="4.986666666666667" height="10.560720799999984" fill="#ef4444"/><rect x="535.8023188405797" y="169.9768664" width="4.986666666666667" height="29.688369599999987" fill="#16a34a"/><rect x="542.3066666666666" y="169.9768" width="4.986666666666667" height="13.264993599999997" fill="#ef4444"/><rect x="548.8110144927537" y="183.2417936" width="4.986666666666667" height="15.136411199999998" fill="#ef4444"/><rect x="555.3153623188406" y="198.3782048" width="4.986666666666667" height="26.780647200000004" fill="#ef4444"/><rect x="561.8197101449275" y="214.131804" width="4.986666666666667" height="11.0269816" fill="#16a34a"/><rect x="568.3240579710146" y="214.131804" width="4.986666666666667" height="6.211122400000022" fill="#ef4444"/><rect x="574.8284057971014" y="209.6840664" width="4.986666666666667" height="10.658860000000004" fill="#16a34a"/><rect x="581.3327536231884" y="209.6840664" width="4.986666666666667" height="37.51593359999998" fill="#ef4444"/><rect x="587.8371014492753" y="244.9597968" width="4.986666666666667" height="2.240136800000016" fill="#16a34a"/><rect x="594.3414492753623" y="244.9598632" width="4.986666666666667" height="5.913384799999989" fill="#ef4444"/><rect x="600.8457971014493" y="240.8065432" width="4.986666666666667" height="10.066704799999997" fill="#16a34a"/><rect x="607.3501449275362" y="212.5278456" width="4.986666666666667" height="28.278763999999995" fill="#16a34a"/><rect x="613.8544927536232" y="211.3469216" width="4.986666666666667" height="1" fill="#16a34a"/><rect x="620.3588405797101" y="211.3468552" width="4.986666666666667" height="5.335771200000011" fill="#ef4444"/><rect x="626.8631884057971" y="216.3902672" width="4.986666666666667" height="8.683659199999994" fill="#ef4444"/><rect x="633.3675362318841" y="225.0739264" width="4.986666666666667" height="3.681016800000009" fill="#ef4444"/><rect x="639.871884057971" y="213.849604" width="4.986666666666667" height="14.905339200000014" fill="#16a34a"/><rect x="646.3762318840579" y="212.008" width="4.986666666666667" height="2.200495999999987" fill="#16a34a"/><rect x="652.880579710145" y="212.008" width="4.986666666666667" height="4.2610871999999915" fill="#ef4444"/><rect x="659.3849275362319" y="193.2897736" width="4.986666666666667" height="22.97931360000001" fill="#16a34a"/><rect x="665.8892753623188" y="178.898636" width="4.986666666666667" height="14.391137599999979" fill="#16a34a"/><rect x="672.3936231884057" y="177.4799336" width="4.986666666666667" height="1.4187024000000008" fill="#16a34a"/>
        
      </g>
      <g class="legend">
        <g font-size="12" fill="#e5e7eb"><g transform="translate(96, 30)">
        <rect y="-10" width="12" height="12" fill="#3b82f6"></rect>
        <text x="16" y="0">BB 2</text>
      </g></g>
      </g>
    </svg>
  
