 <svg width="860" height="420" viewBox="0 0 860 420" xmlns="http://www.w3.org/2000/svg" style="background-color: #1f2937; color: #e5e7eb; font-family: sans-serif;"><title>BTC/JPY 1day chart</title><defs><clipPath id="plotArea"><rect x="96" y="36" width="752" height="352"/></clipPath></defs><g class="axes"><line x1="96" y1="36" x2="96" y2="388" stroke="#4b5563" stroke-width="1"/><g font-size="12" fill="#e5e7eb"><text x="88" y="388" text-anchor="end" dominant-baseline="middle">14,000,000</text><text x="88" y="300" text-anchor="end" dominant-baseline="middle">15,000,000</text><text x="88" y="212" text-anchor="end" dominant-baseline="middle">16,000,000</text><text x="88" y="124" text-anchor="end" dominant-baseline="middle">17,000,000</text><text x="88" y="36" text-anchor="end" dominant-baseline="middle">18,000,000</text></g><line x1="96" y1="388" x2="848" y2="388" stroke="#4b5563" stroke-width="1"/><g font-size="12" fill="#e5e7eb"><text x="98.64788732394366" y="404" text-anchor="middle" fill="#e5e7eb" font-size="10">6/6</text><text x="220.45070422535213" y="404" text-anchor="middle" fill="#e5e7eb" font-size="10">6/29</text><text x="342.2535211267606" y="404" text-anchor="middle" fill="#e5e7eb" font-size="10">7/22</text><text x="464.056338028169" y="404" text-anchor="middle" fill="#e5e7eb" font-size="10">8/14</text><text x="585.8591549295775" y="404" text-anchor="middle" fill="#e5e7eb" font-size="10">9/6</text><text x="707.6619718309859" y="404" text-anchor="middle" fill="#e5e7eb" font-size="10">9/29</text></g></g><g class="plot-area" clip-path="url(#plotArea)"><path d="M 3.323943661971825,527.04561 L 8.619718309859152,527.04561 L 13.91549295774648,512.130908 L 19.211267605633807,511.369004 L 24.50704225352112,511.369004 L 29.80281690140845,511.369004 L 35.098591549295776,509.221562 L 40.394366197183096,503.548818 L 45.690140845070424,469.522386 L 50.985915492957744,468.521122 L 56.28169014084507,463.458438 L 61.57746478873239,463.356644 L 66.87323943661971,452.897426 L 72.16901408450704,452.897426 L 77.46478873239437,441.55805399999997 L 82.7605633802817,398.825958 L 88.05633802816901,398.67517 L 93.35211267605634,394.27803 L 98.64788732394366,393.59229 L 103.94366197183099,378.876424 L 109.2394366197183,378.11452 L 114.53521126760563,378.11452 L 119.83098591549296,368.465958 L 125.12676056338029,361.65258 L 130.42253521126761,336.982704 L 135.71830985915494,319.905556 L 141.01408450704224,319.465556 L 146.30985915492957,315.332636 L 151.6056338028169,301.67395799999997 L 156.90140845070422,290.346378 L 162.19718309859155,290.346378 L 167.49295774647888,290.020822 L 172.7887323943662,290.020822 L 178.0845070422535,289.87003400000003 L 183.38028169014086,289.87003400000003 L 188.67605633802816,283.180978 L 193.9718309859155,282.170034 L 199.26760563380282,287.31722 L 204.56338028169014,290.111396 L 209.85915492957747,283.55324 L 215.15492957746477,279.804044 L 220.45070422535213,260.806912 L 225.74647887323943,260.76959999999997 L 231.04225352112675,279.729266 L 236.33802816901408,279.729266 L 241.6338028169014,289.72248 L 246.92957746478874,289.375782 L 252.22535211267606,277.67176 L 257.5211267605634,276.835804 L 262.8169014084507,276.13176 L 268.11267605633805,276.13176 L 273.40845070422534,276.13176 L 278.70422535211264,273.70493999999997 L 284,269.637228 L 289.29577464788736,269.637228 L 294.59154929577466,270.851276 L 299.88732394366195,272.83946000000003 L 305.1830985915493,272.83946000000003 L 310.4788732394366,278.80146 L 315.7746478873239,278.80146 L 321.07042253521126,289.318648 L 326.3661971830986,289.318648 L 331.6619718309859,289.318648 L 336.9577464788732,289.11602800000003 L 342.2535211267606,289.11602800000003 L 347.5492957746479,289.11602800000003 L 352.84507042253523,289.11602800000003 L 352.84507042253523,289.11602800000003 L 352.84507042253523,289.11602800000003 L 352.84507042253523,294.915536 L 347.5492957746479,304.247408 L 342.2535211267606,323.544532 L 336.9577464788732,323.544532 L 331.6619718309859,323.544532 L 326.3661971830986,323.544532 L 321.07042253521126,323.544532 L 315.7746478873239,323.544532 L 310.4788732394366,323.846108 L 305.1830985915493,323.846108 L 299.88732394366195,323.846108 L 294.59154929577466,323.846108 L 289.29577464788736,323.846108 L 284,324.049696 L 278.70422535211264,332.315536 L 273.40845070422534,333.195536 L 268.11267605633805,367.275208 L 262.8169014084507,378.620696 L 257.5211267605634,382.91558 L 252.22535211267606,382.91558 L 246.92957746478874,382.91558 L 241.6338028169014,384.439388 L 236.33802816901408,387.956792 L 231.04225352112675,387.956792 L 225.74647887323943,387.956792 L 220.45070422535213,387.956792 L 215.15492957746477,387.956792 L 209.85915492957747,410.635536 L 204.56338028169014,410.635536 L 199.26760563380282,431.553972 L 193.9718309859155,431.553972 L 188.67605633802816,433.4135 L 183.38028169014086,433.4135 L 178.0845070422535,433.4135 L 172.7887323943662,433.4135 L 167.49295774647888,433.4135 L 162.19718309859155,433.4135 L 156.90140845070422,433.4135 L 151.6056338028169,444.74108 L 146.30985915492957,458.297964 L 141.01408450704224,458.297964 L 135.71830985915494,458.297964 L 130.42253521126761,458.297964 L 125.12676056338029,458.297964 L 119.83098591549296,458.297964 L 114.53521126760563,458.297964 L 109.2394366197183,458.297964 L 103.94366197183099,458.297964 L 98.64788732394366,471.255128 L 93.35211267605634,471.940868 L 88.05633802816901,476.338008 L 82.7605633802817,476.338008 L 77.46478873239437,519.070104 L 72.16901408450704,519.070104 L 66.87323943661971,519.070104 L 61.57746478873239,519.070104 L 56.28169014084507,519.070104 L 50.985915492957744,519.070104 L 45.690140845070424,519.6313680000001 L 40.394366197183096,536.617964 L 35.098591549295776,536.617964 L 29.80281690140845,536.617964 L 24.50704225352112,536.617964 L 19.211267605633807,532.584616 L 13.91549295774648,532.584616 L 8.619718309859152,532.584616 L 3.323943661971825,527.04561 ZM 368.7323943661972,283.89529600000003 L 374.0281690140845,272.328532 L 379.32394366197184,267.708532 L 384.61971830985914,267.708532 L 389.9154929577465,267.708532 L 395.2112676056338,267.708532 L 400.50704225352115,268.808532 L 405.80281690140845,265.992532 L 411.09859154929575,252.088532 L 416.3943661971831,222.608576 L 421.6901408450704,193.694702 L 426.98591549295776,193.694702 L 432.28169014084506,187.970786 L 437.5774647887324,163.770742 L 442.8732394366197,161.535828 L 448.16901408450707,161.18198 L 453.46478873239437,157.421608 L 458.76056338028167,146.77418 L 464.056338028169,120.45657 L 469.3521126760563,112.98226799999998 L 474.6478873239437,112.98226799999998 L 479.943661971831,112.98226799999998 L 485.23943661971833,115.84226799999999 L 490.53521126760563,115.10020800000001 L 495.83098591549293,120.12962800000003 L 501.1267605633803,120.12962800000003 L 506.4225352112676,125.78474999999997 L 511.71830985915494,116.91630800000001 L 517.0140845070423,116.03190799999999 L 522.3098591549297,114.46256 L 527.6056338028169,111.47656599999999 L 532.9014084507043,116.20223199999998 L 538.1971830985915,118.26838400000003 L 543.4929577464789,114.59601199999997 L 548.7887323943662,109.12993599999999 L 554.0845070422536,100.660728 L 559.3802816901409,100.660728 L 564.6760563380282,100.660728 L 569.9718309859155,100.660728 L 575.2676056338028,111.45513799999998 L 580.5633802816901,109.58738199999999 L 585.8591549295775,100.856044 L 591.1549295774648,99.44804399999998 L 596.4507042253522,91.04399999999998 L 601.7464788732394,85.22282200000001 L 607.0422535211268,82.27524 L 612.3380281690141,76.512406 L 617.6338028169014,75.58486399999998 L 622.9295774647887,80.90149400000001 L 628.2253521126761,86.93 L 633.5211267605633,89.00418200000001 L 638.8169014084507,89.00418200000001 L 644.112676056338,89.00418200000001 L 649.4084507042254,103.02698199999998 L 654.7042253521126,112.35306800000001 L 660,121.92513600000001 L 660,121.92513600000001 L 660,121.92513600000001 L 660,130.42483600000003 L 654.7042253521126,133.563532 L 649.4084507042254,133.563532 L 644.112676056338,151.300416 L 638.8169014084507,151.300416 L 633.5211267605633,151.300416 L 628.2253521126761,151.300416 L 622.9295774647887,151.300416 L 617.6338028169014,151.300416 L 612.3380281690141,151.300416 L 607.0422535211268,151.300416 L 601.7464788732394,151.300416 L 596.4507042253522,177.029944 L 591.1549295774648,190.956648 L 585.8591549295775,190.956648 L 580.5633802816901,190.956648 L 575.2676056338028,190.956648 L 569.9718309859155,190.956648 L 564.6760563380282,190.956648 L 559.3802816901409,190.956648 L 554.0845070422536,190.956648 L 548.7887323943662,190.956648 L 543.4929577464789,190.956648 L 538.1971830985915,190.956648 L 532.9014084507043,190.956648 L 527.6056338028169,190.956648 L 522.3098591549297,190.956648 L 517.0140845070423,190.956648 L 511.71830985915494,190.956648 L 506.4225352112676,190.956648 L 501.1267605633803,190.956648 L 495.83098591549293,190.956648 L 490.53521126760563,190.956648 L 485.23943661971833,190.956648 L 479.943661971831,190.956648 L 474.6478873239437,190.956648 L 469.3521126760563,190.956648 L 464.056338028169,190.956648 L 458.76056338028167,190.956648 L 453.46478873239437,190.956648 L 448.16901408450707,190.956648 L 442.8732394366197,190.956648 L 437.5774647887324,190.956648 L 432.28169014084506,215.156692 L 426.98591549295776,219.31126 L 421.6901408450704,219.31126 L 416.3943661971831,239.356692 L 411.09859154929575,268.83664799999997 L 405.80281690140845,276.952184 L 400.50704225352115,276.952184 L 395.2112676056338,276.952184 L 389.9154929577465,276.952184 L 384.61971830985914,276.952184 L 379.32394366197184,276.952184 L 374.0281690140845,276.952184 L 368.7323943661972,283.89529600000003 Z" fill="rgba(16, 163, 74, 0.16)" stroke="none" /><path d="M -319.71830985915494,243.744328 L -314.4225352112676,243.744328 L -309.1267605633803,243.744328 L -303.83098591549293,264.424328 L -298.53521126760563,304.374744 L -293.23943661971833,327.784328 L -287.943661971831,327.784328 L -282.6478873239437,347.5838 L -277.3521126760563,347.5838 L -272.056338028169,347.5838 L -266.76056338028167,347.5838 L -261.46478873239437,347.5838 L -256.16901408450707,347.5838 L -250.8732394366197,347.5838 L -245.5774647887324,347.5838 L -240.28169014084506,347.5838 L -234.98591549295776,347.5838 L -229.6901408450704,363.864064 L -224.3943661971831,371.651932 L -219.09859154929575,371.651932 L -213.80281690140845,389.627604 L -208.50704225352115,389.627604 L -203.2112676056338,389.627604 L -197.9154929577465,390.385768 L -192.61971830985914,399.984324 L -187.32394366197184,400.741432 L -182.02816901408448,403.08122 L -176.73239436619718,403.08122 L -171.43661971830988,403.08122 L -166.14084507042253,403.08122 L -160.84507042253523,403.591884 L -155.54929577464787,420.57958 L -150.25352112676057,423.76738 L -144.95774647887325,423.76738 L -139.66197183098592,427.697152 L -134.3661971830986,452.923936 L -129.07042253521126,454.093192 L -123.77464788732394,454.093192 L -118.47887323943661,458.127552 L -113.18309859154928,458.127552 L -107.88732394366198,458.127552 L -102.59154929577466,458.127552 L -97.29577464788733,458.127552 L -92,458.127552 L -86.70422535211267,468.533596 L -81.40845070422534,484.431764 L -76.11267605633802,484.431764 L -70.81690140845072,484.431764 L -65.52112676056339,484.431764 L -60.22535211267606,484.431764 L -54.929577464788736,484.431764 L -49.63380281690141,484.431764 L -44.33802816901408,501.418008 L -39.04225352112675,501.418008 L -33.746478873239425,501.418008 L -28.450704225352112,501.418008 L -23.154929577464785,513.019312 L -17.85915492957747,513.019312 L -12.563380281690144,513.019312 L -7.267605633802816,513.019312 L -1.9718309859154886,513.019312 L 3.323943661971825,516.3285960000001 L 3.323943661971825,527.04561 L 3.323943661971825,527.04561 L 3.323943661971825,527.04561 L -1.9718309859154886,532.3479179999999 L -7.267605633802816,554.374626 L -12.563380281690144,555.68961 L -17.85915492957747,567.028982 L -23.154929577464785,566.291982 L -28.450704225352112,576.7512 L -33.746478873239425,576.7512 L -39.04225352112675,577.680964 L -44.33802816901408,577.952466 L -49.63380281690141,577.916276 L -54.929577464788736,575.81554 L -60.22535211267606,575.81554 L -65.52112676056339,558.100964 L -70.81690140845072,558.100964 L -76.11267605633802,558.100964 L -81.40845070422534,558.100964 L -86.70422535211267,545.3941159999999 L -92,526.288854 L -97.29577464788733,526.288854 L -102.59154929577466,525.284202 L -107.88732394366198,518.63248 L -113.18309859154928,513.745818 L -118.47887323943661,505.835806 L -123.77464788732394,503.848744 L -129.07042253521126,503.295686 L -134.3661971830986,492.078986 L -139.66197183098592,490.906738 L -144.95774647887325,495.781476 L -150.25352112676057,495.781476 L -155.54929577464787,495.781476 L -160.84507042253523,503.338476 L -166.14084507042253,501.013604 L -171.43661971830988,504.701596 L -176.73239436619718,504.701596 L -182.02816901408448,518.197628 L -187.32394366197184,515.488702 L -192.61971830985914,512.911534 L -197.9154929577465,511.09275 L -203.2112676056338,497.027842 L -208.50704225352115,489.11783 L -213.80281690140845,489.11783 L -219.09859154929575,489.11783 L -224.3943661971831,479.39416 L -229.6901408450704,468.090384 L -234.98591549295776,451.306584 L -240.28169014084506,451.81012 L -245.5774647887324,451.81012 L -250.8732394366197,451.81012 L -256.16901408450707,446.00946799999997 L -261.46478873239437,443.99228800000003 L -266.76056338028167,443.99228800000003 L -272.056338028169,443.40766 L -277.3521126760563,422.301146 L -282.6478873239437,420.33626 L -287.943661971831,400.536788 L -293.23943661971833,398.942888 L -298.53521126760563,367.039456 L -303.83098591549293,326.833708 L -309.1267605633803,304.73594 L -314.4225352112676,303.14028 L -319.71830985915494,301.279014 ZM 352.84507042253523,289.11602800000003 L 358.14084507042253,276.952184 L 363.4366197183099,276.952184 L 368.7323943661972,276.952184 L 368.7323943661972,283.89529600000003 L 368.7323943661972,283.89529600000003 L 368.7323943661972,283.89529600000003 L 363.4366197183099,289.076648 L 358.14084507042253,289.11602800000003 L 352.84507042253523,289.11602800000003 ZM 660,121.92513600000001 L 665.2957746478874,130.42483600000003 L 670.5915492957746,125.95500800000002 L 675.887323943662,125.24731200000002 L 681.1830985915493,119.743044 L 686.4788732394367,120.23945200000003 L 691.7746478873239,120.23945200000003 L 697.0704225352113,121.902916 L 702.3661971830986,121.902916 L 707.6619718309859,121.902916 L 712.9577464788732,121.902916 L 718.2535211267606,121.902916 L 723.5492957746479,121.902916 L 728.8450704225352,121.902916 L 734.1408450704225,121.902916 L 739.4366197183099,121.902916 L 744.7323943661971,121.902916 L 750.0281690140845,121.902916 L 755.3239436619718,121.902916 L 760.6197183098592,121.902916 L 765.9154929577464,121.902916 L 771.2112676056338,121.902916 L 776.5070422535211,121.902916 L 781.8028169014085,121.902916 L 787.0985915492957,121.902916 L 792.3943661971831,121.902916 L 797.6901408450705,121.902916 L 802.9859154929577,121.902916 L 808.2816901408451,121.902916 L 813.5774647887324,121.902916 L 818.8732394366198,121.902916 L 824.169014084507,121.902916 L 829.4647887323944,121.902916 L 834.7605633802817,121.902916 L 840.056338028169,121.902916 L 845.3521126760563,121.902916 L 845.3521126760563,141.13877 L 840.056338028169,140.490188 L 834.7605633802817,140.289856 L 829.4647887323944,144.865988 L 824.169014084507,144.502306 L 818.8732394366198,140.590706 L 813.5774647887324,140.459256 L 808.2816901408451,138.389364 L 802.9859154929577,133.660706 L 797.6901408450705,133.660706 L 792.3943661971831,134.87317 L 787.0985915492957,143.260076 L 781.8028169014085,154.253608 L 776.5070422535211,154.18323 L 771.2112676056338,155.686864 L 765.9154929577464,156.078156 L 760.6197183098592,152.943398 L 755.3239436619718,152.943398 L 750.0281690140845,155.16179 L 744.7323943661971,163.461664 L 739.4366197183099,168.045716 L 734.1408450704225,154.022916 L 728.8450704225352,154.022916 L 723.5492957746479,154.022916 L 718.2535211267606,154.022916 L 712.9577464788732,154.655416 L 707.6619718309859,155.058038 L 702.3661971830986,154.26738 L 697.0704225352113,149.275602 L 691.7746478873239,143.779452 L 686.4788732394367,142.151474 L 681.1830985915493,141.655066 L 675.887323943662,134.032022 L 670.5915492957746,130.82 L 665.2957746478874,130.82 L 660,121.92513600000001 Z" fill="rgba(239, 68, 68, 0.24)" stroke="none" /><path d="M -685,267 L -680,267 L -675,267 L -669,267 L -664,282 L -659,282 L -653,282 L -648,301 L -643,269 L -637,269 L -632,264 L -627,244 L -622,244 L -616,216 L -611,216 L -606,216 L -600,216 L -595,216 L -590,216 L -585,227 L -579,245 L -574,245 L -569,245 L -563,246 L -558,255 L -553,263 L -547,265 L -542,265 L -537,265 L -532,265 L -526,266 L -521,283 L -516,286 L -510,286 L -505,289 L -500,314 L -494,315 L -489,315 L -484,319 L -479,319 L -473,328 L -468,328 L -463,328 L -457,329 L -452,333 L -447,336 L -442,358 L -436,398 L -431,421 L -426,421 L -420,441 L -415,441 L -410,458 L -404,458 L -399,458 L -394,458 L -389,470 L -383,470 L -378,470 L -373,469 L -367,486 L -362,497 L -357,513 L -351,513 L -346,513 L -341,529 L -336,557 L -330,561 L -325,566 L -320,554 L -314,527 L -309,527 L -304,520 L -299,513 L -293,498 L -288,498 L -283,498 L -277,488 L -272,487 L -267,493 L -261,495 L -256,498 L -251,498 L -246,500 L -240,513 L -235,515 L -230,515 L -224,547 L -219,559 L -214,559 L -209,559 L -203,559 L -198,595 L -193,595 L -187,599 L -182,599 L -177,599 L -171,597 L -166,597 L -161,576 L -156,576 L -150,553 L -145,549 L -140,510 L -134,504 L -129,504 L -124,488 L -118,486 L -113,486 L -108,486 L -103,482 L -97,470 L -92,419 L -87,418 L -81,410 L -76,410 L -71,410 L -66,410 L -60,410 L -55,367 L -50,366 L -44,362 L -39,361 L -34,348 L -28,348 L -23,348 L -18,329 L -13,320 L -7,282 L -2,282 L 3,282 L 9,282 L 14,268 L 19,257 L 25,257 L 30,256 L 35,256 L 40,256 L 46,256 L 51,243 L 56,241 L 62,251 L 67,257 L 72,263 L 77,265 L 83,265 L 88,265 L 93,287 L 99,287 L 104,307 L 109,306 L 115,282 L 120,281 L 125,279 L 130,279 L 136,279 L 141,274 L 146,266 L 152,266 L 157,266 L 162,266 L 167,266 L 173,278 L 178,278 L 183,295 L 189,295 L 194,295 L 199,295 L 205,295 L 210,295 L 215,295 L 220,295 L 226,295 L 231,284 L 236,261 L 242,252 L 247,252 L 252,252 L 258,252 L 263,252 L 268,249 L 273,235 L 279,206 L 284,168 L 289,168 L 295,161 L 300,137 L 305,132 L 310,131 L 316,124 L 321,113 L 326,83 L 332,69 L 337,69 L 342,69 L 348,74 L 353,73 L 358,83 L 363,83 L 369,94 L 374,94 L 379,92 L 385,92 L 390,86 L 395,100 L 401,105 L 406,105 L 411,105 L 416,105 L 422,105 L 427,105 L 432,105 L 438,121 L 443,117 L 448,101 L 453,98 L 459,90 L 464,81 L 469,75 L 475,63 L 480,61 L 485,72 L 491,84 L 496,88 L 501,88 L 506,88 L 512,116 L 517,129 L 522,138 L 528,150 L 533,150 L 538,156 L 543,164 L 549,164 L 554,167 L 559,177 L 565,187 L 570,188 L 575,187 L 581,186 L 586,186 L 591,186 L 596,186 L 602,186 L 607,172 L 612,155 L 618,147 L 623,147 L 628,146 L 634,146 L 639,143 L 644,142 L 649,131 L 655,114 L 660,111 L 665,111 L 671,121 L 676,125 L 681,125 L 686,133 L 692,134 L 697,136 L 702,145 L 708,146" fill="none" stroke="#00a3ff" stroke-width="1" /><path d="M -595,244 L -590,244 L -585,244 L -579,244 L -574,244 L -569,244 L -563,244 L -558,244 L -553,244 L -547,244 L -542,244 L -537,244 L -532,244 L -526,234 L -521,234 L -516,234 L -510,234 L -505,234 L -500,234 L -494,234 L -489,252 L -484,252 L -479,252 L -473,260 L -468,269 L -463,270 L -457,274 L -452,274 L -447,274 L -442,296 L -436,336 L -431,377 L -426,380 L -420,400 L -415,404 L -410,429 L -404,430 L -399,430 L -394,434 L -389,434 L -383,434 L -378,434 L -373,434 L -367,450 L -362,462 L -357,465 L -351,465 L -346,465 L -341,465 L -336,465 L -330,465 L -325,465 L -320,482 L -314,482 L -309,482 L -304,482 L -299,494 L -293,494 L -288,494 L -283,494 L -277,494 L -272,497 L -267,513 L -261,513 L -256,513 L -251,529 L -246,537 L -240,537 L -235,537 L -230,537 L -224,544 L -219,557 L -214,557 L -209,557 L -203,557 L -198,557 L -193,557 L -187,557 L -182,557 L -177,557 L -171,557 L -166,557 L -161,557 L -156,558 L -150,558 L -145,559 L -140,555 L -134,550 L -129,550 L -124,537 L -118,537 L -113,537 L -108,537 L -103,537 L -97,537 L -92,520 L -87,519 L -81,517 L -76,517 L -71,496 L -66,496 L -60,474 L -55,431 L -50,431 L -44,426 L -39,426 L -34,409 L -28,408 L -23,408 L -18,408 L -13,404 L -7,392 L -2,358 L 3,357 L 9,349 L 14,335 L 19,324 L 25,324 L 30,324 L 35,324 L 40,324 L 46,324 L 51,324 L 56,324 L 62,324 L 67,324 L 72,304 L 77,295 L 83,257 L 88,257 L 93,273 L 99,273 L 104,273 L 109,273 L 115,273 L 120,273 L 125,273 L 130,273 L 136,273 L 141,273 L 146,273 L 152,273 L 157,275 L 162,279 L 167,279 L 173,279 L 178,279 L 183,283 L 189,283 L 194,283 L 199,283 L 205,283 L 210,283 L 215,283 L 220,283 L 226,283 L 231,283 L 236,283 L 242,283 L 247,283 L 252,283 L 258,283 L 263,286 L 268,283 L 273,269 L 279,239 L 284,219 L 289,219 L 295,215 L 300,191 L 305,191 L 310,191 L 316,191 L 321,181 L 326,157 L 332,157 L 337,157 L 342,157 L 348,157 L 353,157 L 358,157 L 363,157 L 369,157 L 374,140 L 379,140 L 385,137 L 390,137 L 395,132 L 401,131 L 406,124 L 411,113 L 416,96 L 422,96 L 427,96 L 432,96 L 438,102 L 443,102 L 448,101 L 453,101 L 459,92 L 464,90 L 469,90 L 475,90 L 480,90 L 485,90 L 491,90 L 496,90 L 501,90 L 506,90 L 512,90 L 517,96 L 522,105 L 528,112 L 533,112 L 538,112 L 543,120 L 549,120 L 554,120 L 559,122 L 565,122 L 570,122 L 575,122 L 581,122 L 586,122 L 591,122 L 596,122 L 602,150 L 607,155 L 612,155 L 618,159 L 623,159 L 628,166 L 634,166 L 639,166 L 644,166 L 649,156 L 655,156 L 660,156 L 665,156 L 671,156 L 676,156 L 681,156 L 686,156 L 692,156 L 697,144 L 702,136 L 708,136" fill="none" stroke="#ff4d4d" stroke-width="1" /><path d="M -457,230 L -452,230 L -447,235 L -442,244 L -436,244 L -431,244 L -426,245 L -420,249 L -415,253 L -410,254 L -404,254 L -399,254 L -394,254 L -389,250 L -383,258 L -378,260 L -373,260 L -367,261 L -362,274 L -357,275 L -351,284 L -346,286 L -341,286 L -336,294 L -330,299 L -325,299 L -320,301 L -314,303 L -309,305 L -304,327 L -299,367 L -293,399 L -288,401 L -283,420 L -277,422 L -272,443 L -267,444 L -261,444 L -256,446 L -251,452 L -246,452 L -240,452 L -235,451 L -230,468 L -224,479 L -219,489 L -214,489 L -209,489 L -203,497 L -198,511 L -193,513 L -187,515 L -182,518 L -177,505 L -171,505 L -166,501 L -161,503 L -156,496 L -150,496 L -145,496 L -140,491 L -134,492 L -129,503 L -124,504 L -118,506 L -113,514 L -108,519 L -103,525 L -97,526 L -92,526 L -87,545 L -81,558 L -76,558 L -71,558 L -66,558 L -60,576 L -55,576 L -50,578 L -44,578 L -39,578 L -34,577 L -28,577 L -23,566 L -18,567 L -13,556 L -7,554 L -2,532 L 3,527 L 9,527 L 14,512 L 19,511 L 25,511 L 30,511 L 35,509 L 40,504 L 46,470 L 51,469 L 56,463 L 62,463 L 67,453 L 72,453 L 77,442 L 83,399 L 88,399 L 93,394 L 99,394 L 104,379 L 109,378 L 115,378 L 120,368 L 125,362 L 130,337 L 136,320 L 141,319 L 146,315 L 152,302 L 157,290 L 162,290 L 167,290 L 173,290 L 178,290 L 183,290 L 189,283 L 194,282 L 199,287 L 205,290 L 210,284 L 215,280 L 220,261 L 226,261 L 231,280 L 236,280 L 242,290 L 247,289 L 252,278 L 258,277 L 263,276 L 268,276 L 273,276 L 279,274 L 284,270 L 289,270 L 295,271 L 300,273 L 305,273 L 310,279 L 316,279 L 321,289 L 326,289 L 332,289 L 337,289 L 342,289 L 348,289 L 353,289 L 358,289 L 363,289 L 369,284 L 374,272 L 379,268 L 385,268 L 390,268 L 395,268 L 401,269 L 406,266 L 411,252 L 416,223 L 422,194 L 427,194 L 432,188 L 438,164 L 443,162 L 448,161 L 453,157 L 459,147 L 464,120 L 469,113 L 475,113 L 480,113 L 485,116 L 491,115 L 496,120 L 501,120 L 506,126 L 512,117 L 517,116 L 522,114 L 528,111 L 533,116 L 538,118 L 543,115 L 549,109 L 554,101 L 559,101 L 565,101 L 570,101 L 575,111 L 581,110 L 586,101 L 591,99 L 596,91 L 602,85 L 607,82 L 612,77 L 618,76 L 623,81 L 628,87 L 634,89 L 639,89 L 644,89 L 649,103 L 655,112 L 660,122 L 665,131 L 671,131 L 676,134 L 681,142 L 686,142 L 692,144 L 697,149 L 702,154 L 708,155 L 713,155 L 718,154 L 724,154 L 729,154 L 734,154 L 739,168 L 745,163 L 750,155 L 755,153 L 761,153 L 766,156 L 771,156 L 777,154 L 782,154 L 787,143 L 792,135 L 798,134 L 803,134 L 808,138 L 814,140 L 819,141 L 824,145 L 829,145 L 835,140 L 840,140 L 845,141" fill="none" stroke="#16a34a" stroke-width="1" /><path d="M -320,244 L -314,244 L -309,244 L -304,264 L -299,304 L -293,328 L -288,328 L -283,348 L -277,348 L -272,348 L -267,348 L -261,348 L -256,348 L -251,348 L -246,348 L -240,348 L -235,348 L -230,364 L -224,372 L -219,372 L -214,390 L -209,390 L -203,390 L -198,390 L -193,400 L -187,401 L -182,403 L -177,403 L -171,403 L -166,403 L -161,404 L -156,421 L -150,424 L -145,424 L -140,428 L -134,453 L -129,454 L -124,454 L -118,458 L -113,458 L -108,458 L -103,458 L -97,458 L -92,458 L -87,469 L -81,484 L -76,484 L -71,484 L -66,484 L -60,484 L -55,484 L -50,484 L -44,501 L -39,501 L -34,501 L -28,501 L -23,513 L -18,513 L -13,513 L -7,513 L -2,513 L 3,516 L 9,533 L 14,533 L 19,533 L 25,537 L 30,537 L 35,537 L 40,537 L 46,520 L 51,519 L 56,519 L 62,519 L 67,519 L 72,519 L 77,519 L 83,476 L 88,476 L 93,472 L 99,471 L 104,458 L 109,458 L 115,458 L 120,458 L 125,458 L 130,458 L 136,458 L 141,458 L 146,458 L 152,445 L 157,433 L 162,433 L 167,433 L 173,433 L 178,433 L 183,433 L 189,433 L 194,432 L 199,432 L 205,411 L 210,411 L 215,388 L 220,388 L 226,388 L 231,388 L 236,388 L 242,384 L 247,383 L 252,383 L 258,383 L 263,379 L 268,367 L 273,333 L 279,332 L 284,324 L 289,324 L 295,324 L 300,324 L 305,324 L 310,324 L 316,324 L 321,324 L 326,324 L 332,324 L 337,324 L 342,324 L 348,304 L 353,295 L 358,277 L 363,277 L 369,277 L 374,277 L 379,277 L 385,277 L 390,277 L 395,277 L 401,277 L 406,277 L 411,269 L 416,239 L 422,219 L 427,219 L 432,215 L 438,191 L 443,191 L 448,191 L 453,191 L 459,191 L 464,191 L 469,191 L 475,191 L 480,191 L 485,191 L 491,191 L 496,191 L 501,191 L 506,191 L 512,191 L 517,191 L 522,191 L 528,191 L 533,191 L 538,191 L 543,191 L 549,191 L 554,191 L 559,191 L 565,191 L 570,191 L 575,191 L 581,191 L 586,191 L 591,191 L 596,177 L 602,151 L 607,151 L 612,151 L 618,151 L 623,151 L 628,151 L 634,151 L 639,151 L 644,151 L 649,134 L 655,134 L 660,130 L 665,130 L 671,126 L 676,125 L 681,120 L 686,120 L 692,120 L 697,122 L 702,122 L 708,122 L 713,122 L 718,122 L 724,122 L 729,122 L 734,122 L 739,122 L 745,122 L 750,122 L 755,122 L 761,122 L 766,122 L 771,122 L 777,122 L 782,122 L 787,122 L 792,122 L 798,122 L 803,122 L 808,122 L 814,122 L 819,122 L 824,122 L 829,122 L 835,122 L 840,122 L 845,122" fill="none" stroke="#ef4444" stroke-width="1" /><line x1="98.64788732394366" y1="275.069248" x2="98.64788732394366" y2="336.960704" stroke="#9ca3af" stroke-width="1"/><line x1="103.94366197183099" y1="271.4" x2="103.94366197183099" y2="295.248" stroke="#9ca3af" stroke-width="1"/><line x1="109.2394366197183" y1="264.976088" x2="109.2394366197183" y2="282.938032" stroke="#9ca3af" stroke-width="1"/><line x1="114.53521126760563" y1="218.16" x2="114.53521126760563" y2="280.00552" stroke="#9ca3af" stroke-width="1"/><line x1="119.83098591549296" y1="214.816176" x2="119.83098591549296" y2="238.2482" stroke="#9ca3af" stroke-width="1"/><line x1="125.12676056338029" y1="212" x2="125.12676056338029" y2="244.092896" stroke="#9ca3af" stroke-width="1"/><line x1="130.42253521126761" y1="236.17536" x2="130.42253521126761" y2="283.546112" stroke="#9ca3af" stroke-width="1"/><line x1="135.71830985915494" y1="269.681008" x2="135.71830985915494" y2="320.689856" stroke="#9ca3af" stroke-width="1"/><line x1="141.01408450704224" y1="269.877776" x2="141.01408450704224" y2="295.030288" stroke="#9ca3af" stroke-width="1"/><line x1="146.30985915492957" y1="272.25668" x2="146.30985915492957" y2="292.432968" stroke="#9ca3af" stroke-width="1"/><line x1="151.6056338028169" y1="235.848" x2="151.6056338028169" y2="284.096816" stroke="#9ca3af" stroke-width="1"/><line x1="156.90140845070422" y1="244.19656" x2="156.90140845070422" y2="295.107552" stroke="#9ca3af" stroke-width="1"/><line x1="162.19718309859155" y1="269.549008" x2="162.19718309859155" y2="298.24" stroke="#9ca3af" stroke-width="1"/><line x1="167.49295774647888" y1="273.600088" x2="167.49295774647888" y2="291.2" stroke="#9ca3af" stroke-width="1"/><line x1="172.7887323943662" y1="254.749608" x2="172.7887323943662" y2="302.02136" stroke="#9ca3af" stroke-width="1"/><line x1="178.0845070422535" y1="278.688424" x2="178.0845070422535" y2="317.6" stroke="#9ca3af" stroke-width="1"/><line x1="183.38028169014086" y1="287.391536" x2="183.38028169014086" y2="354.713296" stroke="#9ca3af" stroke-width="1"/><line x1="188.67605633802816" y1="259.52" x2="188.67605633802816" y2="333.987888" stroke="#9ca3af" stroke-width="1"/><line x1="193.9718309859155" y1="265.748376" x2="193.9718309859155" y2="281.979096" stroke="#9ca3af" stroke-width="1"/><line x1="199.26760563380282" y1="235.03752" x2="199.26760563380282" y2="268.319032" stroke="#9ca3af" stroke-width="1"/><line x1="204.56338028169014" y1="241.142168" x2="204.56338028169014" y2="261.27991199999997" stroke="#9ca3af" stroke-width="1"/><line x1="209.85915492957747" y1="247.58896" x2="209.85915492957747" y2="261.093528" stroke="#9ca3af" stroke-width="1"/><line x1="215.15492957746477" y1="249.140312" x2="215.15492957746477" y2="256.44615999999996" stroke="#9ca3af" stroke-width="1"/><line x1="220.45070422535213" y1="238.4" x2="220.45070422535213" y2="254.00328" stroke="#9ca3af" stroke-width="1"/><line x1="225.74647887323943" y1="234.88" x2="225.74647887323943" y2="261.805976" stroke="#9ca3af" stroke-width="1"/><line x1="231.04225352112675" y1="257.76" x2="231.04225352112675" y2="286.4678" stroke="#9ca3af" stroke-width="1"/><line x1="236.33802816901408" y1="235.634072" x2="236.33802816901408" y2="287.720832" stroke="#9ca3af" stroke-width="1"/><line x1="241.6338028169014" y1="216.4" x2="241.6338028169014" y2="250.213208" stroke="#9ca3af" stroke-width="1"/><line x1="246.92957746478874" y1="225.992" x2="246.92957746478874" y2="252.247064" stroke="#9ca3af" stroke-width="1"/><line x1="252.22535211267606" y1="238.144976" x2="252.22535211267606" y2="244.943064" stroke="#9ca3af" stroke-width="1"/><line x1="257.5211267605634" y1="224.762112" x2="257.5211267605634" y2="245.969672" stroke="#9ca3af" stroke-width="1"/><line x1="262.8169014084507" y1="221.68" x2="262.8169014084507" y2="237.030016" stroke="#9ca3af" stroke-width="1"/><line x1="268.11267605633805" y1="210.768" x2="268.11267605633805" y2="235.614624" stroke="#9ca3af" stroke-width="1"/><line x1="273.40845070422534" y1="182.96" x2="273.40845070422534" y2="220.573136" stroke="#9ca3af" stroke-width="1"/><line x1="278.70422535211264" y1="124.000088" x2="278.70422535211264" y2="198.708832" stroke="#9ca3af" stroke-width="1"/><line x1="284" y1="83.909224" x2="284" y2="139.705448" stroke="#9ca3af" stroke-width="1"/><line x1="289.29577464788736" y1="91.44" x2="289.29577464788736" y2="104.30516" stroke="#9ca3af" stroke-width="1"/><line x1="294.59154929577466" y1="75.60008800000003" x2="294.59154929577466" y2="100.71132799999998" stroke="#9ca3af" stroke-width="1"/><line x1="299.88732394366195" y1="27.19999999999999" x2="299.88732394366195" y2="82.69350400000002" stroke="#9ca3af" stroke-width="1"/><line x1="305.1830985915493" y1="60.50043199999999" x2="305.1830985915493" y2="109.80824000000001" stroke="#9ca3af" stroke-width="1"/><line x1="310.4788732394366" y1="55.46146399999998" x2="310.4788732394366" y2="84.71503999999999" stroke="#9ca3af" stroke-width="1"/><line x1="315.7746478873239" y1="45.514823999999976" x2="315.7746478873239" y2="83.92039999999997" stroke="#9ca3af" stroke-width="1"/><line x1="321.07042253521126" y1="38.639999999999986" x2="321.07042253521126" y2="92.32" stroke="#9ca3af" stroke-width="1"/><line x1="326.3661971830986" y1="65.64262400000001" x2="326.3661971830986" y2="80" stroke="#9ca3af" stroke-width="1"/><line x1="331.6619718309859" y1="62.57934399999999" x2="331.6619718309859" y2="94.95999999999998" stroke="#9ca3af" stroke-width="1"/><line x1="336.9577464788732" y1="61.26048800000001" x2="336.9577464788732" y2="104.44437599999998" stroke="#9ca3af" stroke-width="1"/><line x1="342.2535211267606" y1="68.12008800000001" x2="342.2535211267606" y2="106.83999999999997" stroke="#9ca3af" stroke-width="1"/><line x1="347.5492957746479" y1="70.01798400000001" x2="347.5492957746479" y2="104.63172800000001" stroke="#9ca3af" stroke-width="1"/><line x1="352.84507042253523" y1="75.75109600000002" x2="352.84507042253523" y2="105.51999999999998" stroke="#9ca3af" stroke-width="1"/><line x1="358.14084507042253" y1="86.16008799999997" x2="358.14084507042253" y2="126.95767999999998" stroke="#9ca3af" stroke-width="1"/><line x1="363.4366197183099" y1="83.259344" x2="363.4366197183099" y2="97.06680799999998" stroke="#9ca3af" stroke-width="1"/><line x1="368.7323943661972" y1="64.555208" x2="368.7323943661972" y2="87.51361600000001" stroke="#9ca3af" stroke-width="1"/><line x1="374.0281690140845" y1="62.373335999999995" x2="374.0281690140845" y2="80.703912" stroke="#9ca3af" stroke-width="1"/><line x1="379.32394366197184" y1="57.72288800000001" x2="379.32394366197184" y2="86.15991200000002" stroke="#9ca3af" stroke-width="1"/><line x1="384.61971830985914" y1="62.476999999999975" x2="384.61971830985914" y2="95.89675999999997" stroke="#9ca3af" stroke-width="1"/><line x1="389.9154929577465" y1="45.77891199999999" x2="389.9154929577465" y2="84.39999999999998" stroke="#9ca3af" stroke-width="1"/><line x1="395.2112676056338" y1="77.51655199999999" x2="395.2112676056338" y2="154.8" stroke="#9ca3af" stroke-width="1"/><line x1="400.50704225352115" y1="135.766568" x2="400.50704225352115" y2="164.48" stroke="#9ca3af" stroke-width="1"/><line x1="405.80281690140845" y1="128.408976" x2="405.80281690140845" y2="164.832" stroke="#9ca3af" stroke-width="1"/><line x1="411.09859154929575" y1="119.61372799999998" x2="411.09859154929575" y2="138.96" stroke="#9ca3af" stroke-width="1"/><line x1="416.3943661971831" y1="122.470824" x2="416.3943661971831" y2="159.2" stroke="#9ca3af" stroke-width="1"/><line x1="421.6901408450704" y1="119.952" x2="421.6901408450704" y2="146.299288" stroke="#9ca3af" stroke-width="1"/><line x1="426.98591549295776" y1="96.26442400000002" x2="426.98591549295776" y2="134.50896" stroke="#9ca3af" stroke-width="1"/><line x1="432.28169014084506" y1="94.08008799999999" x2="432.28169014084506" y2="111.45762400000001" stroke="#9ca3af" stroke-width="1"/><line x1="437.5774647887324" y1="89.37684000000002" x2="437.5774647887324" y2="107.747456" stroke="#9ca3af" stroke-width="1"/><line x1="442.8732394366197" y1="70.04552799999999" x2="442.8732394366197" y2="106.39999999999998" stroke="#9ca3af" stroke-width="1"/><line x1="448.16901408450707" y1="36.880088" x2="448.16901408450707" y2="79.90883200000002" stroke="#9ca3af" stroke-width="1"/><line x1="453.46478873239437" y1="55.360000000000014" x2="453.46478873239437" y2="73.269408" stroke="#9ca3af" stroke-width="1"/><line x1="458.76056338028167" y1="20.072000000000003" x2="458.76056338028167" y2="68.559912" stroke="#9ca3af" stroke-width="1"/><line x1="464.056338028169" y1="14.879999999999995" x2="464.056338028169" y2="91.44" stroke="#9ca3af" stroke-width="1"/><line x1="469.3521126760563" y1="70.97120000000001" x2="469.3521126760563" y2="105.74299200000002" stroke="#9ca3af" stroke-width="1"/><line x1="474.6478873239437" y1="87.62828000000002" x2="474.6478873239437" y2="103.395328" stroke="#9ca3af" stroke-width="1"/><line x1="479.943661971831" y1="80.93227200000001" x2="479.943661971831" y2="101.36472800000001" stroke="#9ca3af" stroke-width="1"/><line x1="485.23943661971833" y1="91.14792799999998" x2="485.23943661971833" y2="129.013976" stroke="#9ca3af" stroke-width="1"/><line x1="490.53521126760563" y1="89.68" x2="490.53521126760563" y2="153.128" stroke="#9ca3af" stroke-width="1"/><line x1="495.83098591549293" y1="130.97100799999998" x2="495.83098591549293" y2="161.424728" stroke="#9ca3af" stroke-width="1"/><line x1="501.1267605633803" y1="127.56294400000002" x2="501.1267605633803" y2="154.8" stroke="#9ca3af" stroke-width="1"/><line x1="506.4225352112676" y1="102.52808800000003" x2="506.4225352112676" y2="156.660496" stroke="#9ca3af" stroke-width="1"/><line x1="511.71830985915494" y1="109.04000000000002" x2="511.71830985915494" y2="138.96" stroke="#9ca3af" stroke-width="1"/><line x1="517.0140845070423" y1="124.370744" x2="517.0140845070423" y2="176.8" stroke="#9ca3af" stroke-width="1"/><line x1="522.3098591549297" y1="144.337856" x2="522.3098591549297" y2="195.944136" stroke="#9ca3af" stroke-width="1"/><line x1="527.6056338028169" y1="161.047912" x2="527.6056338028169" y2="209.36" stroke="#9ca3af" stroke-width="1"/><line x1="532.9014084507043" y1="151.980832" x2="532.9014084507043" y2="180.671032" stroke="#9ca3af" stroke-width="1"/><line x1="538.1971830985915" y1="147.500488" x2="538.1971830985915" y2="178.56" stroke="#9ca3af" stroke-width="1"/><line x1="543.4929577464789" y1="159.402928" x2="543.4929577464789" y2="224.606088" stroke="#9ca3af" stroke-width="1"/><line x1="548.7887323943662" y1="207.281616" x2="548.7887323943662" y2="225.598904" stroke="#9ca3af" stroke-width="1"/><line x1="554.0845070422536" y1="200.087968" x2="554.0845070422536" y2="218.574832" stroke="#9ca3af" stroke-width="1"/><line x1="559.3802816901409" y1="195.042488" x2="559.3802816901409" y2="228.925832" stroke="#9ca3af" stroke-width="1"/><line x1="564.6760563380282" y1="164.839568" x2="564.6760563380282" y2="205.908552" stroke="#9ca3af" stroke-width="1"/><line x1="569.9718309859155" y1="153.040088" x2="569.9718309859155" y2="174.668376" stroke="#9ca3af" stroke-width="1"/><line x1="575.2676056338028" y1="145.89" x2="575.2676056338028" y2="185.951912" stroke="#9ca3af" stroke-width="1"/><line x1="580.5633802816901" y1="143.36" x2="580.5633802816901" y2="189.429056" stroke="#9ca3af" stroke-width="1"/><line x1="585.8591549295775" y1="174.16" x2="585.8591549295775" y2="189.12" stroke="#9ca3af" stroke-width="1"/><line x1="591.1549295774648" y1="161.829176" x2="591.1549295774648" y2="187.554832" stroke="#9ca3af" stroke-width="1"/><line x1="596.4507042253522" y1="152.6418" x2="596.4507042253522" y2="175.521096" stroke="#9ca3af" stroke-width="1"/><line x1="601.7464788732394" y1="152.623672" x2="601.7464788732394" y2="181.540296" stroke="#9ca3af" stroke-width="1"/><line x1="607.0422535211268" y1="138.08" x2="607.0422535211268" y2="178.67748" stroke="#9ca3af" stroke-width="1"/><line x1="612.3380281690141" y1="121.36000000000001" x2="612.3380281690141" y2="145.129856" stroke="#9ca3af" stroke-width="1"/><line x1="617.6338028169014" y1="103.73870399999998" x2="617.6338028169014" y2="124" stroke="#9ca3af" stroke-width="1"/><line x1="622.9295774647887" y1="108.41520000000003" x2="622.9295774647887" y2="122.99266399999999" stroke="#9ca3af" stroke-width="1"/><line x1="628.2253521126761" y1="110.24269600000002" x2="628.2253521126761" y2="121.13119999999998" stroke="#9ca3af" stroke-width="1"/><line x1="633.5211267605633" y1="103.918136" x2="633.5211267605633" y2="134.11824" stroke="#9ca3af" stroke-width="1"/><line x1="638.8169014084507" y1="110.81214399999999" x2="638.8169014084507" y2="132.8" stroke="#9ca3af" stroke-width="1"/><line x1="644.112676056338" y1="103.27415200000002" x2="644.112676056338" y2="140.28" stroke="#9ca3af" stroke-width="1"/><line x1="649.4084507042254" y1="82.71849600000002" x2="649.4084507042254" y2="115.84856000000002" stroke="#9ca3af" stroke-width="1"/><line x1="654.7042253521126" y1="87.43124799999998" x2="654.7042253521126" y2="115.904" stroke="#9ca3af" stroke-width="1"/><line x1="660" y1="104.71207199999998" x2="660" y2="111.71405600000003" stroke="#9ca3af" stroke-width="1"/><line x1="665.2957746478874" y1="107.3064" x2="665.2957746478874" y2="117.71002399999998" stroke="#9ca3af" stroke-width="1"/><line x1="670.5915492957746" y1="113.56540000000001" x2="670.5915492957746" y2="159.194632" stroke="#9ca3af" stroke-width="1"/><line x1="675.887323943662" y1="143.528256" x2="675.887323943662" y2="167.4742" stroke="#9ca3af" stroke-width="1"/><line x1="681.1830985915493" y1="125.26350400000001" x2="681.1830985915493" y2="168" stroke="#9ca3af" stroke-width="1"/><line x1="686.4788732394367" y1="132.939656" x2="686.4788732394367" y2="183.6464" stroke="#9ca3af" stroke-width="1"/><line x1="691.7746478873239" y1="164.85972" x2="691.7746478873239" y2="185.101128" stroke="#9ca3af" stroke-width="1"/><line x1="697.0704225352113" y1="172.408888" x2="697.0704225352113" y2="180.498376" stroke="#9ca3af" stroke-width="1"/><line x1="702.3661971830986" y1="141.13448" x2="702.3661971830986" y2="179.117568" stroke="#9ca3af" stroke-width="1"/><line x1="707.6619718309859" y1="143.36" x2="707.6619718309859" y2="154.956816" stroke="#9ca3af" stroke-width="1"/><rect x="96.70305973773677" y="290.571328" width="3.889655172413793" height="41.62681600000002" fill="#16a34a"/><rect x="101.9988343856241" y="274.92" width="3.889655172413793" height="15.697703999999987" fill="#16a34a"/><rect x="107.2946090335114" y="274.92" width="3.889655172413793" height="1.1439999999999486" fill="#ef4444"/><rect x="112.59038368139873" y="221.353432" width="3.889655172413793" height="54.71056799999997" fill="#16a34a"/><rect x="117.88615832928606" y="216.292816" width="3.889655172413793" height="5.06061600000001" fill="#16a34a"/><rect x="123.18193297717339" y="216.292816" width="3.889655172413793" height="22.011528" fill="#ef4444"/><rect x="128.47770762506073" y="238.304344" width="3.889655172413793" height="44.97565599999999" fill="#ef4444"/><rect x="133.77348227294806" y="272.016" width="3.889655172413793" height="11.563288" fill="#16a34a"/><rect x="139.06925692083536" y="271.46996" width="3.889655172413793" height="8.566096000000016" fill="#ef4444"/><rect x="144.36503156872269" y="275.26874399999997" width="3.889655172413793" height="4.767312000000061" fill="#16a34a"/><rect x="149.66080621661" y="260.948152" width="3.889655172413793" height="14.320591999999976" fill="#16a34a"/><rect x="154.95658086449734" y="260.814744" width="3.889655172413793" height="17.068216000000007" fill="#ef4444"/><rect x="160.25235551238467" y="277.88304800000003" width="3.889655172413793" height="2.40732799999995" fill="#ef4444"/><rect x="165.548130160272" y="279.9448" width="3.889655172413793" height="1" fill="#16a34a"/><rect x="170.84390480815932" y="279.9448" width="3.889655172413793" height="7.66876000000002" fill="#ef4444"/><rect x="176.13967945604662" y="287.613472" width="3.889655172413793" height="14.796760000000006" fill="#ef4444"/><rect x="181.43545410393398" y="302.41032" width="3.889655172413793" height="14.893647999999985" fill="#ef4444"/><rect x="186.73122875182128" y="267.449768" width="3.889655172413793" height="49.85419999999999" fill="#16a34a"/><rect x="192.0270033997086" y="266.943416" width="3.889655172413793" height="1" fill="#16a34a"/><rect x="197.32277804759593" y="252.479912" width="3.889655172413793" height="14.168088000000012" fill="#16a34a"/><rect x="202.61855269548326" y="252.479912" width="3.889655172413793" height="3.6080879999999524" fill="#ef4444"/><rect x="207.9143273433706" y="255.400016" width="3.889655172413793" height="1" fill="#16a34a"/><rect x="213.2101019912579" y="252.369384" width="3.889655172413793" height="3.030631999999997" fill="#16a34a"/><rect x="218.50587663914524" y="241.747784" width="3.889655172413793" height="10.6216" fill="#16a34a"/><rect x="223.80165128703254" y="241.747784" width="3.889655172413793" height="20.05819199999999" fill="#ef4444"/><rect x="229.09742593491987" y="261.742792" width="3.889655172413793" height="21.3356" fill="#ef4444"/><rect x="234.3932005828072" y="250.21312" width="3.889655172413793" height="32.865272000000004" fill="#16a34a"/><rect x="239.68897523069452" y="227.93548" width="3.889655172413793" height="22.27763999999999" fill="#16a34a"/><rect x="244.98474987858185" y="227.93548" width="3.889655172413793" height="14.013119999999986" fill="#ef4444"/><rect x="250.28052452646918" y="241.586744" width="3.889655172413793" height="1" fill="#16a34a"/><rect x="255.5762991743565" y="229.589088" width="3.889655172413793" height="11.998007999999999" fill="#16a34a"/><rect x="260.8720738222438" y="228.04856" width="3.889655172413793" height="1.55135199999998" fill="#16a34a"/><rect x="266.16784847013116" y="213.75956" width="3.889655172413793" height="14.289087999999992" fill="#16a34a"/><rect x="271.46362311801846" y="192.64" width="3.889655172413793" height="21.119560000000007" fill="#16a34a"/><rect x="276.75939776590576" y="132.800088" width="3.889655172413793" height="59.839912" fill="#16a34a"/><rect x="282.0551724137931" y="100.90114399999999" width="3.889655172413793" height="31.898856000000023" fill="#16a34a"/><rect x="287.3509470616805" y="99.629456" width="3.889655172413793" height="1.2716879999999833" fill="#16a34a"/><rect x="292.64672170956777" y="79.54468800000001" width="3.889655172413793" height="20.08467999999999" fill="#16a34a"/><rect x="297.94249635745507" y="60.500519999999995" width="3.889655172413793" height="19.044080000000008" fill="#16a34a"/><rect x="303.2382710053424" y="60.50043199999999" width="3.889655172413793" height="16.53484800000001" fill="#ef4444"/><rect x="308.5340456532297" y="74.952584" width="3.889655172413793" height="2.0826079999999934" fill="#16a34a"/><rect x="313.829820301117" y="64.08986399999998" width="3.889655172413793" height="10.862720000000024" fill="#16a34a"/><rect x="319.1255949490044" y="64.08995199999998" width="3.889655172413793" height="12.677456000000006" fill="#ef4444"/><rect x="324.42136959689174" y="74.60762399999999" width="3.889655172413793" height="2.1596959999999967" fill="#16a34a"/><rect x="329.71714424477904" y="74.60762399999999" width="3.889655172413793" height="11.16931199999999" fill="#ef4444"/><rect x="335.01291889266633" y="85.77693599999998" width="3.889655172413793" height="8.550168000000042" fill="#ef4444"/><rect x="340.3086935405537" y="69.979264" width="3.889655172413793" height="24.34784000000002" fill="#16a34a"/><rect x="345.604468188441" y="70.01798400000001" width="3.889655172413793" height="17.902016000000003" fill="#ef4444"/><rect x="350.90024283632835" y="87.87072" width="3.889655172413793" height="1" fill="#ef4444"/><rect x="356.19601748421564" y="88.71287999999998" width="3.889655172413793" height="2.1919040000000223" fill="#ef4444"/><rect x="361.491792132103" y="86.03759200000002" width="3.889655172413793" height="4.867103999999983" fill="#16a34a"/><rect x="366.7875667799903" y="68.13601599999998" width="3.889655172413793" height="17.901576000000034" fill="#16a34a"/><rect x="372.0833414278776" y="67.83452799999998" width="3.889655172413793" height="6.376656000000025" fill="#ef4444"/><rect x="377.37911607576495" y="74.00447200000002" width="3.889655172413793" height="1.623424" fill="#ef4444"/><rect x="382.67489072365225" y="70.491512" width="3.889655172413793" height="5.136296000000016" fill="#16a34a"/><rect x="387.9706653715396" y="70.491424" width="3.889655172413793" height="10.146928000000003" fill="#ef4444"/><rect x="393.2664400194269" y="80.63844" width="3.889655172413793" height="66.78161599999999" fill="#ef4444"/><rect x="398.56221466731427" y="147.420056" width="3.889655172413793" height="10.735647999999998" fill="#ef4444"/><rect x="403.85798931520156" y="135.251328" width="3.889655172413793" height="22.904375999999985" fill="#16a34a"/><rect x="409.15376396308886" y="129.27999999999997" width="3.889655172413793" height="5.971328000000028" fill="#16a34a"/><rect x="414.4495386109762" y="129.405488" width="3.889655172413793" height="6.338728000000003" fill="#ef4444"/><rect x="419.7453132588635" y="128.57468" width="3.889655172413793" height="7.169535999999994" fill="#16a34a"/><rect x="425.0410879067509" y="101.154496" width="3.889655172413793" height="27.421416000000022" fill="#16a34a"/><rect x="430.3368625546382" y="101.154496" width="3.889655172413793" height="2.7296719999999937" fill="#ef4444"/><rect x="435.63263720252553" y="103.88416799999999" width="3.889655172413793" height="1.295624000000032" fill="#ef4444"/><rect x="440.92841185041283" y="70.32" width="3.889655172413793" height="34.85979200000003" fill="#16a34a"/><rect x="446.2241864983002" y="70.31991199999999" width="3.889655172413793" height="1.3200879999999984" fill="#ef4444"/><rect x="451.5199611461875" y="57.119912" width="3.889655172413793" height="14.519999999999982" fill="#16a34a"/><rect x="456.8157357940748" y="24.165935999999988" width="3.889655172413793" height="32.95397600000001" fill="#16a34a"/><rect x="462.11151044196214" y="23.85160000000002" width="3.889655172413793" height="53.500744" fill="#ef4444"/><rect x="467.40728508984944" y="77.35234400000002" width="3.889655172413793" height="17.922168" fill="#ef4444"/><rect x="472.7030597377368" y="95.27451200000002" width="3.889655172413793" height="1" fill="#ef4444"/><rect x="477.9988343856241" y="93.63991199999998" width="3.889655172413793" height="1.9411039999999957" fill="#16a34a"/><rect x="483.29460903351145" y="93.63991199999998" width="3.889655172413793" height="11.338448000000028" fill="#ef4444"/><rect x="488.59038368139875" y="104.97844800000001" width="3.889655172413793" height="45.650352" fill="#ef4444"/><rect x="493.88615832928605" y="135.005896" width="3.889655172413793" height="15.622904000000005" fill="#16a34a"/><rect x="499.1819329771734" y="135.005984" width="3.889655172413793" height="13.996135999999979" fill="#ef4444"/><rect x="504.4777076250607" y="109.65608800000001" width="3.889655172413793" height="39.34603199999998" fill="#16a34a"/><rect x="509.77348227294806" y="109.656" width="3.889655172413793" height="17.580111999999986" fill="#ef4444"/><rect x="515.0692569208354" y="127.23611199999999" width="3.889655172413793" height="20.060304000000002" fill="#ef4444"/><rect x="520.3650315687228" y="147.296416" width="3.889655172413793" height="35.492424" fill="#ef4444"/><rect x="525.66080621661" y="168.17468" width="3.889655172413793" height="14.614071999999993" fill="#16a34a"/><rect x="530.9565808644974" y="168.17468" width="3.889655172413793" height="8.231607999999994" fill="#ef4444"/><rect x="536.2523555123846" y="162.280088" width="3.889655172413793" height="14.126199999999983" fill="#16a34a"/><rect x="541.548130160272" y="162.280088" width="3.889655172413793" height="49.719911999999994" fill="#ef4444"/><rect x="546.8439048081593" y="209.031056" width="3.889655172413793" height="2.968855999999988" fill="#16a34a"/><rect x="552.1396794560467" y="209.031144" width="3.889655172413793" height="7.837015999999977" fill="#ef4444"/><rect x="557.435454103934" y="203.526744" width="3.889655172413793" height="13.341415999999981" fill="#16a34a"/><rect x="562.7312287518213" y="166.048952" width="3.889655172413793" height="37.47788" fill="#16a34a"/><rect x="568.0270033997086" y="164.483872" width="3.889655172413793" height="1.1080960000000175" fill="#16a34a"/><rect x="573.3227780475959" y="164.483784" width="3.889655172413793" height="7.071503999999976" fill="#ef4444"/><rect x="578.6185526954832" y="171.167824" width="3.889655172413793" height="11.508464000000004" fill="#ef4444"/><rect x="583.9143273433706" y="182.676288" width="3.889655172413793" height="4.878456" fill="#ef4444"/><rect x="589.2101019912579" y="167.80068" width="3.889655172413793" height="19.754064" fill="#16a34a"/><rect x="594.5058766391453" y="165.36" width="3.889655172413793" height="2.9163199999999847" fill="#16a34a"/><rect x="599.8016512870325" y="165.36" width="3.889655172413793" height="5.647223999999994" fill="#ef4444"/><rect x="605.0974259349199" y="140.552712" width="3.889655172413793" height="30.454511999999994" fill="#16a34a"/><rect x="610.3932005828073" y="121.48012" width="3.889655172413793" height="19.072592000000014" fill="#16a34a"/><rect x="615.6889752306945" y="110.47545600000001" width="3.889655172413793" height="11.004663999999991" fill="#16a34a"/><rect x="620.9847498785819" y="110.47545600000001" width="3.889655172413793" height="2.604975999999965" fill="#ef4444"/><rect x="626.2805245264692" y="113.08034400000003" width="3.889655172413793" height="5.557375999999977" fill="#ef4444"/><rect x="631.5762991743564" y="118.637808" width="3.889655172413793" height="1.9136479999999665" fill="#ef4444"/><rect x="636.8720738222438" y="113.18031200000001" width="3.889655172413793" height="7.371143999999958" fill="#16a34a"/><rect x="642.1678484701312" y="112.63128" width="3.889655172413793" height="1" fill="#16a34a"/><rect x="647.4636231180185" y="93.10531200000003" width="3.889655172413793" height="19.525967999999978" fill="#16a34a"/><rect x="652.7593977659058" y="93.10539999999997" width="3.889655172413793" height="17.334240000000023" fill="#ef4444"/><rect x="658.0551724137931" y="109.656" width="3.889655172413793" height="1" fill="#16a34a"/><rect x="663.3509470616805" y="109.656" width="3.889655172413793" height="6.424087999999983" fill="#ef4444"/><rect x="668.6467217095677" y="116.07999999999998" width="3.889655172413793" height="33.88651200000001" fill="#ef4444"/><rect x="673.9424963574551" y="149.966512" width="3.889655172413793" height="10.993400000000008" fill="#ef4444"/><rect x="679.2382710053424" y="134.77428" width="3.889655172413793" height="26.185632" fill="#16a34a"/><rect x="684.5340456532298" y="134.77428" width="3.889655172413793" height="44.82746399999999" fill="#ef4444"/><rect x="689.829820301117" y="172.634256" width="3.889655172413793" height="6.967399999999998" fill="#16a34a"/><rect x="695.1255949490044" y="172.634344" width="3.889655172413793" height="2.1941920000000152" fill="#ef4444"/><rect x="700.4213695968917" y="144.278808" width="3.889655172413793" height="30.549728000000016" fill="#16a34a"/><rect x="705.717144244779" y="144.278808" width="3.889655172413793" height="9.471176000000014" fill="#ef4444"/></g><g class="legend"><g font-size="12" fill="#e5e7eb"><g transform="translate(96, 18)"><rect y="-10" width="12" height="12" fill="#00a3ff"></rect><text x="16" y="0"></text></g><g transform="translate(226, 18)"><rect y="-10" width="12" height="12" fill="#ff4d4d"></rect><text x="16" y="0"></text></g></g></g></svg> 