
    <svg width="860" height="420" viewBox="0 0 860 420" xmlns="http://www.w3.org/2000/svg" style="background-color: #1f2937; color: #e5e7eb; font-family: sans-serif;">
      <title>BTC/JPY 1day chart</title>
      <defs>
        <clipPath id="plotArea">
          <rect x="96" y="48" width="748" height="332"/>
        </clipPath>
      </defs>
      <g class="axes">
        
    <line x1="96" y1="48" x2="96" y2="380" stroke="#4b5563" stroke-width="1"/>
    <g font-size="12" fill="#e5e7eb">
      <text x="88" y="380" text-anchor="end" dominant-baseline="middle">14,000,000</text><text x="88" y="297" text-anchor="end" dominant-baseline="middle">15,000,000</text><text x="88" y="214" text-anchor="end" dominant-baseline="middle">16,000,000</text><text x="88" y="131" text-anchor="end" dominant-baseline="middle">17,000,000</text><text x="88" y="48" text-anchor="end" dominant-baseline="middle">18,000,000</text>
    </g>
  
        
    <line x1="96" y1="380" x2="844" y2="380" stroke="#4b5563" stroke-width="1"/>
    <g font-size="12" fill="#e5e7eb">
      <text x="96" y="396" text-anchor="middle" fill="#e5e7eb" font-size="10">9/8</text><text x="136.43243243243245" y="396" text-anchor="middle" fill="#e5e7eb" font-size="10">9/10</text><text x="176.86486486486487" y="396" text-anchor="middle" fill="#e5e7eb" font-size="10">9/12</text><text x="217.2972972972973" y="396" text-anchor="middle" fill="#e5e7eb" font-size="10">9/14</text><text x="257.72972972972974" y="396" text-anchor="middle" fill="#e5e7eb" font-size="10">9/16</text><text x="298.1621621621622" y="396" text-anchor="middle" fill="#e5e7eb" font-size="10">9/18</text>
    </g>
  
      </g>
      <g class="plot-area" clip-path="url(#plotArea)">
        
        
        <path d="M -3542.9189189189187,320.91203855 L -3522.7027027027025,335.5009983499999 L -3502.4864864864867,355.3334682099999 L -3482.2702702702704,377.39232840999995 L -3462.054054054054,388.1125204300001 L -3441.837837837838,392.72284590000004 L -3421.6216216216217,392.81237966 L -3401.4054054054054,391.6122444800001 L -3381.189189189189,391.9965045999999 L -3360.972972972973,394.23828231000005 L -3340.7567567567567,422.211974 L -3320.5405405405404,422.62425076999995 L -3300.324324324324,421.12831355 L -3280.108108108108,428.47047612000006 L -3259.891891891892,433.0619580999999 L -3239.675675675676,428.88756772 L -3219.4594594594596,429.58400079999996 L -3199.2432432432433,431.64729696999996 L -3179.027027027027,440.17186426000006 L -3158.810810810811,440.46100472 L -3138.5945945945946,439.41548111 L -3118.3783783783783,441.31933262000007 L -3098.162162162162,439.92261193999997 L -3077.945945945946,439.70840222 L -3057.7297297297296,439.56043396999996 L -3037.5135135135133,428.36273133 L -3017.2972972972975,424.81979084000005 L -2997.0810810810813,418.57001617000003 L -2976.864864864865,419.6373787399999 L -2956.6486486486488,417.87750816 L -2936.4324324324325,419.33278534000004 L -2916.2162162162163,424.0251754000001 L -2896,434.57233068000005 L -2875.7837837837837,444.82951965000007 L -2855.5675675675675,456.3657685 L -2835.3513513513512,471.97482984000004 L -2815.135135135135,478.06225153 L -2794.9189189189187,480.92760076999997 L -2774.7027027027025,482.70753162000005 L -2754.4864864864867,485.5798628199999 L -2734.2702702702704,492.88166913 L -2714.054054054054,470.11099429000006 L -2693.837837837838,448.98461584999995 L -2673.6216216216217,432.0862034599999 L -2653.4054054054054,413.16360948000005 L -2633.189189189189,398.23089854000006 L -2612.972972972973,386.56743061 L -2592.7567567567567,380.98396084999996 L -2572.5405405405404,372.30599129999996 L -2552.324324324324,368.48131395 L -2532.108108108108,354.14211443000005 L -2511.891891891892,340.8411843199999 L -2491.675675675676,332.4783998 L -2471.4594594594596,328.63100369 L -2451.2432432432433,327.52937540000005 L -2431.027027027027,326.63885014 L -2410.810810810811,325.23639333 L -2390.5945945945946,308.4964022099999 L -2370.3783783783783,298.53627106999994 L -2350.162162162162,288.96071711 L -2329.945945945946,281.37711086 L -2309.7297297297296,265.93149809999994 L -2289.5135135135133,250.68904029000007 L -2269.2972972972975,240.80727028 L -2249.0810810810813,232.56594795999993 L -2228.864864864865,226.03696876000004 L -2208.6486486486488,222.17462268999998 L -2188.4324324324325,214.16091708 L -2168.2162162162163,211.47449176999996 L -2148,209.27199215000007 L -2127.7837837837837,199.88354343000006 L -2107.5675675675675,187.04561056000003 L -2087.3513513513512,187.15203731000003 L -2067.135135135135,191.75625812999994 L -2046.9189189189187,199.48091043000008 L -2026.7027027027025,207.97871437000006 L -2006.4864864864867,221.12349492 L -1986.2702702702704,218.09752325 L -1966.0540540540542,219.69073065999996 L -1945.837837837838,218.58011928 L -1925.6216216216217,218.33029343000007 L -1905.4054054054054,218.31328258 L -1885.1891891891892,218.23427239000003 L -1864.972972972973,218.20603662000008 L -1844.7567567567567,217.45112837999994 L -1824.5405405405406,213.0873220400001 L -1804.3243243243244,213.17701681999992 L -1784.1081081081081,214.20037279000007 L -1763.8918918918919,214.31031209999995 L -1743.6756756756756,208.86273159999993 L -1723.4594594594594,205.87373809000005 L -1703.2432432432433,212.13127326000006 L -1683.027027027027,212.34924868999997 L -1662.8108108108108,212.81115115999998 L -1642.5945945945946,215.09692551000006 L -1622.3783783783783,217.89357648000004 L -1602.162162162162,221.09311940999996 L -1581.945945945946,225.88607890999998 L -1561.7297297297298,225.87559268999996 L -1541.5135135135135,225.95789631999995 L -1521.2972972972973,225.96300662999994 L -1501.081081081081,225.73885184999995 L -1480.8648648648648,224.42935670000003 L -1460.6486486486488,223.57599884000004 L -1440.4324324324325,222.90949970999992 L -1420.2162162162163,224.88254001999996 L -1400,223.68580120000001 L -1379.7837837837837,222.47705393999996 L -1359.5675675675675,221.02510754999997 L -1339.3513513513512,225.00060503 L -1319.1351351351352,233.46034931999992 L -1298.918918918919,238.09512908 L -1278.7027027027027,235.6355369599999 L -1258.4864864864865,229.23090089000002 L -1238.2702702702702,226.23303218999996 L -1218.054054054054,223.49806598999996 L -1197.837837837838,219.46745568000006 L -1177.6216216216217,215.21528517000002 L -1157.4054054054054,208.90904726000005 L -1137.1891891891892,198.91533764000002 L -1116.972972972973,174.33777687000006 L -1096.7567567567567,147.37342743000008 L -1076.5405405405406,128.0799355 L -1056.3243243243244,104.43018027000011 L -1036.1081081081081,80.44009681999995 L -1015.8918918918919,63.619230500000015 L -995.6756756756756,48.96834190999999 L -975.4594594594594,34.584251840000036 L -955.2432432432433,24.45577428999991 L -935.0270270270271,15.266889939999999 L -914.8108108108108,10.68502434000004 L -894.5945945945946,11.664131349999991 L -874.3783783783783,8.495168110000122 L -854.1621621621622,7.337975469999947 L -833.9459459459459,9.762459419999857 L -813.7297297297297,15.17953990999996 L -793.5135135135135,21.639730370000052 L -773.2972972972973,30.78123665999999 L -753.081081081081,44.27380546999996 L -732.8648648648649,62.77289028999991 L -712.6486486486486,68.64442815000001 L -692.4324324324324,69.7365819900001 L -672.2162162162163,57.775824659999955 L -652,48.86170931999993 L -631.7837837837837,49.37141730000013 L -611.5675675675676,49.44905052000013 L -591.3513513513514,49.800787919999834 L -571.1351351351351,52.838371289999884 L -550.918918918919,54.769812 L -530.7027027027027,57.210336530000006 L -510.48648648648646,58.50164305999999 L -490.2702702702703,55.84040327000008 L -470.05405405405406,56.08444153000005 L -449.8378378378378,51.879066419999845 L -429.62162162162167,40.93587331999993 L -409.4054054054054,39.87089450999986 L -389.18918918918916,40.424958520000075 L -368.97297297297297,42.82610868000006 L -348.7567567567568,44.487835909999944 L -328.5405405405405,46.57324991999985 L -308.3243243243243,48.228289009999855 L -288.1081081081081,50.310186310000006 L -267.8918918918919,50.19888081999994 L -247.67567567567568,51.95789400999985 L -227.45945945945948,52.24512878999991 L -207.24324324324323,51.25189849999998 L -187.02702702702703,46.47812611000012 L -166.81081081081084,44.23837858000019 L -146.59459459459458,42.697239560000014 L -126.37837837837839,42.88989999000012 L -106.16216216216216,38.75342400999989 L -85.94594594594594,41.04683021000011 L -65.72972972972974,44.316521419999845 L -45.513513513513516,53.41506193000009 L -25.29729729729729,74.70316088999988 L -5.081081081081081,84.93676375000001 L 15.13513513513513,92.68993153000002 L 35.351351351351354,101.47874591999982 L 55.567567567567565,112.22981311000012 L 75.78378378378378,121.5388192100001 L 96,122.83116240999999 L 116.21621621621622,126.82263905000013 L 136.43243243243245,125.60917158000012 L 156.64864864864865,128.58113431999993 L 176.86486486486487,124.60074980000013 L 197.0810810810811,118.3880321399999 L 217.2972972972973,111.91462393000006 L 237.51351351351352,106.74630190999994 L 257.72972972972974,100.63540449999999 L 277.94594594594594,95.35019856000002 L 298.1621621621622,88.84851640000005 L 318.3783783783784,83.00545334999998 L 318.3783783783784,221.37894484999993 L 298.1621621621622,226.87585640000006 L 277.94594594594594,231.58810504000007 L 257.72972972972974,230.98568440000005 L 237.51351351351352,230.83814609000004 L 217.2972972972973,230.16155996999998 L 197.0810810810811,229.73876876000006 L 176.86486486486487,226.7532405 L 156.64864864864865,224.35369057999998 L 136.43243243243245,226.21043212000006 L 116.21621621621622,225.79389745000003 L 96,226.38979429000008 L 75.78378378378378,226.29271748999994 L 55.567567567567565,229.67643659000004 L 35.351351351351354,231.56962757999997 L 15.13513513513513,232.14377426999994 L -5.081081081081081,232.70227795000002 L -25.29729729729729,234.71779351000006 L -45.513513513513516,242.62374437000005 L -65.72972972972974,237.91345868000008 L -85.94594594594594,227.48549389000001 L -106.16216216216216,216.69592548999995 L -126.37837837837839,202.48436170999992 L -146.59459459459458,197.16922514 L -166.81081081081084,188.53047392000002 L -187.02702702702703,182.55572639000002 L -207.24324324324323,173.34479059999993 L -227.45945945945948,170.65228470999992 L -247.67567567567568,171.69550009000002 L -267.8918918918919,178.02890887999993 L -288.1081081081081,177.76838598999996 L -308.3243243243243,174.72243539000002 L -328.5405405405405,168.81907118000007 L -348.7567567567568,168.13620279000008 L -368.97297297297297,167.96544772 L -389.18918918918916,167.77803537999995 L -409.4054054054054,167.46088989 L -429.62162162162167,167.67415257999997 L -449.8378378378378,162.81890987999992 L -470.05405405405406,161.51854306999994 L -490.2702702702703,161.60594373000004 L -510.48648648648646,161.20901034000002 L -530.7027027027027,160.67027476999996 L -550.918918918919,160.34948890000007 L -571.1351351351351,159.98078381000002 L -591.3513513513514,156.93627657999997 L -611.5675675675676,151.55425778 L -631.7837837837837,146.704264 L -652,140.16361168000006 L -672.2162162162163,123.8350482400001 L -692.4324324324324,107.36676840999996 L -712.6486486486486,110.3700719499999 L -732.8648648648649,122.11844140999995 L -753.081081081081,151.65389512999994 L -773.2972972972973,178.3084130400001 L -793.5135135135135,202.53257973000004 L -813.7297297297297,222.5322862900001 L -833.9459459459459,242.16141528 L -854.1621621621622,259.03881373 L -874.3783783783783,271.08762659 L -894.5945945945946,284.91799295000004 L -914.8108108108108,303.69977826 L -935.0270270270271,315.72065166 L -955.2432432432433,322.29612331000004 L -975.4594594594594,328.73010486 L -995.6756756756756,332.39004048999993 L -1015.8918918918919,334.823515 L -1036.1081081081081,334.5502673799999 L -1056.3243243243244,330.03150253 L -1076.5405405405406,324.1046128 L -1096.7567567567567,325.3417850699999 L -1116.972972972973,317.3834064300001 L -1137.1891891891892,307.40757085999996 L -1157.4054054054054,305.64829123999993 L -1177.6216216216217,305.61711893000006 L -1197.837837837838,306.06523842 L -1218.054054054054,304.99235801000003 L -1238.2702702702702,305.43421681000007 L -1258.4864864864865,306.02868770999993 L -1278.7027027027027,303.78164614 L -1298.918918918919,304.44086201999994 L -1319.1351351351352,304.85263498000006 L -1339.3513513513512,309.01966077 L -1359.5675675675675,311.07160005 L -1379.7837837837837,311.85448676000004 L -1400,312.4868289000001 L -1420.2162162162163,314.54249487999994 L -1440.4324324324325,324.03441389 L -1460.6486486486488,326.53279606 L -1480.8648648648648,327.20889579999994 L -1501.081081081081,323.35302705 L -1521.2972972972973,320.9888500699999 L -1541.5135135135135,321.15902248000003 L -1561.7297297297298,323.05012851000004 L -1581.945945945946,323.07129018999996 L -1602.162162162162,323.85505918999996 L -1622.3783783783783,324.74892022 L -1642.5945945945946,324.56149709000005 L -1662.8108108108108,323.73355134 L -1683.027027027027,323.36721341 L -1703.2432432432433,322.50618054000006 L -1723.4594594594594,325.64435991 L -1743.6756756756756,324.2589928 L -1763.8918918918919,322.6873130999999 L -1784.1081081081081,322.47219951000005 L -1804.3243243243244,321.81638248 L -1824.5405405405406,322.19726615999997 L -1844.7567567567567,313.77404601999996 L -1864.972972972973,311.72549978 L -1885.1891891891892,311.54052681 L -1905.4054054054054,309.22058301999994 L -1925.6216216216217,308.85231617 L -1945.837837837838,307.99455681999996 L -1966.0540540540542,305.05772134000006 L -1986.2702702702704,308.86346804999994 L -2006.4864864864867,311.40600787999995 L -2026.7027027027025,338.9237739300001 L -2046.9189189189187,362.01557576999994 L -2067.135135135135,385.99443347 L -2087.3513513513512,405.06379468999995 L -2107.5675675675675,416.57125914 L -2127.7837837837837,420.3176060699999 L -2148,425.02813495000004 L -2168.2162162162163,438.74013833 L -2188.4324324324325,451.37685762000007 L -2208.6486486486488,459.41998341 L -2228.864864864865,468.61603564 L -2249.0810810810813,474.50772423999996 L -2269.2972972972975,478.81056542 L -2289.5135135135133,483.54096201000004 L -2309.7297297297296,484.3915817 L -2329.945945945946,485.0983665400001 L -2350.162162162162,500.99941109 L -2370.3783783783783,517.59105133 L -2390.5945945945946,531.07525789 L -2410.810810810811,539.34900167 L -2431.027027027027,553.53750556 L -2451.2432432432433,568.7159795 L -2471.4594594594596,581.1701187099999 L -2491.675675675676,590.0740873 L -2511.891891891892,597.4700977800001 L -2532.108108108108,599.34227317 L -2552.324324324324,602.19870655 L -2572.5405405405404,615.4388209000001 L -2592.7567567567567,617.44466945 L -2612.972972972973,631.9617578900001 L -2633.189189189189,635.09568766 L -2653.4054054054054,638.6866760199999 L -2673.6216216216217,631.08137274 L -2693.837837837838,623.53764965 L -2714.054054054054,612.9013673100001 L -2734.2702702702704,599.21919247 L -2754.4864864864867,603.13674848 L -2774.7027027027025,603.3577608799999 L -2794.9189189189187,603.4025186299999 L -2815.135135135135,603.29864247 L -2835.3513513513512,604.73062736 L -2855.5675675675675,610.0847233 L -2875.7837837837837,612.56616185 L -2896,614.66816922 L -2916.2162162162163,615.6515084 L -2936.4324324324325,615.13335766 L -2956.6486486486488,612.11124964 L -2976.864864864865,601.09432266 L -2997.0810810810813,599.15169023 L -3017.2972972972975,577.96394906 L -3037.5135135135133,568.78858707 L -3057.7297297297296,547.75185693 L -3077.945945945946,547.33262808 L -3098.162162162162,544.9621862600001 L -3118.3783783783783,540.72151208 L -3138.5945945945946,544.2164071899999 L -3158.810810810811,545.92962098 L -3179.027027027027,546.97203624 L -3199.2432432432433,561.8510752300001 L -3219.4594594594596,567.8775799 L -3239.675675675676,567.7620239800001 L -3259.891891891892,566.1586831 L -3280.108108108108,568.58405598 L -3300.324324324324,572.57096845 L -3320.5405405405404,571.9383059300001 L -3340.7567567567567,572.0044644000001 L -3360.972972972973,585.73957249 L -3381.189189189189,584.558895 L -3401.4054054054054,583.8232278199999 L -3421.6216216216217,584.25924674 L -3441.837837837838,583.3075123 L -3462.054054054054,582.42105487 L -3482.2702702702704,581.40424179 L -3502.4864864864867,588.41216419 L -3522.7027027027025,592.21886125 L -3542.9189189189187,586.97364305 Z" fill="rgba(59, 130, 246, 0.10)" stroke="none" />
        <path d="M -3542.9189189189187,320.91203855 L -3522.7027027027025,335.5009983499999 L -3502.4864864864867,355.3334682099999 L -3482.2702702702704,377.39232840999995 L -3462.054054054054,388.1125204300001 L -3441.837837837838,392.72284590000004 L -3421.6216216216217,392.81237966 L -3401.4054054054054,391.6122444800001 L -3381.189189189189,391.9965045999999 L -3360.972972972973,394.23828231000005 L -3340.7567567567567,422.211974 L -3320.5405405405404,422.62425076999995 L -3300.324324324324,421.12831355 L -3280.108108108108,428.47047612000006 L -3259.891891891892,433.0619580999999 L -3239.675675675676,428.88756772 L -3219.4594594594596,429.58400079999996 L -3199.2432432432433,431.64729696999996 L -3179.027027027027,440.17186426000006 L -3158.810810810811,440.46100472 L -3138.5945945945946,439.41548111 L -3118.3783783783783,441.31933262000007 L -3098.162162162162,439.92261193999997 L -3077.945945945946,439.70840222 L -3057.7297297297296,439.56043396999996 L -3037.5135135135133,428.36273133 L -3017.2972972972975,424.81979084000005 L -2997.0810810810813,418.57001617000003 L -2976.864864864865,419.6373787399999 L -2956.6486486486488,417.87750816 L -2936.4324324324325,419.33278534000004 L -2916.2162162162163,424.0251754000001 L -2896,434.57233068000005 L -2875.7837837837837,444.82951965000007 L -2855.5675675675675,456.3657685 L -2835.3513513513512,471.97482984000004 L -2815.135135135135,478.06225153 L -2794.9189189189187,480.92760076999997 L -2774.7027027027025,482.70753162000005 L -2754.4864864864867,485.5798628199999 L -2734.2702702702704,492.88166913 L -2714.054054054054,470.11099429000006 L -2693.837837837838,448.98461584999995 L -2673.6216216216217,432.0862034599999 L -2653.4054054054054,413.16360948000005 L -2633.189189189189,398.23089854000006 L -2612.972972972973,386.56743061 L -2592.7567567567567,380.98396084999996 L -2572.5405405405404,372.30599129999996 L -2552.324324324324,368.48131395 L -2532.108108108108,354.14211443000005 L -2511.891891891892,340.8411843199999 L -2491.675675675676,332.4783998 L -2471.4594594594596,328.63100369 L -2451.2432432432433,327.52937540000005 L -2431.027027027027,326.63885014 L -2410.810810810811,325.23639333 L -2390.5945945945946,308.4964022099999 L -2370.3783783783783,298.53627106999994 L -2350.162162162162,288.96071711 L -2329.945945945946,281.37711086 L -2309.7297297297296,265.93149809999994 L -2289.5135135135133,250.68904029000007 L -2269.2972972972975,240.80727028 L -2249.0810810810813,232.56594795999993 L -2228.864864864865,226.03696876000004 L -2208.6486486486488,222.17462268999998 L -2188.4324324324325,214.16091708 L -2168.2162162162163,211.47449176999996 L -2148,209.27199215000007 L -2127.7837837837837,199.88354343000006 L -2107.5675675675675,187.04561056000003 L -2087.3513513513512,187.15203731000003 L -2067.135135135135,191.75625812999994 L -2046.9189189189187,199.48091043000008 L -2026.7027027027025,207.97871437000006 L -2006.4864864864867,221.12349492 L -1986.2702702702704,218.09752325 L -1966.0540540540542,219.69073065999996 L -1945.837837837838,218.58011928 L -1925.6216216216217,218.33029343000007 L -1905.4054054054054,218.31328258 L -1885.1891891891892,218.23427239000003 L -1864.972972972973,218.20603662000008 L -1844.7567567567567,217.45112837999994 L -1824.5405405405406,213.0873220400001 L -1804.3243243243244,213.17701681999992 L -1784.1081081081081,214.20037279000007 L -1763.8918918918919,214.31031209999995 L -1743.6756756756756,208.86273159999993 L -1723.4594594594594,205.87373809000005 L -1703.2432432432433,212.13127326000006 L -1683.027027027027,212.34924868999997 L -1662.8108108108108,212.81115115999998 L -1642.5945945945946,215.09692551000006 L -1622.3783783783783,217.89357648000004 L -1602.162162162162,221.09311940999996 L -1581.945945945946,225.88607890999998 L -1561.7297297297298,225.87559268999996 L -1541.5135135135135,225.95789631999995 L -1521.2972972972973,225.96300662999994 L -1501.081081081081,225.73885184999995 L -1480.8648648648648,224.42935670000003 L -1460.6486486486488,223.57599884000004 L -1440.4324324324325,222.90949970999992 L -1420.2162162162163,224.88254001999996 L -1400,223.68580120000001 L -1379.7837837837837,222.47705393999996 L -1359.5675675675675,221.02510754999997 L -1339.3513513513512,225.00060503 L -1319.1351351351352,233.46034931999992 L -1298.918918918919,238.09512908 L -1278.7027027027027,235.6355369599999 L -1258.4864864864865,229.23090089000002 L -1238.2702702702702,226.23303218999996 L -1218.054054054054,223.49806598999996 L -1197.837837837838,219.46745568000006 L -1177.6216216216217,215.21528517000002 L -1157.4054054054054,208.90904726000005 L -1137.1891891891892,198.91533764000002 L -1116.972972972973,174.33777687000006 L -1096.7567567567567,147.37342743000008 L -1076.5405405405406,128.0799355 L -1056.3243243243244,104.43018027000011 L -1036.1081081081081,80.44009681999995 L -1015.8918918918919,63.619230500000015 L -995.6756756756756,48.96834190999999 L -975.4594594594594,34.584251840000036 L -955.2432432432433,24.45577428999991 L -935.0270270270271,15.266889939999999 L -914.8108108108108,10.68502434000004 L -894.5945945945946,11.664131349999991 L -874.3783783783783,8.495168110000122 L -854.1621621621622,7.337975469999947 L -833.9459459459459,9.762459419999857 L -813.7297297297297,15.17953990999996 L -793.5135135135135,21.639730370000052 L -773.2972972972973,30.78123665999999 L -753.081081081081,44.27380546999996 L -732.8648648648649,62.77289028999991 L -712.6486486486486,68.64442815000001 L -692.4324324324324,69.7365819900001 L -672.2162162162163,57.775824659999955 L -652,48.86170931999993 L -631.7837837837837,49.37141730000013 L -611.5675675675676,49.44905052000013 L -591.3513513513514,49.800787919999834 L -571.1351351351351,52.838371289999884 L -550.918918918919,54.769812 L -530.7027027027027,57.210336530000006 L -510.48648648648646,58.50164305999999 L -490.2702702702703,55.84040327000008 L -470.05405405405406,56.08444153000005 L -449.8378378378378,51.879066419999845 L -429.62162162162167,40.93587331999993 L -409.4054054054054,39.87089450999986 L -389.18918918918916,40.424958520000075 L -368.97297297297297,42.82610868000006 L -348.7567567567568,44.487835909999944 L -328.5405405405405,46.57324991999985 L -308.3243243243243,48.228289009999855 L -288.1081081081081,50.310186310000006 L -267.8918918918919,50.19888081999994 L -247.67567567567568,51.95789400999985 L -227.45945945945948,52.24512878999991 L -207.24324324324323,51.25189849999998 L -187.02702702702703,46.47812611000012 L -166.81081081081084,44.23837858000019 L -146.59459459459458,42.697239560000014 L -126.37837837837839,42.88989999000012 L -106.16216216216216,38.75342400999989 L -85.94594594594594,41.04683021000011 L -65.72972972972974,44.316521419999845 L -45.513513513513516,53.41506193000009 L -25.29729729729729,74.70316088999988 L -5.081081081081081,84.93676375000001 L 15.13513513513513,92.68993153000002 L 35.351351351351354,101.47874591999982 L 55.567567567567565,112.22981311000012 L 75.78378378378378,121.5388192100001 L 96,122.83116240999999 L 116.21621621621622,126.82263905000013 L 136.43243243243245,125.60917158000012 L 156.64864864864865,128.58113431999993 L 176.86486486486487,124.60074980000013 L 197.0810810810811,118.3880321399999 L 217.2972972972973,111.91462393000006 L 237.51351351351352,106.74630190999994 L 257.72972972972974,100.63540449999999 L 277.94594594594594,95.35019856000002 L 298.1621621621622,88.84851640000005 L 318.3783783783784,83.00545334999998" fill="none" stroke="#3b82f6" stroke-width="1"/>
        <path d="M -3542.9189189189187,586.97364305 L -3522.7027027027025,592.21886125 L -3502.4864864864867,588.41216419 L -3482.2702702702704,581.40424179 L -3462.054054054054,582.42105487 L -3441.837837837838,583.3075123 L -3421.6216216216217,584.25924674 L -3401.4054054054054,583.8232278199999 L -3381.189189189189,584.558895 L -3360.972972972973,585.73957249 L -3340.7567567567567,572.0044644000001 L -3320.5405405405404,571.9383059300001 L -3300.324324324324,572.57096845 L -3280.108108108108,568.58405598 L -3259.891891891892,566.1586831 L -3239.675675675676,567.7620239800001 L -3219.4594594594596,567.8775799 L -3199.2432432432433,561.8510752300001 L -3179.027027027027,546.97203624 L -3158.810810810811,545.92962098 L -3138.5945945945946,544.2164071899999 L -3118.3783783783783,540.72151208 L -3098.162162162162,544.9621862600001 L -3077.945945945946,547.33262808 L -3057.7297297297296,547.75185693 L -3037.5135135135133,568.78858707 L -3017.2972972972975,577.96394906 L -2997.0810810810813,599.15169023 L -2976.864864864865,601.09432266 L -2956.6486486486488,612.11124964 L -2936.4324324324325,615.13335766 L -2916.2162162162163,615.6515084 L -2896,614.66816922 L -2875.7837837837837,612.56616185 L -2855.5675675675675,610.0847233 L -2835.3513513513512,604.73062736 L -2815.135135135135,603.29864247 L -2794.9189189189187,603.4025186299999 L -2774.7027027027025,603.3577608799999 L -2754.4864864864867,603.13674848 L -2734.2702702702704,599.21919247 L -2714.054054054054,612.9013673100001 L -2693.837837837838,623.53764965 L -2673.6216216216217,631.08137274 L -2653.4054054054054,638.6866760199999 L -2633.189189189189,635.09568766 L -2612.972972972973,631.9617578900001 L -2592.7567567567567,617.44466945 L -2572.5405405405404,615.4388209000001 L -2552.324324324324,602.19870655 L -2532.108108108108,599.34227317 L -2511.891891891892,597.4700977800001 L -2491.675675675676,590.0740873 L -2471.4594594594596,581.1701187099999 L -2451.2432432432433,568.7159795 L -2431.027027027027,553.53750556 L -2410.810810810811,539.34900167 L -2390.5945945945946,531.07525789 L -2370.3783783783783,517.59105133 L -2350.162162162162,500.99941109 L -2329.945945945946,485.0983665400001 L -2309.7297297297296,484.3915817 L -2289.5135135135133,483.54096201000004 L -2269.2972972972975,478.81056542 L -2249.0810810810813,474.50772423999996 L -2228.864864864865,468.61603564 L -2208.6486486486488,459.41998341 L -2188.4324324324325,451.37685762000007 L -2168.2162162162163,438.74013833 L -2148,425.02813495000004 L -2127.7837837837837,420.3176060699999 L -2107.5675675675675,416.57125914 L -2087.3513513513512,405.06379468999995 L -2067.135135135135,385.99443347 L -2046.9189189189187,362.01557576999994 L -2026.7027027027025,338.9237739300001 L -2006.4864864864867,311.40600787999995 L -1986.2702702702704,308.86346804999994 L -1966.0540540540542,305.05772134000006 L -1945.837837837838,307.99455681999996 L -1925.6216216216217,308.85231617 L -1905.4054054054054,309.22058301999994 L -1885.1891891891892,311.54052681 L -1864.972972972973,311.72549978 L -1844.7567567567567,313.77404601999996 L -1824.5405405405406,322.19726615999997 L -1804.3243243243244,321.81638248 L -1784.1081081081081,322.47219951000005 L -1763.8918918918919,322.6873130999999 L -1743.6756756756756,324.2589928 L -1723.4594594594594,325.64435991 L -1703.2432432432433,322.50618054000006 L -1683.027027027027,323.36721341 L -1662.8108108108108,323.73355134 L -1642.5945945945946,324.56149709000005 L -1622.3783783783783,324.74892022 L -1602.162162162162,323.85505918999996 L -1581.945945945946,323.07129018999996 L -1561.7297297297298,323.05012851000004 L -1541.5135135135135,321.15902248000003 L -1521.2972972972973,320.9888500699999 L -1501.081081081081,323.35302705 L -1480.8648648648648,327.20889579999994 L -1460.6486486486488,326.53279606 L -1440.4324324324325,324.03441389 L -1420.2162162162163,314.54249487999994 L -1400,312.4868289000001 L -1379.7837837837837,311.85448676000004 L -1359.5675675675675,311.07160005 L -1339.3513513513512,309.01966077 L -1319.1351351351352,304.85263498000006 L -1298.918918918919,304.44086201999994 L -1278.7027027027027,303.78164614 L -1258.4864864864865,306.02868770999993 L -1238.2702702702702,305.43421681000007 L -1218.054054054054,304.99235801000003 L -1197.837837837838,306.06523842 L -1177.6216216216217,305.61711893000006 L -1157.4054054054054,305.64829123999993 L -1137.1891891891892,307.40757085999996 L -1116.972972972973,317.3834064300001 L -1096.7567567567567,325.3417850699999 L -1076.5405405405406,324.1046128 L -1056.3243243243244,330.03150253 L -1036.1081081081081,334.5502673799999 L -1015.8918918918919,334.823515 L -995.6756756756756,332.39004048999993 L -975.4594594594594,328.73010486 L -955.2432432432433,322.29612331000004 L -935.0270270270271,315.72065166 L -914.8108108108108,303.69977826 L -894.5945945945946,284.91799295000004 L -874.3783783783783,271.08762659 L -854.1621621621622,259.03881373 L -833.9459459459459,242.16141528 L -813.7297297297297,222.5322862900001 L -793.5135135135135,202.53257973000004 L -773.2972972972973,178.3084130400001 L -753.081081081081,151.65389512999994 L -732.8648648648649,122.11844140999995 L -712.6486486486486,110.3700719499999 L -692.4324324324324,107.36676840999996 L -672.2162162162163,123.8350482400001 L -652,140.16361168000006 L -631.7837837837837,146.704264 L -611.5675675675676,151.55425778 L -591.3513513513514,156.93627657999997 L -571.1351351351351,159.98078381000002 L -550.918918918919,160.34948890000007 L -530.7027027027027,160.67027476999996 L -510.48648648648646,161.20901034000002 L -490.2702702702703,161.60594373000004 L -470.05405405405406,161.51854306999994 L -449.8378378378378,162.81890987999992 L -429.62162162162167,167.67415257999997 L -409.4054054054054,167.46088989 L -389.18918918918916,167.77803537999995 L -368.97297297297297,167.96544772 L -348.7567567567568,168.13620279000008 L -328.5405405405405,168.81907118000007 L -308.3243243243243,174.72243539000002 L -288.1081081081081,177.76838598999996 L -267.8918918918919,178.02890887999993 L -247.67567567567568,171.69550009000002 L -227.45945945945948,170.65228470999992 L -207.24324324324323,173.34479059999993 L -187.02702702702703,182.55572639000002 L -166.81081081081084,188.53047392000002 L -146.59459459459458,197.16922514 L -126.37837837837839,202.48436170999992 L -106.16216216216216,216.69592548999995 L -85.94594594594594,227.48549389000001 L -65.72972972972974,237.91345868000008 L -45.513513513513516,242.62374437000005 L -25.29729729729729,234.71779351000006 L -5.081081081081081,232.70227795000002 L 15.13513513513513,232.14377426999994 L 35.351351351351354,231.56962757999997 L 55.567567567567565,229.67643659000004 L 75.78378378378378,226.29271748999994 L 96,226.38979429000008 L 116.21621621621622,225.79389745000003 L 136.43243243243245,226.21043212000006 L 156.64864864864865,224.35369057999998 L 176.86486486486487,226.7532405 L 197.0810810810811,229.73876876000006 L 217.2972972972973,230.16155996999998 L 237.51351351351352,230.83814609000004 L 257.72972972972974,230.98568440000005 L 277.94594594594594,231.58810504000007 L 298.1621621621622,226.87585640000006 L 318.3783783783784,221.37894484999993" fill="none" stroke="#3b82f6" stroke-width="1"/>
        <path d="M -3542.9189189189187,453.9428408 L -3522.7027027027025,463.8599298 L -3502.4864864864867,471.87281620000005 L -3482.2702702702704,479.39828509999995 L -3462.054054054054,485.2667876500001 L -3441.837837837838,488.01517909999995 L -3421.6216216216217,488.5358132 L -3401.4054054054054,487.71773615000006 L -3381.189189189189,488.27769979999994 L -3360.972972972973,489.9889274000001 L -3340.7567567567567,497.1082192 L -3320.5405405405404,497.2812783499999 L -3300.324324324324,496.849641 L -3280.108108108108,498.52726605 L -3259.891891891892,499.6103205999999 L -3239.675675675676,498.32479584999993 L -3219.4594594594596,498.73079034999995 L -3199.2432432432433,496.7491860999999 L -3179.027027027027,493.57195025 L -3158.810810810811,493.19531284999994 L -3138.5945945945946,491.81594415000006 L -3118.3783783783783,491.02042234999993 L -3098.162162162162,492.44239909999993 L -3077.945945945946,493.52051515000005 L -3057.7297297297296,493.65614545000005 L -3037.5135135135133,498.5756592 L -3017.2972972972975,501.39186995 L -2997.0810810810813,508.86085320000007 L -2976.864864864865,510.3658507 L -2956.6486486486488,514.9943789000001 L -2936.4324324324325,517.2330715 L -2916.2162162162163,519.8383419 L -2896,524.62024995 L -2875.7837837837837,528.6978407500001 L -2855.5675675675675,533.2252459000001 L -2835.3513513513512,538.3527285999999 L -2815.135135135135,540.680447 L -2794.9189189189187,542.1650597 L -2774.7027027027025,543.03264625 L -2754.4864864864867,544.35830565 L -2734.2702702702704,546.0504308 L -2714.054054054054,541.5061808 L -2693.837837837838,536.26113275 L -2673.6216216216217,531.5837881 L -2653.4054054054054,525.92514275 L -2633.189189189189,516.6632930999999 L -2612.972972972973,509.26459424999996 L -2592.7567567567567,499.21431515000006 L -2572.5405405405404,493.8724060999999 L -2552.324324324324,485.34001025 L -2532.108108108108,476.7421938 L -2511.891891891892,469.15564105 L -2491.675675675676,461.27624354999995 L -2471.4594594594596,454.9005612 L -2451.2432432432433,448.12267745 L -2431.027027027027,440.08817784999997 L -2410.810810810811,432.29269750000003 L -2390.5945945945946,419.78583004999996 L -2370.3783783783783,408.0636612 L -2350.162162162162,394.98006409999994 L -2329.945945945946,383.2377387 L -2309.7297297297296,375.16153990000004 L -2289.5135135135133,367.11500115000007 L -2269.2972972972975,359.80891784999994 L -2249.0810810810813,353.53683609999996 L -2228.864864864865,347.32650220000005 L -2208.6486486486488,340.79730305 L -2188.4324324324325,332.76888734999994 L -2168.2162162162163,325.10731504999995 L -2148,317.15006354999997 L -2127.7837837837837,310.10057475 L -2107.5675675675675,301.8084348499999 L -2087.3513513513512,296.107916 L -2067.135135135135,288.8753458 L -2046.9189189189187,280.74824309999997 L -2026.7027027027025,273.4512441500001 L -2006.4864864864867,266.2647514000001 L -1986.2702702702704,263.4804956500001 L -1966.0540540540542,262.374226 L -1945.837837837838,263.28733804999996 L -1925.6216216216217,263.5913048 L -1905.4054054054054,263.76693279999995 L -1885.1891891891892,264.8873995999999 L -1864.972972972973,264.9657682 L -1844.7567567567567,265.6125872 L -1824.5405405405406,267.64229409999996 L -1804.3243243243244,267.4966996500001 L -1784.1081081081081,268.3362861500001 L -1763.8918918918919,268.49881259999995 L -1743.6756756756756,266.56086220000003 L -1723.4594594594594,265.759049 L -1703.2432432432433,267.31872690000006 L -1683.027027027027,267.85823105 L -1662.8108108108108,268.27235125 L -1642.5945945945946,269.8292113 L -1622.3783783783783,271.3212483499999 L -1602.162162162162,272.47408929999995 L -1581.945945945946,274.47868454999997 L -1561.7297297297298,274.46286059999994 L -1541.5135135135135,273.55845940000006 L -1521.2972972972973,273.47592834999995 L -1501.081081081081,274.54593945000005 L -1480.8648648648648,275.81912625 L -1460.6486486486488,275.05439745 L -1440.4324324324325,273.4719568 L -1420.2162162162163,269.71251745000006 L -1400,268.08631504999994 L -1379.7837837837837,267.16577034999995 L -1359.5675675675675,266.0483538 L -1339.3513513513512,267.01013290000003 L -1319.1351351351352,269.1564921500001 L -1298.918918918919,271.26799554999997 L -1278.7027027027027,269.70859154999994 L -1258.4864864864865,267.62979429999996 L -1238.2702702702702,265.8336245 L -1218.054054054054,264.245212 L -1197.837837837838,262.76634705 L -1177.6216216216217,260.41620205 L -1157.4054054054054,257.27866925 L -1137.1891891891892,253.16145425000002 L -1116.972972972973,245.86059165000006 L -1096.7567567567567,236.35760625 L -1076.5405405405406,226.09227415000007 L -1056.3243243243244,217.23084140000006 L -1036.1081081081081,207.49518209999994 L -1015.8918918918919,199.22137275 L -995.6756756756756,190.67919120000002 L -975.4594594594594,181.65717834999992 L -955.2432432432433,173.37594879999997 L -935.0270270270271,165.4937708 L -914.8108108108108,157.19240129999997 L -894.5945945945946,148.29106215000007 L -874.3783783783783,139.79139734999993 L -854.1621621621622,133.18839459999992 L -833.9459459459459,125.96193734999994 L -813.7297297297297,118.85591309999995 L -793.5135135135135,112.08615505000012 L -773.2972972972973,104.54482484999994 L -753.081081081081,97.9638503000001 L -732.8648648648649,92.44566584999995 L -712.6486486486486,89.50725005000015 L -692.4324324324324,88.55167519999986 L -672.2162162162163,90.80543644999989 L -652,94.51266049999998 L -631.7837837837837,98.03784065000002 L -611.5675675675676,100.50165415000004 L -591.3513513513514,103.36853224999999 L -571.1351351351351,106.40957755000011 L -550.918918918919,107.55965044999988 L -530.7027027027027,108.94030565000003 L -510.48648648648646,109.85532669999986 L -490.2702702702703,108.72317349999997 L -470.05405405405406,108.80149230000012 L -449.8378378378378,107.34898815000003 L -429.62162162162167,104.30501294999988 L -409.4054054054054,103.66589219999986 L -389.18918918918916,104.10149694999984 L -368.97297297297297,105.39577819999988 L -348.7567567567568,106.31201934999996 L -328.5405405405405,107.69616055000012 L -308.3243243243243,111.47536219999989 L -288.1081081081081,114.03928615000007 L -267.8918918918919,114.11389484999995 L -247.67567567567568,111.82669705000012 L -227.45945945945948,111.44870674999999 L -207.24324324324323,112.29834455000014 L -187.02702702702703,114.51692624999998 L -166.81081081081084,116.38442624999999 L -146.59459459459458,119.93323234999991 L -126.37837837837839,122.68713084999996 L -106.16216216216216,127.72467474999999 L -85.94594594594594,134.26616205000013 L -65.72972972972974,141.11499005000013 L -45.513513513513516,148.01940315000007 L -25.29729729729729,154.7104772 L -5.081081081081081,158.81952084999995 L 15.13513513513513,162.41685290000007 L 35.351351351351354,166.52418675 L 55.567567567567565,170.95312484999994 L 75.78378378378378,173.91576834999992 L 96,174.61047834999994 L 116.21621621621622,176.30826825 L 136.43243243243245,175.90980184999992 L 156.64864864864865,176.46741245 L 176.86486486486487,175.67699515000007 L 197.0810810810811,174.06340045000002 L 217.2972972972973,171.03809195000002 L 237.51351351351352,168.792224 L 257.72972972972974,165.81054445 L 277.94594594594594,163.4691518 L 298.1621621621622,157.86218640000007 L 318.3783783783784,152.19219909999993" fill="none" stroke="#9ca3af" stroke-width="1" stroke-dasharray="4 4"/>
      
  <line x1="96" y1="158.014425" x2="96" y2="179.593761" stroke="#9ca3af" stroke-width="1"/><line x1="116.21621621621622" y1="157.997327" x2="116.21621621621622" y2="185.270961" stroke="#9ca3af" stroke-width="1"/><line x1="136.43243243243245" y1="144.28" x2="136.43243243243245" y2="182.570805" stroke="#9ca3af" stroke-width="1"/><line x1="156.64864864864865" y1="128.51" x2="156.64864864864865" y2="150.929296" stroke="#9ca3af" stroke-width="1"/><line x1="176.86486486486487" y1="111.88991399999998" x2="176.86486486486487" y2="131" stroke="#9ca3af" stroke-width="1"/><line x1="197.0810810810811" y1="116.3007" x2="197.0810810810811" y2="130.049899" stroke="#9ca3af" stroke-width="1"/><line x1="217.2972972972973" y1="118.024361" x2="217.2972972972973" y2="128.2942" stroke="#9ca3af" stroke-width="1"/><line x1="237.51351351351352" y1="112.05915099999999" x2="237.51351351351352" y2="140.54334" stroke="#9ca3af" stroke-width="1"/><line x1="257.72972972972974" y1="118.56145400000003" x2="257.72972972972974" y2="139.3" stroke="#9ca3af" stroke-width="1"/><line x1="277.94594594594594" y1="111.45175699999999" x2="277.94594594594594" y2="146.355" stroke="#9ca3af" stroke-width="1"/><line x1="298.1621621621622" y1="92.06403599999999" x2="298.1621621621622" y2="123.31171" stroke="#9ca3af" stroke-width="1"/><line x1="318.3783783783784" y1="97.68471299999999" x2="318.3783783783784" y2="103.00019900000001" stroke="#9ca3af" stroke-width="1"/>
  <rect x="77.3" y="170.01" width="37.4" height="2.750619999999998" fill="#16a34a"/><rect x="97.51621621621622" y="170.01" width="37.4" height="5.3263589999999965" fill="#ef4444"/><rect x="117.73243243243245" y="146.612217" width="37.4" height="28.724142" fill="#16a34a"/><rect x="137.94864864864866" y="128.623295" width="37.4" height="17.988921999999974" fill="#16a34a"/><rect x="158.16486486486488" y="118.243896" width="37.4" height="10.379399000000006" fill="#16a34a"/><rect x="178.3810810810811" y="118.243896" width="37.4" height="2.456965999999966" fill="#ef4444"/><rect x="198.5972972972973" y="120.70077900000001" width="37.4" height="5.241615999999993" fill="#ef4444"/><rect x="218.81351351351353" y="125.942478" width="37.4" height="1.804918000000015" fill="#ef4444"/><rect x="239.02972972972975" y="120.79506700000002" width="37.4" height="6.952328999999992" fill="#16a34a"/><rect x="259.24594594594595" y="120.27722999999997" width="37.4" height="1" fill="#16a34a"/><rect x="279.4621621621622" y="101.86069199999997" width="37.4" height="18.416538000000003" fill="#16a34a"/><rect x="299.6783783783784" y="97.80000000000001" width="37.4" height="4.060774999999978" fill="#16a34a"/>
        <path d="M -3421.6216216216217,472.38751248000005 L -3401.4054054054054,477.43412495999996 L -3381.189189189189,483.5749198 L -3360.972972972973,487.40441695999993 L -3340.7567567567567,489.78030856000004 L -3320.5405405405404,488.59009520000006 L -3300.324324324324,487.04173684 L -3280.108108108108,485.56145508 L -3259.891891891892,485.1616938799999 L -3239.675675675676,488.68337059999993 L -3219.4594594594596,489.50624256000003 L -3199.2432432432433,491.79204595999994 L -3179.027027027027,495.73442312000003 L -3158.810810810811,498.9402284000001 L -3138.5945945945946,499.27097344 L -3118.3783783783783,501.058737 L -3098.162162162162,500.23751508 L -3077.945945945946,497.76577507999997 L -3057.7297297297296,497.86765592 L -3037.5135135135133,501.33718540000007 L -3017.2972972972975,502.4130645999999 L -2997.0810810810813,507.02455456 L -2976.864864864865,508.34897228 L -2956.6486486486488,511.1864899599999 L -2936.4324324324325,513.1546224800001 L -2916.2162162162163,513.63211816 L -2896,516.5637478799999 L -2875.7837837837837,517.89756784 L -2855.5675675675675,519.75074868 L -2835.3513513513512,521.67897812 L -2815.135135135135,524.2255774800001 L -2794.9189189189187,528.04438092 L -2774.7027027027025,531.3387272800001 L -2754.4864864864867,534.73861644 L -2734.2702702702704,537.4514814 L -2714.054054054054,535.27904936 L -2693.837837837838,531.8470724000001 L -2673.6216216216217,528.17524536 L -2653.4054054054054,524.0515198400001 L -2633.189189189189,521.21506456 L -2612.972972972973,517.00840212 L -2592.7567567567567,512.4420874000001 L -2572.5405405405404,508.63048504000005 L -2552.324324324324,504.5335818 L -2532.108108108108,495.68785016 L -2511.891891891892,487.84313504000005 L -2491.675675675676,478.49606015999996 L -2471.4594594594596,473.52533623999994 L -2451.2432432432433,466.25338751999993 L -2431.027027027027,459.9630632 L -2410.810810810811,454.18906195999995 L -2390.5945945945946,444.176845 L -2370.3783783783783,434.83138364 L -2350.162162162162,424.142471 L -2329.945945945946,413.35948948000004 L -2309.7297297297296,402.8639236800001 L -2289.5135135135133,391.80702556 L -2269.2972972972975,381.59626264 L -2249.0810810810813,371.39434420000003 L -2228.864864864865,362.23592168000005 L -2208.6486486486488,356.44129992 L -2188.4324324324325,349.64829108 L -2168.2162162162163,343.44930659999994 L -2148,337.51351844 L -2127.7837837837837,330.43767548000005 L -2107.5675675675675,321.87820751999993 L -2087.3513513513512,316.01094084000005 L -2067.135135135135,309.527688 L -2046.9189189189187,302.57997379999995 L -2026.7027027027025,297.33030348000005 L -2006.4864864864867,291.87635023999997 L -1986.2702702702704,285.9402466800001 L -1966.0540540540542,280.81031548000004 L -1945.837837837838,276.27419948000005 L -1925.6216216216217,272.1619910400001 L -1905.4054054054054,268.04331192 L -1885.1891891891892,267.88828120000005 L -1864.972972972973,267.1179482399999 L -1844.7567567567567,267.90036268000006 L -1824.5405405405406,269.759566 L -1804.3243243243244,270.30942772 L -1784.1081081081081,270.62531908 L -1763.8918918918919,270.40122240000005 L -1743.6756756756756,267.93273931999994 L -1723.4594594594594,265.18371292 L -1703.2432432432433,263.0953465999999 L -1683.027027027027,264.0824158 L -1662.8108108108108,264.05971695999995 L -1642.5945945945946,264.723292 L -1622.3783783783783,266.30684236 L -1602.162162162162,268.4088738 L -1581.945945945946,268.63686151999997 L -1561.7297297297298,269.2803273199999 L -1541.5135135135135,270.52237252 L -1521.2972972972973,272.1817384000001 L -1501.081081081081,274.66826235999997 L -1480.8648648648648,277.7591856800001 L -1460.6486486486488,277.26208540000005 L -1440.4324324324325,276.04805768000006 L -1420.2162162162163,274.65653612000006 L -1400,273.76493351999994 L -1379.7837837837837,272.4480156800001 L -1359.5675675675675,271.26729087999996 L -1339.3513513513512,269.05077587999995 L -1319.1351351351352,266.39507136 L -1298.918918918919,266.11238331999994 L -1278.7027027027027,265.18026012000007 L -1258.4864864864865,263.36450231999993 L -1238.2702702702702,264.14150184000005 L -1218.054054054054,265.09577276000005 L -1197.837837837838,264.76696992 L -1177.6216216216217,262.68323831999993 L -1157.4054054054054,260.48538171999996 L -1137.1891891891892,257.1881668799999 L -1116.972972972973,251.81321304000008 L -1096.7567567567567,245.77507592 L -1076.5405405405406,239.05005735999998 L -1056.3243243243244,231.4764700400001 L -1036.1081081081081,223.19743584000003 L -1015.8918918918919,215.25289164 L -995.6756756756756,206.67153492000003 L -975.4594594594594,197.11845735999998 L -955.2432432432433,189.9245319599999 L -935.0270270270271,182.66822707999998 L -914.8108108108108,176.37897843999997 L -894.5945945945946,170.276181 L -874.3783783783783,163.28076172 L -854.1621621621622,157.07653495999992 L -833.9459459459459,151.30294540000006 L -813.7297297297297,144.8553095200001 L -793.5135135135135,137.4214975200001 L -773.2972972972973,130.5522249600001 L -753.081081081081,124.75262652000009 L -732.8648648648649,118.47779996000008 L -712.6486486486486,112.02284347999989 L -692.4324324324324,106.40333843999997 L -672.2162162162163,103.36144487999991 L -652,101.26366303999993 L -631.7837837837837,99.09854496000008 L -611.5675675675676,98.96574163999986 L -591.3513513513514,100.28027571999996 L -571.1351351351351,101.37230008000017 L -550.918918918919,102.18757919999985 L -530.7027027027027,103.82432591999986 L -510.48648648648646,104.88614159999997 L -490.2702702702703,104.71136684000004 L -470.05405405405406,104.99621287999992 L -449.8378378378378,104.25496643999998 L -429.62162162162167,102.35193912000005 L -409.4054054054054,102.03410224000015 L -389.18918918918916,102.06984536000016 L -368.97297297297297,103.03572963999989 L -348.7567567567568,103.25152631999993 L -328.5405405405405,103.86517852000009 L -308.3243243243243,106.11840275999987 L -288.1081081081081,107.96584331999992 L -267.8918918918919,111.01670087999992 L -247.67567567567568,112.35394043999997 L -227.45945945945948,114.30097768000007 L -207.24324324324323,117.19861724000009 L -187.02702702702703,121.05247656000006 L -166.81081081081084,121.83549191999987 L -146.59459459459458,122.52403668000005 L -126.37837837837839,123.54375808000015 L -106.16216216216216,126.66455808000012 L -85.94594594594594,129.42947068000007 L -65.72972972972974,132.76054287999995 L -45.513513513513516,136.62276859999994 L -25.29729729729729,138.96807636000014 L -5.081081081081081,141.20545756000004 L 15.13513513513513,145.02478887999993 L 35.351351351351354,149.21388519999988 L 55.567567567567565,154.13483568000007 L 75.78378378378378,159.55378284000003 L 96,162.87407168000007 L 116.21621621621622,165.73126036 L 136.43243243243245,167.42791979999998 L 156.64864864864865,168.47825492 L 176.86486486486487,168.68564536 L 197.0810810810811,167.26904784000004 L 217.2972972972973,166.65152120000002 L 237.51351351351352,165.57815523999994 L 257.72972972972974,165.71111459999995 L 277.94594594594594,165.16011412000006 L 298.1621621621622,163.11563156000003 L 318.3783783783784,159.56968895999992" fill="none" stroke="#3b82f6" stroke-width="2" /><path d="M -2410.810810810811,480.06956420000006 L -2390.5945945945946,479.39157289 L -2370.3783783783783,478.76795737000003 L -2350.162162162162,477.09921248999996 L -2329.945945945946,474.93959233 L -2309.7297297297296,471.89319851000005 L -2289.5135135135133,468.96438083 L -2269.2972972972975,466.16548138999997 L -2249.0810810810813,463.76488484000004 L -2228.864864864865,462.79025817 L -2208.6486486486488,460.40886367 L -2188.4324324324325,457.76247009 L -2168.2162162162163,455.78632475 L -2148,453.50175556000005 L -2127.7837837837837,450.30790476999994 L -2107.5675675675675,446.64844887999993 L -2087.3513513513512,442.89684804999996 L -2067.135135135135,438.64131604000005 L -2046.9189189189187,434.99373745 L -2026.7027027027025,431.4517796800001 L -2006.4864864864867,427.37751634999995 L -1986.2702702702704,423.82028741 L -1966.0540540540542,420.89487439 L -1945.837837837838,417.9046923199999 L -1925.6216216216217,415.09322584999995 L -1905.4054054054054,411.9548306800001 L -1885.1891891891892,409.54295775 L -1864.972972972973,406.61563323999997 L -1844.7567567567567,403.93119412000004 L -1824.5405405405406,401.59934481000005 L -1804.3243243243244,399.1329765699999 L -1784.1081081081081,396.82557490999994 L -1763.8918918918919,394.44540383 L -1743.6756756756756,391.3552333199999 L -1723.4594594594594,388.290372 L -1703.2432432432433,384.9385655699999 L -1683.027027027027,381.85925976000004 L -1662.8108108108108,378.56142325 L -1642.5945945945946,375.42944315000005 L -1622.3783783783783,372.65319440999997 L -1602.162162162162,369.09849448000006 L -1581.945945945946,365.69662992 L -1561.7297297297298,362.47950012000007 L -1541.5135135135135,359.2119760400001 L -1521.2972972972973,355.06663068000006 L -1501.081081081081,351.46258227 L -1480.8648648648648,347.39849723000003 L -1460.6486486486488,343.86591265000004 L -1440.4324324324325,339.52521517 L -1420.2162162162163,335.59386373000007 L -1400,331.99910219 L -1379.7837837837837,328.1710475699999 L -1359.5675675675675,324.40554092 L -1339.3513513513512,320.36453651999994 L -1319.1351351351352,316.50470867 L -1298.918918918919,313.09524462999997 L -1278.7027027027027,309.20420131000003 L -1258.4864864864865,305.12066273000005 L -1238.2702702702702,301.15619512000006 L -1218.054054054054,297.50513551000006 L -1197.837837837838,294.76787187 L -1177.6216216216217,292.13798201000003 L -1157.4054054054054,289.3314681500001 L -1137.1891891891892,286.47499243999994 L -1116.972972972973,282.85257695999996 L -1096.7567567567567,278.68738547 L -1076.5405405405406,274.56595323999994 L -1056.3243243243244,270.09482873 L -1036.1081081081081,265.43326071999996 L -1015.8918918918919,261.58831145000005 L -995.6756756756756,257.73871584000005 L -975.4594594594594,253.60596323999994 L -955.2432432432433,249.33231067000003 L -935.0270270270271,244.99682807999997 L -914.8108108108108,241.0658352 L -894.5945945945946,237.36147548000005 L -874.3783783783783,234.53901981000004 L -854.1621621621622,231.82059135999998 L -833.9459459459459,229.41802770999993 L -813.7297297297297,227.00331534999992 L -793.5135135135135,224.61443590999997 L -773.2972972972973,222.11926832999998 L -753.081081081081,219.50611708 L -732.8648648648649,216.85068065000007 L -712.6486486486486,214.10077611 L -692.4324324324324,211.42188470999992 L -672.2162162162163,210.04236661 L -652,208.60292084999995 L -631.7837837837837,207.00333489000002 L -611.5675675675676,205.69526568000006 L -591.3513513513514,204.82140848000006 L -571.1351351351351,203.01973993000007 L -550.918918918919,200.98145912999993 L -530.7027027027027,199.18137837000006 L -510.48648648648646,197.44025748999994 L -490.2702702702703,195.35038804000007 L -470.05405405405406,193.29128503 L -449.8378378378378,190.48052820999993 L -429.62162162162167,187.02274156999994 L -409.4054054054054,184.3565392099999 L -389.18918918918916,182.03698634999992 L -368.97297297297297,179.58816929000008 L -348.7567567567568,177.19845072 L -328.5405405405405,174.73963298999996 L -308.3243243243243,172.45626148999995 L -288.1081081081081,170.49990832999998 L -267.8918918918919,168.91639531999994 L -247.67567567567568,166.82368976000004 L -227.45945945945948,165.64009315999996 L -207.24324324324323,164.77241115999996 L -187.02702702702703,164.07426164 L -166.81081081081084,162.62672504000008 L -146.59459459459458,161.42436048000005 L -126.37837837837839,159.94349025 L -106.16216216216216,159.14783731000003 L -85.94594594594594,158.49494105 L -65.72972972972974,157.72763343999998 L -45.513513513513516,156.76227289000002 L -25.29729729729729,155.32994604000007 L -5.081081081081081,153.7814972099999 L 15.13513513513513,152.13589687999993 L 35.351351351351354,150.44285209000003 L 55.567567567567565,149.43811136000014 L 75.78378378378378,148.19131606999994 L 96,147.0957177299999 L 116.21621621621622,146.0257622400001 L 136.43243243243245,144.58147011000014 L 156.64864864864865,142.9354390099999 L 176.86486486486487,141.2845897599999 L 197.0810810810811,139.41425365000006 L 217.2972972972973,137.34628706999993 L 237.51351351351352,135.71569397 L 257.72972972972974,134.2725605200001 L 277.94594594594594,132.64629753 L 298.1621621621622,130.7790307599999 L 318.3783783783784,129.00850131999994" fill="none" stroke="#f59e0b" stroke-width="2" /><path d="M 116.21621621621622,302.5117776800001 L 136.43243243243245,301.53192781999996 L 156.64864864864865,300.43692874 L 176.86486486486487,299.01281806000003 L 197.0810810810811,297.40202129000005 L 217.2972972972973,295.51753368000004 L 237.51351351351352,293.73072545 L 257.72972972972974,291.88498140999997 L 277.94594594594594,290.16347343000007 L 298.1621621621622,288.87341854000005 L 318.3783783783784,287.0143015400001" fill="none" stroke="#10b981" stroke-width="2" />
      </g>
      <g class="legend">
        <g font-size="12" fill="#e5e7eb"><g transform="translate(96, 30)">
        <rect y="-10" width="12" height="12" fill="#3b82f6"></rect>
        <text x="16" y="0">SMA 25</text>
      </g><g transform="translate(226, 30)">
        <rect y="-10" width="12" height="12" fill="#f59e0b"></rect>
        <text x="16" y="0">SMA 75</text>
      </g><g transform="translate(356, 30)">
        <rect y="-10" width="12" height="12" fill="#10b981"></rect>
        <text x="16" y="0">SMA 200</text>
      </g><g transform="translate(486, 30)">
        <rect y="-10" width="12" height="12" fill="#3b82f6"></rect>
        <text x="16" y="0">BB 2</text>
      </g></g>
      </g>
    </svg>
  