 <svg width="860" height="420" viewBox="0 0 860 420" xmlns="http://www.w3.org/2000/svg" style="background-color: #1f2937; color: #e5e7eb; font-family: sans-serif;"><title>BTC/JPY 1day chart</title><defs><clipPath id="plotArea"><rect x="96" y="36" width="752" height="352"/></clipPath></defs><g class="axes"><line x1="96" y1="36" x2="96" y2="388" stroke="#4b5563" stroke-width="1"/><g font-size="12" fill="#e5e7eb"><text x="88" y="388" text-anchor="end" dominant-baseline="middle">14,000,000</text><text x="88" y="317.6" text-anchor="end" dominant-baseline="middle">15,000,000</text><text x="88" y="247.2" text-anchor="end" dominant-baseline="middle">16,000,000</text><text x="88" y="176.8" text-anchor="end" dominant-baseline="middle">17,000,000</text><text x="88" y="106.39999999999998" text-anchor="end" dominant-baseline="middle">18,000,000</text><text x="88" y="36" text-anchor="end" dominant-baseline="middle">19,000,000</text></g><line x1="96" y1="388" x2="848" y2="388" stroke="#4b5563" stroke-width="1"/><g font-size="12" fill="#e5e7eb"><text x="100.17777777777778" y="404" text-anchor="middle" fill="#e5e7eb" font-size="10">7/23</text><text x="250.57777777777778" y="404" text-anchor="middle" fill="#e5e7eb" font-size="10">8/10</text><text x="400.97777777777776" y="404" text-anchor="middle" fill="#e5e7eb" font-size="10">8/28</text><text x="551.3777777777777" y="404" text-anchor="middle" fill="#e5e7eb" font-size="10">9/15</text><text x="701.7777777777778" y="404" text-anchor="middle" fill="#e5e7eb" font-size="10">10/3</text></g></g><g class="plot-area" clip-path="url(#plotArea)"><line x1="100.17777777777778" y1="133.6143872" x2="100.17777777777778" y2="161.3053824" stroke="#9ca3af" stroke-width="1"/><line x1="108.53333333333333" y1="138.2008768" x2="108.53333333333333" y2="162.016" stroke="#9ca3af" stroke-width="1"/><line x1="116.88888888888889" y1="146.5280704" x2="116.88888888888889" y2="179.166144" stroke="#9ca3af" stroke-width="1"/><line x1="125.24444444444444" y1="144.2074752" x2="125.24444444444444" y2="155.2534464" stroke="#9ca3af" stroke-width="1"/><line x1="133.6" y1="129.24416639999998" x2="133.6" y2="147.6108928" stroke="#9ca3af" stroke-width="1"/><line x1="141.95555555555555" y1="127.49866880000002" x2="141.95555555555555" y2="142.1631296" stroke="#9ca3af" stroke-width="1"/><line x1="150.3111111111111" y1="123.77831040000001" x2="150.3111111111111" y2="146.5279296" stroke="#9ca3af" stroke-width="1"/><line x1="158.66666666666666" y1="127.58159999999998" x2="158.66666666666666" y2="154.317408" stroke="#9ca3af" stroke-width="1"/><line x1="167.02222222222224" y1="114.2231296" x2="167.02222222222224" y2="145.12" stroke="#9ca3af" stroke-width="1"/><line x1="175.3777777777778" y1="139.6132416" x2="175.3777777777778" y2="201.44" stroke="#9ca3af" stroke-width="1"/><line x1="183.73333333333335" y1="186.2132544" x2="183.73333333333335" y2="209.184" stroke="#9ca3af" stroke-width="1"/><line x1="192.0888888888889" y1="180.3271808" x2="192.0888888888889" y2="209.4656" stroke="#9ca3af" stroke-width="1"/><line x1="200.44444444444446" y1="173.2909824" x2="200.44444444444446" y2="188.768" stroke="#9ca3af" stroke-width="1"/><line x1="208.8" y1="175.5766592" x2="208.8" y2="204.96" stroke="#9ca3af" stroke-width="1"/><line x1="217.15555555555557" y1="173.5616" x2="217.15555555555557" y2="194.6394304" stroke="#9ca3af" stroke-width="1"/><line x1="225.51111111111112" y1="154.6115392" x2="225.51111111111112" y2="185.207168" stroke="#9ca3af" stroke-width="1"/><line x1="233.86666666666667" y1="152.8640704" x2="233.86666666666667" y2="166.7660992" stroke="#9ca3af" stroke-width="1"/><line x1="242.22222222222223" y1="149.101472" x2="242.22222222222223" y2="163.7979648" stroke="#9ca3af" stroke-width="1"/><line x1="250.57777777777778" y1="133.6364224" x2="250.57777777777778" y2="162.72" stroke="#9ca3af" stroke-width="1"/><line x1="258.93333333333334" y1="107.10407040000001" x2="258.93333333333334" y2="141.5270656" stroke="#9ca3af" stroke-width="1"/><line x1="267.2888888888889" y1="121.88799999999998" x2="267.2888888888889" y2="136.2155264" stroke="#9ca3af" stroke-width="1"/><line x1="275.64444444444445" y1="93.6576" x2="275.64444444444445" y2="132.4479296" stroke="#9ca3af" stroke-width="1"/><line x1="284" y1="89.50400000000002" x2="284" y2="150.752" stroke="#9ca3af" stroke-width="1"/><line x1="292.35555555555555" y1="134.37696" x2="292.35555555555555" y2="162.1943936" stroke="#9ca3af" stroke-width="1"/><line x1="300.7111111111111" y1="147.702624" x2="300.7111111111111" y2="160.3162624" stroke="#9ca3af" stroke-width="1"/><line x1="309.06666666666666" y1="142.3458176" x2="309.06666666666666" y2="158.6917824" stroke="#9ca3af" stroke-width="1"/><line x1="317.4222222222222" y1="150.5183424" x2="317.4222222222222" y2="180.8111808" stroke="#9ca3af" stroke-width="1"/><line x1="325.77777777777777" y1="149.344" x2="325.77777777777777" y2="200.1024" stroke="#9ca3af" stroke-width="1"/><line x1="334.1333333333333" y1="182.3768064" x2="334.1333333333333" y2="206.7397824" stroke="#9ca3af" stroke-width="1"/><line x1="342.4888888888889" y1="179.6503552" x2="342.4888888888889" y2="201.44" stroke="#9ca3af" stroke-width="1"/><line x1="350.84444444444443" y1="159.6224704" x2="350.84444444444443" y2="202.9283968" stroke="#9ca3af" stroke-width="1"/><line x1="359.2" y1="164.832" x2="359.2" y2="188.768" stroke="#9ca3af" stroke-width="1"/><line x1="367.55555555555554" y1="177.0965952" x2="367.55555555555554" y2="219.04" stroke="#9ca3af" stroke-width="1"/><line x1="375.9111111111111" y1="193.0702848" x2="375.9111111111111" y2="234.3553088" stroke="#9ca3af" stroke-width="1"/><line x1="384.26666666666665" y1="206.4383296" x2="384.26666666666665" y2="245.088" stroke="#9ca3af" stroke-width="1"/><line x1="392.6222222222222" y1="199.1846656" x2="392.6222222222222" y2="222.1368256" stroke="#9ca3af" stroke-width="1"/><line x1="400.97777777777776" y1="195.6003904" x2="400.97777777777776" y2="220.448" stroke="#9ca3af" stroke-width="1"/><line x1="409.3333333333333" y1="205.1223424" x2="409.3333333333333" y2="257.2848704" stroke="#9ca3af" stroke-width="1"/><line x1="417.68888888888887" y1="243.4252928" x2="417.68888888888887" y2="258.0791232" stroke="#9ca3af" stroke-width="1"/><line x1="426.0444444444444" y1="237.6703744" x2="426.0444444444444" y2="252.4598656" stroke="#9ca3af" stroke-width="1"/><line x1="434.4" y1="233.6339904" x2="434.4" y2="260.7406656" stroke="#9ca3af" stroke-width="1"/><line x1="442.75555555555553" y1="209.4716544" x2="442.75555555555553" y2="242.3268416" stroke="#9ca3af" stroke-width="1"/><line x1="451.1111111111111" y1="200.0320704" x2="451.1111111111111" y2="217.3347008" stroke="#9ca3af" stroke-width="1"/><line x1="459.46666666666664" y1="194.312" x2="459.46666666666664" y2="226.3615296" stroke="#9ca3af" stroke-width="1"/><line x1="467.8222222222222" y1="192.288" x2="467.8222222222222" y2="229.1432448" stroke="#9ca3af" stroke-width="1"/><line x1="476.1777777777778" y1="216.928" x2="476.1777777777778" y2="228.896" stroke="#9ca3af" stroke-width="1"/><line x1="484.53333333333336" y1="207.0633408" x2="484.53333333333336" y2="227.6438656" stroke="#9ca3af" stroke-width="1"/><line x1="492.8888888888889" y1="199.71344" x2="492.8888888888889" y2="218.0168768" stroke="#9ca3af" stroke-width="1"/><line x1="501.24444444444447" y1="199.6989376" x2="501.24444444444447" y2="222.8322368" stroke="#9ca3af" stroke-width="1"/><line x1="509.6" y1="188.064" x2="509.6" y2="220.541984" stroke="#9ca3af" stroke-width="1"/><line x1="517.9555555555555" y1="174.688" x2="517.9555555555555" y2="193.7038848" stroke="#9ca3af" stroke-width="1"/><line x1="526.3111111111111" y1="160.5909632" x2="526.3111111111111" y2="176.8" stroke="#9ca3af" stroke-width="1"/><line x1="534.6666666666667" y1="164.33216" x2="534.6666666666667" y2="175.9941312" stroke="#9ca3af" stroke-width="1"/><line x1="543.0222222222222" y1="165.7941568" x2="543.0222222222222" y2="174.50496" stroke="#9ca3af" stroke-width="1"/><line x1="551.3777777777777" y1="160.7345088" x2="551.3777777777777" y2="184.894592" stroke="#9ca3af" stroke-width="1"/><line x1="559.7333333333333" y1="166.2497152" x2="559.7333333333333" y2="183.84" stroke="#9ca3af" stroke-width="1"/><line x1="568.088888888889" y1="160.2193216" x2="568.088888888889" y2="189.824" stroke="#9ca3af" stroke-width="1"/><line x1="576.4444444444445" y1="143.7747968" x2="576.4444444444445" y2="170.278848" stroke="#9ca3af" stroke-width="1"/><line x1="584.8" y1="147.5449984" x2="584.8" y2="170.3232" stroke="#9ca3af" stroke-width="1"/><line x1="593.1555555555556" y1="161.3696576" x2="593.1555555555556" y2="166.9712448" stroke="#9ca3af" stroke-width="1"/><line x1="601.5111111111112" y1="163.44512" x2="601.5111111111112" y2="171.7680192" stroke="#9ca3af" stroke-width="1"/><line x1="609.8666666666667" y1="168.45232" x2="609.8666666666667" y2="204.9557056" stroke="#9ca3af" stroke-width="1"/><line x1="618.2222222222222" y1="192.4226048" x2="618.2222222222222" y2="211.57936" stroke="#9ca3af" stroke-width="1"/><line x1="626.5777777777778" y1="177.8108032" x2="626.5777777777778" y2="212" stroke="#9ca3af" stroke-width="1"/><line x1="634.9333333333333" y1="183.9517248" x2="634.9333333333333" y2="224.51712" stroke="#9ca3af" stroke-width="1"/><line x1="643.2888888888889" y1="209.487776" x2="643.2888888888889" y2="225.6809024" stroke="#9ca3af" stroke-width="1"/><line x1="651.6444444444444" y1="215.5271104" x2="651.6444444444444" y2="221.9987008" stroke="#9ca3af" stroke-width="1"/><line x1="660" y1="190.507584" x2="660" y2="220.8940544" stroke="#9ca3af" stroke-width="1"/><line x1="668.3555555555556" y1="174.0586944" x2="668.3555555555556" y2="201.5654528" stroke="#9ca3af" stroke-width="1"/><line x1="676.7111111111111" y1="170.1812736" x2="676.7111111111111" y2="197.1430656" stroke="#9ca3af" stroke-width="1"/><line x1="685.0666666666667" y1="145.12" x2="685.0666666666667" y2="185.952" stroke="#9ca3af" stroke-width="1"/><line x1="693.4222222222222" y1="120.48000000000002" x2="693.4222222222222" y2="146.9846848" stroke="#9ca3af" stroke-width="1"/><line x1="701.7777777777778" y1="88.80000000000001" x2="701.7777777777778" y2="132.4244864" stroke="#9ca3af" stroke-width="1"/><line x1="710.1333333333333" y1="97.42280319999998" x2="710.1333333333333" y2="109.84706560000001" stroke="#9ca3af" stroke-width="1"/><line x1="718.4888888888889" y1="67.34271360000002" x2="718.4888888888889" y2="102.47358079999998" stroke="#9ca3af" stroke-width="1"/><line x1="726.8444444444444" y1="40.46751360000002" x2="726.8444444444444" y2="76.07287680000002" stroke="#9ca3af" stroke-width="1"/><line x1="735.2" y1="42.25623680000001" x2="735.2" y2="84.5170048" stroke="#9ca3af" stroke-width="1"/><line x1="743.5555555555555" y1="39.51999999999998" x2="743.5555555555555" y2="71.8956928" stroke="#9ca3af" stroke-width="1"/><line x1="751.9111111111112" y1="40.74559360000001" x2="751.9111111111112" y2="79.9005952" stroke="#9ca3af" stroke-width="1"/><line x1="760.2666666666667" y1="54.72647039999998" x2="760.2666666666667" y2="202.2293248" stroke="#9ca3af" stroke-width="1"/><line x1="768.6222222222223" y1="149.0478272" x2="768.6222222222223" y2="192.2097856" stroke="#9ca3af" stroke-width="1"/><line x1="776.9777777777778" y1="129.29415039999998" x2="776.9777777777778" y2="196.7541056" stroke="#9ca3af" stroke-width="1"/><line x1="785.3333333333334" y1="126.19605760000002" x2="785.3333333333334" y2="153.3332864" stroke="#9ca3af" stroke-width="1"/><line x1="793.6888888888889" y1="120.48000000000002" x2="793.6888888888889" y2="193.696" stroke="#9ca3af" stroke-width="1"/><line x1="802.0444444444445" y1="160.6081408" x2="802.0444444444445" y2="196.4712384" stroke="#9ca3af" stroke-width="1"/><line x1="810.4" y1="178.0948672" x2="810.4" y2="233.1198592" stroke="#9ca3af" stroke-width="1"/><line x1="818.7555555555556" y1="215.3842688" x2="818.7555555555556" y2="278.7144192" stroke="#9ca3af" stroke-width="1"/><line x1="827.1111111111111" y1="229.3276928" x2="827.1111111111111" y2="242.6305472" stroke="#9ca3af" stroke-width="1"/><line x1="835.4666666666667" y1="208.48" x2="835.4666666666667" y2="245.2884288" stroke="#9ca3af" stroke-width="1"/><line x1="843.8222222222222" y1="185.5777536" x2="843.8222222222222" y2="229.6" stroke="#9ca3af" stroke-width="1"/><rect x="97.67111111111112" y="133.6143872" width="5.013333333333334" height="14.321612799999997" fill="#ef4444"/><rect x="106.02666666666667" y="147.896576" width="5.013333333333334" height="1" fill="#ef4444"/><rect x="114.38222222222223" y="148.570304" width="5.013333333333334" height="1.7535232000000178" fill="#ef4444"/><rect x="122.73777777777778" y="146.4300736" width="5.013333333333334" height="3.8936832000000265" fill="#16a34a"/><rect x="131.09333333333333" y="132.1088128" width="5.013333333333334" height="14.321260799999976" fill="#16a34a"/><rect x="139.4488888888889" y="131.86762240000002" width="5.013333333333334" height="5.101324799999986" fill="#ef4444"/><rect x="147.80444444444444" y="136.8035776" width="5.013333333333334" height="1.2987392" fill="#ef4444"/><rect x="156.16" y="133.9932096" width="5.013333333333334" height="4.109036800000013" fill="#16a34a"/><rect x="164.51555555555558" y="133.9931392" width="5.013333333333334" height="8.11754239999999" fill="#ef4444"/><rect x="172.87111111111113" y="142.110752" width="5.013333333333334" height="53.42529280000002" fill="#ef4444"/><rect x="181.2266666666667" y="195.5360448" width="5.013333333333334" height="8.588518399999998" fill="#ef4444"/><rect x="189.58222222222224" y="185.8010624" width="5.013333333333334" height="18.323500800000005" fill="#16a34a"/><rect x="197.9377777777778" y="181.024" width="5.013333333333334" height="4.7770624000000055" fill="#16a34a"/><rect x="206.29333333333335" y="181.1243904" width="5.013333333333334" height="5.070982399999991" fill="#ef4444"/><rect x="214.6488888888889" y="180.459744" width="5.013333333333334" height="5.735628800000001" fill="#16a34a"/><rect x="223.00444444444446" y="158.5235968" width="5.013333333333334" height="21.9371328" fill="#16a34a"/><rect x="231.36" y="158.5235968" width="5.013333333333334" height="2.1837376000000006" fill="#ef4444"/><rect x="239.71555555555557" y="160.7073344" width="5.013333333333334" height="1.0364991999999802" fill="#ef4444"/><rect x="248.07111111111112" y="133.856" width="5.013333333333334" height="27.887833599999993" fill="#16a34a"/><rect x="256.4266666666667" y="133.8559296" width="5.013333333333334" height="1.05607040000001" fill="#ef4444"/><rect x="264.78222222222223" y="123.29592960000002" width="5.013333333333334" height="11.615999999999985" fill="#16a34a"/><rect x="273.1377777777778" y="96.93274880000001" width="5.013333333333334" height="26.36318080000001" fill="#16a34a"/><rect x="281.49333333333334" y="96.68128000000002" width="5.013333333333334" height="42.800595199999975" fill="#ef4444"/><rect x="289.8488888888889" y="139.4818752" width="5.013333333333334" height="14.337734400000016" fill="#ef4444"/><rect x="298.20444444444445" y="153.8196096" width="5.013333333333334" height="1" fill="#ef4444"/><rect x="306.56" y="152.5119296" width="5.013333333333334" height="1.5528831999999966" fill="#16a34a"/><rect x="314.91555555555556" y="152.5119296" width="5.013333333333334" height="9.070758399999988" fill="#ef4444"/><rect x="323.2711111111111" y="161.5827584" width="5.013333333333334" height="36.520281600000004" fill="#ef4444"/><rect x="331.62666666666667" y="185.6047168" width="5.013333333333334" height="12.498323199999987" fill="#16a34a"/><rect x="339.9822222222222" y="185.6047872" width="5.013333333333334" height="11.196908799999989" fill="#ef4444"/><rect x="348.3377777777778" y="165.3248704" width="5.013333333333334" height="31.476825599999984" fill="#16a34a"/><rect x="356.6933333333333" y="165.3248" width="5.013333333333334" height="14.064089599999988" fill="#ef4444"/><rect x="365.0488888888889" y="179.3888896" width="5.013333333333334" height="16.0482432" fill="#ef4444"/><rect x="373.40444444444444" y="195.4371328" width="5.013333333333334" height="28.393939200000005" fill="#ef4444"/><rect x="381.76" y="212.139744" width="5.013333333333334" height="11.6912576" fill="#16a34a"/><rect x="390.11555555555555" y="212.139744" width="5.013333333333334" height="6.585286400000001" fill="#ef4444"/><rect x="398.4711111111111" y="207.4240704" width="5.013333333333334" height="11.300960000000003" fill="#16a34a"/><rect x="406.82666666666665" y="207.4240704" width="5.013333333333334" height="39.775929599999984" fill="#ef4444"/><rect x="415.1822222222222" y="244.8248448" width="5.013333333333334" height="2.375084799999996" fill="#16a34a"/><rect x="423.53777777777776" y="244.8249152" width="5.013333333333334" height="6.269612800000004" fill="#ef4444"/><rect x="431.8933333333333" y="240.4213952" width="5.013333333333334" height="10.67313279999999" fill="#16a34a"/><rect x="440.24888888888887" y="210.4391616" width="5.013333333333334" height="29.982304" fill="#16a34a"/><rect x="448.6044444444444" y="209.1870976" width="5.013333333333334" height="1" fill="#16a34a"/><rect x="456.96" y="209.1870272" width="5.013333333333334" height="5.657203199999998" fill="#ef4444"/><rect x="465.31555555555553" y="214.5342592" width="5.013333333333334" height="9.206771199999991" fill="#ef4444"/><rect x="473.67111111111114" y="223.7410304" width="5.013333333333334" height="3.9027648" fill="#ef4444"/><rect x="482.0266666666667" y="211.840544" width="5.013333333333334" height="15.803251200000005" fill="#16a34a"/><rect x="490.38222222222225" y="209.888" width="5.013333333333334" height="2.333055999999999" fill="#16a34a"/><rect x="498.7377777777778" y="209.888" width="5.013333333333334" height="4.517779200000007" fill="#ef4444"/><rect x="507.09333333333336" y="190.0421696" width="5.013333333333334" height="24.363609600000018" fill="#16a34a"/><rect x="515.4488888888889" y="174.784096" width="5.013333333333334" height="15.258073599999989" fill="#16a34a"/><rect x="523.8044444444445" y="165.9803648" width="5.013333333333334" height="8.803731200000016" fill="#16a34a"/><rect x="532.1600000000001" y="165.9803648" width="5.013333333333334" height="2.083980800000006" fill="#ef4444"/><rect x="540.5155555555556" y="168.0642752" width="5.013333333333334" height="4.445900800000004" fill="#ef4444"/><rect x="548.8711111111111" y="172.5102464" width="5.013333333333334" height="1.5309183999999902" fill="#ef4444"/><rect x="557.2266666666667" y="168.1442496" width="5.013333333333334" height="5.896915199999995" fill="#16a34a"/><rect x="565.5822222222223" y="167.705024" width="5.013333333333334" height="1" fill="#16a34a"/><rect x="573.9377777777778" y="152.0842496" width="5.013333333333334" height="15.620774400000016" fill="#16a34a"/><rect x="582.2933333333333" y="152.08432" width="5.013333333333334" height="13.867391999999995" fill="#ef4444"/><rect x="590.6488888888889" y="165.3248" width="5.013333333333334" height="1" fill="#16a34a"/><rect x="599.0044444444445" y="165.3248" width="5.013333333333334" height="5.139270399999987" fill="#ef4444"/><rect x="607.36" y="170.464" width="5.013333333333334" height="27.109209600000014" fill="#ef4444"/><rect x="615.7155555555555" y="197.5732096" width="5.013333333333334" height="8.794719999999984" fill="#ef4444"/><rect x="624.0711111111111" y="185.419424" width="5.013333333333334" height="20.948505600000004" fill="#16a34a"/><rect x="632.4266666666666" y="185.419424" width="5.013333333333334" height="35.8619712" fill="#ef4444"/><rect x="640.7822222222222" y="215.7074048" width="5.013333333333334" height="5.573919999999987" fill="#16a34a"/><rect x="649.1377777777777" y="215.7074752" width="5.013333333333334" height="1.7553536000000065" fill="#ef4444"/><rect x="657.4933333333333" y="193.0230464" width="5.013333333333334" height="24.439782400000013" fill="#16a34a"/><rect x="665.848888888889" y="175.392" width="5.013333333333334" height="17.631046400000002" fill="#16a34a"/><rect x="674.2044444444444" y="175.392" width="5.013333333333334" height="7.404320000000013" fill="#ef4444"/><rect x="682.5600000000001" y="145.3358464" width="5.013333333333334" height="37.535308799999996" fill="#16a34a"/><rect x="690.9155555555556" y="125.454816" width="5.013333333333334" height="19.881030400000014" fill="#16a34a"/><rect x="699.2711111111112" y="106.53608320000001" width="5.013333333333334" height="18.918662400000017" fill="#16a34a"/><rect x="707.6266666666667" y="101.3311296" width="5.013333333333334" height="5.20495360000001" fill="#16a34a"/><rect x="715.9822222222223" y="72.45297920000002" width="5.013333333333334" height="28.87815039999998" fill="#16a34a"/><rect x="724.3377777777778" y="53.55874560000001" width="5.013333333333334" height="18.971673599999974" fill="#16a34a"/><rect x="732.6933333333334" y="53.55874560000001" width="5.013333333333334" height="18.336947199999997" fill="#ef4444"/><rect x="741.0488888888889" y="48.108729600000004" width="5.013333333333334" height="23.786892799999976" fill="#16a34a"/><rect x="749.4044444444445" y="48.108729600000004" width="5.013333333333334" height="11.587628800000005" fill="#ef4444"/><rect x="757.76" y="59.69635840000001" width="5.013333333333334" height="91.01178239999999" fill="#ef4444"/><rect x="766.1155555555556" y="150.7082112" width="5.013333333333334" height="29.742099200000013" fill="#ef4444"/><rect x="774.4711111111111" y="136.9224128" width="5.013333333333334" height="43.52789760000002" fill="#16a34a"/><rect x="782.8266666666667" y="136.9224128" width="5.013333333333334" height="1" fill="#ef4444"/><rect x="791.1822222222222" y="137.153184" width="5.013333333333334" height="25.632921600000003" fill="#ef4444"/><rect x="799.5377777777778" y="163.0327872" width="5.013333333333334" height="29.375526400000012" fill="#ef4444"/><rect x="807.8933333333333" y="192.4083136" width="5.013333333333334" height="34.401100799999995" fill="#ef4444"/><rect x="816.2488888888889" y="226.7084608" width="5.013333333333334" height="14.113369599999999" fill="#ef4444"/><rect x="824.6044444444444" y="233.1452032" width="5.013333333333334" height="7.676627200000013" fill="#16a34a"/><rect x="832.96" y="216.3230528" width="5.013333333333334" height="16.822150399999998" fill="#16a34a"/><rect x="841.3155555555555" y="190.9996096" width="5.013333333333334" height="25.323443199999986" fill="#16a34a"/><path d="M -1354,264 L -1345,265 L -1337,264 L -1329,264 L -1320,261 L -1312,260 L -1304,261 L -1295,261 L -1287,262 L -1278,264 L -1270,267 L -1262,269 L -1253,273 L -1245,277 L -1237,280 L -1228,283 L -1220,287 L -1212,292 L -1203,297 L -1195,302 L -1187,307 L -1178,310 L -1170,314 L -1162,318 L -1153,323 L -1145,330 L -1136,338 L -1128,347 L -1120,354 L -1111,362 L -1103,368 L -1095,370 L -1086,375 L -1078,379 L -1070,383 L -1061,386 L -1053,392 L -1045,397 L -1036,406 L -1028,415 L -1019,422 L -1011,429 L -1003,437 L -994,442 L -986,448 L -978,455 L -969,461 L -961,466 L -953,471 L -944,476 L -936,479 L -928,481 L -919,480 L -911,479 L -902,478 L -894,477 L -886,480 L -877,481 L -869,483 L -861,486 L -852,489 L -844,489 L -836,491 L -827,490 L -819,488 L -811,488 L -802,491 L -794,492 L -786,496 L -777,497 L -769,499 L -760,501 L -752,501 L -744,504 L -735,505 L -727,507 L -719,508 L -710,510 L -702,514 L -694,516 L -685,519 L -677,522 L -669,520 L -660,517 L -652,514 L -643,510 L -635,508 L -627,504 L -618,500 L -610,497 L -602,494 L -593,486 L -585,479 L -577,472 L -568,467 L -560,461 L -552,456 L -543,451 L -535,442 L -526,435 L -518,425 L -510,416 L -501,407 L -493,398 L -485,389 L -476,381 L -468,373 L -460,368 L -451,362 L -443,357 L -435,352 L -426,346 L -418,339 L -410,334 L -401,328 L -393,322 L -384,318 L -376,313 L -368,308 L -359,304 L -351,300 L -343,297 L -334,293 L -326,293 L -318,292 L -309,293 L -301,294 L -293,295 L -284,295 L -276,295 L -267,293 L -259,291 L -251,289 L -242,290 L -234,290 L -226,290 L -217,292 L -209,293 L -201,294 L -192,294 L -184,295 L -176,297 L -167,299 L -159,301 L -150,301 L -142,300 L -134,299 L -125,298 L -117,297 L -109,296 L -100,294 L -92,292 L -84,291 L -75,291 L -67,289 L -59,290 L -50,291 L -42,290 L -34,288 L -25,287 L -17,284 L -8,279 L 0,274 L 8,268 L 17,262 L 25,255 L 33,248 L 42,241 L 50,233 L 58,227 L 67,221 L 75,215 L 83,210 L 92,204 L 100,199 L 109,194 L 117,189 L 125,182 L 134,176 L 142,172 L 150,166 L 159,161 L 167,156 L 175,153 L 184,152 L 192,150 L 200,150 L 209,151 L 217,152 L 226,152 L 234,154 L 242,155 L 251,155 L 259,155 L 267,154 L 276,153 L 284,152 L 292,152 L 301,153 L 309,153 L 317,154 L 326,156 L 334,157 L 342,160 L 351,161 L 359,163 L 368,165 L 376,168 L 384,169 L 393,170 L 401,170 L 409,173 L 418,175 L 426,178 L 434,182 L 443,184 L 451,185 L 459,189 L 468,192 L 476,196 L 485,201 L 493,204 L 501,206 L 510,208 L 518,209 L 526,209 L 535,208 L 543,207 L 551,206 L 560,206 L 568,206 L 576,204 L 585,202 L 593,200 L 602,198 L 610,198 L 618,196 L 627,194 L 635,192 L 643,191 L 652,192 L 660,191 L 668,189 L 677,188 L 685,184 L 693,181 L 702,177 L 710,172 L 718,168 L 727,163 L 735,159 L 744,154 L 752,150 L 760,149 L 769,149 L 777,148 L 785,147 L 794,147 L 802,148 L 810,151 L 819,152 L 827,153 L 835,155 L 844,153" fill="none" stroke="#3b82f6" stroke-width="2" /><path d="M -936,358 L -928,361 L -919,364 L -911,365 L -902,367 L -894,369 L -886,370 L -877,372 L -869,375 L -861,378 L -852,381 L -844,383 L -836,387 L -827,391 L -819,394 L -811,398 L -802,403 L -794,407 L -786,412 L -777,416 L -769,420 L -760,424 L -752,427 L -744,431 L -735,435 L -727,439 L -719,442 L -710,446 L -702,449 L -694,452 L -685,455 L -677,457 L -669,459 L -660,460 L -652,461 L -643,462 L -635,463 L -627,464 L -618,465 L -610,467 L -602,468 L -593,469 L -585,469 L -577,470 L -568,471 L -560,472 L -552,472 L -543,473 L -535,472 L -526,472 L -518,470 L -510,469 L -501,466 L -493,463 L -485,461 L -476,459 L -468,458 L -460,456 L -451,454 L -443,452 L -435,450 L -426,448 L -418,445 L -410,441 L -401,438 L -393,435 L -384,432 L -376,428 L -368,425 L -359,423 L -351,420 L -343,418 L -334,415 L -326,413 L -318,411 L -309,408 L -301,406 L -293,404 L -284,402 L -276,400 L -267,398 L -259,395 L -251,392 L -242,390 L -234,387 L -226,384 L -217,382 L -209,379 L -201,376 L -192,373 L -184,370 L -176,367 L -167,364 L -159,360 L -150,357 L -142,354 L -134,350 L -125,347 L -117,344 L -109,341 L -100,337 L -92,334 L -84,331 L -75,328 L -67,324 L -59,321 L -50,318 L -42,316 L -34,313 L -25,311 L -17,309 L -8,306 L 0,302 L 8,299 L 17,295 L 25,291 L 33,288 L 42,284 L 50,281 L 58,277 L 67,273 L 75,270 L 83,267 L 92,265 L 100,262 L 109,260 L 117,258 L 125,256 L 134,254 L 142,252 L 150,250 L 159,247 L 167,245 L 175,244 L 184,243 L 192,241 L 200,240 L 209,239 L 217,238 L 226,236 L 234,235 L 242,233 L 251,231 L 259,230 L 267,227 L 276,224 L 284,222 L 292,220 L 301,218 L 309,216 L 317,214 L 326,212 L 334,210 L 342,209 L 351,207 L 359,206 L 368,205 L 376,205 L 384,204 L 393,203 L 401,201 L 409,201 L 418,200 L 426,199 L 434,199 L 443,197 L 451,196 L 459,195 L 468,193 L 476,192 L 485,191 L 493,190 L 501,190 L 510,188 L 518,187 L 526,186 L 535,184 L 543,182 L 551,181 L 560,180 L 568,178 L 576,177 L 585,175 L 593,174 L 602,173 L 610,173 L 618,173 L 627,173 L 635,174 L 643,175 L 652,176 L 660,177 L 668,178 L 677,178 L 685,178 L 693,178 L 702,178 L 710,177 L 718,176 L 727,175 L 735,174 L 744,172 L 752,171 L 760,172 L 769,172 L 777,172 L 785,172 L 794,172 L 802,172 L 810,173 L 819,173 L 827,174 L 835,175 L 844,175" fill="none" stroke="#f59e0b" stroke-width="2" /><path d="M 109,348 L 117,348 L 125,347 L 134,346 L 142,345 L 150,344 L 159,343 L 167,343 L 175,342 L 184,341 L 192,341 L 200,340 L 209,340 L 217,340 L 226,340 L 234,339 L 242,339 L 251,338 L 259,338 L 267,337 L 276,337 L 284,336 L 292,336 L 301,335 L 309,335 L 317,334 L 326,334 L 334,334 L 342,333 L 351,333 L 359,332 L 368,331 L 376,331 L 384,330 L 393,330 L 401,329 L 409,329 L 418,328 L 426,328 L 434,327 L 443,327 L 451,326 L 459,326 L 468,325 L 476,324 L 485,324 L 493,323 L 501,322 L 510,321 L 518,321 L 526,319 L 535,318 L 543,316 L 551,315 L 560,313 L 568,312 L 576,311 L 585,309 L 593,308 L 602,307 L 610,305 L 618,304 L 627,303 L 635,301 L 643,299 L 652,298 L 660,296 L 668,295 L 677,293 L 685,291 L 693,289 L 702,288 L 710,286 L 718,284 L 727,281 L 735,279 L 744,277 L 752,275 L 760,274 L 769,272 L 777,271 L 785,269 L 794,268 L 802,266 L 810,265 L 819,263 L 827,262 L 835,261 L 844,259" fill="none" stroke="#10b981" stroke-width="2" /></g><g class="legend"><g font-size="12" fill="#e5e7eb"><g transform="translate(96, 18)"><rect y="-10" width="12" height="12" fill="#3b82f6"></rect><text x="16" y="0">SMA 25</text></g><g transform="translate(226, 18)"><rect y="-10" width="12" height="12" fill="#f59e0b"></rect><text x="16" y="0">SMA 75</text></g><g transform="translate(356, 18)"><rect y="-10" width="12" height="12" fill="#10b981"></rect><text x="16" y="0">SMA 200</text></g></g></g></svg> 