
    <svg width="860" height="420" viewBox="0 0 860 420" xmlns="http://www.w3.org/2000/svg" style="background-color: #1f2937; color: #e5e7eb; font-family: sans-serif;">
      <title>BTC/JPY 1day chart</title>
      <defs>
        <clipPath id="plotArea">
          <rect x="96" y="48" width="748" height="332"/>
        </clipPath>
      </defs>
      <g class="axes">
        
    <line x1="96" y1="48" x2="96" y2="380" stroke="#4b5563" stroke-width="1"/>
    <g font-size="12" fill="#e5e7eb">
      <text x="88" y="380" text-anchor="end" dominant-baseline="middle">14,000,000</text><text x="88" y="313.6" text-anchor="end" dominant-baseline="middle">15,000,000</text><text x="88" y="247.2" text-anchor="end" dominant-baseline="middle">16,000,000</text><text x="88" y="180.8" text-anchor="end" dominant-baseline="middle">17,000,000</text><text x="88" y="114.39999999999998" text-anchor="end" dominant-baseline="middle">18,000,000</text><text x="88" y="48" text-anchor="end" dominant-baseline="middle">19,000,000</text>
    </g>
  
        
    <line x1="96" y1="380" x2="844" y2="380" stroke="#4b5563" stroke-width="1"/>
    <g font-size="12" fill="#e5e7eb">
      <text x="96" y="396" text-anchor="middle" fill="#e5e7eb" font-size="10">6/22</text><text x="213.0782608695652" y="396" text-anchor="middle" fill="#e5e7eb" font-size="10">7/10</text><text x="330.1565217391304" y="396" text-anchor="middle" fill="#e5e7eb" font-size="10">7/28</text><text x="447.23478260869564" y="396" text-anchor="middle" fill="#e5e7eb" font-size="10">8/15</text><text x="564.3130434782609" y="396" text-anchor="middle" fill="#e5e7eb" font-size="10">9/2</text>
    </g>
  
      </g>
      <g class="plot-area" clip-path="url(#plotArea)">
        
        
        <path d="M -899.1652173913044,221.57069294400006 L -892.6608695652174,210.999555312 L -886.1565217391304,204.82364416799993 L -879.6521739130435,199.26798472000004 L -873.1478260869566,192.99584072000005 L -866.6434782608695,187.56583530399996 L -860.1391304347826,188.2233367359999 L -853.6347826086957,186.9616112400001 L -847.1304347826087,186.7856439359999 L -840.6260869565217,188.5999183599999 L -834.1217391304348,188.7231056319999 L -827.6173913043478,192.04759493599988 L -821.1130434782609,196.89745890399996 L -814.6086956521739,201.35896919199996 L -808.104347826087,204.29659815199997 L -801.6,199.81033992000005 L -795.0956521739131,192.45507712799997 L -788.591304347826,187.9903464400001 L -782.0869565217391,187.27295021600008 L -775.5826086956522,184.69712887999995 L -769.0782608695653,183.9560046160001 L -762.5739130434782,190.61271351199989 L -756.0695652173913,194.87102784800004 L -749.5652173913044,201.49316956799993 L -743.0608695652174,210.18267860800003 L -736.5565217391304,220.25185946399998 L -730.0521739130435,227.02760696 L -723.5478260869565,232.27489684 L -717.0434782608696,237.38304552000005 L -710.5391304347826,248.709499088 L -704.0347826086957,263.51974020800003 L -697.5304347826087,276.97764904800005 L -691.0260869565218,286.08155252000006 L -684.5217391304348,289.409128096 L -678.0173913043478,307.249737064 L -671.5130434782609,301.91060403200004 L -665.008695652174,289.202464072 L -658.5043478260869,270.24533976799995 L -652,262.84204387999995 L -645.4956521739131,258.00275145599994 L -638.991304347826,258.32932524800003 L -632.4869565217391,262.041739288 L -625.9826086956522,263.62117550399995 L -619.4782608695652,271.71818672000006 L -612.9739130434782,278.52317478400005 L -606.4695652173913,286.774604512 L -599.9652173913043,295.66892634400006 L -593.4608695652174,302.90535836799995 L -586.9565217391304,304.70862035199997 L -580.4521739130435,306.325245216 L -573.9478260869565,317.45994421599994 L -567.4434782608696,332.72963083999997 L -560.9391304347826,344.4007986799999 L -554.4347826086956,360.26677456799996 L -547.9304347826087,377.91386272799997 L -541.4260869565218,386.4900163440001 L -534.9217391304347,390.17827672000004 L -528.4173913043478,390.249903728 L -521.9130434782609,389.28979558400005 L -515.408695652174,389.59720367999995 L -508.9043478260869,391.390625848 L -502.4,413.7695792 L -495.89565217391305,414.09940061599997 L -489.3913043478261,412.90265084 L -482.8869565217391,418.77638089600003 L -476.38260869565215,422.44956647999993 L -469.8782608695652,419.110054176 L -463.3739130434783,419.66720064 L -456.86956521739125,421.317837576 L -450.3652173913043,428.1374914080001 L -443.8608695652174,428.368803776 L -437.35652173913047,427.532384888 L -430.85217391304343,429.05546609600003 L -424.3478260869565,427.93808955199995 L -417.8434782608696,427.766721776 L -411.3391304347826,427.648347176 L -404.83478260869566,418.690185064 L -398.3304347826087,415.855832672 L -391.82608695652175,410.856012936 L -385.32173913043476,411.70990299199997 L -378.81739130434784,410.302006528 L -372.31304347826085,411.466228272 L -365.8086956521739,415.22014032000004 L -359.30434782608694,423.65786454400006 L -352.8,431.86361572000004 L -346.295652173913,441.0926148 L -339.7913043478261,453.57986387200003 L -333.2869565217391,458.449801224 L -326.7826086956522,460.74208061599995 L -320.2782608695652,462.16602529600004 L -313.7739130434783,464.46389025599996 L -307.2695652173913,470.305335304 L -300.76521739130436,452.08879543200004 L -294.2608695652174,435.18769267999994 L -287.75652173913045,421.668962768 L -281.25217391304346,406.530887584 L -274.74782608695654,394.5847188320001 L -268.24347826086955,385.253944488 L -261.7391304347826,380.7871686799999 L -255.23478260869564,373.84479303999996 L -248.7304347826087,370.78505116 L -242.22608695652173,359.31369154400005 L -235.7217391304348,348.6729474559999 L -229.2173913043478,341.98271983999996 L -222.7130434782609,338.90480295199995 L -216.2086956521739,338.02350032000004 L -209.70434782608697,337.311080112 L -203.2,336.189114664 L -196.69565217391306,322.79712176799995 L -190.19130434782608,314.82901685599995 L -183.68695652173915,307.168573688 L -177.18260869565216,301.10168868799997 L -170.67826086956524,288.74519847999994 L -164.17391304347825,276.5512322320001 L -157.6695652173913,268.645816224 L -151.16521739130434,262.0527583679999 L -144.66086956521738,256.829575008 L -138.15652173913043,253.73969815199996 L -131.65217391304347,247.328733664 L -125.14782608695651,245.17959341599996 L -118.64347826086956,243.41759372000004 L -112.1391304347826,235.90683474400007 L -105.63478260869564,225.63648844800002 L -99.13043478260869,225.72162984800002 L -92.62608695652173,229.40500650399994 L -86.12173913043478,235.58472834400004 L -79.61739130434782,242.38297149600004 L -73.11304347826086,252.898795936 L -66.6086956521739,250.4780186 L -60.10434782608695,251.75258452799997 L -53.599999999999994,250.864095424 L -47.09565217391304,250.66423474400005 L -40.59130434782608,250.650626064 L -34.086956521739125,250.587417912 L -27.58260869565217,250.56482929600006 L -21.078260869565213,249.96090270399995 L -14.573913043478257,246.46985763200007 L -8.0695652173913,246.54161345599994 L -1.5652173913043441,247.36029823200008 L 4.939130434782612,247.44824967999995 L 11.443478260869568,243.09018527999996 L 17.947826086956525,240.69899047200002 L 24.45217391304348,245.70501860800005 L 30.956521739130437,245.87939895199997 L 37.46086956521739,246.24892092799996 L 43.96521739130435,248.07754040800003 L 50.469565217391306,250.31486118400005 L 56.97391304347826,252.87449552799995 L 63.47826086956522,256.70886312799996 L 69.98260869565217,256.70047415199997 L 76.48695652173913,256.76631705599993 L 82.99130434782609,256.77040530399995 L 89.49565217391304,256.59108147999996 L 96,255.54348536000003 L 102.50434782608696,254.86079907200002 L 109.00869565217391,254.32759976799994 L 115.51304347826087,255.90603201599995 L 122.01739130434783,254.94864096000003 L 128.52173913043478,253.98164315199998 L 135.02608695652174,252.82008603999998 L 141.5304347826087,256.000484024 L 148.03478260869565,262.76827945599996 L 154.5391304347826,266.476103264 L 161.04347826086956,264.50842956799994 L 167.54782608695652,259.384720712 L 174.05217391304348,256.98642575199995 L 180.55652173913043,254.79845279199998 L 187.0608695652174,251.57396454400006 L 193.56521739130434,248.172228136 L 200.0695652173913,243.12723780800005 L 206.57391304347826,235.13227011200001 L 213.0782608695652,215.47022149600005 L 219.58260869565217,193.89874194400005 L 226.08695652173913,178.4639484 L 232.59130434782608,159.5441442160001 L 239.09565217391304,140.35207745599993 L 245.6,126.89538440000001 L 252.10434782608695,115.17467352799997 L 258.6086956521739,103.66740147200005 L 265.11304347826086,95.56461943199992 L 271.61739130434785,88.21351195199998 L 278.1217391304348,84.54801947200002 L 284.6260869565217,85.33130507999999 L 291.1304347826087,82.79613448800012 L 297.6347826086957,81.87038037599996 L 304.1391304347826,83.80996753599987 L 310.64347826086953,88.14363192799999 L 317.1478260869565,93.31178429600004 L 323.6521739130435,100.62498932799997 L 330.1565217391304,111.41904437599999 L 336.66086956521735,126.21831223199993 L 343.16521739130434,130.91554252000003 L 349.6695652173913,131.7892655920001 L 356.17391304347825,122.22065972799999 L 362.67826086956524,115.08936745599993 L 369.18260869565216,115.49713384000012 L 375.68695652173915,115.55924041600008 L 382.1913043478261,115.84063033599989 L 388.69565217391306,118.27069703199993 L 395.2,119.81584959999998 L 401.704347826087,121.76826922400005 L 408.2086956521739,122.80131444800003 L 414.7130434782609,120.67232261600009 L 421.2173913043478,120.867553224 L 427.7217391304348,117.5032531359999 L 434.2260869565217,108.74869865599993 L 440.7304347826087,107.89671560799991 L 447.23478260869564,108.33996681600007 L 453.7391304347826,110.26088694400005 L 460.24347826086955,111.59026872799996 L 466.74782608695654,113.25859993599988 L 473.25217391304346,114.5826312079999 L 479.75652173913045,116.24814904800002 L 486.2608695652174,116.15910465599995 L 492.76521739130436,117.56631520799988 L 499.2695652173913,117.7961030319999 L 505.7739130434783,117.00151879999999 L 512.2782608695652,113.1825008880001 L 518.7826086956522,111.3907028640001 L 525.2869565217391,110.157791648 L 531.7913043478261,110.31191999200013 L 538.295652173913,107.00273920799992 L 544.8,108.83746416800005 L 551.304347826087,111.45321713599986 L 557.8086956521739,118.73204954400006 L 564.3130434782609,135.7625287119999 L 570.8173913043479,143.949411 L 577.3217391304347,150.15194522400003 L 583.8260869565217,157.18299673599986 L 590.3304347826087,165.7838504880001 L 596.8347826086956,173.23105536800009 L 603.3391304347826,174.264929928 L 609.8434782608696,177.4581112400001 L 616.3478260869565,176.4873372640001 L 622.8521739130434,178.86490745599994 L 629.3565217391305,175.6805998400001 L 635.8608695652174,170.7104257119999 L 642.3652173913043,165.53169914400004 L 648.8695652173913,161.39704152799996 L 655.3739130434783,156.5083236 L 661.8782608695652,152.280158848 L 668.3826086956522,147.07881312000004 L 674.8869565217391,143.92503423199992 L 674.8869565217391,252.360884888 L 668.3826086956522,257.50068512000007 L 661.8782608695652,261.27048403200007 L 655.3739130434783,260.78854752000007 L 648.8695652173913,260.670516872 L 642.3652173913043,260.129247976 L 635.8608695652174,259.79101500800004 L 629.3565217391305,257.4025924 L 622.8521739130434,255.482952464 L 616.3478260869565,256.96834569600003 L 609.8434782608696,256.63511796 L 603.3391304347826,257.1118354320001 L 596.8347826086956,257.034173992 L 590.3304347826087,259.74114927200003 L 583.8260869565217,261.255702064 L 577.3217391304347,261.71501941599996 L 570.8173913043479,262.16182236000003 L 564.3130434782609,263.7742348080001 L 557.8086956521739,270.09899549600004 L 551.304347826087,266.33076694400006 L 544.8,257.98839511200003 L 538.295652173913,249.35674039199995 L 531.7913043478261,237.98748936799993 L 525.2869565217391,233.735380112 L 518.7826086956522,226.824379136 L 512.2782608695652,222.044581112 L 505.7739130434783,214.67583247999994 L 499.2695652173913,212.52182776799992 L 492.76521739130436,213.356400072 L 486.2608695652174,218.42312710399995 L 479.75652173913045,218.21470879199995 L 473.25217391304346,215.777948312 L 466.74782608695654,211.05525694400006 L 460.24347826086955,210.50896223200007 L 453.7391304347826,210.372358176 L 447.23478260869564,210.22242830399995 L 440.7304347826087,209.968711912 L 434.2260869565217,210.139322064 L 427.7217391304348,206.25512790399995 L 421.2173913043478,205.21483445599995 L 414.7130434782609,205.28475498400005 L 408.2086956521739,204.96720827200002 L 401.704347826087,204.53621981599997 L 395.2,204.27959112000005 L 388.69565217391306,203.98462704800002 L 382.1913043478261,201.54902126399998 L 375.68695652173915,197.243406224 L 369.18260869565216,193.3634112 L 362.67826086956524,188.13088934400005 L 356.17391304347825,175.06803859200008 L 349.6695652173913,161.89341472799998 L 343.16521739130434,164.2960575599999 L 336.66086956521735,173.69475312799997 L 330.1565217391304,197.32311610399995 L 323.6521739130435,218.64673043200006 L 317.1478260869565,238.02606378400003 L 310.64347826086953,254.02582903200005 L 304.1391304347826,269.729132224 L 297.6347826086957,283.23105098400003 L 291.1304347826087,292.87010127200006 L 284.6260869565217,303.93439436000006 L 278.1217391304348,318.959822608 L 271.61739130434785,328.57652132799996 L 265.11304347826086,333.83689864800004 L 258.6086956521739,338.984083888 L 252.10434782608695,341.91203239199996 L 245.6,343.858812 L 239.09565217391304,343.64021390399995 L 232.59130434782608,340.025202024 L 226.08695652173913,335.28369024 L 219.58260869565217,336.27342805599994 L 213.0782608695652,329.90672514400006 L 206.57391304347826,321.926056688 L 200.0695652173913,320.51863299199994 L 193.56521739130434,320.49369514400007 L 187.0608695652174,320.852190736 L 180.55652173913043,319.99388640800004 L 174.05217391304348,320.34737344800004 L 167.54782608695652,320.8229501679999 L 161.04347826086956,319.025316912 L 154.5391304347826,319.55268961599995 L 148.03478260869565,319.882107984 L 141.5304347826087,323.215728616 L 135.02608695652174,324.85728004 L 128.52173913043478,325.48358940800006 L 122.01739130434783,325.98946312000004 L 115.51304347826087,327.63399590399996 L 109.00869565217391,335.227531112 L 102.50434782608696,337.22623684800004 L 96,337.76711664 L 89.49565217391304,334.68242164 L 82.99130434782609,332.79108005599994 L 76.48695652173913,332.92721798400004 L 69.98260869565217,334.44010280800006 L 63.47826086956522,334.457032152 L 56.97391304347826,335.08404735199997 L 50.469565217391306,335.799136176 L 43.96521739130435,335.649197672 L 37.46086956521739,334.986841072 L 30.956521739130437,334.693770728 L 24.45217391304348,334.00494443200006 L 17.947826086956525,336.51548792799997 L 11.443478260869568,335.40719423999997 L 4.939130434782612,334.14985047999994 L -1.5652173913043441,333.97775960800004 L -8.0695652173913,333.45310598400005 L -14.573913043478257,333.75781292799996 L -21.078260869565213,327.019236816 L -27.58260869565217,325.380399824 L -34.086956521739125,325.232421448 L -40.59130434782608,323.37646641599997 L -47.09565217391304,323.081852936 L -53.599999999999994,322.39564545599995 L -60.10434782608695,320.04617707200003 L -66.6086956521739,323.09077443999996 L -73.11304347826086,325.12480630399995 L -79.61739130434782,347.13901914400003 L -86.12173913043478,365.61246061599996 L -92.62608695652173,384.795546776 L -99.13043478260869,400.05103575199996 L -105.63478260869564,409.257007312 L -112.1391304347826,412.25408485599996 L -118.64347826086956,416.02250796000004 L -125.14782608695651,426.992110664 L -131.65217391304347,437.10148609600003 L -138.15652173913043,443.53598672799995 L -144.66086956521738,450.892828512 L -151.16521739130434,455.60617939199994 L -157.6695652173913,459.048452336 L -164.17391304347825,462.83276960800004 L -170.67826086956524,463.51326536 L -177.18260869565216,464.07869323200003 L -183.68695652173915,476.799528872 L -190.19130434782608,490.072841064 L -196.69565217391306,500.860206312 L -203.2,507.479201336 L -209.70434782608697,518.8300044480001 L -216.2086956521739,530.9727836 L -222.7130434782609,540.9360949679999 L -229.2173913043478,548.05926984 L -235.7217391304348,553.976078224 L -242.22608695652173,555.473818536 L -248.7304347826087,557.75896524 L -255.23478260869564,568.3510567200001 L -261.7391304347826,569.95573556 L -268.24347826086955,581.569406312 L -274.74782608695654,584.076550128 L -281.25217391304346,586.9493408159999 L -287.75652173913045,580.865098192 L -294.2608695652174,574.8301197200001 L -300.76521739130436,566.321093848 L -307.2695652173913,555.375353976 L -313.7739130434783,558.509398784 L -320.2782608695652,558.6862087039999 L -326.7826086956522,558.7220149039999 L -333.2869565217391,558.638913976 L -339.7913043478261,559.784501888 L -346.295652173913,564.0677786399999 L -352.8,566.05292948 L -359.30434782608694,567.7345353759999 L -365.8086956521739,568.52120672 L -372.31304347826085,568.106686128 L -378.81739130434784,565.688999712 L -385.32173913043476,556.875458128 L -391.82608695652175,555.321352184 L -398.3304347826087,538.371159248 L -404.83478260869566,531.0308696559999 L -411.3391304347826,514.2014855440001 L -417.8434782608696,513.866102464 L -424.3478260869565,511.969749008 L -430.85217391304343,508.57720966399995 L -437.35652173913047,511.37312575199996 L -443.8608695652174,512.743696784 L -450.3652173913043,513.577628992 L -456.86956521739125,525.480860184 L -463.3739130434783,530.30206392 L -469.8782608695652,530.2096191840001 L -476.38260869565215,528.92694648 L -482.8869565217391,530.867244784 L -489.3913043478261,534.05677476 L -495.89565217391305,533.550644744 L -502.4,533.6035715200001 L -508.9043478260869,544.5916579919999 L -515.408695652174,543.647116 L -521.9130434782609,543.0585822559999 L -528.4173913043478,543.4073973919999 L -534.9217391304347,542.64600984 L -541.4260869565218,541.936843896 L -547.9304347826087,541.1233934320001 L -554.4347826086956,546.729731352 L -560.9391304347826,549.775089 L -567.4434782608696,545.57891444 L -573.9478260869565,545.6430010639999 L -580.4521739130435,541.284866944 L -586.9565217391304,523.176893728 L -593.4608695652174,507.602007472 L -599.9652173913043,502.18524221599995 L -606.4695652173913,497.56138060800004 L -612.9739130434782,495.80528785599995 L -619.4782608695652,494.0611232 L -625.9826086956522,488.851501376 L -632.4869565217391,478.782471912 L -638.991304347826,478.61435043200004 L -645.4956521739131,467.599678064 L -652,449.70735412000005 L -658.5043478260869,429.371356792 L -665.008695652174,396.23728800800006 L -671.5130434782609,373.23473772799997 L -678.0173913043478,358.531650936 L -684.5217391304348,367.08509774400005 L -691.0260869565218,365.23198596000003 L -697.5304347826087,366.1746255919999 L -704.0347826086957,371.521621712 L -710.5391304347826,376.176228512 L -717.0434782608696,376.88730744 L -723.5478260869565,373.53693276 L -730.0521739130435,370.8131616 L -736.5565217391304,370.091173816 L -743.0608695652174,370.24908563200006 L -749.5652173913044,368.523787872 L -756.0695652173913,367.376458952 L -762.5739130434782,361.108846088 L -769.0782608695653,356.55452586399997 L -775.5826086956522,347.54579816 L -782.0869565217391,336.5918771440001 L -788.591304347826,324.79461172000003 L -795.0956521739131,309.581593512 L -801.6,297.13899512000006 L -808.104347826087,288.883421368 L -814.6086956521739,295.185996488 L -821.1130434782609,301.93734397599997 L -827.6173913043478,311.507703464 L -834.1217391304348,321.669188288 L -840.6260869565217,329.5527361200001 L -847.1304347826087,341.17224542400004 L -853.6347826086957,345.850563 L -860.1391304347826,347.818115184 L -866.6434782608695,347.903899336 L -873.1478260869566,348.3962028799999 L -879.6521739130435,348.39427063999995 L -886.1565217391304,348.463375112 L -892.6608695652174,348.865565888 L -899.1652173913044,348.96265065599994 Z" fill="rgba(59, 130, 246, 0.10)" stroke="none" />
        <path d="M -899.1652173913044,221.57069294400006 L -892.6608695652174,210.999555312 L -886.1565217391304,204.82364416799993 L -879.6521739130435,199.26798472000004 L -873.1478260869566,192.99584072000005 L -866.6434782608695,187.56583530399996 L -860.1391304347826,188.2233367359999 L -853.6347826086957,186.9616112400001 L -847.1304347826087,186.7856439359999 L -840.6260869565217,188.5999183599999 L -834.1217391304348,188.7231056319999 L -827.6173913043478,192.04759493599988 L -821.1130434782609,196.89745890399996 L -814.6086956521739,201.35896919199996 L -808.104347826087,204.29659815199997 L -801.6,199.81033992000005 L -795.0956521739131,192.45507712799997 L -788.591304347826,187.9903464400001 L -782.0869565217391,187.27295021600008 L -775.5826086956522,184.69712887999995 L -769.0782608695653,183.9560046160001 L -762.5739130434782,190.61271351199989 L -756.0695652173913,194.87102784800004 L -749.5652173913044,201.49316956799993 L -743.0608695652174,210.18267860800003 L -736.5565217391304,220.25185946399998 L -730.0521739130435,227.02760696 L -723.5478260869565,232.27489684 L -717.0434782608696,237.38304552000005 L -710.5391304347826,248.709499088 L -704.0347826086957,263.51974020800003 L -697.5304347826087,276.97764904800005 L -691.0260869565218,286.08155252000006 L -684.5217391304348,289.409128096 L -678.0173913043478,307.249737064 L -671.5130434782609,301.91060403200004 L -665.008695652174,289.202464072 L -658.5043478260869,270.24533976799995 L -652,262.84204387999995 L -645.4956521739131,258.00275145599994 L -638.991304347826,258.32932524800003 L -632.4869565217391,262.041739288 L -625.9826086956522,263.62117550399995 L -619.4782608695652,271.71818672000006 L -612.9739130434782,278.52317478400005 L -606.4695652173913,286.774604512 L -599.9652173913043,295.66892634400006 L -593.4608695652174,302.90535836799995 L -586.9565217391304,304.70862035199997 L -580.4521739130435,306.325245216 L -573.9478260869565,317.45994421599994 L -567.4434782608696,332.72963083999997 L -560.9391304347826,344.4007986799999 L -554.4347826086956,360.26677456799996 L -547.9304347826087,377.91386272799997 L -541.4260869565218,386.4900163440001 L -534.9217391304347,390.17827672000004 L -528.4173913043478,390.249903728 L -521.9130434782609,389.28979558400005 L -515.408695652174,389.59720367999995 L -508.9043478260869,391.390625848 L -502.4,413.7695792 L -495.89565217391305,414.09940061599997 L -489.3913043478261,412.90265084 L -482.8869565217391,418.77638089600003 L -476.38260869565215,422.44956647999993 L -469.8782608695652,419.110054176 L -463.3739130434783,419.66720064 L -456.86956521739125,421.317837576 L -450.3652173913043,428.1374914080001 L -443.8608695652174,428.368803776 L -437.35652173913047,427.532384888 L -430.85217391304343,429.05546609600003 L -424.3478260869565,427.93808955199995 L -417.8434782608696,427.766721776 L -411.3391304347826,427.648347176 L -404.83478260869566,418.690185064 L -398.3304347826087,415.855832672 L -391.82608695652175,410.856012936 L -385.32173913043476,411.70990299199997 L -378.81739130434784,410.302006528 L -372.31304347826085,411.466228272 L -365.8086956521739,415.22014032000004 L -359.30434782608694,423.65786454400006 L -352.8,431.86361572000004 L -346.295652173913,441.0926148 L -339.7913043478261,453.57986387200003 L -333.2869565217391,458.449801224 L -326.7826086956522,460.74208061599995 L -320.2782608695652,462.16602529600004 L -313.7739130434783,464.46389025599996 L -307.2695652173913,470.305335304 L -300.76521739130436,452.08879543200004 L -294.2608695652174,435.18769267999994 L -287.75652173913045,421.668962768 L -281.25217391304346,406.530887584 L -274.74782608695654,394.5847188320001 L -268.24347826086955,385.253944488 L -261.7391304347826,380.7871686799999 L -255.23478260869564,373.84479303999996 L -248.7304347826087,370.78505116 L -242.22608695652173,359.31369154400005 L -235.7217391304348,348.6729474559999 L -229.2173913043478,341.98271983999996 L -222.7130434782609,338.90480295199995 L -216.2086956521739,338.02350032000004 L -209.70434782608697,337.311080112 L -203.2,336.189114664 L -196.69565217391306,322.79712176799995 L -190.19130434782608,314.82901685599995 L -183.68695652173915,307.168573688 L -177.18260869565216,301.10168868799997 L -170.67826086956524,288.74519847999994 L -164.17391304347825,276.5512322320001 L -157.6695652173913,268.645816224 L -151.16521739130434,262.0527583679999 L -144.66086956521738,256.829575008 L -138.15652173913043,253.73969815199996 L -131.65217391304347,247.328733664 L -125.14782608695651,245.17959341599996 L -118.64347826086956,243.41759372000004 L -112.1391304347826,235.90683474400007 L -105.63478260869564,225.63648844800002 L -99.13043478260869,225.72162984800002 L -92.62608695652173,229.40500650399994 L -86.12173913043478,235.58472834400004 L -79.61739130434782,242.38297149600004 L -73.11304347826086,252.898795936 L -66.6086956521739,250.4780186 L -60.10434782608695,251.75258452799997 L -53.599999999999994,250.864095424 L -47.09565217391304,250.66423474400005 L -40.59130434782608,250.650626064 L -34.086956521739125,250.587417912 L -27.58260869565217,250.56482929600006 L -21.078260869565213,249.96090270399995 L -14.573913043478257,246.46985763200007 L -8.0695652173913,246.54161345599994 L -1.5652173913043441,247.36029823200008 L 4.939130434782612,247.44824967999995 L 11.443478260869568,243.09018527999996 L 17.947826086956525,240.69899047200002 L 24.45217391304348,245.70501860800005 L 30.956521739130437,245.87939895199997 L 37.46086956521739,246.24892092799996 L 43.96521739130435,248.07754040800003 L 50.469565217391306,250.31486118400005 L 56.97391304347826,252.87449552799995 L 63.47826086956522,256.70886312799996 L 69.98260869565217,256.70047415199997 L 76.48695652173913,256.76631705599993 L 82.99130434782609,256.77040530399995 L 89.49565217391304,256.59108147999996 L 96,255.54348536000003 L 102.50434782608696,254.86079907200002 L 109.00869565217391,254.32759976799994 L 115.51304347826087,255.90603201599995 L 122.01739130434783,254.94864096000003 L 128.52173913043478,253.98164315199998 L 135.02608695652174,252.82008603999998 L 141.5304347826087,256.000484024 L 148.03478260869565,262.76827945599996 L 154.5391304347826,266.476103264 L 161.04347826086956,264.50842956799994 L 167.54782608695652,259.384720712 L 174.05217391304348,256.98642575199995 L 180.55652173913043,254.79845279199998 L 187.0608695652174,251.57396454400006 L 193.56521739130434,248.172228136 L 200.0695652173913,243.12723780800005 L 206.57391304347826,235.13227011200001 L 213.0782608695652,215.47022149600005 L 219.58260869565217,193.89874194400005 L 226.08695652173913,178.4639484 L 232.59130434782608,159.5441442160001 L 239.09565217391304,140.35207745599993 L 245.6,126.89538440000001 L 252.10434782608695,115.17467352799997 L 258.6086956521739,103.66740147200005 L 265.11304347826086,95.56461943199992 L 271.61739130434785,88.21351195199998 L 278.1217391304348,84.54801947200002 L 284.6260869565217,85.33130507999999 L 291.1304347826087,82.79613448800012 L 297.6347826086957,81.87038037599996 L 304.1391304347826,83.80996753599987 L 310.64347826086953,88.14363192799999 L 317.1478260869565,93.31178429600004 L 323.6521739130435,100.62498932799997 L 330.1565217391304,111.41904437599999 L 336.66086956521735,126.21831223199993 L 343.16521739130434,130.91554252000003 L 349.6695652173913,131.7892655920001 L 356.17391304347825,122.22065972799999 L 362.67826086956524,115.08936745599993 L 369.18260869565216,115.49713384000012 L 375.68695652173915,115.55924041600008 L 382.1913043478261,115.84063033599989 L 388.69565217391306,118.27069703199993 L 395.2,119.81584959999998 L 401.704347826087,121.76826922400005 L 408.2086956521739,122.80131444800003 L 414.7130434782609,120.67232261600009 L 421.2173913043478,120.867553224 L 427.7217391304348,117.5032531359999 L 434.2260869565217,108.74869865599993 L 440.7304347826087,107.89671560799991 L 447.23478260869564,108.33996681600007 L 453.7391304347826,110.26088694400005 L 460.24347826086955,111.59026872799996 L 466.74782608695654,113.25859993599988 L 473.25217391304346,114.5826312079999 L 479.75652173913045,116.24814904800002 L 486.2608695652174,116.15910465599995 L 492.76521739130436,117.56631520799988 L 499.2695652173913,117.7961030319999 L 505.7739130434783,117.00151879999999 L 512.2782608695652,113.1825008880001 L 518.7826086956522,111.3907028640001 L 525.2869565217391,110.157791648 L 531.7913043478261,110.31191999200013 L 538.295652173913,107.00273920799992 L 544.8,108.83746416800005 L 551.304347826087,111.45321713599986 L 557.8086956521739,118.73204954400006 L 564.3130434782609,135.7625287119999 L 570.8173913043479,143.949411 L 577.3217391304347,150.15194522400003 L 583.8260869565217,157.18299673599986 L 590.3304347826087,165.7838504880001 L 596.8347826086956,173.23105536800009 L 603.3391304347826,174.264929928 L 609.8434782608696,177.4581112400001 L 616.3478260869565,176.4873372640001 L 622.8521739130434,178.86490745599994 L 629.3565217391305,175.6805998400001 L 635.8608695652174,170.7104257119999 L 642.3652173913043,165.53169914400004 L 648.8695652173913,161.39704152799996 L 655.3739130434783,156.5083236 L 661.8782608695652,152.280158848 L 668.3826086956522,147.07881312000004 L 674.8869565217391,143.92503423199992" fill="none" stroke="#3b82f6" stroke-width="1"/>
        <path d="M -899.1652173913044,348.96265065599994 L -892.6608695652174,348.865565888 L -886.1565217391304,348.463375112 L -879.6521739130435,348.39427063999995 L -873.1478260869566,348.3962028799999 L -866.6434782608695,347.903899336 L -860.1391304347826,347.818115184 L -853.6347826086957,345.850563 L -847.1304347826087,341.17224542400004 L -840.6260869565217,329.5527361200001 L -834.1217391304348,321.669188288 L -827.6173913043478,311.507703464 L -821.1130434782609,301.93734397599997 L -814.6086956521739,295.185996488 L -808.104347826087,288.883421368 L -801.6,297.13899512000006 L -795.0956521739131,309.581593512 L -788.591304347826,324.79461172000003 L -782.0869565217391,336.5918771440001 L -775.5826086956522,347.54579816 L -769.0782608695653,356.55452586399997 L -762.5739130434782,361.108846088 L -756.0695652173913,367.376458952 L -749.5652173913044,368.523787872 L -743.0608695652174,370.24908563200006 L -736.5565217391304,370.091173816 L -730.0521739130435,370.8131616 L -723.5478260869565,373.53693276 L -717.0434782608696,376.88730744 L -710.5391304347826,376.176228512 L -704.0347826086957,371.521621712 L -697.5304347826087,366.1746255919999 L -691.0260869565218,365.23198596000003 L -684.5217391304348,367.08509774400005 L -678.0173913043478,358.531650936 L -671.5130434782609,373.23473772799997 L -665.008695652174,396.23728800800006 L -658.5043478260869,429.371356792 L -652,449.70735412000005 L -645.4956521739131,467.599678064 L -638.991304347826,478.61435043200004 L -632.4869565217391,478.782471912 L -625.9826086956522,488.851501376 L -619.4782608695652,494.0611232 L -612.9739130434782,495.80528785599995 L -606.4695652173913,497.56138060800004 L -599.9652173913043,502.18524221599995 L -593.4608695652174,507.602007472 L -586.9565217391304,523.176893728 L -580.4521739130435,541.284866944 L -573.9478260869565,545.6430010639999 L -567.4434782608696,545.57891444 L -560.9391304347826,549.775089 L -554.4347826086956,546.729731352 L -547.9304347826087,541.1233934320001 L -541.4260869565218,541.936843896 L -534.9217391304347,542.64600984 L -528.4173913043478,543.4073973919999 L -521.9130434782609,543.0585822559999 L -515.408695652174,543.647116 L -508.9043478260869,544.5916579919999 L -502.4,533.6035715200001 L -495.89565217391305,533.550644744 L -489.3913043478261,534.05677476 L -482.8869565217391,530.867244784 L -476.38260869565215,528.92694648 L -469.8782608695652,530.2096191840001 L -463.3739130434783,530.30206392 L -456.86956521739125,525.480860184 L -450.3652173913043,513.577628992 L -443.8608695652174,512.743696784 L -437.35652173913047,511.37312575199996 L -430.85217391304343,508.57720966399995 L -424.3478260869565,511.969749008 L -417.8434782608696,513.866102464 L -411.3391304347826,514.2014855440001 L -404.83478260869566,531.0308696559999 L -398.3304347826087,538.371159248 L -391.82608695652175,555.321352184 L -385.32173913043476,556.875458128 L -378.81739130434784,565.688999712 L -372.31304347826085,568.106686128 L -365.8086956521739,568.52120672 L -359.30434782608694,567.7345353759999 L -352.8,566.05292948 L -346.295652173913,564.0677786399999 L -339.7913043478261,559.784501888 L -333.2869565217391,558.638913976 L -326.7826086956522,558.7220149039999 L -320.2782608695652,558.6862087039999 L -313.7739130434783,558.509398784 L -307.2695652173913,555.375353976 L -300.76521739130436,566.321093848 L -294.2608695652174,574.8301197200001 L -287.75652173913045,580.865098192 L -281.25217391304346,586.9493408159999 L -274.74782608695654,584.076550128 L -268.24347826086955,581.569406312 L -261.7391304347826,569.95573556 L -255.23478260869564,568.3510567200001 L -248.7304347826087,557.75896524 L -242.22608695652173,555.473818536 L -235.7217391304348,553.976078224 L -229.2173913043478,548.05926984 L -222.7130434782609,540.9360949679999 L -216.2086956521739,530.9727836 L -209.70434782608697,518.8300044480001 L -203.2,507.479201336 L -196.69565217391306,500.860206312 L -190.19130434782608,490.072841064 L -183.68695652173915,476.799528872 L -177.18260869565216,464.07869323200003 L -170.67826086956524,463.51326536 L -164.17391304347825,462.83276960800004 L -157.6695652173913,459.048452336 L -151.16521739130434,455.60617939199994 L -144.66086956521738,450.892828512 L -138.15652173913043,443.53598672799995 L -131.65217391304347,437.10148609600003 L -125.14782608695651,426.992110664 L -118.64347826086956,416.02250796000004 L -112.1391304347826,412.25408485599996 L -105.63478260869564,409.257007312 L -99.13043478260869,400.05103575199996 L -92.62608695652173,384.795546776 L -86.12173913043478,365.61246061599996 L -79.61739130434782,347.13901914400003 L -73.11304347826086,325.12480630399995 L -66.6086956521739,323.09077443999996 L -60.10434782608695,320.04617707200003 L -53.599999999999994,322.39564545599995 L -47.09565217391304,323.081852936 L -40.59130434782608,323.37646641599997 L -34.086956521739125,325.232421448 L -27.58260869565217,325.380399824 L -21.078260869565213,327.019236816 L -14.573913043478257,333.75781292799996 L -8.0695652173913,333.45310598400005 L -1.5652173913043441,333.97775960800004 L 4.939130434782612,334.14985047999994 L 11.443478260869568,335.40719423999997 L 17.947826086956525,336.51548792799997 L 24.45217391304348,334.00494443200006 L 30.956521739130437,334.693770728 L 37.46086956521739,334.986841072 L 43.96521739130435,335.649197672 L 50.469565217391306,335.799136176 L 56.97391304347826,335.08404735199997 L 63.47826086956522,334.457032152 L 69.98260869565217,334.44010280800006 L 76.48695652173913,332.92721798400004 L 82.99130434782609,332.79108005599994 L 89.49565217391304,334.68242164 L 96,337.76711664 L 102.50434782608696,337.22623684800004 L 109.00869565217391,335.227531112 L 115.51304347826087,327.63399590399996 L 122.01739130434783,325.98946312000004 L 128.52173913043478,325.48358940800006 L 135.02608695652174,324.85728004 L 141.5304347826087,323.215728616 L 148.03478260869565,319.882107984 L 154.5391304347826,319.55268961599995 L 161.04347826086956,319.025316912 L 167.54782608695652,320.8229501679999 L 174.05217391304348,320.34737344800004 L 180.55652173913043,319.99388640800004 L 187.0608695652174,320.852190736 L 193.56521739130434,320.49369514400007 L 200.0695652173913,320.51863299199994 L 206.57391304347826,321.926056688 L 213.0782608695652,329.90672514400006 L 219.58260869565217,336.27342805599994 L 226.08695652173913,335.28369024 L 232.59130434782608,340.025202024 L 239.09565217391304,343.64021390399995 L 245.6,343.858812 L 252.10434782608695,341.91203239199996 L 258.6086956521739,338.984083888 L 265.11304347826086,333.83689864800004 L 271.61739130434785,328.57652132799996 L 278.1217391304348,318.959822608 L 284.6260869565217,303.93439436000006 L 291.1304347826087,292.87010127200006 L 297.6347826086957,283.23105098400003 L 304.1391304347826,269.729132224 L 310.64347826086953,254.02582903200005 L 317.1478260869565,238.02606378400003 L 323.6521739130435,218.64673043200006 L 330.1565217391304,197.32311610399995 L 336.66086956521735,173.69475312799997 L 343.16521739130434,164.2960575599999 L 349.6695652173913,161.89341472799998 L 356.17391304347825,175.06803859200008 L 362.67826086956524,188.13088934400005 L 369.18260869565216,193.3634112 L 375.68695652173915,197.243406224 L 382.1913043478261,201.54902126399998 L 388.69565217391306,203.98462704800002 L 395.2,204.27959112000005 L 401.704347826087,204.53621981599997 L 408.2086956521739,204.96720827200002 L 414.7130434782609,205.28475498400005 L 421.2173913043478,205.21483445599995 L 427.7217391304348,206.25512790399995 L 434.2260869565217,210.139322064 L 440.7304347826087,209.968711912 L 447.23478260869564,210.22242830399995 L 453.7391304347826,210.372358176 L 460.24347826086955,210.50896223200007 L 466.74782608695654,211.05525694400006 L 473.25217391304346,215.777948312 L 479.75652173913045,218.21470879199995 L 486.2608695652174,218.42312710399995 L 492.76521739130436,213.356400072 L 499.2695652173913,212.52182776799992 L 505.7739130434783,214.67583247999994 L 512.2782608695652,222.044581112 L 518.7826086956522,226.824379136 L 525.2869565217391,233.735380112 L 531.7913043478261,237.98748936799993 L 538.295652173913,249.35674039199995 L 544.8,257.98839511200003 L 551.304347826087,266.33076694400006 L 557.8086956521739,270.09899549600004 L 564.3130434782609,263.7742348080001 L 570.8173913043479,262.16182236000003 L 577.3217391304347,261.71501941599996 L 583.8260869565217,261.255702064 L 590.3304347826087,259.74114927200003 L 596.8347826086956,257.034173992 L 603.3391304347826,257.1118354320001 L 609.8434782608696,256.63511796 L 616.3478260869565,256.96834569600003 L 622.8521739130434,255.482952464 L 629.3565217391305,257.4025924 L 635.8608695652174,259.79101500800004 L 642.3652173913043,260.129247976 L 648.8695652173913,260.670516872 L 655.3739130434783,260.78854752000007 L 661.8782608695652,261.27048403200007 L 668.3826086956522,257.50068512000007 L 674.8869565217391,252.360884888" fill="none" stroke="#3b82f6" stroke-width="1"/>
        <path d="M -899.1652173913044,285.2666718 L -892.6608695652174,279.9325606 L -886.1565217391304,276.64350964 L -879.6521739130435,273.83112767999995 L -873.1478260869566,270.6960218 L -866.6434782608695,267.73486732000003 L -860.1391304347826,268.02072596000005 L -853.6347826086957,266.40608712000005 L -847.1304347826087,263.9789446799999 L -840.6260869565217,259.07632723999996 L -834.1217391304348,255.19614696000002 L -827.6173913043478,251.7776492 L -821.1130434782609,249.41740144 L -814.6086956521739,248.27248283999998 L -808.104347826087,246.59000976000002 L -801.6,248.47466752000005 L -795.0956521739131,251.01833532000006 L -788.591304347826,256.39247907999993 L -782.0869565217391,261.93241367999997 L -775.5826086956522,266.12146352 L -769.0782608695653,270.25526523999997 L -762.5739130434782,275.8607798 L -756.0695652173913,281.12374339999997 L -749.5652173913044,285.0084787200001 L -743.0608695652174,290.21588212000006 L -736.5565217391304,295.17151664 L -730.0521739130435,298.92038427999995 L -723.5478260869565,302.9059148 L -717.0434782608696,307.1351764799999 L -710.5391304347826,312.4428638 L -704.0347826086957,317.52068096000005 L -697.5304347826087,321.57613732000004 L -691.0260869565218,325.65676923999996 L -684.5217391304348,328.24711292000006 L -678.0173913043478,332.890694 L -671.5130434782609,337.5726708799999 L -665.008695652174,342.71987604 L -658.5043478260869,349.80834827999996 L -652,356.274699 L -645.4956521739131,362.80121476000005 L -638.991304347826,368.47183784 L -632.4869565217391,370.4121056 L -625.9826086956522,376.23633844 L -619.4782608695652,382.88965496000003 L -612.9739130434782,387.16423132000006 L -606.4695652173913,392.16799256 L -599.9652173913043,398.92708428 L -593.4608695652174,405.2536829200001 L -586.9565217391304,413.94275703999995 L -580.4521739130435,423.80505607999993 L -573.9478260869565,431.55147264 L -567.4434782608696,439.15427264 L -560.9391304347826,447.08794384 L -554.4347826086956,453.49825296000006 L -547.9304347826087,459.5186280799999 L -541.4260869565218,464.21343012000006 L -534.9217391304347,466.41214327999995 L -528.4173913043478,466.82865056 L -521.9130434782609,466.17418892000006 L -515.408695652174,466.62215984 L -508.9043478260869,467.99114192 L -502.4,473.68657536 L -495.89565217391305,473.82502267999996 L -489.3913043478261,473.4797128 L -482.8869565217391,474.82181284 L -476.38260869565215,475.68825647999995 L -469.8782608695652,474.65983667999996 L -463.3739130434783,474.9846322799999 L -456.86956521739125,473.39934887999993 L -450.3652173913043,470.85756019999997 L -443.8608695652174,470.55625028 L -437.35652173913047,469.45275532000005 L -430.85217391304343,468.81633787999994 L -424.3478260869565,469.9539192799999 L -417.8434782608696,470.81641212000005 L -411.3391304347826,470.92491636 L -404.83478260869566,474.86052736 L -398.3304347826087,477.11349596 L -391.82608695652175,483.08868256000005 L -385.32173913043476,484.29268056 L -378.81739130434784,487.9955031200001 L -372.31304347826085,489.7864572 L -365.8086956521739,491.8706735200001 L -359.30434782608694,495.69619996 L -352.8,498.9582726 L -346.295652173913,502.58019672000006 L -339.7913043478261,506.6821828799999 L -333.2869565217391,508.5443576 L -326.7826086956522,509.73204776 L -320.2782608695652,510.426117 L -313.7739130434783,511.48664452 L -307.2695652173913,512.84034464 L -300.76521739130436,509.20494464 L -294.2608695652174,505.0089062 L -287.75652173913045,501.26703047999996 L -281.25217391304346,496.7401142 L -274.74782608695654,489.33063447999996 L -268.24347826086955,483.4116754 L -261.7391304347826,475.3714521200001 L -255.23478260869564,471.09792487999994 L -248.7304347826087,464.2720082 L -242.22608695652173,457.39375504 L -235.7217391304348,451.32451283999995 L -229.2173913043478,445.02099483999996 L -222.7130434782609,439.92044896000004 L -216.2086956521739,434.49814196 L -209.70434782608697,428.0705422799999 L -203.2,421.834158 L -196.69565217391306,411.82866404 L -190.19130434782608,402.45092896000006 L -183.68695652173915,391.98405127999996 L -177.18260869565216,382.59019096000003 L -170.67826086956524,376.12923192000005 L -164.17391304347825,369.69200092000005 L -157.6695652173913,363.84713428 L -151.16521739130434,358.8294688799999 L -144.66086956521738,353.86120176000003 L -138.15652173913043,348.63784244 L -131.65217391304347,342.21510987999994 L -125.14782608695651,336.08585203999996 L -118.64347826086956,329.72005084 L -112.1391304347826,324.08045979999997 L -105.63478260869564,317.44674788 L -99.13043478260869,312.8863328 L -92.62608695652173,307.10027663999995 L -86.12173913043478,300.59859448 L -79.61739130434782,294.76099532000006 L -73.11304347826086,289.0118011200001 L -66.6086956521739,286.7843965200001 L -60.10434782608695,285.8993808 L -53.599999999999994,286.62987044 L -47.09565217391304,286.87304384 L -40.59130434782608,287.01354624 L -34.086956521739125,287.9099196799999 L -27.58260869565217,287.97261456 L -21.078260869565213,288.49006976000004 L -14.573913043478257,290.11383527999993 L -8.0695652173913,289.9973597200001 L -1.5652173913043441,290.6690289200001 L 4.939130434782612,290.7990500799999 L 11.443478260869568,289.24868976000005 L 17.947826086956525,288.6072392 L 24.45217391304348,289.85498152 L 30.956521739130437,290.28658484 L 37.46086956521739,290.617881 L 43.96521739130435,291.86336903999995 L 50.469565217391306,293.05699867999994 L 56.97391304347826,293.97927144 L 63.47826086956522,295.58294764 L 69.98260869565217,295.57028847999993 L 76.48695652173913,294.84676752000007 L 82.99130434782609,294.78074267999995 L 89.49565217391304,295.63675156 L 96,296.655301 L 102.50434782608696,296.04351796000003 L 109.00869565217391,294.77756544 L 115.51304347826087,291.77001396 L 122.01739130434783,290.46905203999995 L 128.52173913043478,289.73261627999995 L 135.02608695652174,288.83868304 L 141.5304347826087,289.60810632000005 L 148.03478260869565,291.3251937200001 L 154.5391304347826,293.01439644 L 161.04347826086956,291.76687324 L 167.54782608695652,290.10383543999995 L 174.05217391304348,288.66689959999997 L 180.55652173913043,287.3961696 L 187.0608695652174,286.21307764 L 193.56521739130434,284.33296164 L 200.0695652173913,281.8229354 L 206.57391304347826,278.5291634 L 213.0782608695652,272.68847332000007 L 219.58260869565217,265.086085 L 226.08695652173913,256.87381932000005 L 232.59130434782608,249.78467312000006 L 239.09565217391304,241.99614567999996 L 245.6,235.3770982 L 252.10434782608695,228.54335296000002 L 258.6086956521739,221.32574267999993 L 265.11304347826086,214.70075903999998 L 271.61739130434785,208.39501664 L 278.1217391304348,201.75392104 L 284.6260869565217,194.63284972000005 L 291.1304347826087,187.83311787999995 L 297.6347826086957,182.55071567999994 L 304.1391304347826,176.76954987999994 L 310.64347826086953,171.08473047999993 L 317.1478260869565,165.6689240400001 L 323.6521739130435,159.63585987999997 L 330.1565217391304,154.3710802400001 L 336.66086956521735,149.95653267999998 L 343.16521739130434,147.6058000400001 L 349.6695652173913,146.8413401599999 L 356.17391304347825,148.6443491599999 L 362.67826086956524,151.6101284 L 369.18260869565216,154.43027252000002 L 375.68695652173915,156.40132332000002 L 382.1913043478261,158.6948258 L 388.69565217391306,161.1276620400001 L 395.2,162.0477203599999 L 401.704347826087,163.15224452000004 L 408.2086956521739,163.8842613599999 L 414.7130434782609,162.9785388 L 421.2173913043478,163.04119384000012 L 427.7217391304348,161.87919052000004 L 434.2260869565217,159.4440103599999 L 440.7304347826087,158.9327137599999 L 447.23478260869564,159.2811975599999 L 453.7391304347826,160.3166225599999 L 460.24347826086955,161.04961547999997 L 466.74782608695654,162.15692844000012 L 473.25217391304346,165.1802897599999 L 479.75652173913045,167.23142892000004 L 486.2608695652174,167.29111587999995 L 492.76521739130436,165.4613576400001 L 499.2695652173913,165.1589654 L 505.7739130434783,165.8386756400001 L 512.2782608695652,167.613541 L 518.7826086956522,169.107541 L 525.2869565217391,171.94658587999996 L 531.7913043478261,174.14970467999996 L 538.295652173913,178.1797398 L 544.8,183.4129296400001 L 551.304347826087,188.8919920400001 L 557.8086956521739,194.41552252000005 L 564.3130434782609,199.76838176 L 570.8173913043479,203.05561667999996 L 577.3217391304347,205.93348232000005 L 583.8260869565217,209.2193494 L 590.3304347826087,212.76249987999995 L 596.8347826086956,215.13261467999996 L 603.3391304347826,215.68838267999996 L 609.8434782608696,217.0466146 L 616.3478260869565,216.72784147999994 L 622.8521739130434,217.17392996 L 629.3565217391305,216.54159612000007 L 635.8608695652174,215.25072036 L 642.3652173913043,212.83047356 L 648.8695652173913,211.0337792 L 655.3739130434783,208.64843556000002 L 661.8782608695652,206.77532144 L 668.3826086956522,202.28974912000004 L 674.8869565217391,198.14295956" fill="none" stroke="#9ca3af" stroke-width="1" stroke-dasharray="4 4"/>
      
  <line x1="96" y1="304.0863408" x2="96" y2="354.8836688" stroke="#9ca3af" stroke-width="1"/><line x1="102.50434782608696" y1="283.056" x2="102.50434782608696" y2="339.2454064" stroke="#9ca3af" stroke-width="1"/><line x1="109.00869565217391" y1="287.7555928" x2="109.00869565217391" y2="300.0024088" stroke="#9ca3af" stroke-width="1"/><line x1="115.51304347826087" y1="264.582856" x2="115.51304347826087" y2="289.6952696" stroke="#9ca3af" stroke-width="1"/><line x1="122.01739130434783" y1="269.1890904" x2="122.01739130434783" y2="284.3839336" stroke="#9ca3af" stroke-width="1"/><line x1="128.52173913043478" y1="274.053488" x2="128.52173913043478" y2="284.2432984" stroke="#9ca3af" stroke-width="1"/><line x1="135.02608695652174" y1="275.2240536" x2="135.02608695652174" y2="280.736648" stroke="#9ca3af" stroke-width="1"/><line x1="141.5304347826087" y1="267.12" x2="141.5304347826087" y2="278.89338399999997" stroke="#9ca3af" stroke-width="1"/><line x1="148.03478260869565" y1="264.464" x2="148.03478260869565" y2="284.7808728" stroke="#9ca3af" stroke-width="1"/><line x1="154.5391304347826" y1="281.728" x2="154.5391304347826" y2="303.38934" stroke="#9ca3af" stroke-width="1"/><line x1="161.04347826086956" y1="265.03298159999997" x2="161.04347826086956" y2="304.33480959999997" stroke="#9ca3af" stroke-width="1"/><line x1="167.54782608695652" y1="250.52" x2="167.54782608695652" y2="276.0336024" stroke="#9ca3af" stroke-width="1"/><line x1="174.05217391304348" y1="257.7576" x2="174.05217391304348" y2="277.5682392" stroke="#9ca3af" stroke-width="1"/><line x1="180.55652173913043" y1="266.9275728" x2="180.55652173913043" y2="272.0570392" stroke="#9ca3af" stroke-width="1"/><line x1="187.0608695652174" y1="256.8295936" x2="187.0608695652174" y2="272.8316616" stroke="#9ca3af" stroke-width="1"/><line x1="193.56521739130434" y1="254.50400000000002" x2="193.56521739130434" y2="266.0862848" stroke="#9ca3af" stroke-width="1"/><line x1="200.0695652173913" y1="246.2704" x2="200.0695652173913" y2="265.0183072" stroke="#9ca3af" stroke-width="1"/><line x1="206.57391304347826" y1="225.288" x2="206.57391304347826" y2="253.6688208" stroke="#9ca3af" stroke-width="1"/><line x1="213.0782608695652" y1="180.8000664" x2="213.0782608695652" y2="237.1712096" stroke="#9ca3af" stroke-width="1"/><line x1="219.58260869565217" y1="150.5496872" x2="219.58260869565217" y2="192.6504744" stroke="#9ca3af" stroke-width="1"/><line x1="226.08695652173913" y1="156.232" x2="226.08695652173913" y2="165.939348" stroke="#9ca3af" stroke-width="1"/><line x1="232.59130434782608" y1="144.2800664" x2="232.59130434782608" y2="163.2276384" stroke="#9ca3af" stroke-width="1"/><line x1="239.09565217391304" y1="107.75999999999999" x2="239.09565217391304" y2="149.6323712" stroke="#9ca3af" stroke-width="1"/><line x1="245.6" y1="132.8866896" x2="245.6" y2="170.091672" stroke="#9ca3af" stroke-width="1"/><line x1="252.10434782608695" y1="129.0845592" x2="252.10434782608695" y2="151.157712" stroke="#9ca3af" stroke-width="1"/><line x1="258.6086956521739" y1="121.57936719999998" x2="258.6086956521739" y2="150.55812" stroke="#9ca3af" stroke-width="1"/><line x1="265.11304347826086" y1="116.392" x2="265.11304347826086" y2="156.896" stroke="#9ca3af" stroke-width="1"/><line x1="271.61739130434785" y1="136.7667072" x2="271.61739130434785" y2="147.6" stroke="#9ca3af" stroke-width="1"/><line x1="278.1217391304348" y1="134.4553232" x2="278.1217391304348" y2="158.888" stroke="#9ca3af" stroke-width="1"/><line x1="284.6260869565217" y1="133.4601864" x2="284.6260869565217" y2="166.0443928" stroke="#9ca3af" stroke-width="1"/><line x1="291.1304347826087" y1="138.6360664" x2="291.1304347826087" y2="167.852" stroke="#9ca3af" stroke-width="1"/><line x1="297.6347826086957" y1="140.0681152" x2="297.6347826086957" y2="166.1857584" stroke="#9ca3af" stroke-width="1"/><line x1="304.1391304347826" y1="144.3940088" x2="304.1391304347826" y2="166.856" stroke="#9ca3af" stroke-width="1"/><line x1="310.64347826086953" y1="152.2480664" x2="310.64347826086953" y2="183.031704" stroke="#9ca3af" stroke-width="1"/><line x1="317.1478260869565" y1="150.0593232" x2="317.1478260869565" y2="160.4776824" stroke="#9ca3af" stroke-width="1"/><line x1="323.6521739130435" y1="135.9462024" x2="323.6521739130435" y2="153.2693648" stroke="#9ca3af" stroke-width="1"/><line x1="330.1565217391304" y1="134.2998808" x2="330.1565217391304" y2="148.1311336" stroke="#9ca3af" stroke-width="1"/><line x1="336.66086956521735" y1="130.7909064" x2="336.66086956521735" y2="152.2479336" stroke="#9ca3af" stroke-width="1"/><line x1="343.16521739130434" y1="134.3781" x2="343.16521739130434" y2="159.594828" stroke="#9ca3af" stroke-width="1"/><line x1="349.6695652173913" y1="121.77863359999998" x2="349.6695652173913" y2="150.92" stroke="#9ca3af" stroke-width="1"/><line x1="356.17391304347825" y1="145.7261256" x2="356.17391304347825" y2="204.04" stroke="#9ca3af" stroke-width="1"/><line x1="362.67826086956524" y1="189.6784104" x2="362.67826086956524" y2="211.344" stroke="#9ca3af" stroke-width="1"/><line x1="369.18260869565216" y1="184.1267728" x2="369.18260869565216" y2="211.6096" stroke="#9ca3af" stroke-width="1"/><line x1="375.68695652173915" y1="177.4903584" x2="375.68695652173915" y2="192.088" stroke="#9ca3af" stroke-width="1"/><line x1="382.1913043478261" y1="179.6461672" x2="382.1913043478261" y2="207.36" stroke="#9ca3af" stroke-width="1"/><line x1="388.69565217391306" y1="177.7456" x2="388.69565217391306" y2="197.6258264" stroke="#9ca3af" stroke-width="1"/><line x1="395.2" y1="159.8722472" x2="395.2" y2="188.729488" stroke="#9ca3af" stroke-width="1"/><line x1="401.704347826087" y1="158.2240664" x2="401.704347826087" y2="171.3362072" stroke="#9ca3af" stroke-width="1"/><line x1="408.2086956521739" y1="154.675252" x2="408.2086956521739" y2="168.5367168" stroke="#9ca3af" stroke-width="1"/><line x1="414.7130434782609" y1="140.0888984" x2="414.7130434782609" y2="167.52" stroke="#9ca3af" stroke-width="1"/><line x1="421.2173913043478" y1="115.0640664" x2="421.2173913043478" y2="147.5312096" stroke="#9ca3af" stroke-width="1"/><line x1="427.7217391304348" y1="129.008" x2="427.7217391304348" y2="142.5214624" stroke="#9ca3af" stroke-width="1"/><line x1="434.2260869565217" y1="102.38159999999999" x2="434.2260869565217" y2="138.9679336" stroke="#9ca3af" stroke-width="1"/><line x1="440.7304347826087" y1="98.464" x2="440.7304347826087" y2="156.232" stroke="#9ca3af" stroke-width="1"/><line x1="447.23478260869564" y1="140.78736" x2="447.23478260869564" y2="167.0242576" stroke="#9ca3af" stroke-width="1"/><line x1="453.7391304347826" y1="153.355884" x2="453.7391304347826" y2="165.2528384" stroke="#9ca3af" stroke-width="1"/><line x1="460.24347826086955" y1="148.3034416" x2="460.24347826086955" y2="163.7206584" stroke="#9ca3af" stroke-width="1"/><line x1="466.74782608695654" y1="156.0116184" x2="466.74782608695654" y2="184.5832728" stroke="#9ca3af" stroke-width="1"/><line x1="473.25217391304346" y1="154.904" x2="473.25217391304346" y2="202.7784" stroke="#9ca3af" stroke-width="1"/><line x1="479.75652173913045" y1="186.0599424" x2="479.75652173913045" y2="209.0386584" stroke="#9ca3af" stroke-width="1"/><line x1="486.2608695652174" y1="183.4884032" x2="486.2608695652174" y2="204.04" stroke="#9ca3af" stroke-width="1"/><line x1="492.76521739130436" y1="164.5984664" x2="492.76521739130436" y2="205.4438288" stroke="#9ca3af" stroke-width="1"/><line x1="499.2695652173913" y1="169.512" x2="499.2695652173913" y2="192.088" stroke="#9ca3af" stroke-width="1"/><line x1="505.7739130434783" y1="181.0797432" x2="505.7739130434783" y2="220.64" stroke="#9ca3af" stroke-width="1"/><line x1="512.2782608695652" y1="196.1458368" x2="512.2782608695652" y2="235.0851208" stroke="#9ca3af" stroke-width="1"/><line x1="518.7826086956522" y1="208.7543336" x2="518.7826086956522" y2="245.208" stroke="#9ca3af" stroke-width="1"/><line x1="525.2869565217391" y1="201.9128096" x2="525.2869565217391" y2="223.5608696" stroke="#9ca3af" stroke-width="1"/><line x1="531.7913043478261" y1="198.5321864" x2="531.7913043478261" y2="221.968" stroke="#9ca3af" stroke-width="1"/><line x1="538.295652173913" y1="207.5131184" x2="538.295652173913" y2="256.7118664" stroke="#9ca3af" stroke-width="1"/><line x1="544.8" y1="243.6397648" x2="544.8" y2="257.46099119999997" stroke="#9ca3af" stroke-width="1"/><line x1="551.304347826087" y1="238.2118304" x2="551.304347826087" y2="252.1610096" stroke="#9ca3af" stroke-width="1"/><line x1="557.8086956521739" y1="234.4047864" x2="557.8086956521739" y2="259.9713096" stroke="#9ca3af" stroke-width="1"/><line x1="564.3130434782609" y1="211.6153104" x2="564.3130434782609" y2="242.6037256" stroke="#9ca3af" stroke-width="1"/><line x1="570.8173913043479" y1="202.7120664" x2="570.8173913043479" y2="219.0315928" stroke="#9ca3af" stroke-width="1"/><line x1="577.3217391304347" y1="197.317" x2="577.3217391304347" y2="227.5455336" stroke="#9ca3af" stroke-width="1"/><line x1="583.8260869565217" y1="195.408" x2="583.8260869565217" y2="230.1691968" stroke="#9ca3af" stroke-width="1"/><line x1="590.3304347826087" y1="218.648" x2="590.3304347826087" y2="229.936" stroke="#9ca3af" stroke-width="1"/><line x1="596.8347826086956" y1="209.3438328" x2="596.8347826086956" y2="228.7550096" stroke="#9ca3af" stroke-width="1"/><line x1="603.3391304347826" y1="202.41154" x2="603.3391304347826" y2="219.6750088" stroke="#9ca3af" stroke-width="1"/><line x1="609.8434782608696" y1="202.3978616" x2="609.8434782608696" y2="224.2167688" stroke="#9ca3af" stroke-width="1"/><line x1="616.3478260869565" y1="191.424" x2="616.3478260869565" y2="222.056644" stroke="#9ca3af" stroke-width="1"/><line x1="622.8521739130434" y1="178.808" x2="622.8521739130434" y2="196.7434368" stroke="#9ca3af" stroke-width="1"/><line x1="629.3565217391305" y1="165.5119312" x2="629.3565217391305" y2="180.8" stroke="#9ca3af" stroke-width="1"/><line x1="635.8608695652174" y1="169.04056" x2="635.8608695652174" y2="180.0399192" stroke="#9ca3af" stroke-width="1"/><line x1="642.3652173913043" y1="170.4194888" x2="642.3652173913043" y2="178.63536" stroke="#9ca3af" stroke-width="1"/><line x1="648.8695652173913" y1="165.6473208" x2="648.8695652173913" y2="188.434672" stroke="#9ca3af" stroke-width="1"/><line x1="655.3739130434783" y1="170.8491632" x2="655.3739130434783" y2="187.44" stroke="#9ca3af" stroke-width="1"/><line x1="661.8782608695652" y1="165.1614056" x2="661.8782608695652" y2="193.084" stroke="#9ca3af" stroke-width="1"/><line x1="668.3826086956522" y1="149.6512288" x2="668.3826086956522" y2="174.649368" stroke="#9ca3af" stroke-width="1"/><line x1="674.8869565217391" y1="153.2072144" x2="674.8869565217391" y2="164.7463392" stroke="#9ca3af" stroke-width="1"/>
  <rect x="93.50666666666666" y="315.418696" width="4.986666666666667" height="11.237934399999972" fill="#ef4444"/><rect x="100.01101449275362" y="289.0393704" width="4.986666666666667" height="37.61725999999999" fill="#16a34a"/><rect x="106.51536231884057" y="288.6573048" width="4.986666666666667" height="1" fill="#16a34a"/><rect x="113.01971014492753" y="277.7439336" width="4.986666666666667" height="10.690466399999991" fill="#16a34a"/><rect x="119.52405797101449" y="277.7439336" width="4.986666666666667" height="2.7224664000000303" fill="#ef4444"/><rect x="126.02840579710144" y="279.94728480000003" width="4.986666666666667" height="1" fill="#16a34a"/><rect x="132.5327536231884" y="277.6605352" width="4.986666666666667" height="2.2867496000000074" fill="#16a34a"/><rect x="139.03710144927535" y="269.6460552" width="4.986666666666667" height="8.014480000000049" fill="#16a34a"/><rect x="145.5414492753623" y="269.6460552" width="4.986666666666667" height="15.13481760000002" fill="#ef4444"/><rect x="152.04579710144927" y="284.7331976" width="4.986666666666667" height="16.09868" fill="#ef4444"/><rect x="158.55014492753622" y="276.033536" width="4.986666666666667" height="24.798341599999958" fill="#16a34a"/><rect x="165.05449275362318" y="259.224044" width="4.986666666666667" height="16.809492000000034" fill="#16a34a"/><rect x="171.55884057971014" y="259.224044" width="4.986666666666667" height="10.57353599999999" fill="#ef4444"/><rect x="178.0631884057971" y="269.5245432" width="4.986666666666667" height="1" fill="#16a34a"/><rect x="184.56753623188405" y="260.4717664" width="4.986666666666667" height="9.053042400000038" fill="#16a34a"/><rect x="191.071884057971" y="259.309368" width="4.986666666666667" height="1.170565599999975" fill="#16a34a"/><rect x="197.57623188405796" y="248.527668" width="4.986666666666667" height="10.78176639999998" fill="#16a34a"/><rect x="204.08057971014492" y="232.592" width="4.986666666666667" height="15.935667999999993" fill="#16a34a"/><rect x="210.58492753623187" y="187.4400664" width="4.986666666666667" height="45.15193360000001" fill="#16a34a"/><rect x="217.08927536231883" y="163.3708632" width="4.986666666666667" height="24.069136799999995" fill="#16a34a"/><rect x="223.5936231884058" y="162.4113168" width="4.986666666666667" height="1" fill="#16a34a"/><rect x="230.09797101449274" y="147.2564464" width="4.986666666666667" height="15.154804000000013" fill="#16a34a"/><rect x="236.6023188405797" y="132.886756" width="4.986666666666667" height="14.369624000000016" fill="#16a34a"/><rect x="243.10666666666665" y="132.8866896" width="4.986666666666667" height="12.4762944" fill="#ef4444"/><rect x="249.6110144927536" y="143.7914952" width="4.986666666666667" height="1.5714223999999888" fill="#16a34a"/><rect x="256.11536231884054" y="135.5950792" width="4.986666666666667" height="8.196416000000028" fill="#16a34a"/><rect x="262.6197101449275" y="135.5951456" width="4.986666666666667" height="9.565716800000018" fill="#ef4444"/><rect x="269.1240579710145" y="143.5312072" width="4.986666666666667" height="1.6295887999999934" fill="#16a34a"/><rect x="275.62840579710144" y="143.5312072" width="4.986666666666667" height="8.427753599999988" fill="#ef4444"/><rect x="282.13275362318836" y="151.9589608" width="4.986666666666667" height="6.4514904000000115" fill="#ef4444"/><rect x="288.63710144927535" y="140.0388992" width="4.986666666666667" height="18.37155200000001" fill="#16a34a"/><rect x="295.14144927536233" y="140.0681152" width="4.986666666666667" height="13.5078848" fill="#ef4444"/><rect x="301.64579710144926" y="153.538816" width="4.986666666666667" height="1" fill="#ef4444"/><rect x="308.1501449275362" y="154.174264" width="4.986666666666667" height="1.653891200000004" fill="#ef4444"/><rect x="314.6544927536232" y="152.1556376" width="4.986666666666667" height="3.6724511999999834" fill="#16a34a"/><rect x="321.15884057971016" y="138.6480848" width="4.986666666666667" height="13.507552800000013" fill="#16a34a"/><rect x="327.6631884057971" y="138.4205984" width="4.986666666666667" height="4.811476800000008" fill="#ef4444"/><rect x="334.167536231884" y="143.0761016" width="4.986666666666667" height="1.2249472000000026" fill="#ef4444"/><rect x="340.671884057971" y="140.4254136" width="4.986666666666667" height="3.8755687999999964" fill="#16a34a"/><rect x="347.176231884058" y="140.4253472" width="4.986666666666667" height="7.6563184000000035" fill="#ef4444"/><rect x="353.6805797101449" y="148.081732" width="4.986666666666667" height="50.38976480000002" fill="#ef4444"/><rect x="360.1849275362319" y="198.4714968" width="4.986666666666667" height="8.100534399999987" fill="#ef4444"/><rect x="366.6892753623188" y="189.2896384" width="4.986666666666667" height="17.282392799999997" fill="#16a34a"/><rect x="373.1936231884058" y="184.784" width="4.986666666666667" height="4.505638400000009" fill="#16a34a"/><rect x="379.69797101449274" y="184.8786864" width="4.986666666666667" height="4.782858400000009" fill="#ef4444"/><rect x="386.2023188405797" y="184.251804" width="4.986666666666667" height="5.409740800000009" fill="#16a34a"/><rect x="392.70666666666665" y="163.5620288" width="4.986666666666667" height="20.690704799999992" fill="#16a34a"/><rect x="399.21101449275363" y="163.5620288" width="4.986666666666667" height="2.0596615999999983" fill="#ef4444"/><rect x="405.71536231884056" y="165.6216904" width="4.986666666666667" height="1" fill="#ef4444"/><rect x="412.21971014492755" y="140.296" width="4.986666666666667" height="26.303297600000008" fill="#16a34a"/><rect x="418.7240579710145" y="140.2959336" width="4.986666666666667" height="1" fill="#ef4444"/><rect x="425.22840579710146" y="130.3359336" width="4.986666666666667" height="10.955999999999989" fill="#16a34a"/><rect x="431.7327536231884" y="105.47066080000002" width="4.986666666666667" height="24.865272799999985" fill="#16a34a"/><rect x="438.2371014492754" y="105.23347999999999" width="4.986666666666667" height="40.36874320000001" fill="#ef4444"/><rect x="444.7414492753623" y="145.6022232" width="4.986666666666667" height="13.523090400000001" fill="#ef4444"/><rect x="451.2457971014493" y="159.1253136" width="4.986666666666667" height="1" fill="#ef4444"/><rect x="457.7501449275362" y="157.8919336" width="4.986666666666667" height="1.46465120000002" fill="#16a34a"/><rect x="464.2544927536232" y="157.8919336" width="4.986666666666667" height="8.555374400000005" fill="#ef4444"/><rect x="470.7588405797101" y="166.4473744" width="4.986666666666667" height="34.4452656" fill="#ef4444"/><rect x="477.2631884057971" y="189.1044488" width="4.986666666666667" height="11.7881912" fill="#16a34a"/><rect x="483.76753623188404" y="189.1045152" width="4.986666666666667" height="10.560720799999984" fill="#ef4444"/><rect x="490.271884057971" y="169.9768664" width="4.986666666666667" height="29.688369599999987" fill="#16a34a"/><rect x="496.77623188405795" y="169.9768" width="4.986666666666667" height="13.264993599999997" fill="#ef4444"/><rect x="503.28057971014493" y="183.2417936" width="4.986666666666667" height="15.136411199999998" fill="#ef4444"/><rect x="509.78492753623186" y="198.3782048" width="4.986666666666667" height="26.780647200000004" fill="#ef4444"/><rect x="516.2892753623189" y="214.131804" width="4.986666666666667" height="11.0269816" fill="#16a34a"/><rect x="522.7936231884057" y="214.131804" width="4.986666666666667" height="6.211122400000022" fill="#ef4444"/><rect x="529.2979710144928" y="209.6840664" width="4.986666666666667" height="10.658860000000004" fill="#16a34a"/><rect x="535.8023188405797" y="209.6840664" width="4.986666666666667" height="37.51593359999998" fill="#ef4444"/><rect x="542.3066666666666" y="244.9597968" width="4.986666666666667" height="2.240136800000016" fill="#16a34a"/><rect x="548.8110144927537" y="244.9598632" width="4.986666666666667" height="5.913384799999989" fill="#ef4444"/><rect x="555.3153623188406" y="240.8065432" width="4.986666666666667" height="10.066704799999997" fill="#16a34a"/><rect x="561.8197101449275" y="212.5278456" width="4.986666666666667" height="28.278763999999995" fill="#16a34a"/><rect x="568.3240579710146" y="211.3469216" width="4.986666666666667" height="1" fill="#16a34a"/><rect x="574.8284057971014" y="211.3468552" width="4.986666666666667" height="5.335771200000011" fill="#ef4444"/><rect x="581.3327536231884" y="216.3902672" width="4.986666666666667" height="8.683659199999994" fill="#ef4444"/><rect x="587.8371014492753" y="225.0739264" width="4.986666666666667" height="3.681016800000009" fill="#ef4444"/><rect x="594.3414492753623" y="213.849604" width="4.986666666666667" height="14.905339200000014" fill="#16a34a"/><rect x="600.8457971014493" y="212.008" width="4.986666666666667" height="2.200495999999987" fill="#16a34a"/><rect x="607.3501449275362" y="212.008" width="4.986666666666667" height="4.2610871999999915" fill="#ef4444"/><rect x="613.8544927536232" y="193.2897736" width="4.986666666666667" height="22.97931360000001" fill="#16a34a"/><rect x="620.3588405797101" y="178.898636" width="4.986666666666667" height="14.391137599999979" fill="#16a34a"/><rect x="626.8631884057971" y="170.5951168" width="4.986666666666667" height="8.30351920000001" fill="#16a34a"/><rect x="633.3675362318841" y="170.5951168" width="4.986666666666667" height="1.9655727999999897" fill="#ef4444"/><rect x="639.871884057971" y="172.5606232" width="4.986666666666667" height="4.193292799999995" fill="#ef4444"/><rect x="646.3762318840579" y="176.7539824" width="4.986666666666667" height="1.4439343999999892" fill="#ef4444"/><rect x="652.880579710145" y="172.6360536" width="4.986666666666667" height="5.561863200000005" fill="#16a34a"/><rect x="659.3849275362319" y="172.221784" width="4.986666666666667" height="1" fill="#16a34a"/><rect x="665.8892753623188" y="157.4885536" width="4.986666666666667" height="14.733230400000025" fill="#16a34a"/><rect x="672.3936231884057" y="157.48862" width="4.986666666666667" height="4.535385600000012" fill="#ef4444"/>
        <path d="M -860.1391304347826,269.905209088 L -853.6347826086957,268.29248323200005 L -847.1304347826087,267.235219936 L -840.6260869565217,265.364062624 L -834.1217391304348,263.50896083200007 L -827.6173913043478,263.96480214400003 L -821.1130434782609,263.25069670399995 L -814.6086956521739,262.8760864960001 L -808.104347826087,259.8914304 L -801.6,259.539951296 L -795.0956521739131,259.882158304 L -788.591304347826,260.65974745599993 L -782.0869565217391,261.20386623999997 L -775.5826086956522,262.90579916799993 L -769.0782608695653,265.59102047999994 L -762.5739130434782,267.5358711679999 L -756.0695652173913,271.78364915199995 L -749.5652173913044,275.1035854080001 L -743.0608695652174,277.99847136000005 L -736.5565217391304,280.826038336 L -730.0521739130435,285.09546803200004 L -723.5478260869565,289.30240736 L -717.0434782608696,293.878458976 L -710.5391304347826,298.761536224 L -704.0347826086957,303.33761174400007 L -697.5304347826087,306.809131232 L -691.0260869565218,310.6512424 L -684.5217391304348,314.29062108799997 L -678.0173913043478,318.94292380800005 L -671.5130434782609,325.44117043200004 L -665.008695652174,332.635939776 L -658.5043478260869,340.972504928 L -652,347.6056391679999 L -645.4956521739131,355.87476316799996 L -638.991304347826,361.588756736 L -632.4869565217391,363.05088739199994 L -625.9826086956522,367.65873664 L -619.4782608695652,371.8693784320001 L -612.9739130434782,374.8326856 L -606.4695652173913,378.35622019199997 L -599.9652173913043,383.548511616 L -593.4608695652174,388.60635897599997 L -586.9565217391304,397.02588163200005 L -580.4521739130435,405.63287539199996 L -573.9478260869565,412.44157654400004 L -567.4434782608696,418.99624192000005 L -560.9391304347826,425.99686563200004 L -554.4347826086956,431.381082272 L -547.9304347826087,436.60353523200007 L -541.4260869565218,442.79536976 L -534.9217391304347,448.50474454400006 L -528.4173913043478,453.91000998400006 L -521.9130434782609,457.9472999679999 L -515.408695652174,462.85993584 L -508.9043478260869,465.9235335679999 L -502.4,467.82424684800003 L -495.89565217391305,466.87207616 L -489.3913043478261,465.63338947200003 L -482.8869565217391,464.449164064 L -476.38260869565215,464.12935510399996 L -469.8782608695652,466.94669647999996 L -463.3739130434783,467.60499404800004 L -456.86956521739125,469.43363676799993 L -450.3652173913043,472.58753849600004 L -443.8608695652174,475.15218272000004 L -437.35652173913047,475.41677875199997 L -430.85217391304343,476.84698960000003 L -424.3478260869565,476.190012064 L -417.8434782608696,474.212620064 L -411.3391304347826,474.294124736 L -404.83478260869566,477.06974832000003 L -398.3304347826087,477.9304516799999 L -391.82608695652175,481.619643648 L -385.32173913043476,482.679177824 L -378.81739130434784,484.9491919679999 L -372.31304347826085,486.523697984 L -365.8086956521739,486.90569452799997 L -359.30434782608694,489.25099830399995 L -352.8,490.31805427200004 L -346.295652173913,491.80059894400006 L -339.7913043478261,493.34318249600005 L -333.2869565217391,495.380461984 L -326.7826086956522,498.435504736 L -320.2782608695652,501.070981824 L -313.7739130434783,503.79089315199997 L -307.2695652173913,505.96118512000004 L -300.76521739130436,504.223239488 L -294.2608695652174,501.47765792000007 L -287.75652173913045,498.540196288 L -281.25217391304346,495.241215872 L -274.74782608695654,492.97205164800005 L -268.24347826086955,489.606721696 L -261.7391304347826,485.95366992000004 L -255.23478260869564,482.90438803200004 L -248.7304347826087,479.62686543999996 L -242.22608695652173,472.55028012799994 L -235.7217391304348,466.2745080320001 L -229.2173913043478,458.79684812799997 L -222.7130434782609,454.82026899199997 L -216.2086956521739,449.002710016 L -209.70434782608697,443.97045056 L -203.2,439.35124956799996 L -196.69565217391306,431.341476 L -190.19130434782608,423.865106912 L -183.68695652173915,415.3139768 L -177.18260869565216,406.687591584 L -170.67826086956524,398.29113894400007 L -164.17391304347825,389.445620448 L -157.6695652173913,381.277010112 L -151.16521739130434,373.11547536 L -144.66086956521738,365.7887373440001 L -138.15652173913043,361.153039936 L -131.65217391304347,355.71863286399997 L -125.14782608695651,350.75944527999997 L -118.64347826086956,346.010814752 L -112.1391304347826,340.35014038400004 L -105.63478260869564,333.50256601599995 L -99.13043478260869,328.808752672 L -92.62608695652173,323.6221504 L -86.12173913043478,318.06397904 L -79.61739130434782,313.86424278400006 L -73.11304347826086,309.50108019199996 L -66.6086956521739,304.752197344 L -60.10434782608695,300.64825238400005 L -53.599999999999994,297.01935958400003 L -47.09565217391304,293.72959283200004 L -40.59130434782608,290.434649536 L -34.086956521739125,290.31062496000004 L -27.58260869565217,289.69435859199996 L -21.078260869565213,290.32029014400007 L -14.573913043478257,291.8076528 L -8.0695652173913,292.24754217599997 L -1.5652173913043441,292.500255264 L 4.939130434782612,292.32097792 L 11.443478260869568,290.34619145599993 L 17.947826086956525,288.146970336 L 24.45217391304348,286.47627728 L 30.956521739130437,287.26593263999996 L 37.46086956521739,287.24777356799996 L 43.96521739130435,287.77863360000003 L 50.469565217391306,289.045473888 L 56.97391304347826,290.72709904 L 63.47826086956522,290.90948921599994 L 69.98260869565217,291.42426185599993 L 76.48695652173913,292.417898016 L 82.99130434782609,293.74539072000005 L 89.49565217391304,295.734609888 L 96,298.20734854400007 L 102.50434782608696,297.80966832000007 L 109.00869565217391,296.83844614400005 L 115.51304347826087,295.72522889600003 L 122.01739130434783,295.011946816 L 128.52173913043478,293.95841254400005 L 135.02608695652174,293.013832704 L 141.5304347826087,291.240620704 L 148.03478260869565,289.116057088 L 154.5391304347826,288.88990665599994 L 161.04347826086956,288.14420809600006 L 167.54782608695652,286.6916018559999 L 174.05217391304348,287.31320147200006 L 180.55652173913043,288.076618208 L 187.0608695652174,287.813575936 L 193.56521739130434,286.14659065599994 L 200.0695652173913,284.388305376 L 206.57391304347826,281.750533504 L 213.0782608695652,277.45057043200006 L 219.58260869565217,272.620060736 L 226.08695652173913,267.240045888 L 232.59130434782608,261.18117603200005 L 239.09565217391304,254.557948672 L 245.6,248.202313312 L 252.10434782608695,241.337227936 L 258.6086956521739,233.69476588799998 L 265.11304347826086,227.93962556799994 L 271.61739130434785,222.134581664 L 278.1217391304348,217.10318275199998 L 284.6260869565217,212.2209448 L 291.1304347826087,206.624609376 L 297.6347826086957,201.66122796799993 L 304.1391304347826,197.04235632000004 L 310.64347826086953,191.88424761600007 L 317.1478260869565,185.93719801600008 L 323.6521739130435,180.44177996800008 L 330.1565217391304,175.80210121600007 L 336.66086956521735,170.78223996800008 L 343.16521739130434,165.6182747839999 L 349.6695652173913,161.122670752 L 356.17391304347825,158.68915590399996 L 362.67826086956524,157.01093043199992 L 369.18260869565216,155.27883596800007 L 375.68695652173915,155.1725933119999 L 382.1913043478261,156.22422057599996 L 388.69565217391306,157.09784006400014 L 395.2,157.7500633599999 L 401.704347826087,159.05946073599986 L 408.2086956521739,159.90891327999998 L 414.7130434782609,159.76909347200004 L 421.2173913043478,159.99697030399994 L 427.7217391304348,159.403973152 L 434.2260869565217,157.88155129600005 L 440.7304347826087,157.6272817920001 L 447.23478260869564,157.65587628800012 L 453.7391304347826,158.4285837119999 L 460.24347826086955,158.60122105599996 L 466.74782608695654,159.0921428160001 L 473.25217391304346,160.8947222079999 L 479.75652173913045,162.37267465599996 L 486.2608695652174,164.81336070399996 L 492.76521739130436,165.88315235199997 L 499.2695652173913,167.44078214400005 L 505.7739130434783,169.75889379200007 L 512.2782608695652,172.84198124800002 L 518.7826086956522,173.4683935359999 L 525.2869565217391,174.01922934400005 L 531.7913043478261,174.83500646400012 L 538.295652173913,177.3316464640001 L 544.8,179.54357654400005 L 551.304347826087,182.20843430399995 L 557.8086956521739,185.29821487999996 L 564.3130434782609,187.1744610880001 L 570.8173913043479,188.96436604800002 L 577.3217391304347,192.01983110399996 L 583.8260869565217,195.3711081599999 L 590.3304347826087,199.30786854400006 L 596.8347826086956,203.64302627200001 L 603.3391304347826,206.29925734400004 L 609.8434782608696,208.58500828799998 L 616.3478260869565,209.94233584 L 622.8521739130434,210.78260393600002 L 629.3565217391305,210.94851628799998 L 635.8608695652174,209.81523827200002 L 642.3652173913043,209.32121696000002 L 648.8695652173913,208.46252419199996 L 655.3739130434783,208.56889167999995 L 661.8782608695652,208.12809129600006 L 668.3826086956522,206.49250524800001 L 674.8869565217391,203.96711139199996" fill="none" stroke="#3b82f6" stroke-width="2" /><path d="M -534.9217391304347,341.739695176 L -528.4173913043478,344.28457876000004 L -521.9130434782609,346.49104677599996 L -515.408695652174,349.055640536 L -508.9043478260869,351.62455494400007 L -502.4,354.80832936799993 L -495.89565217391305,357.031759264 L -489.3913043478261,358.7050386 L -482.8869565217391,360.0717856559999 L -476.38260869565215,361.752687712 L -469.8782608695652,363.29324739199996 L -463.3739130434783,365.30782604800004 L -456.86956521739125,367.50229359199994 L -450.3652173913043,370.1086742 L -443.8608695652174,373.033141352 L -437.35652173913047,375.5003874 L -430.85217391304343,379.078999464 L -424.3478260869565,382.77315947999995 L -417.8434782608696,385.94798916 L -411.3391304347826,389.18724676000005 L -404.83478260869566,393.720486312 L -398.3304347826087,397.74324133600004 L -391.82608695652175,402.29306163200005 L -385.32173913043476,406.01474976000003 L -378.81739130434784,410.360724712 L -372.31304347826085,413.94585792000004 L -365.8086956521739,417.15564919199994 L -359.30434782608694,420.49630623200005 L -352.8,424.04030464 L -346.295652173913,427.721767648 L -339.7913043478261,431.26778992799996 L -333.2869565217391,434.408347912 L -326.7826086956522,437.22484467999993 L -320.2782608695652,440.464969464 L -313.7739130434783,443.16966855199996 L -307.2695652173913,445.319589664 L -300.76521739130436,446.49565650399995 L -294.2608695652174,447.593557928 L -287.75652173913045,448.65347324 L -281.25217391304346,449.58320604 L -274.74782608695654,450.645780672 L -268.24347826086955,451.686690312 L -261.7391304347826,453.05652098400003 L -255.23478260869564,454.249961384 L -248.7304347826087,455.45418912799994 L -242.22608695652173,456.20542345599995 L -235.7217391304348,456.73394156 L -229.2173913043478,457.265858016 L -222.7130434782609,458.034327128 L -216.2086956521739,458.91575724800003 L -209.70434782608697,459.666297696 L -203.2,460.05565136 L -196.69565217391306,459.513258312 L -190.19130434782608,459.0143658960001 L -183.68695652173915,457.679369992 L -177.18260869565216,455.951673864 L -170.67826086956524,453.51455880800006 L -164.17391304347825,451.171504664 L -157.6695652173913,448.932385112 L -151.16521739130434,447.01190787200005 L -144.66086956521738,446.23220653600004 L -138.15652173913043,444.327090936 L -131.65217391304347,442.209976072 L -125.14782608695651,440.6290598 L -118.64347826086956,438.801404448 L -112.1391304347826,436.246323816 L -105.63478260869564,433.318759104 L -99.13043478260869,430.31747843999995 L -92.62608695652173,426.91305283200006 L -86.12173913043478,423.99498996 L -79.61739130434782,421.16142374400005 L -73.11304347826086,417.90201307999996 L -66.6086956521739,415.056229928 L -60.10434782608695,412.715899512 L -53.599999999999994,410.32375385599994 L -47.09565217391304,408.07458067999994 L -40.59130434782608,405.56386454400007 L -34.086956521739125,403.6343662 L -27.58260869565217,401.29250659199994 L -21.078260869565213,399.14495529600003 L -14.573913043478257,397.279475848 L -8.0695652173913,395.30638125599995 L -1.5652173913043441,393.460459928 L 4.939130434782612,391.55632306399997 L 11.443478260869568,389.08418665599993 L 17.947826086956525,386.6322976 L 24.45217391304348,383.95085245599995 L 30.956521739130437,381.48740780800006 L 37.46086956521739,378.8491386 L 43.96521739130435,376.34355452000005 L 50.469565217391306,374.12255552799996 L 56.97391304347826,371.278795584 L 63.47826086956522,368.55730393600004 L 69.98260869565217,365.98360009600003 L 76.48695652173913,363.36958083200005 L 82.99130434782609,360.05330454400007 L 89.49565217391304,357.170065816 L 96,353.91879778400005 L 102.50434782608696,351.09273012000006 L 109.00869565217391,347.620172136 L 115.51304347826087,344.475090984 L 122.01739130434783,341.59928175199997 L 128.52173913043478,338.53683805599997 L 135.02608695652174,335.524432736 L 141.5304347826087,332.291629216 L 148.03478260869565,329.203766936 L 154.5391304347826,326.47619570399996 L 161.04347826086956,323.363361048 L 167.54782608695652,320.096530184 L 174.05217391304348,316.924956096 L 180.55652173913043,314.00410840800004 L 187.0608695652174,311.81429749600005 L 193.56521739130434,309.710385608 L 200.0695652173913,307.46517452000006 L 206.57391304347826,305.17999395199996 L 213.0782608695652,302.28206156799996 L 219.58260869565217,298.949908376 L 226.08695652173913,295.65276259199993 L 232.59130434782608,292.075862984 L 239.09565217391304,288.346608576 L 245.6,285.27064916 L 252.10434782608695,282.19097267200004 L 258.6086956521739,278.884770592 L 265.11304347826086,275.465848536 L 271.61739130434785,271.99746246399997 L 278.1217391304348,268.85266816 L 284.6260869565217,265.88918038400004 L 291.1304347826087,263.631215848 L 297.6347826086957,261.456473088 L 304.1391304347826,259.53442216799994 L 310.64347826086953,257.6026522799999 L 317.1478260869565,255.691548728 L 323.6521739130435,253.695414664 L 330.1565217391304,251.60489366399997 L 336.66086956521735,249.48054452000005 L 343.16521739130434,247.280620888 L 349.6695652173913,245.13750776799995 L 356.17391304347825,244.033893288 L 362.67826086956524,242.88233667999995 L 369.18260869565216,241.60266791200002 L 375.68695652173915,240.55621254400006 L 382.1913043478261,239.85712678400003 L 388.69565217391306,238.41579194400006 L 395.2,236.78516730399994 L 401.704347826087,235.34510269600005 L 408.2086956521739,233.95220599199996 L 414.7130434782609,232.28031043200008 L 421.2173913043478,230.633028024 L 427.7217391304348,228.38442256799993 L 434.2260869565217,225.61819325599996 L 440.7304347826087,223.48523136799994 L 447.23478260869564,221.62958907999996 L 453.7391304347826,219.67053543200007 L 460.24347826086955,217.758760576 L 466.74782608695654,215.79170639199995 L 473.25217391304346,213.96500919199997 L 479.75652173913045,212.399926664 L 486.2608695652174,211.13311625599994 L 492.76521739130436,209.45895180800005 L 499.2695652173913,208.51207452799997 L 505.7739130434783,207.817928928 L 512.2782608695652,207.259409312 L 518.7826086956522,206.10138003200007 L 525.2869565217391,205.13948838400003 L 531.7913043478261,203.9547922 L 538.295652173913,203.31826984800003 L 544.8,202.79595283999998 L 551.304347826087,202.18210675199998 L 557.8086956521739,201.409818312 L 564.3130434782609,200.26395683200008 L 570.8173913043479,199.02519776799994 L 577.3217391304347,197.70871750399994 L 583.8260869565217,196.354281672 L 590.3304347826087,195.55048908800012 L 596.8347826086956,194.55305285599994 L 603.3391304347826,193.67657418399992 L 609.8434782608696,192.82060979200008 L 616.3478260869565,191.6651760880001 L 622.8521739130434,190.3483512079999 L 629.3565217391305,189.02767180799992 L 635.8608695652174,187.53140292000006 L 642.3652173913043,185.87702965599993 L 648.8695652173913,184.572555176 L 655.3739130434783,183.4180484160001 L 661.8782608695652,182.117038024 L 668.3826086956522,180.62322460799993 L 674.8869565217391,179.310587576" fill="none" stroke="#f59e0b" stroke-width="2" /><path d="M 278.1217391304348,345.283904736 L 284.6260869565217,344.59727760800007 L 291.1304347826087,343.86990810399993 L 297.6347826086957,343.21493783999995 L 304.1391304347826,342.57393813600004 L 310.64347826086953,342.157965376 L 317.1478260869565,341.480190696 L 323.6521739130435,340.63531045599996 L 330.1565217391304,339.672254152 L 336.66086956521735,338.825757736 L 343.16521739130434,337.93394132799995 L 349.6695652173913,337.089035192 L 356.17391304347825,336.47560609600004 L 362.67826086956524,336.03408394400003 L 369.18260869565216,335.644932136 L 375.68695652173915,335.18649856799993 L 382.1913043478261,334.989708224 L 388.69565217391306,334.79115960800004 L 395.2,334.3407511440001 L 401.704347826087,333.91098644 L 408.2086956521739,333.6790751440001 L 414.7130434782609,333.2307808559999 L 421.2173913043478,332.79091405599996 L 427.7217391304348,332.333254712 L 434.2260869565217,331.74485310399996 L 440.7304347826087,331.249163824 L 447.23478260869564,330.76770140800005 L 453.7391304347826,330.26907857599997 L 460.24347826086955,329.869582976 L 466.74782608695654,329.521836216 L 473.25217391304346,329.27420472000006 L 479.75652173913045,328.87043760800003 L 486.2608695652174,328.37747006399997 L 492.76521739130436,327.92121906399996 L 499.2695652173913,327.31336225599995 L 505.7739130434783,326.66853326399996 L 512.2782608695652,326.11181441599996 L 518.7826086956522,325.508672008 L 525.2869565217391,324.923263048 L 531.7913043478261,324.30043038400004 L 538.295652173913,323.91097114400003 L 544.8,323.4596994799999 L 551.304347826087,323.17926572000005 L 557.8086956521739,322.75321875199995 L 564.3130434782609,322.204539616 L 570.8173913043479,321.662687064 L 577.3217391304347,321.07045816000004 L 583.8260869565217,320.477495536 L 590.3304347826087,319.90154592000005 L 596.8347826086956,319.28302925599996 L 603.3391304347826,318.68542925599996 L 609.8434782608696,318.00942214400004 L 616.3478260869565,317.2255422559999 L 622.8521739130434,316.34954299199995 L 629.3565217391305,315.210254448 L 635.8608695652174,313.9216170320001 L 642.3652173913043,312.41402694400006 L 648.8695652173913,310.98458036 L 655.3739130434783,309.507985128 L 661.8782608695652,308.13077874400005 L 668.3826086956522,307.09873483200005 L 674.8869565217391,305.65036159199997" fill="none" stroke="#10b981" stroke-width="2" />
      </g>
      <g class="legend">
        <g font-size="12" fill="#e5e7eb"><g transform="translate(96, 30)">
        <rect y="-10" width="12" height="12" fill="#3b82f6"></rect>
        <text x="16" y="0">SMA 25</text>
      </g><g transform="translate(226, 30)">
        <rect y="-10" width="12" height="12" fill="#f59e0b"></rect>
        <text x="16" y="0">SMA 75</text>
      </g><g transform="translate(356, 30)">
        <rect y="-10" width="12" height="12" fill="#10b981"></rect>
        <text x="16" y="0">SMA 200</text>
      </g><g transform="translate(486, 30)">
        <rect y="-10" width="12" height="12" fill="#3b82f6"></rect>
        <text x="16" y="0">BB 2</text>
      </g></g>
      </g>
    </svg>
  