
    <svg width="860" height="420" viewBox="0 0 860 420" xmlns="http://www.w3.org/2000/svg" style="background-color: #1f2937; color: #e5e7eb; font-family: sans-serif;">
      <title>BTC/JPY 1day chart</title>
      <defs>
        <clipPath id="plotArea">
          <rect x="96" y="48" width="748" height="332"/>
        </clipPath>
      </defs>
      <g class="axes">
        
    <line x1="96" y1="48" x2="96" y2="380" stroke="#4b5563" stroke-width="1"/>
    <g font-size="12" fill="#e5e7eb">
      <text x="88" y="380" text-anchor="end" dominant-baseline="middle">14,000,000</text><text x="88" y="313.6" text-anchor="end" dominant-baseline="middle">15,000,000</text><text x="88" y="247.2" text-anchor="end" dominant-baseline="middle">16,000,000</text><text x="88" y="180.8" text-anchor="end" dominant-baseline="middle">17,000,000</text><text x="88" y="114.39999999999998" text-anchor="end" dominant-baseline="middle">18,000,000</text><text x="88" y="48" text-anchor="end" dominant-baseline="middle">19,000,000</text>
    </g>
  
        
    <line x1="96" y1="380" x2="844" y2="380" stroke="#4b5563" stroke-width="1"/>
    <g font-size="12" fill="#e5e7eb">
      <text x="96" y="396" text-anchor="middle" fill="#e5e7eb" font-size="10">6/12</text><text x="215.68" y="396" text-anchor="middle" fill="#e5e7eb" font-size="10">7/2</text><text x="335.36" y="396" text-anchor="middle" fill="#e5e7eb" font-size="10">7/22</text><text x="455.04" y="396" text-anchor="middle" fill="#e5e7eb" font-size="10">8/11</text><text x="574.72" y="396" text-anchor="middle" fill="#e5e7eb" font-size="10">8/31</text>
    </g>
  
      </g>
      <g class="plot-area" clip-path="url(#plotArea)">
        
        
        <path d="M -759.712,221.57069294400006 L -753.728,210.999555312 L -747.744,204.82364416799993 L -741.76,199.26798472000004 L -735.776,192.99584072000005 L -729.792,187.56583530399996 L -723.808,188.2233367359999 L -717.824,186.9616112400001 L -711.84,186.7856439359999 L -705.856,188.5999183599999 L -699.872,188.7231056319999 L -693.888,192.04759493599988 L -687.904,196.89745890399996 L -681.92,201.35896919199996 L -675.936,204.29659815199997 L -669.952,199.81033992000005 L -663.968,192.45507712799997 L -657.984,187.9903464400001 L -652,187.27295021600008 L -646.016,184.69712887999995 L -640.032,183.9560046160001 L -634.048,190.61271351199989 L -628.064,194.87102784800004 L -622.08,201.49316956799993 L -616.096,210.18267860800003 L -610.112,220.25185946399998 L -604.128,227.02760696 L -598.144,232.27489684 L -592.16,237.38304552000005 L -586.176,248.709499088 L -580.192,263.51974020800003 L -574.208,276.97764904800005 L -568.224,286.08155252000006 L -562.24,289.409128096 L -556.256,307.249737064 L -550.272,301.91060403200004 L -544.288,289.202464072 L -538.304,270.24533976799995 L -532.32,262.84204387999995 L -526.336,258.00275145599994 L -520.352,258.32932524800003 L -514.368,262.041739288 L -508.384,263.62117550399995 L -502.4,271.71818672000006 L -496.41600000000005,278.52317478400005 L -490.432,286.774604512 L -484.448,295.66892634400006 L -478.46400000000006,302.90535836799995 L -472.48,304.70862035199997 L -466.496,306.325245216 L -460.51199999999994,317.45994421599994 L -454.528,332.72963083999997 L -448.544,344.4007986799999 L -442.55999999999995,360.26677456799996 L -436.576,377.91386272799997 L -430.592,386.4900163440001 L -424.60799999999995,390.17827672000004 L -418.624,390.249903728 L -412.64,389.28979558400005 L -406.656,389.59720367999995 L -400.672,391.390625848 L -394.688,413.7695792 L -388.704,414.09940061599997 L -382.72,412.90265084 L -376.736,418.77638089600003 L -370.752,422.44956647999993 L -364.768,419.110054176 L -358.784,419.66720064 L -352.8,421.317837576 L -346.816,428.1374914080001 L -340.832,428.368803776 L -334.848,427.532384888 L -328.864,429.05546609600003 L -322.88,427.93808955199995 L -316.896,427.766721776 L -310.912,427.648347176 L -304.928,418.690185064 L -298.944,415.855832672 L -292.96,410.856012936 L -286.976,411.70990299199997 L -280.992,410.302006528 L -275.008,411.466228272 L -269.024,415.22014032000004 L -263.04,423.65786454400006 L -257.056,431.86361572000004 L -251.072,441.0926148 L -245.08800000000002,453.57986387200003 L -239.10399999999998,458.449801224 L -233.12,460.74208061599995 L -227.13600000000002,462.16602529600004 L -221.152,464.46389025599996 L -215.168,470.305335304 L -209.18400000000003,452.08879543200004 L -203.2,435.18769267999994 L -197.216,421.668962768 L -191.23200000000003,406.530887584 L -185.248,394.5847188320001 L -179.264,385.253944488 L -173.27999999999997,380.7871686799999 L -167.296,373.84479303999996 L -161.312,370.78505116 L -155.328,359.31369154400005 L -149.344,348.6729474559999 L -143.36,341.98271983999996 L -137.376,338.90480295199995 L -131.392,338.02350032000004 L -125.40799999999999,337.311080112 L -119.424,336.189114664 L -113.44,322.79712176799995 L -107.45599999999999,314.82901685599995 L -101.47200000000001,307.168573688 L -95.488,301.10168868799997 L -89.50399999999999,288.74519847999994 L -83.52000000000001,276.5512322320001 L -77.536,268.645816224 L -71.55199999999999,262.0527583679999 L -65.56800000000001,256.829575008 L -59.584,253.73969815199996 L -53.599999999999994,247.328733664 L -47.616000000000014,245.17959341599996 L -41.632000000000005,243.41759372000004 L -35.647999999999996,235.90683474400007 L -29.664,225.63648844800002 L -23.680000000000007,225.72162984800002 L -17.695999999999998,229.40500650399994 L -11.712000000000003,235.58472834400004 L -5.727999999999994,242.38297149600004 L 0.2560000000000002,252.898795936 L 6.239999999999995,250.4780186 L 12.224000000000004,251.75258452799997 L 18.208,250.864095424 L 24.191999999999993,250.66423474400005 L 30.176000000000002,250.650626064 L 36.16,250.587417912 L 42.144,250.56482929600006 L 48.128,249.96090270399995 L 54.112,246.46985763200007 L 60.096,246.54161345599994 L 66.08,247.36029823200008 L 72.064,247.44824967999995 L 78.048,243.09018527999996 L 84.032,240.69899047200002 L 90.016,245.70501860800005 L 96,245.87939895199997 L 101.984,246.24892092799996 L 107.968,248.07754040800003 L 113.952,250.31486118400005 L 119.936,252.87449552799995 L 125.92,256.70886312799996 L 131.904,256.70047415199997 L 137.888,256.76631705599993 L 143.872,256.77040530399995 L 149.856,256.59108147999996 L 155.84,255.54348536000003 L 161.824,254.86079907200002 L 167.808,254.32759976799994 L 173.792,255.90603201599995 L 179.776,254.94864096000003 L 185.76,253.98164315199998 L 191.744,252.82008603999998 L 197.728,256.000484024 L 203.712,262.76827945599996 L 209.696,266.476103264 L 215.68,264.50842956799994 L 221.664,259.384720712 L 227.648,256.98642575199995 L 233.632,254.79845279199998 L 239.616,251.57396454400006 L 245.6,248.172228136 L 251.584,243.12723780800005 L 257.568,235.13227011200001 L 263.552,215.47022149600005 L 269.536,193.89874194400005 L 275.52,178.4639484 L 281.504,159.5441442160001 L 287.488,140.35207745599993 L 293.472,126.89538440000001 L 299.456,115.17467352799997 L 305.44,103.66740147200005 L 311.424,95.56461943199992 L 317.408,88.21351195199998 L 323.392,84.54801947200002 L 329.376,85.33130507999999 L 335.36,82.79613448800012 L 341.344,81.87038037599996 L 347.328,83.80996753599987 L 353.312,88.14363192799999 L 359.296,93.31178429600004 L 365.28,100.62498932799997 L 371.264,111.41904437599999 L 377.248,126.21831223199993 L 383.232,130.91554252000003 L 389.216,131.7892655920001 L 395.2,122.22065972799999 L 401.184,115.08936745599993 L 407.168,115.49713384000012 L 413.152,115.55924041600008 L 419.136,115.84063033599989 L 425.12,118.27069703199993 L 431.104,119.81584959999998 L 437.088,121.76826922400005 L 443.072,122.80131444800003 L 449.056,120.67232261600009 L 455.04,120.867553224 L 461.024,117.5032531359999 L 467.008,108.74869865599993 L 472.992,107.89671560799991 L 478.976,108.33996681600007 L 484.96,110.26088694400005 L 490.944,111.59026872799996 L 496.928,113.25859993599988 L 502.912,114.5826312079999 L 508.896,116.24814904800002 L 514.88,116.15910465599995 L 520.864,117.56631520799988 L 526.848,117.7961030319999 L 532.832,117.00151879999999 L 538.816,113.1825008880001 L 544.8,111.3907028640001 L 550.784,110.157791648 L 556.768,110.31191999200013 L 562.752,107.00273920799992 L 568.736,108.83746416800005 L 574.72,111.45321713599986 L 580.704,118.73204954400006 L 586.688,135.7625287119999 L 592.672,143.949411 L 598.656,150.15194522400003 L 604.64,157.18299673599986 L 610.624,165.7838504880001 L 616.608,173.23105536800009 L 622.592,174.264929928 L 628.576,177.4581112400001 L 634.56,176.4873372640001 L 640.544,178.86490745599994 L 646.528,175.6805998400001 L 652.512,170.7104257119999 L 658.496,165.53169914400004 L 664.48,161.39704152799996 L 670.464,156.5083236 L 676.448,152.280158848 L 682.432,147.07881312000004 L 688.416,143.84148510399996 L 688.416,252.39901641599997 L 682.432,257.50068512000007 L 676.448,261.27048403200007 L 670.464,260.78854752000007 L 664.48,260.670516872 L 658.496,260.129247976 L 652.512,259.79101500800004 L 646.528,257.4025924 L 640.544,255.482952464 L 634.56,256.96834569600003 L 628.576,256.63511796 L 622.592,257.1118354320001 L 616.608,257.034173992 L 610.624,259.74114927200003 L 604.64,261.255702064 L 598.656,261.71501941599996 L 592.672,262.16182236000003 L 586.688,263.7742348080001 L 580.704,270.09899549600004 L 574.72,266.33076694400006 L 568.736,257.98839511200003 L 562.752,249.35674039199995 L 556.768,237.98748936799993 L 550.784,233.735380112 L 544.8,226.824379136 L 538.816,222.044581112 L 532.832,214.67583247999994 L 526.848,212.52182776799992 L 520.864,213.356400072 L 514.88,218.42312710399995 L 508.896,218.21470879199995 L 502.912,215.777948312 L 496.928,211.05525694400006 L 490.944,210.50896223200007 L 484.96,210.372358176 L 478.976,210.22242830399995 L 472.992,209.968711912 L 467.008,210.139322064 L 461.024,206.25512790399995 L 455.04,205.21483445599995 L 449.056,205.28475498400005 L 443.072,204.96720827200002 L 437.088,204.53621981599997 L 431.104,204.27959112000005 L 425.12,203.98462704800002 L 419.136,201.54902126399998 L 413.152,197.243406224 L 407.168,193.3634112 L 401.184,188.13088934400005 L 395.2,175.06803859200008 L 389.216,161.89341472799998 L 383.232,164.2960575599999 L 377.248,173.69475312799997 L 371.264,197.32311610399995 L 365.28,218.64673043200006 L 359.296,238.02606378400003 L 353.312,254.02582903200005 L 347.328,269.729132224 L 341.344,283.23105098400003 L 335.36,292.87010127200006 L 329.376,303.93439436000006 L 323.392,318.959822608 L 317.408,328.57652132799996 L 311.424,333.83689864800004 L 305.44,338.984083888 L 299.456,341.91203239199996 L 293.472,343.858812 L 287.488,343.64021390399995 L 281.504,340.025202024 L 275.52,335.28369024 L 269.536,336.27342805599994 L 263.552,329.90672514400006 L 257.568,321.926056688 L 251.584,320.51863299199994 L 245.6,320.49369514400007 L 239.616,320.852190736 L 233.632,319.99388640800004 L 227.648,320.34737344800004 L 221.664,320.8229501679999 L 215.68,319.025316912 L 209.696,319.55268961599995 L 203.712,319.882107984 L 197.728,323.215728616 L 191.744,324.85728004 L 185.76,325.48358940800006 L 179.776,325.98946312000004 L 173.792,327.63399590399996 L 167.808,335.227531112 L 161.824,337.22623684800004 L 155.84,337.76711664 L 149.856,334.68242164 L 143.872,332.79108005599994 L 137.888,332.92721798400004 L 131.904,334.44010280800006 L 125.92,334.457032152 L 119.936,335.08404735199997 L 113.952,335.799136176 L 107.968,335.649197672 L 101.984,334.986841072 L 96,334.693770728 L 90.016,334.00494443200006 L 84.032,336.51548792799997 L 78.048,335.40719423999997 L 72.064,334.14985047999994 L 66.08,333.97775960800004 L 60.096,333.45310598400005 L 54.112,333.75781292799996 L 48.128,327.019236816 L 42.144,325.380399824 L 36.16,325.232421448 L 30.176000000000002,323.37646641599997 L 24.191999999999993,323.081852936 L 18.208,322.39564545599995 L 12.224000000000004,320.04617707200003 L 6.239999999999995,323.09077443999996 L 0.2560000000000002,325.12480630399995 L -5.727999999999994,347.13901914400003 L -11.712000000000003,365.61246061599996 L -17.695999999999998,384.795546776 L -23.680000000000007,400.05103575199996 L -29.664,409.257007312 L -35.647999999999996,412.25408485599996 L -41.632000000000005,416.02250796000004 L -47.616000000000014,426.992110664 L -53.599999999999994,437.10148609600003 L -59.584,443.53598672799995 L -65.56800000000001,450.892828512 L -71.55199999999999,455.60617939199994 L -77.536,459.048452336 L -83.52000000000001,462.83276960800004 L -89.50399999999999,463.51326536 L -95.488,464.07869323200003 L -101.47200000000001,476.799528872 L -107.45599999999999,490.072841064 L -113.44,500.860206312 L -119.424,507.479201336 L -125.40799999999999,518.8300044480001 L -131.392,530.9727836 L -137.376,540.9360949679999 L -143.36,548.05926984 L -149.344,553.976078224 L -155.328,555.473818536 L -161.312,557.75896524 L -167.296,568.3510567200001 L -173.27999999999997,569.95573556 L -179.264,581.569406312 L -185.248,584.076550128 L -191.23200000000003,586.9493408159999 L -197.216,580.865098192 L -203.2,574.8301197200001 L -209.18400000000003,566.321093848 L -215.168,555.375353976 L -221.152,558.509398784 L -227.13600000000002,558.6862087039999 L -233.12,558.7220149039999 L -239.10399999999998,558.638913976 L -245.08800000000002,559.784501888 L -251.072,564.0677786399999 L -257.056,566.05292948 L -263.04,567.7345353759999 L -269.024,568.52120672 L -275.008,568.106686128 L -280.992,565.688999712 L -286.976,556.875458128 L -292.96,555.321352184 L -298.944,538.371159248 L -304.928,531.0308696559999 L -310.912,514.2014855440001 L -316.896,513.866102464 L -322.88,511.969749008 L -328.864,508.57720966399995 L -334.848,511.37312575199996 L -340.832,512.743696784 L -346.816,513.577628992 L -352.8,525.480860184 L -358.784,530.30206392 L -364.768,530.2096191840001 L -370.752,528.92694648 L -376.736,530.867244784 L -382.72,534.05677476 L -388.704,533.550644744 L -394.688,533.6035715200001 L -400.672,544.5916579919999 L -406.656,543.647116 L -412.64,543.0585822559999 L -418.624,543.4073973919999 L -424.60799999999995,542.64600984 L -430.592,541.936843896 L -436.576,541.1233934320001 L -442.55999999999995,546.729731352 L -448.544,549.775089 L -454.528,545.57891444 L -460.51199999999994,545.6430010639999 L -466.496,541.284866944 L -472.48,523.176893728 L -478.46400000000006,507.602007472 L -484.448,502.18524221599995 L -490.432,497.56138060800004 L -496.41600000000005,495.80528785599995 L -502.4,494.0611232 L -508.384,488.851501376 L -514.368,478.782471912 L -520.352,478.61435043200004 L -526.336,467.599678064 L -532.32,449.70735412000005 L -538.304,429.371356792 L -544.288,396.23728800800006 L -550.272,373.23473772799997 L -556.256,358.531650936 L -562.24,367.08509774400005 L -568.224,365.23198596000003 L -574.208,366.1746255919999 L -580.192,371.521621712 L -586.176,376.176228512 L -592.16,376.88730744 L -598.144,373.53693276 L -604.128,370.8131616 L -610.112,370.091173816 L -616.096,370.24908563200006 L -622.08,368.523787872 L -628.064,367.376458952 L -634.048,361.108846088 L -640.032,356.55452586399997 L -646.016,347.54579816 L -652,336.5918771440001 L -657.984,324.79461172000003 L -663.968,309.581593512 L -669.952,297.13899512000006 L -675.936,288.883421368 L -681.92,295.185996488 L -687.904,301.93734397599997 L -693.888,311.507703464 L -699.872,321.669188288 L -705.856,329.5527361200001 L -711.84,341.17224542400004 L -717.824,345.850563 L -723.808,347.818115184 L -729.792,347.903899336 L -735.776,348.3962028799999 L -741.76,348.39427063999995 L -747.744,348.463375112 L -753.728,348.865565888 L -759.712,348.96265065599994 Z" fill="rgba(59, 130, 246, 0.10)" stroke="none" />
        <path d="M -759.712,221.57069294400006 L -753.728,210.999555312 L -747.744,204.82364416799993 L -741.76,199.26798472000004 L -735.776,192.99584072000005 L -729.792,187.56583530399996 L -723.808,188.2233367359999 L -717.824,186.9616112400001 L -711.84,186.7856439359999 L -705.856,188.5999183599999 L -699.872,188.7231056319999 L -693.888,192.04759493599988 L -687.904,196.89745890399996 L -681.92,201.35896919199996 L -675.936,204.29659815199997 L -669.952,199.81033992000005 L -663.968,192.45507712799997 L -657.984,187.9903464400001 L -652,187.27295021600008 L -646.016,184.69712887999995 L -640.032,183.9560046160001 L -634.048,190.61271351199989 L -628.064,194.87102784800004 L -622.08,201.49316956799993 L -616.096,210.18267860800003 L -610.112,220.25185946399998 L -604.128,227.02760696 L -598.144,232.27489684 L -592.16,237.38304552000005 L -586.176,248.709499088 L -580.192,263.51974020800003 L -574.208,276.97764904800005 L -568.224,286.08155252000006 L -562.24,289.409128096 L -556.256,307.249737064 L -550.272,301.91060403200004 L -544.288,289.202464072 L -538.304,270.24533976799995 L -532.32,262.84204387999995 L -526.336,258.00275145599994 L -520.352,258.32932524800003 L -514.368,262.041739288 L -508.384,263.62117550399995 L -502.4,271.71818672000006 L -496.41600000000005,278.52317478400005 L -490.432,286.774604512 L -484.448,295.66892634400006 L -478.46400000000006,302.90535836799995 L -472.48,304.70862035199997 L -466.496,306.325245216 L -460.51199999999994,317.45994421599994 L -454.528,332.72963083999997 L -448.544,344.4007986799999 L -442.55999999999995,360.26677456799996 L -436.576,377.91386272799997 L -430.592,386.4900163440001 L -424.60799999999995,390.17827672000004 L -418.624,390.249903728 L -412.64,389.28979558400005 L -406.656,389.59720367999995 L -400.672,391.390625848 L -394.688,413.7695792 L -388.704,414.09940061599997 L -382.72,412.90265084 L -376.736,418.77638089600003 L -370.752,422.44956647999993 L -364.768,419.110054176 L -358.784,419.66720064 L -352.8,421.317837576 L -346.816,428.1374914080001 L -340.832,428.368803776 L -334.848,427.532384888 L -328.864,429.05546609600003 L -322.88,427.93808955199995 L -316.896,427.766721776 L -310.912,427.648347176 L -304.928,418.690185064 L -298.944,415.855832672 L -292.96,410.856012936 L -286.976,411.70990299199997 L -280.992,410.302006528 L -275.008,411.466228272 L -269.024,415.22014032000004 L -263.04,423.65786454400006 L -257.056,431.86361572000004 L -251.072,441.0926148 L -245.08800000000002,453.57986387200003 L -239.10399999999998,458.449801224 L -233.12,460.74208061599995 L -227.13600000000002,462.16602529600004 L -221.152,464.46389025599996 L -215.168,470.305335304 L -209.18400000000003,452.08879543200004 L -203.2,435.18769267999994 L -197.216,421.668962768 L -191.23200000000003,406.530887584 L -185.248,394.5847188320001 L -179.264,385.253944488 L -173.27999999999997,380.7871686799999 L -167.296,373.84479303999996 L -161.312,370.78505116 L -155.328,359.31369154400005 L -149.344,348.6729474559999 L -143.36,341.98271983999996 L -137.376,338.90480295199995 L -131.392,338.02350032000004 L -125.40799999999999,337.311080112 L -119.424,336.189114664 L -113.44,322.79712176799995 L -107.45599999999999,314.82901685599995 L -101.47200000000001,307.168573688 L -95.488,301.10168868799997 L -89.50399999999999,288.74519847999994 L -83.52000000000001,276.5512322320001 L -77.536,268.645816224 L -71.55199999999999,262.0527583679999 L -65.56800000000001,256.829575008 L -59.584,253.73969815199996 L -53.599999999999994,247.328733664 L -47.616000000000014,245.17959341599996 L -41.632000000000005,243.41759372000004 L -35.647999999999996,235.90683474400007 L -29.664,225.63648844800002 L -23.680000000000007,225.72162984800002 L -17.695999999999998,229.40500650399994 L -11.712000000000003,235.58472834400004 L -5.727999999999994,242.38297149600004 L 0.2560000000000002,252.898795936 L 6.239999999999995,250.4780186 L 12.224000000000004,251.75258452799997 L 18.208,250.864095424 L 24.191999999999993,250.66423474400005 L 30.176000000000002,250.650626064 L 36.16,250.587417912 L 42.144,250.56482929600006 L 48.128,249.96090270399995 L 54.112,246.46985763200007 L 60.096,246.54161345599994 L 66.08,247.36029823200008 L 72.064,247.44824967999995 L 78.048,243.09018527999996 L 84.032,240.69899047200002 L 90.016,245.70501860800005 L 96,245.87939895199997 L 101.984,246.24892092799996 L 107.968,248.07754040800003 L 113.952,250.31486118400005 L 119.936,252.87449552799995 L 125.92,256.70886312799996 L 131.904,256.70047415199997 L 137.888,256.76631705599993 L 143.872,256.77040530399995 L 149.856,256.59108147999996 L 155.84,255.54348536000003 L 161.824,254.86079907200002 L 167.808,254.32759976799994 L 173.792,255.90603201599995 L 179.776,254.94864096000003 L 185.76,253.98164315199998 L 191.744,252.82008603999998 L 197.728,256.000484024 L 203.712,262.76827945599996 L 209.696,266.476103264 L 215.68,264.50842956799994 L 221.664,259.384720712 L 227.648,256.98642575199995 L 233.632,254.79845279199998 L 239.616,251.57396454400006 L 245.6,248.172228136 L 251.584,243.12723780800005 L 257.568,235.13227011200001 L 263.552,215.47022149600005 L 269.536,193.89874194400005 L 275.52,178.4639484 L 281.504,159.5441442160001 L 287.488,140.35207745599993 L 293.472,126.89538440000001 L 299.456,115.17467352799997 L 305.44,103.66740147200005 L 311.424,95.56461943199992 L 317.408,88.21351195199998 L 323.392,84.54801947200002 L 329.376,85.33130507999999 L 335.36,82.79613448800012 L 341.344,81.87038037599996 L 347.328,83.80996753599987 L 353.312,88.14363192799999 L 359.296,93.31178429600004 L 365.28,100.62498932799997 L 371.264,111.41904437599999 L 377.248,126.21831223199993 L 383.232,130.91554252000003 L 389.216,131.7892655920001 L 395.2,122.22065972799999 L 401.184,115.08936745599993 L 407.168,115.49713384000012 L 413.152,115.55924041600008 L 419.136,115.84063033599989 L 425.12,118.27069703199993 L 431.104,119.81584959999998 L 437.088,121.76826922400005 L 443.072,122.80131444800003 L 449.056,120.67232261600009 L 455.04,120.867553224 L 461.024,117.5032531359999 L 467.008,108.74869865599993 L 472.992,107.89671560799991 L 478.976,108.33996681600007 L 484.96,110.26088694400005 L 490.944,111.59026872799996 L 496.928,113.25859993599988 L 502.912,114.5826312079999 L 508.896,116.24814904800002 L 514.88,116.15910465599995 L 520.864,117.56631520799988 L 526.848,117.7961030319999 L 532.832,117.00151879999999 L 538.816,113.1825008880001 L 544.8,111.3907028640001 L 550.784,110.157791648 L 556.768,110.31191999200013 L 562.752,107.00273920799992 L 568.736,108.83746416800005 L 574.72,111.45321713599986 L 580.704,118.73204954400006 L 586.688,135.7625287119999 L 592.672,143.949411 L 598.656,150.15194522400003 L 604.64,157.18299673599986 L 610.624,165.7838504880001 L 616.608,173.23105536800009 L 622.592,174.264929928 L 628.576,177.4581112400001 L 634.56,176.4873372640001 L 640.544,178.86490745599994 L 646.528,175.6805998400001 L 652.512,170.7104257119999 L 658.496,165.53169914400004 L 664.48,161.39704152799996 L 670.464,156.5083236 L 676.448,152.280158848 L 682.432,147.07881312000004 L 688.416,143.84148510399996" fill="none" stroke="#3b82f6" stroke-width="1"/>
        <path d="M -759.712,348.96265065599994 L -753.728,348.865565888 L -747.744,348.463375112 L -741.76,348.39427063999995 L -735.776,348.3962028799999 L -729.792,347.903899336 L -723.808,347.818115184 L -717.824,345.850563 L -711.84,341.17224542400004 L -705.856,329.5527361200001 L -699.872,321.669188288 L -693.888,311.507703464 L -687.904,301.93734397599997 L -681.92,295.185996488 L -675.936,288.883421368 L -669.952,297.13899512000006 L -663.968,309.581593512 L -657.984,324.79461172000003 L -652,336.5918771440001 L -646.016,347.54579816 L -640.032,356.55452586399997 L -634.048,361.108846088 L -628.064,367.376458952 L -622.08,368.523787872 L -616.096,370.24908563200006 L -610.112,370.091173816 L -604.128,370.8131616 L -598.144,373.53693276 L -592.16,376.88730744 L -586.176,376.176228512 L -580.192,371.521621712 L -574.208,366.1746255919999 L -568.224,365.23198596000003 L -562.24,367.08509774400005 L -556.256,358.531650936 L -550.272,373.23473772799997 L -544.288,396.23728800800006 L -538.304,429.371356792 L -532.32,449.70735412000005 L -526.336,467.599678064 L -520.352,478.61435043200004 L -514.368,478.782471912 L -508.384,488.851501376 L -502.4,494.0611232 L -496.41600000000005,495.80528785599995 L -490.432,497.56138060800004 L -484.448,502.18524221599995 L -478.46400000000006,507.602007472 L -472.48,523.176893728 L -466.496,541.284866944 L -460.51199999999994,545.6430010639999 L -454.528,545.57891444 L -448.544,549.775089 L -442.55999999999995,546.729731352 L -436.576,541.1233934320001 L -430.592,541.936843896 L -424.60799999999995,542.64600984 L -418.624,543.4073973919999 L -412.64,543.0585822559999 L -406.656,543.647116 L -400.672,544.5916579919999 L -394.688,533.6035715200001 L -388.704,533.550644744 L -382.72,534.05677476 L -376.736,530.867244784 L -370.752,528.92694648 L -364.768,530.2096191840001 L -358.784,530.30206392 L -352.8,525.480860184 L -346.816,513.577628992 L -340.832,512.743696784 L -334.848,511.37312575199996 L -328.864,508.57720966399995 L -322.88,511.969749008 L -316.896,513.866102464 L -310.912,514.2014855440001 L -304.928,531.0308696559999 L -298.944,538.371159248 L -292.96,555.321352184 L -286.976,556.875458128 L -280.992,565.688999712 L -275.008,568.106686128 L -269.024,568.52120672 L -263.04,567.7345353759999 L -257.056,566.05292948 L -251.072,564.0677786399999 L -245.08800000000002,559.784501888 L -239.10399999999998,558.638913976 L -233.12,558.7220149039999 L -227.13600000000002,558.6862087039999 L -221.152,558.509398784 L -215.168,555.375353976 L -209.18400000000003,566.321093848 L -203.2,574.8301197200001 L -197.216,580.865098192 L -191.23200000000003,586.9493408159999 L -185.248,584.076550128 L -179.264,581.569406312 L -173.27999999999997,569.95573556 L -167.296,568.3510567200001 L -161.312,557.75896524 L -155.328,555.473818536 L -149.344,553.976078224 L -143.36,548.05926984 L -137.376,540.9360949679999 L -131.392,530.9727836 L -125.40799999999999,518.8300044480001 L -119.424,507.479201336 L -113.44,500.860206312 L -107.45599999999999,490.072841064 L -101.47200000000001,476.799528872 L -95.488,464.07869323200003 L -89.50399999999999,463.51326536 L -83.52000000000001,462.83276960800004 L -77.536,459.048452336 L -71.55199999999999,455.60617939199994 L -65.56800000000001,450.892828512 L -59.584,443.53598672799995 L -53.599999999999994,437.10148609600003 L -47.616000000000014,426.992110664 L -41.632000000000005,416.02250796000004 L -35.647999999999996,412.25408485599996 L -29.664,409.257007312 L -23.680000000000007,400.05103575199996 L -17.695999999999998,384.795546776 L -11.712000000000003,365.61246061599996 L -5.727999999999994,347.13901914400003 L 0.2560000000000002,325.12480630399995 L 6.239999999999995,323.09077443999996 L 12.224000000000004,320.04617707200003 L 18.208,322.39564545599995 L 24.191999999999993,323.081852936 L 30.176000000000002,323.37646641599997 L 36.16,325.232421448 L 42.144,325.380399824 L 48.128,327.019236816 L 54.112,333.75781292799996 L 60.096,333.45310598400005 L 66.08,333.97775960800004 L 72.064,334.14985047999994 L 78.048,335.40719423999997 L 84.032,336.51548792799997 L 90.016,334.00494443200006 L 96,334.693770728 L 101.984,334.986841072 L 107.968,335.649197672 L 113.952,335.799136176 L 119.936,335.08404735199997 L 125.92,334.457032152 L 131.904,334.44010280800006 L 137.888,332.92721798400004 L 143.872,332.79108005599994 L 149.856,334.68242164 L 155.84,337.76711664 L 161.824,337.22623684800004 L 167.808,335.227531112 L 173.792,327.63399590399996 L 179.776,325.98946312000004 L 185.76,325.48358940800006 L 191.744,324.85728004 L 197.728,323.215728616 L 203.712,319.882107984 L 209.696,319.55268961599995 L 215.68,319.025316912 L 221.664,320.8229501679999 L 227.648,320.34737344800004 L 233.632,319.99388640800004 L 239.616,320.852190736 L 245.6,320.49369514400007 L 251.584,320.51863299199994 L 257.568,321.926056688 L 263.552,329.90672514400006 L 269.536,336.27342805599994 L 275.52,335.28369024 L 281.504,340.025202024 L 287.488,343.64021390399995 L 293.472,343.858812 L 299.456,341.91203239199996 L 305.44,338.984083888 L 311.424,333.83689864800004 L 317.408,328.57652132799996 L 323.392,318.959822608 L 329.376,303.93439436000006 L 335.36,292.87010127200006 L 341.344,283.23105098400003 L 347.328,269.729132224 L 353.312,254.02582903200005 L 359.296,238.02606378400003 L 365.28,218.64673043200006 L 371.264,197.32311610399995 L 377.248,173.69475312799997 L 383.232,164.2960575599999 L 389.216,161.89341472799998 L 395.2,175.06803859200008 L 401.184,188.13088934400005 L 407.168,193.3634112 L 413.152,197.243406224 L 419.136,201.54902126399998 L 425.12,203.98462704800002 L 431.104,204.27959112000005 L 437.088,204.53621981599997 L 443.072,204.96720827200002 L 449.056,205.28475498400005 L 455.04,205.21483445599995 L 461.024,206.25512790399995 L 467.008,210.139322064 L 472.992,209.968711912 L 478.976,210.22242830399995 L 484.96,210.372358176 L 490.944,210.50896223200007 L 496.928,211.05525694400006 L 502.912,215.777948312 L 508.896,218.21470879199995 L 514.88,218.42312710399995 L 520.864,213.356400072 L 526.848,212.52182776799992 L 532.832,214.67583247999994 L 538.816,222.044581112 L 544.8,226.824379136 L 550.784,233.735380112 L 556.768,237.98748936799993 L 562.752,249.35674039199995 L 568.736,257.98839511200003 L 574.72,266.33076694400006 L 580.704,270.09899549600004 L 586.688,263.7742348080001 L 592.672,262.16182236000003 L 598.656,261.71501941599996 L 604.64,261.255702064 L 610.624,259.74114927200003 L 616.608,257.034173992 L 622.592,257.1118354320001 L 628.576,256.63511796 L 634.56,256.96834569600003 L 640.544,255.482952464 L 646.528,257.4025924 L 652.512,259.79101500800004 L 658.496,260.129247976 L 664.48,260.670516872 L 670.464,260.78854752000007 L 676.448,261.27048403200007 L 682.432,257.50068512000007 L 688.416,252.39901641599997" fill="none" stroke="#3b82f6" stroke-width="1"/>
        <path d="M -759.712,285.2666718 L -753.728,279.9325606 L -747.744,276.64350964 L -741.76,273.83112767999995 L -735.776,270.6960218 L -729.792,267.73486732000003 L -723.808,268.02072596000005 L -717.824,266.40608712000005 L -711.84,263.9789446799999 L -705.856,259.07632723999996 L -699.872,255.19614696000002 L -693.888,251.7776492 L -687.904,249.41740144 L -681.92,248.27248283999998 L -675.936,246.59000976000002 L -669.952,248.47466752000005 L -663.968,251.01833532000006 L -657.984,256.39247907999993 L -652,261.93241367999997 L -646.016,266.12146352 L -640.032,270.25526523999997 L -634.048,275.8607798 L -628.064,281.12374339999997 L -622.08,285.0084787200001 L -616.096,290.21588212000006 L -610.112,295.17151664 L -604.128,298.92038427999995 L -598.144,302.9059148 L -592.16,307.1351764799999 L -586.176,312.4428638 L -580.192,317.52068096000005 L -574.208,321.57613732000004 L -568.224,325.65676923999996 L -562.24,328.24711292000006 L -556.256,332.890694 L -550.272,337.5726708799999 L -544.288,342.71987604 L -538.304,349.80834827999996 L -532.32,356.274699 L -526.336,362.80121476000005 L -520.352,368.47183784 L -514.368,370.4121056 L -508.384,376.23633844 L -502.4,382.88965496000003 L -496.41600000000005,387.16423132000006 L -490.432,392.16799256 L -484.448,398.92708428 L -478.46400000000006,405.2536829200001 L -472.48,413.94275703999995 L -466.496,423.80505607999993 L -460.51199999999994,431.55147264 L -454.528,439.15427264 L -448.544,447.08794384 L -442.55999999999995,453.49825296000006 L -436.576,459.5186280799999 L -430.592,464.21343012000006 L -424.60799999999995,466.41214327999995 L -418.624,466.82865056 L -412.64,466.17418892000006 L -406.656,466.62215984 L -400.672,467.99114192 L -394.688,473.68657536 L -388.704,473.82502267999996 L -382.72,473.4797128 L -376.736,474.82181284 L -370.752,475.68825647999995 L -364.768,474.65983667999996 L -358.784,474.9846322799999 L -352.8,473.39934887999993 L -346.816,470.85756019999997 L -340.832,470.55625028 L -334.848,469.45275532000005 L -328.864,468.81633787999994 L -322.88,469.9539192799999 L -316.896,470.81641212000005 L -310.912,470.92491636 L -304.928,474.86052736 L -298.944,477.11349596 L -292.96,483.08868256000005 L -286.976,484.29268056 L -280.992,487.9955031200001 L -275.008,489.7864572 L -269.024,491.8706735200001 L -263.04,495.69619996 L -257.056,498.9582726 L -251.072,502.58019672000006 L -245.08800000000002,506.6821828799999 L -239.10399999999998,508.5443576 L -233.12,509.73204776 L -227.13600000000002,510.426117 L -221.152,511.48664452 L -215.168,512.84034464 L -209.18400000000003,509.20494464 L -203.2,505.0089062 L -197.216,501.26703047999996 L -191.23200000000003,496.7401142 L -185.248,489.33063447999996 L -179.264,483.4116754 L -173.27999999999997,475.3714521200001 L -167.296,471.09792487999994 L -161.312,464.2720082 L -155.328,457.39375504 L -149.344,451.32451283999995 L -143.36,445.02099483999996 L -137.376,439.92044896000004 L -131.392,434.49814196 L -125.40799999999999,428.0705422799999 L -119.424,421.834158 L -113.44,411.82866404 L -107.45599999999999,402.45092896000006 L -101.47200000000001,391.98405127999996 L -95.488,382.59019096000003 L -89.50399999999999,376.12923192000005 L -83.52000000000001,369.69200092000005 L -77.536,363.84713428 L -71.55199999999999,358.8294688799999 L -65.56800000000001,353.86120176000003 L -59.584,348.63784244 L -53.599999999999994,342.21510987999994 L -47.616000000000014,336.08585203999996 L -41.632000000000005,329.72005084 L -35.647999999999996,324.08045979999997 L -29.664,317.44674788 L -23.680000000000007,312.8863328 L -17.695999999999998,307.10027663999995 L -11.712000000000003,300.59859448 L -5.727999999999994,294.76099532000006 L 0.2560000000000002,289.0118011200001 L 6.239999999999995,286.7843965200001 L 12.224000000000004,285.8993808 L 18.208,286.62987044 L 24.191999999999993,286.87304384 L 30.176000000000002,287.01354624 L 36.16,287.9099196799999 L 42.144,287.97261456 L 48.128,288.49006976000004 L 54.112,290.11383527999993 L 60.096,289.9973597200001 L 66.08,290.6690289200001 L 72.064,290.7990500799999 L 78.048,289.24868976000005 L 84.032,288.6072392 L 90.016,289.85498152 L 96,290.28658484 L 101.984,290.617881 L 107.968,291.86336903999995 L 113.952,293.05699867999994 L 119.936,293.97927144 L 125.92,295.58294764 L 131.904,295.57028847999993 L 137.888,294.84676752000007 L 143.872,294.78074267999995 L 149.856,295.63675156 L 155.84,296.655301 L 161.824,296.04351796000003 L 167.808,294.77756544 L 173.792,291.77001396 L 179.776,290.46905203999995 L 185.76,289.73261627999995 L 191.744,288.83868304 L 197.728,289.60810632000005 L 203.712,291.3251937200001 L 209.696,293.01439644 L 215.68,291.76687324 L 221.664,290.10383543999995 L 227.648,288.66689959999997 L 233.632,287.3961696 L 239.616,286.21307764 L 245.6,284.33296164 L 251.584,281.8229354 L 257.568,278.5291634 L 263.552,272.68847332000007 L 269.536,265.086085 L 275.52,256.87381932000005 L 281.504,249.78467312000006 L 287.488,241.99614567999996 L 293.472,235.3770982 L 299.456,228.54335296000002 L 305.44,221.32574267999993 L 311.424,214.70075903999998 L 317.408,208.39501664 L 323.392,201.75392104 L 329.376,194.63284972000005 L 335.36,187.83311787999995 L 341.344,182.55071567999994 L 347.328,176.76954987999994 L 353.312,171.08473047999993 L 359.296,165.6689240400001 L 365.28,159.63585987999997 L 371.264,154.3710802400001 L 377.248,149.95653267999998 L 383.232,147.6058000400001 L 389.216,146.8413401599999 L 395.2,148.6443491599999 L 401.184,151.6101284 L 407.168,154.43027252000002 L 413.152,156.40132332000002 L 419.136,158.6948258 L 425.12,161.1276620400001 L 431.104,162.0477203599999 L 437.088,163.15224452000004 L 443.072,163.8842613599999 L 449.056,162.9785388 L 455.04,163.04119384000012 L 461.024,161.87919052000004 L 467.008,159.4440103599999 L 472.992,158.9327137599999 L 478.976,159.2811975599999 L 484.96,160.3166225599999 L 490.944,161.04961547999997 L 496.928,162.15692844000012 L 502.912,165.1802897599999 L 508.896,167.23142892000004 L 514.88,167.29111587999995 L 520.864,165.4613576400001 L 526.848,165.1589654 L 532.832,165.8386756400001 L 538.816,167.613541 L 544.8,169.107541 L 550.784,171.94658587999996 L 556.768,174.14970467999996 L 562.752,178.1797398 L 568.736,183.4129296400001 L 574.72,188.8919920400001 L 580.704,194.41552252000005 L 586.688,199.76838176 L 592.672,203.05561667999996 L 598.656,205.93348232000005 L 604.64,209.2193494 L 610.624,212.76249987999995 L 616.608,215.13261467999996 L 622.592,215.68838267999996 L 628.576,217.0466146 L 634.56,216.72784147999994 L 640.544,217.17392996 L 646.528,216.54159612000007 L 652.512,215.25072036 L 658.496,212.83047356 L 664.48,211.0337792 L 670.464,208.64843556000002 L 676.448,206.77532144 L 682.432,202.28974912000004 L 688.416,198.12025076" fill="none" stroke="#9ca3af" stroke-width="1" stroke-dasharray="4 4"/>
      
  <line x1="96" y1="265.441408" x2="96" y2="301.18479360000003" stroke="#9ca3af" stroke-width="1"/><line x1="101.984" y1="290.72294239999997" x2="101.984" y2="329.2114368" stroke="#9ca3af" stroke-width="1"/><line x1="107.968" y1="290.87141280000003" x2="107.968" y2="309.8501264" stroke="#9ca3af" stroke-width="1"/><line x1="113.952" y1="292.666404" x2="113.952" y2="307.8903304" stroke="#9ca3af" stroke-width="1"/><line x1="119.936" y1="265.1944" x2="119.936" y2="301.6003248" stroke="#9ca3af" stroke-width="1"/><line x1="125.92" y1="271.493768" x2="125.92" y2="309.9084256" stroke="#9ca3af" stroke-width="1"/><line x1="131.904" y1="290.6233424" x2="131.904" y2="312.272" stroke="#9ca3af" stroke-width="1"/><line x1="137.888" y1="293.6800664" x2="137.888" y2="306.96" stroke="#9ca3af" stroke-width="1"/><line x1="143.872" y1="279.4565224" x2="143.872" y2="315.125208" stroke="#9ca3af" stroke-width="1"/><line x1="149.856" y1="297.5194472" x2="149.856" y2="326.88" stroke="#9ca3af" stroke-width="1"/><line x1="155.84" y1="304.0863408" x2="155.84" y2="354.8836688" stroke="#9ca3af" stroke-width="1"/><line x1="161.824" y1="283.056" x2="161.824" y2="339.2454064" stroke="#9ca3af" stroke-width="1"/><line x1="167.808" y1="287.7555928" x2="167.808" y2="300.0024088" stroke="#9ca3af" stroke-width="1"/><line x1="173.792" y1="264.582856" x2="173.792" y2="289.6952696" stroke="#9ca3af" stroke-width="1"/><line x1="179.776" y1="269.1890904" x2="179.776" y2="284.3839336" stroke="#9ca3af" stroke-width="1"/><line x1="185.76" y1="274.053488" x2="185.76" y2="284.2432984" stroke="#9ca3af" stroke-width="1"/><line x1="191.744" y1="275.2240536" x2="191.744" y2="280.736648" stroke="#9ca3af" stroke-width="1"/><line x1="197.728" y1="267.12" x2="197.728" y2="278.89338399999997" stroke="#9ca3af" stroke-width="1"/><line x1="203.712" y1="264.464" x2="203.712" y2="284.7808728" stroke="#9ca3af" stroke-width="1"/><line x1="209.696" y1="281.728" x2="209.696" y2="303.38934" stroke="#9ca3af" stroke-width="1"/><line x1="215.68" y1="265.03298159999997" x2="215.68" y2="304.33480959999997" stroke="#9ca3af" stroke-width="1"/><line x1="221.664" y1="250.52" x2="221.664" y2="276.0336024" stroke="#9ca3af" stroke-width="1"/><line x1="227.648" y1="257.7576" x2="227.648" y2="277.5682392" stroke="#9ca3af" stroke-width="1"/><line x1="233.632" y1="266.9275728" x2="233.632" y2="272.0570392" stroke="#9ca3af" stroke-width="1"/><line x1="239.616" y1="256.8295936" x2="239.616" y2="272.8316616" stroke="#9ca3af" stroke-width="1"/><line x1="245.6" y1="254.50400000000002" x2="245.6" y2="266.0862848" stroke="#9ca3af" stroke-width="1"/><line x1="251.584" y1="246.2704" x2="251.584" y2="265.0183072" stroke="#9ca3af" stroke-width="1"/><line x1="257.568" y1="225.288" x2="257.568" y2="253.6688208" stroke="#9ca3af" stroke-width="1"/><line x1="263.552" y1="180.8000664" x2="263.552" y2="237.1712096" stroke="#9ca3af" stroke-width="1"/><line x1="269.536" y1="150.5496872" x2="269.536" y2="192.6504744" stroke="#9ca3af" stroke-width="1"/><line x1="275.52" y1="156.232" x2="275.52" y2="165.939348" stroke="#9ca3af" stroke-width="1"/><line x1="281.504" y1="144.2800664" x2="281.504" y2="163.2276384" stroke="#9ca3af" stroke-width="1"/><line x1="287.488" y1="107.75999999999999" x2="287.488" y2="149.6323712" stroke="#9ca3af" stroke-width="1"/><line x1="293.472" y1="132.8866896" x2="293.472" y2="170.091672" stroke="#9ca3af" stroke-width="1"/><line x1="299.456" y1="129.0845592" x2="299.456" y2="151.157712" stroke="#9ca3af" stroke-width="1"/><line x1="305.44" y1="121.57936719999998" x2="305.44" y2="150.55812" stroke="#9ca3af" stroke-width="1"/><line x1="311.424" y1="116.392" x2="311.424" y2="156.896" stroke="#9ca3af" stroke-width="1"/><line x1="317.408" y1="136.7667072" x2="317.408" y2="147.6" stroke="#9ca3af" stroke-width="1"/><line x1="323.392" y1="134.4553232" x2="323.392" y2="158.888" stroke="#9ca3af" stroke-width="1"/><line x1="329.376" y1="133.4601864" x2="329.376" y2="166.0443928" stroke="#9ca3af" stroke-width="1"/><line x1="335.36" y1="138.6360664" x2="335.36" y2="167.852" stroke="#9ca3af" stroke-width="1"/><line x1="341.344" y1="140.0681152" x2="341.344" y2="166.1857584" stroke="#9ca3af" stroke-width="1"/><line x1="347.328" y1="144.3940088" x2="347.328" y2="166.856" stroke="#9ca3af" stroke-width="1"/><line x1="353.312" y1="152.2480664" x2="353.312" y2="183.031704" stroke="#9ca3af" stroke-width="1"/><line x1="359.296" y1="150.0593232" x2="359.296" y2="160.4776824" stroke="#9ca3af" stroke-width="1"/><line x1="365.28" y1="135.9462024" x2="365.28" y2="153.2693648" stroke="#9ca3af" stroke-width="1"/><line x1="371.264" y1="134.2998808" x2="371.264" y2="148.1311336" stroke="#9ca3af" stroke-width="1"/><line x1="377.248" y1="130.7909064" x2="377.248" y2="152.2479336" stroke="#9ca3af" stroke-width="1"/><line x1="383.232" y1="134.3781" x2="383.232" y2="159.594828" stroke="#9ca3af" stroke-width="1"/><line x1="389.216" y1="121.77863359999998" x2="389.216" y2="150.92" stroke="#9ca3af" stroke-width="1"/><line x1="395.2" y1="145.7261256" x2="395.2" y2="204.04" stroke="#9ca3af" stroke-width="1"/><line x1="401.184" y1="189.6784104" x2="401.184" y2="211.344" stroke="#9ca3af" stroke-width="1"/><line x1="407.168" y1="184.1267728" x2="407.168" y2="211.6096" stroke="#9ca3af" stroke-width="1"/><line x1="413.152" y1="177.4903584" x2="413.152" y2="192.088" stroke="#9ca3af" stroke-width="1"/><line x1="419.136" y1="179.6461672" x2="419.136" y2="207.36" stroke="#9ca3af" stroke-width="1"/><line x1="425.12" y1="177.7456" x2="425.12" y2="197.6258264" stroke="#9ca3af" stroke-width="1"/><line x1="431.104" y1="159.8722472" x2="431.104" y2="188.729488" stroke="#9ca3af" stroke-width="1"/><line x1="437.088" y1="158.2240664" x2="437.088" y2="171.3362072" stroke="#9ca3af" stroke-width="1"/><line x1="443.072" y1="154.675252" x2="443.072" y2="168.5367168" stroke="#9ca3af" stroke-width="1"/><line x1="449.056" y1="140.0888984" x2="449.056" y2="167.52" stroke="#9ca3af" stroke-width="1"/><line x1="455.04" y1="115.0640664" x2="455.04" y2="147.5312096" stroke="#9ca3af" stroke-width="1"/><line x1="461.024" y1="129.008" x2="461.024" y2="142.5214624" stroke="#9ca3af" stroke-width="1"/><line x1="467.008" y1="102.38159999999999" x2="467.008" y2="138.9679336" stroke="#9ca3af" stroke-width="1"/><line x1="472.992" y1="98.464" x2="472.992" y2="156.232" stroke="#9ca3af" stroke-width="1"/><line x1="478.976" y1="140.78736" x2="478.976" y2="167.0242576" stroke="#9ca3af" stroke-width="1"/><line x1="484.96" y1="153.355884" x2="484.96" y2="165.2528384" stroke="#9ca3af" stroke-width="1"/><line x1="490.944" y1="148.3034416" x2="490.944" y2="163.7206584" stroke="#9ca3af" stroke-width="1"/><line x1="496.928" y1="156.0116184" x2="496.928" y2="184.5832728" stroke="#9ca3af" stroke-width="1"/><line x1="502.912" y1="154.904" x2="502.912" y2="202.7784" stroke="#9ca3af" stroke-width="1"/><line x1="508.896" y1="186.0599424" x2="508.896" y2="209.0386584" stroke="#9ca3af" stroke-width="1"/><line x1="514.88" y1="183.4884032" x2="514.88" y2="204.04" stroke="#9ca3af" stroke-width="1"/><line x1="520.864" y1="164.5984664" x2="520.864" y2="205.4438288" stroke="#9ca3af" stroke-width="1"/><line x1="526.848" y1="169.512" x2="526.848" y2="192.088" stroke="#9ca3af" stroke-width="1"/><line x1="532.832" y1="181.0797432" x2="532.832" y2="220.64" stroke="#9ca3af" stroke-width="1"/><line x1="538.816" y1="196.1458368" x2="538.816" y2="235.0851208" stroke="#9ca3af" stroke-width="1"/><line x1="544.8" y1="208.7543336" x2="544.8" y2="245.208" stroke="#9ca3af" stroke-width="1"/><line x1="550.784" y1="201.9128096" x2="550.784" y2="223.5608696" stroke="#9ca3af" stroke-width="1"/><line x1="556.768" y1="198.5321864" x2="556.768" y2="221.968" stroke="#9ca3af" stroke-width="1"/><line x1="562.752" y1="207.5131184" x2="562.752" y2="256.7118664" stroke="#9ca3af" stroke-width="1"/><line x1="568.736" y1="243.6397648" x2="568.736" y2="257.46099119999997" stroke="#9ca3af" stroke-width="1"/><line x1="574.72" y1="238.2118304" x2="574.72" y2="252.1610096" stroke="#9ca3af" stroke-width="1"/><line x1="580.704" y1="234.4047864" x2="580.704" y2="259.9713096" stroke="#9ca3af" stroke-width="1"/><line x1="586.688" y1="211.6153104" x2="586.688" y2="242.6037256" stroke="#9ca3af" stroke-width="1"/><line x1="592.672" y1="202.7120664" x2="592.672" y2="219.0315928" stroke="#9ca3af" stroke-width="1"/><line x1="598.656" y1="197.317" x2="598.656" y2="227.5455336" stroke="#9ca3af" stroke-width="1"/><line x1="604.64" y1="195.408" x2="604.64" y2="230.1691968" stroke="#9ca3af" stroke-width="1"/><line x1="610.624" y1="218.648" x2="610.624" y2="229.936" stroke="#9ca3af" stroke-width="1"/><line x1="616.608" y1="209.3438328" x2="616.608" y2="228.7550096" stroke="#9ca3af" stroke-width="1"/><line x1="622.592" y1="202.41154" x2="622.592" y2="219.6750088" stroke="#9ca3af" stroke-width="1"/><line x1="628.576" y1="202.3978616" x2="628.576" y2="224.2167688" stroke="#9ca3af" stroke-width="1"/><line x1="634.56" y1="191.424" x2="634.56" y2="222.056644" stroke="#9ca3af" stroke-width="1"/><line x1="640.544" y1="178.808" x2="640.544" y2="196.7434368" stroke="#9ca3af" stroke-width="1"/><line x1="646.528" y1="165.5119312" x2="646.528" y2="180.8" stroke="#9ca3af" stroke-width="1"/><line x1="652.512" y1="169.04056" x2="652.512" y2="180.0399192" stroke="#9ca3af" stroke-width="1"/><line x1="658.496" y1="170.4194888" x2="658.496" y2="178.63536" stroke="#9ca3af" stroke-width="1"/><line x1="664.48" y1="165.6473208" x2="664.48" y2="188.434672" stroke="#9ca3af" stroke-width="1"/><line x1="670.464" y1="170.8491632" x2="670.464" y2="187.44" stroke="#9ca3af" stroke-width="1"/><line x1="676.448" y1="165.1614056" x2="676.448" y2="193.084" stroke="#9ca3af" stroke-width="1"/><line x1="682.432" y1="149.6512288" x2="682.432" y2="174.649368" stroke="#9ca3af" stroke-width="1"/><line x1="688.416" y1="153.2072144" x2="688.416" y2="164.7463392" stroke="#9ca3af" stroke-width="1"/>
  <rect x="93.756" y="267.0478232" width="4.488" height="33.9361768" fill="#ef4444"/><rect x="99.74" y="292.4848" width="4.488" height="8.72502639999999" fill="#16a34a"/><rect x="105.724" y="292.072788" width="4.488" height="6.4635088" fill="#ef4444"/><rect x="111.708" y="294.9391432" width="4.488" height="3.597153600000013" fill="#16a34a"/><rect x="117.69200000000001" y="284.1336056" width="4.488" height="10.80553759999998" fill="#16a34a"/><rect x="123.676" y="284.0329432" width="4.488" height="12.87874480000005" fill="#ef4444"/><rect x="129.66" y="296.9117544" width="4.488" height="1.8164383999999814" fill="#ef4444"/><rect x="135.644" y="298.46744" width="4.488" height="1" fill="#16a34a"/><rect x="141.62800000000001" y="298.46744" width="4.488" height="5.786428000000001" fill="#ef4444"/><rect x="147.612" y="304.2538016" width="4.488" height="11.164828000000057" fill="#ef4444"/><rect x="153.596" y="315.418696" width="4.488" height="11.237934399999972" fill="#ef4444"/><rect x="159.58" y="289.0393704" width="4.488" height="37.61725999999999" fill="#16a34a"/><rect x="165.564" y="288.6573048" width="4.488" height="1" fill="#16a34a"/><rect x="171.548" y="277.7439336" width="4.488" height="10.690466399999991" fill="#16a34a"/><rect x="177.532" y="277.7439336" width="4.488" height="2.7224664000000303" fill="#ef4444"/><rect x="183.516" y="279.94728480000003" width="4.488" height="1" fill="#16a34a"/><rect x="189.5" y="277.6605352" width="4.488" height="2.2867496000000074" fill="#16a34a"/><rect x="195.484" y="269.6460552" width="4.488" height="8.014480000000049" fill="#16a34a"/><rect x="201.468" y="269.6460552" width="4.488" height="15.13481760000002" fill="#ef4444"/><rect x="207.452" y="284.7331976" width="4.488" height="16.09868" fill="#ef4444"/><rect x="213.436" y="276.033536" width="4.488" height="24.798341599999958" fill="#16a34a"/><rect x="219.42" y="259.224044" width="4.488" height="16.809492000000034" fill="#16a34a"/><rect x="225.404" y="259.224044" width="4.488" height="10.57353599999999" fill="#ef4444"/><rect x="231.388" y="269.5245432" width="4.488" height="1" fill="#16a34a"/><rect x="237.372" y="260.4717664" width="4.488" height="9.053042400000038" fill="#16a34a"/><rect x="243.356" y="259.309368" width="4.488" height="1.170565599999975" fill="#16a34a"/><rect x="249.34" y="248.527668" width="4.488" height="10.78176639999998" fill="#16a34a"/><rect x="255.32399999999998" y="232.592" width="4.488" height="15.935667999999993" fill="#16a34a"/><rect x="261.308" y="187.4400664" width="4.488" height="45.15193360000001" fill="#16a34a"/><rect x="267.292" y="163.3708632" width="4.488" height="24.069136799999995" fill="#16a34a"/><rect x="273.27599999999995" y="162.4113168" width="4.488" height="1" fill="#16a34a"/><rect x="279.26" y="147.2564464" width="4.488" height="15.154804000000013" fill="#16a34a"/><rect x="285.24399999999997" y="132.886756" width="4.488" height="14.369624000000016" fill="#16a34a"/><rect x="291.22799999999995" y="132.8866896" width="4.488" height="12.4762944" fill="#ef4444"/><rect x="297.212" y="143.7914952" width="4.488" height="1.5714223999999888" fill="#16a34a"/><rect x="303.19599999999997" y="135.5950792" width="4.488" height="8.196416000000028" fill="#16a34a"/><rect x="309.17999999999995" y="135.5951456" width="4.488" height="9.565716800000018" fill="#ef4444"/><rect x="315.164" y="143.5312072" width="4.488" height="1.6295887999999934" fill="#16a34a"/><rect x="321.14799999999997" y="143.5312072" width="4.488" height="8.427753599999988" fill="#ef4444"/><rect x="327.13199999999995" y="151.9589608" width="4.488" height="6.4514904000000115" fill="#ef4444"/><rect x="333.116" y="140.0388992" width="4.488" height="18.37155200000001" fill="#16a34a"/><rect x="339.09999999999997" y="140.0681152" width="4.488" height="13.5078848" fill="#ef4444"/><rect x="345.08399999999995" y="153.538816" width="4.488" height="1" fill="#ef4444"/><rect x="351.068" y="154.174264" width="4.488" height="1.653891200000004" fill="#ef4444"/><rect x="357.05199999999996" y="152.1556376" width="4.488" height="3.6724511999999834" fill="#16a34a"/><rect x="363.03599999999994" y="138.6480848" width="4.488" height="13.507552800000013" fill="#16a34a"/><rect x="369.02" y="138.4205984" width="4.488" height="4.811476800000008" fill="#ef4444"/><rect x="375.00399999999996" y="143.0761016" width="4.488" height="1.2249472000000026" fill="#ef4444"/><rect x="380.988" y="140.4254136" width="4.488" height="3.8755687999999964" fill="#16a34a"/><rect x="386.972" y="140.4253472" width="4.488" height="7.6563184000000035" fill="#ef4444"/><rect x="392.95599999999996" y="148.081732" width="4.488" height="50.38976480000002" fill="#ef4444"/><rect x="398.94" y="198.4714968" width="4.488" height="8.100534399999987" fill="#ef4444"/><rect x="404.924" y="189.2896384" width="4.488" height="17.282392799999997" fill="#16a34a"/><rect x="410.90799999999996" y="184.784" width="4.488" height="4.505638400000009" fill="#16a34a"/><rect x="416.892" y="184.8786864" width="4.488" height="4.782858400000009" fill="#ef4444"/><rect x="422.876" y="184.251804" width="4.488" height="5.409740800000009" fill="#16a34a"/><rect x="428.85999999999996" y="163.5620288" width="4.488" height="20.690704799999992" fill="#16a34a"/><rect x="434.844" y="163.5620288" width="4.488" height="2.0596615999999983" fill="#ef4444"/><rect x="440.828" y="165.6216904" width="4.488" height="1" fill="#ef4444"/><rect x="446.81199999999995" y="140.296" width="4.488" height="26.303297600000008" fill="#16a34a"/><rect x="452.796" y="140.2959336" width="4.488" height="1" fill="#ef4444"/><rect x="458.78" y="130.3359336" width="4.488" height="10.955999999999989" fill="#16a34a"/><rect x="464.76399999999995" y="105.47066080000002" width="4.488" height="24.865272799999985" fill="#16a34a"/><rect x="470.748" y="105.23347999999999" width="4.488" height="40.36874320000001" fill="#ef4444"/><rect x="476.73199999999997" y="145.6022232" width="4.488" height="13.523090400000001" fill="#ef4444"/><rect x="482.71599999999995" y="159.1253136" width="4.488" height="1" fill="#ef4444"/><rect x="488.7" y="157.8919336" width="4.488" height="1.46465120000002" fill="#16a34a"/><rect x="494.68399999999997" y="157.8919336" width="4.488" height="8.555374400000005" fill="#ef4444"/><rect x="500.66799999999995" y="166.4473744" width="4.488" height="34.4452656" fill="#ef4444"/><rect x="506.652" y="189.1044488" width="4.488" height="11.7881912" fill="#16a34a"/><rect x="512.636" y="189.1045152" width="4.488" height="10.560720799999984" fill="#ef4444"/><rect x="518.62" y="169.9768664" width="4.488" height="29.688369599999987" fill="#16a34a"/><rect x="524.6039999999999" y="169.9768" width="4.488" height="13.264993599999997" fill="#ef4444"/><rect x="530.588" y="183.2417936" width="4.488" height="15.136411199999998" fill="#ef4444"/><rect x="536.572" y="198.3782048" width="4.488" height="26.780647200000004" fill="#ef4444"/><rect x="542.5559999999999" y="214.131804" width="4.488" height="11.0269816" fill="#16a34a"/><rect x="548.54" y="214.131804" width="4.488" height="6.211122400000022" fill="#ef4444"/><rect x="554.524" y="209.6840664" width="4.488" height="10.658860000000004" fill="#16a34a"/><rect x="560.5079999999999" y="209.6840664" width="4.488" height="37.51593359999998" fill="#ef4444"/><rect x="566.492" y="244.9597968" width="4.488" height="2.240136800000016" fill="#16a34a"/><rect x="572.476" y="244.9598632" width="4.488" height="5.913384799999989" fill="#ef4444"/><rect x="578.4599999999999" y="240.8065432" width="4.488" height="10.066704799999997" fill="#16a34a"/><rect x="584.444" y="212.5278456" width="4.488" height="28.278763999999995" fill="#16a34a"/><rect x="590.428" y="211.3469216" width="4.488" height="1" fill="#16a34a"/><rect x="596.4119999999999" y="211.3468552" width="4.488" height="5.335771200000011" fill="#ef4444"/><rect x="602.396" y="216.3902672" width="4.488" height="8.683659199999994" fill="#ef4444"/><rect x="608.38" y="225.0739264" width="4.488" height="3.681016800000009" fill="#ef4444"/><rect x="614.3639999999999" y="213.849604" width="4.488" height="14.905339200000014" fill="#16a34a"/><rect x="620.348" y="212.008" width="4.488" height="2.200495999999987" fill="#16a34a"/><rect x="626.332" y="212.008" width="4.488" height="4.2610871999999915" fill="#ef4444"/><rect x="632.3159999999999" y="193.2897736" width="4.488" height="22.97931360000001" fill="#16a34a"/><rect x="638.3" y="178.898636" width="4.488" height="14.391137599999979" fill="#16a34a"/><rect x="644.284" y="170.5951168" width="4.488" height="8.30351920000001" fill="#16a34a"/><rect x="650.2679999999999" y="170.5951168" width="4.488" height="1.9655727999999897" fill="#ef4444"/><rect x="656.252" y="172.5606232" width="4.488" height="4.193292799999995" fill="#ef4444"/><rect x="662.236" y="176.7539824" width="4.488" height="1.4439343999999892" fill="#ef4444"/><rect x="668.22" y="172.6360536" width="4.488" height="5.561863200000005" fill="#16a34a"/><rect x="674.204" y="172.221784" width="4.488" height="1" fill="#16a34a"/><rect x="680.188" y="157.4885536" width="4.488" height="14.733230400000025" fill="#16a34a"/><rect x="686.172" y="157.48862" width="4.488" height="4.081209599999994" fill="#ef4444"/>
        
      </g>
      <g class="legend">
        <g font-size="12" fill="#e5e7eb"><g transform="translate(96, 30)">
        <rect y="-10" width="12" height="12" fill="#3b82f6"></rect>
        <text x="16" y="0">BB 2</text>
      </g></g>
      </g>
    </svg>
  