 <svg width="860" height="420" viewBox="0 0 860 420" xmlns="http://www.w3.org/2000/svg" style="background-color: #1f2937; color: #e5e7eb; font-family: sans-serif;"><title>BTC/JPY 1day chart</title><defs><clipPath id="plotArea"><rect x="96" y="36" width="752" height="352"/></clipPath></defs><g class="axes"><line x1="96" y1="36" x2="96" y2="388" stroke="#4b5563" stroke-width="1"/><g font-size="12" fill="#e5e7eb"><text x="88" y="388" text-anchor="end" dominant-baseline="middle">15,000,000</text><text x="88" y="300" text-anchor="end" dominant-baseline="middle">16,000,000</text><text x="88" y="212" text-anchor="end" dominant-baseline="middle">17,000,000</text><text x="88" y="124" text-anchor="end" dominant-baseline="middle">18,000,000</text><text x="88" y="36" text-anchor="end" dominant-baseline="middle">19,000,000</text></g><line x1="96" y1="388" x2="848" y2="388" stroke="#4b5563" stroke-width="1"/><g font-size="12" fill="#e5e7eb"><text x="102.26666666666667" y="404" text-anchor="middle" fill="#e5e7eb" font-size="10">8/11</text><text x="252.66666666666666" y="404" text-anchor="middle" fill="#e5e7eb" font-size="10">8/23</text><text x="403.06666666666666" y="404" text-anchor="middle" fill="#e5e7eb" font-size="10">9/4</text><text x="553.4666666666667" y="404" text-anchor="middle" fill="#e5e7eb" font-size="10">9/16</text><text x="703.8666666666667" y="404" text-anchor="middle" fill="#e5e7eb" font-size="10">9/28</text></g></g><g class="plot-area" clip-path="url(#plotArea)"><path d="M -2154,239 L -2141,251 L -2129,264 L -2116,273 L -2104,280 L -2091,287 L -2079,302 L -2066,322 L -2053,339 L -2041,352 L -2028,356 L -2016,380 L -2003,373 L -1991,356 L -1978,331 L -1966,321 L -1953,314 L -1941,315 L -1928,320 L -1916,322 L -1903,332 L -1891,342 L -1878,352 L -1865,364 L -1853,374 L -1840,376 L -1828,378 L -1815,393 L -1803,413 L -1790,429 L -1778,450 L -1765,473 L -1753,485 L -1740,489 L -1728,490 L -1715,488 L -1703,489 L -1690,491 L -1677,521 L -1665,521 L -1652,520 L -1640,527 L -1627,532 L -1615,528 L -1602,529 L -1590,531 L -1577,540 L -1565,540 L -1552,539 L -1540,541 L -1527,540 L -1515,539 L -1502,539 L -1489,527 L -1477,524 L -1464,517 L -1452,518 L -1439,516 L -1427,518 L -1414,523 L -1402,534 L -1389,545 L -1377,557 L -1364,574 L -1352,580 L -1339,583 L -1327,585 L -1314,588 L -1301,596 L -1289,572 L -1276,549 L -1264,531 L -1251,511 L -1239,495 L -1226,483 L -1214,477 L -1201,468 L -1189,464 L -1176,449 L -1164,434 L -1151,426 L -1139,422 L -1126,420 L -1113,419 L -1101,418 L -1088,400 L -1076,390 L -1063,379 L -1051,371 L -1038,355 L -1026,339 L -1013,328 L -1001,320 L -988,313 L -976,309 L -963,300 L -951,297 L -938,295 L -925,285 L -913,271 L -900,272 L -888,276 L -875,285 L -863,294 L -850,308 L -838,304 L -825,306 L -813,305 L -800,305 L -788,305 L -775,304 L -763,304 L -750,304 L -737,299 L -725,299 L -712,300 L -700,300 L -687,295 L -675,291 L -662,298 L -650,298 L -637,299 L -625,301 L -612,304 L -600,308 L -587,313 L -575,313 L -562,313 L -549,313 L -537,312 L -524,311 L -512,310 L -499,309 L -487,312 L -474,310 L -462,309 L -449,307 L -437,312 L -424,321 L -412,326 L -399,323 L -387,316 L -374,313 L -361,310 L -349,306 L -336,301 L -324,295 L -311,284 L -299,258 L -286,229 L -274,209 L -261,184 L -249,158 L -236,141 L -224,125 L -211,110 L -199,99 L -186,89 L -173,84 L -161,85 L -148,82 L -136,81 L -123,83 L -111,89 L -98,96 L -86,106 L -73,120 L -61,140 L -48,146 L -36,147 L -23,134 L -11,125 L 2,125 L 15,126 L 27,126 L 40,129 L 52,131 L 65,134 L 77,135 L 90,132 L 102,133 L 115,128 L 127,117 L 140,115 L 152,116 L 165,119 L 177,120 L 190,122 L 203,124 L 215,126 L 228,126 L 240,128 L 253,129 L 265,127 L 278,122 L 290,120 L 303,118 L 315,119 L 328,114 L 340,117 L 353,120 L 365,130 L 378,152 L 391,163 L 403,171 L 416,181 L 428,192 L 441,202 L 453,203 L 466,208 L 478,206 L 491,209 L 503,205 L 516,199 L 528,192 L 541,186 L 553,180 L 566,174 L 579,167 L 591,165 L 604,166 L 616,167 L 629,167 L 641,167 L 654,168 L 666,168 L 679,170 L 691,169 L 704,170 L 716,170 L 729,170 L 741,164 L 754,154 L 767,139 L 779,124 L 792,101 L 804,76 L 817,61 L 829,41 L 842,27 L 842,320 L 829,319 L 817,312 L 804,309 L 792,298 L 779,288 L 767,282 L 754,274 L 741,269 L 729,267 L 716,268 L 704,273 L 691,276 L 679,274 L 666,278 L 654,278 L 641,282 L 629,283 L 616,285 L 604,295 L 591,306 L 579,314 L 566,319 L 553,318 L 541,318 L 528,317 L 516,317 L 503,314 L 491,311 L 478,313 L 466,313 L 453,313 L 441,313 L 428,317 L 416,319 L 403,319 L 391,320 L 378,322 L 365,330 L 353,325 L 340,314 L 328,303 L 315,288 L 303,282 L 290,273 L 278,267 L 265,257 L 253,254 L 240,255 L 228,262 L 215,262 L 203,258 L 190,252 L 177,251 L 165,251 L 152,251 L 140,251 L 127,251 L 115,246 L 102,244 L 90,244 L 77,244 L 65,243 L 52,243 L 40,243 L 27,239 L 15,234 L 2,229 L -11,222 L -23,204 L -36,187 L -48,190 L -61,203 L -73,234 L -86,262 L -98,288 L -111,309 L -123,330 L -136,348 L -148,361 L -161,375 L -173,395 L -186,408 L -199,415 L -211,422 L -224,426 L -236,428 L -249,428 L -261,423 L -274,417 L -286,418 L -299,410 L -311,399 L -324,397 L -336,397 L -349,398 L -361,396 L -374,397 L -387,398 L -399,395 L -412,396 L -424,396 L -437,401 L -449,403 L -462,404 L -474,404 L -487,407 L -499,417 L -512,419 L -524,420 L -537,416 L -549,413 L -562,414 L -575,416 L -587,416 L -600,416 L -612,417 L -625,417 L -637,416 L -650,416 L -662,415 L -675,418 L -687,417 L -700,415 L -712,415 L -725,414 L -737,415 L -750,406 L -763,404 L -775,403 L -788,401 L -800,401 L -813,400 L -825,397 L -838,401 L -850,403 L -863,432 L -875,457 L -888,482 L -900,503 L -913,515 L -925,519 L -938,524 L -951,538 L -963,552 L -976,560 L -988,570 L -1001,576 L -1013,581 L -1026,586 L -1038,587 L -1051,587 L -1063,604 L -1076,622 L -1088,636 L -1101,645 L -1113,660 L -1126,676 L -1139,689 L -1151,699 L -1164,707 L -1176,709 L -1189,712 L -1201,726 L -1214,728 L -1226,743 L -1239,746 L -1251,750 L -1264,742 L -1276,734 L -1289,723 L -1301,708 L -1314,713 L -1327,713 L -1339,713 L -1352,713 L -1364,714 L -1377,720 L -1389,723 L -1402,725 L -1414,726 L -1427,725 L -1439,722 L -1452,710 L -1464,708 L -1477,686 L -1489,676 L -1502,654 L -1515,653 L -1527,651 L -1540,646 L -1552,650 L -1565,652 L -1577,653 L -1590,669 L -1602,675 L -1615,675 L -1627,673 L -1640,676 L -1652,680 L -1665,680 L -1677,680 L -1690,694 L -1703,693 L -1715,692 L -1728,693 L -1740,692 L -1753,691 L -1765,690 L -1778,697 L -1790,701 L -1803,695 L -1815,696 L -1828,690 L -1840,666 L -1853,645 L -1865,638 L -1878,632 L -1891,629 L -1903,627 L -1916,620 L -1928,607 L -1941,607 L -1953,592 L -1966,568 L -1978,541 L -1991,498 L -2003,467 L -2016,448 L -2028,459 L -2041,456 L -2053,458 L -2066,465 L -2079,471 L -2091,472 L -2104,467 L -2116,464 L -2129,463 L -2141,463 L -2154,461 Z" fill="rgba(59, 130, 246, 0.10)" stroke="none" /><path d="M -2154,239 L -2141,251 L -2129,264 L -2116,273 L -2104,280 L -2091,287 L -2079,302 L -2066,322 L -2053,339 L -2041,352 L -2028,356 L -2016,380 L -2003,373 L -1991,356 L -1978,331 L -1966,321 L -1953,314 L -1941,315 L -1928,320 L -1916,322 L -1903,332 L -1891,342 L -1878,352 L -1865,364 L -1853,374 L -1840,376 L -1828,378 L -1815,393 L -1803,413 L -1790,429 L -1778,450 L -1765,473 L -1753,485 L -1740,489 L -1728,490 L -1715,488 L -1703,489 L -1690,491 L -1677,521 L -1665,521 L -1652,520 L -1640,527 L -1627,532 L -1615,528 L -1602,529 L -1590,531 L -1577,540 L -1565,540 L -1552,539 L -1540,541 L -1527,540 L -1515,539 L -1502,539 L -1489,527 L -1477,524 L -1464,517 L -1452,518 L -1439,516 L -1427,518 L -1414,523 L -1402,534 L -1389,545 L -1377,557 L -1364,574 L -1352,580 L -1339,583 L -1327,585 L -1314,588 L -1301,596 L -1289,572 L -1276,549 L -1264,531 L -1251,511 L -1239,495 L -1226,483 L -1214,477 L -1201,468 L -1189,464 L -1176,449 L -1164,434 L -1151,426 L -1139,422 L -1126,420 L -1113,419 L -1101,418 L -1088,400 L -1076,390 L -1063,379 L -1051,371 L -1038,355 L -1026,339 L -1013,328 L -1001,320 L -988,313 L -976,309 L -963,300 L -951,297 L -938,295 L -925,285 L -913,271 L -900,272 L -888,276 L -875,285 L -863,294 L -850,308 L -838,304 L -825,306 L -813,305 L -800,305 L -788,305 L -775,304 L -763,304 L -750,304 L -737,299 L -725,299 L -712,300 L -700,300 L -687,295 L -675,291 L -662,298 L -650,298 L -637,299 L -625,301 L -612,304 L -600,308 L -587,313 L -575,313 L -562,313 L -549,313 L -537,312 L -524,311 L -512,310 L -499,309 L -487,312 L -474,310 L -462,309 L -449,307 L -437,312 L -424,321 L -412,326 L -399,323 L -387,316 L -374,313 L -361,310 L -349,306 L -336,301 L -324,295 L -311,284 L -299,258 L -286,229 L -274,209 L -261,184 L -249,158 L -236,141 L -224,125 L -211,110 L -199,99 L -186,89 L -173,84 L -161,85 L -148,82 L -136,81 L -123,83 L -111,89 L -98,96 L -86,106 L -73,120 L -61,140 L -48,146 L -36,147 L -23,134 L -11,125 L 2,125 L 15,126 L 27,126 L 40,129 L 52,131 L 65,134 L 77,135 L 90,132 L 102,133 L 115,128 L 127,117 L 140,115 L 152,116 L 165,119 L 177,120 L 190,122 L 203,124 L 215,126 L 228,126 L 240,128 L 253,129 L 265,127 L 278,122 L 290,120 L 303,118 L 315,119 L 328,114 L 340,117 L 353,120 L 365,130 L 378,152 L 391,163 L 403,171 L 416,181 L 428,192 L 441,202 L 453,203 L 466,208 L 478,206 L 491,209 L 503,205 L 516,199 L 528,192 L 541,186 L 553,180 L 566,174 L 579,167 L 591,165 L 604,166 L 616,167 L 629,167 L 641,167 L 654,168 L 666,168 L 679,170 L 691,169 L 704,170 L 716,170 L 729,170 L 741,164 L 754,154 L 767,139 L 779,124 L 792,101 L 804,76 L 817,61 L 829,41 L 842,27" fill="none" stroke="#3b82f6" stroke-width="1"/><path d="M -2154,461 L -2141,463 L -2129,463 L -2116,464 L -2104,467 L -2091,472 L -2079,471 L -2066,465 L -2053,458 L -2041,456 L -2028,459 L -2016,448 L -2003,467 L -1991,498 L -1978,541 L -1966,568 L -1953,592 L -1941,607 L -1928,607 L -1916,620 L -1903,627 L -1891,629 L -1878,632 L -1865,638 L -1853,645 L -1840,666 L -1828,690 L -1815,696 L -1803,695 L -1790,701 L -1778,697 L -1765,690 L -1753,691 L -1740,692 L -1728,693 L -1715,692 L -1703,693 L -1690,694 L -1677,680 L -1665,680 L -1652,680 L -1640,676 L -1627,673 L -1615,675 L -1602,675 L -1590,669 L -1577,653 L -1565,652 L -1552,650 L -1540,646 L -1527,651 L -1515,653 L -1502,654 L -1489,676 L -1477,686 L -1464,708 L -1452,710 L -1439,722 L -1427,725 L -1414,726 L -1402,725 L -1389,723 L -1377,720 L -1364,714 L -1352,713 L -1339,713 L -1327,713 L -1314,713 L -1301,708 L -1289,723 L -1276,734 L -1264,742 L -1251,750 L -1239,746 L -1226,743 L -1214,728 L -1201,726 L -1189,712 L -1176,709 L -1164,707 L -1151,699 L -1139,689 L -1126,676 L -1113,660 L -1101,645 L -1088,636 L -1076,622 L -1063,604 L -1051,587 L -1038,587 L -1026,586 L -1013,581 L -1001,576 L -988,570 L -976,560 L -963,552 L -951,538 L -938,524 L -925,519 L -913,515 L -900,503 L -888,482 L -875,457 L -863,432 L -850,403 L -838,401 L -825,397 L -813,400 L -800,401 L -788,401 L -775,403 L -763,404 L -750,406 L -737,415 L -725,414 L -712,415 L -700,415 L -687,417 L -675,418 L -662,415 L -650,416 L -637,416 L -625,417 L -612,417 L -600,416 L -587,416 L -575,416 L -562,414 L -549,413 L -537,416 L -524,420 L -512,419 L -499,417 L -487,407 L -474,404 L -462,404 L -449,403 L -437,401 L -424,396 L -412,396 L -399,395 L -387,398 L -374,397 L -361,396 L -349,398 L -336,397 L -324,397 L -311,399 L -299,410 L -286,418 L -274,417 L -261,423 L -249,428 L -236,428 L -224,426 L -211,422 L -199,415 L -186,408 L -173,395 L -161,375 L -148,361 L -136,348 L -123,330 L -111,309 L -98,288 L -86,262 L -73,234 L -61,203 L -48,190 L -36,187 L -23,204 L -11,222 L 2,229 L 15,234 L 27,239 L 40,243 L 52,243 L 65,243 L 77,244 L 90,244 L 102,244 L 115,246 L 127,251 L 140,251 L 152,251 L 165,251 L 177,251 L 190,252 L 203,258 L 215,262 L 228,262 L 240,255 L 253,254 L 265,257 L 278,267 L 290,273 L 303,282 L 315,288 L 328,303 L 340,314 L 353,325 L 365,330 L 378,322 L 391,320 L 403,319 L 416,319 L 428,317 L 441,313 L 453,313 L 466,313 L 478,313 L 491,311 L 503,314 L 516,317 L 528,317 L 541,318 L 553,318 L 566,319 L 579,314 L 591,306 L 604,295 L 616,285 L 629,283 L 641,282 L 654,278 L 666,278 L 679,274 L 691,276 L 704,273 L 716,268 L 729,267 L 741,269 L 754,274 L 767,282 L 779,288 L 792,298 L 804,309 L 817,312 L 829,319 L 842,320" fill="none" stroke="#3b82f6" stroke-width="1"/><path d="M -2154,350 L -2141,357 L -2129,364 L -2116,369 L -2104,374 L -2091,379 L -2079,386 L -2066,393 L -2053,399 L -2041,404 L -2028,407 L -2016,414 L -2003,420 L -1991,427 L -1978,436 L -1966,445 L -1953,453 L -1941,461 L -1928,463 L -1916,471 L -1903,480 L -1891,485 L -1878,492 L -1865,501 L -1853,509 L -1840,521 L -1828,534 L -1815,544 L -1803,554 L -1790,565 L -1778,573 L -1765,581 L -1753,588 L -1740,591 L -1728,591 L -1715,590 L -1703,591 L -1690,593 L -1677,600 L -1665,600 L -1652,600 L -1640,602 L -1627,603 L -1615,601 L -1602,602 L -1590,600 L -1577,596 L -1565,596 L -1552,595 L -1540,594 L -1527,595 L -1515,596 L -1502,597 L -1489,602 L -1477,605 L -1464,613 L -1452,614 L -1439,619 L -1427,622 L -1414,624 L -1402,629 L -1389,634 L -1377,638 L -1364,644 L -1352,646 L -1339,648 L -1327,649 L -1314,650 L -1301,652 L -1289,647 L -1276,642 L -1264,637 L -1251,631 L -1239,621 L -1226,613 L -1214,602 L -1201,597 L -1189,588 L -1176,579 L -1164,571 L -1151,562 L -1139,555 L -1126,548 L -1113,540 L -1101,531 L -1088,518 L -1076,506 L -1063,492 L -1051,479 L -1038,471 L -1026,462 L -1013,455 L -1001,448 L -988,441 L -976,434 L -963,426 L -951,418 L -938,409 L -925,402 L -913,393 L -900,387 L -888,379 L -875,371 L -863,363 L -850,355 L -838,352 L -825,351 L -813,352 L -800,353 L -788,353 L -775,354 L -763,354 L -750,355 L -737,357 L -725,357 L -712,358 L -700,358 L -687,356 L -675,355 L -662,357 L -650,357 L -637,358 L -625,359 L -612,361 L -600,362 L -587,364 L -575,364 L -562,363 L -549,363 L -537,364 L -524,366 L -512,365 L -499,363 L -487,359 L -474,357 L -462,356 L -449,355 L -437,356 L -424,358 L -412,361 L -399,359 L -387,357 L -374,355 L -361,353 L -349,352 L -336,349 L -324,346 L -311,342 L -299,334 L -286,324 L -274,313 L -261,303 L -249,293 L -236,284 L -224,275 L -211,266 L -199,257 L -186,249 L -173,240 L -161,230 L -148,221 L -136,214 L -123,207 L -111,199 L -98,192 L -86,184 L -73,177 L -61,171 L -48,168 L -36,167 L -23,169 L -11,173 L 2,177 L 15,180 L 27,183 L 40,186 L 52,187 L 65,189 L 77,190 L 90,188 L 102,188 L 115,187 L 127,184 L 140,183 L 152,183 L 165,185 L 177,186 L 190,187 L 203,191 L 215,194 L 228,194 L 240,192 L 253,191 L 265,192 L 278,195 L 290,197 L 303,200 L 315,203 L 328,209 L 340,215 L 353,223 L 365,230 L 378,237 L 391,241 L 403,245 L 416,250 L 428,254 L 441,258 L 453,258 L 466,260 L 478,260 L 491,260 L 503,259 L 516,258 L 528,254 L 541,252 L 553,249 L 566,246 L 579,240 L 591,236 L 604,230 L 616,226 L 629,225 L 641,225 L 654,223 L 666,223 L 679,222 L 691,222 L 704,221 L 716,219 L 729,219 L 741,217 L 754,214 L 767,210 L 779,206 L 792,199 L 804,192 L 817,186 L 829,180 L 842,173" fill="none" stroke="#9ca3af" stroke-width="1" stroke-dasharray="4 4"/><line x1="102.26666666666667" y1="124.880088" x2="102.26666666666667" y2="167.908832" stroke="#9ca3af" stroke-width="1"/><line x1="114.8" y1="143.36" x2="114.8" y2="161.269408" stroke="#9ca3af" stroke-width="1"/><line x1="127.33333333333333" y1="108.072" x2="127.33333333333333" y2="156.559912" stroke="#9ca3af" stroke-width="1"/><line x1="139.86666666666667" y1="102.88" x2="139.86666666666667" y2="179.44" stroke="#9ca3af" stroke-width="1"/><line x1="152.4" y1="158.9712" x2="152.4" y2="193.742992" stroke="#9ca3af" stroke-width="1"/><line x1="164.93333333333334" y1="175.62828" x2="164.93333333333334" y2="191.395328" stroke="#9ca3af" stroke-width="1"/><line x1="177.46666666666667" y1="168.932272" x2="177.46666666666667" y2="189.364728" stroke="#9ca3af" stroke-width="1"/><line x1="190" y1="179.147928" x2="190" y2="217.013976" stroke="#9ca3af" stroke-width="1"/><line x1="202.53333333333333" y1="177.68" x2="202.53333333333333" y2="241.128" stroke="#9ca3af" stroke-width="1"/><line x1="215.06666666666666" y1="218.971008" x2="215.06666666666666" y2="249.424728" stroke="#9ca3af" stroke-width="1"/><line x1="227.6" y1="215.562944" x2="227.6" y2="242.8" stroke="#9ca3af" stroke-width="1"/><line x1="240.13333333333333" y1="190.528088" x2="240.13333333333333" y2="244.660496" stroke="#9ca3af" stroke-width="1"/><line x1="252.66666666666666" y1="197.04" x2="252.66666666666666" y2="226.96" stroke="#9ca3af" stroke-width="1"/><line x1="265.2" y1="212.370744" x2="265.2" y2="264.8" stroke="#9ca3af" stroke-width="1"/><line x1="277.73333333333335" y1="232.337856" x2="277.73333333333335" y2="283.944136" stroke="#9ca3af" stroke-width="1"/><line x1="290.26666666666665" y1="249.047912" x2="290.26666666666665" y2="297.36" stroke="#9ca3af" stroke-width="1"/><line x1="302.8" y1="239.980832" x2="302.8" y2="268.67103199999997" stroke="#9ca3af" stroke-width="1"/><line x1="315.33333333333337" y1="235.500488" x2="315.33333333333337" y2="266.56" stroke="#9ca3af" stroke-width="1"/><line x1="327.8666666666667" y1="247.402928" x2="327.8666666666667" y2="312.606088" stroke="#9ca3af" stroke-width="1"/><line x1="340.4" y1="295.281616" x2="340.4" y2="313.598904" stroke="#9ca3af" stroke-width="1"/><line x1="352.93333333333334" y1="288.087968" x2="352.93333333333334" y2="306.574832" stroke="#9ca3af" stroke-width="1"/><line x1="365.46666666666664" y1="283.042488" x2="365.46666666666664" y2="316.925832" stroke="#9ca3af" stroke-width="1"/><line x1="378" y1="252.839568" x2="378" y2="293.908552" stroke="#9ca3af" stroke-width="1"/><line x1="390.53333333333336" y1="241.040088" x2="390.53333333333336" y2="262.66837599999997" stroke="#9ca3af" stroke-width="1"/><line x1="403.06666666666666" y1="233.89" x2="403.06666666666666" y2="273.951912" stroke="#9ca3af" stroke-width="1"/><line x1="415.6" y1="231.36" x2="415.6" y2="277.429056" stroke="#9ca3af" stroke-width="1"/><line x1="428.1333333333333" y1="262.15999999999997" x2="428.1333333333333" y2="277.12" stroke="#9ca3af" stroke-width="1"/><line x1="440.6666666666667" y1="249.829176" x2="440.6666666666667" y2="275.55483200000003" stroke="#9ca3af" stroke-width="1"/><line x1="453.2" y1="240.6418" x2="453.2" y2="263.521096" stroke="#9ca3af" stroke-width="1"/><line x1="465.73333333333335" y1="240.623672" x2="465.73333333333335" y2="269.540296" stroke="#9ca3af" stroke-width="1"/><line x1="478.26666666666665" y1="226.08" x2="478.26666666666665" y2="266.67748" stroke="#9ca3af" stroke-width="1"/><line x1="490.8" y1="209.36" x2="490.8" y2="233.129856" stroke="#9ca3af" stroke-width="1"/><line x1="503.3333333333333" y1="191.738704" x2="503.3333333333333" y2="212" stroke="#9ca3af" stroke-width="1"/><line x1="515.8666666666667" y1="196.4152" x2="515.8666666666667" y2="210.992664" stroke="#9ca3af" stroke-width="1"/><line x1="528.4" y1="198.242696" x2="528.4" y2="209.1312" stroke="#9ca3af" stroke-width="1"/><line x1="540.9333333333334" y1="191.918136" x2="540.9333333333334" y2="222.11824" stroke="#9ca3af" stroke-width="1"/><line x1="553.4666666666667" y1="198.812144" x2="553.4666666666667" y2="220.8" stroke="#9ca3af" stroke-width="1"/><line x1="566" y1="191.274152" x2="566" y2="228.28" stroke="#9ca3af" stroke-width="1"/><line x1="578.5333333333333" y1="170.718496" x2="578.5333333333333" y2="203.84856" stroke="#9ca3af" stroke-width="1"/><line x1="591.0666666666666" y1="175.431248" x2="591.0666666666666" y2="203.904" stroke="#9ca3af" stroke-width="1"/><line x1="603.6" y1="192.712072" x2="603.6" y2="199.714056" stroke="#9ca3af" stroke-width="1"/><line x1="616.1333333333333" y1="195.3064" x2="616.1333333333333" y2="205.710024" stroke="#9ca3af" stroke-width="1"/><line x1="628.6666666666666" y1="201.5654" x2="628.6666666666666" y2="247.194632" stroke="#9ca3af" stroke-width="1"/><line x1="641.2" y1="231.528256" x2="641.2" y2="255.4742" stroke="#9ca3af" stroke-width="1"/><line x1="653.7333333333333" y1="213.263504" x2="653.7333333333333" y2="256" stroke="#9ca3af" stroke-width="1"/><line x1="666.2666666666667" y1="220.939656" x2="666.2666666666667" y2="271.64639999999997" stroke="#9ca3af" stroke-width="1"/><line x1="678.8" y1="252.85972" x2="678.8" y2="273.101128" stroke="#9ca3af" stroke-width="1"/><line x1="691.3333333333334" y1="260.408888" x2="691.3333333333334" y2="268.498376" stroke="#9ca3af" stroke-width="1"/><line x1="703.8666666666667" y1="229.13448" x2="703.8666666666667" y2="267.117568" stroke="#9ca3af" stroke-width="1"/><line x1="716.4" y1="208.573368" x2="716.4" y2="242.956816" stroke="#9ca3af" stroke-width="1"/><line x1="728.9333333333333" y1="203.726592" x2="728.9333333333333" y2="237.428832" stroke="#9ca3af" stroke-width="1"/><line x1="741.4666666666667" y1="172.4" x2="741.4666666666667" y2="223.44" stroke="#9ca3af" stroke-width="1"/><line x1="754" y1="141.6" x2="754" y2="174.730856" stroke="#9ca3af" stroke-width="1"/><line x1="766.5333333333333" y1="102" x2="766.5333333333333" y2="156.530608" stroke="#9ca3af" stroke-width="1"/><line x1="779.0666666666667" y1="112.778504" x2="779.0666666666667" y2="128.308832" stroke="#9ca3af" stroke-width="1"/><line x1="791.6" y1="75.17839199999997" x2="791.6" y2="119.09197599999999" stroke="#9ca3af" stroke-width="1"/><line x1="804.1333333333333" y1="41.58439199999998" x2="804.1333333333333" y2="86.091096" stroke="#9ca3af" stroke-width="1"/><line x1="816.6666666666666" y1="43.820295999999985" x2="816.6666666666666" y2="96.646256" stroke="#9ca3af" stroke-width="1"/><line x1="829.2" y1="40.39999999999998" x2="829.2" y2="80.86961600000001" stroke="#9ca3af" stroke-width="1"/><line x1="841.7333333333333" y1="50.53170399999999" x2="841.7333333333333" y2="73.83999999999997" stroke="#9ca3af" stroke-width="1"/><rect x="98.13066666666667" y="158.319912" width="8.272" height="1.3200879999999984" fill="#ef4444"/><rect x="110.664" y="145.119912" width="8.272" height="14.52000000000001" fill="#16a34a"/><rect x="123.19733333333333" y="112.16593599999999" width="8.272" height="32.95397600000001" fill="#16a34a"/><rect x="135.73066666666668" y="111.85160000000002" width="8.272" height="53.50074399999997" fill="#ef4444"/><rect x="148.264" y="165.352344" width="8.272" height="17.922168" fill="#ef4444"/><rect x="160.79733333333334" y="183.274512" width="8.272" height="1" fill="#ef4444"/><rect x="173.33066666666667" y="181.639912" width="8.272" height="1.9411039999999957" fill="#16a34a"/><rect x="185.864" y="181.639912" width="8.272" height="11.338448" fill="#ef4444"/><rect x="198.39733333333334" y="192.978448" width="8.272" height="45.65035200000003" fill="#ef4444"/><rect x="210.93066666666667" y="223.005896" width="8.272" height="15.622904000000005" fill="#16a34a"/><rect x="223.464" y="223.005984" width="8.272" height="13.996135999999979" fill="#ef4444"/><rect x="235.99733333333333" y="197.656088" width="8.272" height="39.34603199999998" fill="#16a34a"/><rect x="248.53066666666666" y="197.656" width="8.272" height="17.580111999999986" fill="#ef4444"/><rect x="261.06399999999996" y="215.236112" width="8.272" height="20.060304000000002" fill="#ef4444"/><rect x="273.5973333333333" y="235.296416" width="8.272" height="35.492424" fill="#ef4444"/><rect x="286.1306666666666" y="256.17467999999997" width="8.272" height="14.614072000000021" fill="#16a34a"/><rect x="298.664" y="256.17467999999997" width="8.272" height="8.231608000000051" fill="#ef4444"/><rect x="311.19733333333335" y="250.280088" width="8.272" height="14.126200000000011" fill="#16a34a"/><rect x="323.73066666666665" y="250.280088" width="8.272" height="49.719911999999994" fill="#ef4444"/><rect x="336.26399999999995" y="297.03105600000004" width="8.272" height="2.9688559999999597" fill="#16a34a"/><rect x="348.7973333333333" y="297.031144" width="8.272" height="7.8370160000000055" fill="#ef4444"/><rect x="361.3306666666666" y="291.526744" width="8.272" height="13.341415999999981" fill="#16a34a"/><rect x="373.864" y="254.048952" width="8.272" height="37.47788" fill="#16a34a"/><rect x="386.39733333333334" y="252.483872" width="8.272" height="1.1080960000000175" fill="#16a34a"/><rect x="398.93066666666664" y="252.483784" width="8.272" height="7.0715040000000045" fill="#ef4444"/><rect x="411.464" y="259.167824" width="8.272" height="11.508464000000004" fill="#ef4444"/><rect x="423.9973333333333" y="270.676288" width="8.272" height="4.878456000000028" fill="#ef4444"/><rect x="436.53066666666666" y="255.80068" width="8.272" height="19.754064000000028" fill="#16a34a"/><rect x="449.06399999999996" y="253.36" width="8.272" height="2.9163199999999847" fill="#16a34a"/><rect x="461.5973333333333" y="253.36" width="8.272" height="5.647223999999994" fill="#ef4444"/><rect x="474.1306666666666" y="228.552712" width="8.272" height="30.454511999999994" fill="#16a34a"/><rect x="486.664" y="209.48012" width="8.272" height="19.072592000000014" fill="#16a34a"/><rect x="499.1973333333333" y="198.475456" width="8.272" height="11.004663999999991" fill="#16a34a"/><rect x="511.73066666666665" y="198.475456" width="8.272" height="2.6049759999999935" fill="#ef4444"/><rect x="524.264" y="201.080344" width="8.272" height="5.557376000000005" fill="#ef4444"/><rect x="536.7973333333334" y="206.637808" width="8.272" height="1.913647999999995" fill="#ef4444"/><rect x="549.3306666666667" y="201.180312" width="8.272" height="7.371144000000015" fill="#16a34a"/><rect x="561.864" y="200.63128" width="8.272" height="1" fill="#16a34a"/><rect x="574.3973333333333" y="181.105312" width="8.272" height="19.525968000000006" fill="#16a34a"/><rect x="586.9306666666666" y="181.1054" width="8.272" height="17.334239999999994" fill="#ef4444"/><rect x="599.464" y="197.656" width="8.272" height="1" fill="#16a34a"/><rect x="611.9973333333334" y="197.656" width="8.272" height="6.424087999999983" fill="#ef4444"/><rect x="624.5306666666667" y="204.08" width="8.272" height="33.88651199999998" fill="#ef4444"/><rect x="637.0640000000001" y="237.966512" width="8.272" height="10.993400000000008" fill="#ef4444"/><rect x="649.5973333333334" y="222.77428" width="8.272" height="26.185632" fill="#16a34a"/><rect x="662.1306666666667" y="222.77428" width="8.272" height="44.82746399999999" fill="#ef4444"/><rect x="674.664" y="260.634256" width="8.272" height="6.967399999999998" fill="#16a34a"/><rect x="687.1973333333334" y="260.634344" width="8.272" height="2.194191999999987" fill="#ef4444"/><rect x="699.7306666666667" y="232.278808" width="8.272" height="30.549727999999988" fill="#16a34a"/><rect x="712.264" y="210.24" width="8.272" height="22.03880799999999" fill="#16a34a"/><rect x="724.7973333333333" y="210.24" width="8.272" height="9.25539999999998" fill="#ef4444"/><rect x="737.3306666666667" y="172.669808" width="8.272" height="46.91913600000001" fill="#16a34a"/><rect x="749.864" y="147.81852" width="8.272" height="24.851287999999983" fill="#16a34a"/><rect x="762.3973333333333" y="124.17010399999998" width="8.272" height="23.64832800000002" fill="#16a34a"/><rect x="774.9306666666668" y="117.66391199999998" width="8.272" height="6.506191999999999" fill="#16a34a"/><rect x="787.464" y="81.56622399999998" width="8.272" height="36.097688000000005" fill="#16a34a"/><rect x="799.9973333333334" y="57.948432000000025" width="8.272" height="23.714591999999982" fill="#16a34a"/><rect x="812.5306666666667" y="57.948432000000025" width="8.272" height="22.921183999999982" fill="#ef4444"/><rect x="825.0640000000001" y="51.13591200000002" width="8.272" height="29.733615999999984" fill="#16a34a"/><rect x="837.5973333333334" y="51.13591200000002" width="8.272" height="17.323591999999962" fill="#ef4444"/></g><g class="legend"><g font-size="12" fill="#e5e7eb"><g transform="translate(96, 18)"><rect y="-10" width="12" height="12" fill="#3b82f6"></rect><text x="16" y="0">BB ±2σ</text></g></g></g></svg> 