 <svg width="860" height="420" viewBox="0 0 860 420" xmlns="http://www.w3.org/2000/svg" style="background-color: #1f2937; color: #e5e7eb; font-family: sans-serif;"><title>BTC/JPY 1day chart</title><defs><clipPath id="plotArea"><rect x="96" y="36" width="752" height="352"/></clipPath></defs><g class="axes"><line x1="96" y1="36" x2="96" y2="388" stroke="#4b5563" stroke-width="1"/><g font-size="12" fill="#e5e7eb"><text x="88" y="388" text-anchor="end" dominant-baseline="middle">14,000,000</text><text x="88" y="317.6" text-anchor="end" dominant-baseline="middle">15,000,000</text><text x="88" y="247.2" text-anchor="end" dominant-baseline="middle">16,000,000</text><text x="88" y="176.8" text-anchor="end" dominant-baseline="middle">17,000,000</text><text x="88" y="106.39999999999998" text-anchor="end" dominant-baseline="middle">18,000,000</text><text x="88" y="36" text-anchor="end" dominant-baseline="middle">19,000,000</text></g><line x1="96" y1="388" x2="848" y2="388" stroke="#4b5563" stroke-width="1"/><g font-size="12" fill="#e5e7eb"><text x="100.17777777777778" y="404" text-anchor="middle" fill="#e5e7eb" font-size="10">7/2</text><text x="250.57777777777778" y="404" text-anchor="middle" fill="#e5e7eb" font-size="10">7/20</text><text x="400.97777777777776" y="404" text-anchor="middle" fill="#e5e7eb" font-size="10">8/7</text><text x="551.3777777777777" y="404" text-anchor="middle" fill="#e5e7eb" font-size="10">8/25</text><text x="701.7777777777778" y="404" text-anchor="middle" fill="#e5e7eb" font-size="10">9/12</text></g></g><g class="plot-area" clip-path="url(#plotArea)"><path d="M -1262,220 L -1253,209 L -1245,202 L -1237,196 L -1228,190 L -1220,184 L -1212,185 L -1203,183 L -1195,183 L -1187,185 L -1178,185 L -1170,189 L -1162,194 L -1153,199 L -1145,202 L -1136,197 L -1128,189 L -1120,184 L -1111,184 L -1103,181 L -1095,180 L -1086,187 L -1078,192 L -1070,199 L -1061,208 L -1053,219 L -1045,226 L -1036,231 L -1028,237 L -1019,249 L -1011,265 L -1003,279 L -994,288 L -986,292 L -978,311 L -969,305 L -961,292 L -953,272 L -944,264 L -936,259 L -928,259 L -919,263 L -911,265 L -902,273 L -894,280 L -886,289 L -877,299 L -869,306 L -861,308 L -852,310 L -844,322 L -836,338 L -827,350 L -819,367 L -811,386 L -802,395 L -794,399 L -786,399 L -777,398 L -769,398 L -760,400 L -752,424 L -744,424 L -735,423 L -727,429 L -719,433 L -710,429 L -702,430 L -694,432 L -685,439 L -677,439 L -669,438 L -660,440 L -652,439 L -643,439 L -635,439 L -627,429 L -618,426 L -610,421 L -602,422 L -593,420 L -585,421 L -577,425 L -568,434 L -560,443 L -552,453 L -543,466 L -535,471 L -526,474 L -518,475 L -510,478 L -501,484 L -493,464 L -485,447 L -476,432 L -468,416 L -460,403 L -451,394 L -443,389 L -435,381 L -426,378 L -418,366 L -410,355 L -401,348 L -393,344 L -384,343 L -376,343 L -368,342 L -359,327 L -351,319 L -343,311 L -334,304 L -326,291 L -318,278 L -309,270 L -301,263 L -293,257 L -284,254 L -276,247 L -267,245 L -259,243 L -251,235 L -242,224 L -234,224 L -226,228 L -217,235 L -209,242 L -201,253 L -192,251 L -184,252 L -176,251 L -167,251 L -159,251 L -150,251 L -142,251 L -134,250 L -125,246 L -117,247 L -109,247 L -100,247 L -92,243 L -84,240 L -75,246 L -67,246 L -59,246 L -50,248 L -42,251 L -34,253 L -25,257 L -17,257 L -8,257 L 0,257 L 8,257 L 17,256 L 25,255 L 33,255 L 42,256 L 50,255 L 58,254 L 67,253 L 75,257 L 83,264 L 92,268 L 100,266 L 109,260 L 117,258 L 125,255 L 134,252 L 142,248 L 150,243 L 159,234 L 167,214 L 175,191 L 184,174 L 192,154 L 200,134 L 209,120 L 217,107 L 226,95 L 234,86 L 242,79 L 251,75 L 259,76 L 267,73 L 276,72 L 284,74 L 292,79 L 301,84 L 309,92 L 317,103 L 326,119 L 334,124 L 342,125 L 351,115 L 359,107 L 368,108 L 376,108 L 384,108 L 393,111 L 401,112 L 409,114 L 418,115 L 426,113 L 434,113 L 443,110 L 451,100 L 459,100 L 468,100 L 476,102 L 485,103 L 493,105 L 501,107 L 510,108 L 518,108 L 526,110 L 535,110 L 543,109 L 551,105 L 560,103 L 568,102 L 576,102 L 585,99 L 593,101 L 602,103 L 610,111 L 618,129 L 627,138 L 635,144 L 643,152 L 652,161 L 660,169 L 668,170 L 677,173 L 685,172 L 693,175 L 702,171 L 710,166 L 718,161 L 727,156 L 735,151 L 744,147 L 752,141 L 760,139 L 769,140 L 777,141 L 785,141 L 794,141 L 802,141 L 810,142 L 819,143 L 827,143 L 835,143 L 844,144 L 844,223 L 835,226 L 827,228 L 819,227 L 810,229 L 802,230 L 794,233 L 785,234 L 777,235 L 769,243 L 760,252 L 752,258 L 744,262 L 735,262 L 727,261 L 718,261 L 710,261 L 702,258 L 693,256 L 685,258 L 677,257 L 668,258 L 660,258 L 652,260 L 643,262 L 635,263 L 627,263 L 618,265 L 610,271 L 602,267 L 593,259 L 585,249 L 576,237 L 568,233 L 560,226 L 551,221 L 543,213 L 535,210 L 526,211 L 518,217 L 510,216 L 501,214 L 493,209 L 485,208 L 476,208 L 468,208 L 459,208 L 451,208 L 443,204 L 434,203 L 426,203 L 418,202 L 409,202 L 401,202 L 393,201 L 384,199 L 376,194 L 368,190 L 359,185 L 351,171 L 342,157 L 334,159 L 326,169 L 317,194 L 309,217 L 301,237 L 292,254 L 284,271 L 276,285 L 267,296 L 259,307 L 251,323 L 242,333 L 234,339 L 226,345 L 217,348 L 209,350 L 200,349 L 192,346 L 184,341 L 175,342 L 167,335 L 159,326 L 150,325 L 142,325 L 134,325 L 125,324 L 117,325 L 109,325 L 100,323 L 92,324 L 83,324 L 75,328 L 67,330 L 58,330 L 50,331 L 42,332 L 33,341 L 25,343 L 17,343 L 8,340 L 0,338 L -8,338 L -17,340 L -25,340 L -34,340 L -42,341 L -50,341 L -59,340 L -67,340 L -75,339 L -84,342 L -92,341 L -100,339 L -109,339 L -117,339 L -125,339 L -134,332 L -142,330 L -150,330 L -159,328 L -167,328 L -176,327 L -184,324 L -192,328 L -201,330 L -209,353 L -217,373 L -226,393 L -234,409 L -242,419 L -251,422 L -259,426 L -267,438 L -276,449 L -284,455 L -293,463 L -301,468 L -309,472 L -318,476 L -326,477 L -334,477 L -343,491 L -351,505 L -359,516 L -368,523 L -376,535 L -384,548 L -393,559 L -401,566 L -410,572 L -418,574 L -426,576 L -435,588 L -443,589 L -451,602 L -460,604 L -468,607 L -476,601 L -485,595 L -493,586 L -501,574 L -510,577 L -518,577 L -526,577 L -535,577 L -543,579 L -552,583 L -560,585 L -568,587 L -577,588 L -585,587 L -593,585 L -602,576 L -610,574 L -618,556 L -627,548 L -635,530 L -643,530 L -652,528 L -660,524 L -669,527 L -677,529 L -685,530 L -694,542 L -702,547 L -710,547 L -719,546 L -727,548 L -735,551 L -744,551 L -752,551 L -760,563 L -769,562 L -777,561 L -786,561 L -794,560 L -802,560 L -811,559 L -819,565 L -827,568 L -836,564 L -844,564 L -852,559 L -861,540 L -869,523 L -877,518 L -886,513 L -894,511 L -902,509 L -911,503 L -919,493 L -928,493 L -936,481 L -944,462 L -953,440 L -961,405 L -969,381 L -978,365 L -986,374 L -994,372 L -1003,373 L -1011,379 L -1019,384 L -1028,385 L -1036,381 L -1045,378 L -1053,377 L -1061,378 L -1070,376 L -1078,375 L -1086,368 L -1095,363 L -1103,354 L -1111,342 L -1120,329 L -1128,313 L -1136,300 L -1145,291 L -1153,298 L -1162,305 L -1170,315 L -1178,326 L -1187,335 L -1195,347 L -1203,352 L -1212,354 L -1220,354 L -1228,354 L -1237,354 L -1245,355 L -1253,355 L -1262,355 Z" fill="rgba(59, 130, 246, 0.10)" stroke="none" /><path d="M -1262,220 L -1253,209 L -1245,202 L -1237,196 L -1228,190 L -1220,184 L -1212,185 L -1203,183 L -1195,183 L -1187,185 L -1178,185 L -1170,189 L -1162,194 L -1153,199 L -1145,202 L -1136,197 L -1128,189 L -1120,184 L -1111,184 L -1103,181 L -1095,180 L -1086,187 L -1078,192 L -1070,199 L -1061,208 L -1053,219 L -1045,226 L -1036,231 L -1028,237 L -1019,249 L -1011,265 L -1003,279 L -994,288 L -986,292 L -978,311 L -969,305 L -961,292 L -953,272 L -944,264 L -936,259 L -928,259 L -919,263 L -911,265 L -902,273 L -894,280 L -886,289 L -877,299 L -869,306 L -861,308 L -852,310 L -844,322 L -836,338 L -827,350 L -819,367 L -811,386 L -802,395 L -794,399 L -786,399 L -777,398 L -769,398 L -760,400 L -752,424 L -744,424 L -735,423 L -727,429 L -719,433 L -710,429 L -702,430 L -694,432 L -685,439 L -677,439 L -669,438 L -660,440 L -652,439 L -643,439 L -635,439 L -627,429 L -618,426 L -610,421 L -602,422 L -593,420 L -585,421 L -577,425 L -568,434 L -560,443 L -552,453 L -543,466 L -535,471 L -526,474 L -518,475 L -510,478 L -501,484 L -493,464 L -485,447 L -476,432 L -468,416 L -460,403 L -451,394 L -443,389 L -435,381 L -426,378 L -418,366 L -410,355 L -401,348 L -393,344 L -384,343 L -376,343 L -368,342 L -359,327 L -351,319 L -343,311 L -334,304 L -326,291 L -318,278 L -309,270 L -301,263 L -293,257 L -284,254 L -276,247 L -267,245 L -259,243 L -251,235 L -242,224 L -234,224 L -226,228 L -217,235 L -209,242 L -201,253 L -192,251 L -184,252 L -176,251 L -167,251 L -159,251 L -150,251 L -142,251 L -134,250 L -125,246 L -117,247 L -109,247 L -100,247 L -92,243 L -84,240 L -75,246 L -67,246 L -59,246 L -50,248 L -42,251 L -34,253 L -25,257 L -17,257 L -8,257 L 0,257 L 8,257 L 17,256 L 25,255 L 33,255 L 42,256 L 50,255 L 58,254 L 67,253 L 75,257 L 83,264 L 92,268 L 100,266 L 109,260 L 117,258 L 125,255 L 134,252 L 142,248 L 150,243 L 159,234 L 167,214 L 175,191 L 184,174 L 192,154 L 200,134 L 209,120 L 217,107 L 226,95 L 234,86 L 242,79 L 251,75 L 259,76 L 267,73 L 276,72 L 284,74 L 292,79 L 301,84 L 309,92 L 317,103 L 326,119 L 334,124 L 342,125 L 351,115 L 359,107 L 368,108 L 376,108 L 384,108 L 393,111 L 401,112 L 409,114 L 418,115 L 426,113 L 434,113 L 443,110 L 451,100 L 459,100 L 468,100 L 476,102 L 485,103 L 493,105 L 501,107 L 510,108 L 518,108 L 526,110 L 535,110 L 543,109 L 551,105 L 560,103 L 568,102 L 576,102 L 585,99 L 593,101 L 602,103 L 610,111 L 618,129 L 627,138 L 635,144 L 643,152 L 652,161 L 660,169 L 668,170 L 677,173 L 685,172 L 693,175 L 702,171 L 710,166 L 718,161 L 727,156 L 735,151 L 744,147 L 752,141 L 760,139 L 769,140 L 777,141 L 785,141 L 794,141 L 802,141 L 810,142 L 819,143 L 827,143 L 835,143 L 844,144" fill="none" stroke="#3b82f6" stroke-width="1"/><path d="M -1262,355 L -1253,355 L -1245,355 L -1237,354 L -1228,354 L -1220,354 L -1212,354 L -1203,352 L -1195,347 L -1187,335 L -1178,326 L -1170,315 L -1162,305 L -1153,298 L -1145,291 L -1136,300 L -1128,313 L -1120,329 L -1111,342 L -1103,354 L -1095,363 L -1086,368 L -1078,375 L -1070,376 L -1061,378 L -1053,377 L -1045,378 L -1036,381 L -1028,385 L -1019,384 L -1011,379 L -1003,373 L -994,372 L -986,374 L -978,365 L -969,381 L -961,405 L -953,440 L -944,462 L -936,481 L -928,493 L -919,493 L -911,503 L -902,509 L -894,511 L -886,513 L -877,518 L -869,523 L -861,540 L -852,559 L -844,564 L -836,564 L -827,568 L -819,565 L -811,559 L -802,560 L -794,560 L -786,561 L -777,561 L -769,562 L -760,563 L -752,551 L -744,551 L -735,551 L -727,548 L -719,546 L -710,547 L -702,547 L -694,542 L -685,530 L -677,529 L -669,527 L -660,524 L -652,528 L -643,530 L -635,530 L -627,548 L -618,556 L -610,574 L -602,576 L -593,585 L -585,587 L -577,588 L -568,587 L -560,585 L -552,583 L -543,579 L -535,577 L -526,577 L -518,577 L -510,577 L -501,574 L -493,586 L -485,595 L -476,601 L -468,607 L -460,604 L -451,602 L -443,589 L -435,588 L -426,576 L -418,574 L -410,572 L -401,566 L -393,559 L -384,548 L -376,535 L -368,523 L -359,516 L -351,505 L -343,491 L -334,477 L -326,477 L -318,476 L -309,472 L -301,468 L -293,463 L -284,455 L -276,449 L -267,438 L -259,426 L -251,422 L -242,419 L -234,409 L -226,393 L -217,373 L -209,353 L -201,330 L -192,328 L -184,324 L -176,327 L -167,328 L -159,328 L -150,330 L -142,330 L -134,332 L -125,339 L -117,339 L -109,339 L -100,339 L -92,341 L -84,342 L -75,339 L -67,340 L -59,340 L -50,341 L -42,341 L -34,340 L -25,340 L -17,340 L -8,338 L 0,338 L 8,340 L 17,343 L 25,343 L 33,341 L 42,332 L 50,331 L 58,330 L 67,330 L 75,328 L 83,324 L 92,324 L 100,323 L 109,325 L 117,325 L 125,324 L 134,325 L 142,325 L 150,325 L 159,326 L 167,335 L 175,342 L 184,341 L 192,346 L 200,349 L 209,350 L 217,348 L 226,345 L 234,339 L 242,333 L 251,323 L 259,307 L 267,296 L 276,285 L 284,271 L 292,254 L 301,237 L 309,217 L 317,194 L 326,169 L 334,159 L 342,157 L 351,171 L 359,185 L 368,190 L 376,194 L 384,199 L 393,201 L 401,202 L 409,202 L 418,202 L 426,203 L 434,203 L 443,204 L 451,208 L 459,208 L 468,208 L 476,208 L 485,208 L 493,209 L 501,214 L 510,216 L 518,217 L 526,211 L 535,210 L 543,213 L 551,221 L 560,226 L 568,233 L 576,237 L 585,249 L 593,259 L 602,267 L 610,271 L 618,265 L 627,263 L 635,263 L 643,262 L 652,260 L 660,258 L 668,258 L 677,257 L 685,258 L 693,256 L 702,258 L 710,261 L 718,261 L 727,261 L 735,262 L 744,262 L 752,258 L 760,252 L 769,243 L 777,235 L 785,234 L 794,233 L 802,230 L 810,229 L 819,227 L 827,228 L 835,226 L 844,223" fill="none" stroke="#3b82f6" stroke-width="1"/><path d="M -1262,288 L -1253,282 L -1245,278 L -1237,275 L -1228,272 L -1220,269 L -1212,269 L -1203,268 L -1195,265 L -1187,260 L -1178,256 L -1170,252 L -1162,250 L -1153,248 L -1145,247 L -1136,249 L -1128,251 L -1120,257 L -1111,263 L -1103,267 L -1095,272 L -1086,278 L -1078,283 L -1070,287 L -1061,293 L -1053,298 L -1045,302 L -1036,306 L -1028,311 L -1019,316 L -1011,322 L -1003,326 L -994,330 L -986,333 L -978,338 L -969,343 L -961,348 L -953,356 L -944,363 L -936,370 L -928,376 L -919,378 L -911,384 L -902,391 L -894,396 L -886,401 L -877,408 L -869,415 L -861,424 L -852,434 L -844,443 L -836,451 L -827,459 L -819,466 L -811,472 L -802,477 L -794,480 L -786,480 L -777,479 L -769,480 L -760,481 L -752,487 L -744,487 L -735,487 L -727,489 L -719,489 L -710,488 L -702,489 L -694,487 L -685,484 L -677,484 L -669,483 L -660,482 L -652,483 L -643,484 L -635,484 L -627,489 L -618,491 L -610,497 L -602,499 L -593,503 L -585,504 L -577,507 L -568,511 L -560,514 L -552,518 L -543,522 L -535,524 L -526,526 L -518,526 L -510,527 L -501,529 L -493,525 L -485,521 L -476,517 L -468,512 L -460,504 L -451,498 L -443,489 L -435,485 L -426,477 L -418,470 L -410,464 L -401,457 L -393,452 L -384,446 L -376,439 L -368,432 L -359,422 L -351,412 L -343,401 L -334,391 L -326,384 L -318,377 L -309,371 L -301,366 L -293,360 L -284,355 L -276,348 L -267,341 L -259,335 L -251,329 L -242,322 L -234,317 L -226,311 L -217,304 L -209,298 L -201,292 L -192,289 L -184,288 L -176,289 L -167,289 L -159,289 L -150,290 L -142,290 L -134,291 L -125,293 L -117,293 L -109,293 L -100,293 L -92,292 L -84,291 L -75,292 L -67,293 L -59,293 L -50,295 L -42,296 L -34,297 L -25,298 L -17,298 L -8,298 L 0,298 L 8,299 L 17,300 L 25,299 L 33,298 L 42,294 L 50,293 L 58,292 L 67,291 L 75,292 L 83,294 L 92,296 L 100,294 L 109,293 L 117,291 L 125,290 L 134,289 L 142,287 L 150,284 L 159,280 L 167,274 L 175,266 L 184,257 L 192,250 L 200,242 L 209,235 L 217,227 L 226,220 L 234,213 L 242,206 L 251,199 L 259,191 L 267,184 L 276,179 L 284,173 L 292,166 L 301,161 L 309,154 L 317,149 L 326,144 L 334,142 L 342,141 L 351,143 L 359,146 L 368,149 L 376,151 L 384,153 L 393,156 L 401,157 L 409,158 L 418,159 L 426,158 L 434,158 L 443,157 L 451,154 L 459,154 L 468,154 L 476,155 L 485,156 L 493,157 L 501,160 L 510,162 L 518,162 L 526,161 L 535,160 L 543,161 L 551,163 L 560,164 L 568,167 L 576,170 L 585,174 L 593,180 L 602,185 L 610,191 L 618,197 L 627,200 L 635,203 L 643,207 L 652,211 L 660,213 L 668,214 L 677,215 L 685,215 L 693,215 L 702,215 L 710,213 L 718,211 L 727,209 L 735,206 L 744,204 L 752,200 L 760,196 L 769,191 L 777,188 L 785,187 L 794,187 L 802,186 L 810,185 L 819,185 L 827,185 L 835,184 L 844,184" fill="none" stroke="#9ca3af" stroke-width="1" stroke-dasharray="4 4"/><line x1="100.17777777777778" y1="266.1072576" x2="100.17777777777778" y2="307.7766656" stroke="#9ca3af" stroke-width="1"/><line x1="108.53333333333333" y1="250.72" x2="108.53333333333333" y2="277.7705664" stroke="#9ca3af" stroke-width="1"/><line x1="116.88888888888889" y1="258.3936" x2="116.88888888888889" y2="279.3976512" stroke="#9ca3af" stroke-width="1"/><line x1="125.24444444444444" y1="268.1159808" x2="125.24444444444444" y2="273.5544512" stroke="#9ca3af" stroke-width="1"/><line x1="133.6" y1="257.4096896" x2="133.6" y2="274.3757376" stroke="#9ca3af" stroke-width="1"/><line x1="141.95555555555555" y1="254.944" x2="141.95555555555555" y2="267.22401279999997" stroke="#9ca3af" stroke-width="1"/><line x1="150.3111111111111" y1="246.2144" x2="150.3111111111111" y2="266.0916992" stroke="#9ca3af" stroke-width="1"/><line x1="158.66666666666666" y1="223.968" x2="158.66666666666666" y2="254.0585088" stroke="#9ca3af" stroke-width="1"/><line x1="167.02222222222224" y1="176.8000704" x2="167.02222222222224" y2="236.5670656" stroke="#9ca3af" stroke-width="1"/><line x1="175.3777777777778" y1="144.7273792" x2="175.3777777777778" y2="189.3643584" stroke="#9ca3af" stroke-width="1"/><line x1="183.73333333333335" y1="150.752" x2="183.73333333333335" y2="161.044128" stroke="#9ca3af" stroke-width="1"/><line x1="192.0888888888889" y1="138.0800704" x2="192.0888888888889" y2="158.1690624" stroke="#9ca3af" stroke-width="1"/><line x1="200.44444444444446" y1="99.36000000000001" x2="200.44444444444446" y2="143.7548032" stroke="#9ca3af" stroke-width="1"/><line x1="208.8" y1="126.0003456" x2="208.8" y2="165.446592" stroke="#9ca3af" stroke-width="1"/><line x1="217.15555555555557" y1="121.9691712" x2="217.15555555555557" y2="145.372032" stroke="#9ca3af" stroke-width="1"/><line x1="225.51111111111112" y1="114.0118592" x2="225.51111111111112" y2="144.73632" stroke="#9ca3af" stroke-width="1"/><line x1="233.86666666666667" y1="108.512" x2="233.86666666666667" y2="151.456" stroke="#9ca3af" stroke-width="1"/><line x1="242.22222222222223" y1="130.1140992" x2="242.22222222222223" y2="141.6" stroke="#9ca3af" stroke-width="1"/><line x1="250.57777777777778" y1="127.6634752" x2="250.57777777777778" y2="153.568" stroke="#9ca3af" stroke-width="1"/><line x1="258.93333333333334" y1="126.60839040000002" x2="258.93333333333334" y2="161.1555008" stroke="#9ca3af" stroke-width="1"/><line x1="267.2888888888889" y1="132.0960704" x2="267.2888888888889" y2="163.072" stroke="#9ca3af" stroke-width="1"/><line x1="275.64444444444445" y1="133.6143872" x2="275.64444444444445" y2="161.3053824" stroke="#9ca3af" stroke-width="1"/><line x1="284" y1="138.2008768" x2="284" y2="162.016" stroke="#9ca3af" stroke-width="1"/><line x1="292.35555555555555" y1="146.5280704" x2="292.35555555555555" y2="179.166144" stroke="#9ca3af" stroke-width="1"/><line x1="300.7111111111111" y1="144.2074752" x2="300.7111111111111" y2="155.2534464" stroke="#9ca3af" stroke-width="1"/><line x1="309.06666666666666" y1="129.24416639999998" x2="309.06666666666666" y2="147.6108928" stroke="#9ca3af" stroke-width="1"/><line x1="317.4222222222222" y1="127.49866880000002" x2="317.4222222222222" y2="142.1631296" stroke="#9ca3af" stroke-width="1"/><line x1="325.77777777777777" y1="123.77831040000001" x2="325.77777777777777" y2="146.5279296" stroke="#9ca3af" stroke-width="1"/><line x1="334.1333333333333" y1="127.58159999999998" x2="334.1333333333333" y2="154.317408" stroke="#9ca3af" stroke-width="1"/><line x1="342.4888888888889" y1="114.2231296" x2="342.4888888888889" y2="145.12" stroke="#9ca3af" stroke-width="1"/><line x1="350.84444444444443" y1="139.6132416" x2="350.84444444444443" y2="201.44" stroke="#9ca3af" stroke-width="1"/><line x1="359.2" y1="186.2132544" x2="359.2" y2="209.184" stroke="#9ca3af" stroke-width="1"/><line x1="367.55555555555554" y1="180.3271808" x2="367.55555555555554" y2="209.4656" stroke="#9ca3af" stroke-width="1"/><line x1="375.9111111111111" y1="173.2909824" x2="375.9111111111111" y2="188.768" stroke="#9ca3af" stroke-width="1"/><line x1="384.26666666666665" y1="175.5766592" x2="384.26666666666665" y2="204.96" stroke="#9ca3af" stroke-width="1"/><line x1="392.6222222222222" y1="173.5616" x2="392.6222222222222" y2="194.6394304" stroke="#9ca3af" stroke-width="1"/><line x1="400.97777777777776" y1="154.6115392" x2="400.97777777777776" y2="185.207168" stroke="#9ca3af" stroke-width="1"/><line x1="409.3333333333333" y1="152.8640704" x2="409.3333333333333" y2="166.7660992" stroke="#9ca3af" stroke-width="1"/><line x1="417.68888888888887" y1="149.101472" x2="417.68888888888887" y2="163.7979648" stroke="#9ca3af" stroke-width="1"/><line x1="426.0444444444444" y1="133.6364224" x2="426.0444444444444" y2="162.72" stroke="#9ca3af" stroke-width="1"/><line x1="434.4" y1="107.10407040000001" x2="434.4" y2="141.5270656" stroke="#9ca3af" stroke-width="1"/><line x1="442.75555555555553" y1="121.88799999999998" x2="442.75555555555553" y2="136.2155264" stroke="#9ca3af" stroke-width="1"/><line x1="451.1111111111111" y1="93.6576" x2="451.1111111111111" y2="132.4479296" stroke="#9ca3af" stroke-width="1"/><line x1="459.46666666666664" y1="89.50400000000002" x2="459.46666666666664" y2="150.752" stroke="#9ca3af" stroke-width="1"/><line x1="467.8222222222222" y1="134.37696" x2="467.8222222222222" y2="162.1943936" stroke="#9ca3af" stroke-width="1"/><line x1="476.1777777777778" y1="147.702624" x2="476.1777777777778" y2="160.3162624" stroke="#9ca3af" stroke-width="1"/><line x1="484.53333333333336" y1="142.3458176" x2="484.53333333333336" y2="158.6917824" stroke="#9ca3af" stroke-width="1"/><line x1="492.8888888888889" y1="150.5183424" x2="492.8888888888889" y2="180.8111808" stroke="#9ca3af" stroke-width="1"/><line x1="501.24444444444447" y1="149.344" x2="501.24444444444447" y2="200.1024" stroke="#9ca3af" stroke-width="1"/><line x1="509.6" y1="182.3768064" x2="509.6" y2="206.7397824" stroke="#9ca3af" stroke-width="1"/><line x1="517.9555555555555" y1="179.6503552" x2="517.9555555555555" y2="201.44" stroke="#9ca3af" stroke-width="1"/><line x1="526.3111111111111" y1="159.6224704" x2="526.3111111111111" y2="202.9283968" stroke="#9ca3af" stroke-width="1"/><line x1="534.6666666666667" y1="164.832" x2="534.6666666666667" y2="188.768" stroke="#9ca3af" stroke-width="1"/><line x1="543.0222222222222" y1="177.0965952" x2="543.0222222222222" y2="219.04" stroke="#9ca3af" stroke-width="1"/><line x1="551.3777777777777" y1="193.0702848" x2="551.3777777777777" y2="234.3553088" stroke="#9ca3af" stroke-width="1"/><line x1="559.7333333333333" y1="206.4383296" x2="559.7333333333333" y2="245.088" stroke="#9ca3af" stroke-width="1"/><line x1="568.088888888889" y1="199.1846656" x2="568.088888888889" y2="222.1368256" stroke="#9ca3af" stroke-width="1"/><line x1="576.4444444444445" y1="195.6003904" x2="576.4444444444445" y2="220.448" stroke="#9ca3af" stroke-width="1"/><line x1="584.8" y1="205.1223424" x2="584.8" y2="257.2848704" stroke="#9ca3af" stroke-width="1"/><line x1="593.1555555555556" y1="243.4252928" x2="593.1555555555556" y2="258.0791232" stroke="#9ca3af" stroke-width="1"/><line x1="601.5111111111112" y1="237.6703744" x2="601.5111111111112" y2="252.4598656" stroke="#9ca3af" stroke-width="1"/><line x1="609.8666666666667" y1="233.6339904" x2="609.8666666666667" y2="260.7406656" stroke="#9ca3af" stroke-width="1"/><line x1="618.2222222222222" y1="209.4716544" x2="618.2222222222222" y2="242.3268416" stroke="#9ca3af" stroke-width="1"/><line x1="626.5777777777778" y1="200.0320704" x2="626.5777777777778" y2="217.3347008" stroke="#9ca3af" stroke-width="1"/><line x1="634.9333333333333" y1="194.312" x2="634.9333333333333" y2="226.3615296" stroke="#9ca3af" stroke-width="1"/><line x1="643.2888888888889" y1="192.288" x2="643.2888888888889" y2="229.1432448" stroke="#9ca3af" stroke-width="1"/><line x1="651.6444444444444" y1="216.928" x2="651.6444444444444" y2="228.896" stroke="#9ca3af" stroke-width="1"/><line x1="660" y1="207.0633408" x2="660" y2="227.6438656" stroke="#9ca3af" stroke-width="1"/><line x1="668.3555555555556" y1="199.71344" x2="668.3555555555556" y2="218.0168768" stroke="#9ca3af" stroke-width="1"/><line x1="676.7111111111111" y1="199.6989376" x2="676.7111111111111" y2="222.8322368" stroke="#9ca3af" stroke-width="1"/><line x1="685.0666666666667" y1="188.064" x2="685.0666666666667" y2="220.541984" stroke="#9ca3af" stroke-width="1"/><line x1="693.4222222222222" y1="174.688" x2="693.4222222222222" y2="193.7038848" stroke="#9ca3af" stroke-width="1"/><line x1="701.7777777777778" y1="160.5909632" x2="701.7777777777778" y2="176.8" stroke="#9ca3af" stroke-width="1"/><line x1="710.1333333333333" y1="164.33216" x2="710.1333333333333" y2="175.9941312" stroke="#9ca3af" stroke-width="1"/><line x1="718.4888888888889" y1="165.7941568" x2="718.4888888888889" y2="174.50496" stroke="#9ca3af" stroke-width="1"/><line x1="726.8444444444444" y1="160.7345088" x2="726.8444444444444" y2="184.894592" stroke="#9ca3af" stroke-width="1"/><line x1="735.2" y1="166.2497152" x2="735.2" y2="183.84" stroke="#9ca3af" stroke-width="1"/><line x1="743.5555555555555" y1="160.2193216" x2="743.5555555555555" y2="189.824" stroke="#9ca3af" stroke-width="1"/><line x1="751.9111111111112" y1="143.7747968" x2="751.9111111111112" y2="170.278848" stroke="#9ca3af" stroke-width="1"/><line x1="760.2666666666667" y1="147.5449984" x2="760.2666666666667" y2="170.3232" stroke="#9ca3af" stroke-width="1"/><line x1="768.6222222222223" y1="161.3696576" x2="768.6222222222223" y2="166.9712448" stroke="#9ca3af" stroke-width="1"/><line x1="776.9777777777778" y1="163.44512" x2="776.9777777777778" y2="171.7680192" stroke="#9ca3af" stroke-width="1"/><line x1="785.3333333333334" y1="168.45232" x2="785.3333333333334" y2="204.9557056" stroke="#9ca3af" stroke-width="1"/><line x1="793.6888888888889" y1="192.4226048" x2="793.6888888888889" y2="211.57936" stroke="#9ca3af" stroke-width="1"/><line x1="802.0444444444445" y1="177.8108032" x2="802.0444444444445" y2="212" stroke="#9ca3af" stroke-width="1"/><line x1="810.4" y1="183.9517248" x2="810.4" y2="224.51712" stroke="#9ca3af" stroke-width="1"/><line x1="818.7555555555556" y1="209.487776" x2="818.7555555555556" y2="225.6809024" stroke="#9ca3af" stroke-width="1"/><line x1="827.1111111111111" y1="215.5271104" x2="827.1111111111111" y2="221.9987008" stroke="#9ca3af" stroke-width="1"/><line x1="835.4666666666667" y1="190.507584" x2="835.4666666666667" y2="220.8940544" stroke="#9ca3af" stroke-width="1"/><line x1="843.8222222222222" y1="192.288" x2="843.8222222222222" y2="201.5654528" stroke="#9ca3af" stroke-width="1"/><rect x="97.67111111111112" y="277.770496" width="5.013333333333334" height="26.292217600000015" fill="#16a34a"/><rect x="106.02666666666667" y="259.94838400000003" width="5.013333333333334" height="17.822111999999947" fill="#16a34a"/><rect x="114.38222222222223" y="259.94838400000003" width="5.013333333333334" height="11.210495999999978" fill="#ef4444"/><rect x="122.73777777777778" y="270.8693952" width="5.013333333333334" height="1" fill="#16a34a"/><rect x="131.09333333333333" y="261.2712704" width="5.013333333333334" height="9.598406399999988" fill="#16a34a"/><rect x="139.4488888888889" y="260.03884800000003" width="5.013333333333334" height="1.2410815999999727" fill="#16a34a"/><rect x="147.80444444444444" y="248.607648" width="5.013333333333334" height="11.431270399999988" fill="#16a34a"/><rect x="156.16" y="231.712" width="5.013333333333334" height="16.895648000000023" fill="#16a34a"/><rect x="164.51555555555558" y="183.8400704" width="5.013333333333334" height="47.87192959999999" fill="#16a34a"/><rect x="172.87111111111113" y="158.3209152" width="5.013333333333334" height="25.5190848" fill="#16a34a"/><rect x="181.2266666666667" y="157.3035648" width="5.013333333333334" height="1.017350399999998" fill="#16a34a"/><rect x="189.58222222222224" y="141.2357504" width="5.013333333333334" height="16.067744000000005" fill="#16a34a"/><rect x="197.9377777777778" y="126.00041599999997" width="5.013333333333334" height="15.23526400000003" fill="#16a34a"/><rect x="206.29333333333335" y="126.0003456" width="5.013333333333334" height="13.227878400000009" fill="#ef4444"/><rect x="214.6488888888889" y="137.5620672" width="5.013333333333334" height="1.6660864000000117" fill="#16a34a"/><rect x="223.00444444444446" y="128.8718912" width="5.013333333333334" height="8.690176000000008" fill="#16a34a"/><rect x="231.36" y="128.87196160000002" width="5.013333333333334" height="10.141964799999982" fill="#ef4444"/><rect x="239.71555555555557" y="137.2860992" width="5.013333333333334" height="1.7277568000000088" fill="#16a34a"/><rect x="248.07111111111112" y="137.2860992" width="5.013333333333334" height="8.935449599999998" fill="#ef4444"/><rect x="256.4266666666667" y="146.2215488" width="5.013333333333334" height="6.840134400000011" fill="#ef4444"/><rect x="264.78222222222223" y="133.5834112" width="5.013333333333334" height="19.478272000000004" fill="#16a34a"/><rect x="273.1377777777778" y="133.6143872" width="5.013333333333334" height="14.321612799999997" fill="#ef4444"/><rect x="281.49333333333334" y="147.896576" width="5.013333333333334" height="1" fill="#ef4444"/><rect x="289.8488888888889" y="148.570304" width="5.013333333333334" height="1.7535232000000178" fill="#ef4444"/><rect x="298.20444444444445" y="146.4300736" width="5.013333333333334" height="3.8936832000000265" fill="#16a34a"/><rect x="306.56" y="132.1088128" width="5.013333333333334" height="14.321260799999976" fill="#16a34a"/><rect x="314.91555555555556" y="131.86762240000002" width="5.013333333333334" height="5.101324799999986" fill="#ef4444"/><rect x="323.2711111111111" y="136.8035776" width="5.013333333333334" height="1.2987392" fill="#ef4444"/><rect x="331.62666666666667" y="133.9932096" width="5.013333333333334" height="4.109036800000013" fill="#16a34a"/><rect x="339.9822222222222" y="133.9931392" width="5.013333333333334" height="8.11754239999999" fill="#ef4444"/><rect x="348.3377777777778" y="142.110752" width="5.013333333333334" height="53.42529280000002" fill="#ef4444"/><rect x="356.6933333333333" y="195.5360448" width="5.013333333333334" height="8.588518399999998" fill="#ef4444"/><rect x="365.0488888888889" y="185.8010624" width="5.013333333333334" height="18.323500800000005" fill="#16a34a"/><rect x="373.40444444444444" y="181.024" width="5.013333333333334" height="4.7770624000000055" fill="#16a34a"/><rect x="381.76" y="181.1243904" width="5.013333333333334" height="5.070982399999991" fill="#ef4444"/><rect x="390.11555555555555" y="180.459744" width="5.013333333333334" height="5.735628800000001" fill="#16a34a"/><rect x="398.4711111111111" y="158.5235968" width="5.013333333333334" height="21.9371328" fill="#16a34a"/><rect x="406.82666666666665" y="158.5235968" width="5.013333333333334" height="2.1837376000000006" fill="#ef4444"/><rect x="415.1822222222222" y="160.7073344" width="5.013333333333334" height="1.0364991999999802" fill="#ef4444"/><rect x="423.53777777777776" y="133.856" width="5.013333333333334" height="27.887833599999993" fill="#16a34a"/><rect x="431.8933333333333" y="133.8559296" width="5.013333333333334" height="1.05607040000001" fill="#ef4444"/><rect x="440.24888888888887" y="123.29592960000002" width="5.013333333333334" height="11.615999999999985" fill="#16a34a"/><rect x="448.6044444444444" y="96.93274880000001" width="5.013333333333334" height="26.36318080000001" fill="#16a34a"/><rect x="456.96" y="96.68128000000002" width="5.013333333333334" height="42.800595199999975" fill="#ef4444"/><rect x="465.31555555555553" y="139.4818752" width="5.013333333333334" height="14.337734400000016" fill="#ef4444"/><rect x="473.67111111111114" y="153.8196096" width="5.013333333333334" height="1" fill="#ef4444"/><rect x="482.0266666666667" y="152.5119296" width="5.013333333333334" height="1.5528831999999966" fill="#16a34a"/><rect x="490.38222222222225" y="152.5119296" width="5.013333333333334" height="9.070758399999988" fill="#ef4444"/><rect x="498.7377777777778" y="161.5827584" width="5.013333333333334" height="36.520281600000004" fill="#ef4444"/><rect x="507.09333333333336" y="185.6047168" width="5.013333333333334" height="12.498323199999987" fill="#16a34a"/><rect x="515.4488888888889" y="185.6047872" width="5.013333333333334" height="11.196908799999989" fill="#ef4444"/><rect x="523.8044444444445" y="165.3248704" width="5.013333333333334" height="31.476825599999984" fill="#16a34a"/><rect x="532.1600000000001" y="165.3248" width="5.013333333333334" height="14.064089599999988" fill="#ef4444"/><rect x="540.5155555555556" y="179.3888896" width="5.013333333333334" height="16.0482432" fill="#ef4444"/><rect x="548.8711111111111" y="195.4371328" width="5.013333333333334" height="28.393939200000005" fill="#ef4444"/><rect x="557.2266666666667" y="212.139744" width="5.013333333333334" height="11.6912576" fill="#16a34a"/><rect x="565.5822222222223" y="212.139744" width="5.013333333333334" height="6.585286400000001" fill="#ef4444"/><rect x="573.9377777777778" y="207.4240704" width="5.013333333333334" height="11.300960000000003" fill="#16a34a"/><rect x="582.2933333333333" y="207.4240704" width="5.013333333333334" height="39.775929599999984" fill="#ef4444"/><rect x="590.6488888888889" y="244.8248448" width="5.013333333333334" height="2.375084799999996" fill="#16a34a"/><rect x="599.0044444444445" y="244.8249152" width="5.013333333333334" height="6.269612800000004" fill="#ef4444"/><rect x="607.36" y="240.4213952" width="5.013333333333334" height="10.67313279999999" fill="#16a34a"/><rect x="615.7155555555555" y="210.4391616" width="5.013333333333334" height="29.982304" fill="#16a34a"/><rect x="624.0711111111111" y="209.1870976" width="5.013333333333334" height="1" fill="#16a34a"/><rect x="632.4266666666666" y="209.1870272" width="5.013333333333334" height="5.657203199999998" fill="#ef4444"/><rect x="640.7822222222222" y="214.5342592" width="5.013333333333334" height="9.206771199999991" fill="#ef4444"/><rect x="649.1377777777777" y="223.7410304" width="5.013333333333334" height="3.9027648" fill="#ef4444"/><rect x="657.4933333333333" y="211.840544" width="5.013333333333334" height="15.803251200000005" fill="#16a34a"/><rect x="665.848888888889" y="209.888" width="5.013333333333334" height="2.333055999999999" fill="#16a34a"/><rect x="674.2044444444444" y="209.888" width="5.013333333333334" height="4.517779200000007" fill="#ef4444"/><rect x="682.5600000000001" y="190.0421696" width="5.013333333333334" height="24.363609600000018" fill="#16a34a"/><rect x="690.9155555555556" y="174.784096" width="5.013333333333334" height="15.258073599999989" fill="#16a34a"/><rect x="699.2711111111112" y="165.9803648" width="5.013333333333334" height="8.803731200000016" fill="#16a34a"/><rect x="707.6266666666667" y="165.9803648" width="5.013333333333334" height="2.083980800000006" fill="#ef4444"/><rect x="715.9822222222223" y="168.0642752" width="5.013333333333334" height="4.445900800000004" fill="#ef4444"/><rect x="724.3377777777778" y="172.5102464" width="5.013333333333334" height="1.5309183999999902" fill="#ef4444"/><rect x="732.6933333333334" y="168.1442496" width="5.013333333333334" height="5.896915199999995" fill="#16a34a"/><rect x="741.0488888888889" y="167.705024" width="5.013333333333334" height="1" fill="#16a34a"/><rect x="749.4044444444445" y="152.0842496" width="5.013333333333334" height="15.620774400000016" fill="#16a34a"/><rect x="757.76" y="152.08432" width="5.013333333333334" height="13.867391999999995" fill="#ef4444"/><rect x="766.1155555555556" y="165.3248" width="5.013333333333334" height="1" fill="#16a34a"/><rect x="774.4711111111111" y="165.3248" width="5.013333333333334" height="5.139270399999987" fill="#ef4444"/><rect x="782.8266666666667" y="170.464" width="5.013333333333334" height="27.109209600000014" fill="#ef4444"/><rect x="791.1822222222222" y="197.5732096" width="5.013333333333334" height="8.794719999999984" fill="#ef4444"/><rect x="799.5377777777778" y="185.419424" width="5.013333333333334" height="20.948505600000004" fill="#16a34a"/><rect x="807.8933333333333" y="185.419424" width="5.013333333333334" height="35.8619712" fill="#ef4444"/><rect x="816.2488888888889" y="215.7074048" width="5.013333333333334" height="5.573919999999987" fill="#16a34a"/><rect x="824.6044444444444" y="215.7074752" width="5.013333333333334" height="1.7553536000000065" fill="#ef4444"/><rect x="832.96" y="193.0230464" width="5.013333333333334" height="24.439782400000013" fill="#16a34a"/><rect x="841.3155555555555" y="193.0230464" width="5.013333333333334" height="7.5769407999999885" fill="#ef4444"/></g><g class="legend"><g font-size="12" fill="#e5e7eb"><g transform="translate(96, 18)"><rect y="-10" width="12" height="12" fill="#3b82f6"></rect><text x="16" y="0">BB ±2σ</text></g></g></g></svg> 