
      <svg width="860" height="420" viewBox="0 0 860 420" xmlns="http://www.w3.org/2000/svg" style="background-color:#1f2937;color:#e5e7eb;font-family:sans-serif;">
        <title>BTC/JPY depth chart</title>
        <g class="axes">
        <line x1="64" y1="36" x2="64" y2="388" stroke="#4b5563" stroke-width="1"/>
      
        <line x1="64" y1="388" x2="848" y2="388" stroke="#4b5563" stroke-width="1"/>
      </g>
        <g class="plot-area">
          <path d="M 216.00702431189572,378.319143214799 L 216.00602809978895,378.2865037785711 L 216.00503188768218,378.2832398349483 L 215.9054106770049,375.01929621215635 L 215.85161522323918,372.8422458157541 L 215.62547507500182,372.80960637952614 L 215.25787280760272,372.53217117158886 L 215.0476720530737,372.52890722796604 L 214.1759864596477,372.5256432843433 L 213.72769101160003,369.62073346005843 L 213.6738955578343,365.2144095692893 L 213.02237284000503,365.21114562566646 L 212.98451677994768,364.00348648523345 L 212.43361148490243,361.35969215077193 L 211.96140694629221,360.7950299040289 L 211.49916452874973,358.99986091149333 L 211.0827478681188,357.92275951597196 L 210.73506984285515,343.27418053688166 L 209.19492592578473,338.61326904353473 L 208.81636532521117,330.78306829245673 L 208.8153691131044,328.58317029069497 L 208.73567214456259,328.0935787472762 L 208.4656986636272,327.767184384997 L 208.3680698771635,327.76065649775137 L 207.74444109832385,324.58157540915204 L 207.46151686000044,323.63503175854237 L 206.08973278897457,323.54690528072695 L 205.01980098630082,321.098947563633 L 204.89726689716778,320.34824053039085 L 204.2138653919218,320.3384486995225 L 204.10926312071066,319.03287125040566 L 203.36409646484478,318.5432797069869 L 203.22263434568305,317.7893087301219 L 202.69065708066648,316.48373128100513 L 202.6757138990649,316.38907691594414 L 201.05686922555944,316.35643747971625 L 200.34158893289674,316.35317353609344 L 200.22005105587047,315.81788678195556 L 198.98175940715214,314.5514766563123 L 198.6340813818885,313.2458992071955 L 198.43683138474753,312.53109555380405 L 197.05110034422685,312.2797718948491 L 197.03117610209142,311.9533775325699 L 194.61934659159496,311.2353099355557 L 194.6183503794882,296.36478279011544 L 193.25553221742328,293.10083916732344 L 189.27068379033292,292.01394594093375 L 186.6297254952788,285.5578654550512 L 185.86064974885034,268.490704251472 L 185.85965353674356,252.17098613751216 L 184.28962325646998,248.19223886132872 L 182.52035055484185,248.17591914321477 L 181.55402481127243,248.172655199592 L 179.308562722607,248.15633548147804 L 177.66580895853903,248.1236960452501 L 177.3171347211686,247.52639436227918 L 177.15275972355113,247.48722703880568 L 176.58491882269078,247.45458760257773 L 174.32750218874406,247.3893087301219 L 173.7556764394566,232.79295284899624 L 170.3426537616537,232.69503454031246 L 169.99298331217653,232.62322778061105 L 169.34644165488112,230.95208864574155 L 168.15696439939467,230.94882470211877 L 167.34505153237498,230.74972414112847 L 167.02028638556712,230.65180583244472 L 166.59689624018876,230.6126385089712 L 166.02805912722164,230.54735963651538 L 165.66145307192932,230.537567805647 L 164.62439626877904,230.50492836941908 L 164.36637733312494,214.18521025545922 L 164.36538112101817,214.16562659372244 L 162.67979023635894,214.15583476285406 L 161.3767448007004,214.12319532662613 L 160.7142637496966,214.1003477212666 L 159.70011982500213,214.06118039779307 L 159.38930164768908,212.91880012981588 L 159.38432058715523,199.23961240669473 L 159.28569558858473,199.23308451944914 L 158.60827135597935,199.16780564699332 L 157.89000242699632,197.29756595113352 L 157.60209712813906,196.93853215262638 L 155.04780928637413,180.61881403866653 L 154.40326005329229,180.57964671519304 L 154.21796460143258,178.78447772265744 L 153.4030630980926,178.18064815244097 L 151.92069948321497,178.14474477259023 L 150.24507071962347,169.9848857156103 L 149.42319573153608,169.98162177198748 L 149.4221995194293,152.80675042885616 L 147.72365787738204,152.67945662756728 L 147.4048700032148,152.6761926839445 L 146.64774880206767,152.65334507858495 L 146.42658971436413,152.65008113496214 L 145.5917639688887,152.61091381148864 L 144.66229807326988,152.6011219806203 L 143.31442309280658,152.5978580369975 L 142.78045340357647,152.5945940933747 L 141.45250266524857,152.09847466271032 L 141.33395342454264,152.00055635402657 L 139.4600784517034,151.6611062172562 L 137.76153680965615,151.6545783300106 L 135.51109366045688,151.5729797394408 L 134.47901791784045,151.569715795818 L 133.45790050839855,151.53054847234452 L 133.37322247932286,151.46526959988867 L 131.6896240188772,151.0474848161713 L 131.37482099313706,151.04422087254852 L 130.4941694907501,151.0409569289257 L 129.4979573839775,150.6427558069451 L 129.3634687495632,150.6035884834716 L 126.50932106365974,150.54483749826136 L 125.51310895688715,150.54157355463857 L 125.5001581994991,150.52851778014738 L 125.42444607938438,150.51546200565622 L 124.51689685011455,149.82676990124713 L 123.78368473952992,149.82350595762432 L 123.49876807699297,149.81045018313318 L 121.1606582623977,149.80718623951037 L 120.64262796687595,149.32738652695997 L 119.63147267850177,149.32412258333719 L 119.53583631625159,148.981408502944 L 118.50475678574196,148.95856089758445 L 117.59023407172472,147.68235894107278 L 117.25351437963559,147.66277527933605 L 116.83112044636403,147.6301358431081 L 115.21924925760597,147.5713848578978 L 114.55477578238865,147.23846260837303 L 114.19713563605728,147.23519866475027 L 112.8701811098362,147.21561500301348 L 111.86500309410266,147.20908711576791 L 111.40475310077372,147.20582317214507 L 111.33701067751318,147.15686401780323 L 110.80304098828307,140.15570494691445 L 110.6057909911421,140.07410635634466 L 110.56992735529829,140.067578469099 L 110.42547659981625,139.86847790810873 L 109.68329858027067,139.84889424637194 L 109.57471146063247,139.24832861977822 L 109.5737152485257,87.04481431684343 L 109.57271903641893,87.03828642959792 L 109.33462434290027,86.61397375863493 L 107.58129103498052,86.61070981501217 L 106.20851075184788,86.28431545273298 L 105.25115091723943,85.99056052668169 L 104.59265471466274,85.98076869581331 L 103.51375700302802,85.97750475219055 L 100.71838583142414,85.9122258797347 L 99.61259039290655,85.7131253187444 L 99.61159418079978,85.6772219388937 L 99.59166993866434,85.27902081691309 L 98.46794268222486,85.23985349343951 L 97.5942646645853,85.23658954981676 L 97.5753366345566,85.20395011358886 L 97.4269010306475,85.2006861699661 L 97.16489724656631,85.19742222634324 L 95.62674575370943,85.19415828272048 L 94.63053364693684,85.18436645185216 L 94.26193516743098,85.18110250822934 L 91.62595793291071,85.07992025592279 L 89.64947311307388,81.97590987064763 L 89.46218523700064,81.77354536603457 L 88.68115494529093,81.750697760675 L 87.44087087235906,81.7180583244471 L 87.43489359971842,81.7017386063331 L 87.34722693432244,81.69521071908753 L 86.51040876463345,81.64951550836844 L 85.1854466626259,81.63972367750011 L 84.66841257921094,81.05874171264315 L 84.61362091333844,81.05221382539759 L 84.4661815215361,80.85311326440728 L 83.5536512317324,72.69325420742734 L 82.63613988139485,72.68999026380459 L 81.67977625889316,72.68019843293621 L 79.68735204534798,72.2493578747277 L 78.57956418261686,72.2460939311049 L 74.70629151148503,72.23630210023651 L 74.18626879174974,72.19713477676305 L 74.06273849050993,72.19387083314024 L 73.66823849622799,37.922462793824536 L 72.83341275075256,37.919198850201724 L 72.33929154579336,37.592804487922535 L 72.1629620028946,37.553637164449015 L 71.66485594950831,37.543845333580634 L 70.83202262824642,37.06404562103023 L 70.52419308725369,36.96612731234649 L 69.72523097762208,36.551606472251876 L 69.56484082843168,36.50591126153279 L 68.0635491835254,36.44063238907694 L 66.39788254100162,36.32639436227919 L 66.28032951240246,36.29701886967405 L 66.16576512012361,36.29049098242848 L 65.74038255053172,36.287227038805725 L 65.63777270353414,36.267643377068964 L 65.5481136139246,36.25458760257777 L 65.5411401291772,36.23500394084101 L 65.37477270734618,36.03590337985065 L 65.29706816301791,36.032639436227896 L 64.74417044375913,36.022847605359516 L 64,36" fill="none" stroke="#10b981" stroke-width="2"/>
          <path d="M 216.0080205240025,385.2876628494599 L 216.84583490579823,384.5402197598405 L 219.14708487244292,383.79604061384396 L 219.36127047539904,382.65366034586674 L 220.73803560695873,382.1346933098428 L 220.73903181906553,374.2947007278965 L 220.8675431808392,373.54072975103156 L 221.9424560440468,372.1502897677222 L 224.6690885802834,371.49750104316377 L 225.424217357217,371.39958273448 L 226.0319067423483,371.07318837220083 L 226.3556756770494,371.0568686540869 L 226.60373249163575,368.87981825768463 L 227.01118324330574,366.43186054059066 L 228.2415051951699,363.1679169177987 L 229.6989635073782,360.9680189160369 L 232.77925134151906,360.3152301914785 L 234.03049374762543,359.1043071074227 L 235.10042555029918,358.61471556400386 L 237.37278536584745,357.9619268394455 L 237.80314899597323,357.4723352960267 L 238.58119065136262,342.1970791413603 L 239.68100881723956,342.1938151977375 L 243.8481640598693,340.88823774862067 L 246.10159584538889,340.6369140896657 L 250.49489123625602,339.3313366405489 L 250.5098344178576,338.02575919143214 L 251.463209404039,323.2335666929389 L 252.2223230293997,323.23030274931614 L 256.94337220339503,308.467485743428 L 258.50842142313473,308.4642217998053 L 265.9790160118224,308.36630349112147 L 268.9666561200334,307.66129166859844 L 268.9676523321402,307.2663544902406 L 273.1268378779157,307.25003477212664 L 273.3519818140463,307.2467708285038 L 283.39081121399374,305.45160183596823 L 283.810216510945,305.28840465482864 L 286.6195346520437,304.5638091705688 L 288.30014447616907,304.4006119894292 L 288.891894467592,304.3288052297278 L 289.89408384700516,304.29942973712264 L 295.31845876838196,304.28963790625426 L 299.33020492235516,304.25699847002636 L 301.63543973742696,304.22435903379846 L 304.3013033351504,304.1656080485882 L 308.7155191802598,304.0024108674486 L 308.8161366030438,303.14399369465434 L 309.83127673984507,303.14072975103153 L 314.3690228861942,303.1080903148036 L 315.8653334705666,303.0754508785757 L 317.4871667803924,303.05913116046173 L 318.67764024798566,303.023227780611 L 318.6905910053737,302.69683341833183 L 318.7782576707697,302.02772497565945 L 324.2185719858548,301.99508553943156 L 325.308428030664,301.96244610320366 L 333.6208218495745,301.799248922064 L 344.4635944196874,301.75028976772217 L 345.0483709263629,301.6850108952663 L 346.63732923666515,301.61973202281047 L 348.46637466469963,301.58709258658257 L 358.5261245188893,301.423895405443 L 358.6267419416733,300.8984004821735 L 360.6769464574113,300.88208076405954 L 363.5510183854502,300.8494413278316 L 365.05131381824975,300.8168018916037 L 368.4434160418104,280.53465621957434 L 373.5699235432622,280.52486438870596 L 378.5509840771251,280.49222495247807 L 383.43142718820405,280.3290277713385 L 383.53204461098807,280.31270805322447 L 397.6035406191509,280.2800686169966 L 400.9189345104901,280.2637488988826 L 408.2381048589483,280.2604849552598 L 408.3367298575188,280.0972877741202 L 408.43734728030284,274.1014233390514 L 412.73201767259945,274.0687839028235 L 414.23729416593284,274.03614446659554 L 420.6558887698686,274.02635263572716 L 428.3615894157546,247.9148036533914 L 433.24203252683355,247.7516064722518 L 438.32371048348057,247.73855069776064 L 448.28583155120646,247.7222309796467 L 451.6500398357775,247.65695210719085 L 453.2489602671475,247.59167323473503 L 455.15969508793734,247.5753535166211 L 458.14733519614833,247.41215633548148 L 458.2280283767969,247.2489591543419 L 458.24795261893235,244.37668876628496 L 460.57510410035314,244.360369048171 L 465.71854720762,244.32772961194308 L 474.85082359040433,244.1580045435579 L 477.06440689165305,243.89688905373453 L 492.4150392449119,243.89362511011174 L 492.4797930318521,243.89036116648896 L 494.8975998149892,243.79570680142797 L 498.42817552139127,242.92096991051974 L 505.0699216372441,242.91770596689696 L 506.9507700948308,242.67291019518754 L 507.95794053477783,242.50971301404795 L 508.05855795756185,240.0943947331819 L 513.0396184914248,240.07807501506795 L 514.9115010400506,240.06175529695398 L 529.9025008227645,240.05849135333122 L 533.2667091073355,240.0552274097084 L 536.8371332980084,239.80716769437623 L 545.7163718056726,239.80390375075345 L 547.1060876946203,239.80063980713066 L 549.2828111479184,239.78432008901672 L 554.8805269758736,239.78105614539393 L 555.654583782836,239.12826742083556 L 557.8691632961913,237.49629560943958 L 561.5162958190858,237.47018406045723 L 566.7234965011862,237.2090685706339 L 570.474235083185,233.23684918169607 L 570.4841972042527,233.2205294635821 L 574.4720342676634,233.05080439519693 L 577.7934054316432,231.68647596086987 L 579.713106161394,231.52327877973028 L 586.052003796788,231.1968844174511 L 587.7555264993691,229.2385182437759 L 590.5538863072933,229.22219852566195 L 592.736587033232,229.21240669479357 L 605.4651891214654,228.5596179702352 L 606.5719807720898,228.30829431128024 L 607.4805262134664,228.30503036765742 L 607.5791512120369,228.14183318651786 L 607.6797686348209,223.4025870462239 L 609.7927345132856,223.38626732810997 L 615.3834768564933,223.20022254161083 L 631.0469198112788,222.8738281793316 L 632.049109190692,222.8085493068758 L 633.6679538641974,222.74327043441994 L 636.5669310949057,222.726950716306 L 637.5661318379987,221.72492002410885 L 639.9929045300967,221.59436227919718 L 642.5471923718616,221.57804256108324 L 645.1184158194417,221.5617228429693 L 647.5282529057246,221.54540312485534 L 649.0066316721751,221.4540127034172 L 655.275794460095,220.8012239788588 L 657.4903739734505,220.27246511196648 L 657.4913701855572,220.02440539663428 L 674.0932449449224,219.8546803282491 L 677.4136198967955,219.83836061013514 L 680.4072372776471,218.31736288191408 L 683.9139038934866,215.05341925912214 L 687.3767371766281,214.8249432055267 L 688.1737068620462,214.80862348741277 L 696.9124794626554,214.48222912513356 L 705.0863997987245,213.82944040057518 L 707.2003618892959,213.6662432194356 L 707.2999830999731,211.65565394779574 L 707.30097931208,202.25549631415484 L 717.7482556758041,202.190217441699 L 727.2043009932895,202.18695349807624 L 727.2052972053963,201.99438082433153 L 730.9998691200931,201.77896054522725 L 733.5222781744413,201.76916871435887 L 735.2078690591005,201.76264082711327 L 752.7282513809101,198.8316194538461 L 753.3917286440206,198.5052250915669 L 754.1229483303918,198.4954332606985 L 754.897005137354,197.84264453614014 L 757.0109672279254,197.67944735500052 L 757.1115846507095,197.35305299272133 L 757.9762967593881,197.26492651490597 L 761.5606679195558,196.81776623858346 L 762.6455429038313,190.30293476749068 L 767.0737057184353,186.6799573461916 L 771.0585541455257,186.55919143214828 L 772.0547662522984,186.54287171403433 L 773.7144556221815,186.37314664564911 L 775.0434025726161,186.20994946450955 L 777.0358267861612,185.88355510223036 L 784.6598380392919,185.23076637767196 L 784.7833683405318,184.5779776531136 L 786.3872698324355,184.25158329083442 L 786.9979478538872,178.9182994111923 L 788.9694516131901,178.5919050489131 L 796.9600689216131,178.57232138717634 L 797.0826030107461,178.40912420603675 L 797.9144401199012,178.3928044879228 L 803.9335536690212,178.38954054430005 L 805.9249816704596,176.75756873290405 L 806.7229475679845,176.7543047892813 L 806.821572566555,176.59110760814167 L 806.9211937772322,170.83351105753664 L 806.922189989339,152.44771663034945 L 808.1515157290963,152.2649357874731 L 811.5057618925997,152.26167184385034 L 811.9032505232019,152.25840790022755 L 813.3965724712541,152.25514395660474 L 814.255307307292,152.2388242384908 L 818.1136367968223,152.05604339561444 L 824.2323715566196,151.27922481338996 L 828.0757578645482,151.09644397051363 L 838.0378789322741,150.91366312763722 L 848,150.7308822847609" fill="none" stroke="#f97316" stroke-width="2"/>
          <line x1="216.0075224179491" y1="36" x2="216.0075224179491" y2="388" stroke="#9ca3af" stroke-width="1" stroke-dasharray="4 4"/>
        </g>
      </svg>