<svg xmlns="http://www.w3.org/2000/svg" width="860" height="420" viewBox="0 0 860 420">
  <rect x="0" y="0" width="860" height="420" fill="#ffffff"/>
  <g class="grid">
    <line x1="48" y1="388" x2="844" y2="388" stroke="#e5e7eb"/>
    <line x1="48" y1="24" x2="48" y2="388" stroke="#e5e7eb"/>
  </g>
  <!-- ローソク -->
  <line x1="48" y1="154.19566762692207" x2="48" y2="176.0737775449886" stroke="#9ca3af" stroke-width="1"/><line x1="61.49152542372882" y1="127.25878259568259" x2="61.49152542372882" y2="169.96221332634966" stroke="#9ca3af" stroke-width="1"/><line x1="74.98305084745763" y1="44.951026974447245" x2="74.98305084745763" y2="139.32163567660592" stroke="#9ca3af" stroke-width="1"/><line x1="88.47457627118644" y1="101.58075498522203" x2="88.47457627118644" y2="185.43215234389615" stroke="#9ca3af" stroke-width="1"/><line x1="101.96610169491525" y1="93.01163530248044" x2="101.96610169491525" y2="142.75939990272738" stroke="#9ca3af" stroke-width="1"/><line x1="115.45762711864407" y1="76.0966740244678" x2="115.45762711864407" y2="141.40805866287553" stroke="#9ca3af" stroke-width="1"/><line x1="128.94915254237287" y1="64.40555202214824" x2="128.94915254237287" y2="155.6921695536683" stroke="#9ca3af" stroke-width="1"/><line x1="142.4406779661017" y1="110.32541434397098" x2="142.4406779661017" y2="134.74114257922108" stroke="#9ca3af" stroke-width="1"/><line x1="155.9322033898305" y1="105.11609113696733" x2="155.9322033898305" y2="160.18167533390698" stroke="#9ca3af" stroke-width="1"/><line x1="169.4237288135593" y1="102.87328369935278" x2="169.4237288135593" y2="176.31052414979985" stroke="#9ca3af" stroke-width="1"/><line x1="182.91525423728814" y1="114.53851621833962" x2="182.91525423728814" y2="180.3844513449811" stroke="#9ca3af" stroke-width="1"/><line x1="196.40677966101694" y1="117.76602192375321" x2="196.40677966101694" y2="176.6291294100041" stroke="#9ca3af" stroke-width="1"/><line x1="209.89830508474577" y1="127.51558232631226" x2="209.89830508474577" y2="178.13969845486176" stroke="#9ca3af" stroke-width="1"/><line x1="223.38983050847457" y1="145.21680571663737" x2="223.38983050847457" y2="214.59598189232668" stroke="#9ca3af" stroke-width="1"/><line x1="236.88135593220338" y1="140.28388641550376" x2="236.88135593220338" y2="163.76445059673014" stroke="#9ca3af" stroke-width="1"/><line x1="250.3728813559322" y1="108.47618691309066" x2="250.3728813559322" y2="147.51857533016573" stroke="#9ca3af" stroke-width="1"/><line x1="263.864406779661" y1="104.76576003591606" x2="263.864406779661" y2="135.93819447042537" stroke="#9ca3af" stroke-width="1"/><line x1="277.35593220338984" y1="96.85734595383292" x2="277.35593220338984" y2="145.216506416252" stroke="#9ca3af" stroke-width="1"/><line x1="290.8474576271186" y1="104.94204796288676" x2="290.8474576271186" y2="161.77470163492836" stroke="#9ca3af" stroke-width="1"/><line x1="304.33898305084745" y1="76.54577425268434" x2="304.33898305084745" y2="142.22365221295223" stroke="#9ca3af" stroke-width="1"/><line x1="317.8305084745763" y1="130.51786449175052" x2="317.8305084745763" y2="261.94380635265065" stroke="#9ca3af" stroke-width="1"/><line x1="331.3220338983051" y1="229.57611582924912" x2="331.3220338983051" y2="278.4053275468592" stroke="#9ca3af" stroke-width="1"/><line x1="344.8135593220339" y1="217.06401286991658" x2="344.8135593220339" y2="279.0039283175577" stroke="#9ca3af" stroke-width="1"/><line x1="358.3050847457627" y1="202.1070747128587" x2="358.3050847457627" y2="235.00677167121853" stroke="#9ca3af" stroke-width="1"/><line x1="371.79661016949154" y1="206.96576751842568" x2="371.79661016949154" y2="269.42631598638184" stroke="#9ca3af" stroke-width="1"/><line x1="385.2881355932203" y1="202.68233005349995" x2="385.2881355932203" y2="247.48774739047477" stroke="#9ca3af" stroke-width="1"/><line x1="398.77966101694915" y1="162.39994013992293" x2="398.77966101694915" y2="227.4374649257361" stroke="#9ca3af" stroke-width="1"/><line x1="412.271186440678" y1="158.68532305735343" x2="412.271186440678" y2="188.2370459051966" stroke="#9ca3af" stroke-width="1"/><line x1="425.76271186440675" y1="150.68711885966553" x2="425.76271186440675" y2="181.92764413184182" stroke="#9ca3af" stroke-width="1"/><line x1="439.2542372881356" y1="117.81286243406038" x2="439.2542372881356" y2="179.63620038160798" stroke="#9ca3af" stroke-width="1"/><line x1="452.7457627118644" y1="61.412697818848414" x2="452.7457627118644" y2="134.58610497961016" stroke="#9ca3af" stroke-width="1"/><line x1="466.23728813559325" y1="92.83908863032661" x2="466.23728813559325" y2="123.2952972426952" stroke="#9ca3af" stroke-width="1"/><line x1="479.728813559322" y1="32.82936136780273" x2="479.728813559322" y2="115.28646788132738" stroke="#9ca3af" stroke-width="1"/><line x1="493.22033898305085" y1="24" x2="493.22033898305085" y2="154.19566762692207" stroke="#9ca3af" stroke-width="1"/><line x1="506.7118644067797" y1="119.38703281080473" x2="506.7118644067797" y2="178.51891204309925" stroke="#9ca3af" stroke-width="1"/><line x1="520.2033898305085" y1="147.71356953122077" x2="520.2033898305085" y2="174.52654420292566" stroke="#9ca3af" stroke-width="1"/><line x1="533.6949152542372" y1="136.32653672041602" x2="533.6949152542372" y2="171.07336600695874" stroke="#9ca3af" stroke-width="1"/><line x1="547.1864406779662" y1="153.698978637435" x2="547.1864406779662" y2="218.0928579445546" stroke="#9ca3af" stroke-width="1"/><line x1="560.6779661016949" y1="151.2026637734296" x2="560.6779661016949" y2="259.10045269183286" stroke="#9ca3af" stroke-width="1"/><line x1="574.1694915254237" y1="221.42092857944556" x2="574.1694915254237" y2="273.209622507389" stroke="#9ca3af" stroke-width="1"/><line x1="587.6610169491526" y1="215.62527591754275" x2="587.6610169491526" y2="261.94380635265065" stroke="#9ca3af" stroke-width="1"/><line x1="601.1525423728814" y1="173.05174155411726" x2="601.1525423728814" y2="265.1077107261776" stroke="#9ca3af" stroke-width="1"/><line x1="614.6440677966102" y1="184.1257061618467" x2="614.6440677966102" y2="235.00677167121853" stroke="#9ca3af" stroke-width="1"/><line x1="628.1355932203389" y1="210.19671517827078" x2="628.1355932203389" y2="299.35635452130646" stroke="#9ca3af" stroke-width="1"/><line x1="641.6271186440678" y1="244.15219424595008" x2="641.6271186440678" y2="331.9123049870927" stroke="#9ca3af" stroke-width="1"/><line x1="655.1186440677966" y1="272.56882038235625" x2="655.1186440677966" y2="354.726925810917" stroke="#9ca3af" stroke-width="1"/><line x1="668.6101694915254" y1="257.14961278012646" x2="668.6101694915254" y2="305.93931684687044" stroke="#9ca3af" stroke-width="1"/><line x1="682.1016949152543" y1="249.53047252048336" x2="682.1016949152543" y2="302.3493583747989" stroke="#9ca3af" stroke-width="1"/><line x1="695.5932203389831" y1="269.7714093306895" x2="695.5932203389831" y2="380.6539713419881" stroke="#9ca3af" stroke-width="1"/><line x1="709.0847457627119" y1="351.1924875603277" x2="709.0847457627119" y2="382.3423248157432" stroke="#9ca3af" stroke-width="1"/><line x1="722.5762711864406" y1="338.959182909948" x2="722.5762711864406" y2="370.39739608664746" stroke="#9ca3af" stroke-width="1"/><line x1="736.0677966101695" y1="330.3789891129485" x2="736.0677966101695" y2="388" stroke="#9ca3af" stroke-width="1"/><line x1="749.5593220338983" y1="279.0167982341277" x2="749.5593220338983" y2="348.8574956040256" stroke="#9ca3af" stroke-width="1"/><line x1="763.0508474576271" y1="258.9509521493509" x2="763.0508474576271" y2="295.73137790414904" stroke="#9ca3af" stroke-width="1"/><line x1="776.542372881356" y1="246.79172434434508" x2="776.542372881356" y2="314.91982490927455" stroke="#9ca3af" stroke-width="1"/><line x1="790.0338983050848" y1="242.48928130494969" x2="790.0338983050848" y2="320.83295297242694" stroke="#9ca3af" stroke-width="1"/><line x1="803.5254237288135" y1="294.86684874106777" x2="803.5254237288135" y2="320.3073814957537" stroke="#9ca3af" stroke-width="1"/><line x1="817.0169491525423" y1="273.89741479292155" x2="817.0169491525423" y2="317.64570316884283" stroke="#9ca3af" stroke-width="1"/><line x1="830.5084745762712" y1="258.27363537730554" x2="830.5084745762712" y2="297.18148827116613" stroke="#9ca3af" stroke-width="1"/><line x1="844" y1="262.11021736690486" x2="844" y2="302.0608328033222" stroke="#9ca3af" stroke-width="1"/>
  <rect x="44.02" y="168.12241385760785" width="7.96" height="2.162594934340973" fill="#16a34a"/><rect x="57.51152542372882" y="133.96685248232257" width="7.96" height="34.15541172509259" fill="#16a34a"/><rect x="71.00305084745763" y="101.5809046354147" width="7.96" height="32.3857981967152" fill="#16a34a"/><rect x="84.49457627118643" y="101.58075498522203" width="7.96" height="28.11867260279098" fill="#ef4444"/><rect x="97.98610169491525" y="126.1576564779827" width="7.96" height="3.5416214598376428" fill="#16a34a"/><rect x="111.47762711864407" y="107.68483669422727" width="7.96" height="18.472819783755426" fill="#16a34a"/><rect x="124.96915254237287" y="107.68498634441994" width="7.96" height="21.55890605709152" fill="#ef4444"/><rect x="138.4606779661017" y="125.5710277226982" width="7.96" height="3.672715028620587" fill="#16a34a"/><rect x="151.95220338983052" y="125.5710277226982" width="7.96" height="18.99420105503384" fill="#ef4444"/><rect x="165.44372881355932" y="144.56522877773205" width="7.96" height="14.540162370459058" fill="#ef4444"/><rect x="178.93525423728815" y="117.7001758389764" width="7.96" height="41.4052153092147" fill="#16a34a"/><rect x="192.42677966101695" y="117.76602192375321" width="7.96" height="30.443637996183924" fill="#ef4444"/><rect x="205.91830508474578" y="148.12585581203936" width="7.96" height="1.4321523438961492" fill="#ef4444"/><rect x="219.40983050847458" y="149.5580081559355" width="7.96" height="3.7274869991395008" fill="#ef4444"/><rect x="232.9013559322034" y="145.0084926484343" width="7.96" height="8.276852856448045" fill="#16a34a"/><rect x="246.39288135593222" y="114.56560290321374" width="7.96" height="30.442889745220555" fill="#16a34a"/><rect x="259.884406779661" y="114.05290134311048" width="7.96" height="10.843952261588527" fill="#ef4444"/><rect x="273.3759322033898" y="124.54532530210633" width="7.96" height="2.7607467544614224" fill="#ef4444"/><rect x="286.8674576271186" y="118.57128961053536" width="7.96" height="8.73463279583973" fill="#16a34a"/><rect x="300.3589830508474" y="118.57113996034269" width="7.96" height="17.255565116540083" fill="#ef4444"/><rect x="313.85050847457626" y="135.82685472707547" width="7.96" height="113.5668375173033" fill="#ef4444"/><rect x="327.3420338983051" y="249.39369224437877" width="7.96" height="18.256724905533304" fill="#ef4444"/><rect x="340.83355932203386" y="228.69991395113922" width="7.96" height="38.95050319877285" fill="#16a34a"/><rect x="354.3250847457627" y="218.54525047701" width="7.96" height="10.154663474129222" fill="#16a34a"/><rect x="367.8166101694915" y="218.758651651764" width="7.96" height="10.77945302854576" fill="#ef4444"/><rect x="381.3081355932203" y="217.34580418272287" width="7.96" height="12.1923004975869" fill="#16a34a"/><rect x="394.79966101694913" y="170.71585169665906" width="7.96" height="46.63204758876128" fill="#16a34a"/><rect x="408.29118644067796" y="170.71585169665906" width="7.96" height="4.641999326574137" fill="#ef4444"/><rect x="421.78271186440674" y="175.3578510232332" width="7.96" height="2.2032997867484596" fill="#ef4444"/><rect x="435.27423728813557" y="118.27962138501255" width="7.96" height="59.28152942496911" fill="#16a34a"/><rect x="448.7657627118644" y="118.27947173481988" width="7.96" height="2.2449025403120118" fill="#ef4444"/><rect x="462.2572881355932" y="95.83194283362639" width="7.96" height="24.692281791312837" fill="#16a34a"/><rect x="475.748813559322" y="39.79138763141157" width="7.96" height="56.04055520221482" fill="#16a34a"/><rect x="489.24033898305083" y="39.25683714317785" width="7.96" height="90.98178008904182" fill="#ef4444"/><rect x="502.73186440677966" y="130.23861723221967" width="7.96" height="30.477907890306426" fill="#ef4444"/><rect x="516.2233898305085" y="160.7165251225261" width="7.96" height="1" fill="#ef4444"/><rect x="529.7149152542372" y="157.93677279359497" width="7.96" height="3.3009839500168425" fill="#16a34a"/><rect x="543.2064406779662" y="157.93677279359497" width="7.96" height="19.2818287253545" fill="#ef4444"/><rect x="556.6979661016949" y="177.21875116914214" width="7.96" height="77.6316360507314" fill="#ef4444"/><rect x="570.1894915254237" y="228.2825395637697" width="7.96" height="26.56784765610385" fill="#16a34a"/><rect x="583.6810169491525" y="228.28268921396236" width="7.96" height="23.801414194320785" fill="#ef4444"/><rect x="597.1725423728814" y="185.1734071607617" width="7.96" height="66.91069624752143" fill="#16a34a"/><rect x="610.6640677966102" y="185.17325751056904" width="7.96" height="29.89621759138015" fill="#ef4444"/><rect x="624.1555932203389" y="215.0694751019492" width="7.96" height="34.113958621721736" fill="#ef4444"/><rect x="637.6471186440677" y="249.18343372367093" width="7.96" height="60.35736466010701" fill="#ef4444"/><rect x="651.1386440677966" y="284.6883908863033" width="7.96" height="24.852257847281976" fill="#16a34a"/><rect x="664.6301694915254" y="284.6883908863033" width="7.96" height="13.9984286729769" fill="#ef4444"/><rect x="678.1216949152542" y="274.6642223801863" width="7.96" height="24.022597179093907" fill="#16a34a"/><rect x="691.6132203389831" y="274.6642223801863" width="7.96" height="84.55220921096941" fill="#ef4444"/><rect x="705.1047457627119" y="354.16753339069925" width="7.96" height="5.048748550263724" fill="#16a34a"/><rect x="718.5962711864406" y="354.1676830408919" width="7.96" height="13.3273972090239" fill="#ef4444"/><rect x="732.0877966101694" y="344.8070634890942" width="7.96" height="22.688016760821597" fill="#16a34a"/><rect x="745.5793220338983" y="281.0734408320551" width="7.96" height="63.73377230723179" fill="#16a34a"/><rect x="759.0708474576271" y="278.4119121553369" width="7.96" height="1.8843952261588583" fill="#16a34a"/><rect x="772.5623728813559" y="278.4117625051442" width="7.96" height="12.025590182947326" fill="#ef4444"/><rect x="786.0538983050848" y="289.77844288974524" width="7.96" height="19.570952897601842" fill="#ef4444"/><rect x="799.5454237288135" y="309.3493957873471" width="7.96" height="8.296157731303083" fill="#ef4444"/><rect x="813.0369491525423" y="284.0523775674361" width="7.96" height="33.59317595121405" fill="#16a34a"/><rect x="826.5284745762712" y="279.90182947360546" width="7.96" height="4.959407385237" fill="#16a34a"/><rect x="840.02" y="262.8789704066744" width="7.96" height="17.022859066931062" fill="#16a34a"/>
  <!-- SMA -->
  
  <!-- Bollinger Bands -->
  
  <!-- Ichimoku Cloud -->
  
      <path d="M 48,169.87616446556174 L 61.49152542372882,169.87616446556174 L 74.98305084745763,188.23281828725354 L 88.47457627118644,185.05656777283102 L 101.96610169491525,170.20831306820307 L 115.45762711864407,167.8139099854091 L 128.94915254237287,153.52224175988627 L 142.4406779661017,143.62291892700813 L 155.9322033898305,138.61034831082344 L 169.4237288135593,128.8102435556886 L 182.91525423728814,127.23289311234987 L 196.40677966101694,136.2741965655281 L 209.89830508474577,146.52609525234763 L 223.38983050847457,150.05338770623666 L 236.88135593220338,150.05338770623666 L 250.3728813559322,150.05338770623666 L 263.864406779661,173.90014590893784 L 277.35593220338984,189.75981144075723 L 290.8474576271186,206.03778667365034 L 304.33898305084745,221.1641288488159 L 317.8305084745763,221.1641288488159 L 331.3220338983051,226.6263982939878 L 344.8135593220339,239.58992105952336 L 358.3050847457627,240.43409779640092 L 371.79661016949154,243.20258894833327 L 385.2881355932203,252.5491787945677 L 398.77966101694915,261.0380485614875 L 412.271186440678,262.3826181301208 L 425.76271186440675,261.69793108608627 L 439.2542372881356,260.6223203262374 L 452.7457627118644,260.6223203262374 L 466.23728813559325,260.6223203262374 L 479.728813559322,260.6223203262374 L 493.22033898305085,284.4690785289386 L 493.22033898305085,206 L 479.728813559322,206 L 466.23728813559325,206 L 452.7457627118644,206 L 439.2542372881356,206 L 425.76271186440675,206 L 412.271186440678,206 L 398.77966101694915,206 L 385.2881355932203,206 L 371.79661016949154,203.1711624078716 L 358.3050847457627,203.1711624078716 L 344.8135593220339,202.32698567099405 L 331.3220338983051,211.68738074750271 L 317.8305084745763,212.89086759699202 L 304.33898305084745,220.4921246586105 L 290.8474576271186,220.4921246586105 L 277.35593220338984,225.82969808073628 L 263.864406779661,225.82969808073628 L 250.3728813559322,255.99251749036628 L 236.88135593220338,255.99251749036628 L 223.38983050847457,255.99251749036628 L 209.89830508474577,255.99251749036628 L 196.40677966101694,255.99251749036628 L 182.91525423728814,255.99251749036628 L 169.4237288135593,255.99251749036628 L 155.9322033898305,255.99251749036628 L 142.4406779661017,255.99251749036628 L 128.94915254237287,299.7473904747652 L 115.45762711864407,323.43073066706575 L 101.96610169491525,323.43073066706575 L 88.47457627118644,323.43073066706575 L 74.98305084745763,323.43073066706575 L 61.49152542372882,323.43073066706575 L 48,323.43073066706575 Z" fill="rgba(239, 68, 68, 0.1)" stroke="none" />
      <path d="M 48,284.5242246249392 L 61.49152542372882,272.1215159564518 L 74.98305084745763,230.96763814583412 L 88.47457627118644,223.36638108421565 L 101.96610169491525,222.16289423472634 L 115.45762711864407,209.37333981817503 L 128.94915254237287,190.78244603239926 L 142.4406779661017,140.61274271390624 L 155.9322033898305,115.19158965917171 L 169.4237288135593,115.19158965917171 L 182.91525423728814,115.19158965917171 L 196.40677966101694,124.91885218302218 L 209.89830508474577,122.39500168356466 L 223.38983050847457,139.50076695723746 L 236.88135593220338,139.50076695723746 L 250.3728813559322,158.73463279583973 L 263.864406779661,158.73463279583973 L 277.35593220338984,155.7266639230798 L 290.8474576271186,155.7266639230798 L 304.33898305084745,145.5708780725055 L 317.8305084745763,169.24479030266752 L 331.3220338983051,177.47555089977178 L 344.8135593220339,177.77485128512103 L 358.3050847457627,177.77485128512103 L 371.79661016949154,177.77485128512103 L 385.2881355932203,177.77485128512103 L 398.77966101694915,177.77485128512103 L 412.271186440678,177.77485128512103 L 425.76271186440675,204.76089640465412 L 439.2542372881356,198.40839537580905 L 452.7457627118644,170.20831306820307 L 466.23728813559325,165.41950690261513 L 479.728813559322,151.12783867709229 L 493.22033898305085,135.74387369523737 L 506.7118644067797,125.71873246286805 L 520.2033898305085,106.11852295259831 L 533.6949152542372,102.96382206592091 L 547.1864406779662,121.04642897227728 L 560.6779661016949,141.55022634591643 L 574.1694915254237,148.6048112536945 L 587.6610169491526,148.6048112536945 L 601.1525423728814,148.6048112536945 L 614.6440677966102,196.29832765909686 L 628.1355932203389,217.84144562086124 L 641.6271186440678,234.11942085375435 L 655.1186440677966,252.9647947921733 L 668.6101694915254,252.9647947921733 L 682.1016949152543,263.88933368251713 L 695.5932203389831,276.85285644805265 L 709.0847457627119,277.6970331849302 L 722.5762711864406,283.23401548879497 L 736.0677966101695,299.0983575891354 L 749.5593220338983,316.07609712297506 L 763.0508474576271,318.7652362602417 L 776.542372881356,317.39586217217254 L 790.0338983050848,315.24464065247486 L 803.5254237288135,315.24464065247486 L 817.0169491525423,315.24464065247486 L 830.5084745762712,315.24464065247486 L 844,315.24464065247486" fill="none" stroke="#f97316" stroke-width="1"/>
      <path d="M 48,371.64974372404504 L 61.49152542372882,364.5846084776834 L 74.98305084745763,323.43073066706575 L 88.47457627118644,323.43073066706575 L 101.96610169491525,323.43073066706575 L 115.45762711864407,323.43073066706575 L 128.94915254237287,305.80822327808744 L 142.4406779661017,266.4680309775899 L 155.9322033898305,266.4680309775899 L 169.4237288135593,266.4680309775899 L 182.91525423728814,266.4680309775899 L 196.40677966101694,266.4680309775899 L 209.89830508474577,266.4680309775899 L 223.38983050847457,266.4680309775899 L 236.88135593220338,266.4680309775899 L 250.3728813559322,266.4680309775899 L 263.864406779661,236.3052115679599 L 277.35593220338984,236.3052115679599 L 290.8474576271186,230.96763814583412 L 304.33898305084745,230.96763814583412 L 317.8305084745763,223.36638108421565 L 331.3220338983051,222.16289423472634 L 344.8135593220339,209.37333981817503 L 358.3050847457627,190.78244603239926 L 371.79661016949154,161.97747764600246 L 385.2881355932203,161.97747764600246 L 398.77966101694915,161.97747764600246 L 412.271186440678,161.97747764600246 L 425.76271186440675,171.70474016985298 L 439.2542372881356,171.70474016985298 L 452.7457627118644,170.20831306820307 L 466.23728813559325,170.20831306820307 L 479.728813559322,155.91664484268023 L 493.22033898305085,151.50196415877886 L 506.7118644067797,151.50196415877886 L 520.2033898305085,151.50196415877886 L 533.6949152542372,151.50196415877886 L 547.1864406779662,151.50196415877886 L 560.6779661016949,151.50196415877886 L 574.1694915254237,151.50196415877886 L 587.6610169491526,151.50196415877886 L 601.1525423728814,151.50196415877886 L 614.6440677966102,151.50196415877886 L 628.1355932203389,161.67817726065323 L 641.6271186440678,177.95615249354634 L 655.1186440677966,189.3634629054585 L 668.6101694915254,189.3634629054585 L 682.1016949152543,189.3634629054585 L 695.5932203389831,202.32698567099405 L 709.0847457627119,203.1711624078716 L 722.5762711864406,203.1711624078716 L 736.0677966101695,206 L 749.5593220338983,206 L 763.0508474576271,206 L 776.542372881356,206 L 790.0338983050848,206 L 803.5254237288135,206 L 817.0169491525423,206 L 830.5084745762712,206 L 844,253.69351640540236" fill="none" stroke="#3b82f6" stroke-width="1"/>
      <path d="M 48,442.4562086123686 L 61.49152542372882,471.2550413408657 L 74.98305084745763,475.3490216618654 L 88.47457627118644,474.76134535523215 L 101.96610169491525,487.8026113958622 L 115.45762711864407,512.965393392944 L 128.94915254237287,538.2932395525459 L 142.4406779661017,453.5126641475551 L 155.9322033898305,452.6515769389053 L 169.4237288135593,428.0553705712896 L 182.91525423728814,434.19117812114183 L 196.40677966101694,433.0212129148116 L 209.89830508474577,427.86740992929026 L 223.38983050847457,409.8046316734633 L 236.88135593220338,443.9149986905608 L 250.3728813559322,480.0902390661828 L 263.864406779661,424.200531258184 L 277.35593220338984,386.3158367316398 L 290.8474576271186,410.1461334131468 L 304.33898305084745,409.5307718208687 L 317.8305084745763,389.1279135021886 L 331.3220338983051,386.5081372292267 L 344.8135593220339,362.20868719368474 L 358.3050847457627,326.2933892027386 L 371.79661016949154,224.53140783418758 L 385.2881355932203,170.28500879194883 L 398.77966101694915,168.12241385760785 L 412.271186440678,133.96685248232257 L 425.76271186440675,101.5809046354147 L 439.2542372881356,129.699427588013 L 452.7457627118644,126.1576564779827 L 466.23728813559325,107.68483669422727 L 479.728813559322,129.24389240151146 L 493.22033898305085,125.5710277226982 L 506.7118644067797,144.56522877773205 L 520.2033898305085,159.1053911481911 L 533.6949152542372,117.7001758389764 L 547.1864406779662,148.20965991993714 L 560.6779661016949,149.5580081559355 L 574.1694915254237,153.285495155075 L 587.6610169491526,145.0084926484343 L 601.1525423728814,114.56560290321374 L 614.6440677966102,124.896853604699 L 628.1355932203389,127.30607205656776 L 641.6271186440678,118.57128961053536 L 655.1186440677966,135.82670507688277 L 668.6101694915254,249.39369224437877 L 682.1016949152543,267.6504171499121 L 695.5932203389831,228.69991395113922 L 709.0847457627119,218.54525047701 L 722.5762711864406,229.53810468030977 L 736.0677966101695,217.34580418272287 L 749.5593220338983,170.71585169665906 L 763.0508474576271,175.3578510232332 L 776.542372881356,177.56115080998165 L 790.0338983050848,118.27962138501255 L 803.5254237288135,120.52437427513189 L 817.0169491525423,95.83194283362639 L 830.5084745762712,39.79138763141157 L 844,130.23861723221967" fill="none" stroke="#16a34a" stroke-width="1" stroke-dasharray="2 2"/>
      <path d="M 48,169.87616446556174 L 61.49152542372882,169.87616446556174 L 74.98305084745763,188.23281828725354 L 88.47457627118644,185.05656777283102 L 101.96610169491525,170.20831306820307 L 115.45762711864407,167.8139099854091 L 128.94915254237287,153.52224175988627 L 142.4406779661017,143.62291892700813 L 155.9322033898305,138.61034831082344 L 169.4237288135593,128.8102435556886 L 182.91525423728814,127.23289311234987 L 196.40677966101694,136.2741965655281 L 209.89830508474577,146.52609525234763 L 223.38983050847457,150.05338770623666 L 236.88135593220338,150.05338770623666 L 250.3728813559322,150.05338770623666 L 263.864406779661,173.90014590893784 L 277.35593220338984,189.75981144075723 L 290.8474576271186,206.03778667365034 L 304.33898305084745,221.1641288488159 L 317.8305084745763,221.1641288488159 L 331.3220338983051,226.6263982939878 L 344.8135593220339,239.58992105952336 L 358.3050847457627,240.43409779640092 L 371.79661016949154,243.20258894833327 L 385.2881355932203,252.5491787945677 L 398.77966101694915,261.0380485614875 L 412.271186440678,262.3826181301208 L 425.76271186440675,261.69793108608627 L 439.2542372881356,260.6223203262374 L 452.7457627118644,260.6223203262374 L 466.23728813559325,260.6223203262374 L 479.728813559322,260.6223203262374 L 493.22033898305085,284.4690785289386" fill="none" stroke="rgba(239, 68, 68, 0.5)" stroke-width="1"/>
      <path d="M 48,323.43073066706575 L 61.49152542372882,323.43073066706575 L 74.98305084745763,323.43073066706575 L 88.47457627118644,323.43073066706575 L 101.96610169491525,323.43073066706575 L 115.45762711864407,323.43073066706575 L 128.94915254237287,299.7473904747652 L 142.4406779661017,255.99251749036628 L 155.9322033898305,255.99251749036628 L 169.4237288135593,255.99251749036628 L 182.91525423728814,255.99251749036628 L 196.40677966101694,255.99251749036628 L 209.89830508474577,255.99251749036628 L 223.38983050847457,255.99251749036628 L 236.88135593220338,255.99251749036628 L 250.3728813559322,255.99251749036628 L 263.864406779661,225.82969808073628 L 277.35593220338984,225.82969808073628 L 290.8474576271186,220.4921246586105 L 304.33898305084745,220.4921246586105 L 317.8305084745763,212.89086759699202 L 331.3220338983051,211.68738074750271 L 344.8135593220339,202.32698567099405 L 358.3050847457627,203.1711624078716 L 371.79661016949154,203.1711624078716 L 385.2881355932203,206 L 398.77966101694915,206 L 412.271186440678,206 L 425.76271186440675,206 L 439.2542372881356,206 L 452.7457627118644,206 L 466.23728813559325,206 L 479.728813559322,206 L 493.22033898305085,206" fill="none" stroke="rgba(16, 163, 74, 0.5)" stroke-width="1"/>
    
  <!-- 目盛り（軽量） -->
  <text x="430" y="24" text-anchor="middle" font-family="sans-serif" font-size="18" fill="#111">
    BTC/JPY 1day (60 bars)
  </text>
</svg>
