<svg xmlns="http://www.w3.org/2000/svg" width="860" height="420" viewBox="0 0 860 420">
  <rect x="0" y="0" width="860" height="420" fill="#ffffff"/>
  <g class="grid">
    <line x1="48" y1="388" x2="844" y2="388" stroke="#e5e7eb"/>
    <line x1="48" y1="24" x2="48" y2="388" stroke="#e5e7eb"/>
  </g>
  <!-- ローソク -->
  <line x1="48" y1="307.6744805841509" x2="48" y2="343.2948539804057" stroke="#9ca3af" stroke-width="1"/><line x1="56.04040404040404" y1="293.3666847759379" x2="56.04040404040404" y2="327.43707994992934" stroke="#9ca3af" stroke-width="1"/><line x1="64.08080808080808" y1="299.23330144789577" x2="64.08080808080808" y2="333.1661742291432" stroke="#9ca3af" stroke-width="1"/><line x1="72.12121212121212" y1="310.5442590416449" x2="72.12121212121212" y2="379.38255844124234" stroke="#9ca3af" stroke-width="1"/><line x1="80.16161616161617" y1="302.69219228006426" x2="80.16161616161617" y2="368.9849606731884" stroke="#9ca3af" stroke-width="1"/><line x1="88.20202020202021" y1="298.76201154815624" x2="88.20202020202021" y2="324.3059241140397" stroke="#9ca3af" stroke-width="1"/><line x1="96.24242424242425" y1="291.8812732699388" x2="96.24242424242425" y2="311.12055233104644" stroke="#9ca3af" stroke-width="1"/><line x1="104.28282828282829" y1="241.73593367967098" x2="104.28282828282829" y2="307.9794994072623" stroke="#9ca3af" stroke-width="1"/><line x1="112.32323232323232" y1="238.15431895761031" x2="112.32323232323232" y2="263.25267405228004" stroke="#9ca3af" stroke-width="1"/><line x1="120.36363636363636" y1="235.1378750833173" x2="120.36363636363636" y2="269.51300630648035" stroke="#9ca3af" stroke-width="1"/><line x1="128.40404040404042" y1="261.032427334607" x2="128.40404040404042" y2="311.7718749724865" stroke="#9ca3af" stroke-width="1"/><line x1="136.44444444444446" y1="296.9207761678538" x2="136.44444444444446" y2="351.5570372127397" stroke="#9ca3af" stroke-width="1"/><line x1="144.4848484848485" y1="297.1315370110173" x2="144.4848484848485" y2="324.0727298716486" stroke="#9ca3af" stroke-width="1"/><line x1="152.52525252525254" y1="299.67961298294915" x2="152.52525252525254" y2="321.29070559348605" stroke="#9ca3af" stroke-width="1"/><line x1="160.56565656565658" y1="260.6817876492008" x2="160.56565656565658" y2="312.36174141100054" stroke="#9ca3af" stroke-width="1"/><line x1="168.60606060606062" y1="269.624042206859" x2="168.60606060606062" y2="324.15548837804283" stroke="#9ca3af" stroke-width="1"/><line x1="176.64646464646464" y1="296.7793891979319" x2="176.64646464646464" y2="327.5106954322687" stroke="#9ca3af" stroke-width="1"/><line x1="184.68686868686868" y1="301.11855530483393" x2="184.68686868686868" y2="319.9700570364359" stroke="#9ca3af" stroke-width="1"/><line x1="192.72727272727272" y1="280.9275534201922" x2="192.72727272727272" y2="331.56096083063034" stroke="#9ca3af" stroke-width="1"/><line x1="200.76767676767676" y1="306.568740221382" x2="200.76767676767676" y2="348.24745102080874" stroke="#9ca3af" stroke-width="1"/><line x1="208.8080808080808" y1="315.89076018025025" x2="208.8080808080808" y2="388" stroke="#9ca3af" stroke-width="1"/><line x1="216.84848484848484" y1="286.03718425518844" x2="216.84848484848484" y2="365.80073759458816" stroke="#9ca3af" stroke-width="1"/><line x1="224.88888888888889" y1="292.7084813019617" x2="224.88888888888889" y2="310.0934231235541" stroke="#9ca3af" stroke-width="1"/><line x1="232.92929292929293" y1="259.81367165388053" x2="232.92929292929293" y2="295.46194541219995" stroke="#9ca3af" stroke-width="1"/><line x1="240.96969696969697" y1="266.352441980847" x2="240.96969696969697" y2="287.9222495961667" stroke="#9ca3af" stroke-width="1"/><line x1="249.010101010101" y1="273.25768733385087" x2="249.010101010101" y2="287.722611194637" stroke="#9ca3af" stroke-width="1"/><line x1="257.0505050505051" y1="274.9193612623526" x2="257.0505050505051" y2="282.744753015608" stroke="#9ca3af" stroke-width="1"/><line x1="265.0909090909091" y1="263.4152690676902" x2="265.0909090909091" y2="280.128151492254" stroke="#9ca3af" stroke-width="1"/><line x1="273.13131313131316" y1="259.64494986977377" x2="273.13131313131316" y2="288.4857238002953" stroke="#9ca3af" stroke-width="1"/><line x1="281.1717171717172" y1="284.15202465623025" x2="281.1717171717172" y2="314.901334164737" stroke="#9ca3af" stroke-width="1"/><line x1="289.21212121212125" y1="260.45264649994743" x2="289.21212121212125" y2="316.24347354121534" stroke="#9ca3af" stroke-width="1"/><line x1="297.2525252525253" y1="239.8507740807128" x2="297.2525252525253" y2="276.0685545538775" stroke="#9ca3af" stroke-width="1"/><line x1="305.2929292929293" y1="250.12489389503494" x2="305.2929292929293" y2="278.2470449864336" stroke="#9ca3af" stroke-width="1"/><line x1="313.3333333333333" y1="263.14210944180115" x2="313.3333333333333" y2="270.4236326507571" stroke="#9ca3af" stroke-width="1"/><line x1="321.37373737373736" y1="248.80754436728296" x2="321.37373737373736" y2="271.5232462448294" stroke="#9ca3af" stroke-width="1"/><line x1="329.4141414141414" y1="245.50625287758737" x2="329.4141414141414" y2="261.9478608358611" stroke="#9ca3af" stroke-width="1"/><line x1="337.45454545454544" y1="233.8182633640466" x2="337.45454545454544" y2="260.4318154863789" stroke="#9ca3af" stroke-width="1"/><line x1="345.4949494949495" y1="204.0327417005072" x2="345.4949494949495" y2="244.32067600580257" stroke="#9ca3af" stroke-width="1"/><line x1="353.5353535353535" y1="140.87998939338775" x2="353.5353535353535" y2="220.90152682390487" stroke="#9ca3af" stroke-width="1"/><line x1="361.57575757575756" y1="97.93812740467905" x2="361.57575757575756" y2="157.70221107469115" stroke="#9ca3af" stroke-width="1"/><line x1="369.6161616161616" y1="106.0044425546813" x2="369.6161616161616" y2="119.7844879331659" stroke="#9ca3af" stroke-width="1"/><line x1="377.65656565656565" y1="89.03810042203753" x2="377.65656565656565" y2="115.93508629007323" stroke="#9ca3af" stroke-width="1"/><line x1="385.6969696969697" y1="37.196117192707334" x2="385.6969696969697" y2="96.63595341169867" stroke="#9ca3af" stroke-width="1"/><line x1="393.73737373737373" y1="72.86465641671555" x2="393.73737373737373" y2="125.67891070920842" stroke="#9ca3af" stroke-width="1"/><line x1="401.77777777777777" y1="67.46735022691831" x2="401.77777777777777" y2="98.80124772706205" stroke="#9ca3af" stroke-width="1"/><line x1="409.8181818181818" y1="56.813370753406105" x2="409.8181818181818" y2="97.9500981681324" stroke="#9ca3af" stroke-width="1"/><line x1="417.85858585858585" y1="49.44965458593555" x2="417.85858585858585" y2="106.94702235416037" stroke="#9ca3af" stroke-width="1"/><line x1="425.8989898989899" y1="78.37252721699173" x2="425.8989898989899" y2="93.75090516145303" stroke="#9ca3af" stroke-width="1"/><line x1="433.93939393939394" y1="75.09140693500495" x2="433.93939393939394" y2="109.77476175259767" stroke="#9ca3af" stroke-width="1"/><line x1="441.979797979798" y1="73.67876258952566" x2="441.979797979798" y2="119.93360405744352" stroke="#9ca3af" stroke-width="1"/><line x1="450.020202020202" y1="81.02617212646521" x2="450.020202020202" y2="122.49958904556547" stroke="#9ca3af" stroke-width="1"/><line x1="458.06060606060606" y1="83.05903398000174" x2="458.06060606060606" y2="120.1342792967526" stroke="#9ca3af" stroke-width="1"/><line x1="466.1010101010101" y1="89.19984711562813" x2="466.1010101010101" y2="121.08571934634682" stroke="#9ca3af" stroke-width="1"/><line x1="474.14141414141415" y1="100.34905801578668" x2="474.14141414141415" y2="144.04790584145704" stroke="#9ca3af" stroke-width="1"/><line x1="482.1818181818182" y1="97.24203222276373" x2="482.1818181818182" y2="112.03139205053054" stroke="#9ca3af" stroke-width="1"/><line x1="490.22222222222223" y1="77.20778135877538" x2="490.22222222222223" y2="101.79884000536543" stroke="#9ca3af" stroke-width="1"/><line x1="498.26262626262627" y1="74.87074900394691" x2="498.26262626262627" y2="94.50487474305635" stroke="#9ca3af" stroke-width="1"/><line x1="506.3030303030303" y1="69.88959179561971" x2="506.3030303030303" y2="100.34886949982678" stroke="#9ca3af" stroke-width="1"/><line x1="514.3434343434344" y1="74.98178490432554" x2="514.3434343434344" y2="110.77813794914317" stroke="#9ca3af" stroke-width="1"/><line x1="522.3838383838383" y1="57.09623895122979" x2="522.3838383838383" y2="98.46380415884852" stroke="#9ca3af" stroke-width="1"/><line x1="530.4242424242425" y1="91.0908507093431" x2="530.4242424242425" y2="173.87018811717613" stroke="#9ca3af" stroke-width="1"/><line x1="538.4646464646464" y1="153.48322389222272" x2="538.4646464646464" y2="184.2385659114462" stroke="#9ca3af" stroke-width="1"/><line x1="546.5050505050506" y1="145.60240844675798" x2="546.5050505050506" y2="184.6155978312378" stroke="#9ca3af" stroke-width="1"/><line x1="554.5454545454545" y1="136.1817003828842" x2="554.5454545454545" y2="156.90375172655243" stroke="#9ca3af" stroke-width="1"/><line x1="562.5858585858585" y1="139.24197421785297" x2="562.5858585858585" y2="178.5830871145716" stroke="#9ca3af" stroke-width="1"/><line x1="570.6262626262626" y1="136.54402805780396" x2="570.6262626262626" y2="164.76496151218802" stroke="#9ca3af" stroke-width="1"/><line x1="578.6666666666666" y1="111.1719477893655" x2="578.6666666666666" y2="152.13618310078715" stroke="#9ca3af" stroke-width="1"/><line x1="586.7070707070707" y1="108.83227621109853" x2="586.7070707070707" y2="127.44558802737208" stroke="#9ca3af" stroke-width="1"/><line x1="594.7474747474747" y1="103.79456421480256" x2="594.7474747474747" y2="123.47157733478826" stroke="#9ca3af" stroke-width="1"/><line x1="602.7878787878788" y1="83.08853672772545" x2="602.7878787878788" y2="122.02829914582588" stroke="#9ca3af" stroke-width="1"/><line x1="610.8282828282828" y1="47.56458924495735" x2="610.8282828282828" y2="93.65325389422702" stroke="#9ca3af" stroke-width="1"/><line x1="618.8686868686868" y1="67.35867077603837" x2="618.8686868686868" y2="86.54167782311714" stroke="#9ca3af" stroke-width="1"/><line x1="626.9090909090909" y1="29.561220816926664" x2="626.9090909090909" y2="81.49727351024484" stroke="#9ca3af" stroke-width="1"/><line x1="634.9494949494949" y1="24" x2="634.9494949494949" y2="106.0044425546813" stroke="#9ca3af" stroke-width="1"/><line x1="642.989898989899" y1="84.08003641879753" x2="642.989898989899" y2="121.32456906753481" stroke="#9ca3af" stroke-width="1"/><line x1="651.030303030303" y1="101.92165815323756" x2="651.030303030303" y2="118.80995467848447" stroke="#9ca3af" stroke-width="1"/><line x1="659.070707070707" y1="94.7494742010212" x2="659.070707070707" y2="116.63495179118644" stroke="#9ca3af" stroke-width="1"/><line x1="667.1111111111111" y1="105.69160031923417" x2="667.1111111111111" y2="146.25043205889983" stroke="#9ca3af" stroke-width="1"/><line x1="675.1515151515151" y1="104.11928295572307" x2="675.1515151515151" y2="172.07928649816586" stroke="#9ca3af" stroke-width="1"/><line x1="683.1919191919192" y1="148.34663527496141" x2="683.1919191919192" y2="180.96602310563472" stroke="#9ca3af" stroke-width="1"/><line x1="691.2323232323232" y1="144.69621222753875" x2="691.2323232323232" y2="173.87018811717613" stroke="#9ca3af" stroke-width="1"/><line x1="699.2727272727273" y1="117.88104228609785" x2="699.2727272727273" y2="175.86299032923483" stroke="#9ca3af" stroke-width="1"/><line x1="707.3131313131313" y1="124.85603854426319" x2="707.3131313131313" y2="156.90375172655243" stroke="#9ca3af" stroke-width="1"/><line x1="715.3535353535353" y1="141.27700400492836" x2="715.3535353535353" y2="197.43468310415352" stroke="#9ca3af" stroke-width="1"/><line x1="723.3939393939394" y1="162.66404539712906" x2="723.3939393939394" y2="217.9402238678814" stroke="#9ca3af" stroke-width="1"/><line x1="731.4343434343434" y1="180.56241043549775" x2="731.4343434343434" y2="232.31013568488004" stroke="#9ca3af" stroke-width="1"/><line x1="739.4747474747475" y1="170.8505394715649" x2="739.4747474747475" y2="201.5809973840821" stroke="#9ca3af" stroke-width="1"/><line x1="747.5151515151515" y1="166.051582938477" x2="747.5151515151515" y2="199.3198427031117" stroke="#9ca3af" stroke-width="1"/><line x1="755.5555555555555" y1="178.80044601633148" x2="755.5555555555555" y2="248.6404249688353" stroke="#9ca3af" stroke-width="1"/><line x1="763.5959595959596" y1="230.08395071447032" x2="763.5959595959596" y2="249.70384349860763" stroke="#9ca3af" stroke-width="1"/><line x1="771.6363636363636" y1="222.3787378856485" x2="771.6363636363636" y2="242.18026579714544" stroke="#9ca3af" stroke-width="1"/><line x1="779.6767676767677" y1="216.9744566053351" x2="779.6767676767677" y2="253.2673606885183" stroke="#9ca3af" stroke-width="1"/><line x1="787.7171717171717" y1="184.62370401751335" x2="787.7171717171717" y2="228.61324345334307" stroke="#9ca3af" stroke-width="1"/><line x1="795.7575757575758" y1="171.9851227761979" x2="795.7575757575758" y2="195.1514720558753" stroke="#9ca3af" stroke-width="1"/><line x1="803.7979797979798" y1="164.3265676474503" x2="803.7979797979798" y2="207.23741876075616" stroke="#9ca3af" stroke-width="1"/><line x1="811.8383838383838" y1="161.61665072394788" x2="811.8383838383838" y2="210.9618343224379" stroke="#9ca3af" stroke-width="1"/><line x1="819.8787878787879" y1="194.60694370571622" x2="819.8787878787879" y2="210.63080029686085" stroke="#9ca3af" stroke-width="1"/><line x1="827.9191919191919" y1="181.3992327814753" x2="827.9191919191919" y2="208.95432786550734" stroke="#9ca3af" stroke-width="1"/><line x1="835.959595959596" y1="171.55851115895365" x2="835.959595959596" y2="196.06483188157054" stroke="#9ca3af" stroke-width="1"/><line x1="844" y1="171.53909401508437" x2="844" y2="199.13811331777214" stroke="#9ca3af" stroke-width="1"/>
  <rect x="45.612" y="307.6744805841509" width="4.776" height="11.338292407934034" fill="#ef4444"/><rect x="53.65240404040404" y="311.89997156723575" width="4.776" height="7.112801424849181" fill="#16a34a"/><rect x="61.692808080808085" y="311.89997156723575" width="4.776" height="18.03013769433585" fill="#ef4444"/><rect x="69.73321212121212" y="329.9301092615716" width="4.776" height="33.953609536835984" fill="#ef4444"/><rect x="77.77361616161616" y="319.296678027688" width="4.776" height="44.58704077071957" fill="#16a34a"/><rect x="85.8140202020202" y="302.5323307460726" width="4.776" height="16.814021237047996" fill="#16a34a"/><rect x="93.85442424242424" y="302.5323307460726" width="4.776" height="1.225353739322827" fill="#ef4444"/><rect x="101.89482828282829" y="245.15646151400068" width="4.776" height="58.60122297139475" fill="#16a34a"/><rect x="109.93523232323231" y="239.73596786113623" width="4.776" height="5.420493652864451" fill="#16a34a"/><rect x="117.97563636363635" y="239.73596786113623" width="4.776" height="23.576842782350553" fill="#ef4444"/><rect x="126.01604040404041" y="263.3128106434868" width="4.776" height="48.174028197637256" fill="#ef4444"/><rect x="134.05644444444445" y="299.4218174077916" width="4.776" height="12.385592823135255" fill="#16a34a"/><rect x="142.0968484848485" y="298.83694664221485" width="4.776" height="9.175260284089404" fill="#ef4444"/><rect x="150.13725252525253" y="302.9058751206062" width="4.776" height="5.106331805698062" fill="#16a34a"/><rect x="158.17765656565658" y="287.5668970117631" width="4.776" height="15.338978108843094" fill="#16a34a"/><rect x="166.21806060606062" y="287.42400191416203" width="4.776" height="18.281995016756696" fill="#ef4444"/><rect x="174.25846464646463" y="305.70609118889865" width="4.776" height="2.5785212994550193" fill="#ef4444"/><rect x="182.29886868686867" y="307.91446140109827" width="4.776" height="1" fill="#16a34a"/><rect x="190.33927272727271" y="307.91446140109827" width="4.776" height="8.214111662560583" fill="#ef4444"/><rect x="198.37967676767676" y="316.12847880567887" width="4.776" height="15.849008038341253" fill="#ef4444"/><rect x="206.4200808080808" y="331.9775811020001" width="4.776" height="15.952786074263884" fill="#ef4444"/><rect x="214.46048484848484" y="294.5308650862745" width="4.776" height="53.39950208998948" fill="#16a34a"/><rect x="222.50088888888888" y="293.9885046696543" width="4.776" height="1" fill="#16a34a"/><rect x="230.54129292929292" y="278.4964516013757" width="4.776" height="15.175629029593438" fill="#16a34a"/><rect x="238.58169696969696" y="278.4964516013757" width="4.776" height="3.8646714358442864" fill="#ef4444"/><rect x="246.622101010101" y="281.6242141499872" width="4.776" height="1" fill="#16a34a"/><rect x="254.66250505050508" y="278.3780635785612" width="4.776" height="3.2461505714260284" fill="#16a34a"/><rect x="262.70290909090915" y="267.0011253988485" width="4.776" height="11.376938179712681" fill="#16a34a"/><rect x="270.7433131313132" y="267.0011253988485" width="4.776" height="21.484598401446817" fill="#ef4444"/><rect x="278.7837171717172" y="288.4180465706927" width="4.776" height="22.852847238370657" fill="#ef4444"/><rect x="286.82412121212127" y="276.0684602958976" width="4.776" height="35.20243351316577" fill="#16a34a"/><rect x="294.8645252525253" y="252.2065813821845" width="4.776" height="23.86187891371307" fill="#16a34a"/><rect x="302.9049292929293" y="252.2065813821845" width="4.776" height="15.009640726905133" fill="#ef4444"/><rect x="310.94533333333334" y="266.8286332955438" width="4.776" height="1" fill="#16a34a"/><rect x="318.9857373737374" y="253.97778308338567" width="4.776" height="12.851227244077933" fill="#16a34a"/><rect x="327.0261414141414" y="252.32770288641757" width="4.776" height="1.661673928501699" fill="#16a34a"/><rect x="335.06654545454546" y="237.02256339237576" width="4.776" height="15.305233752021763" fill="#16a34a"/><rect x="343.1069494949495" y="214.40111949477722" width="4.776" height="22.62144389759854" fill="#16a34a"/><rect x="351.14735353535355" y="150.30578738817871" width="4.776" height="64.0953321065985" fill="#16a34a"/><rect x="359.1877575757576" y="116.13840075282087" width="4.776" height="34.16729237737789" fill="#16a34a"/><rect x="367.22816161616163" y="114.77627868459365" width="4.776" height="1.3621220682272224" fill="#16a34a"/><rect x="375.26856565656567" y="93.26321437320257" width="4.776" height="21.512970053411095" fill="#16a34a"/><rect x="383.3089696969697" y="72.86475067469553" width="4.776" height="20.398369440527063" fill="#16a34a"/><rect x="391.34937373737375" y="72.86465641671555" width="4.776" height="17.710697400292418" fill="#ef4444"/><rect x="399.3897777777778" y="88.34455020558079" width="4.776" height="2.230709353447253" fill="#16a34a"/><rect x="407.43018181818184" y="76.70934516081087" width="4.776" height="11.635205044769918" fill="#16a34a"/><rect x="415.4705858585859" y="76.7094394187908" width="4.776" height="13.57899310725577" fill="#ef4444"/><rect x="423.5109898989899" y="87.97505892418496" width="4.776" height="2.313279343881618" fill="#16a34a"/><rect x="431.55139393939396" y="87.97505892418496" width="4.776" height="11.963599846908494" fill="#ef4444"/><rect x="439.591797979798" y="99.93865877109346" width="4.776" height="9.158199589718834" fill="#ef4444"/><rect x="447.63220202020204" y="83.01756046882468" width="4.776" height="26.079297891987608" fill="#16a34a"/><rect x="455.6726060606061" y="83.05903398000174" width="4.776" height="19.17508937676314" fill="#ef4444"/><rect x="463.7130101010101" y="102.18133888799406" width="4.776" height="1" fill="#ef4444"/><rect x="471.75341414141417" y="103.08338775609559" width="4.776" height="2.3477777645425135" fill="#ef4444"/><rect x="479.7938181818182" y="100.21785090769919" width="4.776" height="5.213220354958935" fill="#16a34a"/><rect x="487.83422222222225" y="81.04323282083578" width="4.776" height="19.174618086863404" fill="#16a34a"/><rect x="495.8746262626263" y="80.72030498153424" width="4.776" height="6.830121742985398" fill="#ef4444"/><rect x="503.91503030303033" y="87.32901472962203" width="4.776" height="1.7388712140790403" fill="#ef4444"/><rect x="511.95543434343443" y="83.56623617010149" width="4.776" height="5.5015555156196" fill="#16a34a"/><rect x="519.9958383838383" y="83.56614191212151" width="4.776" height="10.86851063587369" fill="#ef4444"/><rect x="528.0362424242425" y="94.43474680597512" width="4.776" height="71.53068433882947" fill="#ef4444"/><rect x="536.0766464646464" y="165.9654311448046" width="4.776" height="11.499096521725164" fill="#ef4444"/><rect x="544.1170505050505" y="152.93134341962772" width="4.776" height="24.53318424690204" fill="#16a34a"/><rect x="552.1574545454545" y="146.53537393228237" width="4.776" height="6.395969487345354" fill="#16a34a"/><rect x="560.1978585858585" y="146.6697858116881" width="4.776" height="6.789496553627885" fill="#ef4444"/><rect x="568.2382626262626" y="145.77989622299987" width="4.776" height="7.679386142316105" fill="#16a34a"/><rect x="576.2786666666666" y="116.40976947709089" width="4.776" height="29.37144635762826" fill="#16a34a"/><rect x="584.3190707070706" y="116.40976947709089" width="4.776" height="2.923788280004203" fill="#ef4444"/><rect x="592.3594747474747" y="119.3335577570951" width="4.776" height="1.387760238773069" fill="#ef4444"/><rect x="600.3998787878787" y="83.382527367183" width="4.776" height="37.33879062868516" fill="#16a34a"/><rect x="608.4402828282828" y="83.38243310920302" width="4.776" height="1.4139639571986322" fill="#ef4444"/><rect x="616.4806868686868" y="69.24373611701662" width="4.776" height="15.552566691405048" fill="#16a34a"/><rect x="624.5210909090908" y="33.94629056006329" width="4.776" height="35.297445556953335" fill="#16a34a"/><rect x="632.5614949494949" y="33.60960105568938" width="4.776" height="57.305364263070885" fill="#ef4444"/><rect x="640.6018989898989" y="90.91496531876027" width="4.776" height="19.196674454171216" fill="#ef4444"/><rect x="648.642303030303" y="110.11163977293148" width="4.776" height="1" fill="#ef4444"/><rect x="656.682707070707" y="108.3607977953991" width="4.776" height="2.079142521690983" fill="#16a34a"/><rect x="664.723111111111" y="108.3607977953991" width="4.776" height="12.144763684368343" fill="#ef4444"/><rect x="672.7635151515151" y="120.50565573774736" width="4.776" height="48.89670412989787" fill="#ef4444"/><rect x="680.8039191919191" y="152.668457913553" width="4.776" height="16.733901954092232" fill="#16a34a"/><rect x="688.8443232323232" y="152.66855217153295" width="4.776" height="14.991448936775157" fill="#ef4444"/><rect x="696.8847272727272" y="125.51593866187852" width="4.776" height="42.14406244642959" fill="#16a34a"/><rect x="704.9251313131313" y="125.51584440389854" width="4.776" height="18.83029368611369" fill="#ef4444"/><rect x="712.9655353535353" y="144.34613809001223" width="4.776" height="21.48686059296554" fill="#ef4444"/><rect x="721.0059393939393" y="165.83299868297777" width="4.776" height="38.01641124653071" fill="#ef4444"/><rect x="729.0463434343434" y="188.19598719955917" width="4.776" height="15.653328471969388" fill="#16a34a"/><rect x="737.0867474747474" y="188.19598719955917" width="4.776" height="8.816985702307392" fill="#ef4444"/><rect x="745.1271515151515" y="181.8822106707284" width="4.776" height="15.130762231138164" fill="#16a34a"/><rect x="753.1675555555555" y="181.8822106707284" width="4.776" height="53.255664412588914" fill="#ef4444"/><rect x="761.2079595959596" y="231.95779935583474" width="4.776" height="3.17998146950265" fill="#16a34a"/><rect x="769.2483636363636" y="231.9578936138147" width="4.776" height="8.39433292022099" fill="#ef4444"/><rect x="777.2887676767676" y="226.06205696807297" width="4.776" height="14.290169565962714" fill="#16a34a"/><rect x="785.3291717171717" y="185.91909143593747" width="4.776" height="40.143059790115444" fill="#16a34a"/><rect x="793.3695757575757" y="184.24271326256388" width="4.776" height="1.1868964835040856" fill="#16a34a"/><rect x="801.4099797979798" y="184.24261900458393" width="4.776" height="7.574382752654117" fill="#ef4444"/><rect x="809.4503838383838" y="191.40198387152742" width="4.776" height="12.32687010162769" fill="#ef4444"/><rect x="817.4907878787878" y="203.7288539731551" width="4.776" height="5.225379634372274" fill="#ef4444"/><rect x="825.5311919191919" y="187.79539078478055" width="4.776" height="21.158842822746834" fill="#16a34a"/><rect x="833.5715959595959" y="185.18114571092528" width="4.776" height="3.1237094554737155" fill="#16a34a"/><rect x="841.612" y="171.53918827306433" width="4.776" height="13.641957437860952" fill="#16a34a"/>
  <!-- SMA -->
  
  <!-- Bollinger Bands -->
  
  <!-- Ichimoku Cloud -->
  
      <path d="M 72.12121212121212,312.14589063691983 L 80.16161616161617,299.7565746235766 L 80.16161616161617,304.7090302770097 L 72.12121212121212,304.7090302770097 ZM 80.16161616161617,299.7565746235766 L 88.20202020202021,294.8080306763114 L 88.20202020202021,304.7090302770097 L 80.16161616161617,304.7090302770097 ZM 88.20202020202021,294.8080306763114 L 96.24242424242425,294.8080306763114 L 96.24242424242425,304.7090302770097 L 88.20202020202021,304.7090302770097 ZM 96.24242424242425,294.8080306763114 L 104.28282828282829,294.8080306763114 L 104.28282828282829,304.7090302770097 L 96.24242424242425,304.7090302770097 ZM 104.28282828282829,294.8080306763114 L 112.32323232323232,294.8080306763114 L 112.32323232323232,304.7090302770097 L 104.28282828282829,304.7090302770097 ZM 112.32323232323232,294.8080306763114 L 120.36363636363636,295.98625542566026 L 120.36363636363636,304.7090302770097 L 112.32323232323232,304.7090302770097 ZM 120.36363636363636,295.98625542566026 L 128.40404040404042,292.97000006732713 L 128.40404040404042,304.7090302770097 L 120.36363636363636,304.7090302770097 ZM 128.40404040404042,292.97000006732713 L 136.44444444444446,278.07723923555744 L 136.44444444444446,296.01637085025357 L 128.40404040404042,304.7090302770097 ZM 136.44444444444446,278.07723923555744 L 144.4848484848485,246.50086308199772 L 144.4848484848485,264.4399946966939 L 136.44444444444446,296.01637085025357 ZM 144.4848484848485,246.50086308199772 L 152.52525252525254,215.53082494894792 L 152.52525252525254,242.96906370233953 L 144.4848484848485,264.4399946966939 ZM 152.52525252525254,215.53082494894792 L 160.56565656565658,215.53082494894792 L 160.56565656565658,242.96906370233953 L 152.52525252525254,242.96906370233953 ZM 160.56565656565658,215.53082494894792 L 168.60606060606062,209.3998617722261 L 168.60606060606062,238.51905021101877 L 160.56565656565658,242.96906370233953 ZM 168.60606060606062,209.3998617722261 L 176.64646464646464,183.478870157561 L 176.64646464646464,212.59805859635367 L 168.60606060606062,238.51905021101877 ZM 176.64646464646464,183.478870157561 L 184.68686868686868,181.08502380531894 L 184.68686868686868,212.59805859635367 L 176.64646464646464,212.59805859635367 ZM 184.68686868686868,181.08502380531894 L 192.72727272727272,180.7060124679484 L 192.72727272727272,212.59805859635367 L 184.68686868686868,212.59805859635367 ZM 192.72727272727272,180.7060124679484 L 200.76767676767676,176.6782275978043 L 200.76767676767676,212.59805859635367 L 192.72727272727272,212.59805859635367 ZM 200.76767676767676,176.6782275978043 L 208.8080808080808,165.2736247009769 L 208.8080808080808,212.59805859635367 L 200.76767676767676,212.59805859635367 ZM 208.8080808080808,165.2736247009769 L 216.84848484848484,137.0844797503303 L 216.84848484848484,212.59805859635367 L 208.8080808080808,212.59805859635367 ZM 216.84848484848484,137.0844797503303 L 224.88888888888889,129.07865465895964 L 224.88888888888889,212.59805859635367 L 216.84848484848484,212.59805859635367 ZM 224.88888888888889,129.07865465895964 L 232.92929292929293,129.07865465895964 L 232.92929292929293,212.59805859635367 L 224.88888888888889,212.59805859635367 ZM 232.92929292929293,129.07865465895964 L 240.96969696969697,129.07865465895964 L 240.96969696969697,212.59805859635367 L 232.92929292929293,212.59805859635367 ZM 240.96969696969697,129.07865465895964 L 249.010101010101,132.14203900726667 L 249.010101010101,212.59805859635367 L 240.96969696969697,212.59805859635367 ZM 249.010101010101,132.14203900726667 L 257.0505050505051,131.34720859135592 L 257.0505050505051,212.59805859635367 L 249.010101010101,212.59805859635367 ZM 257.0505050505051,131.34720859135592 L 265.0909090909091,136.7342877903288 L 265.0909090909091,212.59805859635367 L 257.0505050505051,212.59805859635367 ZM 265.0909090909091,136.7342877903288 L 273.13131313131316,136.7342877903288 L 273.13131313131316,212.59805859635367 L 265.0909090909091,212.59805859635367 ZM 273.13131313131316,136.7342877903288 L 281.1717171717172,142.79156479122634 L 281.1717171717172,212.59805859635367 L 273.13131313131316,212.59805859635367 ZM 281.1717171717172,142.79156479122634 L 289.21212121212125,133.2924576525309 L 289.21212121212125,212.59805859635367 L 281.1717171717172,212.59805859635367 ZM 289.21212121212125,133.2924576525309 L 297.2525252525253,132.3451649540544 L 297.2525252525253,212.59805859635367 L 289.21212121212125,212.59805859635367 ZM 297.2525252525253,132.3451649540544 L 305.2929292929293,130.66421526865338 L 305.2929292929293,212.59805859635367 L 297.2525252525253,212.59805859635367 ZM 305.2929292929293,130.66421526865338 L 313.3333333333333,127.46587705755587 L 313.3333333333333,212.59805859635367 L 305.2929292929293,212.59805859635367 ZM 313.3333333333333,127.46587705755587 L 321.37373737373736,132.52760127424358 L 321.37373737373736,212.59805859635367 L 313.3333333333333,212.59805859635367 ZM 321.37373737373736,132.52760127424358 L 329.4141414141414,134.74068438544057 L 329.4141414141414,212.59805859635367 L 321.37373737373736,212.59805859635367 ZM 329.4141414141414,134.74068438544057 L 337.45454545454544,130.80715749524438 L 337.45454545454544,212.59805859635367 L 329.4141414141414,212.59805859635367 ZM 337.45454545454544,130.80715749524438 L 345.4949494949495,124.95237019976997 L 345.4949494949495,212.59805859635367 L 337.45454545454544,212.59805859635367 ZM 345.4949494949495,124.95237019976997 L 353.5353535353535,115.8808879516032 L 353.5353535353535,212.59805859635367 L 345.4949494949495,212.59805859635367 ZM 353.5353535353535,115.8808879516032 L 361.57575757575756,115.8808879516032 L 361.57575757575756,212.59805859635367 L 353.5353535353535,212.59805859635367 ZM 361.57575757575756,115.8808879516032 L 369.6161616161616,115.8808879516032 L 369.6161616161616,212.59805859635367 L 361.57575757575756,212.59805859635367 ZM 369.6161616161616,115.8808879516032 L 377.65656565656565,115.8808879516032 L 377.65656565656565,212.59805859635367 L 369.6161616161616,212.59805859635367 ZM 377.65656565656565,115.8808879516032 L 385.6969696969697,127.44292523943858 L 385.6969696969697,212.59805859635367 L 377.65656565656565,212.59805859635367 ZM 385.6969696969697,127.44292523943858 L 393.73737373737373,125.44234674403418 L 393.73737373737373,212.59805859635367 L 385.6969696969697,212.59805859635367 ZM 393.73737373737373,125.44234674403418 L 401.77777777777777,116.09009353809756 L 401.77777777777777,212.59805859635367 L 393.73737373737373,212.59805859635367 ZM 401.77777777777777,116.09009353809756 L 409.8181818181818,114.58196585893103 L 409.8181818181818,212.59805859635367 L 401.77777777777777,212.59805859635367 ZM 409.8181818181818,114.58196585893103 L 417.85858585858585,105.58028164491571 L 417.85858585858585,197.6809792057574 L 409.8181818181818,212.59805859635367 ZM 417.85858585858585,105.58028164491571 L 425.8989898989899,99.34513983585646 L 425.8989898989899,170.12173677060767 L 417.85858585858585,197.6809792057574 ZM 425.8989898989899,99.34513983585646 L 433.93939393939394,96.18794523300625 L 433.93939393939394,170.12173677060767 L 425.8989898989899,170.12173677060767 ZM 433.93939393939394,96.18794523300625 L 441.979797979798,90.01529646465247 L 441.979797979798,170.12173677060767 L 433.93939393939394,170.12173677060767 ZM 441.979797979798,90.01529646465247 L 450.020202020202,89.02179379150652 L 450.020202020202,170.12173677060767 L 441.979797979798,170.12173677060767 ZM 450.020202020202,89.02179379150652 L 458.06060606060606,94.71650747253443 L 458.06060606060606,170.12173677060767 L 450.020202020202,170.12173677060767 ZM 458.06060606060606,94.71650747253443 L 466.1010101010101,101.17372108235094 L 466.1010101010101,170.12173677060767 L 458.06060606060606,170.12173677060767 ZM 466.1010101010101,101.17372108235094 L 474.14141414141415,103.39540523421812 L 474.14141414141415,170.12173677060767 L 466.1010101010101,170.12173677060767 ZM 474.14141414141415,103.39540523421812 L 482.1818181818182,103.39540523421812 L 482.1818181818182,170.12173677060767 L 474.14141414141415,170.12173677060767 ZM 482.1818181818182,103.39540523421812 L 490.22222222222223,103.39540523421812 L 490.22222222222223,170.12173677060767 L 482.1818181818182,170.12173677060767 ZM 490.22222222222223,103.39540523421812 L 498.26262626262627,118.41541433891751 L 498.26262626262627,151.1235224932168 L 490.22222222222223,170.12173677060767 ZM 498.26262626262627,118.41541433891751 L 506.3030303030303,128.40471010233205 L 506.3030303030303,151.1235224932168 L 498.26262626262627,151.1235224932168 ZM 506.3030303030303,128.40471010233205 L 514.3434343434344,138.657480484196 L 514.3434343434344,147.7616231224147 L 506.3030303030303,151.1235224932168 Z" fill="rgba(16, 163, 74, 0.1)" stroke="none" />
      <path d="M 48,317.7378866842995 L 56.04040404040404,317.7378866842995 L 56.04040404040404,304.7090302770097 L 48,323.9498174657965 ZM 56.04040404040404,317.7378866842995 L 64.08080808080808,317.6957062382728 L 64.08080808080808,304.7090302770097 L 56.04040404040404,304.7090302770097 ZM 64.08080808080808,317.6957062382728 L 72.12121212121212,312.14589063691983 L 72.12121212121212,304.7090302770097 L 64.08080808080808,304.7090302770097 ZM 514.3434343434344,138.657480484196 L 522.3838383838383,148.18488858137079 L 522.3838383838383,147.7616231224147 L 514.3434343434344,147.7616231224147 ZM 522.3838383838383,148.18488858137079 L 530.4242424242425,148.18488858137079 L 530.4242424242425,142.97393041793057 L 522.3838383838383,147.7616231224147 ZM 530.4242424242425,148.18488858137079 L 538.4646464646464,151.62532841396447 L 538.4646464646464,142.21590774318946 L 530.4242424242425,142.97393041793057 ZM 538.4646464646464,151.62532841396447 L 546.5050505050506,159.7904730559421 L 546.5050505050506,136.32021248441765 L 538.4646464646464,142.21590774318946 ZM 546.5050505050506,159.7904730559421 L 554.5454545454545,160.32218232082826 L 554.5454545454545,136.8519217493038 L 546.5050505050506,136.32021248441765 ZM 554.5454545454545,160.32218232082826 L 562.5858585858585,162.0659313853696 L 562.5858585858585,136.8519217493038 L 554.5454545454545,136.8519217493038 ZM 562.5858585858585,162.0659313853696 L 570.6262626262626,167.95293134549124 L 570.6262626262626,138.63368034425915 L 562.5858585858585,136.8519217493038 ZM 570.6262626262626,167.95293134549124 L 578.6666666666666,173.2996916935414 L 578.6666666666666,138.63368034425915 L 570.6262626262626,138.63368034425915 ZM 578.6666666666666,173.2996916935414 L 586.7070707070707,174.14657607887838 L 586.7070707070707,138.63368034425915 L 578.6666666666666,138.63368034425915 ZM 586.7070707070707,174.14657607887838 L 594.7474747474747,173.7153222561217 L 594.7474747474747,138.63368034425915 L 586.7070707070707,138.63368034425915 ZM 594.7474747474747,173.7153222561217 L 602.7878787878788,173.03784302524613 L 602.7878787878788,138.63368034425915 L 594.7474747474747,138.63368034425915 ZM 602.7878787878788,173.03784302524613 L 610.8282828282828,173.03784302524613 L 610.8282828282828,138.63368034425915 L 602.7878787878788,138.63368034425915 ZM 610.8282828282828,173.03784302524613 L 618.8686868686868,173.03784302524613 L 618.8686868686868,138.63368034425915 L 610.8282828282828,138.63368034425915 ZM 618.8686868686868,173.03784302524613 L 626.9090909090909,173.03784302524613 L 626.9090909090909,138.63368034425915 L 618.8686868686868,138.63368034425915 ZM 626.9090909090909,173.03784302524613 L 634.9494949494949,188.0578521299455 L 634.9494949494949,138.63368034425915 L 626.9090909090909,138.63368034425915 Z" fill="rgba(239, 68, 68, 0.1)" stroke="none" />
      <path d="M 48,291.57757405854665 L 56.04040404040404,291.57757405854665 L 64.08080808080808,291.57757405854665 L 72.12121212121212,314.9668905897908 L 80.16161616161617,314.9668905897908 L 88.20202020202021,336.37462160859013 L 96.24242424242425,335.6319158555906 L 104.28282828282829,310.55924606045664 L 112.32323232323232,308.7684386994263 L 120.36363636363636,307.2602167622798 L 128.40404040404042,307.2602167622798 L 136.44444444444446,307.2602167622798 L 144.4848484848485,302.0614178782529 L 152.52525252525254,293.3474561480285 L 160.56565656565658,293.3474561480285 L 168.60606060606062,293.3474561480285 L 176.64646464646464,293.3474561480285 L 184.68686868686868,293.3474561480285 L 192.72727272727272,306.11941243097027 L 200.76767676767676,306.11941243097027 L 208.8080808080808,324.3408938246004 L 216.84848484848484,324.3408938246004 L 224.88888888888889,324.3408938246004 L 232.92929292929293,323.90683582694027 L 240.96969696969697,323.90683582694027 L 249.010101010101,323.90683582694027 L 257.0505050505051,323.90683582694027 L 265.0909090909091,323.90683582694027 L 273.13131313131316,323.8224749348869 L 281.1717171717172,312.722843732181 L 289.21212121212125,287.9442117054946 L 297.2525252525253,278.0471238109641 L 305.2929292929293,278.0471238109641 L 313.3333333333333,278.0471238109641 L 321.37373737373736,278.0471238109641 L 329.4141414141414,278.0471238109641 L 337.45454545454544,275.03086845263095 L 345.4949494949495,260.13810762086126 L 353.5353535353535,228.56173146730154 L 361.57575757575756,188.0925861955563 L 369.6161616161616,188.0925861955563 L 377.65656565656565,180.28067333343347 L 385.6969696969697,154.35968171876837 L 393.73737373737373,149.5719890142842 L 401.77777777777777,148.81396633954313 L 409.8181818181818,140.75839659925495 L 417.85858585858585,129.0488220083061 L 425.8989898989899,97.44916413369924 L 433.93939393939394,81.43751395095791 L 441.979797979798,81.43751395095791 L 450.020202020202,81.43751395095791 L 458.06060606060606,87.56428264757199 L 466.1010101010101,85.97462181575048 L 474.14141414141415,96.7487802136963 L 482.1818181818182,96.7487802136963 L 490.22222222222223,108.86333421549136 L 498.26262626262627,108.86333421549136 L 506.3030303030303,106.96874881853836 L 514.3434343434344,106.96874881853836 L 522.3838383838383,100.5720723963434 L 530.4242424242425,115.48321353420295 L 538.4646464646464,120.66740243133796 L 546.5050505050506,120.85591839123379 L 554.5454545454545,120.85591839123379 L 562.5858585858585,120.85591839123379 L 570.6262626262626,120.85591839123379 L 578.6666666666666,120.85591839123379 L 586.7070707070707,120.85591839123379 L 594.7474747474747,137.85322427029047 L 602.7878787878788,133.85206727948164 L 610.8282828282828,116.09009353809756 L 618.8686868686868,113.0738381797645 L 626.9090909090909,104.07215396574912 L 634.9494949494949,94.38248075609403 L 642.989898989899,88.0680915503936 L 651.030303030303,75.72279401368604 L 659.070707070707,73.73578866739416 L 667.1111111111111,85.12521602944992 L 675.1515151515151,98.03964324908293 L 683.1919191919192,102.48301155281735 L 691.2323232323232,102.48301155281735 L 699.2727272727273,102.48301155281735 L 707.3131313131313,132.5230297622161 L 715.3535353535353,146.09207865258736 L 723.3939393939394,156.3448490344513 L 731.4343434343434,168.21470932030155 L 739.4747474747475,168.21470932030155 L 747.5151515151515,175.09558898548894 L 755.5555555555555,183.26073362746658 L 763.5959595959596,183.79244289235274 L 771.6363636363636,187.2799410214354 L 779.6767676767677,197.27218234672333 L 787.7171717171717,207.9657030428237 L 795.7575757575758,209.65947181349765 L 803.7979797979798,208.7969641679843 L 811.8383838383838,207.4420057062331 L 819.8787878787879,207.4420057062331 L 827.9191919191919,207.4420057062331 L 835.959595959596,207.4420057062331 L 844,207.4420057062331" fill="none" stroke="#f97316" stroke-width="1"/>
      <path d="M 48,323.9498174657965 L 56.04040404040404,283.25365184934674 L 64.08080808080808,283.17372108235094 L 72.12121212121212,300.4003094976309 L 80.16161616161617,300.4003094976309 L 88.20202020202021,300.4003094976309 L 96.24242424242425,300.4003094976309 L 104.28282828282829,300.4003094976309 L 112.32323232323232,300.4003094976309 L 120.36363636363636,300.4003094976309 L 128.40404040404042,300.4003094976309 L 136.44444444444446,300.4003094976309 L 144.4848484848485,300.4003094976309 L 152.52525252525254,300.4003094976309 L 160.56565656565658,300.4003094976309 L 168.60606060606062,303.00107568035355 L 176.64646464646464,307.2602167622798 L 184.68686868686868,307.2602167622798 L 192.72727272727272,307.2602167622798 L 200.76767676767676,307.2602167622798 L 208.8080808080808,311.56893754165867 L 216.84848484848484,311.56893754165867 L 224.88888888888889,311.56893754165867 L 232.92929292929293,311.56893754165867 L 240.96969696969697,311.56893754165867 L 249.010101010101,311.56893754165867 L 257.0505050505051,311.56893754165867 L 265.0909090909091,311.56893754165867 L 273.13131313131316,311.56893754165867 L 281.1717171717172,311.56893754165867 L 289.21212121212125,311.56893754165867 L 297.2525252525253,311.56893754165867 L 305.2929292929293,311.56893754165867 L 313.3333333333333,311.56893754165867 L 321.37373737373736,311.56893754165867 L 329.4141414141414,313.9253870403564 L 337.45454545454544,310.9091316820233 L 345.4949494949495,296.01637085025357 L 353.5353535353535,264.4399946966939 L 361.57575757575756,242.96906370233953 L 369.6161616161616,242.96906370233953 L 377.65656565656565,238.51905021101877 L 385.6969696969697,212.59805859635367 L 393.73737373737373,212.59805859635367 L 401.77777777777777,212.59805859635367 L 409.8181818181818,212.59805859635367 L 417.85858585858585,201.49842739364775 L 425.8989898989899,176.71979536696134 L 433.93939393939394,176.71979536696134 L 441.979797979798,176.71979536696134 L 450.020202020202,176.71979536696134 L 458.06060606060606,176.71979536696134 L 466.1010101010101,176.71979536696134 L 474.14141414141415,176.71979536696134 L 482.1818181818182,176.71979536696134 L 490.22222222222223,176.71979536696134 L 498.26262626262627,157.72158108957046 L 506.3030303030303,157.72158108957046 L 514.3434343434344,154.35968171876837 L 522.3838383838383,154.35968171876837 L 530.4242424242425,149.5719890142842 L 538.4646464646464,148.81396633954313 L 546.5050505050506,140.75839659925495 L 554.5454545454545,129.0488220083061 L 562.5858585858585,110.90585751197256 L 570.6262626262626,110.90585751197256 L 578.6666666666666,110.90585751197256 L 586.7070707070707,110.90585751197256 L 594.7474747474747,117.03262620858669 L 602.7878787878788,117.03262620858669 L 610.8282828282828,116.09009353809756 L 618.8686868686868,116.09009353809756 L 626.9090909090909,107.08840932408225 L 634.9494949494949,104.30779891561889 L 642.989898989899,104.30779891561889 L 651.030303030303,104.30779891561889 L 659.070707070707,104.30779891561889 L 667.1111111111111,104.30779891561889 L 675.1515151515151,104.30779891561889 L 683.1919191919192,104.30779891561889 L 691.2323232323232,104.30779891561889 L 699.2727272727273,104.30779891561889 L 707.3131313131313,104.30779891561889 L 715.3535353535353,110.71734155207673 L 723.3939393939394,120.9701119339407 L 731.4343434343434,128.15506784244002 L 739.4747474747475,128.15506784244002 L 747.5151515151515,128.15506784244002 L 755.5555555555555,136.32021248441765 L 763.5959595959596,136.8519217493038 L 771.6363636363636,136.8519217493038 L 779.6767676767677,138.63368034425915 L 787.7171717171717,138.63368034425915 L 795.7575757575758,138.63368034425915 L 803.7979797979798,138.63368034425915 L 811.8383838383838,138.63368034425915 L 819.8787878787879,138.63368034425915 L 827.9191919191919,138.63368034425915 L 835.959595959596,138.63368034425915 L 844,168.6736985536579" fill="none" stroke="#3b82f6" stroke-width="1"/>
      <path d="M 48,424.60781999418913 L 56.04040404040404,323.4142436237325 L 64.08080808080808,333.77046213858927 L 72.12121212121212,307.7166139011876 L 80.16161616161617,311.09915576959827 L 88.20202020202021,303.6855771307353 L 96.24242424242425,293.56387246998895 L 104.28282828282829,310.1200038738994 L 112.32323232323232,315.2390605068904 L 120.36363636363636,317.78346041760426 L 128.40404040404042,322.60353073820056 L 136.44444444444446,283.4629988228111 L 144.4848484848485,300.06625921669547 L 152.52525252525254,289.17267595815565 L 160.56565656565658,257.94736365091194 L 168.60606060606062,227.88821107158375 L 176.64646464646464,299.23320718991584 L 184.68686868686868,290.01600210474965 L 192.72727272727272,272.65160852278586 L 200.76767676767676,269.0175863638741 L 208.8080808080808,261.3826899880935 L 216.84848484848484,260.17609358678027 L 224.88888888888889,308.6440181658951 L 232.92929292929293,328.4559144551863 L 240.96969696969697,318.0030815108829 L 249.010101010101,307.6745748421308 L 257.0505050505051,319.01277299208493 L 265.0909090909091,311.89997156723575 L 273.13131313131316,329.9301092615716 L 281.1717171717172,363.8837187984076 L 289.21212121212125,319.296678027688 L 297.2525252525253,302.5323307460726 L 305.2929292929293,303.75768448539543 L 313.3333333333333,245.15646151400068 L 321.37373737373736,239.73596786113623 L 329.4141414141414,263.3128106434868 L 337.45454545454544,311.48683884112404 L 345.4949494949495,299.4218174077916 L 353.5353535353535,308.01220692630426 L 361.57575757575756,302.9058751206062 L 369.6161616161616,287.5668970117631 L 377.65656565656565,305.70599693091873 L 385.6969696969697,308.2846124883537 L 393.73737373737373,307.91446140109827 L 401.77777777777777,316.12857306365885 L 409.8181818181818,331.9774868440201 L 417.85858585858585,347.930367176264 L 425.8989898989899,294.5308650862745 L 433.93939393939394,293.9885046696543 L 441.979797979798,278.4964516013757 L 450.020202020202,282.36112303722 L 458.06060606060606,281.6242141499872 L 466.1010101010101,278.3780635785612 L 474.14141414141415,267.0011253988485 L 482.1818181818182,288.4857238002953 L 490.22222222222223,311.27089380906335 L 498.26262626262627,276.0684602958976 L 506.3030303030303,252.2065813821845 L 514.3434343434344,267.21622210908964 L 522.3838383838383,266.8286332955438 L 530.4242424242425,253.97778308338567 L 538.4646464646464,252.32770288641757 L 546.5050505050506,237.02256339237576 L 554.5454545454545,214.40111949477722 L 562.5858585858585,150.30578738817871 L 570.6262626262626,116.13840075282087 L 578.6666666666666,114.77627868459365 L 586.7070707070707,93.26321437320257 L 594.7474747474747,72.86475067469553 L 602.7878787878788,90.57535381700797 L 610.8282828282828,88.34455020558079 L 618.8686868686868,76.70934516081087 L 626.9090909090909,90.28843252604656 L 634.9494949494949,87.97505892418496 L 642.989898989899,99.93865877109346 L 651.030303030303,109.09685836081229 L 659.070707070707,83.01756046882468 L 667.1111111111111,102.23412335676488 L 675.1515151515151,103.08338775609559 L 683.1919191919192,105.4311655206381 L 691.2323232323232,100.21785090769919 L 699.2727272727273,81.04323282083578 L 707.3131313131313,87.55042672451964 L 715.3535353535353,89.06788594370107 L 723.3939393939394,83.56623617010149 L 731.4343434343434,94.4346525479952 L 739.4747474747475,165.9654311448046 L 747.5151515151515,177.46452766652976 L 755.5555555555555,152.93134341962772 L 763.5959595959596,146.53537393228237 L 771.6363636363636,153.45928236531597 L 779.6767676767677,145.77989622299987 L 787.7171717171717,116.40976947709089 L 795.7575757575758,119.3335577570951 L 803.7979797979798,120.72131799586816 L 811.8383838383838,83.382527367183 L 819.8787878787879,84.79639706640165 L 827.9191919191919,69.24373611701662 L 835.959595959596,33.94629056006329 L 844,90.91496531876027" fill="none" stroke="#16a34a" stroke-width="1" stroke-dasharray="2 2"/>
      <path d="M 48,317.7378866842995 L 56.04040404040404,317.7378866842995 L 64.08080808080808,317.6957062382728 L 72.12121212121212,312.14589063691983 L 80.16161616161617,299.7565746235766 L 88.20202020202021,294.8080306763114 L 96.24242424242425,294.8080306763114 L 104.28282828282829,294.8080306763114 L 112.32323232323232,294.8080306763114 L 120.36363636363636,295.98625542566026 L 128.40404040404042,292.97000006732713 L 136.44444444444446,278.07723923555744 L 144.4848484848485,246.50086308199772 L 152.52525252525254,215.53082494894792 L 160.56565656565658,215.53082494894792 L 168.60606060606062,209.3998617722261 L 176.64646464646464,183.478870157561 L 184.68686868686868,181.08502380531894 L 192.72727272727272,180.7060124679484 L 200.76767676767676,176.6782275978043 L 208.8080808080808,165.2736247009769 L 216.84848484848484,137.0844797503303 L 224.88888888888889,129.07865465895964 L 232.92929292929293,129.07865465895964 L 240.96969696969697,129.07865465895964 L 249.010101010101,132.14203900726667 L 257.0505050505051,131.34720859135592 L 265.0909090909091,136.7342877903288 L 273.13131313131316,136.7342877903288 L 281.1717171717172,142.79156479122634 L 289.21212121212125,133.2924576525309 L 297.2525252525253,132.3451649540544 L 305.2929292929293,130.66421526865338 L 313.3333333333333,127.46587705755587 L 321.37373737373736,132.52760127424358 L 329.4141414141414,134.74068438544057 L 337.45454545454544,130.80715749524438 L 345.4949494949495,124.95237019976997 L 353.5353535353535,115.8808879516032 L 361.57575757575756,115.8808879516032 L 369.6161616161616,115.8808879516032 L 377.65656565656565,115.8808879516032 L 385.6969696969697,127.44292523943858 L 393.73737373737373,125.44234674403418 L 401.77777777777777,116.09009353809756 L 409.8181818181818,114.58196585893103 L 417.85858585858585,105.58028164491571 L 425.8989898989899,99.34513983585646 L 433.93939393939394,96.18794523300625 L 441.979797979798,90.01529646465247 L 450.020202020202,89.02179379150652 L 458.06060606060606,94.71650747253443 L 466.1010101010101,101.17372108235094 L 474.14141414141415,103.39540523421812 L 482.1818181818182,103.39540523421812 L 490.22222222222223,103.39540523421812 L 498.26262626262627,118.41541433891751 L 506.3030303030303,128.40471010233205 L 514.3434343434344,138.657480484196 L 522.3838383838383,148.18488858137079 L 530.4242424242425,148.18488858137079 L 538.4646464646464,151.62532841396447 L 546.5050505050506,159.7904730559421 L 554.5454545454545,160.32218232082826 L 562.5858585858585,162.0659313853696 L 570.6262626262626,167.95293134549124 L 578.6666666666666,173.2996916935414 L 586.7070707070707,174.14657607887838 L 594.7474747474747,173.7153222561217 L 602.7878787878788,173.03784302524613 L 610.8282828282828,173.03784302524613 L 618.8686868686868,173.03784302524613 L 626.9090909090909,173.03784302524613 L 634.9494949494949,188.0578521299455" fill="none" stroke="rgba(239, 68, 68, 0.5)" stroke-width="1"/>
      <path d="M 48,323.9498174657965 L 56.04040404040404,304.7090302770097 L 64.08080808080808,304.7090302770097 L 72.12121212121212,304.7090302770097 L 80.16161616161617,304.7090302770097 L 88.20202020202021,304.7090302770097 L 96.24242424242425,304.7090302770097 L 104.28282828282829,304.7090302770097 L 112.32323232323232,304.7090302770097 L 120.36363636363636,304.7090302770097 L 128.40404040404042,304.7090302770097 L 136.44444444444446,296.01637085025357 L 144.4848484848485,264.4399946966939 L 152.52525252525254,242.96906370233953 L 160.56565656565658,242.96906370233953 L 168.60606060606062,238.51905021101877 L 176.64646464646464,212.59805859635367 L 184.68686868686868,212.59805859635367 L 192.72727272727272,212.59805859635367 L 200.76767676767676,212.59805859635367 L 208.8080808080808,212.59805859635367 L 216.84848484848484,212.59805859635367 L 224.88888888888889,212.59805859635367 L 232.92929292929293,212.59805859635367 L 240.96969696969697,212.59805859635367 L 249.010101010101,212.59805859635367 L 257.0505050505051,212.59805859635367 L 265.0909090909091,212.59805859635367 L 273.13131313131316,212.59805859635367 L 281.1717171717172,212.59805859635367 L 289.21212121212125,212.59805859635367 L 297.2525252525253,212.59805859635367 L 305.2929292929293,212.59805859635367 L 313.3333333333333,212.59805859635367 L 321.37373737373736,212.59805859635367 L 329.4141414141414,212.59805859635367 L 337.45454545454544,212.59805859635367 L 345.4949494949495,212.59805859635367 L 353.5353535353535,212.59805859635367 L 361.57575757575756,212.59805859635367 L 369.6161616161616,212.59805859635367 L 377.65656565656565,212.59805859635367 L 385.6969696969697,212.59805859635367 L 393.73737373737373,212.59805859635367 L 401.77777777777777,212.59805859635367 L 409.8181818181818,212.59805859635367 L 417.85858585858585,197.6809792057574 L 425.8989898989899,170.12173677060767 L 433.93939393939394,170.12173677060767 L 441.979797979798,170.12173677060767 L 450.020202020202,170.12173677060767 L 458.06060606060606,170.12173677060767 L 466.1010101010101,170.12173677060767 L 474.14141414141415,170.12173677060767 L 482.1818181818182,170.12173677060767 L 490.22222222222223,170.12173677060767 L 498.26262626262627,151.1235224932168 L 506.3030303030303,151.1235224932168 L 514.3434343434344,147.7616231224147 L 522.3838383838383,147.7616231224147 L 530.4242424242425,142.97393041793057 L 538.4646464646464,142.21590774318946 L 546.5050505050506,136.32021248441765 L 554.5454545454545,136.8519217493038 L 562.5858585858585,136.8519217493038 L 570.6262626262626,138.63368034425915 L 578.6666666666666,138.63368034425915 L 586.7070707070707,138.63368034425915 L 594.7474747474747,138.63368034425915 L 602.7878787878788,138.63368034425915 L 610.8282828282828,138.63368034425915 L 618.8686868686868,138.63368034425915 L 626.9090909090909,138.63368034425915 L 634.9494949494949,138.63368034425915" fill="none" stroke="rgba(16, 163, 74, 0.5)" stroke-width="1"/>
    
  <!-- 目盛り（軽量） -->
  <text x="430" y="24" text-anchor="middle" font-family="sans-serif" font-size="18" fill="#111">
    BTC/JPY 1day (100 bars)
  </text>
</svg>
