<svg xmlns="http://www.w3.org/2000/svg" width="860" height="460" viewBox="0 0 860 460">
  <rect x="0" y="0" width="860" height="460" fill="#ffffff"/>
  <g class="grid">
    <line x1="48" y1="388" x2="844" y2="388" stroke="#e5e7eb"/>
    <line x1="48" y1="24" x2="48" y2="388" stroke="#e5e7eb"/>
  </g>
  <!-- ローソク -->
  <line x1="48" y1="293.3666847759379" x2="48" y2="327.43707994992934" stroke="#9ca3af" stroke-width="1"/><line x1="54.368" y1="299.23330144789577" x2="54.368" y2="333.1661742291432" stroke="#9ca3af" stroke-width="1"/><line x1="60.736000000000004" y1="310.5442590416449" x2="60.736000000000004" y2="379.38255844124234" stroke="#9ca3af" stroke-width="1"/><line x1="67.104" y1="302.69219228006426" x2="67.104" y2="368.9849606731884" stroke="#9ca3af" stroke-width="1"/><line x1="73.47200000000001" y1="298.76201154815624" x2="73.47200000000001" y2="324.3059241140397" stroke="#9ca3af" stroke-width="1"/><line x1="79.84" y1="291.8812732699388" x2="79.84" y2="311.12055233104644" stroke="#9ca3af" stroke-width="1"/><line x1="86.208" y1="241.73593367967098" x2="86.208" y2="307.9794994072623" stroke="#9ca3af" stroke-width="1"/><line x1="92.576" y1="238.15431895761031" x2="92.576" y2="263.25267405228004" stroke="#9ca3af" stroke-width="1"/><line x1="98.944" y1="235.1378750833173" x2="98.944" y2="269.51300630648035" stroke="#9ca3af" stroke-width="1"/><line x1="105.312" y1="261.032427334607" x2="105.312" y2="311.7718749724865" stroke="#9ca3af" stroke-width="1"/><line x1="111.68" y1="296.9207761678538" x2="111.68" y2="351.5570372127397" stroke="#9ca3af" stroke-width="1"/><line x1="118.048" y1="297.1315370110173" x2="118.048" y2="324.0727298716486" stroke="#9ca3af" stroke-width="1"/><line x1="124.416" y1="299.67961298294915" x2="124.416" y2="321.29070559348605" stroke="#9ca3af" stroke-width="1"/><line x1="130.784" y1="260.6817876492008" x2="130.784" y2="312.36174141100054" stroke="#9ca3af" stroke-width="1"/><line x1="137.152" y1="269.624042206859" x2="137.152" y2="324.15548837804283" stroke="#9ca3af" stroke-width="1"/><line x1="143.51999999999998" y1="296.7793891979319" x2="143.51999999999998" y2="327.5106954322687" stroke="#9ca3af" stroke-width="1"/><line x1="149.888" y1="301.11855530483393" x2="149.888" y2="319.9700570364359" stroke="#9ca3af" stroke-width="1"/><line x1="156.256" y1="280.9275534201922" x2="156.256" y2="331.56096083063034" stroke="#9ca3af" stroke-width="1"/><line x1="162.624" y1="306.568740221382" x2="162.624" y2="348.24745102080874" stroke="#9ca3af" stroke-width="1"/><line x1="168.99200000000002" y1="315.89076018025025" x2="168.99200000000002" y2="388" stroke="#9ca3af" stroke-width="1"/><line x1="175.36" y1="286.03718425518844" x2="175.36" y2="365.80073759458816" stroke="#9ca3af" stroke-width="1"/><line x1="181.728" y1="292.7084813019617" x2="181.728" y2="310.0934231235541" stroke="#9ca3af" stroke-width="1"/><line x1="188.096" y1="259.81367165388053" x2="188.096" y2="295.46194541219995" stroke="#9ca3af" stroke-width="1"/><line x1="194.464" y1="266.352441980847" x2="194.464" y2="287.9222495961667" stroke="#9ca3af" stroke-width="1"/><line x1="200.832" y1="273.25768733385087" x2="200.832" y2="287.722611194637" stroke="#9ca3af" stroke-width="1"/><line x1="207.2" y1="274.9193612623526" x2="207.2" y2="282.744753015608" stroke="#9ca3af" stroke-width="1"/><line x1="213.568" y1="263.4152690676902" x2="213.568" y2="280.128151492254" stroke="#9ca3af" stroke-width="1"/><line x1="219.936" y1="259.64494986977377" x2="219.936" y2="288.4857238002953" stroke="#9ca3af" stroke-width="1"/><line x1="226.304" y1="284.15202465623025" x2="226.304" y2="314.901334164737" stroke="#9ca3af" stroke-width="1"/><line x1="232.672" y1="260.45264649994743" x2="232.672" y2="316.24347354121534" stroke="#9ca3af" stroke-width="1"/><line x1="239.04" y1="239.8507740807128" x2="239.04" y2="276.0685545538775" stroke="#9ca3af" stroke-width="1"/><line x1="245.408" y1="250.12489389503494" x2="245.408" y2="278.2470449864336" stroke="#9ca3af" stroke-width="1"/><line x1="251.776" y1="263.14210944180115" x2="251.776" y2="270.4236326507571" stroke="#9ca3af" stroke-width="1"/><line x1="258.144" y1="248.80754436728296" x2="258.144" y2="271.5232462448294" stroke="#9ca3af" stroke-width="1"/><line x1="264.512" y1="245.50625287758737" x2="264.512" y2="261.9478608358611" stroke="#9ca3af" stroke-width="1"/><line x1="270.88" y1="233.8182633640466" x2="270.88" y2="260.4318154863789" stroke="#9ca3af" stroke-width="1"/><line x1="277.248" y1="204.0327417005072" x2="277.248" y2="244.32067600580257" stroke="#9ca3af" stroke-width="1"/><line x1="283.616" y1="140.87998939338775" x2="283.616" y2="220.90152682390487" stroke="#9ca3af" stroke-width="1"/><line x1="289.98400000000004" y1="97.93812740467905" x2="289.98400000000004" y2="157.70221107469115" stroke="#9ca3af" stroke-width="1"/><line x1="296.352" y1="106.0044425546813" x2="296.352" y2="119.7844879331659" stroke="#9ca3af" stroke-width="1"/><line x1="302.72" y1="89.03810042203753" x2="302.72" y2="115.93508629007323" stroke="#9ca3af" stroke-width="1"/><line x1="309.088" y1="37.196117192707334" x2="309.088" y2="96.63595341169867" stroke="#9ca3af" stroke-width="1"/><line x1="315.456" y1="72.86465641671555" x2="315.456" y2="125.67891070920842" stroke="#9ca3af" stroke-width="1"/><line x1="321.824" y1="67.46735022691831" x2="321.824" y2="98.80124772706205" stroke="#9ca3af" stroke-width="1"/><line x1="328.192" y1="56.813370753406105" x2="328.192" y2="97.9500981681324" stroke="#9ca3af" stroke-width="1"/><line x1="334.56" y1="49.44965458593555" x2="334.56" y2="106.94702235416037" stroke="#9ca3af" stroke-width="1"/><line x1="340.928" y1="78.37252721699173" x2="340.928" y2="93.75090516145303" stroke="#9ca3af" stroke-width="1"/><line x1="347.296" y1="75.09140693500495" x2="347.296" y2="109.77476175259767" stroke="#9ca3af" stroke-width="1"/><line x1="353.664" y1="73.67876258952566" x2="353.664" y2="119.93360405744352" stroke="#9ca3af" stroke-width="1"/><line x1="360.032" y1="81.02617212646521" x2="360.032" y2="122.49958904556547" stroke="#9ca3af" stroke-width="1"/><line x1="366.4" y1="83.05903398000174" x2="366.4" y2="120.1342792967526" stroke="#9ca3af" stroke-width="1"/><line x1="372.768" y1="89.19984711562813" x2="372.768" y2="121.08571934634682" stroke="#9ca3af" stroke-width="1"/><line x1="379.136" y1="100.34905801578668" x2="379.136" y2="144.04790584145704" stroke="#9ca3af" stroke-width="1"/><line x1="385.504" y1="97.24203222276373" x2="385.504" y2="112.03139205053054" stroke="#9ca3af" stroke-width="1"/><line x1="391.872" y1="77.20778135877538" x2="391.872" y2="101.79884000536543" stroke="#9ca3af" stroke-width="1"/><line x1="398.24" y1="74.87074900394691" x2="398.24" y2="94.50487474305635" stroke="#9ca3af" stroke-width="1"/><line x1="404.608" y1="69.88959179561971" x2="404.608" y2="100.34886949982678" stroke="#9ca3af" stroke-width="1"/><line x1="410.976" y1="74.98178490432554" x2="410.976" y2="110.77813794914317" stroke="#9ca3af" stroke-width="1"/><line x1="417.344" y1="57.09623895122979" x2="417.344" y2="98.46380415884852" stroke="#9ca3af" stroke-width="1"/><line x1="423.712" y1="91.0908507093431" x2="423.712" y2="173.87018811717613" stroke="#9ca3af" stroke-width="1"/><line x1="430.08" y1="153.48322389222272" x2="430.08" y2="184.2385659114462" stroke="#9ca3af" stroke-width="1"/><line x1="436.448" y1="145.60240844675798" x2="436.448" y2="184.6155978312378" stroke="#9ca3af" stroke-width="1"/><line x1="442.816" y1="136.1817003828842" x2="442.816" y2="156.90375172655243" stroke="#9ca3af" stroke-width="1"/><line x1="449.184" y1="139.24197421785297" x2="449.184" y2="178.5830871145716" stroke="#9ca3af" stroke-width="1"/><line x1="455.552" y1="136.54402805780396" x2="455.552" y2="164.76496151218802" stroke="#9ca3af" stroke-width="1"/><line x1="461.92" y1="111.1719477893655" x2="461.92" y2="152.13618310078715" stroke="#9ca3af" stroke-width="1"/><line x1="468.288" y1="108.83227621109853" x2="468.288" y2="127.44558802737208" stroke="#9ca3af" stroke-width="1"/><line x1="474.656" y1="103.79456421480256" x2="474.656" y2="123.47157733478826" stroke="#9ca3af" stroke-width="1"/><line x1="481.024" y1="83.08853672772545" x2="481.024" y2="122.02829914582588" stroke="#9ca3af" stroke-width="1"/><line x1="487.392" y1="47.56458924495735" x2="487.392" y2="93.65325389422702" stroke="#9ca3af" stroke-width="1"/><line x1="493.76" y1="67.35867077603837" x2="493.76" y2="86.54167782311714" stroke="#9ca3af" stroke-width="1"/><line x1="500.128" y1="29.561220816926664" x2="500.128" y2="81.49727351024484" stroke="#9ca3af" stroke-width="1"/><line x1="506.496" y1="24" x2="506.496" y2="106.0044425546813" stroke="#9ca3af" stroke-width="1"/><line x1="512.864" y1="84.08003641879753" x2="512.864" y2="121.32456906753481" stroke="#9ca3af" stroke-width="1"/><line x1="519.232" y1="101.92165815323756" x2="519.232" y2="118.80995467848447" stroke="#9ca3af" stroke-width="1"/><line x1="525.6" y1="94.7494742010212" x2="525.6" y2="116.63495179118644" stroke="#9ca3af" stroke-width="1"/><line x1="531.9680000000001" y1="105.69160031923417" x2="531.9680000000001" y2="146.25043205889983" stroke="#9ca3af" stroke-width="1"/><line x1="538.336" y1="104.11928295572307" x2="538.336" y2="172.07928649816586" stroke="#9ca3af" stroke-width="1"/><line x1="544.704" y1="148.34663527496141" x2="544.704" y2="180.96602310563472" stroke="#9ca3af" stroke-width="1"/><line x1="551.072" y1="144.69621222753875" x2="551.072" y2="173.87018811717613" stroke="#9ca3af" stroke-width="1"/><line x1="557.44" y1="117.88104228609785" x2="557.44" y2="175.86299032923483" stroke="#9ca3af" stroke-width="1"/><line x1="563.808" y1="124.85603854426319" x2="563.808" y2="156.90375172655243" stroke="#9ca3af" stroke-width="1"/><line x1="570.176" y1="141.27700400492836" x2="570.176" y2="197.43468310415352" stroke="#9ca3af" stroke-width="1"/><line x1="576.544" y1="162.66404539712906" x2="576.544" y2="217.9402238678814" stroke="#9ca3af" stroke-width="1"/><line x1="582.912" y1="180.56241043549775" x2="582.912" y2="232.31013568488004" stroke="#9ca3af" stroke-width="1"/><line x1="589.28" y1="170.8505394715649" x2="589.28" y2="201.5809973840821" stroke="#9ca3af" stroke-width="1"/><line x1="595.648" y1="166.051582938477" x2="595.648" y2="199.3198427031117" stroke="#9ca3af" stroke-width="1"/><line x1="602.016" y1="178.80044601633148" x2="602.016" y2="248.6404249688353" stroke="#9ca3af" stroke-width="1"/><line x1="608.384" y1="230.08395071447032" x2="608.384" y2="249.70384349860763" stroke="#9ca3af" stroke-width="1"/><line x1="614.752" y1="222.3787378856485" x2="614.752" y2="242.18026579714544" stroke="#9ca3af" stroke-width="1"/><line x1="621.12" y1="216.9744566053351" x2="621.12" y2="253.2673606885183" stroke="#9ca3af" stroke-width="1"/><line x1="627.488" y1="184.62370401751335" x2="627.488" y2="228.61324345334307" stroke="#9ca3af" stroke-width="1"/><line x1="633.856" y1="171.9851227761979" x2="633.856" y2="195.1514720558753" stroke="#9ca3af" stroke-width="1"/><line x1="640.224" y1="164.3265676474503" x2="640.224" y2="207.23741876075616" stroke="#9ca3af" stroke-width="1"/><line x1="646.592" y1="161.61665072394788" x2="646.592" y2="210.9618343224379" stroke="#9ca3af" stroke-width="1"/><line x1="652.96" y1="194.60694370571622" x2="652.96" y2="210.63080029686085" stroke="#9ca3af" stroke-width="1"/><line x1="659.328" y1="181.3992327814753" x2="659.328" y2="208.95432786550734" stroke="#9ca3af" stroke-width="1"/><line x1="665.696" y1="171.55851115895365" x2="665.696" y2="196.06483188157054" stroke="#9ca3af" stroke-width="1"/><line x1="672.064" y1="171.53909401508437" x2="672.064" y2="202.51207771000756" stroke="#9ca3af" stroke-width="1"/><line x1="678.432" y1="172.73918661578116" x2="678.432" y2="199.44567710634217" stroke="#9ca3af" stroke-width="1"/>
  <rect x="45.612" y="311.89997156723575" width="4.776" height="7.112801424849181" fill="#16a34a"/><rect x="51.980000000000004" y="311.89997156723575" width="4.776" height="18.03013769433585" fill="#ef4444"/><rect x="58.348000000000006" y="329.9301092615716" width="4.776" height="33.953609536835984" fill="#ef4444"/><rect x="64.716" y="319.296678027688" width="4.776" height="44.58704077071957" fill="#16a34a"/><rect x="71.084" y="302.5323307460726" width="4.776" height="16.814021237047996" fill="#16a34a"/><rect x="77.452" y="302.5323307460726" width="4.776" height="1.225353739322827" fill="#ef4444"/><rect x="83.82" y="245.15646151400068" width="4.776" height="58.60122297139475" fill="#16a34a"/><rect x="90.18799999999999" y="239.73596786113623" width="4.776" height="5.420493652864451" fill="#16a34a"/><rect x="96.556" y="239.73596786113623" width="4.776" height="23.576842782350553" fill="#ef4444"/><rect x="102.92399999999999" y="263.3128106434868" width="4.776" height="48.174028197637256" fill="#ef4444"/><rect x="109.292" y="299.4218174077916" width="4.776" height="12.385592823135255" fill="#16a34a"/><rect x="115.66" y="298.83694664221485" width="4.776" height="9.175260284089404" fill="#ef4444"/><rect x="122.02799999999999" y="302.9058751206062" width="4.776" height="5.106331805698062" fill="#16a34a"/><rect x="128.396" y="287.5668970117631" width="4.776" height="15.338978108843094" fill="#16a34a"/><rect x="134.76399999999998" y="287.42400191416203" width="4.776" height="18.281995016756696" fill="#ef4444"/><rect x="141.13199999999998" y="305.70609118889865" width="4.776" height="2.5785212994550193" fill="#ef4444"/><rect x="147.5" y="307.91446140109827" width="4.776" height="1" fill="#16a34a"/><rect x="153.868" y="307.91446140109827" width="4.776" height="8.214111662560583" fill="#ef4444"/><rect x="160.236" y="316.12847880567887" width="4.776" height="15.849008038341253" fill="#ef4444"/><rect x="166.604" y="331.9775811020001" width="4.776" height="15.952786074263884" fill="#ef4444"/><rect x="172.972" y="294.5308650862745" width="4.776" height="53.39950208998948" fill="#16a34a"/><rect x="179.34" y="293.9885046696543" width="4.776" height="1" fill="#16a34a"/><rect x="185.708" y="278.4964516013757" width="4.776" height="15.175629029593438" fill="#16a34a"/><rect x="192.076" y="278.4964516013757" width="4.776" height="3.8646714358442864" fill="#ef4444"/><rect x="198.444" y="281.6242141499872" width="4.776" height="1" fill="#16a34a"/><rect x="204.81199999999998" y="278.3780635785612" width="4.776" height="3.2461505714260284" fill="#16a34a"/><rect x="211.18" y="267.0011253988485" width="4.776" height="11.376938179712681" fill="#16a34a"/><rect x="217.548" y="267.0011253988485" width="4.776" height="21.484598401446817" fill="#ef4444"/><rect x="223.916" y="288.4180465706927" width="4.776" height="22.852847238370657" fill="#ef4444"/><rect x="230.284" y="276.0684602958976" width="4.776" height="35.20243351316577" fill="#16a34a"/><rect x="236.652" y="252.2065813821845" width="4.776" height="23.86187891371307" fill="#16a34a"/><rect x="243.01999999999998" y="252.2065813821845" width="4.776" height="15.009640726905133" fill="#ef4444"/><rect x="249.388" y="266.8286332955438" width="4.776" height="1" fill="#16a34a"/><rect x="255.756" y="253.97778308338567" width="4.776" height="12.851227244077933" fill="#16a34a"/><rect x="262.124" y="252.32770288641757" width="4.776" height="1.661673928501699" fill="#16a34a"/><rect x="268.492" y="237.02256339237576" width="4.776" height="15.305233752021763" fill="#16a34a"/><rect x="274.86" y="214.40111949477722" width="4.776" height="22.62144389759854" fill="#16a34a"/><rect x="281.228" y="150.30578738817871" width="4.776" height="64.0953321065985" fill="#16a34a"/><rect x="287.59600000000006" y="116.13840075282087" width="4.776" height="34.16729237737789" fill="#16a34a"/><rect x="293.964" y="114.77627868459365" width="4.776" height="1.3621220682272224" fill="#16a34a"/><rect x="300.33200000000005" y="93.26321437320257" width="4.776" height="21.512970053411095" fill="#16a34a"/><rect x="306.70000000000005" y="72.86475067469553" width="4.776" height="20.398369440527063" fill="#16a34a"/><rect x="313.06800000000004" y="72.86465641671555" width="4.776" height="17.710697400292418" fill="#ef4444"/><rect x="319.43600000000004" y="88.34455020558079" width="4.776" height="2.230709353447253" fill="#16a34a"/><rect x="325.80400000000003" y="76.70934516081087" width="4.776" height="11.635205044769918" fill="#16a34a"/><rect x="332.172" y="76.7094394187908" width="4.776" height="13.57899310725577" fill="#ef4444"/><rect x="338.54" y="87.97505892418496" width="4.776" height="2.313279343881618" fill="#16a34a"/><rect x="344.908" y="87.97505892418496" width="4.776" height="11.963599846908494" fill="#ef4444"/><rect x="351.276" y="99.93865877109346" width="4.776" height="9.158199589718834" fill="#ef4444"/><rect x="357.644" y="83.01756046882468" width="4.776" height="26.079297891987608" fill="#16a34a"/><rect x="364.012" y="83.05903398000174" width="4.776" height="19.17508937676314" fill="#ef4444"/><rect x="370.38" y="102.18133888799406" width="4.776" height="1" fill="#ef4444"/><rect x="376.74800000000005" y="103.08338775609559" width="4.776" height="2.3477777645425135" fill="#ef4444"/><rect x="383.11600000000004" y="100.21785090769919" width="4.776" height="5.213220354958935" fill="#16a34a"/><rect x="389.48400000000004" y="81.04323282083578" width="4.776" height="19.174618086863404" fill="#16a34a"/><rect x="395.85200000000003" y="80.72030498153424" width="4.776" height="6.830121742985398" fill="#ef4444"/><rect x="402.22" y="87.32901472962203" width="4.776" height="1.7388712140790403" fill="#ef4444"/><rect x="408.588" y="83.56623617010149" width="4.776" height="5.5015555156196" fill="#16a34a"/><rect x="414.956" y="83.56614191212151" width="4.776" height="10.86851063587369" fill="#ef4444"/><rect x="421.324" y="94.43474680597512" width="4.776" height="71.53068433882947" fill="#ef4444"/><rect x="427.692" y="165.9654311448046" width="4.776" height="11.499096521725164" fill="#ef4444"/><rect x="434.06" y="152.93134341962772" width="4.776" height="24.53318424690204" fill="#16a34a"/><rect x="440.428" y="146.53537393228237" width="4.776" height="6.395969487345354" fill="#16a34a"/><rect x="446.79600000000005" y="146.6697858116881" width="4.776" height="6.789496553627885" fill="#ef4444"/><rect x="453.16400000000004" y="145.77989622299987" width="4.776" height="7.679386142316105" fill="#16a34a"/><rect x="459.53200000000004" y="116.40976947709089" width="4.776" height="29.37144635762826" fill="#16a34a"/><rect x="465.90000000000003" y="116.40976947709089" width="4.776" height="2.923788280004203" fill="#ef4444"/><rect x="472.26800000000003" y="119.3335577570951" width="4.776" height="1.387760238773069" fill="#ef4444"/><rect x="478.636" y="83.382527367183" width="4.776" height="37.33879062868516" fill="#16a34a"/><rect x="485.004" y="83.38243310920302" width="4.776" height="1.4139639571986322" fill="#ef4444"/><rect x="491.372" y="69.24373611701662" width="4.776" height="15.552566691405048" fill="#16a34a"/><rect x="497.74" y="33.94629056006329" width="4.776" height="35.297445556953335" fill="#16a34a"/><rect x="504.108" y="33.60960105568938" width="4.776" height="57.305364263070885" fill="#ef4444"/><rect x="510.47600000000006" y="90.91496531876027" width="4.776" height="19.196674454171216" fill="#ef4444"/><rect x="516.8439999999999" y="110.11163977293148" width="4.776" height="1" fill="#ef4444"/><rect x="523.212" y="108.3607977953991" width="4.776" height="2.079142521690983" fill="#16a34a"/><rect x="529.58" y="108.3607977953991" width="4.776" height="12.144763684368343" fill="#ef4444"/><rect x="535.948" y="120.50565573774736" width="4.776" height="48.89670412989787" fill="#ef4444"/><rect x="542.3159999999999" y="152.668457913553" width="4.776" height="16.733901954092232" fill="#16a34a"/><rect x="548.684" y="152.66855217153295" width="4.776" height="14.991448936775157" fill="#ef4444"/><rect x="555.052" y="125.51593866187852" width="4.776" height="42.14406244642959" fill="#16a34a"/><rect x="561.42" y="125.51584440389854" width="4.776" height="18.83029368611369" fill="#ef4444"/><rect x="567.788" y="144.34613809001223" width="4.776" height="21.48686059296554" fill="#ef4444"/><rect x="574.156" y="165.83299868297777" width="4.776" height="38.01641124653071" fill="#ef4444"/><rect x="580.524" y="188.19598719955917" width="4.776" height="15.653328471969388" fill="#16a34a"/><rect x="586.8919999999999" y="188.19598719955917" width="4.776" height="8.816985702307392" fill="#ef4444"/><rect x="593.26" y="181.8822106707284" width="4.776" height="15.130762231138164" fill="#16a34a"/><rect x="599.6279999999999" y="181.8822106707284" width="4.776" height="53.255664412588914" fill="#ef4444"/><rect x="605.996" y="231.95779935583474" width="4.776" height="3.17998146950265" fill="#16a34a"/><rect x="612.3639999999999" y="231.9578936138147" width="4.776" height="8.39433292022099" fill="#ef4444"/><rect x="618.732" y="226.06205696807297" width="4.776" height="14.290169565962714" fill="#16a34a"/><rect x="625.1" y="185.91909143593747" width="4.776" height="40.143059790115444" fill="#16a34a"/><rect x="631.468" y="184.24271326256388" width="4.776" height="1.1868964835040856" fill="#16a34a"/><rect x="637.836" y="184.24261900458393" width="4.776" height="7.574382752654117" fill="#ef4444"/><rect x="644.204" y="191.40198387152742" width="4.776" height="12.32687010162769" fill="#ef4444"/><rect x="650.572" y="203.7288539731551" width="4.776" height="5.225379634372274" fill="#ef4444"/><rect x="656.9399999999999" y="187.79539078478055" width="4.776" height="21.158842822746834" fill="#16a34a"/><rect x="663.308" y="185.18114571092528" width="4.776" height="3.1237094554737155" fill="#16a34a"/><rect x="669.6759999999999" y="185.18114571092528" width="4.776" height="6.0488173471972" fill="#ef4444"/><rect x="676.044" y="179.63557171866998" width="4.776" height="11.5943913394525" fill="#16a34a"/>
  <!-- SMA -->
  
  <!-- Bollinger Bands -->
  
  <!-- Ichimoku Cloud -->
  
      <path d="M 48,435.2496637527831 L 54.368,435.0881527041423 L 60.736000000000004,430.37831709109514 L 67.104,429.64381178235107 L 73.47200000000001,413.88145039207694 L 79.84,413.06536480168796 L 86.208,413.06536480168796 L 92.576,402.7306606707543 L 98.944,395.4327601377824 L 105.312,369.0085251681754 L 111.68,350.716962966454 L 118.048,350.24567306671446 L 124.416,345.8188470384609 L 130.784,331.18885389029094 L 137.152,319.0557310664462 L 143.51999999999998,319.0557310664462 L 149.888,318.7070236696289 L 156.256,318.7070236696289 L 162.624,318.5455126209881 L 168.99200000000002,318.5455126209881 L 175.36,311.38077504918766 L 181.728,310.2979393755461 L 188.096,315.8111593161842 L 194.464,318.80403869549025 L 200.832,311.7795098688623 L 207.2,307.76369576217155 L 213.568,287.4156129539467 L 219.936,287.3756475704488 L 226.304,307.68360004371084 L 232.672,307.68360004371084 L 239.04,318.3874655531105 L 245.408,318.0161126766107 L 251.776,305.47977777904373 L 258.144,304.5843740985286 L 264.512,303.83026312995537 L 270.88,303.83026312995537 L 277.248,303.83026312995537 L 283.616,301.23086368794185 L 289.98400000000004,296.8738828228297 L 296.352,296.8738828228297 L 302.72,298.17426591419104 L 309.088,300.30383645515417 L 315.456,300.30383645515417 L 321.824,306.68981459662507 L 328.192,306.68981459662507 L 334.56,317.9549156831295 L 340.928,317.9549156831295 L 347.296,317.9549156831295 L 353.664,317.7378866842995 L 360.032,317.7378866842995 L 366.4,317.7378866842995 L 372.768,317.7378866842995 L 372.768,323.9498174657965 L 366.4,333.94531069139265 L 360.032,354.61471895325997 L 353.664,354.61471895325997 L 347.296,354.61471895325997 L 340.928,354.61471895325997 L 334.56,354.61471895325997 L 328.192,354.61471895325997 L 321.824,354.93774105054143 L 315.456,354.93774105054143 L 309.088,354.93774105054143 L 302.72,354.93774105054143 L 296.352,354.93774105054143 L 289.98400000000004,355.1558068871509 L 283.616,364.00945894365805 L 277.248,364.95203874313717 L 270.88,401.4552323795841 L 264.512,413.60753670234834 L 258.144,418.207844542696 L 251.776,418.207844542696 L 245.408,418.207844542696 L 239.04,419.84001572347404 L 232.672,423.6075543109819 L 226.304,423.6075543109819 L 219.936,423.6075543109819 L 213.568,423.6075543109819 L 207.2,423.6075543109819 L 200.832,447.89906109729753 L 194.464,447.89906109729753 L 188.096,470.30507838172514 L 181.728,470.30507838172514 L 175.36,472.2968437560044 L 168.99200000000002,472.2968437560044 L 162.624,472.2968437560044 L 156.256,472.2968437560044 L 149.888,472.2968437560044 L 143.51999999999998,472.2968437560044 L 137.152,472.2968437560044 L 130.784,484.4299665798492 L 124.416,498.95092680971436 L 118.048,498.95092680971436 L 111.68,498.95092680971436 L 105.312,498.95092680971436 L 98.944,498.95092680971436 L 92.576,498.95092680971436 L 86.208,498.95092680971436 L 79.84,498.95092680971436 L 73.47200000000001,498.95092680971436 L 67.104,512.8295189062345 L 60.736000000000004,513.5640242149786 L 54.368,518.2738598280258 L 48,518.2738598280258 ZM 398.24,299.7565746235766 L 404.608,294.8080306763114 L 410.976,294.8080306763114 L 417.344,294.8080306763114 L 423.712,294.8080306763114 L 430.08,295.98625542566026 L 436.448,292.97000006732713 L 442.816,278.07723923555744 L 449.184,246.50086308199772 L 455.552,215.53082494894792 L 461.92,215.53082494894792 L 468.288,209.3998617722261 L 474.656,183.478870157561 L 481.024,181.08502380531894 L 487.392,180.7060124679484 L 493.76,176.6782275978043 L 500.128,165.2736247009769 L 506.496,137.0844797503303 L 512.864,129.07865465895964 L 519.232,129.07865465895964 L 525.6,129.07865465895964 L 531.9680000000001,132.14203900726667 L 538.336,131.34720859135592 L 544.704,136.7342877903288 L 551.072,136.7342877903288 L 557.44,142.79156479122634 L 563.808,133.2924576525309 L 570.176,132.3451649540544 L 576.544,130.66421526865338 L 582.912,127.46587705755587 L 589.28,132.52760127424358 L 595.648,134.74068438544057 L 602.016,130.80715749524438 L 608.384,124.95237019976997 L 614.752,115.8808879516032 L 621.12,115.8808879516032 L 627.488,115.8808879516032 L 633.856,115.8808879516032 L 640.224,127.44292523943858 L 646.592,125.44234674403418 L 652.96,116.09009353809756 L 659.328,114.58196585893103 L 665.696,105.58028164491571 L 672.064,99.34513983585646 L 678.432,96.18794523300625 L 684.8,90.01529646465247 L 691.168,89.02179379150652 L 697.536,94.71650747253443 L 703.904,101.17372108235094 L 710.272,103.39540523421812 L 716.64,103.39540523421812 L 723.008,103.39540523421812 L 729.376,118.41541433891751 L 735.744,128.40471010233205 L 742.112,138.657480484196 L 742.112,147.7616231224147 L 735.744,151.1235224932168 L 729.376,151.1235224932168 L 723.008,170.12173677060767 L 716.64,170.12173677060767 L 710.272,170.12173677060767 L 703.904,170.12173677060767 L 697.536,170.12173677060767 L 691.168,170.12173677060767 L 684.8,170.12173677060767 L 678.432,170.12173677060767 L 672.064,170.12173677060767 L 665.696,197.6809792057574 L 659.328,212.59805859635367 L 652.96,212.59805859635367 L 646.592,212.59805859635367 L 640.224,212.59805859635367 L 633.856,212.59805859635367 L 627.488,212.59805859635367 L 621.12,212.59805859635367 L 614.752,212.59805859635367 L 608.384,212.59805859635367 L 602.016,212.59805859635367 L 595.648,212.59805859635367 L 589.28,212.59805859635367 L 582.912,212.59805859635367 L 576.544,212.59805859635367 L 570.176,212.59805859635367 L 563.808,212.59805859635367 L 557.44,212.59805859635367 L 551.072,212.59805859635367 L 544.704,212.59805859635367 L 538.336,212.59805859635367 L 531.9680000000001,212.59805859635367 L 525.6,212.59805859635367 L 519.232,212.59805859635367 L 512.864,212.59805859635367 L 506.496,212.59805859635367 L 500.128,212.59805859635367 L 493.76,212.59805859635367 L 487.392,212.59805859635367 L 481.024,212.59805859635367 L 474.656,212.59805859635367 L 468.288,238.51905021101877 L 461.92,242.96906370233953 L 455.552,242.96906370233953 L 449.184,264.4399946966939 L 442.816,296.01637085025357 L 436.448,304.7090302770097 L 430.08,304.7090302770097 L 423.712,304.7090302770097 L 417.344,304.7090302770097 L 410.976,304.7090302770097 L 404.608,304.7090302770097 L 398.24,304.7090302770097 Z" fill="rgba(16, 163, 74, 0.1)" stroke="none" />
      <path d="M 379.136,317.7378866842995 L 385.504,317.6957062382728 L 391.872,312.14589063691983 L 391.872,304.7090302770097 L 385.504,304.7090302770097 L 379.136,304.7090302770097 ZM 748.48,148.18488858137079 L 754.848,148.18488858137079 L 761.216,151.62532841396447 L 767.584,159.7904730559421 L 773.952,160.32218232082826 L 780.32,162.0659313853696 L 786.688,167.95293134549124 L 793.056,173.2996916935414 L 799.424,174.14657607887838 L 805.792,173.7153222561217 L 812.16,173.03784302524613 L 818.528,173.03784302524613 L 824.896,173.03784302524613 L 831.264,173.03784302524613 L 837.632,188.0578521299455 L 844,184.5616822667076 L 844,138.63368034425915 L 837.632,138.63368034425915 L 831.264,138.63368034425915 L 824.896,138.63368034425915 L 818.528,138.63368034425915 L 812.16,138.63368034425915 L 805.792,138.63368034425915 L 799.424,138.63368034425915 L 793.056,138.63368034425915 L 786.688,138.63368034425915 L 780.32,136.8519217493038 L 773.952,136.8519217493038 L 767.584,136.32021248441765 L 761.216,142.21590774318946 L 754.848,142.97393041793057 L 748.48,147.7616231224147 Z" fill="rgba(239, 68, 68, 0.1)" stroke="none" />
      <path d="M -117.56800000000001,400.91475712256283 L -111.19999999999999,400.5917350252813 L -104.832,395.8818994122342 L -98.464,395.14739410349006 L -92.096,381.2688020069699 L -85.72800000000001,381.2688020069699 L -79.36,381.2688020069699 L -72.992,360.5993937451026 L -66.624,350.6039005195065 L -60.256,309.90773490305673 L -53.888000000000005,309.8278041360609 L -47.519999999999996,309.8278041360609 L -41.152,309.8278041360609 L -34.784000000000006,295.3068439061957 L -28.415999999999997,283.17372108235094 L -22.048000000000002,283.17372108235094 L -15.68,282.47630628871633 L -9.311999999999998,282.47630628871633 L -2.9440000000000026,282.47630628871633 L 3.4239999999999995,282.47630628871633 L 9.792000000000002,268.14683114511536 L 16.16,265.98115979783216 L 22.528,277.0075996791086 L 28.896,282.9933584377206 L 35.263999999999996,289.6137090463319 L 41.632,291.57757405854665 L 48,291.57757405854665 L 54.368,291.57757405854665 L 60.736000000000004,314.9668905897908 L 67.104,314.9668905897908 L 73.47200000000001,336.37462160859013 L 79.84,335.6319158555906 L 86.208,310.55924606045664 L 92.576,308.7684386994263 L 98.944,307.2602167622798 L 105.312,307.2602167622798 L 111.68,307.2602167622798 L 118.048,302.0614178782529 L 124.416,293.3474561480285 L 130.784,293.3474561480285 L 137.152,293.3474561480285 L 143.51999999999998,293.3474561480285 L 149.888,293.3474561480285 L 156.256,306.11941243097027 L 162.624,306.11941243097027 L 168.99200000000002,324.3408938246004 L 175.36,324.3408938246004 L 181.728,324.3408938246004 L 188.096,323.90683582694027 L 194.464,323.90683582694027 L 200.832,323.90683582694027 L 207.2,323.90683582694027 L 213.568,323.90683582694027 L 219.936,323.8224749348869 L 226.304,312.722843732181 L 232.672,287.9442117054946 L 239.04,278.0471238109641 L 245.408,278.0471238109641 L 251.776,278.0471238109641 L 258.144,278.0471238109641 L 264.512,278.0471238109641 L 270.88,275.03086845263095 L 277.248,260.13810762086126 L 283.616,228.56173146730154 L 289.98400000000004,188.0925861955563 L 296.352,188.0925861955563 L 302.72,180.28067333343347 L 309.088,154.35968171876837 L 315.456,149.5719890142842 L 321.824,148.81396633954313 L 328.192,140.75839659925495 L 334.56,129.0488220083061 L 340.928,97.44916413369924 L 347.296,81.43751395095791 L 353.664,81.43751395095791 L 360.032,81.43751395095791 L 366.4,87.56428264757199 L 372.768,85.97462181575048 L 379.136,96.7487802136963 L 385.504,96.7487802136963 L 391.872,108.86333421549136 L 398.24,108.86333421549136 L 404.608,106.96874881853836 L 410.976,106.96874881853836 L 417.344,100.5720723963434 L 423.712,115.48321353420295 L 430.08,120.66740243133796 L 436.448,120.85591839123379 L 442.816,120.85591839123379 L 449.184,120.85591839123379 L 455.552,120.85591839123379 L 461.92,120.85591839123379 L 468.288,120.85591839123379 L 474.656,137.85322427029047 L 481.024,133.85206727948164 L 487.392,116.09009353809756 L 493.76,113.0738381797645 L 500.128,104.07215396574912 L 506.496,94.38248075609403 L 512.864,88.0680915503936 L 519.232,75.72279401368604 L 525.6,73.73578866739416 L 531.9680000000001,85.12521602944992 L 538.336,98.03964324908293 L 544.704,102.48301155281735 L 551.072,102.48301155281735 L 557.44,102.48301155281735 L 563.808,132.5230297622161 L 570.176,146.09207865258736 L 576.544,156.3448490344513 L 582.912,168.21470932030155 L 589.28,168.21470932030155 L 595.648,175.09558898548894 L 602.016,183.26073362746658 L 608.384,183.79244289235274 L 614.752,187.2799410214354 L 621.12,197.27218234672333 L 627.488,207.9657030428237 L 633.856,209.65947181349765 L 640.224,208.7969641679843 L 646.592,207.4420057062331 L 652.96,207.4420057062331 L 659.328,207.4420057062331 L 665.696,207.4420057062331 L 672.064,207.4420057062331 L 678.432,195.1149470886455" fill="none" stroke="#ef4444" stroke-width="1" />
      <path d="M -117.56800000000001,469.5845703830033 L -111.19999999999999,469.5845703830033 L -104.832,464.87473476995615 L -98.464,464.1402294612121 L -92.096,446.494098777184 L -85.72800000000001,444.86192759640596 L -79.36,444.86192759640596 L -72.992,444.86192759640596 L -66.624,440.2616197560583 L -60.256,428.1093154332941 L -53.888000000000005,391.6061217968471 L -47.519999999999996,390.66354199736804 L -41.152,381.8098899408609 L -34.784000000000006,367.07086387438625 L -28.415999999999997,354.93774105054143 L -22.048000000000002,354.93774105054143 L -15.68,354.93774105054143 L -9.311999999999998,354.93774105054143 L -2.9440000000000026,354.61471895325997 L 3.4239999999999995,354.61471895325997 L 9.792000000000002,354.61471895325997 L 16.16,354.61471895325997 L 22.528,354.61471895325997 L 28.896,354.61471895325997 L 35.263999999999996,333.94531069139265 L 41.632,323.9498174657965 L 48,283.25365184934674 L 54.368,283.17372108235094 L 60.736000000000004,300.4003094976309 L 67.104,300.4003094976309 L 73.47200000000001,300.4003094976309 L 79.84,300.4003094976309 L 86.208,300.4003094976309 L 92.576,300.4003094976309 L 98.944,300.4003094976309 L 105.312,300.4003094976309 L 111.68,300.4003094976309 L 118.048,300.4003094976309 L 124.416,300.4003094976309 L 130.784,300.4003094976309 L 137.152,303.00107568035355 L 143.51999999999998,307.2602167622798 L 149.888,307.2602167622798 L 156.256,307.2602167622798 L 162.624,307.2602167622798 L 168.99200000000002,311.56893754165867 L 175.36,311.56893754165867 L 181.728,311.56893754165867 L 188.096,311.56893754165867 L 194.464,311.56893754165867 L 200.832,311.56893754165867 L 207.2,311.56893754165867 L 213.568,311.56893754165867 L 219.936,311.56893754165867 L 226.304,311.56893754165867 L 232.672,311.56893754165867 L 239.04,311.56893754165867 L 245.408,311.56893754165867 L 251.776,311.56893754165867 L 258.144,311.56893754165867 L 264.512,313.9253870403564 L 270.88,310.9091316820233 L 277.248,296.01637085025357 L 283.616,264.4399946966939 L 289.98400000000004,242.96906370233953 L 296.352,242.96906370233953 L 302.72,238.51905021101877 L 309.088,212.59805859635367 L 315.456,212.59805859635367 L 321.824,212.59805859635367 L 328.192,212.59805859635367 L 334.56,201.49842739364775 L 340.928,176.71979536696134 L 347.296,176.71979536696134 L 353.664,176.71979536696134 L 360.032,176.71979536696134 L 366.4,176.71979536696134 L 372.768,176.71979536696134 L 379.136,176.71979536696134 L 385.504,176.71979536696134 L 391.872,176.71979536696134 L 398.24,157.72158108957046 L 404.608,157.72158108957046 L 410.976,154.35968171876837 L 417.344,154.35968171876837 L 423.712,149.5719890142842 L 430.08,148.81396633954313 L 436.448,140.75839659925495 L 442.816,129.0488220083061 L 449.184,110.90585751197256 L 455.552,110.90585751197256 L 461.92,110.90585751197256 L 468.288,110.90585751197256 L 474.656,117.03262620858669 L 481.024,117.03262620858669 L 487.392,116.09009353809756 L 493.76,116.09009353809756 L 500.128,107.08840932408225 L 506.496,104.30779891561889 L 512.864,104.30779891561889 L 519.232,104.30779891561889 L 525.6,104.30779891561889 L 531.9680000000001,104.30779891561889 L 538.336,104.30779891561889 L 544.704,104.30779891561889 L 551.072,104.30779891561889 L 557.44,104.30779891561889 L 563.808,104.30779891561889 L 570.176,110.71734155207673 L 576.544,120.9701119339407 L 582.912,128.15506784244002 L 589.28,128.15506784244002 L 595.648,128.15506784244002 L 602.016,136.32021248441765 L 608.384,136.8519217493038 L 614.752,136.8519217493038 L 621.12,138.63368034425915 L 627.488,138.63368034425915 L 633.856,138.63368034425915 L 640.224,138.63368034425915 L 646.592,138.63368034425915 L 652.96,138.63368034425915 L 659.328,138.63368034425915 L 665.696,138.63368034425915 L 672.064,168.6736985536579 L 678.432,174.00841744476975" fill="none" stroke="#3b82f6" stroke-width="1" />
      <path d="M -283.136,588.5372456264556 L -276.768,607.6706729760817 L -270.4,599.0970613779998 L -264.032,611.1850817584395 L -257.664,617.2383292306944 L -251.296,601.6647430097609 L -244.928,607.4798005666872 L -238.56,600.0133432010734 L -232.192,604.8812965754832 L -225.824,577.7998478406895 L -219.45600000000002,487.1183926839235 L -213.08800000000002,476.3230262404894 L -206.72,476.061366088154 L -200.352,457.6953872112637 L -193.984,458.83732263833264 L -187.616,470.8997048482265 L -181.248,465.810527994879 L -174.88,474.081759993288 L -168.512,469.90386929007684 L -162.144,418.0607549649873 L -155.776,416.2256463533815 L -149.408,428.70775934798337 L -143.04,454.28767846220694 L -136.672,457.24059245801504 L -130.304,434.7526178600228 L -123.936,424.60781999418913 L -117.56800000000001,323.4142436237325 L -111.19999999999999,333.77046213858927 L -104.832,307.7166139011876 L -98.464,311.09915576959827 L -92.096,303.6855771307353 L -85.72800000000001,293.56387246998895 L -79.36,310.1200038738994 L -72.992,315.2390605068904 L -66.624,317.78346041760426 L -60.256,322.60353073820056 L -53.888000000000005,283.4629988228111 L -47.519999999999996,300.06625921669547 L -41.152,289.17267595815565 L -34.784000000000006,257.94736365091194 L -28.415999999999997,227.88821107158375 L -22.048000000000002,299.23320718991584 L -15.68,290.01600210474965 L -9.311999999999998,272.65160852278586 L -2.9440000000000026,269.0175863638741 L 3.4239999999999995,261.3826899880935 L 9.792000000000002,260.17609358678027 L 16.16,308.6440181658951 L 22.528,328.4559144551863 L 28.896,318.0030815108829 L 35.263999999999996,307.6745748421308 L 41.632,319.01277299208493 L 48,311.89997156723575 L 54.368,329.9301092615716 L 60.736000000000004,363.8837187984076 L 67.104,319.296678027688 L 73.47200000000001,302.5323307460726 L 79.84,303.75768448539543 L 86.208,245.15646151400068 L 92.576,239.73596786113623 L 98.944,263.3128106434868 L 105.312,311.48683884112404 L 111.68,299.4218174077916 L 118.048,308.01220692630426 L 124.416,302.9058751206062 L 130.784,287.5668970117631 L 137.152,305.70599693091873 L 143.51999999999998,308.2846124883537 L 149.888,307.91446140109827 L 156.256,316.12857306365885 L 162.624,331.9774868440201 L 168.99200000000002,347.930367176264 L 175.36,294.5308650862745 L 181.728,293.9885046696543 L 188.096,278.4964516013757 L 194.464,282.36112303722 L 200.832,281.6242141499872 L 207.2,278.3780635785612 L 213.568,267.0011253988485 L 219.936,288.4857238002953 L 226.304,311.27089380906335 L 232.672,276.0684602958976 L 239.04,252.2065813821845 L 245.408,267.21622210908964 L 251.776,266.8286332955438 L 258.144,253.97778308338567 L 264.512,252.32770288641757 L 270.88,237.02256339237576 L 277.248,214.40111949477722 L 283.616,150.30578738817871 L 289.98400000000004,116.13840075282087 L 296.352,114.77627868459365 L 302.72,93.26321437320257 L 309.088,72.86475067469553 L 315.456,90.57535381700797 L 321.824,88.34455020558079 L 328.192,76.70934516081087 L 334.56,90.28843252604656 L 340.928,87.97505892418496 L 347.296,99.93865877109346 L 353.664,109.09685836081229 L 360.032,83.01756046882468 L 366.4,102.23412335676488 L 372.768,103.08338775609559 L 379.136,105.4311655206381 L 385.504,100.21785090769919 L 391.872,81.04323282083578 L 398.24,87.55042672451964 L 404.608,89.06788594370107 L 410.976,83.56623617010149 L 417.344,94.4346525479952 L 423.712,165.9654311448046 L 430.08,177.46452766652976 L 436.448,152.93134341962772 L 442.816,146.53537393228237 L 449.184,153.45928236531597 L 455.552,145.77989622299987 L 461.92,116.40976947709089 L 468.288,119.3335577570951 L 474.656,120.72131799586816 L 481.024,83.382527367183 L 487.392,84.79639706640165 L 493.76,69.24373611701662 L 500.128,33.94629056006329 L 506.496,90.91496531876027 L 512.864,110.11163977293148" fill="none" stroke="#16a34a" stroke-width="1" stroke-dasharray="2 2"/>
      <path d="M 48,435.2496637527831 L 54.368,435.0881527041423 L 60.736000000000004,430.37831709109514 L 67.104,429.64381178235107 L 73.47200000000001,413.88145039207694 L 79.84,413.06536480168796 L 86.208,413.06536480168796 L 92.576,402.7306606707543 L 98.944,395.4327601377824 L 105.312,369.0085251681754 L 111.68,350.716962966454 L 118.048,350.24567306671446 L 124.416,345.8188470384609 L 130.784,331.18885389029094 L 137.152,319.0557310664462 L 143.51999999999998,319.0557310664462 L 149.888,318.7070236696289 L 156.256,318.7070236696289 L 162.624,318.5455126209881 L 168.99200000000002,318.5455126209881 L 175.36,311.38077504918766 L 181.728,310.2979393755461 L 188.096,315.8111593161842 L 194.464,318.80403869549025 L 200.832,311.7795098688623 L 207.2,307.76369576217155 L 213.568,287.4156129539467 L 219.936,287.3756475704488 L 226.304,307.68360004371084 L 232.672,307.68360004371084 L 239.04,318.3874655531105 L 245.408,318.0161126766107 L 251.776,305.47977777904373 L 258.144,304.5843740985286 L 264.512,303.83026312995537 L 270.88,303.83026312995537 L 277.248,303.83026312995537 L 283.616,301.23086368794185 L 289.98400000000004,296.8738828228297 L 296.352,296.8738828228297 L 302.72,298.17426591419104 L 309.088,300.30383645515417 L 315.456,300.30383645515417 L 321.824,306.68981459662507 L 328.192,306.68981459662507 L 334.56,317.9549156831295 L 340.928,317.9549156831295 L 347.296,317.9549156831295 L 353.664,317.7378866842995 L 360.032,317.7378866842995 L 366.4,317.7378866842995 L 372.768,317.7378866842995 L 379.136,317.7378866842995 L 385.504,317.6957062382728 L 391.872,312.14589063691983 L 398.24,299.7565746235766 L 404.608,294.8080306763114 L 410.976,294.8080306763114 L 417.344,294.8080306763114 L 423.712,294.8080306763114 L 430.08,295.98625542566026 L 436.448,292.97000006732713 L 442.816,278.07723923555744 L 449.184,246.50086308199772 L 455.552,215.53082494894792 L 461.92,215.53082494894792 L 468.288,209.3998617722261 L 474.656,183.478870157561 L 481.024,181.08502380531894 L 487.392,180.7060124679484 L 493.76,176.6782275978043 L 500.128,165.2736247009769 L 506.496,137.0844797503303 L 512.864,129.07865465895964 L 519.232,129.07865465895964 L 525.6,129.07865465895964 L 531.9680000000001,132.14203900726667 L 538.336,131.34720859135592 L 544.704,136.7342877903288 L 551.072,136.7342877903288 L 557.44,142.79156479122634 L 563.808,133.2924576525309 L 570.176,132.3451649540544 L 576.544,130.66421526865338 L 582.912,127.46587705755587 L 589.28,132.52760127424358 L 595.648,134.74068438544057 L 602.016,130.80715749524438 L 608.384,124.95237019976997 L 614.752,115.8808879516032 L 621.12,115.8808879516032 L 627.488,115.8808879516032 L 633.856,115.8808879516032 L 640.224,127.44292523943858 L 646.592,125.44234674403418 L 652.96,116.09009353809756 L 659.328,114.58196585893103 L 665.696,105.58028164491571 L 672.064,99.34513983585646 L 678.432,96.18794523300625 L 684.8,90.01529646465247 L 691.168,89.02179379150652 L 697.536,94.71650747253443 L 703.904,101.17372108235094 L 710.272,103.39540523421812 L 716.64,103.39540523421812 L 723.008,103.39540523421812 L 729.376,118.41541433891751 L 735.744,128.40471010233205 L 742.112,138.657480484196 L 748.48,148.18488858137079 L 754.848,148.18488858137079 L 761.216,151.62532841396447 L 767.584,159.7904730559421 L 773.952,160.32218232082826 L 780.32,162.0659313853696 L 786.688,167.95293134549124 L 793.056,173.2996916935414 L 799.424,174.14657607887838 L 805.792,173.7153222561217 L 812.16,173.03784302524613 L 818.528,173.03784302524613 L 824.896,173.03784302524613 L 831.264,173.03784302524613 L 837.632,188.0578521299455 L 844,184.5616822667076" fill="none" stroke="rgba(239, 68, 68, 0.5)" stroke-width="1" />
      <path d="M 48,518.2738598280258 L 54.368,518.2738598280258 L 60.736000000000004,513.5640242149786 L 67.104,512.8295189062345 L 73.47200000000001,498.95092680971436 L 79.84,498.95092680971436 L 86.208,498.95092680971436 L 92.576,498.95092680971436 L 98.944,498.95092680971436 L 105.312,498.95092680971436 L 111.68,498.95092680971436 L 118.048,498.95092680971436 L 124.416,498.95092680971436 L 130.784,484.4299665798492 L 137.152,472.2968437560044 L 143.51999999999998,472.2968437560044 L 149.888,472.2968437560044 L 156.256,472.2968437560044 L 162.624,472.2968437560044 L 168.99200000000002,472.2968437560044 L 175.36,472.2968437560044 L 181.728,470.30507838172514 L 188.096,470.30507838172514 L 194.464,447.89906109729753 L 200.832,447.89906109729753 L 207.2,423.6075543109819 L 213.568,423.6075543109819 L 219.936,423.6075543109819 L 226.304,423.6075543109819 L 232.672,423.6075543109819 L 239.04,419.84001572347404 L 245.408,418.207844542696 L 251.776,418.207844542696 L 258.144,418.207844542696 L 264.512,413.60753670234834 L 270.88,401.4552323795841 L 277.248,364.95203874313717 L 283.616,364.00945894365805 L 289.98400000000004,355.1558068871509 L 296.352,354.93774105054143 L 302.72,354.93774105054143 L 309.088,354.93774105054143 L 315.456,354.93774105054143 L 321.824,354.93774105054143 L 328.192,354.61471895325997 L 334.56,354.61471895325997 L 340.928,354.61471895325997 L 347.296,354.61471895325997 L 353.664,354.61471895325997 L 360.032,354.61471895325997 L 366.4,333.94531069139265 L 372.768,323.9498174657965 L 379.136,304.7090302770097 L 385.504,304.7090302770097 L 391.872,304.7090302770097 L 398.24,304.7090302770097 L 404.608,304.7090302770097 L 410.976,304.7090302770097 L 417.344,304.7090302770097 L 423.712,304.7090302770097 L 430.08,304.7090302770097 L 436.448,304.7090302770097 L 442.816,296.01637085025357 L 449.184,264.4399946966939 L 455.552,242.96906370233953 L 461.92,242.96906370233953 L 468.288,238.51905021101877 L 474.656,212.59805859635367 L 481.024,212.59805859635367 L 487.392,212.59805859635367 L 493.76,212.59805859635367 L 500.128,212.59805859635367 L 506.496,212.59805859635367 L 512.864,212.59805859635367 L 519.232,212.59805859635367 L 525.6,212.59805859635367 L 531.9680000000001,212.59805859635367 L 538.336,212.59805859635367 L 544.704,212.59805859635367 L 551.072,212.59805859635367 L 557.44,212.59805859635367 L 563.808,212.59805859635367 L 570.176,212.59805859635367 L 576.544,212.59805859635367 L 582.912,212.59805859635367 L 589.28,212.59805859635367 L 595.648,212.59805859635367 L 602.016,212.59805859635367 L 608.384,212.59805859635367 L 614.752,212.59805859635367 L 621.12,212.59805859635367 L 627.488,212.59805859635367 L 633.856,212.59805859635367 L 640.224,212.59805859635367 L 646.592,212.59805859635367 L 652.96,212.59805859635367 L 659.328,212.59805859635367 L 665.696,197.6809792057574 L 672.064,170.12173677060767 L 678.432,170.12173677060767 L 684.8,170.12173677060767 L 691.168,170.12173677060767 L 697.536,170.12173677060767 L 703.904,170.12173677060767 L 710.272,170.12173677060767 L 716.64,170.12173677060767 L 723.008,170.12173677060767 L 729.376,151.1235224932168 L 735.744,151.1235224932168 L 742.112,147.7616231224147 L 748.48,147.7616231224147 L 754.848,142.97393041793057 L 761.216,142.21590774318946 L 767.584,136.32021248441765 L 773.952,136.8519217493038 L 780.32,136.8519217493038 L 786.688,138.63368034425915 L 793.056,138.63368034425915 L 799.424,138.63368034425915 L 805.792,138.63368034425915 L 812.16,138.63368034425915 L 818.528,138.63368034425915 L 824.896,138.63368034425915 L 831.264,138.63368034425915 L 837.632,138.63368034425915 L 844,138.63368034425915" fill="none" stroke="rgba(16, 163, 74, 0.5)" stroke-width="1" />
    
  <!-- Legend -->
  
        <rect x="48" y="400" width="10" height="10" fill="#ef4444" />
        <text x="63" y="408" font-family="sans-serif" font-size="12" fill="#555">Ichimoku Cloud</text>
      
  <!-- 目盛り（軽量） -->
  <text x="430" y="24" text-anchor="middle" font-family="sans-serif" font-size="18" fill="#111">
    BTC/JPY 1day (100 bars)
  </text>
</svg>
