
    <svg width="860" height="420" viewBox="0 0 860 420" xmlns="http://www.w3.org/2000/svg" style="background-color: #1f2937; color: #e5e7eb; font-family: sans-serif;">
      <title>BTC/JPY 1day chart</title>
      <defs>
        <clipPath id="plotArea">
          <rect x="96" y="24" width="748" height="356"/>
        </clipPath>
      </defs>
      <g class="axes">
        
    <line x1="96" y1="24" x2="96" y2="380" stroke="#4b5563" stroke-width="1"/>
    <g font-size="12" fill="#e5e7eb">
      <text x="88" y="380" text-anchor="end" dominant-baseline="middle">14,000,000</text><text x="88" y="291" text-anchor="end" dominant-baseline="middle">15,000,000</text><text x="88" y="202" text-anchor="end" dominant-baseline="middle">16,000,000</text><text x="88" y="113" text-anchor="end" dominant-baseline="middle">17,000,000</text><text x="88" y="24" text-anchor="end" dominant-baseline="middle">18,000,000</text>
    </g>
  
        
    <line x1="96" y1="380" x2="844" y2="380" stroke="#4b5563" stroke-width="1"/>
    <g font-size="12" fill="#e5e7eb">
      <text x="96" y="396" text-anchor="middle">5/9</text><text x="219.841059602649" y="396" text-anchor="middle">6/3</text><text x="343.682119205298" y="396" text-anchor="middle">6/28</text><text x="467.52317880794703" y="396" text-anchor="middle">7/23</text><text x="591.364238410596" y="396" text-anchor="middle">8/17</text><text x="715.205298013245" y="396" text-anchor="middle">9/11</text>
    </g>
  
      </g>
      <g class="plot-area" clip-path="url(#plotArea)">
        
      <path d="M 224.79470198675497,390.79647875 L 229.74834437086093,386.34937125 L 234.7019867549669,385.65583875 L 239.65562913907286,370.772747 L 244.60927152317882,370.002185 L 249.56291390728478,370.002185 L 254.51655629139074,360.24398025 L 259.4701986754967,353.3531775 L 264.42384105960264,328.402962 L 269.37748344370857,311.1317555 L 274.33112582781456,310.6867555 L 279.28476821192055,306.5068705 L 284.2384105960265,292.69298025 L 289.1920529801324,281.23667775 L 294.1456953642384,281.23667775 L 299.0993377483444,280.90742224999997 L 304.05298013245033,280.90742224999997 L 309.00662251655626,280.75492075 L 313.96026490066225,280.75492075 L 318.91390728476824,273.98985275 L 323.8675496688742,272.96742075 L 328.8211920529801,278.1730975 L 333.7748344370861,280.9990255 L 338.7284768211921,274.366345 L 343.682119205298,270.5745445 L 348.63576158940396,251.361536 L 353.58940397350995,251.3238 L 358.5430463576159,270.49891675000003 L 363.49668874172187,270.49891675000003 L 368.4503311258278,280.60569 L 373.4039735099338,280.25505225 L 378.3576158940397,268.41803 L 383.3112582781457,267.5725745 L 388.26490066225165,266.86053 L 393.21854304635764,266.86053 L 398.17218543046357,266.86053 L 403.12582781456956,264.4061325 L 408.0794701986755,260.2921965 L 413.0331125827815,260.2921965 L 417.9867549668874,261.5200405 L 422.94039735099335,263.5308175 L 427.89403973509934,263.5308175 L 432.8476821192053,269.5605675 L 437.80132450331126,269.5605675 L 442.7549668874172,280.197269 L 447.7086092715232,280.197269 L 452.6622516556291,280.197269 L 457.6158940397351,279.9923465 L 462.56953642384104,279.9923465 L 467.52317880794703,279.9923465 L 472.47682119205297,279.9923465 L 472.47682119205297,285.857758 L 467.52317880794703,295.295674 L 462.56953642384104,314.81208349999997 L 457.6158940397351,314.81208349999997 L 452.6622516556291,314.81208349999997 L 447.7086092715232,314.81208349999997 L 442.7549668874172,314.81208349999997 L 437.80132450331126,314.81208349999997 L 432.8476821192053,315.1170865 L 427.89403973509934,315.1170865 L 422.94039735099335,315.1170865 L 417.9867549668874,315.1170865 L 413.0331125827815,315.1170865 L 408.0794701986755,315.322988 L 403.12582781456956,323.682758 L 398.17218543046357,324.572758 L 393.21854304635764,359.039699 L 388.26490066225165,370.514113 L 383.3112582781457,374.8578025 L 378.3576158940397,374.8578025 L 373.4039735099338,374.8578025 L 368.4503311258278,376.3989265 L 363.49668874172187,379.956301 L 358.5430463576159,379.956301 L 353.58940397350995,379.956301 L 348.63576158940396,379.956301 L 343.682119205298,379.956301 L 338.7284768211921,402.892758 L 333.7748344370861,402.892758 L 328.8211920529801,424.0489035 L 323.8675496688742,424.0489035 L 318.91390728476824,425.9295625 L 313.96026490066225,425.9295625 L 309.00662251655626,425.9295625 L 304.05298013245033,425.9295625 L 299.0993377483444,425.9295625 L 294.1456953642384,425.9295625 L 289.1920529801324,425.9295625 L 284.2384105960265,437.385865 L 279.28476821192055,451.0968045 L 274.33112582781456,451.0968045 L 269.37748344370857,451.0968045 L 264.42384105960264,451.0968045 L 259.4701986754967,451.0968045 L 254.51655629139074,451.0968045 L 249.56291390728478,451.0968045 L 244.60927152317882,451.0968045 L 239.65562913907286,451.0968045 L 234.7019867549669,464.201209 L 229.74834437086093,464.8947415 L 224.79470198675497,469.341849 ZM 492.2913907284768,263.01408349999997 L 497.2450331125828,258.3415835 L 502.19867549668874,258.3415835 L 507.1523178807947,258.3415835 L 512.1059602649007,258.3415835 L 517.0596026490066,259.4540835 L 522.0132450331125,256.6060835 L 526.9668874172185,242.5440835 L 531.9205298013245,212.729128 L 536.8741721854304,183.48668725 L 541.8278145695365,183.48668725 L 546.7814569536424,177.69772675 L 551.7350993377484,153.22268225 L 556.6887417218543,150.9623715 L 561.6423841059602,150.6045025 L 566.5960264900662,146.801399 L 571.5496688741722,136.0329775 L 576.5033112582781,109.41630375 L 581.4569536423842,101.85706649999997 L 586.4105960264901,101.85706649999997 L 591.364238410596,101.85706649999997 L 596.317880794702,104.74956650000001 L 601.2715231788079,103.99907400000001 L 606.2251655629138,109.0856465 L 611.1788079470199,109.0856465 L 616.1324503311258,114.80503125000001 L 621.0860927152318,105.83581149999998 L 626.0397350993378,104.94136150000003 L 630.9933774834437,103.35417999999999 L 635.9470198675497,100.33425425000001 L 640.9006622516556,105.11362100000002 L 645.8543046357615,107.20325200000002 L 650.8079470198676,103.4891485 L 655.7615894039735,97.960958 L 660.7152317880794,89.395509 L 665.6688741721854,89.395509 L 670.6225165562914,89.395509 L 675.5761589403974,89.395509 L 680.5298013245033,100.31258274999999 L 685.4834437086092,98.42360224999999 L 690.4370860927153,89.59304450000002 L 695.3907284768212,88.16904449999998 L 700.3443708609271,79.66950000000003 L 705.2980132450331,73.78217224999997 L 710.2516556291391,70.80109499999998 L 715.205298013245,64.97277424999999 L 720.158940397351,64.034692 L 725.1125827814569,69.41173824999998 L 730.066225165563,75.50875000000002 L 735.0198675496689,77.60650225 L 739.9735099337748,77.60650225 L 744.9271523178808,77.60650225 L 749.8807947019867,91.78865224999998 L 754.8344370860927,101.22071649999998 L 759.7880794701987,110.90155800000002 L 759.7880794701987,119.49784549999998 L 754.8344370860927,122.67220850000001 L 749.8807947019867,122.67220850000001 L 744.9271523178808,140.610648 L 739.9735099337748,140.610648 L 735.0198675496689,140.610648 L 730.066225165563,140.610648 L 725.1125827814569,140.610648 L 720.158940397351,140.610648 L 715.205298013245,140.610648 L 710.2516556291391,140.610648 L 705.2980132450331,140.610648 L 700.3443708609271,166.632557 L 695.3907284768212,180.717519 L 690.4370860927153,180.717519 L 685.4834437086092,180.717519 L 680.5298013245033,180.717519 L 675.5761589403974,180.717519 L 670.6225165562914,180.717519 L 665.6688741721854,180.717519 L 660.7152317880794,180.717519 L 655.7615894039735,180.717519 L 650.8079470198676,180.717519 L 645.8543046357615,180.717519 L 640.9006622516556,180.717519 L 635.9470198675497,180.717519 L 630.9933774834437,180.717519 L 626.0397350993378,180.717519 L 621.0860927152318,180.717519 L 616.1324503311258,180.717519 L 611.1788079470199,180.717519 L 606.2251655629138,180.717519 L 601.2715231788079,180.717519 L 596.317880794702,180.717519 L 591.364238410596,180.717519 L 586.4105960264901,180.717519 L 581.4569536423842,180.717519 L 576.5033112582781,180.717519 L 571.5496688741722,180.717519 L 566.5960264900662,180.717519 L 561.6423841059602,180.717519 L 556.6887417218543,180.717519 L 551.7350993377484,180.717519 L 546.7814569536424,205.1925635 L 541.8278145695365,209.3943425 L 536.8741721854304,209.3943425 L 531.9205298013245,229.6675635 L 526.9668874172185,259.482519 L 522.0132450331125,267.690277 L 517.0596026490066,267.690277 L 512.1059602649007,267.690277 L 507.1523178807947,267.690277 L 502.19867549668874,267.690277 L 497.2450331125828,267.690277 L 492.2913907284768,267.690277 Z" fill="rgba(16, 163, 74, 0.1)" stroke="none" />
      <path d="M 477.43046357615896,279.9923465 L 482.3841059602649,279.952519 L 487.3377483443709,274.712288 L 487.3377483443709,267.690277 L 482.3841059602649,267.690277 L 477.43046357615896,267.690277 ZM 764.7417218543046,119.89749999999998 L 769.6953642384105,119.89749999999998 L 774.6490066225166,123.14602224999999 L 779.6026490066225,130.85569175 L 784.5562913907285,131.35774075 L 789.5099337748344,133.0042185 L 794.4635761589404,138.56282475 L 799.4172185430464,143.6113275 L 804.3708609271523,144.41097025 L 809.3245033112582,144.003773 L 814.2781456953643,143.3640855 L 819.2317880794702,143.3640855 L 824.1854304635762,143.3640855 L 829.1390728476821,143.3640855 L 834.0927152317881,157.5462355 L 839.0463576158941,152.910092 L 844,146.6776 L 844,110.87908549999997 L 839.0463576158941,110.87908549999997 L 834.0927152317881,110.87908549999997 L 829.1390728476821,110.87908549999997 L 824.1854304635762,110.87908549999997 L 819.2317880794702,110.87908549999997 L 814.2781456953643,110.87908549999997 L 809.3245033112582,110.87908549999997 L 804.3708609271523,110.87908549999997 L 799.4172185430464,110.87908549999997 L 794.4635761589404,110.87908549999997 L 789.5099337748344,109.19671849999997 L 784.5562913907285,109.19671849999997 L 779.6026490066225,108.69466949999997 L 774.6490066225166,114.26148599999999 L 769.6953642384105,114.97722399999998 L 764.7417218543046,119.49784549999998 Z" fill="rgba(239, 68, 68, 0.1)" stroke="none" />
      <path d="M 96,358.22437 L 100.95364238410596,353.7772625 L 105.90728476821192,353.08373 L 110.86092715231788,339.9793255 L 115.81456953642385,339.9793255 L 120.76821192052981,339.9793255 L 125.72185430463577,320.462916 L 130.67549668874173,311.025 L 135.6291390728477,272.598983 L 140.58278145695363,272.523511 L 145.53642384105962,272.523511 L 150.49006622516555,272.523511 L 155.44370860927154,258.8125715 L 160.39735099337747,247.356269 L 165.35099337748346,247.356269 L 170.3046357615894,246.697758 L 175.25827814569539,246.697758 L 180.21192052980132,246.697758 L 185.16556291390728,246.697758 L 190.11920529801324,233.167622 L 195.0728476821192,231.122758 L 200.02649006622516,241.5341115 L 204.98013245033113,247.1859675 L 209.9337748344371,253.437016 L 214.88741721854305,255.291331 L 219.841059602649,255.291331 L 224.79470198675497,255.291331 L 229.74834437086093,277.3759245 L 234.7019867549669,277.3759245 L 239.65562913907286,297.589471 L 244.60927152317882,296.8881955 L 249.56291390728478,273.214151 L 254.51655629139074,271.52324 L 259.4701986754967,270.099151 L 264.42384105960264,270.099151 L 269.37748344370857,270.099151 L 274.33112582781456,265.190356 L 279.28476821192055,256.962484 L 284.2384105960265,256.962484 L 289.1920529801324,256.962484 L 294.1456953642384,256.962484 L 299.0993377483444,256.962484 L 304.05298013245033,269.021984 L 309.00662251655626,269.021984 L 313.96026490066225,286.227019 L 318.91390728476824,286.227019 L 323.8675496688742,286.227019 L 328.8211920529801,285.817174 L 333.7748344370861,285.817174 L 338.7284768211921,285.817174 L 343.682119205298,285.817174 L 348.63576158940396,285.817174 L 353.58940397350995,285.737519 L 358.5430463576159,275.25705700000003 L 363.49668874172187,251.860648 L 368.4503311258278,242.515648 L 373.4039735099338,242.515648 L 378.3576158940397,242.515648 L 383.3112582781457,242.515648 L 388.26490066225165,242.515648 L 393.21854304635764,239.667648 L 398.17218543046357,225.605648 L 403.12582781456956,195.7906925 L 408.0794701986755,157.579032 L 413.0331125827815,157.579032 L 417.9867549668874,150.20289 L 422.94039735099335,125.7278455 L 427.89403973509934,121.207224 L 432.8476821192053,120.49148600000001 L 437.80132450331126,112.88527900000003 L 442.7549668874172,101.82889799999998 L 447.7086092715232,71.99195950000001 L 452.6622516556291,56.87348500000002 L 457.6158940397351,56.87348500000002 L 462.56953642384104,56.87348500000002 L 467.52317880794703,62.658484999999985 L 472.47682119205297,61.15750000000003 L 477.43046357615896,71.330645 L 482.3841059602649,71.330645 L 487.3377483443709,82.76941449999998 L 492.2913907284768,82.76941449999998 L 497.2450331125828,80.98051450000003 L 502.19867549668874,80.98051450000003 L 507.1523178807947,74.94066299999997 L 512.1059602649007,89.020018 L 517.0596026490066,93.91501799999998 L 522.0132450331125,94.09301799999997 L 526.9668874172185,94.09301799999997 L 531.9205298013245,94.09301799999997 L 536.8741721854304,94.09301799999997 L 541.8278145695365,94.09301799999997 L 546.7814569536424,94.09301799999997 L 551.7350993377484,110.14216549999998 L 556.6887417218543,106.36420450000003 L 561.6423841059602,89.59304450000002 L 566.5960264900662,86.7450445 L 571.5496688741722,78.24549999999999 L 576.5033112582781,69.09634449999999 L 581.4569536423842,63.13418999999999 L 586.4105960264901,51.47754850000001 L 591.364238410596,49.601383999999996 L 596.317880794702,60.35547650000001 L 601.2715231788079,72.54950000000002 L 606.2251655629138,76.7450045 L 611.1788079470199,76.7450045 L 616.1324503311258,76.7450045 L 621.0860927152318,105.10930450000001 L 626.0397350993378,117.92143299999998 L 630.9933774834437,127.6022745 L 635.9470198675497,138.81 L 640.9006622516556,138.81 L 645.8543046357615,145.3070445 L 650.8079470198676,153.016714 L 655.7615894039735,153.518763 L 660.7152317880794,156.8117185 L 665.6688741721854,166.246564 L 670.6225165562914,176.3435695 L 675.5761589403974,177.942855 L 680.5298013245033,177.1284605 L 685.4834437086092,175.8490855 L 690.4370860927153,175.8490855 L 695.3907284768212,175.8490855 L 700.3443708609271,175.8490855 L 705.2980132450331,175.8490855 L 710.2516556291391,161.5396655 L 715.205298013245,149.0746815" fill="none" stroke="#00a3ff" stroke-width="1" />
      <path d="M 96,423.3685875 L 100.95364238410596,418.92148 L 105.90728476821192,418.2279475 L 110.86092715231788,401.5661685 L 115.81456953642385,400.0250445 L 120.76821192052981,400.0250445 L 125.72185430463577,400.0250445 L 130.67549668874173,395.681355 L 135.6291390728477,384.206941 L 140.58278145695363,349.74 L 145.53642384105962,348.85 L 150.49006622516555,340.49023 L 155.44370860927154,326.573389 L 160.39735099337747,315.1170865 L 165.35099337748346,315.1170865 L 170.3046357615894,315.1170865 L 175.25827814569539,315.1170865 L 180.21192052980132,314.81208349999997 L 185.16556291390728,314.81208349999997 L 190.11920529801324,314.81208349999997 L 195.0728476821192,314.81208349999997 L 200.02649006622516,314.81208349999997 L 204.98013245033113,314.81208349999997 L 209.9337748344371,295.295674 L 214.88741721854305,285.857758 L 219.841059602649,247.431741 L 224.79470198675497,247.356269 L 229.74834437086093,263.621909 L 234.7019867549669,263.621909 L 239.65562913907286,263.621909 L 244.60927152317882,263.621909 L 249.56291390728478,263.621909 L 254.51655629139074,263.621909 L 259.4701986754967,263.621909 L 264.42384105960264,263.621909 L 269.37748344370857,263.621909 L 274.33112582781456,263.621909 L 279.28476821192055,263.621909 L 284.2384105960265,263.621909 L 289.1920529801324,266.07759699999997 L 294.1456953642384,270.099151 L 299.0993377483444,270.099151 L 304.05298013245033,270.099151 L 309.00662251655626,270.099151 L 313.96026490066225,274.16751899999997 L 318.91390728476824,274.16751899999997 L 323.8675496688742,274.16751899999997 L 328.8211920529801,274.16751899999997 L 333.7748344370861,274.16751899999997 L 338.7284768211921,274.16751899999997 L 343.682119205298,274.16751899999997 L 348.63576158940396,274.16751899999997 L 353.58940397350995,274.16751899999997 L 358.5430463576159,274.16751899999997 L 363.49668874172187,274.16751899999997 L 368.4503311258278,274.16751899999997 L 373.4039735099338,274.16751899999997 L 378.3576158940397,274.16751899999997 L 383.3112582781457,274.16751899999997 L 388.26490066225165,276.392519 L 393.21854304635764,273.544519 L 398.17218543046357,259.482519 L 403.12582781456956,229.6675635 L 408.0794701986755,209.3943425 L 413.0331125827815,209.3943425 L 417.9867549668874,205.1925635 L 422.94039735099335,180.717519 L 427.89403973509934,180.717519 L 432.8476821192053,180.717519 L 437.80132450331126,180.717519 L 442.7549668874172,170.237057 L 447.7086092715232,146.840648 L 452.6622516556291,146.840648 L 457.6158940397351,146.840648 L 462.56953642384104,146.840648 L 467.52317880794703,146.840648 L 472.47682119205297,146.840648 L 477.43046357615896,146.840648 L 482.3841059602649,146.840648 L 487.3377483443709,146.840648 L 492.2913907284768,128.9022085 L 497.2450331125828,128.9022085 L 502.19867549668874,125.7278455 L 507.1523178807947,125.7278455 L 512.1059602649007,121.207224 L 517.0596026490066,120.49148600000001 L 522.0132450331125,112.88527900000003 L 526.9668874172185,101.82889799999998 L 531.9205298013245,84.69799999999998 L 536.8741721854304,84.69799999999998 L 541.8278145695365,84.69799999999998 L 546.7814569536424,84.69799999999998 L 551.7350993377484,90.483 L 556.6887417218543,90.483 L 561.6423841059602,89.59304450000002 L 566.5960264900662,89.59304450000002 L 571.5496688741722,81.0935 L 576.5033112582781,78.46800000000002 L 581.4569536423842,78.46800000000002 L 586.4105960264901,78.46800000000002 L 591.364238410596,78.46800000000002 L 596.317880794702,78.46800000000002 L 601.2715231788079,78.46800000000002 L 606.2251655629138,78.46800000000002 L 611.1788079470199,78.46800000000002 L 616.1324503311258,78.46800000000002 L 621.0860927152318,78.46800000000002 L 626.0397350993378,84.51999999999998 L 630.9933774834437,94.20084150000002 L 635.9470198675497,100.98500000000001 L 640.9006622516556,100.98500000000001 L 645.8543046357615,100.98500000000001 L 650.8079470198676,108.69466949999997 L 655.7615894039735,109.19671849999997 L 660.7152317880794,109.19671849999997 L 665.6688741721854,110.87908549999997 L 670.6225165562914,110.87908549999997 L 675.5761589403974,110.87908549999997 L 680.5298013245033,110.87908549999997 L 685.4834437086092,110.87908549999997 L 690.4370860927153,110.87908549999997 L 695.3907284768212,110.87908549999997 L 700.3443708609271,110.87908549999997 L 705.2980132450331,139.2433855 L 710.2516556291391,144.2805185 L 715.205298013245,144.2805185" fill="none" stroke="#ff4d4d" stroke-width="1" />
      <path d="M -32.79470198675497,553.751852 L -27.84105960264901,545.6565009999999 L -22.88741721854305,557.070217 L -17.933774834437088,562.785797 L -12.980132450331126,548.08095 L -8.026490066225165,553.571627 L -3.0728476821192032,546.52167 L 1.8807947019867584,551.118075 L 6.83443708609272,525.547307 L 11.788079470198682,439.924323 L 16.74172185430463,429.731153 L 21.69536423841059,429.484089 L 26.649006622516552,412.142617 L 31.602649006622514,413.220852 L 36.556291390728475,424.61036 L 41.50993377483444,419.805072 L 46.4635761589404,427.614911 L 51.41721854304636,423.670075 L 56.370860927152314,374.718918 L 61.324503311258276,372.986177 L 66.27814569536423,384.772002 L 71.23178807947019,408.925 L 76.18543046357615,411.713192 L 81.13907284768212,390.479661 L 86.09271523178808,380.900769 L 91.04635761589404,285.35206 L 96,295.130579 L 100.95364238410596,270.530089 L 105.90728476821192,273.723943 L 110.86092715231788,266.72391500000003 L 115.81456953642385,257.166828 L 120.76821192052981,272.799411 L 125.72185430463577,277.63291200000003 L 130.67549668874173,280.035378 L 135.6291390728477,284.586571 L 140.58278145695363,247.62941 L 145.53642384105962,263.306493 L 150.49006622516555,253.02058499999998 L 155.44370860927154,223.53711 L 160.39735099337747,195.154743 L 165.35099337748346,262.519911 L 170.3046357615894,253.816868 L 175.25827814569539,237.42111 L 180.21192052980132,233.989804 L 185.16556291390728,226.780804 L 190.11920529801324,225.641515 L 195.0728476821192,271.40576 L 200.02649006622516,290.112492 L 204.98013245033113,280.242748 L 209.9337748344371,270.49039500000003 L 214.88741721854305,281.196116 L 219.841059602649,274.480087 L 224.79470198675497,291.504452 L 229.74834437086093,323.564032 L 234.7019867549669,281.464184 L 239.65562913907286,265.635 L 244.60927152317882,266.79200000000003 L 249.56291390728478,211.459721 L 254.51655629139074,206.341598 L 259.4701986754967,228.603257 L 264.42384105960264,274.09000000000003 L 269.37748344370857,262.698 L 274.33112582781456,270.809193 L 279.28476821192055,265.987707 L 284.2384105960265,251.504381 L 289.1920529801324,268.63163 L 294.1456953642384,271.066403 L 299.0993377483444,270.7169 L 304.05298013245033,278.472805 L 309.00662251655626,293.437621 L 313.96026490066225,308.500604 L 318.91390728476824,258.079879 L 323.8675496688742,257.567773 L 328.8211920529801,242.939911 L 333.7748344370861,246.589 L 338.7284768211921,245.893198 L 343.682119205298,242.828127 L 348.63576158940396,232.085827 L 353.58940397350995,252.37195300000002 L 358.5430463576159,273.886101 L 363.49668874172187,240.64736 L 368.4503311258278,218.116565 L 373.4039735099338,232.288925 L 378.3576158940397,231.922957 L 383.3112582781457,219.788964 L 388.26490066225165,218.23093 L 393.21854304635764,203.779555 L 398.17218543046357,182.42 L 403.12582781456956,121.90008899999998 L 408.0794701986755,89.63865700000002 L 413.0331125827815,88.35251799999998 L 417.9867549668874,68.039514 L 422.94039735099335,48.77893499999999 L 427.89403973509934,65.50159000000002 L 432.8476821192053,63.39522699999998 L 437.80132450331126,52.40906699999999 L 442.7549668874172,65.23067400000002 L 447.7086092715232,63.046347000000026 L 452.6622516556291,74.34258299999999 L 457.6158940397351,82.989912 L 462.56953642384104,58.365391999999986 L 467.52317880794703,76.50999999999999 L 472.47682119205297,77.31189 L 477.43046357615896,79.52870200000001 L 482.3841059602649,74.606201 L 487.3377483443709,56.50119799999999 L 492.2913907284768,62.64540199999999 L 497.2450331125828,64.078213 L 502.19867549668874,58.88346100000001 L 507.1523178807947,69.14560599999999 L 512.1059602649007,136.686193 L 517.0596026490066,147.543837 L 522.0132450331125,124.37918400000001 L 526.9668874172185,118.33999999999997 L 531.9205298013245,124.87767299999999 L 536.8741721854304,117.626665 L 541.8278145695365,89.89488799999998 L 546.7814569536424,92.65557899999999 L 551.7350993377484,93.96592600000002 L 556.6887417218543,58.70999999999998 L 561.6423841059602,60.045000000000016 L 566.5960264900662,45.35991100000001 L 571.5496688741722,12.031457999999986 L 576.5033112582781,65.82225699999998 L 581.4569536423842,83.94808599999999 L 586.4105960264901,84.25807300000002" fill="none" stroke="#16a34a" stroke-width="1" stroke-dasharray="2 2"/>
      <path d="M 224.79470198675497,390.79647875 L 229.74834437086093,386.34937125 L 234.7019867549669,385.65583875 L 239.65562913907286,370.772747 L 244.60927152317882,370.002185 L 249.56291390728478,370.002185 L 254.51655629139074,360.24398025 L 259.4701986754967,353.3531775 L 264.42384105960264,328.402962 L 269.37748344370857,311.1317555 L 274.33112582781456,310.6867555 L 279.28476821192055,306.5068705 L 284.2384105960265,292.69298025 L 289.1920529801324,281.23667775 L 294.1456953642384,281.23667775 L 299.0993377483444,280.90742224999997 L 304.05298013245033,280.90742224999997 L 309.00662251655626,280.75492075 L 313.96026490066225,280.75492075 L 318.91390728476824,273.98985275 L 323.8675496688742,272.96742075 L 328.8211920529801,278.1730975 L 333.7748344370861,280.9990255 L 338.7284768211921,274.366345 L 343.682119205298,270.5745445 L 348.63576158940396,251.361536 L 353.58940397350995,251.3238 L 358.5430463576159,270.49891675000003 L 363.49668874172187,270.49891675000003 L 368.4503311258278,280.60569 L 373.4039735099338,280.25505225 L 378.3576158940397,268.41803 L 383.3112582781457,267.5725745 L 388.26490066225165,266.86053 L 393.21854304635764,266.86053 L 398.17218543046357,266.86053 L 403.12582781456956,264.4061325 L 408.0794701986755,260.2921965 L 413.0331125827815,260.2921965 L 417.9867549668874,261.5200405 L 422.94039735099335,263.5308175 L 427.89403973509934,263.5308175 L 432.8476821192053,269.5605675 L 437.80132450331126,269.5605675 L 442.7549668874172,280.197269 L 447.7086092715232,280.197269 L 452.6622516556291,280.197269 L 457.6158940397351,279.9923465 L 462.56953642384104,279.9923465 L 467.52317880794703,279.9923465 L 472.47682119205297,279.9923465 L 477.43046357615896,279.9923465 L 482.3841059602649,279.952519 L 487.3377483443709,274.712288 L 492.2913907284768,263.01408349999997 L 497.2450331125828,258.3415835 L 502.19867549668874,258.3415835 L 507.1523178807947,258.3415835 L 512.1059602649007,258.3415835 L 517.0596026490066,259.4540835 L 522.0132450331125,256.6060835 L 526.9668874172185,242.5440835 L 531.9205298013245,212.729128 L 536.8741721854304,183.48668725 L 541.8278145695365,183.48668725 L 546.7814569536424,177.69772675 L 551.7350993377484,153.22268225 L 556.6887417218543,150.9623715 L 561.6423841059602,150.6045025 L 566.5960264900662,146.801399 L 571.5496688741722,136.0329775 L 576.5033112582781,109.41630375 L 581.4569536423842,101.85706649999997 L 586.4105960264901,101.85706649999997 L 591.364238410596,101.85706649999997 L 596.317880794702,104.74956650000001 L 601.2715231788079,103.99907400000001 L 606.2251655629138,109.0856465 L 611.1788079470199,109.0856465 L 616.1324503311258,114.80503125000001 L 621.0860927152318,105.83581149999998 L 626.0397350993378,104.94136150000003 L 630.9933774834437,103.35417999999999 L 635.9470198675497,100.33425425000001 L 640.9006622516556,105.11362100000002 L 645.8543046357615,107.20325200000002 L 650.8079470198676,103.4891485 L 655.7615894039735,97.960958 L 660.7152317880794,89.395509 L 665.6688741721854,89.395509 L 670.6225165562914,89.395509 L 675.5761589403974,89.395509 L 680.5298013245033,100.31258274999999 L 685.4834437086092,98.42360224999999 L 690.4370860927153,89.59304450000002 L 695.3907284768212,88.16904449999998 L 700.3443708609271,79.66950000000003 L 705.2980132450331,73.78217224999997 L 710.2516556291391,70.80109499999998 L 715.205298013245,64.97277424999999 L 720.158940397351,64.034692 L 725.1125827814569,69.41173824999998 L 730.066225165563,75.50875000000002 L 735.0198675496689,77.60650225 L 739.9735099337748,77.60650225 L 744.9271523178808,77.60650225 L 749.8807947019867,91.78865224999998 L 754.8344370860927,101.22071649999998 L 759.7880794701987,110.90155800000002 L 764.7417218543046,119.89749999999998 L 769.6953642384105,119.89749999999998 L 774.6490066225166,123.14602224999999 L 779.6026490066225,130.85569175 L 784.5562913907285,131.35774075 L 789.5099337748344,133.0042185 L 794.4635761589404,138.56282475 L 799.4172185430464,143.6113275 L 804.3708609271523,144.41097025 L 809.3245033112582,144.003773 L 814.2781456953643,143.3640855 L 819.2317880794702,143.3640855 L 824.1854304635762,143.3640855 L 829.1390728476821,143.3640855 L 834.0927152317881,157.5462355 L 839.0463576158941,152.910092 L 844,146.6776" fill="none" stroke="rgba(239, 68, 68, 0.5)" stroke-width="1" />
      <path d="M 224.79470198675497,469.341849 L 229.74834437086093,464.8947415 L 234.7019867549669,464.201209 L 239.65562913907286,451.0968045 L 244.60927152317882,451.0968045 L 249.56291390728478,451.0968045 L 254.51655629139074,451.0968045 L 259.4701986754967,451.0968045 L 264.42384105960264,451.0968045 L 269.37748344370857,451.0968045 L 274.33112582781456,451.0968045 L 279.28476821192055,451.0968045 L 284.2384105960265,437.385865 L 289.1920529801324,425.9295625 L 294.1456953642384,425.9295625 L 299.0993377483444,425.9295625 L 304.05298013245033,425.9295625 L 309.00662251655626,425.9295625 L 313.96026490066225,425.9295625 L 318.91390728476824,425.9295625 L 323.8675496688742,424.0489035 L 328.8211920529801,424.0489035 L 333.7748344370861,402.892758 L 338.7284768211921,402.892758 L 343.682119205298,379.956301 L 348.63576158940396,379.956301 L 353.58940397350995,379.956301 L 358.5430463576159,379.956301 L 363.49668874172187,379.956301 L 368.4503311258278,376.3989265 L 373.4039735099338,374.8578025 L 378.3576158940397,374.8578025 L 383.3112582781457,374.8578025 L 388.26490066225165,370.514113 L 393.21854304635764,359.039699 L 398.17218543046357,324.572758 L 403.12582781456956,323.682758 L 408.0794701986755,315.322988 L 413.0331125827815,315.1170865 L 417.9867549668874,315.1170865 L 422.94039735099335,315.1170865 L 427.89403973509934,315.1170865 L 432.8476821192053,315.1170865 L 437.80132450331126,314.81208349999997 L 442.7549668874172,314.81208349999997 L 447.7086092715232,314.81208349999997 L 452.6622516556291,314.81208349999997 L 457.6158940397351,314.81208349999997 L 462.56953642384104,314.81208349999997 L 467.52317880794703,295.295674 L 472.47682119205297,285.857758 L 477.43046357615896,267.690277 L 482.3841059602649,267.690277 L 487.3377483443709,267.690277 L 492.2913907284768,267.690277 L 497.2450331125828,267.690277 L 502.19867549668874,267.690277 L 507.1523178807947,267.690277 L 512.1059602649007,267.690277 L 517.0596026490066,267.690277 L 522.0132450331125,267.690277 L 526.9668874172185,259.482519 L 531.9205298013245,229.6675635 L 536.8741721854304,209.3943425 L 541.8278145695365,209.3943425 L 546.7814569536424,205.1925635 L 551.7350993377484,180.717519 L 556.6887417218543,180.717519 L 561.6423841059602,180.717519 L 566.5960264900662,180.717519 L 571.5496688741722,180.717519 L 576.5033112582781,180.717519 L 581.4569536423842,180.717519 L 586.4105960264901,180.717519 L 591.364238410596,180.717519 L 596.317880794702,180.717519 L 601.2715231788079,180.717519 L 606.2251655629138,180.717519 L 611.1788079470199,180.717519 L 616.1324503311258,180.717519 L 621.0860927152318,180.717519 L 626.0397350993378,180.717519 L 630.9933774834437,180.717519 L 635.9470198675497,180.717519 L 640.9006622516556,180.717519 L 645.8543046357615,180.717519 L 650.8079470198676,180.717519 L 655.7615894039735,180.717519 L 660.7152317880794,180.717519 L 665.6688741721854,180.717519 L 670.6225165562914,180.717519 L 675.5761589403974,180.717519 L 680.5298013245033,180.717519 L 685.4834437086092,180.717519 L 690.4370860927153,180.717519 L 695.3907284768212,180.717519 L 700.3443708609271,166.632557 L 705.2980132450331,140.610648 L 710.2516556291391,140.610648 L 715.205298013245,140.610648 L 720.158940397351,140.610648 L 725.1125827814569,140.610648 L 730.066225165563,140.610648 L 735.0198675496689,140.610648 L 739.9735099337748,140.610648 L 744.9271523178808,140.610648 L 749.8807947019867,122.67220850000001 L 754.8344370860927,122.67220850000001 L 759.7880794701987,119.49784549999998 L 764.7417218543046,119.49784549999998 L 769.6953642384105,114.97722399999998 L 774.6490066225166,114.26148599999999 L 779.6026490066225,108.69466949999997 L 784.5562913907285,109.19671849999997 L 789.5099337748344,109.19671849999997 L 794.4635761589404,110.87908549999997 L 799.4172185430464,110.87908549999997 L 804.3708609271523,110.87908549999997 L 809.3245033112582,110.87908549999997 L 814.2781456953643,110.87908549999997 L 819.2317880794702,110.87908549999997 L 824.1854304635762,110.87908549999997 L 829.1390728476821,110.87908549999997 L 834.0927152317881,110.87908549999997 L 839.0463576158941,110.87908549999997 L 844,110.87908549999997" fill="none" stroke="rgba(16, 163, 74, 0.5)" stroke-width="1" />
    
        
        
        <line x1="96" y1="276.572566" x2="96" y2="305.817966" stroke="#9ca3af" stroke-width="1"/><line x1="100.95364238410596" y1="266.975874" x2="100.95364238410596" y2="295.139479" stroke="#9ca3af" stroke-width="1"/><line x1="105.90728476821192" y1="265.58880899999997" x2="105.90728476821192" y2="287.037453" stroke="#9ca3af" stroke-width="1"/><line x1="110.86092715231788" y1="239.38" x2="110.86092715231788" y2="292.59407899999997" stroke="#9ca3af" stroke-width="1"/><line x1="115.81456953642385" y1="247.173196" x2="115.81456953642385" y2="287.330174" stroke="#9ca3af" stroke-width="1"/><line x1="120.76821192052981" y1="257.18" x2="120.76821192052981" y2="284.133917" stroke="#9ca3af" stroke-width="1"/><line x1="125.72185430463577" y1="268.750089" x2="125.72185430463577" y2="305.667022" stroke="#9ca3af" stroke-width="1"/><line x1="130.67549668874173" y1="264.3" x2="130.67549668874173" y2="287.792707" stroke="#9ca3af" stroke-width="1"/><line x1="135.6291390728477" y1="277.926968" x2="135.6291390728477" y2="291.69989599999997" stroke="#9ca3af" stroke-width="1"/><line x1="140.58278145695363" y1="246.339978" x2="140.58278145695363" y2="284.586749" stroke="#9ca3af" stroke-width="1"/><line x1="145.53642384105962" y1="240.987429" x2="145.53642384105962" y2="304.35" stroke="#9ca3af" stroke-width="1"/><line x1="150.49006622516555" y1="244.119161" x2="150.49006622516555" y2="277.28972799999997" stroke="#9ca3af" stroke-width="1"/><line x1="155.44370860927154" y1="211.958121" x2="155.44370860927154" y2="266.596823" stroke="#9ca3af" stroke-width="1"/><line x1="160.39735099337747" y1="189.045516" x2="160.39735099337747" y2="250.95" stroke="#9ca3af" stroke-width="1"/><line x1="165.35099337748346" y1="193.956892" x2="165.35099337748346" y2="268.460394" stroke="#9ca3af" stroke-width="1"/><line x1="170.3046357615894" y1="233.595178" x2="170.3046357615894" y2="266.965016" stroke="#9ca3af" stroke-width="1"/><line x1="175.25827814569539" y1="234.251553" x2="175.25827814569539" y2="269.06710699999996" stroke="#9ca3af" stroke-width="1"/><line x1="180.21192052980132" y1="219.907156" x2="180.21192052980132" y2="242.05" stroke="#9ca3af" stroke-width="1"/><line x1="185.16556291390728" y1="206.458989" x2="185.16556291390728" y2="261.329981" stroke="#9ca3af" stroke-width="1"/><line x1="190.11920529801324" y1="218.752381" x2="190.11920529801324" y2="246.5" stroke="#9ca3af" stroke-width="1"/><line x1="195.0728476821192" y1="216.553547" x2="195.0728476821192" y2="273.2" stroke="#9ca3af" stroke-width="1"/><line x1="200.02649006622516" y1="260.651" x2="200.02649006622516" y2="294.02270699999997" stroke="#9ca3af" stroke-width="1"/><line x1="204.98013245033113" y1="276.816782" x2="204.98013245033113" y2="300.41504299999997" stroke="#9ca3af" stroke-width="1"/><line x1="209.9337748344371" y1="267.867031" x2="209.9337748344371" y2="291.899968" stroke="#9ca3af" stroke-width="1"/><line x1="214.88741721854305" y1="270.49030600000003" x2="214.88741721854305" y2="304.123673" stroke="#9ca3af" stroke-width="1"/><line x1="219.841059602649" y1="256.98064" x2="219.841059602649" y2="289.150491" stroke="#9ca3af" stroke-width="1"/><line x1="224.79470198675497" y1="262.52" x2="224.79470198675497" y2="294.56" stroke="#9ca3af" stroke-width="1"/><line x1="229.74834437086093" y1="273.2" x2="229.74834437086093" y2="338.198302" stroke="#9ca3af" stroke-width="1"/><line x1="234.7019867549669" y1="265.785944" x2="234.7019867549669" y2="328.380712" stroke="#9ca3af" stroke-width="1"/><line x1="239.65562913907286" y1="262.075" x2="239.65562913907286" y2="286.194" stroke="#9ca3af" stroke-width="1"/><line x1="244.60927152317882" y1="255.578089" x2="244.60927152317882" y2="273.744146" stroke="#9ca3af" stroke-width="1"/><line x1="249.56291390728478" y1="208.23" x2="249.56291390728478" y2="270.77831000000003" stroke="#9ca3af" stroke-width="1"/><line x1="254.51655629139074" y1="204.848178" x2="254.51655629139074" y2="228.546475" stroke="#9ca3af" stroke-width="1"/><line x1="259.4701986754967" y1="202" x2="259.4701986754967" y2="234.457588" stroke="#9ca3af" stroke-width="1"/><line x1="264.42384105960264" y1="226.45008" x2="264.42384105960264" y2="274.35913600000003" stroke="#9ca3af" stroke-width="1"/><line x1="269.37748344370857" y1="260.336474" x2="269.37748344370857" y2="311.92496800000004" stroke="#9ca3af" stroke-width="1"/><line x1="274.33112582781456" y1="260.535478" x2="274.33112582781456" y2="285.973814" stroke="#9ca3af" stroke-width="1"/><line x1="279.28476821192055" y1="262.941415" x2="279.28476821192055" y2="283.34697900000003" stroke="#9ca3af" stroke-width="1"/><line x1="284.2384105960265" y1="226.119" x2="284.2384105960265" y2="274.91609800000003" stroke="#9ca3af" stroke-width="1"/><line x1="289.1920529801324" y1="234.56243" x2="289.1920529801324" y2="286.051956" stroke="#9ca3af" stroke-width="1"/><line x1="294.1456953642384" y1="260.202974" x2="294.1456953642384" y2="289.22" stroke="#9ca3af" stroke-width="1"/><line x1="299.0993377483444" y1="264.300089" x2="299.0993377483444" y2="282.1" stroke="#9ca3af" stroke-width="1"/><line x1="304.05298013245033" y1="245.235399" x2="304.05298013245033" y2="293.04433" stroke="#9ca3af" stroke-width="1"/><line x1="309.00662251655626" y1="269.44624699999997" x2="309.00662251655626" y2="308.8" stroke="#9ca3af" stroke-width="1"/><line x1="313.96026490066225" y1="278.248258" x2="313.96026490066225" y2="346.335038" stroke="#9ca3af" stroke-width="1"/><line x1="318.91390728476824" y1="250.06" x2="318.91390728476824" y2="325.374114" stroke="#9ca3af" stroke-width="1"/><line x1="323.8675496688742" y1="256.359153" x2="323.8675496688742" y2="272.774313" stroke="#9ca3af" stroke-width="1"/><line x1="328.8211920529801" y1="225.29931" x2="328.8211920529801" y2="258.959021" stroke="#9ca3af" stroke-width="1"/><line x1="333.7748344370861" y1="231.473329" x2="333.7748344370861" y2="251.839911" stroke="#9ca3af" stroke-width="1"/><line x1="338.7284768211921" y1="237.99338" x2="338.7284768211921" y2="251.651409" stroke="#9ca3af" stroke-width="1"/><line x1="343.682119205298" y1="239.562361" x2="343.682119205298" y2="246.95123" stroke="#9ca3af" stroke-width="1"/><line x1="348.63576158940396" y1="228.7" x2="348.63576158940396" y2="244.48059" stroke="#9ca3af" stroke-width="1"/><line x1="353.58940397350995" y1="225.14" x2="353.58940397350995" y2="252.37195300000002" stroke="#9ca3af" stroke-width="1"/><line x1="358.5430463576159" y1="248.28" x2="358.5430463576159" y2="277.314025" stroke="#9ca3af" stroke-width="1"/><line x1="363.49668874172187" y1="225.902641" x2="363.49668874172187" y2="278.581296" stroke="#9ca3af" stroke-width="1"/><line x1="368.4503311258278" y1="206.45" x2="368.4503311258278" y2="240.647449" stroke="#9ca3af" stroke-width="1"/><line x1="373.4039735099338" y1="216.151" x2="373.4039735099338" y2="242.704417" stroke="#9ca3af" stroke-width="1"/><line x1="378.3576158940397" y1="228.442078" x2="378.3576158940397" y2="235.317417" stroke="#9ca3af" stroke-width="1"/><line x1="383.3112582781457" y1="214.907136" x2="383.3112582781457" y2="236.355691" stroke="#9ca3af" stroke-width="1"/><line x1="388.26490066225165" y1="211.79" x2="388.26490066225165" y2="227.314448" stroke="#9ca3af" stroke-width="1"/><line x1="393.21854304635764" y1="200.754" x2="393.21854304635764" y2="225.882972" stroke="#9ca3af" stroke-width="1"/><line x1="398.17218543046357" y1="172.63" x2="398.17218543046357" y2="210.670558" stroke="#9ca3af" stroke-width="1"/><line x1="403.12582781456956" y1="113.000089" x2="403.12582781456956" y2="188.557796" stroke="#9ca3af" stroke-width="1"/><line x1="408.0794701986755" y1="72.45364699999999" x2="408.0794701986755" y2="128.883919" stroke="#9ca3af" stroke-width="1"/><line x1="413.0331125827815" y1="80.07" x2="413.0331125827815" y2="93.08135499999997" stroke="#9ca3af" stroke-width="1"/><line x1="417.9867549668874" y1="64.05008900000001" x2="417.9867549668874" y2="89.446684" stroke="#9ca3af" stroke-width="1"/><line x1="422.94039735099335" y1="15.100000000000023" x2="422.94039735099335" y2="71.22411199999999" stroke="#9ca3af" stroke-width="1"/><line x1="427.89403973509934" y1="48.77884599999999" x2="427.89403973509934" y2="98.64697000000001" stroke="#9ca3af" stroke-width="1"/><line x1="432.8476821192053" y1="43.68261699999999" x2="432.8476821192053" y2="73.26862" stroke="#9ca3af" stroke-width="1"/><line x1="437.80132450331126" y1="33.62294700000001" x2="437.80132450331126" y2="72.46494999999999" stroke="#9ca3af" stroke-width="1"/><line x1="442.7549668874172" y1="26.670000000000016" x2="442.7549668874172" y2="80.95999999999998" stroke="#9ca3af" stroke-width="1"/><line x1="447.7086092715232" y1="53.97947199999999" x2="447.7086092715232" y2="68.5" stroke="#9ca3af" stroke-width="1"/><line x1="452.6622516556291" y1="50.881381999999974" x2="452.6622516556291" y2="83.63" stroke="#9ca3af" stroke-width="1"/><line x1="457.6158940397351" y1="49.54753899999997" x2="457.6158940397351" y2="93.22215299999999" stroke="#9ca3af" stroke-width="1"/><line x1="462.56953642384104" y1="56.485089000000016" x2="462.56953642384104" y2="95.64499999999998" stroke="#9ca3af" stroke-width="1"/><line x1="467.52317880794703" y1="58.404552000000024" x2="467.52317880794703" y2="93.41163399999999" stroke="#9ca3af" stroke-width="1"/><line x1="472.47682119205297" y1="64.20281299999999" x2="472.47682119205297" y2="94.31" stroke="#9ca3af" stroke-width="1"/><line x1="477.43046357615896" y1="74.73008900000002" x2="477.43046357615896" y2="115.99128999999999" stroke="#9ca3af" stroke-width="1"/><line x1="482.3841059602649" y1="71.796382" x2="482.3841059602649" y2="85.76074899999998" stroke="#9ca3af" stroke-width="1"/><line x1="487.3377483443709" y1="52.879699000000016" x2="487.3377483443709" y2="76.098998" stroke="#9ca3af" stroke-width="1"/><line x1="492.2913907284768" y1="50.673032999999975" x2="492.2913907284768" y2="69.21191099999999" stroke="#9ca3af" stroke-width="1"/><line x1="497.2450331125828" y1="45.969739000000004" x2="497.2450331125828" y2="74.72991100000002" stroke="#9ca3af" stroke-width="1"/><line x1="502.19867549668874" y1="50.777874999999995" x2="502.19867549668874" y2="84.577405" stroke="#9ca3af" stroke-width="1"/><line x1="507.1523178807947" y1="33.89003600000001" x2="507.1523178807947" y2="72.94999999999999" stroke="#9ca3af" stroke-width="1"/><line x1="512.1059602649007" y1="65.98833100000002" x2="512.1059602649007" y2="144.15" stroke="#9ca3af" stroke-width="1"/><line x1="517.0596026490066" y1="124.90027900000001" x2="517.0596026490066" y2="153.94" stroke="#9ca3af" stroke-width="1"/><line x1="522.0132450331125" y1="117.45907799999998" x2="522.0132450331125" y2="154.296" stroke="#9ca3af" stroke-width="1"/><line x1="526.9668874172185" y1="108.56388399999997" x2="526.9668874172185" y2="128.13" stroke="#9ca3af" stroke-width="1"/><line x1="531.9205298013245" y1="111.45344699999998" x2="531.9205298013245" y2="148.6" stroke="#9ca3af" stroke-width="1"/><line x1="536.8741721854304" y1="108.906" x2="536.8741721854304" y2="135.552689" stroke="#9ca3af" stroke-width="1"/><line x1="541.8278145695365" y1="84.94924700000001" x2="541.8278145695365" y2="123.62837999999999" stroke="#9ca3af" stroke-width="1"/><line x1="546.7814569536424" y1="82.74008900000001" x2="546.7814569536424" y2="100.31509699999998" stroke="#9ca3af" stroke-width="1"/><line x1="551.7350993377484" y1="77.98339499999997" x2="551.7350993377484" y2="96.562768" stroke="#9ca3af" stroke-width="1"/><line x1="556.6887417218543" y1="58.43240900000001" x2="556.6887417218543" y2="95.19999999999999" stroke="#9ca3af" stroke-width="1"/><line x1="561.6423841059602" y1="24.89008899999999" x2="561.6423841059602" y2="68.40779600000002" stroke="#9ca3af" stroke-width="1"/><line x1="566.5960264900662" y1="43.579999999999984" x2="566.5960264900662" y2="61.692924000000005" stroke="#9ca3af" stroke-width="1"/><line x1="571.5496688741722" y1="7.8910000000000196" x2="571.5496688741722" y2="56.929911000000004" stroke="#9ca3af" stroke-width="1"/><line x1="576.5033112582781" y1="2.6399999999999864" x2="576.5033112582781" y2="80.07" stroke="#9ca3af" stroke-width="1"/><line x1="581.4569536423842" y1="59.368600000000015" x2="581.4569536423842" y2="94.535526" stroke="#9ca3af" stroke-width="1"/><line x1="586.4105960264901" y1="76.214965" x2="586.4105960264901" y2="92.16118399999999" stroke="#9ca3af" stroke-width="1"/><line x1="591.364238410596" y1="69.44286599999998" x2="591.364238410596" y2="90.107509" stroke="#9ca3af" stroke-width="1"/><line x1="596.317880794702" y1="79.774609" x2="596.317880794702" y2="118.07095299999997" stroke="#9ca3af" stroke-width="1"/><line x1="601.2715231788079" y1="78.29000000000002" x2="601.2715231788079" y2="142.459" stroke="#9ca3af" stroke-width="1"/><line x1="606.2251655629138" y1="120.05022400000001" x2="606.2251655629138" y2="150.850009" stroke="#9ca3af" stroke-width="1"/><line x1="611.1788079470199" y1="116.603432" x2="611.1788079470199" y2="144.15" stroke="#9ca3af" stroke-width="1"/><line x1="616.1324503311258" y1="91.284089" x2="616.1324503311258" y2="146.031638" stroke="#9ca3af" stroke-width="1"/><line x1="621.0860927152318" y1="97.87" x2="621.0860927152318" y2="128.13" stroke="#9ca3af" stroke-width="1"/><line x1="626.0397350993378" y1="113.374957" x2="626.0397350993378" y2="166.4" stroke="#9ca3af" stroke-width="1"/><line x1="630.9933774834437" y1="133.568968" x2="630.9933774834437" y2="185.761683" stroke="#9ca3af" stroke-width="1"/><line x1="635.9470198675497" y1="150.468911" x2="635.9470198675497" y2="199.33" stroke="#9ca3af" stroke-width="1"/><line x1="640.9006622516556" y1="141.298796" x2="640.9006622516556" y2="170.315021" stroke="#9ca3af" stroke-width="1"/><line x1="645.8543046357615" y1="136.767539" x2="645.8543046357615" y2="168.18" stroke="#9ca3af" stroke-width="1"/><line x1="650.8079470198676" y1="148.805234" x2="650.8079470198676" y2="214.749339" stroke="#9ca3af" stroke-width="1"/><line x1="655.7615894039735" y1="197.227998" x2="655.7615894039735" y2="215.753437" stroke="#9ca3af" stroke-width="1"/><line x1="660.7152317880794" y1="189.952604" x2="660.7152317880794" y2="208.649546" stroke="#9ca3af" stroke-width="1"/><line x1="665.6688741721854" y1="184.849789" x2="665.6688741721854" y2="219.118171" stroke="#9ca3af" stroke-width="1"/><line x1="670.6225165562914" y1="154.303654" x2="670.6225165562914" y2="195.839331" stroke="#9ca3af" stroke-width="1"/><line x1="675.5761589403974" y1="142.370089" x2="675.5761589403974" y2="164.244153" stroke="#9ca3af" stroke-width="1"/><line x1="680.5298013245033" y1="135.13875" x2="680.5298013245033" y2="175.655911" stroke="#9ca3af" stroke-width="1"/><line x1="685.4834437086092" y1="132.58" x2="685.4834437086092" y2="179.172568" stroke="#9ca3af" stroke-width="1"/><line x1="690.4370860927153" y1="163.73" x2="690.4370860927153" y2="178.86" stroke="#9ca3af" stroke-width="1"/><line x1="695.3907284768212" y1="151.259053" x2="695.3907284768212" y2="177.277046" stroke="#9ca3af" stroke-width="1"/><line x1="700.3443708609271" y1="141.967275" x2="700.3443708609271" y2="165.106563" stroke="#9ca3af" stroke-width="1"/><line x1="705.2980132450331" y1="141.948941" x2="705.2980132450331" y2="171.194163" stroke="#9ca3af" stroke-width="1"/><line x1="710.2516556291391" y1="127.24000000000001" x2="710.2516556291391" y2="168.298815" stroke="#9ca3af" stroke-width="1"/><line x1="715.205298013245" y1="118.97679499999998" x2="715.205298013245" y2="132.0549" stroke="#9ca3af" stroke-width="1"/>
        <rect x="94.21904761904761" y="285.35206" width="3.561904761904762" height="9.778519000000017" fill="#ef4444"/><rect x="99.17269000315358" y="270.530089" width="3.561904761904762" height="24.415103000000045" fill="#16a34a"/><rect x="104.12633238725954" y="270.53" width="3.561904761904762" height="3.193943000000047" fill="#ef4444"/><rect x="109.0799747713655" y="266.72391500000003" width="3.561904761904762" height="6.637886999999978" fill="#16a34a"/><rect x="114.03361715547146" y="257.166828" width="3.561904761904762" height="9.556998000000021" fill="#16a34a"/><rect x="118.98725953957742" y="257.2423" width="3.561904761904762" height="15.55711100000002" fill="#ef4444"/><rect x="123.94090192368338" y="272.799411" width="3.561904761904762" height="4.8335010000000125" fill="#ef4444"/><rect x="128.89454430778935" y="277.63282300000003" width="3.561904761904762" height="2.40255499999995" fill="#ef4444"/><rect x="133.8481866918953" y="280.035378" width="3.561904761904762" height="4.551193000000012" fill="#ef4444"/><rect x="138.80182907600124" y="247.62941" width="3.561904761904762" height="36.95707199999998" fill="#16a34a"/><rect x="143.75547146010723" y="248.292104" width="3.561904761904762" height="15.014388999999994" fill="#ef4444"/><rect x="148.70911384421316" y="253.02058499999998" width="3.561904761904762" height="10.285819000000004" fill="#16a34a"/><rect x="153.66275622831915" y="223.53711" width="3.561904761904762" height="29.29782099999997" fill="#16a34a"/><rect x="158.6163986124251" y="195.154743" width="3.561904761904762" height="28.382278000000014" fill="#16a34a"/><rect x="163.57004099653108" y="195.154654" width="3.561904761904762" height="67.36525699999999" fill="#ef4444"/><rect x="168.523683380637" y="253.816868" width="3.561904761904762" height="8.100068000000022" fill="#16a34a"/><rect x="173.477325764743" y="237.42111" width="3.561904761904762" height="16.395758" fill="#16a34a"/><rect x="178.43096814884893" y="233.989804" width="3.561904761904762" height="3.3760369999999966" fill="#16a34a"/><rect x="183.3846105329549" y="226.780804" width="3.561904761904762" height="7.209000000000003" fill="#16a34a"/><rect x="188.33825291706086" y="225.641515" width="3.561904761904762" height="1.139288999999991" fill="#16a34a"/><rect x="193.29189530116682" y="225.641426" width="3.561904761904762" height="45.76433399999999" fill="#ef4444"/><rect x="198.24553768527278" y="271.304033" width="3.561904761904762" height="18.80845899999997" fill="#ef4444"/><rect x="203.19918006937874" y="280.242748" width="3.561904761904762" height="9.869743999999969" fill="#16a34a"/><rect x="208.1528224534847" y="270.49039500000003" width="3.561904761904762" height="9.752352999999971" fill="#16a34a"/><rect x="213.10646483759066" y="270.49030600000003" width="3.561904761904762" height="10.705809999999985" fill="#ef4444"/><rect x="218.06010722169663" y="274.480087" width="3.561904761904762" height="6.716028999999992" fill="#16a34a"/><rect x="223.0137496058026" y="274.480087" width="3.561904761904762" height="17.02436499999999" fill="#ef4444"/><rect x="227.96739198990855" y="291.504452" width="3.561904761904762" height="32.05957999999998" fill="#ef4444"/><rect x="232.9210343740145" y="281.464184" width="3.561904761904762" height="42.09984800000001" fill="#16a34a"/><rect x="237.87467675812047" y="265.635" width="3.561904761904762" height="15.876086999999984" fill="#16a34a"/><rect x="242.82831914222643" y="265.635" width="3.561904761904762" height="1.157000000000039" fill="#ef4444"/><rect x="247.7819615263324" y="211.459721" width="3.561904761904762" height="55.33227900000003" fill="#16a34a"/><rect x="252.73560391043836" y="206.341598" width="3.561904761904762" height="5.118122999999997" fill="#16a34a"/><rect x="257.6892462945443" y="206.341598" width="3.561904761904762" height="22.26165900000001" fill="#ef4444"/><rect x="262.64288867865025" y="228.603257" width="3.561904761904762" height="45.48674300000002" fill="#ef4444"/><rect x="267.5965310627562" y="262.698" width="3.561904761904762" height="11.69468900000004" fill="#16a34a"/><rect x="272.5501734468622" y="262.145755" width="3.561904761904762" height="8.663437999999985" fill="#ef4444"/><rect x="277.50381583096816" y="265.987707" width="3.561904761904762" height="4.821485999999993" fill="#16a34a"/><rect x="282.4574582150741" y="251.504381" width="3.561904761904762" height="14.483326000000005" fill="#16a34a"/><rect x="287.41110059918003" y="251.369457" width="3.561904761904762" height="17.26217299999996" fill="#ef4444"/><rect x="292.364742983286" y="268.631719" width="3.561904761904762" height="2.4346840000000043" fill="#ef4444"/><rect x="297.318385367392" y="270.7169" width="3.561904761904762" height="1" fill="#16a34a"/><rect x="302.27202775149794" y="270.7169" width="3.561904761904762" height="7.755904999999984" fill="#ef4444"/><rect x="307.2256701356039" y="278.472716" width="3.561904761904762" height="14.964904999999987" fill="#ef4444"/><rect x="312.17931251970987" y="293.43771" width="3.561904761904762" height="15.062894000000028" fill="#ef4444"/><rect x="317.13295490381586" y="258.079879" width="3.561904761904762" height="50.420725000000004" fill="#16a34a"/><rect x="322.0865972879218" y="257.567773" width="3.561904761904762" height="1" fill="#16a34a"/><rect x="327.0402396720277" y="242.939911" width="3.561904761904762" height="14.32908900000001" fill="#16a34a"/><rect x="331.9938820561337" y="242.939911" width="3.561904761904762" height="3.6490890000000036" fill="#ef4444"/><rect x="336.9475244402397" y="245.893198" width="3.561904761904762" height="1" fill="#16a34a"/><rect x="341.90116682434564" y="242.828127" width="3.561904761904762" height="3.0650710000000174" fill="#16a34a"/><rect x="346.85480920845157" y="232.085827" width="3.561904761904762" height="10.7423" fill="#16a34a"/><rect x="351.80845159255756" y="232.085827" width="3.561904761904762" height="20.286126000000024" fill="#ef4444"/><rect x="356.7620939766635" y="252.308051" width="3.561904761904762" height="21.57804999999999" fill="#ef4444"/><rect x="361.7157363607695" y="240.64736" width="3.561904761904762" height="33.238741000000005" fill="#16a34a"/><rect x="366.6693787448754" y="218.116565" width="3.561904761904762" height="22.530794999999983" fill="#16a34a"/><rect x="371.6230211289814" y="218.116565" width="3.561904761904762" height="14.172359999999998" fill="#ef4444"/><rect x="376.57666351308734" y="231.922957" width="3.561904761904762" height="1" fill="#16a34a"/><rect x="381.53030589719333" y="219.788964" width="3.561904761904762" height="12.134349000000014" fill="#16a34a"/><rect x="386.48394828129926" y="218.23093" width="3.561904761904762" height="1.568981000000008" fill="#16a34a"/><rect x="391.43759066540525" y="203.779555" width="3.561904761904762" height="14.451464000000016" fill="#16a34a"/><rect x="396.3912330495112" y="182.42" width="3.561904761904762" height="21.359555" fill="#16a34a"/><rect x="401.3448754336172" y="121.90008899999998" width="3.561904761904762" height="60.51991100000001" fill="#16a34a"/><rect x="406.2985178177231" y="89.63865700000002" width="3.561904761904762" height="32.261342999999954" fill="#16a34a"/><rect x="411.2521602018291" y="88.35251799999998" width="3.561904761904762" height="1.2861390000000483" fill="#16a34a"/><rect x="416.20580258593503" y="68.039514" width="3.561904761904762" height="20.312914999999975" fill="#16a34a"/><rect x="421.15944497004097" y="48.77893499999999" width="3.561904761904762" height="19.260490000000004" fill="#16a34a"/><rect x="426.11308735414696" y="48.77884599999999" width="3.561904761904762" height="16.722744000000034" fill="#ef4444"/><rect x="431.0667297382529" y="63.39522699999998" width="3.561904761904762" height="2.1062740000000417" fill="#16a34a"/><rect x="436.0203721223589" y="52.40906699999999" width="3.561904761904762" height="10.986159999999984" fill="#16a34a"/><rect x="440.9740145064648" y="52.409155999999996" width="3.561904761904762" height="12.821518000000026" fill="#ef4444"/><rect x="445.9276568905708" y="63.046347000000026" width="3.561904761904762" height="2.1842379999999935" fill="#16a34a"/><rect x="450.88129927467673" y="63.046347000000026" width="3.561904761904762" height="11.296235999999965" fill="#ef4444"/><rect x="455.8349416587827" y="74.34258299999999" width="3.561904761904762" height="8.647329000000013" fill="#ef4444"/><rect x="460.78858404288866" y="58.365391999999986" width="3.561904761904762" height="24.624520000000018" fill="#16a34a"/><rect x="465.74222642699465" y="58.404552000000024" width="3.561904761904762" height="18.105447999999967" fill="#ef4444"/><rect x="470.6958688111006" y="76.46015999999997" width="3.561904761904762" height="1" fill="#ef4444"/><rect x="475.64951119520657" y="77.31189" width="3.561904761904762" height="2.2168120000000044" fill="#ef4444"/><rect x="480.6031535793125" y="74.606201" width="3.561904761904762" height="4.9224120000000084" fill="#16a34a"/><rect x="485.5567959634185" y="56.50119799999999" width="3.561904761904762" height="18.10500300000001" fill="#16a34a"/><rect x="490.5104383475244" y="56.19628399999999" width="3.561904761904762" height="6.449117999999999" fill="#ef4444"/><rect x="495.4640807316304" y="62.43634100000003" width="3.561904761904762" height="1.641871999999978" fill="#ef4444"/><rect x="500.41772311573635" y="58.88346100000001" width="3.561904761904762" height="5.194662999999991" fill="#16a34a"/><rect x="505.37136549984234" y="58.88337200000001" width="3.561904761904762" height="10.262233999999978" fill="#ef4444"/><rect x="510.3250078839483" y="69.14569499999999" width="3.561904761904762" height="67.54049800000001" fill="#ef4444"/><rect x="515.2786502680542" y="136.686193" width="3.561904761904762" height="10.857643999999993" fill="#ef4444"/><rect x="520.2322926521601" y="124.37918400000001" width="3.561904761904762" height="23.164652999999987" fill="#16a34a"/><rect x="525.1859350362661" y="118.33999999999997" width="3.561904761904762" height="6.039184000000034" fill="#16a34a"/><rect x="530.1395774203721" y="118.46691399999997" width="3.561904761904762" height="6.410759000000013" fill="#ef4444"/><rect x="535.093219804478" y="117.626665" width="3.561904761904762" height="7.251007999999985" fill="#16a34a"/><rect x="540.0468621885841" y="89.89488799999998" width="3.561904761904762" height="27.733023000000003" fill="#16a34a"/><rect x="545.00050457269" y="89.89488799999998" width="3.561904761904762" height="2.7606910000000084" fill="#ef4444"/><rect x="549.954146956796" y="92.65557899999999" width="3.561904761904762" height="1.3103470000000357" fill="#ef4444"/><rect x="554.9077893409019" y="58.70999999999998" width="3.561904761904762" height="35.255926000000045" fill="#16a34a"/><rect x="559.8614317250078" y="58.70991099999998" width="3.561904761904762" height="1.335089000000039" fill="#ef4444"/><rect x="564.8150741091138" y="45.35991100000001" width="3.561904761904762" height="14.685000000000002" fill="#16a34a"/><rect x="569.7687164932198" y="12.031457999999986" width="3.561904761904762" height="33.328453000000025" fill="#16a34a"/><rect x="574.7223588773257" y="11.713549999999998" width="3.561904761904762" height="54.10870699999998" fill="#ef4444"/><rect x="579.6760012614318" y="65.82225699999998" width="3.561904761904762" height="18.12582900000001" fill="#ef4444"/><rect x="584.6296436455377" y="83.94808599999999" width="3.561904761904762" height="1" fill="#ef4444"/><rect x="589.5832860296437" y="82.29491100000001" width="3.561904761904762" height="1.9631620000000112" fill="#16a34a"/><rect x="594.5369284137496" y="82.29491100000001" width="3.561904761904762" height="11.467293999999981" fill="#ef4444"/><rect x="599.4905707978555" y="93.762294" width="3.561904761904762" height="46.169106" fill="#ef4444"/><rect x="604.4442131819615" y="124.13096300000001" width="3.561904761904762" height="15.800436999999988" fill="#16a34a"/><rect x="609.3978555660675" y="124.13105200000001" width="3.561904761904762" height="14.155182999999994" fill="#ef4444"/><rect x="614.3514979501734" y="98.493089" width="3.561904761904762" height="39.79314600000001" fill="#16a34a"/><rect x="619.3051403342794" y="98.493" width="3.561904761904762" height="17.779886000000033" fill="#ef4444"/><rect x="624.2587827183854" y="116.27288600000003" width="3.561904761904762" height="20.288261999999975" fill="#ef4444"/><rect x="629.2124251024914" y="136.561148" width="3.561904761904762" height="35.895747" fill="#ef4444"/><rect x="634.1660674865973" y="157.676665" width="3.561904761904762" height="14.780140999999986" fill="#16a34a"/><rect x="639.1197098707032" y="157.676665" width="3.561904761904762" height="8.325148999999982" fill="#ef4444"/><rect x="644.0733522548092" y="151.715089" width="3.561904761904762" height="14.28672499999999" fill="#16a34a"/><rect x="649.0269946389152" y="151.715089" width="3.561904761904762" height="50.284910999999994" fill="#ef4444"/><rect x="653.9806370230211" y="198.997318" width="3.561904761904762" height="3.0025929999999903" fill="#16a34a"/><rect x="658.9342794071271" y="198.997407" width="3.561904761904762" height="7.926073000000002" fill="#ef4444"/><rect x="663.887921791233" y="193.430457" width="3.561904761904762" height="13.493023000000022" fill="#16a34a"/><rect x="668.841564175339" y="155.526781" width="3.561904761904762" height="37.90376499999999" fill="#16a34a"/><rect x="673.795206559445" y="153.943916" width="3.561904761904762" height="1.1206880000000012" fill="#16a34a"/><rect x="678.7488489435509" y="153.943827" width="3.561904761904762" height="7.151861999999994" fill="#ef4444"/><rect x="683.7024913276568" y="160.703822" width="3.561904761904762" height="11.639241999999996" fill="#ef4444"/><rect x="688.6561337117629" y="172.343064" width="3.561904761904762" height="4.933893000000012" fill="#ef4444"/><rect x="693.6097760958688" y="157.298415" width="3.561904761904762" height="19.978542000000004" fill="#16a34a"/><rect x="698.5634184799748" y="154.83" width="3.561904761904762" height="2.9494599999999878" fill="#16a34a"/><rect x="703.5170608640807" y="154.83" width="3.561904761904762" height="5.711396999999977" fill="#ef4444"/><rect x="708.4707032481867" y="129.740811" width="3.561904761904762" height="30.80058599999998" fill="#16a34a"/><rect x="713.4243456322927" y="122.639679" width="3.561904761904762" height="7.101132000000007" fill="#16a34a"/>
      </g>
      <g class="legend">
        <g font-size="12" fill="#e5e7eb"><g transform="translate(96, 12)">
        <rect y="-10" width="12" height="12" fill="#00a3ff"></rect>
        <text x="16" y="0"></text>
      </g><g transform="translate(226, 12)">
        <rect y="-10" width="12" height="12" fill="#ff4d4d"></rect>
        <text x="16" y="0"></text>
      </g></g>
      </g>
    </svg>
  
