
    <svg width="860" height="420" viewBox="0 0 860 420" xmlns="http://www.w3.org/2000/svg" style="background-color: #1f2937; color: #e5e7eb; font-family: sans-serif;">
      <title>BTC/JPY 1day chart</title>
      <defs>
        <clipPath id="plotArea">
          <rect x="96" y="48" width="748" height="332"/>
        </clipPath>
      </defs>
      <g class="axes">
        
    <line x1="96" y1="48" x2="96" y2="380" stroke="#4b5563" stroke-width="1"/>
    <g font-size="12" fill="#e5e7eb">
      <text x="88" y="380" text-anchor="end" dominant-baseline="middle">12,000,000</text><text x="88" y="332.57142857142856" text-anchor="end" dominant-baseline="middle">13,000,000</text><text x="88" y="285.1428571428571" text-anchor="end" dominant-baseline="middle">14,000,000</text><text x="88" y="237.71428571428572" text-anchor="end" dominant-baseline="middle">15,000,000</text><text x="88" y="190.28571428571428" text-anchor="end" dominant-baseline="middle">16,000,000</text><text x="88" y="142.85714285714286" text-anchor="end" dominant-baseline="middle">17,000,000</text><text x="88" y="95.42857142857144" text-anchor="end" dominant-baseline="middle">18,000,000</text><text x="88" y="48" text-anchor="end" dominant-baseline="middle">19,000,000</text>
    </g>
  
        
    <line x1="96" y1="380" x2="844" y2="380" stroke="#4b5563" stroke-width="1"/>
    <g font-size="12" fill="#e5e7eb">
      <text x="96" y="396" text-anchor="middle" fill="#e5e7eb" font-size="10">5/10</text><text x="219.841059602649" y="396" text-anchor="middle" fill="#e5e7eb" font-size="10">6/4</text><text x="343.682119205298" y="396" text-anchor="middle" fill="#e5e7eb" font-size="10">6/29</text><text x="467.52317880794703" y="396" text-anchor="middle" fill="#e5e7eb" font-size="10">7/24</text><text x="591.364238410596" y="396" text-anchor="middle" fill="#e5e7eb" font-size="10">8/18</text><text x="715.205298013245" y="396" text-anchor="middle" fill="#e5e7eb" font-size="10">9/12</text>
    </g>
  
      </g>
      <g class="plot-area" clip-path="url(#plotArea)">
        
      <path d="M 140.58278145695363,360.08302357142855 L 145.53642384105962,360.08302357142855 L 150.49006622516555,352.0445802857143 L 155.44370860927154,351.6339437142857 L 160.39735099337747,351.6339437142857 L 165.35099337748346,351.6339437142857 L 170.3046357615894,350.47655614285713 L 175.25827814569539,347.41916814285713 L 180.21192052980132,329.080247 L 185.16556291390728,328.54060471428573 L 190.11920529801324,325.81201528571427 L 195.0728476821192,325.75715228571426 L 200.02649006622516,320.1200412857143 L 204.98013245033113,320.1200412857143 L 209.9337748344371,314.0085615714286 L 214.88741721854305,290.97762671428575 L 219.841059602649,290.89635785714285 L 224.79470198675497,288.5264707142857 L 229.74834437086093,288.1568835714286 L 234.7019867549669,280.22560514285715 L 239.65562913907286,279.81496857142855 L 244.60927152317882,279.81496857142855 L 249.56291390728478,274.61476957142855 L 254.51655629139074,270.94262428571426 L 259.4701986754967,257.6465222857143 L 264.42384105960264,248.44260485714287 L 269.37748344370857,248.205462 L 274.33112582781456,245.97797914285715 L 279.28476821192055,238.61648385714287 L 284.2384105960265,232.51135957142859 L 289.1920529801324,232.51135957142859 L 294.1456953642384,232.33589757142857 L 299.0993377483444,232.33589757142857 L 304.05298013245033,232.2546287142857 L 309.00662251655626,232.2546287142857 L 313.96026490066225,228.64948814285714 L 318.91390728476824,228.10462871428572 L 323.8675496688742,230.87876142857144 L 328.8211920529801,232.38471342857142 L 333.7748344370861,228.85012285714285 L 338.7284768211921,226.8294522857143 L 343.682119205298,216.59073828571428 L 348.63576158940396,216.57062857142859 L 353.58940397350995,226.78914985714286 L 358.5430463576159,226.78914985714286 L 363.49668874172187,232.17510285714286 L 368.4503311258278,231.98824614285715 L 373.4039735099338,225.68023428571428 L 378.3576158940397,225.22968657142857 L 383.3112582781457,224.8502342857143 L 388.26490066225165,224.8502342857143 L 393.21854304635764,224.8502342857143 L 398.17218543046357,223.54227285714285 L 403.12582781456956,221.34993457142858 L 408.0794701986755,221.34993457142858 L 413.0331125827815,222.00425914285714 L 417.9867549668874,223.07581285714286 L 422.94039735099335,223.07581285714286 L 427.89403973509934,226.28909857142858 L 432.8476821192053,226.28909857142858 L 437.80132450331126,231.95745314285713 L 442.7549668874172,231.95745314285713 L 447.7086092715232,231.95745314285713 L 452.6622516556291,231.84824885714286 L 457.6158940397351,231.84824885714286 L 462.56953642384104,231.84824885714286 L 467.52317880794703,231.84824885714286 L 467.52317880794703,231.84824885714286 L 467.52317880794703,231.84824885714286 L 467.52317880794703,234.97395771428572 L 462.56953642384104,240.00347314285713 L 457.6158940397351,250.40387114285716 L 452.6622516556291,250.40387114285716 L 447.7086092715232,250.40387114285716 L 442.7549668874172,250.40387114285716 L 437.80132450331126,250.40387114285716 L 432.8476821192053,250.40387114285716 L 427.89403973509934,250.56640885714285 L 422.94039735099335,250.56640885714285 L 417.9867549668874,250.56640885714285 L 413.0331125827815,250.56640885714285 L 408.0794701986755,250.56640885714285 L 403.12582781456956,250.67613485714287 L 398.17218543046357,255.1311005714286 L 393.21854304635764,255.6053862857143 L 388.26490066225165,273.9730017142857 L 383.3112582781457,280.0877777142857 L 378.3576158940397,282.40255285714284 L 373.4039735099338,282.40255285714284 L 368.4503311258278,282.40255285714284 L 363.49668874172187,283.22382600000003 L 358.5430463576159,285.1195697142857 L 353.58940397350995,285.1195697142857 L 348.63576158940396,285.1195697142857 L 343.682119205298,285.1195697142857 L 338.7284768211921,285.1195697142857 L 333.7748344370861,297.34252914285713 L 328.8211920529801,297.34252914285713 L 323.8675496688742,308.61675114285714 L 318.91390728476824,308.61675114285714 L 313.96026490066225,309.6189642857143 L 309.00662251655626,309.6189642857143 L 304.05298013245033,309.6189642857143 L 299.0993377483444,309.6189642857143 L 294.1456953642384,309.6189642857143 L 289.1920529801324,309.6189642857143 L 284.2384105960265,309.6189642857143 L 279.28476821192055,315.7240885714286 L 274.33112582781456,323.03072085714285 L 269.37748344370857,323.03072085714285 L 264.42384105960264,323.03072085714285 L 259.4701986754967,323.03072085714285 L 254.51655629139074,323.03072085714285 L 249.56291390728478,323.03072085714285 L 244.60927152317882,323.03072085714285 L 239.65562913907286,323.03072085714285 L 234.7019867549669,323.03072085714285 L 229.74834437086093,330.01412742857144 L 224.79470198675497,330.3837145714286 L 219.841059602649,332.7536017142857 L 214.88741721854305,332.7536017142857 L 209.9337748344371,355.7845365714286 L 204.98013245033113,355.7845365714286 L 200.02649006622516,355.7845365714286 L 195.0728476821192,355.7845365714286 L 190.11920529801324,355.7845365714286 L 185.16556291390728,355.7845365714286 L 180.21192052980132,356.087036 L 175.25827814569539,365.24214942857145 L 170.3046357615894,365.24214942857145 L 165.35099337748346,365.24214942857145 L 160.39735099337747,365.24214942857145 L 155.44370860927154,363.068332 L 150.49006622516555,363.068332 L 145.53642384105962,363.068332 L 140.58278145695363,360.08302357142855 ZM 482.3841059602649,229.0344777142857 L 487.3377483443709,222.80044257142856 L 492.2913907284768,220.31044257142858 L 497.2450331125828,220.31044257142858 L 502.19867549668874,220.31044257142858 L 507.1523178807947,220.31044257142858 L 512.1059602649007,220.9032997142857 L 517.0596026490066,219.38558542857143 L 522.0132450331125,211.89187114285716 L 526.9668874172185,196.00332342857143 L 531.9205298013245,180.41987185714285 L 536.8741721854304,180.41987185714285 L 541.8278145695365,177.33490414285714 L 546.7814569536424,164.2920232857143 L 551.7350993377484,163.0874917142857 L 556.6887417218543,162.89678142857142 L 561.6423841059602,160.87008742857142 L 566.5960264900662,155.13153857142856 L 571.5496688741722,140.94737214285715 L 576.5033112582781,136.91901457142856 L 581.4569536423842,136.91901457142856 L 586.4105960264901,136.91901457142856 L 591.364238410596,138.46044314285714 L 596.317880794702,138.06050171428572 L 601.2715231788079,140.77116314285715 L 606.2251655629138,140.77116314285715 L 611.1788079470199,143.81905357142858 L 616.1324503311258,139.03930885714286 L 621.0860927152318,138.56265171428572 L 626.0397350993378,137.7168342857143 L 630.9933774834437,136.10749985714287 L 635.9470198675497,138.6544497142857 L 640.9006622516556,139.76802514285714 L 645.8543046357615,137.7887597142857 L 650.8079470198676,134.8427577142857 L 655.7615894039735,130.27818457142857 L 660.7152317880794,130.27818457142857 L 665.6688741721854,130.27818457142857 L 670.6225165562914,130.27818457142857 L 675.5761589403974,136.095951 L 680.5298013245033,135.0893032857143 L 685.4834437086092,130.3834522857143 L 690.4370860927153,129.62459514285715 L 695.3907284768212,125.09514285714286 L 700.3443708609271,121.95775471428573 L 705.2980132450331,120.36912285714288 L 710.2516556291391,117.26317985714286 L 715.205298013245,116.76327085714286 L 720.158940397351,119.62872728571426 L 725.1125827814569,122.87785714285712 L 730.066225165563,123.99576042857143 L 735.0198675496689,123.99576042857143 L 739.9735099337748,123.99576042857143 L 744.9271523178808,131.5535032857143 L 749.8807947019867,136.57990028571427 L 754.8344370860927,141.738872 L 754.8344370860927,141.738872 L 754.8344370860927,141.738872 L 754.8344370860927,146.31987914285713 L 749.8807947019867,148.011514 L 744.9271523178808,148.011514 L 739.9735099337748,157.57100342857143 L 735.0198675496689,157.57100342857143 L 730.066225165563,157.57100342857143 L 725.1125827814569,157.57100342857143 L 720.158940397351,157.57100342857143 L 715.205298013245,157.57100342857143 L 710.2516556291391,157.57100342857143 L 705.2980132450331,157.57100342857143 L 700.3443708609271,157.57100342857143 L 695.3907284768212,171.43821657142857 L 690.4370860927153,178.94416742857143 L 685.4834437086092,178.94416742857143 L 680.5298013245033,178.94416742857143 L 675.5761589403974,178.94416742857143 L 670.6225165562914,178.94416742857143 L 665.6688741721854,178.94416742857143 L 660.7152317880794,178.94416742857143 L 655.7615894039735,178.94416742857143 L 650.8079470198676,178.94416742857143 L 645.8543046357615,178.94416742857143 L 640.9006622516556,178.94416742857143 L 635.9470198675497,178.94416742857143 L 630.9933774834437,178.94416742857143 L 626.0397350993378,178.94416742857143 L 621.0860927152318,178.94416742857143 L 616.1324503311258,178.94416742857143 L 611.1788079470199,178.94416742857143 L 606.2251655629138,178.94416742857143 L 601.2715231788079,178.94416742857143 L 596.317880794702,178.94416742857143 L 591.364238410596,178.94416742857143 L 586.4105960264901,178.94416742857143 L 581.4569536423842,178.94416742857143 L 576.5033112582781,178.94416742857143 L 571.5496688741722,178.94416742857143 L 566.5960264900662,178.94416742857143 L 561.6423841059602,178.94416742857143 L 556.6887417218543,178.94416742857143 L 551.7350993377484,178.94416742857143 L 546.7814569536424,178.94416742857143 L 541.8278145695365,191.98704828571428 L 536.8741721854304,194.22619857142857 L 531.9205298013245,194.22619857142857 L 526.9668874172185,205.02990542857142 L 522.0132450331125,220.91845314285715 L 517.0596026490066,225.29241085714287 L 512.1059602649007,225.29241085714287 L 507.1523178807947,225.29241085714287 L 502.19867549668874,225.29241085714287 L 497.2450331125828,225.29241085714287 L 492.2913907284768,225.29241085714287 L 487.3377483443709,225.29241085714287 L 482.3841059602649,229.0344777142857 Z" fill="rgba(16, 163, 74, 0.16)" stroke="none" />
      <path d="M -161.58940397350995,207.39467028571428 L -156.63576158940398,207.39467028571428 L -151.68211920529802,207.39467028571428 L -146.72847682119206,218.54038457142858 L -141.7748344370861,240.0721022857143 L -136.82119205298014,252.68895600000002 L -131.86754966887418,252.68895600000002 L -126.91390728476821,263.3601 L -121.96026490066225,263.3601 L -117.00662251655629,263.3601 L -112.05298013245033,263.3601 L -107.09933774834437,263.3601 L -102.1456953642384,263.3601 L -97.19205298013244,263.3601 L -92.23841059602648,263.3601 L -87.28476821192052,263.3601 L -82.33112582781456,263.3601 L -77.3774834437086,272.134528 L -72.42384105960264,276.3318854285714 L -67.47019867549668,276.3318854285714 L -62.51655629139074,286.02007228571426 L -57.56291390728478,286.02007228571426 L -52.60927152317882,286.02007228571426 L -47.65562913907286,286.4286931428571 L -42.701986754966896,291.60194085714284 L -37.748344370860934,292.0099925714286 L -32.79470198675497,293.2710471428571 L -27.84105960264901,293.2710471428571 L -22.88741721854305,293.2710471428571 L -17.933774834437088,293.2710471428571 L -12.980132450331126,293.54627514285716 L -8.026490066225165,302.70198142857146 L -3.0728476821192032,304.4200814285714 L 1.8807947019867584,304.4200814285714 L 6.83443708609272,306.53807542857146 L 11.788079470198682,320.13432914285715 L 16.74172185430463,320.76451257142855 L 21.69536423841059,320.76451257142855 L 26.649006622516552,322.9388754285714 L 31.602649006622514,322.9388754285714 L 36.556291390728475,322.9388754285714 L 41.50993377483444,322.9388754285714 L 46.4635761589404,322.9388754285714 L 51.41721854304636,322.9388754285714 L 56.370860927152314,328.5473277142857 L 61.324503311258276,337.11582085714286 L 66.27814569536423,337.11582085714286 L 71.23178807947019,337.11582085714286 L 76.18543046357615,337.11582085714286 L 81.13907284768212,337.11582085714286 L 86.09271523178808,337.11582085714286 L 91.04635761589404,337.11582085714286 L 96,346.27074457142857 L 100.95364238410596,346.27074457142857 L 105.90728476821192,346.27074457142857 L 110.86092715231788,346.27074457142857 L 115.81456953642385,352.5233954285714 L 120.76821192052981,352.5233954285714 L 125.72185430463577,352.5233954285714 L 130.67549668874173,352.5233954285714 L 135.6291390728477,352.5233954285714 L 140.58278145695363,354.30697057142856 L 140.58278145695363,360.08302357142855 L 140.58278145695363,360.08302357142855 L 140.58278145695363,360.08302357142855 L 135.6291390728477,362.940761 L 130.67549668874173,374.8122984285714 L 125.72185430463577,375.5210235714286 L 120.76821192052981,381.6325032857143 L 115.81456953642385,381.235289 L 110.86092715231788,386.8724 L 105.90728476821192,386.8724 L 100.95364238410596,387.37350657142855 L 96,387.5198355714286 L 91.04635761589404,387.50033057142855 L 86.09271523178808,386.3681157142857 L 81.13907284768212,386.3681157142857 L 76.18543046357615,376.8206494285714 L 71.23178807947019,376.8206494285714 L 66.27814569536423,376.8206494285714 L 61.324503311258276,376.8206494285714 L 56.370860927152314,369.9721534285714 L 51.41721854304636,359.6751615714286 L 46.4635761589404,359.6751615714286 L 41.50993377483444,359.1336932857143 L 36.556291390728475,355.5486742857143 L 31.602649006622514,352.91495385714285 L 26.649006622516552,348.6517655714286 L 21.69536423841059,347.58081657142856 L 16.74172185430463,347.2827398571429 L 11.788079470198682,341.2373755714286 L 6.83443708609272,340.60557957142856 L 1.8807947019867584,343.23287342857145 L -3.0728476821192032,343.23287342857145 L -8.026490066225165,343.23287342857145 L -12.980132450331126,347.30580199999997 L -17.933774834437088,346.05278657142856 L -22.88741721854305,348.04047057142856 L -27.84105960264901,348.04047057142856 L -32.79470198675497,355.314306 L -37.748344370860934,353.85430042857143 L -42.701986754966896,352.4653072857143 L -47.65562913907286,351.4850535714286 L -52.60927152317882,343.90461614285715 L -57.56291390728478,339.64142785714284 L -62.51655629139074,339.64142785714284 L -67.47019867549668,339.64142785714284 L -72.42384105960264,334.40074857142855 L -77.3774834437086,328.3084537142857 L -82.33112582781456,319.26263942857145 L -87.28476821192052,319.5340257142857 L -92.23841059602648,319.5340257142857 L -97.19205298013244,319.5340257142857 L -102.1456953642384,316.40770028571427 L -107.09933774834437,315.3205188571429 L -112.05298013245033,315.3205188571429 L -117.00662251655629,315.0054271428571 L -121.96026490066225,303.6298384285714 L -126.91390728476821,302.57084142857144 L -131.86754966887418,291.8996974285714 L -136.82119205298014,291.04064742857145 L -141.7748344370861,273.84594057142857 L -146.72847682119206,252.17660885714287 L -151.68211920529802,240.26677285714285 L -156.63576158940398,239.40677428571428 L -161.58940397350995,238.40362442857142 ZM 467.52317880794703,231.84824885714286 L 472.47682119205297,225.29241085714287 L 477.43046357615896,225.29241085714287 L 482.3841059602649,225.29241085714287 L 482.3841059602649,229.0344777142857 L 482.3841059602649,229.0344777142857 L 482.3841059602649,229.0344777142857 L 477.43046357615896,231.82702457142858 L 472.47682119205297,231.84824885714286 L 467.52317880794703,231.84824885714286 ZM 754.8344370860927,141.738872 L 759.7880794701987,146.31987914285713 L 764.7417218543046,143.910816 L 769.6953642384105,143.52939542857143 L 774.6490066225166,140.56280942857143 L 779.6026490066225,140.830354 L 784.5562913907285,140.830354 L 789.5099337748344,141.72689628571428 L 794.4635761589404,141.72689628571428 L 799.4172185430464,141.72689628571428 L 804.3708609271523,141.72689628571428 L 809.3245033112582,141.72689628571428 L 814.2781456953643,141.72689628571428 L 819.2317880794702,141.72689628571428 L 824.1854304635762,141.72689628571428 L 829.1390728476821,141.72689628571428 L 834.0927152317881,141.72689628571428 L 839.0463576158941,141.72689628571428 L 844,141.72689628571428 L 844,159.40794757142856 L 839.0463576158941,159.65213357142858 L 834.0927152317881,164.12544228571429 L 829.1390728476821,166.5960677142857 L 824.1854304635762,159.03832485714287 L 819.2317880794702,159.03832485714287 L 814.2781456953643,159.03832485714287 L 809.3245033112582,159.03832485714287 L 804.3708609271523,159.37921771428572 L 799.4172185430464,159.5962152857143 L 794.4635761589404,159.17008142857142 L 789.5099337748344,156.47970757142858 L 784.5562913907285,153.51749685714285 L 779.6026490066225,152.64008014285713 L 774.6490066225166,152.37253557142859 L 769.6953642384105,148.26401185714286 L 764.7417218543046,146.53285714285715 L 759.7880794701987,146.53285714285715 L 754.8344370860927,141.738872 Z" fill="rgba(239, 68, 68, 0.24)" stroke="none" />
      <path d="M -503.3907284768212,220.11534514285714 L -498.4370860927153,220.11534514285714 L -493.48344370860923,220.11534514285714 L -488.5298013245033,220.11534514285714 L -483.57615894039736,227.94105942857144 L -478.62251655629143,227.94105942857144 L -473.6688741721854,227.94105942857144 L -468.71523178807945,238.46339628571428 L -463.7615894039735,221.23285714285714 L -458.8079470198676,221.23285714285714 L -453.85430463576154,218.41797142857143 L -448.9006622516556,207.39467028571428 L -443.94701986754967,207.39467028571428 L -438.99337748344374,192.4546702857143 L -434.0397350993378,192.4546702857143 L -429.08609271523176,192.4546702857143 L -424.1324503311258,192.4546702857143 L -419.1788079470199,192.4546702857143 L -414.2251655629139,192.4546702857143 L -409.27152317880797,198.246932 L -404.317880794702,207.93511885714287 L -399.36423841059604,207.93511885714287 L -394.41059602649005,207.93511885714287 L -389.4569536423841,208.3437397142857 L -384.50331125827813,213.51698742857144 L -379.5496688741722,217.6184917142857 L -374.5960264900662,218.8795462857143 L -369.6423841059603,218.8795462857143 L -364.6887417218543,218.8795462857143 L -359.73509933774835,218.8795462857143 L -354.78145695364236,219.1547742857143 L -349.82781456953643,228.31048057142857 L -344.87417218543044,230.02858057142856 L -339.9205298013245,230.02858057142856 L -334.9668874172185,231.79086028571427 L -330.0132450331126,245.387114 L -325.05960264900665,246.01729742857142 L -320.10596026490066,246.01729742857142 L -315.1523178807947,248.19166028571428 L -310.19867549668874,248.19166028571428 L -305.2450331125828,252.60998742857143 L -300.2913907284768,252.60998742857143 L -295.3377483443709,252.60998742857143 L -290.3841059602649,253.23753857142856 L -285.43046357615896,255.24383828571428 L -280.47682119205297,256.96383542857143 L -275.52317880794703,268.8736714285714 L -270.56953642384104,290.40538914285713 L -265.6158940397351,303.0222428571428 L -260.6622516556291,303.0222428571428 L -255.7086092715232,313.69338685714285 L -250.7549668874172,313.69338685714285 L -245.80132450331126,322.84831057142856 L -240.84768211920527,322.84831057142856 L -235.89403973509934,322.84831057142856 L -230.94039735099335,322.84831057142856 L -225.98675496688742,329.10096142857145 L -221.03311258278148,329.10096142857145 L -216.0794701986755,329.10096142857145 L -211.12582781456956,328.55818885714285 L -206.17218543046357,337.87538942857145 L -201.21854304635764,343.856322 L -196.26490066225165,352.6176834285714 L -191.31125827814571,352.6176834285714 L -186.35761589403972,352.6176834285714 L -181.4039735099338,361.14406 L -176.4503311258278,376.3049348571429 L -171.49668874172187,378.2654422857143 L -166.54304635761588,381.0434285714286 L -161.58940397350995,374.808516 L -156.63576158940398,360.26084514285714 L -151.68211920529802,360.26084514285714 L -146.72847682119206,356.28547714285713 L -141.7748344370861,352.5388571428571 L -136.82119205298014,344.39300000000003 L -131.86754966887418,344.39300000000003 L -126.91390728476821,344.39300000000003 L -121.96026490066225,339.1384122857143 L -117.00662251655629,338.61842914285717 L -112.05298013245033,341.9477962857143 L -107.09933774834437,342.5439497142857 L -102.1456953642384,344.6858477142857 L -97.19205298013244,344.6858477142857 L -92.23841059602648,345.4802762857143 L -87.28476821192052,352.6503142857143 L -82.33112582781456,353.7332508571429 L -77.3774834437086,353.7332508571429 L -72.42384105960264,370.725082 L -67.47019867549668,377.573578 L -62.51655629139074,377.573578 L -57.56291390728478,377.573578 L -52.60927152317882,377.573578 L -47.65562913907286,396.66851057142856 L -42.701986754966896,396.66851057142856 L -37.748344370860934,398.93294028571427 L -32.79470198675497,398.9719502857143 L -27.84105960264901,398.67929228571427 L -22.88741721854305,397.67707914285717 L -17.933774834437088,397.67707914285717 L -12.980132450331126,386.40285714285716 L -8.026490066225165,386.40285714285716 L -3.0728476821192032,374.1798977142857 L 1.8807947019867584,372.0510188571429 L 6.83443708609272,350.6910637142857 L 11.788079470198682,347.8333262857143 L 16.74172185430463,347.8333262857143 L 21.69536423841059,338.8470111428571 L 26.649006622516552,338.025738 L 31.602649006622514,338.025738 L 36.556291390728475,338.025738 L 41.50993377483444,335.7109628571429 L 46.4635761589404,329.59618685714287 L 51.41721854304636,302.073458 L 56.370860927152314,301.2966728571429 L 61.324503311258276,296.84170714285716 L 66.27814569536423,296.73198114285714 L 71.23178807947019,296.73198114285714 L 76.18543046357615,296.73198114285714 L 81.13907284768212,296.73198114285714 L 86.09271523178808,273.70104628571426 L 91.04635761589404,273.53850857142857 L 96,271.16862142857144 L 100.95364238410596,270.7990342857143 L 105.90728476821192,263.8156277142857 L 110.86092715231788,263.8156277142857 L 115.81456953642385,263.8156277142857 L 120.76821192052981,253.41522971428572 L 125.72185430463577,248.38571428571427 L 130.67549668874173,227.9082862857143 L 135.6291390728477,227.86806685714285 L 140.58278145695363,227.86806685714285 L 145.53642384105962,227.86806685714285 L 150.49006622516555,220.56143457142858 L 155.44370860927154,214.4563102857143 L 160.39735099337747,214.4563102857143 L 165.35099337748346,214.10538628571427 L 170.3046357615894,214.10538628571427 L 175.25827814569539,214.10538628571427 L 180.21192052980132,214.10538628571427 L 185.16556291390728,206.89510514285715 L 190.11920529801324,205.8053862857143 L 195.0728476821192,211.35365171428572 L 200.02649006622516,214.3655557142857 L 204.98013245033113,217.69677257142857 L 209.9337748344371,218.68494685714285 L 214.88741721854305,218.68494685714285 L 219.841059602649,218.68494685714285 L 224.79470198675497,230.4539437142857 L 229.74834437086093,230.4539437142857 L 234.7019867549669,241.22584971428572 L 239.65562913907286,240.8521362857143 L 244.60927152317882,228.23611257142858 L 249.56291390728478,227.33501714285714 L 254.51655629139074,226.57611257142858 L 259.4701986754967,226.57611257142858 L 264.42384105960264,226.57611257142858 L 269.37748344370857,223.96018971428572 L 274.33112582781456,219.57551314285715 L 279.28476821192055,219.57551314285715 L 284.2384105960265,219.57551314285715 L 289.1920529801324,219.57551314285715 L 294.1456953642384,219.57551314285715 L 299.0993377483444,226.00208457142858 L 304.05298013245033,226.00208457142858 L 309.00662251655626,235.17073885714285 L 313.96026490066225,235.17073885714285 L 318.91390728476824,235.17073885714285 L 323.8675496688742,234.95233028571428 L 328.8211920529801,234.95233028571428 L 333.7748344370861,234.95233028571428 L 338.7284768211921,234.95233028571428 L 343.682119205298,234.95233028571428 L 348.63576158940396,234.90988171428572 L 353.58940397350995,229.324788 L 358.5430463576159,216.8567177142857 L 363.49668874172187,211.87671771428572 L 368.4503311258278,211.87671771428572 L 373.4039735099338,211.87671771428572 L 378.3576158940397,211.87671771428572 L 383.3112582781457,211.87671771428572 L 388.26490066225165,210.35900342857144 L 393.21854304635764,202.86528914285714 L 398.17218543046357,186.97674142857142 L 403.12582781456956,166.61354514285713 L 408.0794701986755,166.61354514285713 L 413.0331125827815,162.68276 L 417.9867549668874,149.63987914285715 L 422.94039735099335,147.230816 L 427.89403973509934,146.84939542857143 L 432.8476821192053,142.79600742857144 L 437.80132450331126,136.90400342857143 L 442.7549668874172,121.00374085714287 L 447.7086092715232,112.9470257142857 L 452.6622516556291,112.9470257142857 L 457.6158940397351,112.9470257142857 L 462.56953642384104,116.02988285714287 L 467.52317880794703,115.23000000000002 L 472.47682119205297,120.65132285714287 L 477.43046357615896,120.65132285714287 L 482.3841059602649,126.74710371428571 L 487.3377483443709,126.74710371428571 L 492.2913907284768,125.79378942857142 L 497.2450331125828,125.79378942857142 L 502.19867549668874,122.57512057142856 L 507.1523178807947,130.07808342857143 L 512.1059602649007,132.68665485714286 L 517.0596026490066,132.781512 L 522.0132450331125,132.781512 L 526.9668874172185,132.781512 L 531.9205298013245,132.781512 L 536.8741721854304,132.781512 L 541.8278145695365,132.781512 L 546.7814569536424,141.33418771428572 L 551.7350993377484,139.32089228571428 L 556.6887417218543,130.3834522857143 L 561.6423841059602,128.865738 L 566.5960264900662,124.33628571428571 L 571.5496688741722,119.46065228571427 L 576.5033112582781,116.28338857142859 L 581.4569536423842,110.0715025714286 L 586.4105960264901,109.07168457142859 L 591.364238410596,114.8025974285714 L 596.317880794702,121.30085714285713 L 601.2715231788079,123.53666371428574 L 606.2251655629138,123.53666371428574 L 611.1788079470199,123.53666371428574 L 616.1324503311258,138.65214942857142 L 621.0860927152318,145.47980057142857 L 626.0397350993378,150.63877228571428 L 630.9933774834437,156.61142857142858 L 635.9470198675497,156.61142857142858 L 640.9006622516556,160.073738 L 645.8543046357615,164.18226171428572 L 650.8079470198676,164.4498062857143 L 655.7615894039735,166.20463971428572 L 660.7152317880794,171.23251885714285 L 665.6688741721854,176.61326657142857 L 670.6225165562914,177.46553428571428 L 675.5761589403974,177.03153914285716 L 680.5298013245033,176.34975342857143 L 685.4834437086092,176.34975342857143 L 690.4370860927153,176.34975342857143 L 695.3907284768212,176.34975342857143 L 700.3443708609271,176.34975342857143 L 705.2980132450331,168.7241877142857 L 710.2516556291391,159.7775702857143 L 715.205298013245,156.931856" fill="none" stroke="#00a3ff" stroke-width="1" />
      <path d="M -419.1788079470199,207.39467028571428 L -414.2251655629139,207.39467028571428 L -409.27152317880797,207.39467028571428 L -404.317880794702,207.39467028571428 L -399.36423841059604,207.39467028571428 L -394.41059602649005,207.39467028571428 L -389.4569536423841,207.39467028571428 L -384.50331125827813,207.39467028571428 L -379.5496688741722,207.39467028571428 L -374.5960264900662,207.39467028571428 L -369.6423841059603,207.39467028571428 L -364.6887417218543,207.39467028571428 L -359.73509933774835,207.39467028571428 L -354.78145695364236,201.94038457142858 L -349.82781456953643,201.94038457142858 L -344.87417218543044,201.94038457142858 L -339.9205298013245,201.94038457142858 L -334.9668874172185,201.94038457142858 L -330.0132450331126,201.94038457142858 L -325.05960264900665,201.94038457142858 L -320.10596026490066,211.62857142857143 L -315.1523178807947,211.62857142857143 L -310.19867549668874,211.62857142857143 L -305.2450331125828,216.09980514285715 L -300.2913907284768,221.27305285714286 L -295.3377483443709,221.68110457142856 L -290.3841059602649,223.56971028571428 L -285.43046357615896,223.56971028571428 L -280.47682119205297,223.56971028571428 L -275.52317880794703,235.4795462857143 L -270.56953642384104,257.286492 L -265.6158940397351,279.059052 L -260.6622516556291,280.777152 L -255.7086092715232,291.448296 L -250.7549668874172,293.56629 L -245.80132450331126,307.16254371428573 L -240.84768211920527,307.79272714285713 L -235.89403973509934,307.79272714285713 L -230.94039735099335,309.96709 L -225.98675496688742,309.96709 L -221.03311258278148,309.96709 L -216.0794701986755,309.96709 L -211.12582781456956,309.96709 L -206.17218543046357,318.741518 L -201.21854304635764,324.9451751428571 L -196.26490066225165,326.6651722857143 L -191.31125827814571,326.6651722857143 L -186.35761589403972,326.6651722857143 L -181.4039735099338,326.6651722857143 L -176.4503311258278,326.6651722857143 L -171.49668874172187,326.6651722857143 L -166.54304635761588,326.6651722857143 L -161.58940397350995,335.820096 L -156.63576158940398,335.820096 L -151.68211920529802,335.820096 L -146.72847682119206,335.820096 L -141.7748344370861,342.0727468571429 L -136.82119205298014,342.0727468571429 L -131.86754966887418,342.0727468571429 L -126.91390728476821,342.0727468571429 L -121.96026490066225,342.0727468571429 L -117.00662251655629,343.856322 L -112.05298013245033,352.6176834285714 L -107.09933774834437,352.6176834285714 L -102.1456953642384,352.6176834285714 L -97.19205298013244,361.14406 L -92.23841059602648,365.6170722857143 L -87.28476821192052,365.6170722857143 L -82.33112582781456,365.6170722857143 L -77.3774834437086,365.6170722857143 L -72.42384105960264,369.2192248571429 L -67.47019867549668,376.06772085714283 L -62.51655629139074,376.06772085714283 L -57.56291390728478,376.06772085714283 L -52.60927152317882,376.06772085714283 L -47.65562913907286,376.06772085714283 L -42.701986754966896,376.06772085714283 L -37.748344370860934,376.06772085714283 L -32.79470198675497,376.06772085714283 L -27.84105960264901,376.06772085714283 L -22.88741721854305,376.06772085714283 L -17.933774834437088,376.06772085714283 L -12.980132450331126,376.06772085714283 L -8.026490066225165,376.86214942857146 L -3.0728476821192032,376.86214942857146 L 1.8807947019867584,377.573578 L 6.83443708609272,375.19045828571427 L 11.788079470198682,372.3327208571429 L 16.74172185430463,372.3327208571429 L 21.69536423841059,365.24214942857145 L 26.649006622516552,365.24214942857145 L 31.602649006622514,365.24214942857145 L 36.556291390728475,365.24214942857145 L 41.50993377483444,365.24214942857145 L 46.4635761589404,365.24214942857145 L 51.41721854304636,356.087036 L 56.370860927152314,355.7845365714286 L 61.324503311258276,354.78232342857143 L 66.27814569536423,354.78232342857143 L 71.23178807947019,343.5081014285714 L 76.18543046357615,343.5081014285714 L 81.13907284768212,331.285142 L 86.09271523178808,308.2542071428571 L 91.04635761589404,308.2542071428571 L 96,305.88432 L 100.95364238410596,305.51473285714286 L 105.90728476821192,296.6355825714286 L 110.86092715231788,295.81430942857145 L 115.81456953642385,295.81430942857145 L 120.76821192052981,295.81430942857145 L 125.72185430463577,293.4995342857143 L 130.67549668874173,287.38475828571427 L 135.6291390728477,269.01714285714286 L 140.58278145695363,268.54285714285714 L 145.53642384105962,264.0878914285714 L 150.49006622516555,256.67153314285713 L 155.44370860927154,250.56640885714285 L 160.39735099337747,250.56640885714285 L 165.35099337748346,250.56640885714285 L 170.3046357615894,250.56640885714285 L 175.25827814569539,250.40387114285716 L 180.21192052980132,250.40387114285716 L 185.16556291390728,250.40387114285716 L 190.11920529801324,250.40387114285716 L 195.0728476821192,250.40387114285716 L 200.02649006622516,250.40387114285716 L 204.98013245033113,240.00347314285713 L 209.9337748344371,234.97395771428572 L 214.88741721854305,214.4965297142857 L 219.841059602649,214.4563102857143 L 224.79470198675497,223.124356 L 229.74834437086093,223.124356 L 234.7019867549669,223.124356 L 239.65562913907286,223.124356 L 244.60927152317882,223.124356 L 249.56291390728478,223.124356 L 254.51655629139074,223.124356 L 259.4701986754967,223.124356 L 264.42384105960264,223.124356 L 269.37748344370857,223.124356 L 274.33112582781456,223.124356 L 279.28476821192055,223.124356 L 284.2384105960265,224.43300514285716 L 289.1920529801324,226.57611257142858 L 294.1456953642384,226.57611257142858 L 299.0993377483444,226.57611257142858 L 304.05298013245033,226.57611257142858 L 309.00662251655626,228.74416742857142 L 313.96026490066225,228.74416742857142 L 318.91390728476824,228.74416742857142 L 323.8675496688742,228.74416742857142 L 328.8211920529801,228.74416742857142 L 333.7748344370861,228.74416742857142 L 338.7284768211921,228.74416742857142 L 343.682119205298,228.74416742857142 L 348.63576158940396,228.74416742857142 L 353.58940397350995,228.74416742857142 L 358.5430463576159,228.74416742857142 L 363.49668874172187,228.74416742857142 L 368.4503311258278,228.74416742857142 L 373.4039735099338,228.74416742857142 L 378.3576158940397,228.74416742857142 L 383.3112582781457,229.92988171428573 L 388.26490066225165,228.41216742857142 L 393.21854304635764,220.91845314285715 L 398.17218543046357,205.02990542857142 L 403.12582781456956,194.22619857142857 L 408.0794701986755,194.22619857142857 L 413.0331125827815,191.98704828571428 L 417.9867549668874,178.94416742857143 L 422.94039735099335,178.94416742857143 L 427.89403973509934,178.94416742857143 L 432.8476821192053,178.94416742857143 L 437.80132450331126,173.35907371428573 L 442.7549668874172,160.89100342857142 L 447.7086092715232,160.89100342857142 L 452.6622516556291,160.89100342857142 L 457.6158940397351,160.89100342857142 L 462.56953642384104,160.89100342857142 L 467.52317880794703,160.89100342857142 L 472.47682119205297,160.89100342857142 L 477.43046357615896,160.89100342857142 L 482.3841059602649,160.89100342857142 L 487.3377483443709,151.331514 L 492.2913907284768,151.331514 L 497.2450331125828,149.63987914285715 L 502.19867549668874,149.63987914285715 L 507.1523178807947,147.230816 L 512.1059602649007,146.84939542857143 L 517.0596026490066,142.79600742857144 L 522.0132450331125,136.90400342857143 L 526.9668874172185,127.77485714285714 L 531.9205298013245,127.77485714285714 L 536.8741721854304,127.77485714285714 L 541.8278145695365,127.77485714285714 L 546.7814569536424,130.85771428571428 L 551.7350993377484,130.85771428571428 L 556.6887417218543,130.3834522857143 L 561.6423841059602,130.3834522857143 L 566.5960264900662,125.85400000000001 L 571.5496688741722,124.45485714285715 L 576.5033112582781,124.45485714285715 L 581.4569536423842,124.45485714285715 L 586.4105960264901,124.45485714285715 L 591.364238410596,124.45485714285715 L 596.317880794702,124.45485714285715 L 601.2715231788079,124.45485714285715 L 606.2251655629138,124.45485714285715 L 611.1788079470199,124.45485714285715 L 616.1324503311258,124.45485714285715 L 621.0860927152318,127.68 L 626.0397350993378,132.83897171428572 L 630.9933774834437,136.4542857142857 L 635.9470198675497,136.4542857142857 L 640.9006622516556,136.4542857142857 L 645.8543046357615,140.56280942857143 L 650.8079470198676,140.830354 L 655.7615894039735,140.830354 L 660.7152317880794,141.72689628571428 L 665.6688741721854,141.72689628571428 L 670.6225165562914,141.72689628571428 L 675.5761589403974,141.72689628571428 L 680.5298013245033,141.72689628571428 L 685.4834437086092,141.72689628571428 L 690.4370860927153,141.72689628571428 L 695.3907284768212,141.72689628571428 L 700.3443708609271,156.842382 L 705.2980132450331,159.52669685714287 L 710.2516556291391,159.52669685714287 L 715.205298013245,161.88403914285715" fill="none" stroke="#ff4d4d" stroke-width="1" />
      
      <path d="M -290.3841059602649,199.92467028571429 L -285.43046357615896,199.92467028571429 L -280.47682119205297,202.82080114285714 L -275.52317880794703,207.66489457142856 L -270.56953642384104,207.66489457142856 L -265.6158940397351,207.66489457142856 L -260.6622516556291,207.869205 L -255.7086092715232,210.45582885714285 L -250.7549668874172,212.506581 L -245.80132450331126,213.13710828571428 L -240.84768211920527,213.13710828571428 L -235.89403973509934,213.13710828571428 L -230.94039735099335,213.13710828571428 L -225.98675496688742,210.54757942857142 L -221.03311258278148,215.12543257142858 L -216.0794701986755,215.98448257142857 L -211.12582781456956,215.98448257142857 L -206.17218543046357,216.86562242857144 L -201.21854304635764,223.6637492857143 L -196.26490066225165,223.978841 L -191.31125827814571,228.82293442857141 L -186.35761589403972,229.91011585714287 L -181.4039735099338,229.91011585714287 L -176.4503311258278,234.3548962857143 L -171.49668874172187,236.94152014285714 L -166.54304635761588,237.145546 L -161.58940397350995,238.40362442857142 L -156.63576158940398,239.40677428571428 L -151.68211920529802,240.26677285714285 L -146.72847682119206,252.17660885714287 L -141.7748344370861,273.84594057142857 L -136.82119205298014,291.04064742857145 L -131.86754966887418,291.8996974285714 L -126.91390728476821,302.57084142857144 L -121.96026490066225,303.6298384285714 L -117.00662251655629,315.0054271428571 L -112.05298013245033,315.3205188571429 L -107.09933774834437,315.3205188571429 L -102.1456953642384,316.40770028571427 L -97.19205298013244,319.5340257142857 L -92.23841059602648,319.5340257142857 L -87.28476821192052,319.5340257142857 L -82.33112582781456,319.26263942857145 L -77.3774834437086,328.3084537142857 L -72.42384105960264,334.40074857142855 L -67.47019867549668,339.64142785714284 L -62.51655629139074,339.64142785714284 L -57.56291390728478,339.64142785714284 L -52.60927152317882,343.90461614285715 L -47.65562913907286,351.4850535714286 L -42.701986754966896,352.4653072857143 L -37.748344370860934,353.85430042857143 L -32.79470198675497,355.314306 L -27.84105960264901,348.04047057142856 L -22.88741721854305,348.04047057142856 L -17.933774834437088,346.05278657142856 L -12.980132450331126,347.30580199999997 L -8.026490066225165,343.23287342857145 L -3.0728476821192032,343.23287342857145 L 1.8807947019867584,343.23287342857145 L 6.83443708609272,340.60557957142856 L 11.788079470198682,341.2373755714286 L 16.74172185430463,347.2827398571429 L 21.69536423841059,347.58081657142856 L 26.649006622516552,348.6517655714286 L 31.602649006622514,352.91495385714285 L 36.556291390728475,355.5486742857143 L 41.50993377483444,359.1336932857143 L 46.4635761589404,359.6751615714286 L 51.41721854304636,359.6751615714286 L 56.370860927152314,369.9721534285714 L 61.324503311258276,376.8206494285714 L 66.27814569536423,376.8206494285714 L 71.23178807947019,376.8206494285714 L 76.18543046357615,376.8206494285714 L 81.13907284768212,386.3681157142857 L 86.09271523178808,386.3681157142857 L 91.04635761589404,387.50033057142855 L 96,387.5198355714286 L 100.95364238410596,387.37350657142855 L 105.90728476821192,386.8724 L 110.86092715231788,386.8724 L 115.81456953642385,381.235289 L 120.76821192052981,381.6325032857143 L 125.72185430463577,375.5210235714286 L 130.67549668874173,374.8122984285714 L 135.6291390728477,362.940761 L 140.58278145695363,360.08302357142855 L 145.53642384105962,360.08302357142855 L 150.49006622516555,352.0445802857143 L 155.44370860927154,351.6339437142857 L 160.39735099337747,351.6339437142857 L 165.35099337748346,351.6339437142857 L 170.3046357615894,350.47655614285713 L 175.25827814569539,347.41916814285713 L 180.21192052980132,329.080247 L 185.16556291390728,328.54060471428573 L 190.11920529801324,325.81201528571427 L 195.0728476821192,325.75715228571426 L 200.02649006622516,320.1200412857143 L 204.98013245033113,320.1200412857143 L 209.9337748344371,314.0085615714286 L 214.88741721854305,290.97762671428575 L 219.841059602649,290.89635785714285 L 224.79470198675497,288.5264707142857 L 229.74834437086093,288.1568835714286 L 234.7019867549669,280.22560514285715 L 239.65562913907286,279.81496857142855 L 244.60927152317882,279.81496857142855 L 249.56291390728478,274.61476957142855 L 254.51655629139074,270.94262428571426 L 259.4701986754967,257.6465222857143 L 264.42384105960264,248.44260485714287 L 269.37748344370857,248.205462 L 274.33112582781456,245.97797914285715 L 279.28476821192055,238.61648385714287 L 284.2384105960265,232.51135957142859 L 289.1920529801324,232.51135957142859 L 294.1456953642384,232.33589757142857 L 299.0993377483444,232.33589757142857 L 304.05298013245033,232.2546287142857 L 309.00662251655626,232.2546287142857 L 313.96026490066225,228.64948814285714 L 318.91390728476824,228.10462871428572 L 323.8675496688742,230.87876142857144 L 328.8211920529801,232.38471342857142 L 333.7748344370861,228.85012285714285 L 338.7284768211921,226.8294522857143 L 343.682119205298,216.59073828571428 L 348.63576158940396,216.57062857142859 L 353.58940397350995,226.78914985714286 L 358.5430463576159,226.78914985714286 L 363.49668874172187,232.17510285714286 L 368.4503311258278,231.98824614285715 L 373.4039735099338,225.68023428571428 L 378.3576158940397,225.22968657142857 L 383.3112582781457,224.8502342857143 L 388.26490066225165,224.8502342857143 L 393.21854304635764,224.8502342857143 L 398.17218543046357,223.54227285714285 L 403.12582781456956,221.34993457142858 L 408.0794701986755,221.34993457142858 L 413.0331125827815,222.00425914285714 L 417.9867549668874,223.07581285714286 L 422.94039735099335,223.07581285714286 L 427.89403973509934,226.28909857142858 L 432.8476821192053,226.28909857142858 L 437.80132450331126,231.95745314285713 L 442.7549668874172,231.95745314285713 L 447.7086092715232,231.95745314285713 L 452.6622516556291,231.84824885714286 L 457.6158940397351,231.84824885714286 L 462.56953642384104,231.84824885714286 L 467.52317880794703,231.84824885714286 L 472.47682119205297,231.84824885714286 L 477.43046357615896,231.82702457142858 L 482.3841059602649,229.0344777142857 L 487.3377483443709,222.80044257142856 L 492.2913907284768,220.31044257142858 L 497.2450331125828,220.31044257142858 L 502.19867549668874,220.31044257142858 L 507.1523178807947,220.31044257142858 L 512.1059602649007,220.9032997142857 L 517.0596026490066,219.38558542857143 L 522.0132450331125,211.89187114285716 L 526.9668874172185,196.00332342857143 L 531.9205298013245,180.41987185714285 L 536.8741721854304,180.41987185714285 L 541.8278145695365,177.33490414285714 L 546.7814569536424,164.2920232857143 L 551.7350993377484,163.0874917142857 L 556.6887417218543,162.89678142857142 L 561.6423841059602,160.87008742857142 L 566.5960264900662,155.13153857142856 L 571.5496688741722,140.94737214285715 L 576.5033112582781,136.91901457142856 L 581.4569536423842,136.91901457142856 L 586.4105960264901,136.91901457142856 L 591.364238410596,138.46044314285714 L 596.317880794702,138.06050171428572 L 601.2715231788079,140.77116314285715 L 606.2251655629138,140.77116314285715 L 611.1788079470199,143.81905357142858 L 616.1324503311258,139.03930885714286 L 621.0860927152318,138.56265171428572 L 626.0397350993378,137.7168342857143 L 630.9933774834437,136.10749985714287 L 635.9470198675497,138.6544497142857 L 640.9006622516556,139.76802514285714 L 645.8543046357615,137.7887597142857 L 650.8079470198676,134.8427577142857 L 655.7615894039735,130.27818457142857 L 660.7152317880794,130.27818457142857 L 665.6688741721854,130.27818457142857 L 670.6225165562914,130.27818457142857 L 675.5761589403974,136.095951 L 680.5298013245033,135.0893032857143 L 685.4834437086092,130.3834522857143 L 690.4370860927153,129.62459514285715 L 695.3907284768212,125.09514285714286 L 700.3443708609271,121.95775471428573 L 705.2980132450331,120.36912285714288 L 710.2516556291391,117.26317985714286 L 715.205298013245,116.76327085714286 L 720.158940397351,119.62872728571426 L 725.1125827814569,122.87785714285712 L 730.066225165563,123.99576042857143 L 735.0198675496689,123.99576042857143 L 739.9735099337748,123.99576042857143 L 744.9271523178808,131.5535032857143 L 749.8807947019867,136.57990028571427 L 754.8344370860927,141.738872 L 759.7880794701987,146.53285714285715 L 764.7417218543046,146.53285714285715 L 769.6953642384105,148.26401185714286 L 774.6490066225166,152.37253557142859 L 779.6026490066225,152.64008014285713 L 784.5562913907285,153.51749685714285 L 789.5099337748344,156.47970757142858 L 794.4635761589404,159.17008142857142 L 799.4172185430464,159.5962152857143 L 804.3708609271523,159.37921771428572 L 809.3245033112582,159.03832485714287 L 814.2781456953643,159.03832485714287 L 819.2317880794702,159.03832485714287 L 824.1854304635762,159.03832485714287 L 829.1390728476821,166.5960677142857 L 834.0927152317881,164.12544228571429 L 839.0463576158941,159.65213357142858 L 844,159.40794757142856" fill="none" stroke="#16a34a" stroke-width="1" />
      <path d="M -161.58940397350995,207.39467028571428 L -156.63576158940398,207.39467028571428 L -151.68211920529802,207.39467028571428 L -146.72847682119206,218.54038457142858 L -141.7748344370861,240.0721022857143 L -136.82119205298014,252.68895600000002 L -131.86754966887418,252.68895600000002 L -126.91390728476821,263.3601 L -121.96026490066225,263.3601 L -117.00662251655629,263.3601 L -112.05298013245033,263.3601 L -107.09933774834437,263.3601 L -102.1456953642384,263.3601 L -97.19205298013244,263.3601 L -92.23841059602648,263.3601 L -87.28476821192052,263.3601 L -82.33112582781456,263.3601 L -77.3774834437086,272.134528 L -72.42384105960264,276.3318854285714 L -67.47019867549668,276.3318854285714 L -62.51655629139074,286.02007228571426 L -57.56291390728478,286.02007228571426 L -52.60927152317882,286.02007228571426 L -47.65562913907286,286.4286931428571 L -42.701986754966896,291.60194085714284 L -37.748344370860934,292.0099925714286 L -32.79470198675497,293.2710471428571 L -27.84105960264901,293.2710471428571 L -22.88741721854305,293.2710471428571 L -17.933774834437088,293.2710471428571 L -12.980132450331126,293.54627514285716 L -8.026490066225165,302.70198142857146 L -3.0728476821192032,304.4200814285714 L 1.8807947019867584,304.4200814285714 L 6.83443708609272,306.53807542857146 L 11.788079470198682,320.13432914285715 L 16.74172185430463,320.76451257142855 L 21.69536423841059,320.76451257142855 L 26.649006622516552,322.9388754285714 L 31.602649006622514,322.9388754285714 L 36.556291390728475,322.9388754285714 L 41.50993377483444,322.9388754285714 L 46.4635761589404,322.9388754285714 L 51.41721854304636,322.9388754285714 L 56.370860927152314,328.5473277142857 L 61.324503311258276,337.11582085714286 L 66.27814569536423,337.11582085714286 L 71.23178807947019,337.11582085714286 L 76.18543046357615,337.11582085714286 L 81.13907284768212,337.11582085714286 L 86.09271523178808,337.11582085714286 L 91.04635761589404,337.11582085714286 L 96,346.27074457142857 L 100.95364238410596,346.27074457142857 L 105.90728476821192,346.27074457142857 L 110.86092715231788,346.27074457142857 L 115.81456953642385,352.5233954285714 L 120.76821192052981,352.5233954285714 L 125.72185430463577,352.5233954285714 L 130.67549668874173,352.5233954285714 L 135.6291390728477,352.5233954285714 L 140.58278145695363,354.30697057142856 L 145.53642384105962,363.068332 L 150.49006622516555,363.068332 L 155.44370860927154,363.068332 L 160.39735099337747,365.24214942857145 L 165.35099337748346,365.24214942857145 L 170.3046357615894,365.24214942857145 L 175.25827814569539,365.24214942857145 L 180.21192052980132,356.087036 L 185.16556291390728,355.7845365714286 L 190.11920529801324,355.7845365714286 L 195.0728476821192,355.7845365714286 L 200.02649006622516,355.7845365714286 L 204.98013245033113,355.7845365714286 L 209.9337748344371,355.7845365714286 L 214.88741721854305,332.7536017142857 L 219.841059602649,332.7536017142857 L 224.79470198675497,330.3837145714286 L 229.74834437086093,330.01412742857144 L 234.7019867549669,323.03072085714285 L 239.65562913907286,323.03072085714285 L 244.60927152317882,323.03072085714285 L 249.56291390728478,323.03072085714285 L 254.51655629139074,323.03072085714285 L 259.4701986754967,323.03072085714285 L 264.42384105960264,323.03072085714285 L 269.37748344370857,323.03072085714285 L 274.33112582781456,323.03072085714285 L 279.28476821192055,315.7240885714286 L 284.2384105960265,309.6189642857143 L 289.1920529801324,309.6189642857143 L 294.1456953642384,309.6189642857143 L 299.0993377483444,309.6189642857143 L 304.05298013245033,309.6189642857143 L 309.00662251655626,309.6189642857143 L 313.96026490066225,309.6189642857143 L 318.91390728476824,308.61675114285714 L 323.8675496688742,308.61675114285714 L 328.8211920529801,297.34252914285713 L 333.7748344370861,297.34252914285713 L 338.7284768211921,285.1195697142857 L 343.682119205298,285.1195697142857 L 348.63576158940396,285.1195697142857 L 353.58940397350995,285.1195697142857 L 358.5430463576159,285.1195697142857 L 363.49668874172187,283.22382600000003 L 368.4503311258278,282.40255285714284 L 373.4039735099338,282.40255285714284 L 378.3576158940397,282.40255285714284 L 383.3112582781457,280.0877777142857 L 388.26490066225165,273.9730017142857 L 393.21854304635764,255.6053862857143 L 398.17218543046357,255.1311005714286 L 403.12582781456956,250.67613485714287 L 408.0794701986755,250.56640885714285 L 413.0331125827815,250.56640885714285 L 417.9867549668874,250.56640885714285 L 422.94039735099335,250.56640885714285 L 427.89403973509934,250.56640885714285 L 432.8476821192053,250.40387114285716 L 437.80132450331126,250.40387114285716 L 442.7549668874172,250.40387114285716 L 447.7086092715232,250.40387114285716 L 452.6622516556291,250.40387114285716 L 457.6158940397351,250.40387114285716 L 462.56953642384104,240.00347314285713 L 467.52317880794703,234.97395771428572 L 472.47682119205297,225.29241085714287 L 477.43046357615896,225.29241085714287 L 482.3841059602649,225.29241085714287 L 487.3377483443709,225.29241085714287 L 492.2913907284768,225.29241085714287 L 497.2450331125828,225.29241085714287 L 502.19867549668874,225.29241085714287 L 507.1523178807947,225.29241085714287 L 512.1059602649007,225.29241085714287 L 517.0596026490066,225.29241085714287 L 522.0132450331125,220.91845314285715 L 526.9668874172185,205.02990542857142 L 531.9205298013245,194.22619857142857 L 536.8741721854304,194.22619857142857 L 541.8278145695365,191.98704828571428 L 546.7814569536424,178.94416742857143 L 551.7350993377484,178.94416742857143 L 556.6887417218543,178.94416742857143 L 561.6423841059602,178.94416742857143 L 566.5960264900662,178.94416742857143 L 571.5496688741722,178.94416742857143 L 576.5033112582781,178.94416742857143 L 581.4569536423842,178.94416742857143 L 586.4105960264901,178.94416742857143 L 591.364238410596,178.94416742857143 L 596.317880794702,178.94416742857143 L 601.2715231788079,178.94416742857143 L 606.2251655629138,178.94416742857143 L 611.1788079470199,178.94416742857143 L 616.1324503311258,178.94416742857143 L 621.0860927152318,178.94416742857143 L 626.0397350993378,178.94416742857143 L 630.9933774834437,178.94416742857143 L 635.9470198675497,178.94416742857143 L 640.9006622516556,178.94416742857143 L 645.8543046357615,178.94416742857143 L 650.8079470198676,178.94416742857143 L 655.7615894039735,178.94416742857143 L 660.7152317880794,178.94416742857143 L 665.6688741721854,178.94416742857143 L 670.6225165562914,178.94416742857143 L 675.5761589403974,178.94416742857143 L 680.5298013245033,178.94416742857143 L 685.4834437086092,178.94416742857143 L 690.4370860927153,178.94416742857143 L 695.3907284768212,171.43821657142857 L 700.3443708609271,157.57100342857143 L 705.2980132450331,157.57100342857143 L 710.2516556291391,157.57100342857143 L 715.205298013245,157.57100342857143 L 720.158940397351,157.57100342857143 L 725.1125827814569,157.57100342857143 L 730.066225165563,157.57100342857143 L 735.0198675496689,157.57100342857143 L 739.9735099337748,157.57100342857143 L 744.9271523178808,148.011514 L 749.8807947019867,148.011514 L 754.8344370860927,146.31987914285713 L 759.7880794701987,146.31987914285713 L 764.7417218543046,143.910816 L 769.6953642384105,143.52939542857143 L 774.6490066225166,140.56280942857143 L 779.6026490066225,140.830354 L 784.5562913907285,140.830354 L 789.5099337748344,141.72689628571428 L 794.4635761589404,141.72689628571428 L 799.4172185430464,141.72689628571428 L 804.3708609271523,141.72689628571428 L 809.3245033112582,141.72689628571428 L 814.2781456953643,141.72689628571428 L 819.2317880794702,141.72689628571428 L 824.1854304635762,141.72689628571428 L 829.1390728476821,141.72689628571428 L 834.0927152317881,141.72689628571428 L 839.0463576158941,141.72689628571428 L 844,141.72689628571428" fill="none" stroke="#ef4444" stroke-width="1" />
    
        
        
  <line x1="96" y1="224.91170171428573" x2="96" y2="239.920236" stroke="#9ca3af" stroke-width="1"/><line x1="100.95364238410596" y1="224.17252742857144" x2="100.95364238410596" y2="235.60262342857143" stroke="#9ca3af" stroke-width="1"/><line x1="105.90728476821192" y1="210.2057142857143" x2="105.90728476821192" y2="238.56377885714286" stroke="#9ca3af" stroke-width="1"/><line x1="110.86092715231788" y1="214.35874971428572" x2="110.86092715231788" y2="235.758616" stroke="#9ca3af" stroke-width="1"/><line x1="115.81456953642385" y1="219.69142857142856" x2="115.81456953642385" y2="234.05531371428572" stroke="#9ca3af" stroke-width="1"/><line x1="120.76821192052981" y1="225.8571902857143" x2="120.76821192052981" y2="245.53041942857143" stroke="#9ca3af" stroke-width="1"/><line x1="125.72185430463577" y1="223.4857142857143" x2="125.72185430463577" y2="236.0051022857143" stroke="#9ca3af" stroke-width="1"/><line x1="130.67549668874173" y1="230.74759771428572" x2="130.67549668874173" y2="238.087264" stroke="#9ca3af" stroke-width="1"/><line x1="135.6291390728477" y1="213.91472342857142" x2="135.6291390728477" y2="234.2966302857143" stroke="#9ca3af" stroke-width="1"/><line x1="140.58278145695363" y1="211.0623217142857" x2="140.58278145695363" y2="244.82857142857142" stroke="#9ca3af" stroke-width="1"/><line x1="145.53642384105962" y1="212.73123828571428" x2="145.53642384105962" y2="230.40800914285714" stroke="#9ca3af" stroke-width="1"/><line x1="150.49006622516555" y1="195.59244971428572" x2="150.49006622516555" y2="224.70970342857143" stroke="#9ca3af" stroke-width="1"/><line x1="155.44370860927154" y1="183.38220114285716" x2="155.44370860927154" y2="216.37142857142857" stroke="#9ca3af" stroke-width="1"/><line x1="160.39735099337747" y1="185.99949942857143" x2="160.39735099337747" y2="225.7028102857143" stroke="#9ca3af" stroke-width="1"/><line x1="165.35099337748346" y1="207.122952" x2="165.35099337748346" y2="224.90591542857143" stroke="#9ca3af" stroke-width="1"/><line x1="170.3046357615894" y1="207.47273771428573" x2="170.3046357615894" y2="226.02613085714285" stroke="#9ca3af" stroke-width="1"/><line x1="175.25827814569539" y1="199.82853257142858" x2="175.25827814569539" y2="211.62857142857143" stroke="#9ca3af" stroke-width="1"/><line x1="180.21192052980132" y1="192.66193314285715" x2="180.21192052980132" y2="221.90297542857144" stroke="#9ca3af" stroke-width="1"/><line x1="185.16556291390728" y1="199.21314685714285" x2="185.16556291390728" y2="214" stroke="#9ca3af" stroke-width="1"/><line x1="190.11920529801324" y1="198.04137657142857" x2="190.11920529801324" y2="228.22857142857143" stroke="#9ca3af" stroke-width="1"/><line x1="195.0728476821192" y1="221.54114285714286" x2="195.0728476821192" y2="239.32510228571428" stroke="#9ca3af" stroke-width="1"/><line x1="200.02649006622516" y1="230.15597371428572" x2="200.02649006622516" y2="242.731612" stroke="#9ca3af" stroke-width="1"/><line x1="204.98013245033113" y1="225.386604" x2="204.98013245033113" y2="238.19388342857144" stroke="#9ca3af" stroke-width="1"/><line x1="209.9337748344371" y1="226.78456114285714" x2="209.9337748344371" y2="244.70796057142857" stroke="#9ca3af" stroke-width="1"/><line x1="214.88741721854305" y1="219.58518857142857" x2="214.88741721854305" y2="236.72867257142858" stroke="#9ca3af" stroke-width="1"/><line x1="219.841059602649" y1="222.53714285714287" x2="219.841059602649" y2="239.61142857142858" stroke="#9ca3af" stroke-width="1"/><line x1="224.79470198675497" y1="228.22857142857143" x2="224.79470198675497" y2="262.8665108571429" stroke="#9ca3af" stroke-width="1"/><line x1="229.74834437086093" y1="224.2775817142857" x2="229.74834437086093" y2="257.63466514285716" stroke="#9ca3af" stroke-width="1"/><line x1="234.7019867549669" y1="222.3" x2="234.7019867549669" y2="235.15314285714285" stroke="#9ca3af" stroke-width="1"/><line x1="239.65562913907286" y1="218.8377617142857" x2="239.65562913907286" y2="228.5185497142857" stroke="#9ca3af" stroke-width="1"/><line x1="244.60927152317882" y1="193.6057142857143" x2="244.60927152317882" y2="226.93804" stroke="#9ca3af" stroke-width="1"/><line x1="249.56291390728478" y1="191.80352342857142" x2="249.56291390728478" y2="204.43247142857143" stroke="#9ca3af" stroke-width="1"/><line x1="254.51655629139074" y1="190.28571428571428" x2="254.51655629139074" y2="207.58253485714286" stroke="#9ca3af" stroke-width="1"/><line x1="259.4701986754967" y1="203.31529142857144" x2="259.4701986754967" y2="228.84628114285715" stroke="#9ca3af" stroke-width="1"/><line x1="264.42384105960264" y1="221.37353028571428" x2="264.42384105960264" y2="248.865312" stroke="#9ca3af" stroke-width="1"/><line x1="269.37748344370857" y1="221.47958057142858" x2="269.37748344370857" y2="235.03580457142857" stroke="#9ca3af" stroke-width="1"/><line x1="274.33112582781456" y1="222.76171714285715" x2="274.33112582781456" y2="233.63595028571427" stroke="#9ca3af" stroke-width="1"/><line x1="279.28476821192055" y1="203.13885714285715" x2="279.28476821192055" y2="229.14308914285715" stroke="#9ca3af" stroke-width="1"/><line x1="284.2384105960265" y1="207.6384057142857" x2="284.2384105960265" y2="235.07744685714286" stroke="#9ca3af" stroke-width="1"/><line x1="289.1920529801324" y1="221.30238742857142" x2="289.1920529801324" y2="236.7657142857143" stroke="#9ca3af" stroke-width="1"/><line x1="294.1456953642384" y1="223.4857617142857" x2="294.1456953642384" y2="232.97142857142856" stroke="#9ca3af" stroke-width="1"/><line x1="299.0993377483444" y1="213.32608742857144" x2="299.0993377483444" y2="238.80372" stroke="#9ca3af" stroke-width="1"/><line x1="304.05298013245033" y1="226.22817657142858" x2="304.05298013245033" y2="247.2" stroke="#9ca3af" stroke-width="1"/><line x1="309.00662251655626" y1="230.91881485714285" x2="309.00662251655626" y2="267.20262057142855" stroke="#9ca3af" stroke-width="1"/><line x1="313.96026490066225" y1="215.89714285714285" x2="313.96026490066225" y2="256.03243314285714" stroke="#9ca3af" stroke-width="1"/><line x1="318.91390728476824" y1="219.25399485714286" x2="318.91390728476824" y2="228.00172057142856" stroke="#9ca3af" stroke-width="1"/><line x1="323.8675496688742" y1="202.70204" x2="323.8675496688742" y2="220.6394782857143" stroke="#9ca3af" stroke-width="1"/><line x1="328.8211920529801" y1="205.99220742857142" x2="328.8211920529801" y2="216.84566685714285" stroke="#9ca3af" stroke-width="1"/><line x1="333.7748344370861" y1="209.46677714285715" x2="333.7748344370861" y2="216.74521314285715" stroke="#9ca3af" stroke-width="1"/><line x1="338.7284768211921" y1="210.30289542857142" x2="338.7284768211921" y2="214.24046285714286" stroke="#9ca3af" stroke-width="1"/><line x1="343.682119205298" y1="204.5142857142857" x2="343.682119205298" y2="212.9238457142857" stroke="#9ca3af" stroke-width="1"/><line x1="348.63576158940396" y1="202.61714285714285" x2="348.63576158940396" y2="217.12919485714286" stroke="#9ca3af" stroke-width="1"/><line x1="353.58940397350995" y1="214.94857142857143" x2="353.58940397350995" y2="230.42095714285713" stroke="#9ca3af" stroke-width="1"/><line x1="358.5430463576159" y1="203.02355828571427" x2="358.5430463576159" y2="231.09629257142856" stroke="#9ca3af" stroke-width="1"/><line x1="363.49668874172187" y1="192.65714285714284" x2="363.49668874172187" y2="210.88114457142856" stroke="#9ca3af" stroke-width="1"/><line x1="368.4503311258278" y1="197.82685714285714" x2="368.4503311258278" y2="211.9773137142857" stroke="#9ca3af" stroke-width="1"/><line x1="373.4039735099338" y1="204.37683771428573" x2="373.4039735099338" y2="208.0407422857143" stroke="#9ca3af" stroke-width="1"/><line x1="378.3576158940397" y1="197.16399542857144" x2="378.3576158940397" y2="208.594044" stroke="#9ca3af" stroke-width="1"/><line x1="383.3112582781457" y1="195.50285714285715" x2="383.3112582781457" y2="203.77591771428573" stroke="#9ca3af" stroke-width="1"/><line x1="388.26490066225165" y1="189.6217142857143" x2="388.26490066225165" y2="203.01307657142857" stroke="#9ca3af" stroke-width="1"/><line x1="393.21854304635764" y1="174.6342857142857" x2="393.21854304635764" y2="194.90630057142857" stroke="#9ca3af" stroke-width="1"/><line x1="398.17218543046357" y1="142.8571902857143" x2="398.17218543046357" y2="183.12229257142857" stroke="#9ca3af" stroke-width="1"/><line x1="403.12582781456956" y1="121.24977657142858" x2="403.12582781456956" y2="151.32176742857143" stroke="#9ca3af" stroke-width="1"/><line x1="408.0794701986755" y1="125.30857142857144" x2="408.0794701986755" y2="132.24239142857144" stroke="#9ca3af" stroke-width="1"/><line x1="413.0331125827815" y1="116.771476" x2="413.0331125827815" y2="130.305456" stroke="#9ca3af" stroke-width="1"/><line x1="417.9867549668874" y1="90.68571428571431" x2="417.9867549668874" y2="120.59455085714285" stroke="#9ca3af" stroke-width="1"/><line x1="422.94039735099335" y1="108.63334971428571" x2="422.94039735099335" y2="135.20833714285715" stroke="#9ca3af" stroke-width="1"/><line x1="427.89403973509934" y1="105.91754228571426" x2="427.89403973509934" y2="121.68408" stroke="#9ca3af" stroke-width="1"/><line x1="432.8476821192053" y1="100.55669085714288" x2="432.8476821192053" y2="121.25580000000002" stroke="#9ca3af" stroke-width="1"/><line x1="437.80132450331126" y1="96.85142857142858" x2="437.80132450331126" y2="125.78285714285715" stroke="#9ca3af" stroke-width="1"/><line x1="442.7549668874172" y1="111.40479085714287" x2="442.7549668874172" y2="119.14285714285717" stroke="#9ca3af" stroke-width="1"/><line x1="447.7086092715232" y1="109.7538022857143" x2="447.7086092715232" y2="127.2057142857143" stroke="#9ca3af" stroke-width="1"/><line x1="452.6622516556291" y1="109.04299028571427" x2="452.6622516556291" y2="132.31742342857143" stroke="#9ca3af" stroke-width="1"/><line x1="457.6158940397351" y1="112.74004742857142" x2="457.6158940397351" y2="133.60857142857142" stroke="#9ca3af" stroke-width="1"/><line x1="462.56953642384104" y1="113.76293942857143" x2="462.56953642384104" y2="132.41839885714285" stroke="#9ca3af" stroke-width="1"/><line x1="467.52317880794703" y1="116.85286342857142" x2="467.52317880794703" y2="132.89714285714285" stroke="#9ca3af" stroke-width="1"/><line x1="472.47682119205297" y1="122.46290457142857" x2="472.47682119205297" y2="144.45121714285713" stroke="#9ca3af" stroke-width="1"/><line x1="477.43046357615896" y1="120.89951657142859" x2="477.43046357615896" y2="128.34120171428572" stroke="#9ca3af" stroke-width="1"/><line x1="482.3841059602649" y1="110.818716" x2="482.3841059602649" y2="123.19240342857142" stroke="#9ca3af" stroke-width="1"/><line x1="487.3377483443709" y1="109.64277199999998" x2="487.3377483443709" y2="119.52223828571431" stroke="#9ca3af" stroke-width="1"/><line x1="492.2913907284768" y1="107.13636171428573" x2="492.2913907284768" y2="122.4628097142857" stroke="#9ca3af" stroke-width="1"/><line x1="497.2450331125828" y1="109.69864285714283" x2="497.2450331125828" y2="127.71059142857143" stroke="#9ca3af" stroke-width="1"/><line x1="502.19867549668874" y1="100.69902400000001" x2="502.19867549668874" y2="121.51428571428573" stroke="#9ca3af" stroke-width="1"/><line x1="507.1523178807947" y1="117.8043754285714" x2="507.1523178807947" y2="159.45714285714286" stroke="#9ca3af" stroke-width="1"/><line x1="512.1059602649007" y1="149.19886457142857" x2="512.1059602649007" y2="164.6742857142857" stroke="#9ca3af" stroke-width="1"/><line x1="517.0596026490066" y1="145.23340914285714" x2="517.0596026490066" y2="164.864" stroke="#9ca3af" stroke-width="1"/><line x1="522.0132450331125" y1="140.49311314285714" x2="522.0132450331125" y2="150.92" stroke="#9ca3af" stroke-width="1"/><line x1="526.9668874172185" y1="142.03297657142858" x2="526.9668874172185" y2="161.82857142857142" stroke="#9ca3af" stroke-width="1"/><line x1="531.9205298013245" y1="140.67542857142857" x2="531.9205298013245" y2="154.87559028571428" stroke="#9ca3af" stroke-width="1"/><line x1="536.8741721854304" y1="127.908748" x2="536.8741721854304" y2="148.52106285714285" stroke="#9ca3af" stroke-width="1"/><line x1="541.8278145695365" y1="126.73147599999999" x2="541.8278145695365" y2="136.09729085714287" stroke="#9ca3af" stroke-width="1"/><line x1="546.7814569536424" y1="124.19660857142858" x2="546.7814569536424" y2="134.09765485714286" stroke="#9ca3af" stroke-width="1"/><line x1="551.7350993377484" y1="113.77778457142858" x2="551.7350993377484" y2="133.37142857142857" stroke="#9ca3af" stroke-width="1"/><line x1="556.6887417218543" y1="95.90290457142856" x2="556.6887417218543" y2="119.09372114285713" stroke="#9ca3af" stroke-width="1"/><line x1="561.6423841059602" y1="105.86285714285714" x2="561.6423841059602" y2="115.5153302857143" stroke="#9ca3af" stroke-width="1"/><line x1="566.5960264900662" y1="86.844" x2="566.5960264900662" y2="112.97709542857143" stroke="#9ca3af" stroke-width="1"/><line x1="571.5496688741722" y1="84.04571428571427" x2="571.5496688741722" y2="125.30857142857144" stroke="#9ca3af" stroke-width="1"/><line x1="576.5033112582781" y1="114.27668571428569" x2="576.5033112582781" y2="133.01732685714285" stroke="#9ca3af" stroke-width="1"/><line x1="581.4569536423842" y1="123.25420285714284" x2="581.4569536423842" y2="131.75202742857144" stroke="#9ca3af" stroke-width="1"/><line x1="586.4105960264901" y1="119.64531542857145" x2="586.4105960264901" y2="130.65761314285714" stroke="#9ca3af" stroke-width="1"/><line x1="591.364238410596" y1="125.15115599999999" x2="591.364238410596" y2="145.55948057142857" stroke="#9ca3af" stroke-width="1"/><line x1="596.317880794702" y1="124.36000000000001" x2="596.317880794702" y2="158.556" stroke="#9ca3af" stroke-width="1"/><line x1="601.2715231788079" y1="146.61424457142857" x2="601.2715231788079" y2="163.02761314285715" stroke="#9ca3af" stroke-width="1"/><line x1="606.2251655629138" y1="144.77743085714286" x2="606.2251655629138" y2="159.45714285714286" stroke="#9ca3af" stroke-width="1"/><line x1="611.1788079470199" y1="131.28461885714285" x2="611.1788079470199" y2="160.4598777142857" stroke="#9ca3af" stroke-width="1"/><line x1="616.1324503311258" y1="134.7942857142857" x2="616.1324503311258" y2="150.92" stroke="#9ca3af" stroke-width="1"/><line x1="621.0860927152318" y1="143.05695942857142" x2="621.0860927152318" y2="171.31428571428572" stroke="#9ca3af" stroke-width="1"/><line x1="626.0397350993378" y1="153.81845485714285" x2="626.0397350993378" y2="181.63222914285714" stroke="#9ca3af" stroke-width="1"/><line x1="630.9933774834437" y1="162.824524" x2="630.9933774834437" y2="188.86285714285714" stroke="#9ca3af" stroke-width="1"/><line x1="635.9470198675497" y1="157.93772114285716" x2="635.9470198675497" y2="173.40062114285715" stroke="#9ca3af" stroke-width="1"/><line x1="640.9006622516556" y1="155.5229902857143" x2="640.9006622516556" y2="172.26285714285714" stroke="#9ca3af" stroke-width="1"/><line x1="645.8543046357615" y1="161.93794171428573" x2="645.8543046357615" y2="197.07990457142859" stroke="#9ca3af" stroke-width="1"/><line x1="650.8079470198676" y1="187.74268914285713" x2="650.8079470198676" y2="197.6149937142857" stroke="#9ca3af" stroke-width="1"/><line x1="655.7615894039735" y1="183.86559314285714" x2="655.7615894039735" y2="193.82929257142857" stroke="#9ca3af" stroke-width="1"/><line x1="660.7152317880794" y1="181.146276" x2="660.7152317880794" y2="199.40807828571428" stroke="#9ca3af" stroke-width="1"/><line x1="665.6688741721854" y1="164.86807885714285" x2="665.6688741721854" y2="187.00266114285714" stroke="#9ca3af" stroke-width="1"/><line x1="670.6225165562914" y1="158.50861885714286" x2="670.6225165562914" y2="170.16542342857142" stroke="#9ca3af" stroke-width="1"/><line x1="675.5761589403974" y1="154.655" x2="675.5761589403974" y2="176.24680971428572" stroke="#9ca3af" stroke-width="1"/><line x1="680.5298013245033" y1="153.29142857142858" x2="680.5298013245033" y2="178.12085485714286" stroke="#9ca3af" stroke-width="1"/><line x1="685.4834437086092" y1="169.89142857142858" x2="685.4834437086092" y2="177.9542857142857" stroke="#9ca3af" stroke-width="1"/><line x1="690.4370860927153" y1="163.24559485714286" x2="690.4370860927153" y2="177.11072114285713" stroke="#9ca3af" stroke-width="1"/><line x1="695.3907284768212" y1="158.29395714285715" x2="695.3907284768212" y2="170.62500628571428" stroke="#9ca3af" stroke-width="1"/><line x1="700.3443708609271" y1="158.28418685714286" x2="700.3443708609271" y2="173.86912057142857" stroke="#9ca3af" stroke-width="1"/><line x1="705.2980132450331" y1="150.44571428571427" x2="705.2980132450331" y2="172.32617428571427" stroke="#9ca3af" stroke-width="1"/><line x1="710.2516556291391" y1="141.43428571428572" x2="710.2516556291391" y2="154.245312" stroke="#9ca3af" stroke-width="1"/><line x1="715.205298013245" y1="135.74285714285713" x2="715.205298013245" y2="142.85301657142858" stroke="#9ca3af" stroke-width="1"/>
  <rect x="94.21904761904761" y="226.80576171428572" width="3.561904761904762" height="13.010937714285717" fill="#16a34a"/><rect x="99.17269000315358" y="226.8057142857143" width="3.561904761904762" height="1.702069142857141" fill="#ef4444"/><rect x="104.12633238725954" y="224.77743142857142" width="3.561904761904762" height="3.5373651428571407" fill="#16a34a"/><rect x="109.0799747713655" y="219.68440914285713" width="3.561904761904762" height="5.0929748571428775" fill="#16a34a"/><rect x="114.03361715547146" y="219.72462857142858" width="3.561904761904762" height="8.29046685714286" fill="#ef4444"/><rect x="118.98725953957742" y="228.01509542857144" width="3.561904761904762" height="2.575798285714285" fill="#ef4444"/><rect x="123.94090192368338" y="230.5908462857143" width="3.561904761904762" height="1.2803342857142752" fill="#ef4444"/><rect x="128.89454430778935" y="231.87118057142857" width="3.561904761904762" height="2.4253548571428496" fill="#ef4444"/><rect x="133.8481866918953" y="214.60186857142858" width="3.561904761904762" height="19.69461942857143" fill="#16a34a"/><rect x="138.80182907600124" y="214.95502171428572" width="3.561904761904762" height="8.001247428571418" fill="#ef4444"/><rect x="143.75547146010723" y="217.4748542857143" width="3.561904761904762" height="5.481367428571417" fill="#16a34a"/><rect x="148.70911384421316" y="201.76295428571427" width="3.561904761904762" height="15.612964000000005" fill="#16a34a"/><rect x="153.66275622831915" y="186.63784057142857" width="3.561904761904762" height="15.125066285714297" fill="#16a34a"/><rect x="158.6163986124251" y="186.63779314285713" width="3.561904761904762" height="35.8993022857143" fill="#ef4444"/><rect x="163.57004099653108" y="217.89919771428572" width="3.561904761904762" height="4.316569142857134" fill="#16a34a"/><rect x="168.523683380637" y="209.16181142857144" width="3.561904761904762" height="8.73738628571428" fill="#16a34a"/><rect x="173.477325764743" y="207.33325028571429" width="3.561904761904762" height="1.7991079999999897" fill="#16a34a"/><rect x="178.43096814884893" y="203.491536" width="3.561904761904762" height="3.841714285714289" fill="#16a34a"/><rect x="183.3846105329549" y="202.88440285714285" width="3.561904761904762" height="1" fill="#16a34a"/><rect x="188.33825291706086" y="202.88435542857144" width="3.561904761904762" height="24.388055999999978" fill="#ef4444"/><rect x="193.29189530116682" y="227.21820057142858" width="3.561904761904762" height="10.023127428571428" fill="#ef4444"/><rect x="198.24553768527278" y="231.98168914285714" width="3.561904761904762" height="5.259638857142875" fill="#16a34a"/><rect x="203.19918006937874" y="226.78460857142858" width="3.561904761904762" height="5.1970805714285575" fill="#16a34a"/><rect x="208.1528224534847" y="226.78456114285714" width="3.561904761904762" height="5.705182857142859" fill="#ef4444"/><rect x="213.10646483759066" y="228.91073657142857" width="3.561904761904762" height="3.5790074285714297" fill="#16a34a"/><rect x="218.06010722169663" y="228.91073657142857" width="3.561904761904762" height="9.07237428571429" fill="#ef4444"/><rect x="223.0137496058026" y="237.98311085714286" width="3.561904761904762" height="17.084719999999976" fill="#ef4444"/><rect x="227.96739198990855" y="232.63259885714285" width="3.561904761904762" height="22.435231999999985" fill="#16a34a"/><rect x="232.9210343740145" y="224.19714285714286" width="3.561904761904762" height="8.46045085714286" fill="#16a34a"/><rect x="237.87467675812047" y="224.19714285714286" width="3.561904761904762" height="1" fill="#ef4444"/><rect x="242.82831914222643" y="195.32684971428571" width="3.561904761904762" height="29.486864571428583" fill="#16a34a"/><rect x="247.7819615263324" y="192.59937485714286" width="3.561904761904762" height="2.7274748571428518" fill="#16a34a"/><rect x="252.73560391043836" y="192.59937485714286" width="3.561904761904762" height="11.863355999999982" fill="#ef4444"/><rect x="257.6892462945443" y="204.46273085714284" width="3.561904761904762" height="24.240126285714297" fill="#ef4444"/><rect x="262.64288867865025" y="222.632" width="3.561904761904762" height="6.232161714285695" fill="#16a34a"/><rect x="267.5965310627562" y="222.3377057142857" width="3.561904761904762" height="4.616792000000004" fill="#ef4444"/><rect x="272.5501734468622" y="224.38510228571428" width="3.561904761904762" height="2.5693954285714256" fill="#16a34a"/><rect x="277.50381583096816" y="216.66686114285713" width="3.561904761904762" height="7.718241142857153" fill="#16a34a"/><rect x="282.4574582150741" y="216.59495942857143" width="3.561904761904762" height="9.19910342857142" fill="#ef4444"/><rect x="287.41110059918003" y="225.79411028571428" width="3.561904761904762" height="1.297456000000011" fill="#ef4444"/><rect x="292.364742983286" y="226.9053142857143" width="3.561904761904762" height="1" fill="#16a34a"/><rect x="297.318385367392" y="226.9053142857143" width="3.561904761904762" height="4.13316285714285" fill="#ef4444"/><rect x="302.27202775149794" y="231.0384297142857" width="3.561904761904762" height="7.974877142857139" fill="#ef4444"/><rect x="307.2256701356039" y="239.01335428571429" width="3.561904761904762" height="8.027096" fill="#ef4444"/><rect x="312.17931251970987" y="220.17097885714287" width="3.561904761904762" height="26.869471428571416" fill="#16a34a"/><rect x="317.13295490381586" y="219.89807485714286" width="3.561904761904762" height="1" fill="#16a34a"/><rect x="322.0865972879218" y="212.1028097142857" width="3.561904761904762" height="7.63604742857143" fill="#16a34a"/><rect x="327.0402396720277" y="212.1028097142857" width="3.561904761904762" height="1.9446188571428706" fill="#ef4444"/><rect x="331.9938820561337" y="213.676632" width="3.561904761904762" height="1" fill="#16a34a"/><rect x="336.9475244402397" y="212.04323942857144" width="3.561904761904762" height="1.6333925714285726" fill="#16a34a"/><rect x="341.90116682434564" y="206.31861085714286" width="3.561904761904762" height="5.724628571428582" fill="#16a34a"/><rect x="346.85480920845157" y="206.31861085714286" width="3.561904761904762" height="10.810584000000006" fill="#ef4444"/><rect x="351.80845159255756" y="217.09514114285713" width="3.561904761904762" height="11.499057142857168" fill="#ef4444"/><rect x="356.7620939766635" y="210.88109714285713" width="3.561904761904762" height="17.71310114285717" fill="#16a34a"/><rect x="361.7157363607695" y="198.87431714285714" width="3.561904761904762" height="12.006779999999992" fill="#16a34a"/><rect x="366.6693787448754" y="198.87431714285714" width="3.561904761904762" height="7.552525714285707" fill="#ef4444"/><rect x="371.6230211289814" y="206.23181657142857" width="3.561904761904762" height="1" fill="#16a34a"/><rect x="376.57666351308734" y="199.76554742857144" width="3.561904761904762" height="6.46645885714284" fill="#16a34a"/><rect x="381.53030589719333" y="198.93526285714285" width="3.561904761904762" height="1" fill="#16a34a"/><rect x="386.48394828129926" y="191.23404857142856" width="3.561904761904762" height="7.701261714285721" fill="#16a34a"/><rect x="391.43759066540525" y="179.85142857142858" width="3.561904761904762" height="11.382619999999974" fill="#16a34a"/><rect x="396.3912330495112" y="147.60004742857143" width="3.561904761904762" height="32.251381142857156" fill="#16a34a"/><rect x="401.3448754336172" y="130.40775942857144" width="3.561904761904762" height="17.192240571428556" fill="#16a34a"/><rect x="406.2985178177231" y="129.72236914285713" width="3.561904761904762" height="1" fill="#16a34a"/><rect x="411.2521602018291" y="118.89746171428573" width="3.561904761904762" height="10.824860000000001" fill="#16a34a"/><rect x="416.20580258593503" y="108.63339714285712" width="3.561904761904762" height="10.264017142857142" fill="#16a34a"/><rect x="421.15944497004097" y="108.63334971428571" width="3.561904761904762" height="8.911638857142862" fill="#ef4444"/><rect x="426.11308735414696" y="116.42249657142855" width="3.561904761904762" height="1.1224445714286162" fill="#16a34a"/><rect x="431.0667297382529" y="110.56791371428574" width="3.561904761904762" height="5.854582857142816" fill="#16a34a"/><rect x="436.0203721223589" y="110.56796114285714" width="3.561904761904762" height="6.83265485714287" fill="#ef4444"/><rect x="440.9740145064648" y="116.23657657142854" width="3.561904761904762" height="1.1639920000000075" fill="#16a34a"/><rect x="445.9276568905708" y="116.23657657142854" width="3.561904761904762" height="6.019824000000028" fill="#ef4444"/><rect x="450.88129927467673" y="122.25640057142857" width="3.561904761904762" height="4.608207428571433" fill="#ef4444"/><rect x="455.8349416587827" y="113.74207085714283" width="3.561904761904762" height="13.122537142857169" fill="#16a34a"/><rect x="460.78858404288866" y="113.76293942857143" width="3.561904761904762" height="9.648489142857159" fill="#ef4444"/><rect x="465.74222642699465" y="123.38486857142857" width="3.561904761904762" height="1" fill="#ef4444"/><rect x="470.6958688111006" y="123.83875999999998" width="3.561904761904762" height="1.1813508571428883" fill="#ef4444"/><rect x="475.64951119520657" y="122.396884" width="3.561904761904762" height="2.623179428571433" fill="#16a34a"/><rect x="480.6031535793125" y="112.74863199999999" width="3.561904761904762" height="9.648252000000014" fill="#16a34a"/><rect x="485.5567959634185" y="112.5861417142857" width="3.561904761904762" height="3.4367691428571447" fill="#ef4444"/><rect x="490.5104383475244" y="115.91150114285716" width="3.561904761904762" height="1" fill="#ef4444"/><rect x="495.4640807316304" y="114.01815257142857" width="3.561904761904762" height="2.7682634285714016" fill="#16a34a"/><rect x="500.41772311573635" y="114.01810514285717" width="3.561904761904762" height="5.468798857142815" fill="#ef4444"/><rect x="505.37136549984234" y="119.48695142857144" width="3.561904761904762" height="35.99268914285713" fill="#ef4444"/><rect x="510.3250078839483" y="155.47964057142858" width="3.561904761904762" height="5.786095999999986" fill="#ef4444"/><rect x="515.2786502680542" y="148.92117028571428" width="3.561904761904762" height="12.34456628571428" fill="#16a34a"/><rect x="520.2322926521601" y="145.70285714285714" width="3.561904761904762" height="3.2183131428571414" fill="#16a34a"/><rect x="525.1859350362661" y="145.7704902857143" width="3.561904761904762" height="3.416327428571435" fill="#ef4444"/><rect x="530.1395774203721" y="145.32271714285713" width="3.561904761904762" height="3.864100571428594" fill="#16a34a"/><rect x="535.093219804478" y="130.5443062857143" width="3.561904761904762" height="14.779074857142831" fill="#16a34a"/><rect x="540.0468621885841" y="130.5443062857143" width="3.561904761904762" height="1.4711868571428397" fill="#ef4444"/><rect x="545.00050457269" y="132.01549314285714" width="3.561904761904762" height="1" fill="#ef4444"/><rect x="549.954146956796" y="113.92571428571426" width="3.561904761904762" height="18.78806971428574" fill="#16a34a"/><rect x="554.9077893409019" y="113.92566685714286" width="3.561904761904762" height="1" fill="#ef4444"/><rect x="559.8614317250078" y="106.81138114285716" width="3.561904761904762" height="7.825714285714298" fill="#16a34a"/><rect x="564.8150741091138" y="89.05047200000001" width="3.561904761904762" height="17.760909142857145" fill="#16a34a"/><rect x="569.7687164932198" y="88.88105714285712" width="3.561904761904762" height="28.834816571428576" fill="#ef4444"/><rect x="574.7223588773257" y="117.71587371428569" width="3.561904761904762" height="9.65935028571431" fill="#ef4444"/><rect x="579.6760012614318" y="127.375224" width="3.561904761904762" height="1" fill="#ef4444"/><rect x="584.6296436455377" y="126.49423828571429" width="3.561904761904762" height="1.0461794285714348" fill="#16a34a"/><rect x="589.5832860296437" y="126.49423828571429" width="3.561904761904762" height="6.110981714285714" fill="#ef4444"/><rect x="594.5369284137496" y="132.60526742857144" width="3.561904761904762" height="24.603761142857138" fill="#ef4444"/><rect x="599.4905707978555" y="148.788892" width="3.561904761904762" height="8.420136571428571" fill="#16a34a"/><rect x="604.4442131819615" y="148.78893942857144" width="3.561904761904762" height="7.543371999999977" fill="#ef4444"/><rect x="609.3978555660675" y="135.12633314285713" width="3.561904761904762" height="21.20597828571428" fill="#16a34a"/><rect x="614.3514979501734" y="135.1262857142857" width="3.561904761904762" height="9.474995428571447" fill="#ef4444"/><rect x="619.3051403342794" y="144.60128114285715" width="3.561904761904762" height="10.811722285714268" fill="#ef4444"/><rect x="624.2587827183854" y="155.41300342857141" width="3.561904761904762" height="19.129033714285725" fill="#ef4444"/><rect x="629.2124251024914" y="166.66557428571429" width="3.561904761904762" height="7.87641542857142" fill="#16a34a"/><rect x="634.1660674865973" y="166.66557428571429" width="3.561904761904762" height="4.436516000000012" fill="#ef4444"/><rect x="639.1197098707032" y="163.48861885714285" width="3.561904761904762" height="7.613471428571444" fill="#16a34a"/><rect x="644.0733522548092" y="163.48861885714285" width="3.561904761904762" height="26.797095428571424" fill="#ef4444"/><rect x="649.0269946389152" y="188.68556914285713" width="3.561904761904762" height="1.600097714285738" fill="#16a34a"/><rect x="653.9806370230211" y="188.68561657142857" width="3.561904761904762" height="4.223846285714302" fill="#ef4444"/><rect x="658.9342794071271" y="185.71895942857142" width="3.561904761904762" height="7.190503428571446" fill="#16a34a"/><rect x="663.887921791233" y="165.5198897142857" width="3.561904761904762" height="20.199117142857148" fill="#16a34a"/><rect x="668.841564175339" y="164.67637257142857" width="3.561904761904762" height="1" fill="#16a34a"/><rect x="673.795206559445" y="164.67632514285714" width="3.561904761904762" height="3.8112651428571382" fill="#ef4444"/><rect x="678.7488489435509" y="168.2787622857143" width="3.561904761904762" height="6.202613714285718" fill="#ef4444"/><rect x="683.7024913276568" y="174.481376" width="3.561904761904762" height="2.6292977142857126" fill="#ef4444"/><rect x="688.6561337117629" y="166.46400285714284" width="3.561904761904762" height="10.64667085714288" fill="#16a34a"/><rect x="693.6097760958688" y="165.14857142857142" width="3.561904761904762" height="1.571782857142864" fill="#16a34a"/><rect x="698.5634184799748" y="165.14857142857142" width="3.561904761904762" height="3.0436337142857326" fill="#ef4444"/><rect x="703.5170608640807" y="151.77840971428571" width="3.561904761904762" height="16.413795428571433" fill="#16a34a"/><rect x="708.4707032481867" y="141.49902571428572" width="3.561904761904762" height="10.279383999999993" fill="#16a34a"/><rect x="713.4243456322927" y="140.037372" width="3.561904761904762" height="1.4616537142857169" fill="#16a34a"/>
      </g>
      <g class="legend">
        <g font-size="12" fill="#e5e7eb"><g transform="translate(96, 30)">
        <rect y="-10" width="12" height="12" fill="#00a3ff"></rect>
        <text x="16" y="0"></text>
      </g><g transform="translate(226, 30)">
        <rect y="-10" width="12" height="12" fill="#ff4d4d"></rect>
        <text x="16" y="0"></text>
      </g></g>
      </g>
    </svg>
  
