<svg xmlns="http://www.w3.org/2000/svg" width="860" height="420" viewBox="0 0 860 420">
  <rect x="0" y="0" width="860" height="420" fill="#ffffff"/>
  <g class="grid">
    <line x1="48" y1="388" x2="844" y2="388" stroke="#e5e7eb"/>
    <line x1="48" y1="24" x2="48" y2="388" stroke="#e5e7eb"/>
  </g>
  <!-- ローソク -->
  <line x1="48" y1="141.38905308840586" x2="48" y2="236.27445845336527" stroke="#9ca3af" stroke-width="1"/><line x1="61.49152542372882" y1="154.19566762692207" x2="61.49152542372882" y2="176.0737775449886" stroke="#9ca3af" stroke-width="1"/><line x1="74.98305084745763" y1="127.25878259568259" x2="74.98305084745763" y2="169.96221332634966" stroke="#9ca3af" stroke-width="1"/><line x1="88.47457627118644" y1="44.951026974447245" x2="88.47457627118644" y2="139.32163567660592" stroke="#9ca3af" stroke-width="1"/><line x1="101.96610169491525" y1="101.58075498522203" x2="101.96610169491525" y2="185.43215234389615" stroke="#9ca3af" stroke-width="1"/><line x1="115.45762711864407" y1="93.01163530248044" x2="115.45762711864407" y2="142.75939990272738" stroke="#9ca3af" stroke-width="1"/><line x1="128.94915254237287" y1="76.0966740244678" x2="128.94915254237287" y2="141.40805866287553" stroke="#9ca3af" stroke-width="1"/><line x1="142.4406779661017" y1="64.40555202214824" x2="142.4406779661017" y2="155.6921695536683" stroke="#9ca3af" stroke-width="1"/><line x1="155.9322033898305" y1="110.32541434397098" x2="155.9322033898305" y2="134.74114257922108" stroke="#9ca3af" stroke-width="1"/><line x1="169.4237288135593" y1="105.11609113696733" x2="169.4237288135593" y2="160.18167533390698" stroke="#9ca3af" stroke-width="1"/><line x1="182.91525423728814" y1="102.87328369935278" x2="182.91525423728814" y2="176.31052414979985" stroke="#9ca3af" stroke-width="1"/><line x1="196.40677966101694" y1="114.53851621833962" x2="196.40677966101694" y2="180.3844513449811" stroke="#9ca3af" stroke-width="1"/><line x1="209.89830508474577" y1="117.76602192375321" x2="209.89830508474577" y2="176.6291294100041" stroke="#9ca3af" stroke-width="1"/><line x1="223.38983050847457" y1="127.51558232631226" x2="223.38983050847457" y2="178.13969845486176" stroke="#9ca3af" stroke-width="1"/><line x1="236.88135593220338" y1="145.21680571663737" x2="236.88135593220338" y2="214.59598189232668" stroke="#9ca3af" stroke-width="1"/><line x1="250.3728813559322" y1="140.28388641550376" x2="250.3728813559322" y2="163.76445059673014" stroke="#9ca3af" stroke-width="1"/><line x1="263.864406779661" y1="108.47618691309066" x2="263.864406779661" y2="147.51857533016573" stroke="#9ca3af" stroke-width="1"/><line x1="277.35593220338984" y1="104.76576003591606" x2="277.35593220338984" y2="135.93819447042537" stroke="#9ca3af" stroke-width="1"/><line x1="290.8474576271186" y1="96.85734595383292" x2="290.8474576271186" y2="145.216506416252" stroke="#9ca3af" stroke-width="1"/><line x1="304.33898305084745" y1="104.94204796288676" x2="304.33898305084745" y2="161.77470163492836" stroke="#9ca3af" stroke-width="1"/><line x1="317.8305084745763" y1="76.54577425268434" x2="317.8305084745763" y2="142.22365221295223" stroke="#9ca3af" stroke-width="1"/><line x1="331.3220338983051" y1="130.51786449175052" x2="331.3220338983051" y2="261.94380635265065" stroke="#9ca3af" stroke-width="1"/><line x1="344.8135593220339" y1="229.57611582924912" x2="344.8135593220339" y2="278.4053275468592" stroke="#9ca3af" stroke-width="1"/><line x1="358.3050847457627" y1="217.06401286991658" x2="358.3050847457627" y2="279.0039283175577" stroke="#9ca3af" stroke-width="1"/><line x1="371.79661016949154" y1="202.1070747128587" x2="371.79661016949154" y2="235.00677167121853" stroke="#9ca3af" stroke-width="1"/><line x1="385.2881355932203" y1="206.96576751842568" x2="385.2881355932203" y2="269.42631598638184" stroke="#9ca3af" stroke-width="1"/><line x1="398.77966101694915" y1="202.68233005349995" x2="398.77966101694915" y2="247.48774739047477" stroke="#9ca3af" stroke-width="1"/><line x1="412.271186440678" y1="162.39994013992293" x2="412.271186440678" y2="227.4374649257361" stroke="#9ca3af" stroke-width="1"/><line x1="425.76271186440675" y1="158.68532305735343" x2="425.76271186440675" y2="188.2370459051966" stroke="#9ca3af" stroke-width="1"/><line x1="439.2542372881356" y1="150.68711885966553" x2="439.2542372881356" y2="181.92764413184182" stroke="#9ca3af" stroke-width="1"/><line x1="452.7457627118644" y1="117.81286243406038" x2="452.7457627118644" y2="179.63620038160798" stroke="#9ca3af" stroke-width="1"/><line x1="466.23728813559325" y1="61.412697818848414" x2="466.23728813559325" y2="134.58610497961016" stroke="#9ca3af" stroke-width="1"/><line x1="479.728813559322" y1="92.83908863032661" x2="479.728813559322" y2="123.2952972426952" stroke="#9ca3af" stroke-width="1"/><line x1="493.22033898305085" y1="32.82936136780273" x2="493.22033898305085" y2="115.28646788132738" stroke="#9ca3af" stroke-width="1"/><line x1="506.7118644067797" y1="24" x2="506.7118644067797" y2="154.19566762692207" stroke="#9ca3af" stroke-width="1"/><line x1="520.2033898305085" y1="119.38703281080473" x2="520.2033898305085" y2="178.51891204309925" stroke="#9ca3af" stroke-width="1"/><line x1="533.6949152542372" y1="147.71356953122077" x2="533.6949152542372" y2="174.52654420292566" stroke="#9ca3af" stroke-width="1"/><line x1="547.1864406779662" y1="136.32653672041602" x2="547.1864406779662" y2="171.07336600695874" stroke="#9ca3af" stroke-width="1"/><line x1="560.6779661016949" y1="153.698978637435" x2="560.6779661016949" y2="218.0928579445546" stroke="#9ca3af" stroke-width="1"/><line x1="574.1694915254237" y1="151.2026637734296" x2="574.1694915254237" y2="259.10045269183286" stroke="#9ca3af" stroke-width="1"/><line x1="587.6610169491526" y1="221.42092857944556" x2="587.6610169491526" y2="273.209622507389" stroke="#9ca3af" stroke-width="1"/><line x1="601.1525423728814" y1="215.62527591754275" x2="601.1525423728814" y2="261.94380635265065" stroke="#9ca3af" stroke-width="1"/><line x1="614.6440677966102" y1="173.05174155411726" x2="614.6440677966102" y2="265.1077107261776" stroke="#9ca3af" stroke-width="1"/><line x1="628.1355932203389" y1="184.1257061618467" x2="628.1355932203389" y2="235.00677167121853" stroke="#9ca3af" stroke-width="1"/><line x1="641.6271186440678" y1="210.19671517827078" x2="641.6271186440678" y2="299.35635452130646" stroke="#9ca3af" stroke-width="1"/><line x1="655.1186440677966" y1="244.15219424595008" x2="655.1186440677966" y2="331.9123049870927" stroke="#9ca3af" stroke-width="1"/><line x1="668.6101694915254" y1="272.56882038235625" x2="668.6101694915254" y2="354.726925810917" stroke="#9ca3af" stroke-width="1"/><line x1="682.1016949152543" y1="257.14961278012646" x2="682.1016949152543" y2="305.93931684687044" stroke="#9ca3af" stroke-width="1"/><line x1="695.5932203389831" y1="249.53047252048336" x2="695.5932203389831" y2="302.3493583747989" stroke="#9ca3af" stroke-width="1"/><line x1="709.0847457627119" y1="269.7714093306895" x2="709.0847457627119" y2="380.6539713419881" stroke="#9ca3af" stroke-width="1"/><line x1="722.5762711864406" y1="351.1924875603277" x2="722.5762711864406" y2="382.3423248157432" stroke="#9ca3af" stroke-width="1"/><line x1="736.0677966101695" y1="338.959182909948" x2="736.0677966101695" y2="370.39739608664746" stroke="#9ca3af" stroke-width="1"/><line x1="749.5593220338983" y1="330.3789891129485" x2="749.5593220338983" y2="388" stroke="#9ca3af" stroke-width="1"/><line x1="763.0508474576271" y1="279.0167982341277" x2="763.0508474576271" y2="348.8574956040256" stroke="#9ca3af" stroke-width="1"/><line x1="776.542372881356" y1="258.9509521493509" x2="776.542372881356" y2="295.73137790414904" stroke="#9ca3af" stroke-width="1"/><line x1="790.0338983050848" y1="246.79172434434508" x2="790.0338983050848" y2="314.91982490927455" stroke="#9ca3af" stroke-width="1"/><line x1="803.5254237288135" y1="242.48928130494969" x2="803.5254237288135" y2="320.83295297242694" stroke="#9ca3af" stroke-width="1"/><line x1="817.0169491525423" y1="294.86684874106777" x2="817.0169491525423" y2="320.3073814957537" stroke="#9ca3af" stroke-width="1"/><line x1="830.5084745762712" y1="273.89741479292155" x2="830.5084745762712" y2="317.64570316884283" stroke="#9ca3af" stroke-width="1"/><line x1="844" y1="280.7721949942011" x2="844" y2="297.18148827116613" stroke="#9ca3af" stroke-width="1"/>
  <rect x="44.02" y="170.28500879194883" width="7.96" height="54.24624939204608" fill="#16a34a"/><rect x="57.51152542372882" y="168.12241385760785" width="7.96" height="2.162594934340973" fill="#16a34a"/><rect x="71.00305084745763" y="133.96685248232257" width="7.96" height="34.15541172509259" fill="#16a34a"/><rect x="84.49457627118643" y="101.5809046354147" width="7.96" height="32.3857981967152" fill="#16a34a"/><rect x="97.98610169491525" y="101.58075498522203" width="7.96" height="28.11867260279098" fill="#ef4444"/><rect x="111.47762711864407" y="126.1576564779827" width="7.96" height="3.5416214598376428" fill="#16a34a"/><rect x="124.96915254237287" y="107.68483669422727" width="7.96" height="18.472819783755426" fill="#16a34a"/><rect x="138.4606779661017" y="107.68498634441994" width="7.96" height="21.55890605709152" fill="#ef4444"/><rect x="151.95220338983052" y="125.5710277226982" width="7.96" height="3.672715028620587" fill="#16a34a"/><rect x="165.44372881355932" y="125.5710277226982" width="7.96" height="18.99420105503384" fill="#ef4444"/><rect x="178.93525423728815" y="144.56522877773205" width="7.96" height="14.540162370459058" fill="#ef4444"/><rect x="192.42677966101695" y="117.7001758389764" width="7.96" height="41.4052153092147" fill="#16a34a"/><rect x="205.91830508474578" y="117.76602192375321" width="7.96" height="30.443637996183924" fill="#ef4444"/><rect x="219.40983050847458" y="148.12585581203936" width="7.96" height="1.4321523438961492" fill="#ef4444"/><rect x="232.9013559322034" y="149.5580081559355" width="7.96" height="3.7274869991395008" fill="#ef4444"/><rect x="246.39288135593222" y="145.0084926484343" width="7.96" height="8.276852856448045" fill="#16a34a"/><rect x="259.884406779661" y="114.56560290321374" width="7.96" height="30.442889745220555" fill="#16a34a"/><rect x="273.3759322033898" y="114.05290134311048" width="7.96" height="10.843952261588527" fill="#ef4444"/><rect x="286.8674576271186" y="124.54532530210633" width="7.96" height="2.7607467544614224" fill="#ef4444"/><rect x="300.3589830508474" y="118.57128961053536" width="7.96" height="8.73463279583973" fill="#16a34a"/><rect x="313.85050847457626" y="118.57113996034269" width="7.96" height="17.255565116540083" fill="#ef4444"/><rect x="327.3420338983051" y="135.82685472707547" width="7.96" height="113.5668375173033" fill="#ef4444"/><rect x="340.83355932203386" y="249.39369224437877" width="7.96" height="18.256724905533304" fill="#ef4444"/><rect x="354.3250847457627" y="228.69991395113922" width="7.96" height="38.95050319877285" fill="#16a34a"/><rect x="367.8166101694915" y="218.54525047701" width="7.96" height="10.154663474129222" fill="#16a34a"/><rect x="381.3081355932203" y="218.758651651764" width="7.96" height="10.77945302854576" fill="#ef4444"/><rect x="394.79966101694913" y="217.34580418272287" width="7.96" height="12.1923004975869" fill="#16a34a"/><rect x="408.29118644067796" y="170.71585169665906" width="7.96" height="46.63204758876128" fill="#16a34a"/><rect x="421.78271186440674" y="170.71585169665906" width="7.96" height="4.641999326574137" fill="#ef4444"/><rect x="435.27423728813557" y="175.3578510232332" width="7.96" height="2.2032997867484596" fill="#ef4444"/><rect x="448.7657627118644" y="118.27962138501255" width="7.96" height="59.28152942496911" fill="#16a34a"/><rect x="462.2572881355932" y="118.27947173481988" width="7.96" height="2.2449025403120118" fill="#ef4444"/><rect x="475.748813559322" y="95.83194283362639" width="7.96" height="24.692281791312837" fill="#16a34a"/><rect x="489.24033898305083" y="39.79138763141157" width="7.96" height="56.04055520221482" fill="#16a34a"/><rect x="502.73186440677966" y="39.25683714317785" width="7.96" height="90.98178008904182" fill="#ef4444"/><rect x="516.2233898305085" y="130.23861723221967" width="7.96" height="30.477907890306426" fill="#ef4444"/><rect x="529.7149152542372" y="160.7165251225261" width="7.96" height="1" fill="#ef4444"/><rect x="543.2064406779662" y="157.93677279359497" width="7.96" height="3.3009839500168425" fill="#16a34a"/><rect x="556.6979661016949" y="157.93677279359497" width="7.96" height="19.2818287253545" fill="#ef4444"/><rect x="570.1894915254237" y="177.21875116914214" width="7.96" height="77.6316360507314" fill="#ef4444"/><rect x="583.6810169491525" y="228.2825395637697" width="7.96" height="26.56784765610385" fill="#16a34a"/><rect x="597.1725423728814" y="228.28268921396236" width="7.96" height="23.801414194320785" fill="#ef4444"/><rect x="610.6640677966102" y="185.1734071607617" width="7.96" height="66.91069624752143" fill="#16a34a"/><rect x="624.1555932203389" y="185.17325751056904" width="7.96" height="29.89621759138015" fill="#ef4444"/><rect x="637.6471186440677" y="215.0694751019492" width="7.96" height="34.113958621721736" fill="#ef4444"/><rect x="651.1386440677966" y="249.18343372367093" width="7.96" height="60.35736466010701" fill="#ef4444"/><rect x="664.6301694915254" y="284.6883908863033" width="7.96" height="24.852257847281976" fill="#16a34a"/><rect x="678.1216949152542" y="284.6883908863033" width="7.96" height="13.9984286729769" fill="#ef4444"/><rect x="691.6132203389831" y="274.6642223801863" width="7.96" height="24.022597179093907" fill="#16a34a"/><rect x="705.1047457627119" y="274.6642223801863" width="7.96" height="84.55220921096941" fill="#ef4444"/><rect x="718.5962711864406" y="354.16753339069925" width="7.96" height="5.048748550263724" fill="#16a34a"/><rect x="732.0877966101694" y="354.1676830408919" width="7.96" height="13.3273972090239" fill="#ef4444"/><rect x="745.5793220338983" y="344.8070634890942" width="7.96" height="22.688016760821597" fill="#16a34a"/><rect x="759.0708474576271" y="281.0734408320551" width="7.96" height="63.73377230723179" fill="#16a34a"/><rect x="772.5623728813559" y="278.4119121553369" width="7.96" height="1.8843952261588583" fill="#16a34a"/><rect x="786.0538983050848" y="278.4117625051442" width="7.96" height="12.025590182947326" fill="#ef4444"/><rect x="799.5454237288135" y="289.77844288974524" width="7.96" height="19.570952897601842" fill="#ef4444"/><rect x="813.0369491525423" y="309.3493957873471" width="7.96" height="8.296157731303083" fill="#ef4444"/><rect x="826.5284745762712" y="284.0523775674361" width="7.96" height="33.59317595121405" fill="#16a34a"/><rect x="840.02" y="284.86123685884246" width="7.96" height="7.012608028732814" fill="#ef4444"/>
  <!-- SMA -->
  <path d="M 371.79661016949154,151.80801077481362 L 385.2881355932203,154.1781346103483 L 398.77966101694915,156.14707022335315 L 412.271186440678,157.61703019192615 L 425.76271186440675,160.56810804743887 L 439.2542372881356,162.48257697631774 L 452.7457627118644,162.16745557259912 L 466.23728813559325,162.68103707583512 L 479.728813559322,161.34455909311978 L 493.22033898305085,157.91337348946848 L 506.7118644067797,157.34030902764806 L 520.2033898305085,157.4047543866215 L 533.6949152542372,159.14625762280644 L 547.1864406779662,159.53534213775288 L 560.6779661016949,160.64176587227374 L 574.1694915254237,164.70436155486533 L 587.6610169491526,168.0353234314788 L 601.1525423728814,173.5360634516816 L 614.6440677966102,175.94712559392414 L 628.1355932203389,179.4576617157396 L 641.6271186440678,184.68214748026506 L 655.1186440677966,191.63071121254075 L 668.6101694915254,193.04249915821742 L 682.1016949152543,194.2839552545925 L 695.5932203389831,196.1225275917545 L 709.0847457627119,201.74937483632033 L 722.5762711864406,206.7345519847358 L 736.0677966101695,212.7405230274233 L 749.5593220338983,219.7041714991207 L 763.0508474576271,223.93279509147393 L 776.542372881356,227.96682554528795 L 790.0338983050848,234.85313479741097 L 803.5254237288135,242.40613565789943 L 817.0169491525423,251.27868008530072 L 830.5084745762712,261.04911968274166 L 844,267.51452878895594" fill="none" stroke="#3b82f6" stroke-width="1.5"/>
  <!-- Bollinger Bands -->
  
      <path d="M 48,239.08776385199607 L 61.49152542372882,204.30132066295036 L 74.98305084745763,161.66047214635807 L 88.47457627118644,118.40600695873383 L 101.96610169491525,88.07774327509446 L 115.45762711864407,61.66198062029997 L 128.94915254237287,35.72725953084671 L 142.4406779661017,17.4654689662911 L 155.9322033898305,0.8977784428897166 L 169.4237288135593,-7.36339107336596 L 182.91525423728814,-5.598047064985735 L 196.40677966101694,-11.311733323356407 L 209.89830508474577,-13.398168281641688 L 223.38983050847457,-9.026788880990921 L 236.88135593220338,0.7402850836169819 L 250.3728813559322,12.388101313180528 L 263.864406779661,28.870368513599374 L 277.35593220338984,53.19766396049232 L 290.8474576271186,86.55177971491622 L 304.33898305084745,97.13824684799295 L 317.8305084745763,99.10741591529819 L 331.3220338983051,77.5419985783231 L 344.8135593220339,61.46972052826504 L 358.3050847457627,62.38873134049186 L 371.79661016949154,62.52870515170804 L 385.2881355932203,63.16289273822417 L 398.77966101694915,68.63969920311257 L 412.271186440678,72.12211455722252 L 425.76271186440675,76.5224153541098 L 439.2542372881356,78.85065958322429 L 452.7457627118644,74.0524060009729 L 466.23728813559325,74.4924104904785 L 479.728813559322,66.91005873770041 L 493.22033898305085,47.17932432937994 L 506.7118644067797,45.259152231658334 L 520.2033898305085,46.25813760335234 L 533.6949152542372,50.587445845336674 L 547.1864406779662,53.583563919338474 L 560.6779661016949,57.34359534587878 L 574.1694915254237,60.3276546073551 L 587.6610169491526,64.0813453552322 L 601.1525423728814,63.880659957349565 L 614.6440677966102,67.0521860151893 L 628.1355932203389,67.57007445097071 L 641.6271186440678,65.77926596580494 L 655.1186440677966,57.172085749560665 L 668.6101694915254,53.13378876875328 L 682.1016949152543,50.355092970182284 L 695.5932203389831,50.70246249392062 L 709.0847457627119,43.24433686258351 L 722.5762711864406,47.37938119645344 L 736.0677966101695,53.27468143215208 L 749.5593220338983,69.67948071383154 L 763.0508474576271,108.06222903961964 L 776.542372881356,126.51356204871115 L 790.0338983050848,140.49263496576754 L 803.5254237288135,156.33899360245402 L 817.0169491525423,175.72332223427765 L 830.5084745762712,192.50759399902742 L 844,195.50322122039708 L 844,382.08709641213665 L 830.5084745762712,381.3803778667364 L 817.0169491525423,387.4812720266378 L 803.5254237288135,390.8947225859553 L 790.0338983050848,391.92991731826845 L 776.542372881356,392.93690747876843 L 763.0508474576271,396.570910995548 L 749.5593220338983,410.82545400127213 L 736.0677966101695,402.3327412174045 L 722.5762711864406,383.530970855625 L 709.0847457627119,364.07722398892577 L 695.5932203389831,338.4535702794716 L 682.1016949152543,328.8703026675147 L 668.6101694915254,313.29451008268177 L 655.1186440677966,302.52195443151635 L 641.6271186440678,285.91450484492486 L 628.1355932203389,281.0598780350929 L 614.6440677966102,282.94081035579336 L 601.1525423728814,294.3600374125481 L 587.6610169491526,293.8903108982752 L 574.1694915254237,288.39841819746346 L 560.6779661016949,277.75456769800604 L 547.1864406779662,276.5233461783083 L 533.6949152542372,276.2154723334206 L 520.2033898305085,275.8775651913651 L 506.7118644067797,275.3057473156497 L 493.22033898305085,275.6902630102136 L 479.728813559322,266.9361906543454 L 466.23728813559325,264.59161061019853 L 452.7457627118644,264.74919525608897 L 439.2542372881356,264.0335186501553 L 425.76271186440675,263.0621706760447 L 412.271186440678,262.48378914287866 L 398.77966101694915,261.8190085674736 L 385.2881355932203,256.32971828351225 L 371.79661016949154,246.62586104979613 L 358.3050847457627,237.8812525721127 L 344.8135593220339,226.08836245276677 L 331.3220338983051,196.6477279359499 L 317.8305084745763,166.95518276029773 L 304.33898305084745,172.37018219910934 L 290.8474576271186,193.55266115455117 L 277.35593220338984,246.80550862359226 L 263.864406779661,294.86398742938394 L 250.3728813559322,338.54050806240423 L 236.88135593220338,374.6002663773431 L 223.38983050847457,409.9918680085301 L 209.89830508474577,440.4220599349022 L 196.40677966101694,462.14624265778747 L 182.91525423728814,487.08259194133717 L 169.4237288135593,520.9464207415168 L 155.9322033898305,542.6202282165438 L 142.4406779661017,554.4758980882189 L 128.94915254237287,566.0764592764413 L 115.45762711864407,572.6753758090463 L 101.96610169491525,577.0629653185679 L 88.47457627118644,576.5702959332559 L 74.98305084745763,568.4228979759812 L 61.49152542372882,557.7366306259119 L 48,559.96727000636 Z" fill="rgba(59, 130, 246, 0.1)" stroke="none" />
      <path d="M 48,239.08776385199607 L 61.49152542372882,204.30132066295036 L 74.98305084745763,161.66047214635807 L 88.47457627118644,118.40600695873383 L 101.96610169491525,88.07774327509446 L 115.45762711864407,61.66198062029997 L 128.94915254237287,35.72725953084671 L 142.4406779661017,17.4654689662911 L 155.9322033898305,0.8977784428897166 L 169.4237288135593,-7.36339107336596 L 182.91525423728814,-5.598047064985735 L 196.40677966101694,-11.311733323356407 L 209.89830508474577,-13.398168281641688 L 223.38983050847457,-9.026788880990921 L 236.88135593220338,0.7402850836169819 L 250.3728813559322,12.388101313180528 L 263.864406779661,28.870368513599374 L 277.35593220338984,53.19766396049232 L 290.8474576271186,86.55177971491622 L 304.33898305084745,97.13824684799295 L 317.8305084745763,99.10741591529819 L 331.3220338983051,77.5419985783231 L 344.8135593220339,61.46972052826504 L 358.3050847457627,62.38873134049186 L 371.79661016949154,62.52870515170804 L 385.2881355932203,63.16289273822417 L 398.77966101694915,68.63969920311257 L 412.271186440678,72.12211455722252 L 425.76271186440675,76.5224153541098 L 439.2542372881356,78.85065958322429 L 452.7457627118644,74.0524060009729 L 466.23728813559325,74.4924104904785 L 479.728813559322,66.91005873770041 L 493.22033898305085,47.17932432937994 L 506.7118644067797,45.259152231658334 L 520.2033898305085,46.25813760335234 L 533.6949152542372,50.587445845336674 L 547.1864406779662,53.583563919338474 L 560.6779661016949,57.34359534587878 L 574.1694915254237,60.3276546073551 L 587.6610169491526,64.0813453552322 L 601.1525423728814,63.880659957349565 L 614.6440677966102,67.0521860151893 L 628.1355932203389,67.57007445097071 L 641.6271186440678,65.77926596580494 L 655.1186440677966,57.172085749560665 L 668.6101694915254,53.13378876875328 L 682.1016949152543,50.355092970182284 L 695.5932203389831,50.70246249392062 L 709.0847457627119,43.24433686258351 L 722.5762711864406,47.37938119645344 L 736.0677966101695,53.27468143215208 L 749.5593220338983,69.67948071383154 L 763.0508474576271,108.06222903961964 L 776.542372881356,126.51356204871115 L 790.0338983050848,140.49263496576754 L 803.5254237288135,156.33899360245402 L 817.0169491525423,175.72332223427765 L 830.5084745762712,192.50759399902742 L 844,195.50322122039708" fill="none" stroke="#3b82f6" stroke-width="1"/>
      <path d="M 48,559.96727000636 L 61.49152542372882,557.7366306259119 L 74.98305084745763,568.4228979759812 L 88.47457627118644,576.5702959332559 L 101.96610169491525,577.0629653185679 L 115.45762711864407,572.6753758090463 L 128.94915254237287,566.0764592764413 L 142.4406779661017,554.4758980882189 L 155.9322033898305,542.6202282165438 L 169.4237288135593,520.9464207415168 L 182.91525423728814,487.08259194133717 L 196.40677966101694,462.14624265778747 L 209.89830508474577,440.4220599349022 L 223.38983050847457,409.9918680085301 L 236.88135593220338,374.6002663773431 L 250.3728813559322,338.54050806240423 L 263.864406779661,294.86398742938394 L 277.35593220338984,246.80550862359226 L 290.8474576271186,193.55266115455117 L 304.33898305084745,172.37018219910934 L 317.8305084745763,166.95518276029773 L 331.3220338983051,196.6477279359499 L 344.8135593220339,226.08836245276677 L 358.3050847457627,237.8812525721127 L 371.79661016949154,246.62586104979613 L 385.2881355932203,256.32971828351225 L 398.77966101694915,261.8190085674736 L 412.271186440678,262.48378914287866 L 425.76271186440675,263.0621706760447 L 439.2542372881356,264.0335186501553 L 452.7457627118644,264.74919525608897 L 466.23728813559325,264.59161061019853 L 479.728813559322,266.9361906543454 L 493.22033898305085,275.6902630102136 L 506.7118644067797,275.3057473156497 L 520.2033898305085,275.8775651913651 L 533.6949152542372,276.2154723334206 L 547.1864406779662,276.5233461783083 L 560.6779661016949,277.75456769800604 L 574.1694915254237,288.39841819746346 L 587.6610169491526,293.8903108982752 L 601.1525423728814,294.3600374125481 L 614.6440677966102,282.94081035579336 L 628.1355932203389,281.0598780350929 L 641.6271186440678,285.91450484492486 L 655.1186440677966,302.52195443151635 L 668.6101694915254,313.29451008268177 L 682.1016949152543,328.8703026675147 L 695.5932203389831,338.4535702794716 L 709.0847457627119,364.07722398892577 L 722.5762711864406,383.530970855625 L 736.0677966101695,402.3327412174045 L 749.5593220338983,410.82545400127213 L 763.0508474576271,396.570910995548 L 776.542372881356,392.93690747876843 L 790.0338983050848,391.92991731826845 L 803.5254237288135,390.8947225859553 L 817.0169491525423,387.4812720266378 L 830.5084745762712,381.3803778667364 L 844,382.08709641213665" fill="none" stroke="#3b82f6" stroke-width="1"/>
      <path d="M 48,399.52751692917803 L 61.49152542372882,381.01897564443124 L 74.98305084745763,365.04168506116963 L 88.47457627118644,347.48815144599484 L 101.96610169491525,332.57035429683117 L 115.45762711864407,317.16867821467326 L 128.94915254237287,300.90185940364387 L 142.4406779661017,285.970683527255 L 155.9322033898305,271.75900332971673 L 169.4237288135593,256.7915148340753 L 182.91525423728814,240.7422724381759 L 196.40677966101694,225.41725466721527 L 209.89830508474577,213.51194582663013 L 223.38983050847457,200.48253956376956 L 236.88135593220338,187.6702757304799 L 250.3728813559322,175.46430468779252 L 263.864406779661,161.86717797149151 L 277.35593220338984,150.0015862920426 L 290.8474576271186,140.0522204347337 L 304.33898305084745,134.75421452355144 L 317.8305084745763,133.03129933779766 L 331.3220338983051,137.0948632571362 L 344.8135593220339,143.7790414905159 L 358.3050847457627,150.13499195630226 L 371.79661016949154,154.5772831007521 L 385.2881355932203,159.74630551086835 L 398.77966101694915,165.22935388529336 L 412.271186440678,167.30295185005028 L 425.76271186440675,169.79229301507738 L 439.2542372881356,171.44208911668952 L 452.7457627118644,169.40080062853082 L 466.23728813559325,169.54201055033883 L 479.728813559322,166.92312469602317 L 493.22033898305085,161.43479366979662 L 506.7118644067797,160.28244977365384 L 520.2033898305085,161.06785139735845 L 533.6949152542372,163.40145908937833 L 547.1864406779662,165.05345504882325 L 560.6779661016949,167.5490815219427 L 574.1694915254237,174.36303640240914 L 587.6610169491526,178.98582812675383 L 601.1525423728814,179.12034868494882 L 614.6440677966102,174.99649818549165 L 628.1355932203389,174.3149762430319 L 641.6271186440678,175.84688540536519 L 655.1186440677966,179.84702009053836 L 668.6101694915254,183.21414942571738 L 682.1016949152543,189.61269781884832 L 695.5932203389831,194.578016386696 L 709.0847457627119,203.6607804257548 L 722.5762711864406,215.45517602603937 L 736.0677966101695,227.80371132477856 L 749.5593220338983,240.25246735755184 L 763.0508474576271,252.31657001758396 L 776.542372881356,259.72523476373965 L 790.0338983050848,266.21127614201816 L 803.5254237288135,273.6168580942048 L 817.0169491525423,281.60229713045743 L 830.5084745762712,286.9439859328818 L 844,288.79515881626685" fill="none" stroke="#9ca3af" stroke-width="1" stroke-dasharray="4 4"/>
    
  <!-- Ichimoku Cloud -->
  
      <path d="M 48,457.23259381196453 L 61.49152542372882,457.23259381196453 L 74.98305084745763,459.29716787010364 L 88.47457627118644,462.6782146732014 L 101.96610169491525,462.6782146732014 L 115.45762711864407,472.8170152269071 L 128.94915254237287,472.8170152269071 L 142.4406779661017,490.7022335291257 L 155.9322033898305,490.7022335291257 L 169.4237288135593,490.7022335291257 L 182.91525423728814,490.35766396049235 L 196.40677966101694,490.35766396049235 L 209.89830508474577,490.35766396049235 L 223.38983050847457,490.35766396049235 L 236.88135593220338,490.35766396049235 L 250.3728813559322,490.29069549927044 L 263.864406779661,481.47944180478135 L 277.35593220338984,461.80934565453254 L 290.8474576271186,453.95271053911483 L 304.33898305084745,453.95271053911483 L 317.8305084745763,453.95271053911483 L 331.3220338983051,453.95271053911483 L 344.8135593220339,455.8233379475476 L 358.3050847457627,451.0345317819597 L 371.79661016949154,427.3898013393692 L 385.2881355932203,377.2570616184668 L 398.77966101694915,328.0869841744921 L 412.271186440678,328.0869841744921 L 425.76271186440675,318.3530622170676 L 439.2542372881356,277.19918440644994 L 452.7457627118644,273.3985558756407 L 466.23728813559325,272.796812450896 L 479.728813559322,266.4020352426204 L 493.22033898305085,248.29533465524338 L 506.7118644067797,203.54038684574806 L 520.2033898305085,190.8298103183808 L 533.6949152542372,190.8298103183808 L 547.1864406779662,190.8298103183808 L 560.6779661016949,195.69344158030603 L 574.1694915254237,194.43151633057727 L 587.6610169491526,202.98439896741368 L 601.1525423728814,202.98439896741368 L 614.6440677966102,212.6013318867148 L 628.1355932203389,197.5199221818998 L 641.6271186440678,196.01593774551984 L 655.1186440677966,193.34715103445697 L 668.6101694915254,188.2692581091698 L 682.1016949152543,196.30558569344157 L 695.5932203389831,199.81922256724906 L 709.0847457627119,193.574095551648 L 722.5762711864406,184.27864865876015 L 736.0677966101695,169.87616446556174 L 749.5593220338983,169.87616446556174 L 763.0508474576271,169.87616446556174 L 776.542372881356,169.87616446556174 L 790.0338983050848,188.23281828725354 L 803.5254237288135,185.05656777283102 L 817.0169491525423,170.20831306820307 L 830.5084745762712,167.8139099854091 L 844,153.52224175988627 L 844,299.7473904747652 L 830.5084745762712,323.43073066706575 L 817.0169491525423,323.43073066706575 L 803.5254237288135,323.43073066706575 L 790.0338983050848,323.43073066706575 L 776.542372881356,323.43073066706575 L 763.0508474576271,323.43073066706575 L 749.5593220338983,323.43073066706575 L 736.0677966101695,323.43073066706575 L 722.5762711864406,323.43073066706575 L 709.0847457627119,323.43073066706575 L 695.5932203389831,323.43073066706575 L 682.1016949152543,323.43073066706575 L 668.6101694915254,323.43073066706575 L 655.1186440677966,323.43073066706575 L 641.6271186440678,323.43073066706575 L 628.1355932203389,323.43073066706575 L 614.6440677966102,323.43073066706575 L 601.1525423728814,323.43073066706575 L 587.6610169491526,323.43073066706575 L 574.1694915254237,323.43073066706575 L 560.6779661016949,323.43073066706575 L 547.1864406779662,323.43073066706575 L 533.6949152542372,323.43073066706575 L 520.2033898305085,323.43073066706575 L 506.7118644067797,323.43073066706575 L 493.22033898305085,323.43073066706575 L 479.728813559322,323.43073066706575 L 466.23728813559325,323.43073066706575 L 452.7457627118644,323.43073066706575 L 439.2542372881356,323.43073066706575 L 425.76271186440675,364.5846084776834 L 412.271186440678,371.64974372404504 L 398.77966101694915,371.64974372404504 L 385.2881355932203,405.7384114632048 L 371.79661016949154,455.87115118410713 L 358.3050847457627,469.6721912529462 L 344.8135593220339,469.6721912529462 L 331.3220338983051,469.6721912529462 L 317.8305084745763,469.6721912529462 L 304.33898305084745,469.6721912529462 L 290.8474576271186,469.6721912529462 L 277.35593220338984,469.6721912529462 L 263.864406779661,469.6721912529462 L 250.3728813559322,469.6721912529462 L 236.88135593220338,469.6721912529462 L 223.38983050847457,500.2201354334244 L 209.89830508474577,516.0896404654121 L 196.40677966101694,548.9057577911632 L 182.91525423728814,548.9057577911632 L 169.4237288135593,548.9057577911632 L 155.9322033898305,548.9057577911632 L 142.4406779661017,548.9057577911632 L 128.94915254237287,548.9057577911632 L 115.45762711864407,549.4186090014591 L 101.96610169491525,549.4186090014591 L 88.47457627118644,549.4186090014591 L 74.98305084745763,549.4186090014591 L 61.49152542372882,549.4186090014591 L 48,549.7648247222119 Z" fill="rgba(239, 68, 68, 0.1)" stroke="none" />
      <path d="M 48,284.5242246249392 L 61.49152542372882,284.5242246249392 L 74.98305084745763,272.1215159564518 L 88.47457627118644,230.96763814583412 L 101.96610169491525,223.36638108421565 L 115.45762711864407,222.16289423472634 L 128.94915254237287,209.37333981817503 L 142.4406779661017,190.78244603239926 L 155.9322033898305,140.61274271390624 L 169.4237288135593,115.19158965917171 L 182.91525423728814,115.19158965917171 L 196.40677966101694,115.19158965917171 L 209.89830508474577,124.91885218302218 L 223.38983050847457,122.39500168356466 L 236.88135593220338,139.50076695723746 L 250.3728813559322,139.50076695723746 L 263.864406779661,158.73463279583973 L 277.35593220338984,158.73463279583973 L 290.8474576271186,155.7266639230798 L 304.33898305084745,155.7266639230798 L 317.8305084745763,145.5708780725055 L 331.3220338983051,169.24479030266752 L 344.8135593220339,177.47555089977178 L 358.3050847457627,177.77485128512103 L 371.79661016949154,177.77485128512103 L 385.2881355932203,177.77485128512103 L 398.77966101694915,177.77485128512103 L 412.271186440678,177.77485128512103 L 425.76271186440675,177.77485128512103 L 439.2542372881356,204.76089640465412 L 452.7457627118644,198.40839537580905 L 466.23728813559325,170.20831306820307 L 479.728813559322,165.41950690261513 L 493.22033898305085,151.12783867709229 L 506.7118644067797,135.74387369523737 L 520.2033898305085,125.71873246286805 L 533.6949152542372,106.11852295259831 L 547.1864406779662,102.96382206592091 L 560.6779661016949,121.04642897227728 L 574.1694915254237,141.55022634591643 L 587.6610169491526,148.6048112536945 L 601.1525423728814,148.6048112536945 L 614.6440677966102,148.6048112536945 L 628.1355932203389,196.29832765909686 L 641.6271186440678,217.84144562086124 L 655.1186440677966,234.11942085375435 L 668.6101694915254,252.9647947921733 L 682.1016949152543,252.9647947921733 L 695.5932203389831,263.88933368251713 L 709.0847457627119,276.85285644805265 L 722.5762711864406,277.6970331849302 L 736.0677966101695,283.23401548879497 L 749.5593220338983,299.0983575891354 L 763.0508474576271,316.07609712297506 L 776.542372881356,318.7652362602417 L 790.0338983050848,317.39586217217254 L 803.5254237288135,315.24464065247486 L 817.0169491525423,315.24464065247486 L 830.5084745762712,315.24464065247486 L 844,315.24464065247486" fill="none" stroke="#f97316" stroke-width="1"/>
      <path d="M 48,371.64974372404504 L 61.49152542372882,371.64974372404504 L 74.98305084745763,364.5846084776834 L 88.47457627118644,323.43073066706575 L 101.96610169491525,323.43073066706575 L 115.45762711864407,323.43073066706575 L 128.94915254237287,323.43073066706575 L 142.4406779661017,305.80822327808744 L 155.9322033898305,266.4680309775899 L 169.4237288135593,266.4680309775899 L 182.91525423728814,266.4680309775899 L 196.40677966101694,266.4680309775899 L 209.89830508474577,266.4680309775899 L 223.38983050847457,266.4680309775899 L 236.88135593220338,266.4680309775899 L 250.3728813559322,266.4680309775899 L 263.864406779661,266.4680309775899 L 277.35593220338984,236.3052115679599 L 290.8474576271186,236.3052115679599 L 304.33898305084745,230.96763814583412 L 317.8305084745763,230.96763814583412 L 331.3220338983051,223.36638108421565 L 344.8135593220339,222.16289423472634 L 358.3050847457627,209.37333981817503 L 371.79661016949154,190.78244603239926 L 385.2881355932203,161.97747764600246 L 398.77966101694915,161.97747764600246 L 412.271186440678,161.97747764600246 L 425.76271186440675,161.97747764600246 L 439.2542372881356,171.70474016985298 L 452.7457627118644,171.70474016985298 L 466.23728813559325,170.20831306820307 L 479.728813559322,170.20831306820307 L 493.22033898305085,155.91664484268023 L 506.7118644067797,151.50196415877886 L 520.2033898305085,151.50196415877886 L 533.6949152542372,151.50196415877886 L 547.1864406779662,151.50196415877886 L 560.6779661016949,151.50196415877886 L 574.1694915254237,151.50196415877886 L 587.6610169491526,151.50196415877886 L 601.1525423728814,151.50196415877886 L 614.6440677966102,151.50196415877886 L 628.1355932203389,151.50196415877886 L 641.6271186440678,161.67817726065323 L 655.1186440677966,177.95615249354634 L 668.6101694915254,189.3634629054585 L 682.1016949152543,189.3634629054585 L 695.5932203389831,189.3634629054585 L 709.0847457627119,202.32698567099405 L 722.5762711864406,203.1711624078716 L 736.0677966101695,203.1711624078716 L 749.5593220338983,206 L 763.0508474576271,206 L 776.542372881356,206 L 790.0338983050848,206 L 803.5254237288135,206 L 817.0169491525423,206 L 830.5084745762712,206 L 844,206" fill="none" stroke="#3b82f6" stroke-width="1"/>
      <path d="M 48,217.34580418272287 L 61.49152542372882,170.71585169665906 L 74.98305084745763,175.3578510232332 L 88.47457627118644,177.56115080998165 L 101.96610169491525,118.27962138501255 L 115.45762711864407,120.52437427513189 L 128.94915254237287,95.83194283362639 L 142.4406779661017,39.79138763141157 L 155.9322033898305,130.23861723221967 L 169.4237288135593,160.7165251225261 L 182.91525423728814,161.2377567436118 L 196.40677966101694,157.93677279359497 L 209.89830508474577,177.21860151894947 L 223.38983050847457,254.85038721987354 L 236.88135593220338,228.2825395637697 L 250.3728813559322,252.08410340828314 L 263.864406779661,185.1734071607617 L 277.35593220338984,215.0694751019492 L 290.8474576271186,249.18343372367093 L 304.33898305084745,309.54079838377794 L 317.8305084745763,284.6883908863033 L 331.3220338983051,298.6868195592802 L 344.8135593220339,274.6642223801863 L 358.3050847457627,359.2164315911557 L 371.79661016949154,354.16753339069925 L 385.2881355932203,367.4950802499158 L 398.77966101694915,344.8070634890942 L 412.271186440678,281.0734408320551 L 425.76271186440675,278.4119121553369 L 439.2542372881356,290.43735268809155 L 452.7457627118644,309.3493957873471 L 466.23728813559325,317.64555351865016 L 479.728813559322,284.0523775674361 L 493.22033898305085,291.8738448875753" fill="none" stroke="#16a34a" stroke-width="1" stroke-dasharray="2 2"/>
      <path d="M 48,457.23259381196453 L 61.49152542372882,457.23259381196453 L 74.98305084745763,459.29716787010364 L 88.47457627118644,462.6782146732014 L 101.96610169491525,462.6782146732014 L 115.45762711864407,472.8170152269071 L 128.94915254237287,472.8170152269071 L 142.4406779661017,490.7022335291257 L 155.9322033898305,490.7022335291257 L 169.4237288135593,490.7022335291257 L 182.91525423728814,490.35766396049235 L 196.40677966101694,490.35766396049235 L 209.89830508474577,490.35766396049235 L 223.38983050847457,490.35766396049235 L 236.88135593220338,490.35766396049235 L 250.3728813559322,490.29069549927044 L 263.864406779661,481.47944180478135 L 277.35593220338984,461.80934565453254 L 290.8474576271186,453.95271053911483 L 304.33898305084745,453.95271053911483 L 317.8305084745763,453.95271053911483 L 331.3220338983051,453.95271053911483 L 344.8135593220339,455.8233379475476 L 358.3050847457627,451.0345317819597 L 371.79661016949154,427.3898013393692 L 385.2881355932203,377.2570616184668 L 398.77966101694915,328.0869841744921 L 412.271186440678,328.0869841744921 L 425.76271186440675,318.3530622170676 L 439.2542372881356,277.19918440644994 L 452.7457627118644,273.3985558756407 L 466.23728813559325,272.796812450896 L 479.728813559322,266.4020352426204 L 493.22033898305085,248.29533465524338 L 506.7118644067797,203.54038684574806 L 520.2033898305085,190.8298103183808 L 533.6949152542372,190.8298103183808 L 547.1864406779662,190.8298103183808 L 560.6779661016949,195.69344158030603 L 574.1694915254237,194.43151633057727 L 587.6610169491526,202.98439896741368 L 601.1525423728814,202.98439896741368 L 614.6440677966102,212.6013318867148 L 628.1355932203389,197.5199221818998 L 641.6271186440678,196.01593774551984 L 655.1186440677966,193.34715103445697 L 668.6101694915254,188.2692581091698 L 682.1016949152543,196.30558569344157 L 695.5932203389831,199.81922256724906 L 709.0847457627119,193.574095551648 L 722.5762711864406,184.27864865876015 L 736.0677966101695,169.87616446556174 L 749.5593220338983,169.87616446556174 L 763.0508474576271,169.87616446556174 L 776.542372881356,169.87616446556174 L 790.0338983050848,188.23281828725354 L 803.5254237288135,185.05656777283102 L 817.0169491525423,170.20831306820307 L 830.5084745762712,167.8139099854091 L 844,153.52224175988627" fill="none" stroke="rgba(239, 68, 68, 0.5)" stroke-width="1"/>
      <path d="M 48,549.7648247222119 L 61.49152542372882,549.4186090014591 L 74.98305084745763,549.4186090014591 L 88.47457627118644,549.4186090014591 L 101.96610169491525,549.4186090014591 L 115.45762711864407,549.4186090014591 L 128.94915254237287,548.9057577911632 L 142.4406779661017,548.9057577911632 L 155.9322033898305,548.9057577911632 L 169.4237288135593,548.9057577911632 L 182.91525423728814,548.9057577911632 L 196.40677966101694,548.9057577911632 L 209.89830508474577,516.0896404654121 L 223.38983050847457,500.2201354334244 L 236.88135593220338,469.6721912529462 L 250.3728813559322,469.6721912529462 L 263.864406779661,469.6721912529462 L 277.35593220338984,469.6721912529462 L 290.8474576271186,469.6721912529462 L 304.33898305084745,469.6721912529462 L 317.8305084745763,469.6721912529462 L 331.3220338983051,469.6721912529462 L 344.8135593220339,469.6721912529462 L 358.3050847457627,469.6721912529462 L 371.79661016949154,455.87115118410713 L 385.2881355932203,405.7384114632048 L 398.77966101694915,371.64974372404504 L 412.271186440678,371.64974372404504 L 425.76271186440675,364.5846084776834 L 439.2542372881356,323.43073066706575 L 452.7457627118644,323.43073066706575 L 466.23728813559325,323.43073066706575 L 479.728813559322,323.43073066706575 L 493.22033898305085,323.43073066706575 L 506.7118644067797,323.43073066706575 L 520.2033898305085,323.43073066706575 L 533.6949152542372,323.43073066706575 L 547.1864406779662,323.43073066706575 L 560.6779661016949,323.43073066706575 L 574.1694915254237,323.43073066706575 L 587.6610169491526,323.43073066706575 L 601.1525423728814,323.43073066706575 L 614.6440677966102,323.43073066706575 L 628.1355932203389,323.43073066706575 L 641.6271186440678,323.43073066706575 L 655.1186440677966,323.43073066706575 L 668.6101694915254,323.43073066706575 L 682.1016949152543,323.43073066706575 L 695.5932203389831,323.43073066706575 L 709.0847457627119,323.43073066706575 L 722.5762711864406,323.43073066706575 L 736.0677966101695,323.43073066706575 L 749.5593220338983,323.43073066706575 L 763.0508474576271,323.43073066706575 L 776.542372881356,323.43073066706575 L 790.0338983050848,323.43073066706575 L 803.5254237288135,323.43073066706575 L 817.0169491525423,323.43073066706575 L 830.5084745762712,323.43073066706575 L 844,299.7473904747652" fill="none" stroke="rgba(16, 163, 74, 0.5)" stroke-width="1"/>
    
  <!-- 目盛り（軽量） -->
  <text x="430" y="24" text-anchor="middle" font-family="sans-serif" font-size="18" fill="#111">
    BTC/JPY 1day (60 bars)
  </text>
</svg>
