
    <svg width="860" height="420" viewBox="0 0 860 420" xmlns="http://www.w3.org/2000/svg" style="background-color: #1f2937; color: #e5e7eb; font-family: sans-serif;">
      <title>BTC/JPY 1day chart</title>
      <defs>
        <clipPath id="plotArea">
          <rect x="96" y="24" width="748" height="356"/>
        </clipPath>
      </defs>
      <g class="axes">
        
    <line x1="96" y1="24" x2="96" y2="380" stroke="#4b5563" stroke-width="1"/>
    <g font-size="12" fill="#e5e7eb">
      <text x="88" y="380" text-anchor="end" dominant-baseline="middle">14,000,000</text><text x="88" y="308.8" text-anchor="end" dominant-baseline="middle">15,000,000</text><text x="88" y="237.6" text-anchor="end" dominant-baseline="middle">16,000,000</text><text x="88" y="166.4" text-anchor="end" dominant-baseline="middle">17,000,000</text><text x="88" y="95.19999999999999" text-anchor="end" dominant-baseline="middle">18,000,000</text><text x="88" y="24" text-anchor="end" dominant-baseline="middle">19,000,000</text>
    </g>
  
        
    <line x1="96" y1="380" x2="844" y2="380" stroke="#4b5563" stroke-width="1"/>
    <g font-size="12" fill="#e5e7eb">
      <text x="96" y="396" text-anchor="middle">6/4</text><text x="247.11111111111111" y="396" text-anchor="middle">6/24</text><text x="398.22222222222223" y="396" text-anchor="middle">7/14</text><text x="549.3333333333333" y="396" text-anchor="middle">8/3</text><text x="700.4444444444445" y="396" text-anchor="middle">8/23</text>
    </g>
  
      </g>
      <g class="plot-area" clip-path="url(#plotArea)">
        
        
      <path d="M 96,240.56048603199997 L 103.55555555555556,236.81707625600006 L 111.11111111111111,236.89401924799992 L 118.66666666666667,237.77188605600006 L 126.22222222222223,237.86619543999993 L 133.77777777777777,233.19309023999995 L 141.33333333333334,230.62903797600003 L 148.88888888888889,235.99694766400006 L 156.44444444444446,236.18393381599998 L 164,236.58016822399998 L 171.55555555555554,238.54097706400006 L 179.11111111111111,240.94003187200002 L 186.66666666666669,243.68470002399997 L 194.22222222222223,247.79625082399997 L 201.77777777777777,247.787255416 L 209.33333333333331,247.85785804799994 L 216.88888888888889,247.86224183199997 L 224.44444444444446,247.66995483999995 L 232,246.54662888000001 L 239.55555555555554,245.81459177600001 L 247.11111111111111,245.24284794399995 L 254.66666666666666,246.93538372799998 L 262.22222222222223,245.90878368000003 L 269.77777777777777,244.87188241599998 L 277.33333333333337,243.62635731999998 L 284.8888888888889,247.036663592 L 292.44444444444446,254.29369724799994 L 300,258.269556512 L 307.55555555555554,256.15964134399997 L 315.1111111111111,250.665543896 L 322.66666666666663,248.09387821599998 L 330.22222222222223,245.74773853599993 L 337.77777777777777,242.29015475200006 L 345.33333333333337,238.64250968800002 L 352.8888888888889,233.23282126400005 L 360.44444444444446,224.659904096 L 368,203.57650256800002 L 375.55555555555554,180.44563895200008 L 383.1111111111111,163.8950772 L 390.6666666666667,143.6075763280001 L 398.22222222222223,123.02813124799997 L 405.77777777777777,108.59866520000003 L 413.3333333333333,96.03067402399995 L 420.8888888888889,83.69155097600003 L 428.44444444444446,75.00302565599992 L 436,67.12051281599997 L 443.55555555555554,63.190044976000024 L 451.1111111111111,64.02995363999997 L 458.6666666666667,61.31151770400015 L 466.22222222222223,60.318841608000014 L 473.77777777777777,62.39863988799988 L 481.3333333333333,67.04558122399999 L 488.8888888888889,72.58733496800005 L 496.44444444444446,80.42920542399997 L 504,92.003553608 L 511.55555555555554,107.87264805599995 L 519.1111111111111,112.90943716000004 L 526.6666666666667,113.84632093600004 L 534.2222222222222,103.58600862399999 L 541.7777777777778,95.93920124799996 L 549.3333333333333,96.37644472000011 L 556.8888888888889,96.44304092800013 L 564.4444444444445,96.74477228799987 L 572,99.35050645599995 L 579.5555555555555,101.00735680000003 L 587.1111111111111,103.100915192 L 594.6666666666667,104.20863838400004 L 602.2222222222222,101.92574352800011 L 609.7777777777778,102.13508719200001 L 617.3333333333334,98.52758468799988 L 624.8888888888889,89.14017084799997 L 632.4444444444445,88.22659866399994 L 640,88.70189212800011 L 647.5555555555555,90.76167395200002 L 655.1111111111111,92.18715562399996 L 662.6666666666666,93.97608908799987 L 670.2222222222222,95.39583346399996 L 677.7777777777778,97.18175018400001 L 685.3333333333334,97.08626884799997 L 692.8888888888889,98.59520546399995 L 700.4444444444445,98.84160445599997 L 708,97.98958040000002 L 715.5555555555555,93.89448890400013 L 723.1111111111111,91.97316331200011 L 730.6666666666666,90.65112598400003 L 738.2222222222222,90.81639613600004 L 745.7777777777778,87.26799746399996 L 753.3333333333334,89.23535314400004 L 760.8888888888889,92.04019668799987 L 768.4444444444445,99.84520975200007 L 776,118.10680789599985 L 783.5555555555555,126.885513 L 791.1111111111111,133.536423192 L 798.6666666666666,141.07574348799986 L 806.2222222222222,150.29834570400013 L 813.7777777777778,158.28390274400005 L 821.3333333333334,159.39251522399996 L 828.8888888888889,162.8165289200001 L 836.4444444444445,161.77557851200012 L 844,166.547206 L 844,245.21956768 L 836.4444444444445,248.07449116800004 L 828.8888888888889,247.71717468000003 L 821.3333333333334,248.22835365600005 L 813.7777777777778,248.14507813599994 L 806.2222222222222,251.047738376 L 798.6666666666666,252.67177691199998 L 791.1111111111111,253.16429792799997 L 783.5555555555555,253.64339988 L 776,255.37237226400006 L 768.4444444444445,262.15434456800006 L 760.8888888888889,258.11371395200007 L 753.3333333333334,249.168279096 L 745.7777777777778,239.91264933599993 L 738.2222222222222,227.72152474399994 L 730.6666666666666,223.162034096 L 723.1111111111111,215.751442688 L 715.5555555555555,210.626117096 L 708,202.72468783999994 L 700.4444444444445,200.41497194399994 L 692.8888888888889,201.30987477600002 L 685.3333333333334,206.74287123199997 L 677.7777777777778,206.51938653599993 L 670.2222222222222,203.906474696 L 662.6666666666666,198.84238395200006 L 655.1111111111111,198.25659805600006 L 647.5555555555555,198.110119008 L 640,197.94935083199996 L 632.4444444444445,197.677293496 L 624.8888888888889,197.86023691199998 L 617.3333333333334,193.69525763199997 L 609.7777777777778,192.57976224799992 L 602.2222222222222,192.65473727200003 L 594.6666666666667,192.31423537600003 L 587.1111111111111,191.85209112799998 L 579.5555555555555,191.57691096000005 L 572,191.26062418400002 L 564.4444444444445,188.648950512 L 556.8888888888889,184.032086192 L 549.3333333333333,179.8716096 L 541.7777777777778,174.26083315200006 L 534.2222222222222,160.25367993600005 L 526.6666666666667,146.12667362399998 L 519.1111111111111,148.70300147999987 L 511.55555555555554,158.78112082399997 L 504,184.11755823199996 L 496.44444444444446,206.98263865600006 L 488.8888888888889,227.76288767200003 L 481.3333333333333,244.91926245600007 L 473.77777777777777,261.757744192 L 466.22222222222223,276.235705272 L 458.6666666666667,286.57155437600005 L 451.1111111111111,298.43567588 L 443.55555555555554,314.54727966400003 L 436,324.859161424 L 428.44444444444446,330.49980698400003 L 420.8888888888889,336.019077904 L 413.3333333333333,339.15868533599996 L 405.77777777777777,341.246196 L 398.22222222222223,341.011795632 L 390.6666666666667,337.135457592 L 383.1111111111111,332.05118591999997 L 375.55555555555554,333.1124710479999 L 368,326.2855245520001 L 360.44444444444446,317.727940304 L 352.8888888888889,316.218775136 L 345.33333333333337,316.19203455200005 L 337.77777777777777,316.576445488 L 330.22222222222223,315.65609506400006 L 322.66666666666663,316.035135384 L 315.1111111111111,316.54509114399997 L 307.55555555555554,314.617508496 L 300,315.18300452799997 L 292.44444444444446,315.53623627200005 L 284.8888888888889,319.110841528 L 277.33333333333337,320.87105932 L 269.77777777777777,321.54264406400006 L 262.22222222222223,322.08508696000007 L 254.66666666666666,323.84850163199997 L 247.11111111111111,331.990967096 L 239.55555555555554,334.13415758400004 L 232,334.71413712 L 224.44444444444446,331.40645212 L 216.88888888888889,329.3783870479999 L 209.33333333333331,329.52436627200007 L 201.77777777777777,331.14661626400004 L 194.22222222222223,331.16476941599996 L 186.66666666666669,331.837111016 L 179.11111111111111,332.603893008 L 171.55555555555554,332.443115576 L 164,331.732877776 L 156.44444444444446,331.41862162399997 L 148.88888888888889,330.68000065600006 L 141.33333333333334,333.37202922399996 L 133.77777777777777,332.18361791999996 L 126.22222222222223,330.83538183999997 L 118.66666666666667,330.650850664 L 111.11111111111111,330.08827027200005 L 103.55555555555556,330.415004224 L 96,323.18930212799995 Z" fill="rgba(59, 130, 246, 0.1)" stroke="none" />
      <path d="M 96,240.56048603199997 L 103.55555555555556,236.81707625600006 L 111.11111111111111,236.89401924799992 L 118.66666666666667,237.77188605600006 L 126.22222222222223,237.86619543999993 L 133.77777777777777,233.19309023999995 L 141.33333333333334,230.62903797600003 L 148.88888888888889,235.99694766400006 L 156.44444444444446,236.18393381599998 L 164,236.58016822399998 L 171.55555555555554,238.54097706400006 L 179.11111111111111,240.94003187200002 L 186.66666666666669,243.68470002399997 L 194.22222222222223,247.79625082399997 L 201.77777777777777,247.787255416 L 209.33333333333331,247.85785804799994 L 216.88888888888889,247.86224183199997 L 224.44444444444446,247.66995483999995 L 232,246.54662888000001 L 239.55555555555554,245.81459177600001 L 247.11111111111111,245.24284794399995 L 254.66666666666666,246.93538372799998 L 262.22222222222223,245.90878368000003 L 269.77777777777777,244.87188241599998 L 277.33333333333337,243.62635731999998 L 284.8888888888889,247.036663592 L 292.44444444444446,254.29369724799994 L 300,258.269556512 L 307.55555555555554,256.15964134399997 L 315.1111111111111,250.665543896 L 322.66666666666663,248.09387821599998 L 330.22222222222223,245.74773853599993 L 337.77777777777777,242.29015475200006 L 345.33333333333337,238.64250968800002 L 352.8888888888889,233.23282126400005 L 360.44444444444446,224.659904096 L 368,203.57650256800002 L 375.55555555555554,180.44563895200008 L 383.1111111111111,163.8950772 L 390.6666666666667,143.6075763280001 L 398.22222222222223,123.02813124799997 L 405.77777777777777,108.59866520000003 L 413.3333333333333,96.03067402399995 L 420.8888888888889,83.69155097600003 L 428.44444444444446,75.00302565599992 L 436,67.12051281599997 L 443.55555555555554,63.190044976000024 L 451.1111111111111,64.02995363999997 L 458.6666666666667,61.31151770400015 L 466.22222222222223,60.318841608000014 L 473.77777777777777,62.39863988799988 L 481.3333333333333,67.04558122399999 L 488.8888888888889,72.58733496800005 L 496.44444444444446,80.42920542399997 L 504,92.003553608 L 511.55555555555554,107.87264805599995 L 519.1111111111111,112.90943716000004 L 526.6666666666667,113.84632093600004 L 534.2222222222222,103.58600862399999 L 541.7777777777778,95.93920124799996 L 549.3333333333333,96.37644472000011 L 556.8888888888889,96.44304092800013 L 564.4444444444445,96.74477228799987 L 572,99.35050645599995 L 579.5555555555555,101.00735680000003 L 587.1111111111111,103.100915192 L 594.6666666666667,104.20863838400004 L 602.2222222222222,101.92574352800011 L 609.7777777777778,102.13508719200001 L 617.3333333333334,98.52758468799988 L 624.8888888888889,89.14017084799997 L 632.4444444444445,88.22659866399994 L 640,88.70189212800011 L 647.5555555555555,90.76167395200002 L 655.1111111111111,92.18715562399996 L 662.6666666666666,93.97608908799987 L 670.2222222222222,95.39583346399996 L 677.7777777777778,97.18175018400001 L 685.3333333333334,97.08626884799997 L 692.8888888888889,98.59520546399995 L 700.4444444444445,98.84160445599997 L 708,97.98958040000002 L 715.5555555555555,93.89448890400013 L 723.1111111111111,91.97316331200011 L 730.6666666666666,90.65112598400003 L 738.2222222222222,90.81639613600004 L 745.7777777777778,87.26799746399996 L 753.3333333333334,89.23535314400004 L 760.8888888888889,92.04019668799987 L 768.4444444444445,99.84520975200007 L 776,118.10680789599985 L 783.5555555555555,126.885513 L 791.1111111111111,133.536423192 L 798.6666666666666,141.07574348799986 L 806.2222222222222,150.29834570400013 L 813.7777777777778,158.28390274400005 L 821.3333333333334,159.39251522399996 L 828.8888888888889,162.8165289200001 L 836.4444444444445,161.77557851200012 L 844,166.547206" fill="none" stroke="#3b82f6" stroke-width="1"/>
      <path d="M 96,323.18930212799995 L 103.55555555555556,330.415004224 L 111.11111111111111,330.08827027200005 L 118.66666666666667,330.650850664 L 126.22222222222223,330.83538183999997 L 133.77777777777777,332.18361791999996 L 141.33333333333334,333.37202922399996 L 148.88888888888889,330.68000065600006 L 156.44444444444446,331.41862162399997 L 164,331.732877776 L 171.55555555555554,332.443115576 L 179.11111111111111,332.603893008 L 186.66666666666669,331.837111016 L 194.22222222222223,331.16476941599996 L 201.77777777777777,331.14661626400004 L 209.33333333333331,329.52436627200007 L 216.88888888888889,329.3783870479999 L 224.44444444444446,331.40645212 L 232,334.71413712 L 239.55555555555554,334.13415758400004 L 247.11111111111111,331.990967096 L 254.66666666666666,323.84850163199997 L 262.22222222222223,322.08508696000007 L 269.77777777777777,321.54264406400006 L 277.33333333333337,320.87105932 L 284.8888888888889,319.110841528 L 292.44444444444446,315.53623627200005 L 300,315.18300452799997 L 307.55555555555554,314.617508496 L 315.1111111111111,316.54509114399997 L 322.66666666666663,316.035135384 L 330.22222222222223,315.65609506400006 L 337.77777777777777,316.576445488 L 345.33333333333337,316.19203455200005 L 352.8888888888889,316.218775136 L 360.44444444444446,317.727940304 L 368,326.2855245520001 L 375.55555555555554,333.1124710479999 L 383.1111111111111,332.05118591999997 L 390.6666666666667,337.135457592 L 398.22222222222223,341.011795632 L 405.77777777777777,341.246196 L 413.3333333333333,339.15868533599996 L 420.8888888888889,336.019077904 L 428.44444444444446,330.49980698400003 L 436,324.859161424 L 443.55555555555554,314.54727966400003 L 451.1111111111111,298.43567588 L 458.6666666666667,286.57155437600005 L 466.22222222222223,276.235705272 L 473.77777777777777,261.757744192 L 481.3333333333333,244.91926245600007 L 488.8888888888889,227.76288767200003 L 496.44444444444446,206.98263865600006 L 504,184.11755823199996 L 511.55555555555554,158.78112082399997 L 519.1111111111111,148.70300147999987 L 526.6666666666667,146.12667362399998 L 534.2222222222222,160.25367993600005 L 541.7777777777778,174.26083315200006 L 549.3333333333333,179.8716096 L 556.8888888888889,184.032086192 L 564.4444444444445,188.648950512 L 572,191.26062418400002 L 579.5555555555555,191.57691096000005 L 587.1111111111111,191.85209112799998 L 594.6666666666667,192.31423537600003 L 602.2222222222222,192.65473727200003 L 609.7777777777778,192.57976224799992 L 617.3333333333334,193.69525763199997 L 624.8888888888889,197.86023691199998 L 632.4444444444445,197.677293496 L 640,197.94935083199996 L 647.5555555555555,198.110119008 L 655.1111111111111,198.25659805600006 L 662.6666666666666,198.84238395200006 L 670.2222222222222,203.906474696 L 677.7777777777778,206.51938653599993 L 685.3333333333334,206.74287123199997 L 692.8888888888889,201.30987477600002 L 700.4444444444445,200.41497194399994 L 708,202.72468783999994 L 715.5555555555555,210.626117096 L 723.1111111111111,215.751442688 L 730.6666666666666,223.162034096 L 738.2222222222222,227.72152474399994 L 745.7777777777778,239.91264933599993 L 753.3333333333334,249.168279096 L 760.8888888888889,258.11371395200007 L 768.4444444444445,262.15434456800006 L 776,255.37237226400006 L 783.5555555555555,253.64339988 L 791.1111111111111,253.16429792799997 L 798.6666666666666,252.67177691199998 L 806.2222222222222,251.047738376 L 813.7777777777778,248.14507813599994 L 821.3333333333334,248.22835365600005 L 828.8888888888889,247.71717468000003 L 836.4444444444445,248.07449116800004 L 844,245.21956768" fill="none" stroke="#3b82f6" stroke-width="1"/>
      <path d="M 96,281.87489408000005 L 103.55555555555556,283.61604023999996 L 111.11111111111111,283.49114476000005 L 118.66666666666667,284.21136836000005 L 126.22222222222223,284.35078863999996 L 133.77777777777777,282.68835408 L 141.33333333333334,282.0005336 L 148.88888888888889,283.33847416000003 L 156.44444444444446,283.80127772 L 164,284.156523 L 171.55555555555554,285.49204632 L 179.11111111111111,286.7719624399999 L 186.66666666666669,287.76090551999994 L 194.22222222222223,289.48051011999996 L 201.77777777777777,289.46693583999996 L 209.33333333333331,288.69111216000005 L 216.88888888888889,288.62031443999996 L 224.44444444444446,289.53820348000005 L 232,290.630383 L 239.55555555555554,289.97437468000004 L 247.11111111111111,288.61690752 L 254.66666666666666,285.39194268000006 L 262.22222222222223,283.99693532 L 269.77777777777777,283.20726324 L 277.33333333333337,282.24870832 L 284.8888888888889,283.07375256000006 L 292.44444444444446,284.9149667600001 L 300,286.72628052 L 307.55555555555554,285.38857492 L 315.1111111111111,283.60531751999997 L 322.66666666666663,282.0645068 L 330.22222222222223,280.7019168 L 337.77777777777777,279.43330011999996 L 345.33333333333337,277.41727211999995 L 352.8888888888889,274.7257982 L 360.44444444444446,271.1939222 L 368,264.93101356000005 L 375.55555555555554,256.77905499999997 L 383.1111111111111,247.97313156000007 L 390.6666666666667,240.37151696000006 L 398.22222222222223,232.01996343999994 L 405.77777777777777,224.9224306 L 413.3333333333333,217.59467968 L 420.8888888888889,209.85531443999994 L 428.44444444444446,202.75141631999998 L 436,195.98983711999998 L 443.55555555555554,188.86866231999997 L 451.1111111111111,181.23281476000005 L 458.6666666666667,173.94153603999993 L 466.22222222222223,168.27727343999993 L 473.77777777777777,162.07819203999995 L 481.3333333333333,155.98242183999997 L 488.8888888888889,150.17511132000013 L 496.44444444444446,143.70592203999996 L 504,138.06055592000013 L 511.55555555555554,133.32688443999996 L 519.1111111111111,130.8062193200001 L 526.6666666666667,129.98649727999987 L 534.2222222222222,131.91984427999986 L 541.7777777777778,135.1000172 L 549.3333333333333,138.12402716000003 L 556.8888888888889,140.23756356000004 L 564.4444444444445,142.6968614 L 572,145.3055653200001 L 579.5555555555555,146.29213387999988 L 587.1111111111111,147.47650316000005 L 594.6666666666667,148.26143687999988 L 602.2222222222222,147.2902404 L 609.7777777777778,147.35742472000013 L 617.3333333333334,146.11142116000005 L 624.8888888888889,143.50020387999987 L 632.4444444444445,142.95194607999989 L 640,143.32562147999988 L 647.5555555555555,144.43589647999988 L 655.1111111111111,145.22187683999996 L 662.6666666666666,146.40923652000012 L 670.2222222222222,149.65115407999988 L 677.7777777777778,151.85056836000004 L 685.3333333333334,151.91457003999997 L 692.8888888888889,149.95254012000012 L 700.4444444444445,149.6282882 L 708,150.35713412000013 L 715.5555555555555,152.260303 L 723.1111111111111,153.862303 L 730.6666666666666,156.90658003999997 L 738.2222222222222,159.26896043999997 L 745.7777777777778,163.5903234 L 753.3333333333334,169.2018161200001 L 760.8888888888889,175.0769553200001 L 768.4444444444445,180.99977716000006 L 776,186.73959008000003 L 783.5555555555555,190.26445643999995 L 791.1111111111111,193.35036056000007 L 798.6666666666666,196.8737602 L 806.2222222222222,200.67304203999993 L 813.7777777777778,203.21449043999993 L 821.3333333333334,203.81043443999994 L 828.8888888888889,205.2668518 L 836.4444444444445,204.92503483999994 L 844,205.88338683999993" fill="none" stroke="#9ca3af" stroke-width="1" stroke-dasharray="4 4"/>
    
        
        <line x1="96" y1="286.016" x2="96" y2="311.648" stroke="#9ca3af" stroke-width="1"/><line x1="103.55555555555556" y1="294.56" x2="103.55555555555556" y2="346.5586416" stroke="#9ca3af" stroke-width="1"/><line x1="111.11111111111111" y1="288.6287552" x2="111.11111111111111" y2="338.7045696" stroke="#9ca3af" stroke-width="1"/><line x1="118.66666666666667" y1="285.65999999999997" x2="118.66666666666667" y2="304.9552" stroke="#9ca3af" stroke-width="1"/><line x1="126.22222222222223" y1="280.4624712" x2="126.22222222222223" y2="294.9953168" stroke="#9ca3af" stroke-width="1"/><line x1="133.77777777777777" y1="242.584" x2="133.77777777777777" y2="292.622648" stroke="#9ca3af" stroke-width="1"/><line x1="141.33333333333334" y1="239.8785424" x2="141.33333333333334" y2="258.83718" stroke="#9ca3af" stroke-width="1"/><line x1="148.88888888888889" y1="237.6" x2="148.88888888888889" y2="263.5660704" stroke="#9ca3af" stroke-width="1"/><line x1="156.44444444444446" y1="257.16006400000003" x2="156.44444444444446" y2="295.4873088" stroke="#9ca3af" stroke-width="1"/><line x1="164" y1="284.2691792" x2="164" y2="325.5399744" stroke="#9ca3af" stroke-width="1"/><line x1="171.55555555555554" y1="284.42838240000003" x2="171.55555555555554" y2="304.7790512" stroke="#9ca3af" stroke-width="1"/><line x1="179.11111111111111" y1="286.353132" x2="179.11111111111111" y2="302.6775832" stroke="#9ca3af" stroke-width="1"/><line x1="186.66666666666669" y1="256.8952" x2="186.66666666666669" y2="295.9328784" stroke="#9ca3af" stroke-width="1"/><line x1="194.22222222222223" y1="263.649944" x2="194.22222222222223" y2="304.8415648" stroke="#9ca3af" stroke-width="1"/><line x1="201.77777777777777" y1="284.16237920000003" x2="201.77777777777777" y2="307.376" stroke="#9ca3af" stroke-width="1"/><line x1="209.33333333333331" y1="287.44007120000003" x2="209.33333333333331" y2="301.68" stroke="#9ca3af" stroke-width="1"/><line x1="216.88888888888889" y1="272.1883192" x2="216.88888888888889" y2="310.435464" stroke="#9ca3af" stroke-width="1"/><line x1="224.44444444444446" y1="291.5569976" x2="224.44444444444446" y2="323.04" stroke="#9ca3af" stroke-width="1"/><line x1="232" y1="298.5986064" x2="232" y2="353.0680304" stroke="#9ca3af" stroke-width="1"/><line x1="239.55555555555554" y1="276.048" x2="239.55555555555554" y2="336.29929119999997" stroke="#9ca3af" stroke-width="1"/><line x1="247.11111111111111" y1="281.0873224" x2="247.11111111111111" y2="294.2194504" stroke="#9ca3af" stroke-width="1"/><line x1="254.66666666666666" y1="256.239448" x2="254.66666666666666" y2="283.1672168" stroke="#9ca3af" stroke-width="1"/><line x1="262.22222222222223" y1="261.1786632" x2="262.22222222222223" y2="277.4719288" stroke="#9ca3af" stroke-width="1"/><line x1="269.77777777777777" y1="266.394704" x2="269.77777777777777" y2="277.3211272" stroke="#9ca3af" stroke-width="1"/><line x1="277.33333333333337" y1="267.6498888" x2="277.33333333333337" y2="273.560984" stroke="#9ca3af" stroke-width="1"/><line x1="284.8888888888889" y1="258.96" x2="284.8888888888889" y2="271.584472" stroke="#9ca3af" stroke-width="1"/><line x1="292.44444444444446" y1="256.11199999999997" x2="292.44444444444446" y2="277.89756239999997" stroke="#9ca3af" stroke-width="1"/><line x1="300" y1="274.624" x2="300" y2="297.85122" stroke="#9ca3af" stroke-width="1"/><line x1="307.55555555555554" y1="256.7221128" x2="307.55555555555554" y2="298.8650368" stroke="#9ca3af" stroke-width="1"/><line x1="315.1111111111111" y1="241.16" x2="315.1111111111111" y2="268.5179592" stroke="#9ca3af" stroke-width="1"/><line x1="322.66666666666663" y1="248.9208" x2="322.66666666666663" y2="270.1635336" stroke="#9ca3af" stroke-width="1"/><line x1="330.22222222222223" y1="258.7536624" x2="330.22222222222223" y2="264.2539336" stroke="#9ca3af" stroke-width="1"/><line x1="337.77777777777777" y1="247.9257088" x2="337.77777777777777" y2="265.0845528" stroke="#9ca3af" stroke-width="1"/><line x1="345.33333333333337" y1="245.432" x2="345.33333333333337" y2="257.8515584" stroke="#9ca3af" stroke-width="1"/><line x1="352.8888888888889" y1="236.6032" x2="352.8888888888889" y2="256.7063776" stroke="#9ca3af" stroke-width="1"/><line x1="360.44444444444446" y1="214.104" x2="360.44444444444446" y2="244.5364464" stroke="#9ca3af" stroke-width="1"/><line x1="368" y1="166.4000712" x2="368" y2="226.8462368" stroke="#9ca3af" stroke-width="1"/><line x1="375.55555555555554" y1="133.9629176" x2="375.55555555555554" y2="179.1071352" stroke="#9ca3af" stroke-width="1"/><line x1="383.1111111111111" y1="140.056" x2="383.1111111111111" y2="150.465084" stroke="#9ca3af" stroke-width="1"/><line x1="390.6666666666667" y1="127.24007119999999" x2="390.6666666666667" y2="147.5573472" stroke="#9ca3af" stroke-width="1"/><line x1="398.22222222222223" y1="88.07999999999998" x2="398.22222222222223" y2="132.9792896" stroke="#9ca3af" stroke-width="1"/><line x1="405.77777777777777" y1="115.02307680000001" x2="405.77777777777777" y2="154.917576" stroke="#9ca3af" stroke-width="1"/><line x1="413.3333333333333" y1="110.94609359999998" x2="413.3333333333333" y2="134.614896" stroke="#9ca3af" stroke-width="1"/><line x1="420.8888888888889" y1="102.8983576" x2="420.8888888888889" y2="133.97196" stroke="#9ca3af" stroke-width="1"/><line x1="428.44444444444446" y1="97.33600000000001" x2="428.44444444444446" y2="140.768" stroke="#9ca3af" stroke-width="1"/><line x1="436" y1="119.18357759999998" x2="436" y2="130.8" stroke="#9ca3af" stroke-width="1"/><line x1="443.55555555555554" y1="116.70510560000002" x2="443.55555555555554" y2="142.904" stroke="#9ca3af" stroke-width="1"/><line x1="451.1111111111111" y1="115.6380312" x2="451.1111111111111" y2="150.5777224" stroke="#9ca3af" stroke-width="1"/><line x1="458.6666666666667" y1="121.18807120000002" x2="458.6666666666667" y2="152.516" stroke="#9ca3af" stroke-width="1"/><line x1="466.22222222222223" y1="122.72364160000001" x2="466.22222222222223" y2="150.7293072" stroke="#9ca3af" stroke-width="1"/><line x1="473.77777777777777" y1="127.3622504" x2="473.77777777777777" y2="151.448" stroke="#9ca3af" stroke-width="1"/><line x1="481.3333333333333" y1="135.7840712" x2="481.3333333333333" y2="168.793032" stroke="#9ca3af" stroke-width="1"/><line x1="488.8888888888889" y1="133.4371056" x2="488.8888888888889" y2="144.6085992" stroke="#9ca3af" stroke-width="1"/><line x1="496.44444444444446" y1="118.3037592" x2="496.44444444444446" y2="136.8791984" stroke="#9ca3af" stroke-width="1"/><line x1="504" y1="116.53842639999999" x2="504" y2="131.3695288" stroke="#9ca3af" stroke-width="1"/><line x1="511.55555555555554" y1="112.77579120000001" x2="511.55555555555554" y2="135.7839288" stroke="#9ca3af" stroke-width="1"/><line x1="519.1111111111111" y1="116.6223" x2="519.1111111111111" y2="143.661924" stroke="#9ca3af" stroke-width="1"/><line x1="526.6666666666667" y1="103.11202880000002" x2="526.6666666666667" y2="134.36" stroke="#9ca3af" stroke-width="1"/><line x1="534.2222222222222" y1="128.7906648" x2="534.2222222222222" y2="191.32" stroke="#9ca3af" stroke-width="1"/><line x1="541.7777777777778" y1="175.9202232" x2="541.7777777777778" y2="199.152" stroke="#9ca3af" stroke-width="1"/><line x1="549.3333333333333" y1="169.9672624" x2="549.3333333333333" y2="199.4368" stroke="#9ca3af" stroke-width="1"/><line x1="556.8888888888889" y1="162.8511072" x2="556.8888888888889" y2="178.504" stroke="#9ca3af" stroke-width="1"/><line x1="564.4444444444445" y1="165.1627576" x2="564.4444444444445" y2="194.88" stroke="#9ca3af" stroke-width="1"/><line x1="572" y1="163.1248" x2="572" y2="184.4421512" stroke="#9ca3af" stroke-width="1"/><line x1="579.5555555555555" y1="143.9593976" x2="579.5555555555555" y2="174.902704" stroke="#9ca3af" stroke-width="1"/><line x1="587.1111111111111" y1="142.1920712" x2="587.1111111111111" y2="156.2520776" stroke="#9ca3af" stroke-width="1"/><line x1="594.6666666666667" y1="138.386716" x2="594.6666666666667" y2="153.2502144" stroke="#9ca3af" stroke-width="1"/><line x1="602.2222222222222" y1="122.74592719999998" x2="602.2222222222222" y2="152.16" stroke="#9ca3af" stroke-width="1"/><line x1="609.7777777777778" y1="95.91207120000001" x2="609.7777777777778" y2="130.7262368" stroke="#9ca3af" stroke-width="1"/><line x1="617.3333333333334" y1="110.86399999999998" x2="617.3333333333334" y2="125.3543392" stroke="#9ca3af" stroke-width="1"/><line x1="624.8888888888889" y1="82.31279999999998" x2="624.8888888888889" y2="121.5439288" stroke="#9ca3af" stroke-width="1"/><line x1="632.4444444444445" y1="78.11200000000002" x2="632.4444444444445" y2="140.056" stroke="#9ca3af" stroke-width="1"/><line x1="640" y1="123.49488000000002" x2="640" y2="151.6284208" stroke="#9ca3af" stroke-width="1"/><line x1="647.5555555555555" y1="136.971972" x2="647.5555555555555" y2="149.7289472" stroke="#9ca3af" stroke-width="1"/><line x1="655.1111111111111" y1="131.5542928" x2="655.1111111111111" y2="148.0860072" stroke="#9ca3af" stroke-width="1"/><line x1="662.6666666666666" y1="139.8196872" x2="662.6666666666666" y2="170.4567624" stroke="#9ca3af" stroke-width="1"/><line x1="670.2222222222222" y1="138.632" x2="670.2222222222222" y2="189.9672" stroke="#9ca3af" stroke-width="1"/><line x1="677.7777777777778" y1="172.0401792" x2="677.7777777777778" y2="196.6800072" stroke="#9ca3af" stroke-width="1"/><line x1="685.3333333333334" y1="169.2827456" x2="685.3333333333334" y2="191.32" stroke="#9ca3af" stroke-width="1"/><line x1="692.8888888888889" y1="149.0272712" x2="692.8888888888889" y2="192.8253104" stroke="#9ca3af" stroke-width="1"/><line x1="700.4444444444445" y1="154.296" x2="700.4444444444445" y2="178.504" stroke="#9ca3af" stroke-width="1"/><line x1="708" y1="166.6999656" x2="708" y2="209.12" stroke="#9ca3af" stroke-width="1"/><line x1="715.5555555555555" y1="182.8551744" x2="715.5555555555555" y2="224.6093464" stroke="#9ca3af" stroke-width="1"/><line x1="723.1111111111111" y1="196.3751288" x2="723.1111111111111" y2="235.464" stroke="#9ca3af" stroke-width="1"/><line x1="730.6666666666666" y1="189.0390368" x2="730.6666666666666" y2="212.2520168" stroke="#9ca3af" stroke-width="1"/><line x1="738.2222222222222" y1="185.4140312" x2="738.2222222222222" y2="210.544" stroke="#9ca3af" stroke-width="1"/><line x1="745.7777777777778" y1="195.0441872" x2="745.7777777777778" y2="247.7994712" stroke="#9ca3af" stroke-width="1"/><line x1="753.3333333333334" y1="233.7823984" x2="753.3333333333334" y2="248.6027496" stroke="#9ca3af" stroke-width="1"/><line x1="760.8888888888889" y1="227.9620832" x2="760.8888888888889" y2="242.9196368" stroke="#9ca3af" stroke-width="1"/><line x1="768.4444444444445" y1="223.8798312" x2="768.4444444444445" y2="251.2945368" stroke="#9ca3af" stroke-width="1"/><line x1="776" y1="199.4429232" x2="776" y2="232.6714648" stroke="#9ca3af" stroke-width="1"/><line x1="783.5555555555555" y1="189.8960712" x2="783.5555555555555" y2="207.3953224" stroke="#9ca3af" stroke-width="1"/><line x1="791.1111111111111" y1="184.111" x2="791.1111111111111" y2="216.5247288" stroke="#9ca3af" stroke-width="1"/><line x1="798.6666666666666" y1="182.064" x2="798.6666666666666" y2="219.3380544" stroke="#9ca3af" stroke-width="1"/><line x1="806.2222222222222" y1="206.984" x2="806.2222222222222" y2="219.088" stroke="#9ca3af" stroke-width="1"/><line x1="813.7777777777778" y1="197.0072424" x2="813.7777777777778" y2="217.8216368" stroke="#9ca3af" stroke-width="1"/><line x1="821.3333333333334" y1="189.57382" x2="821.3333333333334" y2="208.0852504" stroke="#9ca3af" stroke-width="1"/><line x1="828.8888888888889" y1="189.5591528" x2="828.8888888888889" y2="212.9553304" stroke="#9ca3af" stroke-width="1"/><line x1="836.4444444444445" y1="177.792" x2="836.4444444444445" y2="210.639052" stroke="#9ca3af" stroke-width="1"/><line x1="844" y1="171.181436" x2="844" y2="181.64392" stroke="#9ca3af" stroke-width="1"/>
        <rect x="93.756" y="295.5840696" width="4.488" height="13.61949199999998" fill="#ef4444"/><rect x="101.31155555555556" y="309.2035616" width="4.488" height="25.64766400000002" fill="#ef4444"/><rect x="108.86711111111111" y="301.1713472" width="4.488" height="33.67987840000001" fill="#16a34a"/><rect x="116.42266666666667" y="288.508" width="4.488" height="12.700869600000033" fill="#16a34a"/><rect x="123.97822222222223" y="288.508" width="4.488" height="1" fill="#ef4444"/><rect x="131.53377777777777" y="245.1677768" width="4.488" height="44.2658232" fill="#16a34a"/><rect x="139.08933333333334" y="241.0732784" width="4.488" height="4.09449840000002" fill="#16a34a"/><rect x="146.6448888888889" y="241.0732784" width="4.488" height="17.80932720000004" fill="#ef4444"/><rect x="154.20044444444446" y="258.88260560000003" width="4.488" height="36.38939439999996" fill="#ef4444"/><rect x="161.756" y="286.15840000000003" width="4.488" height="9.355751199999986" fill="#16a34a"/><rect x="169.31155555555554" y="285.716604" width="4.488" height="6.930750399999965" fill="#ef4444"/><rect x="176.86711111111111" y="288.7901656" width="4.488" height="3.8571887999999603" fill="#16a34a"/><rect x="184.4226666666667" y="277.2035048" width="4.488" height="11.586660800000004" fill="#16a34a"/><rect x="191.97822222222223" y="277.0955656" width="4.488" height="13.809738400000015" fill="#ef4444"/><rect x="199.53377777777777" y="290.9053752" width="4.488" height="1.9477472000000375" fill="#ef4444"/><rect x="207.08933333333331" y="292.57352000000003" width="4.488" height="1" fill="#16a34a"/><rect x="214.6448888888889" y="292.57352000000003" width="4.488" height="6.204723999999942" fill="#ef4444"/><rect x="222.20044444444446" y="298.7781728" width="4.488" height="11.971924000000001" fill="#ef4444"/><rect x="229.756" y="310.75016800000003" width="4.488" height="12.0503152" fill="#ef4444"/><rect x="237.31155555555554" y="282.4639032" width="4.488" height="40.336580000000026" fill="#16a34a"/><rect x="244.86711111111111" y="282.05421839999997" width="4.488" height="1" fill="#16a34a"/><rect x="252.42266666666666" y="270.3519288" width="4.488" height="11.463271200000008" fill="#16a34a"/><rect x="259.9782222222222" y="270.3519288" width="4.488" height="2.9192712000000256" fill="#ef4444"/><rect x="267.53377777777774" y="272.7145584" width="4.488" height="1" fill="#16a34a"/><rect x="275.08933333333334" y="270.2625016" width="4.488" height="2.45205679999998" fill="#16a34a"/><rect x="282.6448888888889" y="261.6686616" width="4.488" height="8.59384" fill="#16a34a"/><rect x="290.20044444444443" y="261.6686616" width="4.488" height="16.228900799999963" fill="#ef4444"/><rect x="297.756" y="277.8464408" width="4.488" height="17.262440000000026" fill="#ef4444"/><rect x="305.3115555555555" y="268.51788799999997" width="4.488" height="26.590992800000038" fill="#16a34a"/><rect x="312.86711111111106" y="250.493252" width="4.488" height="18.02463599999996" fill="#16a34a"/><rect x="320.4226666666666" y="250.493252" width="4.488" height="11.337887999999992" fill="#ef4444"/><rect x="327.9782222222222" y="261.5383656" width="4.488" height="1" fill="#16a34a"/><rect x="335.53377777777774" y="251.8311712" width="4.488" height="9.707479199999995" fill="#16a34a"/><rect x="343.08933333333334" y="250.584744" width="4.488" height="1.255184799999995" fill="#16a34a"/><rect x="350.6448888888889" y="239.023644" width="4.488" height="11.561171200000018" fill="#16a34a"/><rect x="358.20044444444443" y="221.936" width="4.488" height="17.087643999999983" fill="#16a34a"/><rect x="365.756" y="173.5200712" width="4.488" height="48.41592880000002" fill="#16a34a"/><rect x="373.3115555555555" y="147.7109256" width="4.488" height="25.809074400000014" fill="#16a34a"/><rect x="380.86711111111106" y="146.6820144" width="4.488" height="1.0289111999999818" fill="#16a34a"/><rect x="388.42266666666666" y="130.4316112" width="4.488" height="16.250332000000014" fill="#16a34a"/><rect x="395.9782222222222" y="115.02314799999999" width="4.488" height="15.40839200000002" fill="#16a34a"/><rect x="403.53377777777774" y="115.02307680000001" width="4.488" height="13.378195199999993" fill="#ef4444"/><rect x="411.0893333333333" y="126.7161816" width="4.488" height="1.6850191999999993" fill="#16a34a"/><rect x="418.6448888888889" y="117.92725359999997" width="4.488" height="8.788928000000027" fill="#16a34a"/><rect x="426.20044444444443" y="117.92732480000001" width="4.488" height="10.257214399999981" fill="#ef4444"/><rect x="433.756" y="126.43707760000001" width="4.488" height="1.7473904000000005" fill="#16a34a"/><rect x="441.3115555555555" y="126.43707760000001" width="4.488" height="9.036988799999989" fill="#ef4444"/><rect x="448.86711111111106" y="135.4740664" width="4.488" height="6.917863199999999" fill="#ef4444"/><rect x="456.42266666666666" y="122.69231359999998" width="4.488" height="19.69961600000002" fill="#16a34a"/><rect x="463.9782222222222" y="122.72364160000001" width="4.488" height="14.48435839999999" fill="#ef4444"/><rect x="471.53377777777774" y="137.168128" width="4.488" height="1" fill="#ef4444"/><rect x="479.0893333333333" y="137.849512" width="4.488" height="1.7734495999999922" fill="#ef4444"/><rect x="486.6448888888889" y="135.6849608" width="4.488" height="3.9379295999999897" fill="#16a34a"/><rect x="494.20044444444443" y="121.20095839999999" width="4.488" height="14.484002400000008" fill="#16a34a"/><rect x="501.756" y="120.95702720000003" width="4.488" height="5.159294399999965" fill="#ef4444"/><rect x="509.3115555555555" y="125.94907280000001" width="4.488" height="1.3134975999999767" fill="#ef4444"/><rect x="516.8671111111111" y="123.1067688" width="4.488" height="4.15573040000001" fill="#16a34a"/><rect x="524.4226666666667" y="123.10669760000002" width="4.488" height="8.209787199999994" fill="#ef4444"/><rect x="531.9782222222221" y="131.316556" width="4.488" height="54.032398400000005" fill="#ef4444"/><rect x="539.5337777777778" y="185.3489544" width="4.488" height="8.686115200000017" fill="#ef4444"/><rect x="547.0893333333332" y="175.5033472" width="4.488" height="18.531722400000007" fill="#16a34a"/><rect x="554.6448888888889" y="170.672" width="4.488" height="4.83134720000001" fill="#16a34a"/><rect x="562.2004444444444" y="170.7735312" width="4.488" height="5.128607200000005" fill="#ef4444"/><rect x="569.756" y="170.101332" width="4.488" height="5.800806399999999" fill="#16a34a"/><rect x="577.3115555555555" y="147.9159104" width="4.488" height="22.186418400000008" fill="#16a34a"/><rect x="584.8671111111111" y="147.9159104" width="4.488" height="2.2085528000000068" fill="#ef4444"/><rect x="592.4226666666667" y="150.1244632" width="4.488" height="1.0482776000000058" fill="#ef4444"/><rect x="599.9782222222221" y="122.96800000000002" width="4.488" height="28.204740799999996" fill="#16a34a"/><rect x="607.5337777777778" y="122.96792879999998" width="4.488" height="1.0680712000000199" fill="#ef4444"/><rect x="615.0893333333333" y="112.28792879999997" width="4.488" height="11.748000000000019" fill="#16a34a"/><rect x="622.6448888888889" y="85.62516640000001" width="4.488" height="26.662762399999963" fill="#16a34a"/><rect x="630.2004444444444" y="85.37083999999999" width="4.488" height="43.2869656" fill="#ef4444"/><rect x="637.756" y="128.6578056" width="4.488" height="14.50066320000002" fill="#ef4444"/><rect x="645.3115555555555" y="143.1584688" width="4.488" height="1" fill="#ef4444"/><rect x="652.8671111111111" y="141.8359288" width="4.488" height="1.5705295999999862" fill="#16a34a"/><rect x="660.4226666666666" y="141.8359288" width="4.488" height="9.173835199999985" fill="#ef4444"/><rect x="667.9782222222221" y="151.0098352" width="4.488" height="36.935284800000005" fill="#ef4444"/><rect x="675.5337777777778" y="175.3047704" width="4.488" height="12.640349600000008" fill="#16a34a"/><rect x="683.0893333333333" y="175.3048416" width="4.488" height="11.32414639999999" fill="#ef4444"/><rect x="690.6448888888889" y="154.7944712" width="4.488" height="31.83451679999999" fill="#16a34a"/><rect x="698.2004444444444" y="154.7944" width="4.488" height="14.223908800000004" fill="#ef4444"/><rect x="705.756" y="169.0183088" width="4.488" height="16.230609600000008" fill="#ef4444"/><rect x="713.3115555555555" y="185.2489184" width="4.488" height="28.7165976" fill="#ef4444"/><rect x="720.8671111111111" y="202.141332" width="4.488" height="11.824112799999995" fill="#16a34a"/><rect x="728.4226666666666" y="202.141332" width="4.488" height="6.660119199999997" fill="#ef4444"/><rect x="735.9782222222221" y="197.3720712" width="4.488" height="11.429380000000009" fill="#16a34a"/><rect x="743.5337777777778" y="197.3720712" width="4.488" height="40.2279288" fill="#ef4444"/><rect x="751.0893333333333" y="235.1978544" width="4.488" height="2.402074399999975" fill="#16a34a"/><rect x="758.6448888888889" y="235.1979256" width="4.488" height="6.340858400000002" fill="#ef4444"/><rect x="766.2004444444444" y="230.7443656" width="4.488" height="10.794418399999984" fill="#16a34a"/><rect x="773.756" y="200.4214248" width="4.488" height="30.323011999999977" fill="#16a34a"/><rect x="781.3115555555555" y="199.1551328" width="4.488" height="1" fill="#16a34a"/><rect x="788.8671111111111" y="199.1550616" width="4.488" height="5.721489599999984" fill="#ef4444"/><rect x="796.4226666666666" y="204.5630576" width="4.488" height="9.311393600000002" fill="#ef4444"/><rect x="803.9782222222221" y="213.8744512" width="4.488" height="3.947114400000004" fill="#ef4444"/><rect x="811.5337777777778" y="201.838732" width="4.488" height="15.98283360000002" fill="#16a34a"/><rect x="819.0893333333333" y="199.864" width="4.488" height="2.359567999999996" fill="#16a34a"/><rect x="826.6448888888889" y="199.864" width="4.488" height="4.5691175999999984" fill="#ef4444"/><rect x="834.2004444444444" y="179.7926488" width="4.488" height="24.640468800000008" fill="#16a34a"/><rect x="841.756" y="173.9615112" width="4.488" height="5.831137600000005" fill="#16a34a"/>
      </g>
      <g class="legend">
        <g font-size="12" fill="#e5e7eb"><g transform="translate(96, 12)">
        <rect y="-10" width="12" height="12" fill="#3b82f6"></rect>
        <text x="16" y="0">Bollinger Bands</text>
      </g></g>
      </g>
    </svg>
  
