
    <svg width="860" height="420" viewBox="0 0 860 420" xmlns="http://www.w3.org/2000/svg" style="background-color: #1f2937; color: #e5e7eb; font-family: sans-serif;">
      <title>BTC/JPY 1day chart</title>
      <defs>
        <clipPath id="plotArea">
          <rect x="96" y="48" width="748" height="332"/>
        </clipPath>
      </defs>
      <g class="axes">
        
    <line x1="96" y1="48" x2="96" y2="380" stroke="#4b5563" stroke-width="1"/>
    <g font-size="12" fill="#e5e7eb">
      <text x="88" y="380" text-anchor="end" dominant-baseline="middle">14,000,000</text><text x="88" y="313.6" text-anchor="end" dominant-baseline="middle">15,000,000</text><text x="88" y="247.2" text-anchor="end" dominant-baseline="middle">16,000,000</text><text x="88" y="180.8" text-anchor="end" dominant-baseline="middle">17,000,000</text><text x="88" y="114.39999999999998" text-anchor="end" dominant-baseline="middle">18,000,000</text><text x="88" y="48" text-anchor="end" dominant-baseline="middle">19,000,000</text>
    </g>
  
        
    <line x1="96" y1="380" x2="844" y2="380" stroke="#4b5563" stroke-width="1"/>
    <g font-size="12" fill="#e5e7eb">
      <text x="96" y="396" text-anchor="middle" fill="#e5e7eb" font-size="10">6/19</text><text x="210.55855855855856" y="396" text-anchor="middle" fill="#e5e7eb" font-size="10">7/6</text><text x="325.1171171171171" y="396" text-anchor="middle" fill="#e5e7eb" font-size="10">7/23</text><text x="439.6756756756757" y="396" text-anchor="middle" fill="#e5e7eb" font-size="10">8/9</text><text x="554.2342342342342" y="396" text-anchor="middle" fill="#e5e7eb" font-size="10">8/26</text><text x="668.7927927927927" y="396" text-anchor="middle" fill="#e5e7eb" font-size="10">9/12</text>
    </g>
  
      </g>
      <g class="plot-area" clip-path="url(#plotArea)">
        
      <path d="M -112.9009009009009,484.91623300000003 L -106.16216216216216,484.91623300000003 L -99.42342342342343,473.6624124 L -92.6846846846847,473.08752119999997 L -85.94594594594594,473.08752119999997 L -79.2072072072072,473.08752119999997 L -72.46846846846847,471.4671786 L -65.72972972972974,467.1868354 L -58.99099099099098,441.5123458 L -52.25225225225225,440.7568466 L -45.513513513513516,436.9368214 L -38.774774774774784,436.8600132 L -32.03603603603602,428.9680578 L -25.29729729729729,428.9680578 L -18.55855855855856,420.4119862 L -11.819819819819813,388.1686774 L -5.081081081081081,388.054901 L 1.6576576576576514,384.737059 L 8.396396396396398,384.219637 L 15.13513513513513,373.1158472 L 21.873873873873876,372.540956 L 28.612612612612608,372.540956 L 35.351351351351354,365.2606774 L 42.090090090090094,360.119674 L 48.828828828828826,341.5051312 L 55.567567567567565,328.6196468 L 62.306306306306304,328.2876468 L 69.04504504504504,325.1691708 L 75.78378378378378,314.8630774 L 82.52252252252252,306.3159034 L 89.26126126126127,306.3159034 L 96,306.0702566 L 102.73873873873873,306.0702566 L 109.47747747747748,305.9564802 L 116.21621621621622,305.9564802 L 122.95495495495496,300.9092834 L 129.6936936936937,300.1464802 L 136.43243243243245,304.030266 L 143.17117117117118,306.1385988 L 149.9099099099099,301.190172 L 156.64864864864865,298.3612332 L 163.38738738738738,284.0270336 L 170.1261261261261,283.99888 L 176.86486486486487,298.3048098 L 183.6036036036036,298.3048098 L 190.34234234234236,305.845144 L 197.0810810810811,305.5835446 L 203.81981981981983,296.75232800000003 L 210.55855855855856,296.1215612 L 217.2972972972973,295.590328 L 224.03603603603602,295.590328 L 230.77477477477478,295.590328 L 237.51351351351352,293.759182 L 244.25225225225225,290.6899084 L 250.99099099099098,290.6899084 L 257.72972972972974,291.6059628 L 264.4684684684685,293.106138 L 271.2072072072072,293.106138 L 277.94594594594594,297.604738 L 284.6846846846847,297.604738 L 291.4234234234234,305.5404344 L 298.1621621621622,305.5404344 L 304.90090090090087,305.5404344 L 311.63963963963965,305.3875484 L 318.3783783783784,305.3875484 L 325.1171171171171,305.3875484 L 331.85585585585585,305.3875484 L 331.85585585585585,305.3875484 L 331.85585585585585,305.3875484 L 331.85585585585585,309.7635408 L 325.1171171171171,316.8048624 L 318.3783783783784,331.3654196 L 311.63963963963965,331.3654196 L 304.90090090090087,331.3654196 L 298.1621621621622,331.3654196 L 291.4234234234234,331.3654196 L 284.6846846846847,331.3654196 L 277.94594594594594,331.5929724 L 271.2072072072072,331.5929724 L 264.4684684684685,331.5929724 L 257.72972972972974,331.5929724 L 250.99099099099098,331.5929724 L 244.25225225225225,331.7465888 L 237.51351351351352,337.9835408 L 230.77477477477478,338.6475408 L 224.03603603603602,364.3622024 L 217.2972972972973,372.9228888 L 210.55855855855856,376.163574 L 203.81981981981983,376.163574 L 197.0810810810811,376.163574 L 190.34234234234236,377.3133564 L 183.6036036036036,379.9673976 L 176.86486486486487,379.9673976 L 170.1261261261261,379.9673976 L 163.38738738738738,379.9673976 L 156.64864864864865,379.9673976 L 149.9099099099099,397.0795408 L 143.17117117117118,397.0795408 L 136.43243243243245,412.8634516 L 129.6936936936937,412.8634516 L 122.95495495495496,414.26655 L 116.21621621621622,414.26655 L 109.47747747747748,414.26655 L 102.73873873873873,414.26655 L 96,414.26655 L 89.26126126126127,414.26655 L 82.52252252252252,414.26655 L 75.78378378378378,422.813724 L 69.04504504504504,433.04300920000003 L 62.306306306306304,433.04300920000003 L 55.567567567567565,433.04300920000003 L 48.828828828828826,433.04300920000003 L 42.090090090090094,433.04300920000003 L 35.351351351351354,433.04300920000003 L 28.612612612612608,433.04300920000003 L 21.873873873873876,433.04300920000003 L 15.13513513513513,433.04300920000003 L 8.396396396396398,442.8197784 L 1.6576576576576514,443.33720040000003 L -5.081081081081081,446.6550424 L -11.819819819819813,446.6550424 L -18.55855855855856,478.8983512 L -25.29729729729729,478.8983512 L -32.03603603603602,478.8983512 L -38.774774774774784,478.8983512 L -45.513513513513516,478.8983512 L -52.25225225225225,478.8983512 L -58.99099099099098,479.3218504 L -65.72972972972974,492.13900920000003 L -72.46846846846847,492.13900920000003 L -79.2072072072072,492.13900920000003 L -85.94594594594594,492.13900920000003 L -92.6846846846847,489.0956648 L -99.42342342342343,489.0956648 L -106.16216216216216,489.0956648 L -112.9009009009009,484.91623300000003 ZM 352.07207207207205,301.4482688 L 358.81081081081084,292.7206196 L 365.54954954954957,289.2346196 L 372.2882882882883,289.2346196 L 379.02702702702703,289.2346196 L 385.76576576576576,289.2346196 L 392.5045045045045,290.0646196 L 399.2432432432432,287.9398196 L 405.98198198198196,277.44861960000003 L 412.72072072072075,255.20465280000002 L 419.4594594594595,233.3878206 L 426.1981981981982,233.3878206 L 432.93693693693695,229.0688658 L 439.6756756756757,210.8088326 L 446.4144144144144,209.1224884 L 453.15315315315314,208.855494 L 459.8918918918919,206.0181224 L 466.6306306306306,197.984154 L 473.3693693693694,178.126321 L 480.1081081081081,172.4866204 L 486.84684684684686,172.4866204 L 493.5855855855856,172.4866204 L 500.3243243243243,174.6446204 L 507.06306306306305,174.0847024 L 513.8018018018017,177.8796284 L 520.5405405405405,177.8796284 L 527.2792792792793,182.146675 L 534.018018018018,175.4550324 L 540.7567567567568,174.7877124 L 547.4954954954956,173.603568 L 554.2342342342342,171.3504998 L 560.9729729729729,174.9162296 L 567.7117117117117,176.4752352 L 574.4504504504505,173.7042636 L 581.1891891891892,169.5798608 L 587.927927927928,163.1894584 L 594.6666666666667,163.1894584 L 601.4054054054054,163.1894584 L 608.1441441441441,163.1894584 L 614.8828828828829,171.3343314 L 621.6216216216217,169.9250246 L 628.3603603603603,163.3368332 L 635.0990990990991,162.2744332 L 641.8378378378378,155.9332 L 648.5765765765766,151.5408566 L 655.3153153153153,149.316772 L 662.0540540540541,144.9684518 L 668.7927927927927,144.2685792 L 675.5315315315315,148.2802182 L 682.2702702702703,152.829 L 689.009009009009,154.3940646 L 695.7477477477478,154.3940646 L 702.4864864864865,154.3940646 L 709.2252252252252,164.9749046 L 715.9639639639639,172.0118604 L 722.7027027027027,179.2344208 L 722.7027027027027,179.2344208 L 722.7027027027027,179.2344208 L 722.7027027027027,185.6478308 L 715.9639639639639,188.0161196 L 709.2252252252252,188.0161196 L 702.4864864864865,201.3994048 L 695.7477477477478,201.3994048 L 689.009009009009,201.3994048 L 682.2702702702703,201.3994048 L 675.5315315315315,201.3994048 L 668.7927927927927,201.3994048 L 662.0540540540541,201.3994048 L 655.3153153153153,201.3994048 L 648.5765765765766,201.3994048 L 641.8378378378378,220.8135032 L 635.0990990990991,231.3218344 L 628.3603603603603,231.3218344 L 621.6216216216217,231.3218344 L 614.8828828828829,231.3218344 L 608.1441441441441,231.3218344 L 601.4054054054054,231.3218344 L 594.6666666666667,231.3218344 L 587.927927927928,231.3218344 L 581.1891891891892,231.3218344 L 574.4504504504505,231.3218344 L 567.7117117117117,231.3218344 L 560.9729729729729,231.3218344 L 554.2342342342342,231.3218344 L 547.4954954954956,231.3218344 L 540.7567567567568,231.3218344 L 534.018018018018,231.3218344 L 527.2792792792793,231.3218344 L 520.5405405405405,231.3218344 L 513.8018018018017,231.3218344 L 507.06306306306305,231.3218344 L 500.3243243243243,231.3218344 L 493.5855855855856,231.3218344 L 486.84684684684686,231.3218344 L 480.1081081081081,231.3218344 L 473.3693693693694,231.3218344 L 466.6306306306306,231.3218344 L 459.8918918918919,231.3218344 L 453.15315315315314,231.3218344 L 446.4144144144144,231.3218344 L 439.6756756756757,231.3218344 L 432.93693693693695,249.5818676 L 426.1981981981982,252.716678 L 419.4594594594595,252.716678 L 412.72072072072075,267.8418676 L 405.98198198198196,290.0858344 L 399.2432432432432,296.2093752 L 392.5045045045045,296.2093752 L 385.76576576576576,296.2093752 L 379.02702702702703,296.2093752 L 372.2882882882883,296.2093752 L 365.54954954954957,296.2093752 L 358.81081081081084,296.2093752 L 352.07207207207205,301.4482688 Z" fill="rgba(16, 163, 74, 0.16)" stroke="none" />
      <path d="M -523.9639639639639,271.1525384 L -517.2252252252252,271.1525384 L -510.48648648648646,271.1525384 L -503.7477477477478,286.7565384 L -497.009009009009,316.90094320000003 L -490.2702702702703,334.5645384 L -483.5315315315315,334.5645384 L -476.79279279279274,349.50414 L -470.05405405405406,349.50414 L -463.3153153153153,349.50414 L -456.5765765765766,349.50414 L -449.8378378378378,349.50414 L -443.09909909909913,349.50414 L -436.36036036036035,349.50414 L -429.62162162162167,349.50414 L -422.8828828828829,349.50414 L -416.1441441441441,349.50414 L -409.4054054054054,361.7883392 L -402.6666666666667,367.6646396 L -395.92792792792795,367.6646396 L -389.18918918918916,381.2281012 L -382.45045045045043,381.2281012 L -375.7117117117117,381.2281012 L -368.97297297297297,381.8001704 L -362.23423423423424,389.0427172 L -355.4954954954955,389.6139896 L -348.7567567567568,391.379466 L -342.01801801801804,391.379466 L -335.27927927927925,391.379466 L -328.5405405405405,391.379466 L -321.8018018018018,391.7647852 L -315.06306306306305,404.582774 L -308.3243243243243,406.988114 L -301.5855855855856,406.988114 L -294.84684684684686,409.9533056 L -288.1081081081081,428.98806079999997 L -281.3693693693694,429.8703176 L -274.6306306306306,429.8703176 L -267.8918918918919,432.9144256 L -261.15315315315314,432.9144256 L -254.4144144144144,432.9144256 L -247.67567567567568,432.9144256 L -240.93693693693695,432.9144256 L -234.1981981981982,432.9144256 L -227.45945945945948,440.7662588 L -220.72072072072075,452.7621492 L -213.98198198198196,452.7621492 L -207.24324324324323,452.7621492 L -200.5045045045045,452.7621492 L -193.76576576576576,452.7621492 L -187.02702702702703,452.7621492 L -180.2882882882883,452.7621492 L -173.54954954954957,465.5790424 L -166.81081081081084,465.5790424 L -160.07207207207205,465.5790424 L -153.33333333333334,465.5790424 L -146.59459459459458,474.3327536 L -139.85585585585585,474.3327536 L -133.11711711711712,474.3327536 L -126.37837837837839,474.3327536 L -119.63963963963963,474.3327536 L -112.9009009009009,476.8297588 L -112.9009009009009,484.91623300000003 L -112.9009009009009,484.91623300000003 L -112.9009009009009,484.91623300000003 L -119.63963963963963,488.9170654 L -126.37837837837839,505.5372178 L -133.11711711711712,506.529433 L -139.85585585585585,515.0855046 L -146.59459459459458,514.5294046 L -153.33333333333334,522.42136 L -160.07207207207205,522.42136 L -166.81081081081084,523.1229092 L -173.54954954954957,523.3277697999999 L -180.2882882882883,523.3004628 L -187.02702702702703,521.715362 L -193.76576576576576,521.715362 L -200.5045045045045,508.3489092 L -207.24324324324323,508.3489092 L -213.98198198198196,508.3489092 L -220.72072072072075,508.3489092 L -227.45945945945948,498.7610148 L -234.1981981981982,484.3452262 L -240.93693693693695,484.3452262 L -247.67567567567568,483.5871706 L -254.4144144144144,478.568144 L -261.15315315315314,474.8809354 L -267.8918918918919,468.9124718 L -274.6306306306306,467.4131432 L -281.3693693693694,466.9958358 L -288.1081081081081,458.53232579999997 L -294.84684684684686,457.6478114 L -301.5855855855856,461.32602280000003 L -308.3243243243243,461.32602280000003 L -315.06306306306305,461.32602280000003 L -321.8018018018018,467.0281228 L -328.5405405405405,465.2739012 L -335.27927927927925,468.0566588 L -342.01801801801804,468.0566588 L -348.7567567567568,478.2400284 L -355.4954954954955,476.1960206 L -362.23423423423424,474.2514302 L -368.97297297297297,472.879075 L -375.7117117117117,462.2664626 L -382.45045045045043,456.297999 L -389.18918918918916,456.297999 L -395.92792792792795,456.297999 L -402.6666666666667,448.961048 L -409.4054054054054,440.4318352 L -416.1441441441441,427.7676952 L -422.8828828828829,428.147636 L -429.62162162162167,428.147636 L -436.36036036036035,428.147636 L -443.09909909909913,423.7707804 L -449.8378378378378,422.2487264 L -456.5765765765766,422.2487264 L -463.3153153153153,421.807598 L -470.05405405405406,405.8817738 L -476.79279279279274,404.399178 L -483.5315315315315,389.4595764 L -490.2702702702703,388.2569064 L -497.009009009009,364.1843168 L -503.7477477477478,333.8472524 L -510.48648648648646,317.173482 L -517.2252252252252,315.96948399999997 L -523.9639639639639,314.5650742 ZM 331.85585585585585,305.3875484 L 338.5945945945946,296.2093752 L 345.33333333333337,296.2093752 L 352.07207207207205,296.2093752 L 352.07207207207205,301.4482688 L 352.07207207207205,301.4482688 L 352.07207207207205,301.4482688 L 345.33333333333337,305.3578344 L 338.5945945945946,305.3875484 L 331.85585585585585,305.3875484 ZM 722.7027027027027,179.2344208 L 729.4414414414415,185.6478308 L 736.1801801801802,182.2751424 L 742.918918918919,181.7411536 L 749.6576576576576,177.5879332 L 756.3963963963964,177.9624956 L 763.1351351351351,177.9624956 L 769.8738738738739,179.2176548 L 776.6126126126126,179.2176548 L 783.3513513513514,179.2176548 L 790.0900900900901,179.2176548 L 796.8288288288288,179.2176548 L 803.5675675675676,179.2176548 L 810.3063063063063,179.2176548 L 817.0450450450451,179.2176548 L 823.7837837837837,179.2176548 L 830.5225225225225,179.2176548 L 837.2612612612612,179.2176548 L 844,179.2176548 L 844,203.9711266 L 837.2612612612612,204.312987 L 830.5225225225225,210.5756192 L 823.7837837837837,214.0344948 L 817.0450450450451,203.4536548 L 810.3063063063063,203.4536548 L 803.5675675675676,203.4536548 L 796.8288288288288,203.4536548 L 790.0900900900901,203.9309048 L 783.3513513513514,204.2347014 L 776.6126126126126,203.638114 L 769.8738738738739,199.8715906 L 763.1351351351351,195.7244956 L 756.3963963963964,194.4961122 L 749.6576576576576,194.1215498 L 742.918918918919,188.3696166 L 736.1801801801802,185.946 L 729.4414414414415,185.946 L 722.7027027027027,179.2344208 Z" fill="rgba(239, 68, 68, 0.24)" stroke="none" />
      <path d="M -988.936936936937,288.9614832 L -982.1981981981983,288.9614832 L -975.4594594594594,288.9614832 L -968.7207207207207,288.9614832 L -961.981981981982,299.9174832 L -955.2432432432433,299.9174832 L -948.5045045045044,299.9174832 L -941.7657657657658,314.6487548 L -935.0270270270271,290.526 L -928.2882882882882,290.526 L -921.5495495495495,286.58516 L -914.8108108108108,271.1525384 L -908.072072072072,271.1525384 L -901.3333333333334,250.2365384 L -894.5945945945946,250.2365384 L -887.8558558558559,250.2365384 L -881.1171171171171,250.2365384 L -874.3783783783783,250.2365384 L -867.6396396396397,250.2365384 L -860.9009009009009,258.3457048 L -854.1621621621622,271.9091664 L -847.4234234234234,271.9091664 L -840.6846846846847,271.9091664 L -833.9459459459459,272.4812356 L -827.2072072072073,279.7237824 L -820.4684684684685,285.4658884 L -813.7297297297297,287.2313648 L -806.990990990991,287.2313648 L -800.2522522522522,287.2313648 L -793.5135135135135,287.2313648 L -786.7747747747748,287.616684 L -780.0360360360361,300.4346728 L -773.2972972972973,302.8400128 L -766.5585585585585,302.8400128 L -759.8198198198198,305.3072044 L -753.081081081081,324.3419596 L -746.3423423423424,325.2242164 L -739.6036036036036,325.2242164 L -732.8648648648649,328.2683244 L -726.1261261261261,328.2683244 L -719.3873873873874,334.4539824 L -712.6486486486486,334.4539824 L -705.9099099099099,334.4539824 L -699.1711711711712,335.332554 L -692.4324324324324,338.1413736 L -685.6936936936937,340.5493696 L -678.9549549549549,357.22314 L -672.2162162162163,387.3675448 L -665.4774774774775,405.03114 L -658.7387387387388,405.03114 L -652,419.9707416 L -645.2612612612612,419.9707416 L -638.5225225225225,432.7876348 L -631.7837837837837,432.7876348 L -625.0450450450451,432.7876348 L -618.3063063063063,432.7876348 L -611.5675675675676,441.541346 L -604.8288288288288,441.541346 L -598.0900900900901,441.541346 L -591.3513513513514,440.7814644 L -584.6126126126126,453.82554519999997 L -577.8738738738739,462.1988508 L -571.1351351351351,474.46475680000003 L -564.3963963963964,474.46475680000003 L -557.6576576576576,474.46475680000003 L -550.918918918919,486.401684 L -544.1801801801802,507.6269088 L -537.4414414414415,510.3716192 L -530.7027027027027,514.2608 L -523.9639639639639,505.5319224 L -517.2252252252252,485.1651832 L -510.48648648648646,485.1651832 L -503.7477477477478,479.599668 L -497.009009009009,474.3544 L -490.2702702702703,462.9502 L -483.5315315315315,462.9502 L -476.79279279279274,462.9502 L -470.05405405405406,455.5937772 L -463.3153153153153,454.8658008 L -456.5765765765766,459.5269148 L -449.8378378378378,460.3615296 L -443.09909909909913,463.3601868 L -436.36036036036035,463.3601868 L -429.62162162162167,464.4723868 L -422.8828828828829,474.51044 L -416.1441441441441,476.0265512 L -409.4054054054054,476.0265512 L -402.6666666666667,499.8151148 L -395.92792792792795,509.40300920000004 L -389.18918918918916,509.40300920000004 L -382.45045045045043,509.40300920000004 L -375.7117117117117,509.40300920000004 L -368.97297297297297,536.1359148 L -362.23423423423424,536.1359148 L -355.4954954954955,539.3061164000001 L -348.7567567567568,539.3607304 L -342.01801801801804,538.9510092 L -335.27927927927925,537.5479108 L -328.5405405405405,537.5479108 L -321.8018018018018,521.764 L -315.06306306306305,521.764 L -308.3243243243243,504.6518568 L -301.5855855855856,501.6714264 L -294.84684684684686,471.7674892 L -288.1081081081081,467.7666568 L -281.3693693693694,467.7666568 L -274.6306306306306,455.1858156 L -267.8918918918919,454.0360332 L -261.15315315315314,454.0360332 L -254.4144144144144,454.0360332 L -247.67567567567568,450.795348 L -240.93693693693695,442.2346616 L -234.1981981981982,403.7028412 L -227.45945945945948,402.615342 L -220.72072072072075,396.37839 L -213.98198198198196,396.2247736 L -207.24324324324323,396.2247736 L -200.5045045045045,396.2247736 L -193.76576576576576,396.2247736 L -187.02702702702703,363.9814648 L -180.2882882882883,363.753912 L -173.54954954954957,360.43607 L -166.81081081081084,359.918648 L -160.07207207207205,350.1418788 L -153.33333333333334,350.1418788 L -146.59459459459458,350.1418788 L -139.85585585585585,335.5813216 L -133.11711711711712,328.54 L -126.37837837837839,299.8716008 L -119.63963963963963,299.8152936 L -112.9009009009009,299.8152936 L -106.16216216216216,299.8152936 L -99.42342342342343,289.58600839999997 L -92.6846846846847,281.0388344 L -85.94594594594594,281.0388344 L -79.2072072072072,280.5475408 L -72.46846846846847,280.5475408 L -65.72972972972974,280.5475408 L -58.99099099099098,280.5475408 L -52.25225225225225,270.4531472 L -45.513513513513516,268.9275408 L -38.774774774774784,276.69511239999997 L -32.03603603603602,280.911778 L -25.29729729729729,285.5754816 L -18.55855855855856,286.9589256 L -11.819819819819813,286.9589256 L -5.081081081081081,286.9589256 L 1.6576576576576514,303.4355212 L 8.396396396396398,303.4355212 L 15.13513513513513,318.5161896 L 21.873873873873876,317.99299080000003 L 28.612612612612608,300.3305576 L 35.351351351351354,299.069024 L 42.090090090090094,298.0065576 L 48.828828828828826,298.0065576 L 55.567567567567565,298.0065576 L 62.306306306306304,294.34426559999997 L 69.04504504504504,288.2057184 L 75.78378378378378,288.2057184 L 82.52252252252252,288.2057184 L 89.26126126126127,288.2057184 L 96,288.2057184 L 102.73873873873873,297.2029184 L 109.47747747747748,297.2029184 L 116.21621621621622,310.0390344 L 122.95495495495496,310.0390344 L 129.6936936936937,310.0390344 L 136.43243243243245,309.7332624 L 143.17117117117118,309.7332624 L 149.9099099099099,309.7332624 L 156.64864864864865,309.7332624 L 163.38738738738738,309.7332624 L 170.1261261261261,309.67383440000003 L 176.86486486486487,301.8547032 L 183.6036036036036,284.3994048 L 190.34234234234236,277.4274048 L 197.0810810810811,277.4274048 L 203.81981981981983,277.4274048 L 210.55855855855856,277.4274048 L 217.2972972972973,277.4274048 L 224.03603603603602,275.3026048 L 230.77477477477478,264.8114048 L 237.51351351351352,242.567438 L 244.25225225225225,214.0589632 L 250.99099099099098,214.0589632 L 257.72972972972974,208.555864 L 264.4684684684685,190.2958308 L 271.2072072072072,186.9231424 L 277.94594594594594,186.3891536 L 284.6846846846847,180.7144104 L 291.4234234234234,172.4656048 L 298.1621621621622,150.2052372 L 304.90090090090087,138.925836 L 311.63963963963965,138.925836 L 318.3783783783784,138.925836 L 325.1171171171171,143.241836 L 331.85585585585585,142.122 L 338.5945945945946,149.711852 L 345.33333333333337,149.711852 L 352.07207207207205,158.2459452 L 358.81081081081084,158.2459452 L 365.54954954954957,156.9113052 L 372.2882882882883,156.9113052 L 379.02702702702703,152.4051688 L 385.76576576576576,162.9093168 L 392.5045045045045,166.5613168 L 399.2432432432432,166.6941168 L 405.98198198198196,166.6941168 L 412.72072072072075,166.6941168 L 419.4594594594595,166.6941168 L 426.1981981981982,166.6941168 L 432.93693693693695,166.6941168 L 439.6756756756757,178.6678628 L 446.4144144144144,175.8492492 L 453.15315315315314,163.3368332 L 459.8918918918919,161.2120332 L 466.6306306306306,154.8708 L 473.3693693693694,148.0449132 L 480.1081081081081,143.596744 L 486.84684684684686,134.9001036 L 493.5855855855856,133.5003584 L 500.3243243243243,141.5236364 L 507.06306306306305,150.6212 L 513.8018018018017,153.7513292 L 520.5405405405405,153.7513292 L 527.2792792792793,153.7513292 L 534.018018018018,174.9130092 L 540.7567567567568,184.4717208 L 547.4954954954956,191.6942812 L 554.2342342342342,200.056 L 560.9729729729729,200.056 L 567.7117117117117,204.9032332 L 574.4504504504505,210.6551664 L 581.1891891891892,211.0297288 L 587.927927927928,213.4864956 L 594.6666666666667,220.5255264 L 601.4054054054054,228.0585732 L 608.1441441441441,229.251748 L 614.8828828828829,228.6441548 L 621.6216216216217,227.6896548 L 628.3603603603603,227.6896548 L 635.0990990990991,227.6896548 L 641.8378378378378,227.6896548 L 648.5765765765766,227.6896548 L 655.3153153153153,217.0138628 L 662.0540540540541,204.4885984 L 668.7927927927927,200.5045984" fill="none" stroke="#00a3ff" stroke-width="1" />
      <path d="M -874.3783783783783,271.1525384 L -867.6396396396397,271.1525384 L -860.9009009009009,271.1525384 L -854.1621621621622,271.1525384 L -847.4234234234234,271.1525384 L -840.6846846846847,271.1525384 L -833.9459459459459,271.1525384 L -827.2072072072073,271.1525384 L -820.4684684684685,271.1525384 L -813.7297297297297,271.1525384 L -806.990990990991,271.1525384 L -800.2522522522522,271.1525384 L -793.5135135135135,271.1525384 L -786.7747747747748,263.5165384 L -780.0360360360361,263.5165384 L -773.2972972972973,263.5165384 L -766.5585585585585,263.5165384 L -759.8198198198198,263.5165384 L -753.081081081081,263.5165384 L -746.3423423423424,263.5165384 L -739.6036036036036,277.08 L -732.8648648648649,277.08 L -726.1261261261261,277.08 L -719.3873873873874,283.33972719999997 L -712.6486486486486,290.582274 L -705.9099099099099,291.1535464 L -699.1711711711712,293.7975944 L -692.4324324324324,293.7975944 L -685.6936936936937,293.7975944 L -678.9549549549549,310.4713648 L -672.2162162162163,341.0010888 L -665.4774774774775,371.4826728 L -658.7387387387388,373.8880128 L -652,388.8276144 L -645.2612612612612,391.792806 L -638.5225225225225,410.8275612 L -631.7837837837837,411.709818 L -625.0450450450451,411.709818 L -618.3063063063063,414.753926 L -611.5675675675676,414.753926 L -604.8288288288288,414.753926 L -598.0900900900901,414.753926 L -591.3513513513514,414.753926 L -584.6126126126126,427.0381252 L -577.8738738738739,435.7232452 L -571.1351351351351,438.1312412 L -564.3963963963964,438.1312412 L -557.6576576576576,438.1312412 L -550.918918918919,438.1312412 L -544.1801801801802,438.1312412 L -537.4414414414415,438.1312412 L -530.7027027027027,438.1312412 L -523.9639639639639,450.9481344 L -517.2252252252252,450.9481344 L -510.48648648648646,450.9481344 L -503.7477477477478,450.9481344 L -497.009009009009,459.7018456 L -490.2702702702703,459.7018456 L -483.5315315315315,459.7018456 L -476.79279279279274,459.7018456 L -470.05405405405406,459.7018456 L -463.3153153153153,462.1988508 L -456.5765765765766,474.46475680000003 L -449.8378378378378,474.46475680000003 L -443.09909909909913,474.46475680000003 L -436.36036036036035,486.401684 L -429.62162162162167,492.6639012 L -422.8828828828829,492.6639012 L -416.1441441441441,492.6639012 L -409.4054054054054,492.6639012 L -402.6666666666667,497.7069148 L -395.92792792792795,507.29480920000003 L -389.18918918918916,507.29480920000003 L -382.45045045045043,507.29480920000003 L -375.7117117117117,507.29480920000003 L -368.97297297297297,507.29480920000003 L -362.23423423423424,507.29480920000003 L -355.4954954954955,507.29480920000003 L -348.7567567567568,507.29480920000003 L -342.01801801801804,507.29480920000003 L -335.27927927927925,507.29480920000003 L -328.5405405405405,507.29480920000003 L -321.8018018018018,507.29480920000003 L -315.06306306306305,508.4070092 L -308.3243243243243,508.4070092 L -301.5855855855856,509.40300920000004 L -294.84684684684686,506.0666416 L -288.1081081081081,502.0658092 L -281.3693693693694,502.0658092 L -274.6306306306306,492.13900920000003 L -267.8918918918919,492.13900920000003 L -261.15315315315314,492.13900920000003 L -254.4144144144144,492.13900920000003 L -247.67567567567568,492.13900920000003 L -240.93693693693695,492.13900920000003 L -234.1981981981982,479.3218504 L -227.45945945945948,478.8983512 L -220.72072072072075,477.4952528 L -213.98198198198196,477.4952528 L -207.24324324324323,461.711342 L -200.5045045045045,461.711342 L -193.76576576576576,444.5991988 L -187.02702702702703,412.35589 L -180.2882882882883,412.35589 L -173.54954954954957,409.038048 L -166.81081081081084,408.520626 L -160.07207207207205,396.0898156 L -153.33333333333334,394.9400332 L -146.59459459459458,394.9400332 L -139.85585585585585,394.9400332 L -133.11711711711712,391.699348 L -126.37837837837839,383.1386616 L -119.63963963963963,357.424 L -112.9009009009009,356.76 L -106.16216216216216,350.523048 L -99.42342342342343,340.1401464 L -92.6846846846847,331.5929724 L -85.94594594594594,331.5929724 L -79.2072072072072,331.5929724 L -72.46846846846847,331.5929724 L -65.72972972972974,331.3654196 L -58.99099099099098,331.3654196 L -52.25225225225225,331.3654196 L -45.513513513513516,331.3654196 L -38.774774774774784,331.3654196 L -32.03603603603602,331.3654196 L -25.29729729729729,316.8048624 L -18.55855855855856,309.7635408 L -11.819819819819813,281.09514160000003 L -5.081081081081081,281.0388344 L 1.6576576576576514,293.1740984 L 8.396396396396398,293.1740984 L 15.13513513513513,293.1740984 L 21.873873873873876,293.1740984 L 28.612612612612608,293.1740984 L 35.351351351351354,293.1740984 L 42.090090090090094,293.1740984 L 48.828828828828826,293.1740984 L 55.567567567567565,293.1740984 L 62.306306306306304,293.1740984 L 69.04504504504504,293.1740984 L 75.78378378378378,293.1740984 L 82.52252252252252,295.0062072 L 89.26126126126127,298.0065576 L 96,298.0065576 L 102.73873873873873,298.0065576 L 109.47747747747748,298.0065576 L 116.21621621621622,301.04183439999997 L 122.95495495495496,301.04183439999997 L 129.6936936936937,301.04183439999997 L 136.43243243243245,301.04183439999997 L 143.17117117117118,301.04183439999997 L 149.9099099099099,301.04183439999997 L 156.64864864864865,301.04183439999997 L 163.38738738738738,301.04183439999997 L 170.1261261261261,301.04183439999997 L 176.86486486486487,301.04183439999997 L 183.6036036036036,301.04183439999997 L 190.34234234234236,301.04183439999997 L 197.0810810810811,301.04183439999997 L 203.81981981981983,301.04183439999997 L 210.55855855855856,301.04183439999997 L 217.2972972972973,302.7018344 L 224.03603603603602,300.5770344 L 230.77477477477478,290.0858344 L 237.51351351351352,267.8418676 L 244.25225225225225,252.716678 L 250.99099099099098,252.716678 L 257.72972972972974,249.5818676 L 264.4684684684685,231.3218344 L 271.2072072072072,231.3218344 L 277.94594594594594,231.3218344 L 284.6846846846847,231.3218344 L 291.4234234234234,223.5027032 L 298.1621621621622,206.0474048 L 304.90090090090087,206.0474048 L 311.63963963963965,206.0474048 L 318.3783783783784,206.0474048 L 325.1171171171171,206.0474048 L 331.85585585585585,206.0474048 L 338.5945945945946,206.0474048 L 345.33333333333337,206.0474048 L 352.07207207207205,206.0474048 L 358.81081081081084,192.6641196 L 365.54954954954957,192.6641196 L 372.2882882882883,190.2958308 L 379.02702702702703,190.2958308 L 385.76576576576576,186.9231424 L 392.5045045045045,186.3891536 L 399.2432432432432,180.7144104 L 405.98198198198196,172.4656048 L 412.72072072072075,159.6848 L 419.4594594594595,159.6848 L 426.1981981981982,159.6848 L 432.93693693693695,159.6848 L 439.6756756756757,164.0008 L 446.4144144144144,164.0008 L 453.15315315315314,163.3368332 L 459.8918918918919,163.3368332 L 466.6306306306306,156.9956 L 473.3693693693694,155.0368 L 480.1081081081081,155.0368 L 486.84684684684686,155.0368 L 493.5855855855856,155.0368 L 500.3243243243243,155.0368 L 507.06306306306305,155.0368 L 513.8018018018017,155.0368 L 520.5405405405405,155.0368 L 527.2792792792793,155.0368 L 534.018018018018,155.0368 L 540.7567567567568,159.552 L 547.4954954954956,166.7745604 L 554.2342342342342,171.836 L 560.9729729729729,171.836 L 567.7117117117117,171.836 L 574.4504504504505,177.5879332 L 581.1891891891892,177.9624956 L 587.927927927928,177.9624956 L 594.6666666666667,179.2176548 L 601.4054054054054,179.2176548 L 608.1441441441441,179.2176548 L 614.8828828828829,179.2176548 L 621.6216216216217,179.2176548 L 628.3603603603603,179.2176548 L 635.0990990990991,179.2176548 L 641.8378378378378,179.2176548 L 648.5765765765766,200.3793348 L 655.3153153153153,204.1373756 L 662.0540540540541,204.1373756 L 668.7927927927927,207.4376548" fill="none" stroke="#ff4d4d" stroke-width="1" />
      <path d="M -1218.054054054054,319.6638472 L -1211.3153153153153,295.7358768 L -1204.5765765765766,285.5128664 L -1197.837837837838,284.5699864 L -1191.099099099099,282.3741384 L -1184.3603603603603,239.02284 L -1177.6216216216217,287.7105072 L -1170.882882882883,307.6241328 L -1164.144144144144,335.8434024 L -1157.4054054054054,313.6001992 L -1150.6666666666667,318.788828 L -1143.9279279279278,317.0628264 L -1137.1891891891892,321.1572496 L -1130.4504504504505,294.87646159999997 L -1123.7117117117118,267.1200664 L -1116.972972972973,276.47064720000003 L -1110.2342342342342,229.01968 L -1103.4954954954956,223.9615272 L -1096.7567567567567,253.643788 L -1090.018018018018,251.5745648 L -1083.2792792792793,212.9816232 L -1076.5405405405406,229.9548576 L -1069.8018018018017,229.2652272 L -1063.063063063063,221.8678688 L -1056.3243243243244,223.1510488 L -1049.5855855855855,244.7400128 L -1042.8468468468468,255.41773039999998 L -1036.1081081081081,259.081284 L -1029.3693693693695,237.7910536 L -1022.6306306306305,235.9965936 L -1015.8918918918919,250.4188728 L -1009.1531531531532,269.8578712 L -1002.4144144144145,298.2588776 L -995.6756756756756,261.227 L -988.936936936937,304.8132216 L -982.1981981981983,327.3440032 L -975.4594594594594,336.5025552 L -968.7207207207207,334.7602192 L -961.981981981982,337.4247848 L -955.2432432432433,334.2505992 L -948.5045045045044,325.0919144 L -941.7657657657658,335.2141296 L -935.0270270270271,306.9599336 L -928.2882882882882,326.0159368 L -921.5495495495495,322.26373920000003 L -914.8108108108108,319.7173656 L -908.072072072072,335.1283408 L -901.3333333333334,343.6665176 L -894.5945945945946,343.9448 L -887.8558558558559,337.5529368 L -881.1171171171171,331.528 L -874.3783783783783,351.4705096 L -867.6396396396397,350.0657512 L -860.9009009009009,354.0986216 L -854.1621621621622,398.4527592 L -847.4234234234234,430.2881064 L -840.6846846846847,478.272 L -833.9459459459459,464.0872336 L -827.2072072072073,467.9551 L -820.4684684684685,447.6630608 L -813.7297297297297,363.8972696 L -806.990990990991,451.6987864 L -800.2522522522522,440.02626399999997 L -793.5135135135135,411.507464 L -786.7747747747748,422.338964 L -780.0360360360361,454.8992 L -773.2972972972973,461.6603136 L -766.5585585585585,517.448 L -759.8198198198198,541.1907808 L -753.081081081081,492.481268 L -746.3423423423424,483.584 L -739.6036036036036,510.14393359999997 L -732.8648648648649,478.2719336 L -726.1261261261261,474.506124 L -719.3873873873874,492.3488 L -712.6486486486486,474.2623696 L -705.9099099099099,486.6021456 L -699.1711711711712,450.9980008 L -692.4324324324324,476.9145184 L -685.6936936936937,475.0427024 L -678.9549549549549,477.8059384 L -672.2162162162163,454.4677328 L -665.4774774774775,433.1200664 L -658.7387387387388,438.3494648 L -652,439.66783680000003 L -645.2612612612612,434.330804 L -638.5225225225225,468.15622559999997 L -631.7837837837837,485.74233200000003 L -625.0450450450451,490.3550072 L -618.3063063063063,486.4550696 L -611.5675675675676,461.5141008 L -604.8288288288288,497.41558480000003 L -598.0900900900901,501.0235616 L -591.3513513513514,491.7559808 L -584.6126126126126,494.5188848 L -577.8738738738739,552.9745896 L -571.1351351351351,531.6615176 L -564.3963963963964,570.5017328 L -557.6576576576576,500.9944784 L -550.918918918919,549.0991536 L -544.1801801801802,513.62502 L -537.4414414414415,496.1520592 L -530.7027027027027,509.6305952 L -523.9639639639639,503.5909176 L -517.2252252252252,512.1063192 L -510.48648648648646,516.3705272 L -503.7477477477478,505.39972 L -497.009009009009,509.4961352 L -490.2702702702703,504.236392 L -483.5315315315315,507.66562 L -476.79279279279274,488.5881032 L -470.05405405405406,424.7075848 L -463.3153153153153,417.1027928 L -456.5765765765766,416.9184664 L -449.8378378378378,403.9805592 L -443.09909909909913,404.7849952 L -436.36036036036035,413.282336 L -429.62162162162167,409.6972672 L -422.8828828828829,415.5239336 L -416.1441441441441,412.58082 L -409.4054054054054,376.0599568 L -402.6666666666667,374.7672152 L -395.92792792792795,383.5602352 L -389.18918918918916,401.58 L -382.45045045045043,403.6601792 L -375.7117117117117,387.8185336 L -368.97297297297297,380.6720344 L -362.23423423423424,309.386256 L -355.4954954954955,316.6816904 L -348.7567567567568,298.3280664 L -342.01801801801804,300.7108968 L -335.27927927927925,295.488404 L -328.5405405405405,288.35817280000003 L -321.8018018018018,300.0211336 L -315.06306306306305,303.6272512 L -308.3243243243243,305.4196528 L -301.5855855855856,308.8151496 L -294.84684684684686,281.242616 L -288.1081081081081,292.9387768 L -281.3693693693694,285.264796 L -274.6306306306306,263.268136 L -267.8918918918919,242.0929768 L -261.15315315315314,292.3519336 L -254.4144144144144,285.8588768 L -247.67567567567568,273.626536 L -240.93693693693695,271.0665504 L -234.1981981981982,265.6881504 L -227.45945945945948,264.838164 L -220.72072072072075,298.981376 L -213.98198198198196,312.9378592 L -207.24324324324323,305.5743648 L -200.5045045045045,298.298452 L -193.76576576576576,306.2856416 L -187.02702702702703,301.2750312 L -180.2882882882883,313.9763552 L -173.54954954954957,337.8949632 L -166.81081081081084,306.48563839999997 L -160.07207207207205,294.676 L -153.33333333333334,295.5392 L -146.59459459459458,254.25758960000002 L -139.85585585585585,250.4391248 L -133.11711711711712,267.0478232 L -126.37837837837839,300.984 L -119.63963963963963,292.4848 L -112.9009009009009,298.5362968 L -106.16216216216216,294.9391432 L -99.42342342342343,284.1336056 L -92.6846846846847,296.911688 L -85.94594594594594,298.7281928 L -79.2072072072072,298.46744 L -72.46846846846847,304.253868 L -65.72972972972974,315.41862960000003 L -58.99099099099098,326.6566304 L -52.25225225225225,289.0393704 L -45.513513513513516,288.6573048 L -38.774774774774784,277.7439336 L -32.03603603603602,280.4664 L -25.29729729729729,279.94728480000003 L -18.55855855855856,277.6605352 L -11.819819819819813,269.6460552 L -5.081081081081081,284.7808728 L 1.6576576576576514,300.8318776 L 8.396396396396398,276.033536 L 15.13513513513513,259.224044 L 21.873873873873876,269.79758 L 28.612612612612608,269.5245432 L 35.351351351351354,260.4717664 L 42.090090090090094,259.309368 L 48.828828828828826,248.527668 L 55.567567567567565,232.592 L 62.306306306306304,187.4400664 L 69.04504504504504,163.3708632 L 75.78378378378378,162.4113168 L 82.52252252252252,147.2564464 L 89.26126126126127,132.886756 L 96,145.362984 L 102.73873873873873,143.7914952 L 109.47747747747748,135.5950792 L 116.21621621621622,145.1608624 L 122.95495495495496,143.5312072 L 129.6936936936937,151.9589608 L 136.43243243243245,158.4104512 L 143.17117117117118,140.0388992 L 149.9099099099099,153.576 L 156.64864864864865,154.174264 L 163.38738738738738,155.8281552 L 170.1261261261261,152.1556376 L 176.86486486486487,138.6480848 L 183.6036036036036,143.2320752 L 190.34234234234236,144.3010488 L 197.0810810810811,140.4254136 L 203.81981981981983,148.0816656 L 210.55855855855856,198.4714968 L 217.2972972972973,206.5720312 L 224.03603603603602,189.2896384 L 230.77477477477478,184.784 L 237.51351351351352,189.6615448 L 244.25225225225225,184.251804 L 250.99099099099098,163.5620288 L 257.72972972972974,165.6216904 L 264.4684684684685,166.5992976 L 271.2072072072072,140.296 L 277.94594594594594,141.292 L 284.6846846846847,130.3359336 L 291.4234234234234,105.47066080000002 L 298.1621621621622,145.6022232 L 304.90090090090087,159.1253136 L 311.63963963963965,159.3565848 L 318.3783783783784,157.8919336 L 325.1171171171171,166.447308 L 331.85585585585585,200.89264 L 338.5945945945946,189.1044488 L 345.33333333333337,199.665236 L 352.07207207207205,169.9768664 L 358.81081081081084,183.2417936 L 365.54954954954957,198.3782048 L 372.2882882882883,225.158852 L 379.02702702702703,214.131804 L 385.76576576576576,220.3429264 L 392.5045045045045,209.6840664 L 399.2432432432432,247.2 L 405.98198198198196,244.9597968 L 412.72072072072075,250.873248 L 419.4594594594595,240.8065432 L 426.1981981981982,212.5278456 L 432.93693693693695,211.3469216 L 439.6756756756757,216.6826264 L 446.4144144144144,225.0739264 L 453.15315315315314,228.7549432 L 459.8918918918919,213.849604 L 466.6306306306306,212.008 L 473.3693693693694,216.2690872 L 480.1081081081081,193.2897736 L 486.84684684684686,178.898636 L 493.5855855855856,176.8523208" fill="none" stroke="#16a34a" stroke-width="1" stroke-dasharray="2 2"/>
      <path d="M -699.1711711711712,260.6945384 L -692.4324324324324,260.6945384 L -685.6936936936937,264.74912159999997 L -678.9549549549549,271.5308524 L -672.2162162162163,271.5308524 L -665.4774774774775,271.5308524 L -658.7387387387388,271.816887 L -652,275.4381604 L -645.2612612612612,278.3092134 L -638.5225225225225,279.1919516 L -631.7837837837837,279.1919516 L -625.0450450450451,279.1919516 L -618.3063063063063,279.1919516 L -611.5675675675676,275.5666112 L -604.8288288288288,281.9756056 L -598.0900900900901,283.1782756 L -591.3513513513514,283.1782756 L -584.6126126126126,284.4118714 L -577.8738738738739,293.929249 L -571.1351351351351,294.3703774 L -564.3963963963964,301.1521082 L -557.6576576576576,302.6741622 L -550.918918918919,302.6741622 L -544.1801801801802,308.8968548 L -537.4414414414415,312.5181282 L -530.7027027027027,312.8037644 L -523.9639639639639,314.5650742 L -517.2252252252252,315.96948399999997 L -510.48648648648646,317.173482 L -503.7477477477478,333.8472524 L -497.009009009009,364.1843168 L -490.2702702702703,388.2569064 L -483.5315315315315,389.4595764 L -476.79279279279274,404.399178 L -470.05405405405406,405.8817738 L -463.3153153153153,421.807598 L -456.5765765765766,422.2487264 L -449.8378378378378,422.2487264 L -443.09909909909913,423.7707804 L -436.36036036036035,428.147636 L -429.62162162162167,428.147636 L -422.8828828828829,428.147636 L -416.1441441441441,427.7676952 L -409.4054054054054,440.4318352 L -402.6666666666667,448.961048 L -395.92792792792795,456.297999 L -389.18918918918916,456.297999 L -382.45045045045043,456.297999 L -375.7117117117117,462.2664626 L -368.97297297297297,472.879075 L -362.23423423423424,474.2514302 L -355.4954954954955,476.1960206 L -348.7567567567568,478.2400284 L -342.01801801801804,468.0566588 L -335.27927927927925,468.0566588 L -328.5405405405405,465.2739012 L -321.8018018018018,467.0281228 L -315.06306306306305,461.32602280000003 L -308.3243243243243,461.32602280000003 L -301.5855855855856,461.32602280000003 L -294.84684684684686,457.6478114 L -288.1081081081081,458.53232579999997 L -281.3693693693694,466.9958358 L -274.6306306306306,467.4131432 L -267.8918918918919,468.9124718 L -261.15315315315314,474.8809354 L -254.4144144144144,478.568144 L -247.67567567567568,483.5871706 L -240.93693693693695,484.3452262 L -234.1981981981982,484.3452262 L -227.45945945945948,498.7610148 L -220.72072072072075,508.3489092 L -213.98198198198196,508.3489092 L -207.24324324324323,508.3489092 L -200.5045045045045,508.3489092 L -193.76576576576576,521.715362 L -187.02702702702703,521.715362 L -180.2882882882883,523.3004628 L -173.54954954954957,523.3277697999999 L -166.81081081081084,523.1229092 L -160.07207207207205,522.42136 L -153.33333333333334,522.42136 L -146.59459459459458,514.5294046 L -139.85585585585585,515.0855046 L -133.11711711711712,506.529433 L -126.37837837837839,505.5372178 L -119.63963963963963,488.9170654 L -112.9009009009009,484.91623300000003 L -106.16216216216216,484.91623300000003 L -99.42342342342343,473.6624124 L -92.6846846846847,473.08752119999997 L -85.94594594594594,473.08752119999997 L -79.2072072072072,473.08752119999997 L -72.46846846846847,471.4671786 L -65.72972972972974,467.1868354 L -58.99099099099098,441.5123458 L -52.25225225225225,440.7568466 L -45.513513513513516,436.9368214 L -38.774774774774784,436.8600132 L -32.03603603603602,428.9680578 L -25.29729729729729,428.9680578 L -18.55855855855856,420.4119862 L -11.819819819819813,388.1686774 L -5.081081081081081,388.054901 L 1.6576576576576514,384.737059 L 8.396396396396398,384.219637 L 15.13513513513513,373.1158472 L 21.873873873873876,372.540956 L 28.612612612612608,372.540956 L 35.351351351351354,365.2606774 L 42.090090090090094,360.119674 L 48.828828828828826,341.5051312 L 55.567567567567565,328.6196468 L 62.306306306306304,328.2876468 L 69.04504504504504,325.1691708 L 75.78378378378378,314.8630774 L 82.52252252252252,306.3159034 L 89.26126126126127,306.3159034 L 96,306.0702566 L 102.73873873873873,306.0702566 L 109.47747747747748,305.9564802 L 116.21621621621622,305.9564802 L 122.95495495495496,300.9092834 L 129.6936936936937,300.1464802 L 136.43243243243245,304.030266 L 143.17117117117118,306.1385988 L 149.9099099099099,301.190172 L 156.64864864864865,298.3612332 L 163.38738738738738,284.0270336 L 170.1261261261261,283.99888 L 176.86486486486487,298.3048098 L 183.6036036036036,298.3048098 L 190.34234234234236,305.845144 L 197.0810810810811,305.5835446 L 203.81981981981983,296.75232800000003 L 210.55855855855856,296.1215612 L 217.2972972972973,295.590328 L 224.03603603603602,295.590328 L 230.77477477477478,295.590328 L 237.51351351351352,293.759182 L 244.25225225225225,290.6899084 L 250.99099099099098,290.6899084 L 257.72972972972974,291.6059628 L 264.4684684684685,293.106138 L 271.2072072072072,293.106138 L 277.94594594594594,297.604738 L 284.6846846846847,297.604738 L 291.4234234234234,305.5404344 L 298.1621621621622,305.5404344 L 304.90090090090087,305.5404344 L 311.63963963963965,305.3875484 L 318.3783783783784,305.3875484 L 325.1171171171171,305.3875484 L 331.85585585585585,305.3875484 L 338.5945945945946,305.3875484 L 345.33333333333337,305.3578344 L 352.07207207207205,301.4482688 L 358.81081081081084,292.7206196 L 365.54954954954957,289.2346196 L 372.2882882882883,289.2346196 L 379.02702702702703,289.2346196 L 385.76576576576576,289.2346196 L 392.5045045045045,290.0646196 L 399.2432432432432,287.9398196 L 405.98198198198196,277.44861960000003 L 412.72072072072075,255.20465280000002 L 419.4594594594595,233.3878206 L 426.1981981981982,233.3878206 L 432.93693693693695,229.0688658 L 439.6756756756757,210.8088326 L 446.4144144144144,209.1224884 L 453.15315315315314,208.855494 L 459.8918918918919,206.0181224 L 466.6306306306306,197.984154 L 473.3693693693694,178.126321 L 480.1081081081081,172.4866204 L 486.84684684684686,172.4866204 L 493.5855855855856,172.4866204 L 500.3243243243243,174.6446204 L 507.06306306306305,174.0847024 L 513.8018018018017,177.8796284 L 520.5405405405405,177.8796284 L 527.2792792792793,182.146675 L 534.018018018018,175.4550324 L 540.7567567567568,174.7877124 L 547.4954954954956,173.603568 L 554.2342342342342,171.3504998 L 560.9729729729729,174.9162296 L 567.7117117117117,176.4752352 L 574.4504504504505,173.7042636 L 581.1891891891892,169.5798608 L 587.927927927928,163.1894584 L 594.6666666666667,163.1894584 L 601.4054054054054,163.1894584 L 608.1441441441441,163.1894584 L 614.8828828828829,171.3343314 L 621.6216216216217,169.9250246 L 628.3603603603603,163.3368332 L 635.0990990990991,162.2744332 L 641.8378378378378,155.9332 L 648.5765765765766,151.5408566 L 655.3153153153153,149.316772 L 662.0540540540541,144.9684518 L 668.7927927927927,144.2685792 L 675.5315315315315,148.2802182 L 682.2702702702703,152.829 L 689.009009009009,154.3940646 L 695.7477477477478,154.3940646 L 702.4864864864865,154.3940646 L 709.2252252252252,164.9749046 L 715.9639639639639,172.0118604 L 722.7027027027027,179.2344208 L 729.4414414414415,185.946 L 736.1801801801802,185.946 L 742.918918918919,188.3696166 L 749.6576576576576,194.1215498 L 756.3963963963964,194.4961122 L 763.1351351351351,195.7244956 L 769.8738738738739,199.8715906 L 776.6126126126126,203.638114 L 783.3513513513514,204.2347014 L 790.0900900900901,203.9309048 L 796.8288288288288,203.4536548 L 803.5675675675676,203.4536548 L 810.3063063063063,203.4536548 L 817.0450450450451,203.4536548 L 823.7837837837837,214.0344948 L 830.5225225225225,210.5756192 L 837.2612612612612,204.312987 L 844,203.9711266" fill="none" stroke="#16a34a" stroke-width="1" />
      <path d="M -523.9639639639639,271.1525384 L -517.2252252252252,271.1525384 L -510.48648648648646,271.1525384 L -503.7477477477478,286.7565384 L -497.009009009009,316.90094320000003 L -490.2702702702703,334.5645384 L -483.5315315315315,334.5645384 L -476.79279279279274,349.50414 L -470.05405405405406,349.50414 L -463.3153153153153,349.50414 L -456.5765765765766,349.50414 L -449.8378378378378,349.50414 L -443.09909909909913,349.50414 L -436.36036036036035,349.50414 L -429.62162162162167,349.50414 L -422.8828828828829,349.50414 L -416.1441441441441,349.50414 L -409.4054054054054,361.7883392 L -402.6666666666667,367.6646396 L -395.92792792792795,367.6646396 L -389.18918918918916,381.2281012 L -382.45045045045043,381.2281012 L -375.7117117117117,381.2281012 L -368.97297297297297,381.8001704 L -362.23423423423424,389.0427172 L -355.4954954954955,389.6139896 L -348.7567567567568,391.379466 L -342.01801801801804,391.379466 L -335.27927927927925,391.379466 L -328.5405405405405,391.379466 L -321.8018018018018,391.7647852 L -315.06306306306305,404.582774 L -308.3243243243243,406.988114 L -301.5855855855856,406.988114 L -294.84684684684686,409.9533056 L -288.1081081081081,428.98806079999997 L -281.3693693693694,429.8703176 L -274.6306306306306,429.8703176 L -267.8918918918919,432.9144256 L -261.15315315315314,432.9144256 L -254.4144144144144,432.9144256 L -247.67567567567568,432.9144256 L -240.93693693693695,432.9144256 L -234.1981981981982,432.9144256 L -227.45945945945948,440.7662588 L -220.72072072072075,452.7621492 L -213.98198198198196,452.7621492 L -207.24324324324323,452.7621492 L -200.5045045045045,452.7621492 L -193.76576576576576,452.7621492 L -187.02702702702703,452.7621492 L -180.2882882882883,452.7621492 L -173.54954954954957,465.5790424 L -166.81081081081084,465.5790424 L -160.07207207207205,465.5790424 L -153.33333333333334,465.5790424 L -146.59459459459458,474.3327536 L -139.85585585585585,474.3327536 L -133.11711711711712,474.3327536 L -126.37837837837839,474.3327536 L -119.63963963963963,474.3327536 L -112.9009009009009,476.8297588 L -106.16216216216216,489.0956648 L -99.42342342342343,489.0956648 L -92.6846846846847,489.0956648 L -85.94594594594594,492.13900920000003 L -79.2072072072072,492.13900920000003 L -72.46846846846847,492.13900920000003 L -65.72972972972974,492.13900920000003 L -58.99099099099098,479.3218504 L -52.25225225225225,478.8983512 L -45.513513513513516,478.8983512 L -38.774774774774784,478.8983512 L -32.03603603603602,478.8983512 L -25.29729729729729,478.8983512 L -18.55855855855856,478.8983512 L -11.819819819819813,446.6550424 L -5.081081081081081,446.6550424 L 1.6576576576576514,443.33720040000003 L 8.396396396396398,442.8197784 L 15.13513513513513,433.04300920000003 L 21.873873873873876,433.04300920000003 L 28.612612612612608,433.04300920000003 L 35.351351351351354,433.04300920000003 L 42.090090090090094,433.04300920000003 L 48.828828828828826,433.04300920000003 L 55.567567567567565,433.04300920000003 L 62.306306306306304,433.04300920000003 L 69.04504504504504,433.04300920000003 L 75.78378378378378,422.813724 L 82.52252252252252,414.26655 L 89.26126126126127,414.26655 L 96,414.26655 L 102.73873873873873,414.26655 L 109.47747747747748,414.26655 L 116.21621621621622,414.26655 L 122.95495495495496,414.26655 L 129.6936936936937,412.8634516 L 136.43243243243245,412.8634516 L 143.17117117117118,397.0795408 L 149.9099099099099,397.0795408 L 156.64864864864865,379.9673976 L 163.38738738738738,379.9673976 L 170.1261261261261,379.9673976 L 176.86486486486487,379.9673976 L 183.6036036036036,379.9673976 L 190.34234234234236,377.3133564 L 197.0810810810811,376.163574 L 203.81981981981983,376.163574 L 210.55855855855856,376.163574 L 217.2972972972973,372.9228888 L 224.03603603603602,364.3622024 L 230.77477477477478,338.6475408 L 237.51351351351352,337.9835408 L 244.25225225225225,331.7465888 L 250.99099099099098,331.5929724 L 257.72972972972974,331.5929724 L 264.4684684684685,331.5929724 L 271.2072072072072,331.5929724 L 277.94594594594594,331.5929724 L 284.6846846846847,331.3654196 L 291.4234234234234,331.3654196 L 298.1621621621622,331.3654196 L 304.90090090090087,331.3654196 L 311.63963963963965,331.3654196 L 318.3783783783784,331.3654196 L 325.1171171171171,316.8048624 L 331.85585585585585,309.7635408 L 338.5945945945946,296.2093752 L 345.33333333333337,296.2093752 L 352.07207207207205,296.2093752 L 358.81081081081084,296.2093752 L 365.54954954954957,296.2093752 L 372.2882882882883,296.2093752 L 379.02702702702703,296.2093752 L 385.76576576576576,296.2093752 L 392.5045045045045,296.2093752 L 399.2432432432432,296.2093752 L 405.98198198198196,290.0858344 L 412.72072072072075,267.8418676 L 419.4594594594595,252.716678 L 426.1981981981982,252.716678 L 432.93693693693695,249.5818676 L 439.6756756756757,231.3218344 L 446.4144144144144,231.3218344 L 453.15315315315314,231.3218344 L 459.8918918918919,231.3218344 L 466.6306306306306,231.3218344 L 473.3693693693694,231.3218344 L 480.1081081081081,231.3218344 L 486.84684684684686,231.3218344 L 493.5855855855856,231.3218344 L 500.3243243243243,231.3218344 L 507.06306306306305,231.3218344 L 513.8018018018017,231.3218344 L 520.5405405405405,231.3218344 L 527.2792792792793,231.3218344 L 534.018018018018,231.3218344 L 540.7567567567568,231.3218344 L 547.4954954954956,231.3218344 L 554.2342342342342,231.3218344 L 560.9729729729729,231.3218344 L 567.7117117117117,231.3218344 L 574.4504504504505,231.3218344 L 581.1891891891892,231.3218344 L 587.927927927928,231.3218344 L 594.6666666666667,231.3218344 L 601.4054054054054,231.3218344 L 608.1441441441441,231.3218344 L 614.8828828828829,231.3218344 L 621.6216216216217,231.3218344 L 628.3603603603603,231.3218344 L 635.0990990990991,231.3218344 L 641.8378378378378,220.8135032 L 648.5765765765766,201.3994048 L 655.3153153153153,201.3994048 L 662.0540540540541,201.3994048 L 668.7927927927927,201.3994048 L 675.5315315315315,201.3994048 L 682.2702702702703,201.3994048 L 689.009009009009,201.3994048 L 695.7477477477478,201.3994048 L 702.4864864864865,201.3994048 L 709.2252252252252,188.0161196 L 715.9639639639639,188.0161196 L 722.7027027027027,185.6478308 L 729.4414414414415,185.6478308 L 736.1801801801802,182.2751424 L 742.918918918919,181.7411536 L 749.6576576576576,177.5879332 L 756.3963963963964,177.9624956 L 763.1351351351351,177.9624956 L 769.8738738738739,179.2176548 L 776.6126126126126,179.2176548 L 783.3513513513514,179.2176548 L 790.0900900900901,179.2176548 L 796.8288288288288,179.2176548 L 803.5675675675676,179.2176548 L 810.3063063063063,179.2176548 L 817.0450450450451,179.2176548 L 823.7837837837837,179.2176548 L 830.5225225225225,179.2176548 L 837.2612612612612,179.2176548 L 844,179.2176548" fill="none" stroke="#ef4444" stroke-width="1" />
    
        
        
  <line x1="96" y1="293.6800664" x2="96" y2="306.96" stroke="#9ca3af" stroke-width="1"/><line x1="102.73873873873873" y1="279.4565224" x2="102.73873873873873" y2="315.125208" stroke="#9ca3af" stroke-width="1"/><line x1="109.47747747747748" y1="297.5194472" x2="109.47747747747748" y2="326.88" stroke="#9ca3af" stroke-width="1"/><line x1="116.21621621621622" y1="304.0863408" x2="116.21621621621622" y2="354.8836688" stroke="#9ca3af" stroke-width="1"/><line x1="122.95495495495496" y1="283.056" x2="122.95495495495496" y2="339.2454064" stroke="#9ca3af" stroke-width="1"/><line x1="129.6936936936937" y1="287.7555928" x2="129.6936936936937" y2="300.0024088" stroke="#9ca3af" stroke-width="1"/><line x1="136.43243243243245" y1="264.582856" x2="136.43243243243245" y2="289.6952696" stroke="#9ca3af" stroke-width="1"/><line x1="143.17117117117118" y1="269.1890904" x2="143.17117117117118" y2="284.3839336" stroke="#9ca3af" stroke-width="1"/><line x1="149.9099099099099" y1="274.053488" x2="149.9099099099099" y2="284.2432984" stroke="#9ca3af" stroke-width="1"/><line x1="156.64864864864865" y1="275.2240536" x2="156.64864864864865" y2="280.736648" stroke="#9ca3af" stroke-width="1"/><line x1="163.38738738738738" y1="267.12" x2="163.38738738738738" y2="278.89338399999997" stroke="#9ca3af" stroke-width="1"/><line x1="170.1261261261261" y1="264.464" x2="170.1261261261261" y2="284.7808728" stroke="#9ca3af" stroke-width="1"/><line x1="176.86486486486487" y1="281.728" x2="176.86486486486487" y2="303.38934" stroke="#9ca3af" stroke-width="1"/><line x1="183.6036036036036" y1="265.03298159999997" x2="183.6036036036036" y2="304.33480959999997" stroke="#9ca3af" stroke-width="1"/><line x1="190.34234234234236" y1="250.52" x2="190.34234234234236" y2="276.0336024" stroke="#9ca3af" stroke-width="1"/><line x1="197.0810810810811" y1="257.7576" x2="197.0810810810811" y2="277.5682392" stroke="#9ca3af" stroke-width="1"/><line x1="203.81981981981983" y1="266.9275728" x2="203.81981981981983" y2="272.0570392" stroke="#9ca3af" stroke-width="1"/><line x1="210.55855855855856" y1="256.8295936" x2="210.55855855855856" y2="272.8316616" stroke="#9ca3af" stroke-width="1"/><line x1="217.2972972972973" y1="254.50400000000002" x2="217.2972972972973" y2="266.0862848" stroke="#9ca3af" stroke-width="1"/><line x1="224.03603603603602" y1="246.2704" x2="224.03603603603602" y2="265.0183072" stroke="#9ca3af" stroke-width="1"/><line x1="230.77477477477478" y1="225.288" x2="230.77477477477478" y2="253.6688208" stroke="#9ca3af" stroke-width="1"/><line x1="237.51351351351352" y1="180.8000664" x2="237.51351351351352" y2="237.1712096" stroke="#9ca3af" stroke-width="1"/><line x1="244.25225225225225" y1="150.5496872" x2="244.25225225225225" y2="192.6504744" stroke="#9ca3af" stroke-width="1"/><line x1="250.99099099099098" y1="156.232" x2="250.99099099099098" y2="165.939348" stroke="#9ca3af" stroke-width="1"/><line x1="257.72972972972974" y1="144.2800664" x2="257.72972972972974" y2="163.2276384" stroke="#9ca3af" stroke-width="1"/><line x1="264.4684684684685" y1="107.75999999999999" x2="264.4684684684685" y2="149.6323712" stroke="#9ca3af" stroke-width="1"/><line x1="271.2072072072072" y1="132.8866896" x2="271.2072072072072" y2="170.091672" stroke="#9ca3af" stroke-width="1"/><line x1="277.94594594594594" y1="129.0845592" x2="277.94594594594594" y2="151.157712" stroke="#9ca3af" stroke-width="1"/><line x1="284.6846846846847" y1="121.57936719999998" x2="284.6846846846847" y2="150.55812" stroke="#9ca3af" stroke-width="1"/><line x1="291.4234234234234" y1="116.392" x2="291.4234234234234" y2="156.896" stroke="#9ca3af" stroke-width="1"/><line x1="298.1621621621622" y1="136.7667072" x2="298.1621621621622" y2="147.6" stroke="#9ca3af" stroke-width="1"/><line x1="304.90090090090087" y1="134.4553232" x2="304.90090090090087" y2="158.888" stroke="#9ca3af" stroke-width="1"/><line x1="311.63963963963965" y1="133.4601864" x2="311.63963963963965" y2="166.0443928" stroke="#9ca3af" stroke-width="1"/><line x1="318.3783783783784" y1="138.6360664" x2="318.3783783783784" y2="167.852" stroke="#9ca3af" stroke-width="1"/><line x1="325.1171171171171" y1="140.0681152" x2="325.1171171171171" y2="166.1857584" stroke="#9ca3af" stroke-width="1"/><line x1="331.85585585585585" y1="144.3940088" x2="331.85585585585585" y2="166.856" stroke="#9ca3af" stroke-width="1"/><line x1="338.5945945945946" y1="152.2480664" x2="338.5945945945946" y2="183.031704" stroke="#9ca3af" stroke-width="1"/><line x1="345.33333333333337" y1="150.0593232" x2="345.33333333333337" y2="160.4776824" stroke="#9ca3af" stroke-width="1"/><line x1="352.07207207207205" y1="135.9462024" x2="352.07207207207205" y2="153.2693648" stroke="#9ca3af" stroke-width="1"/><line x1="358.81081081081084" y1="134.2998808" x2="358.81081081081084" y2="148.1311336" stroke="#9ca3af" stroke-width="1"/><line x1="365.54954954954957" y1="130.7909064" x2="365.54954954954957" y2="152.2479336" stroke="#9ca3af" stroke-width="1"/><line x1="372.2882882882883" y1="134.3781" x2="372.2882882882883" y2="159.594828" stroke="#9ca3af" stroke-width="1"/><line x1="379.02702702702703" y1="121.77863359999998" x2="379.02702702702703" y2="150.92" stroke="#9ca3af" stroke-width="1"/><line x1="385.76576576576576" y1="145.7261256" x2="385.76576576576576" y2="204.04" stroke="#9ca3af" stroke-width="1"/><line x1="392.5045045045045" y1="189.6784104" x2="392.5045045045045" y2="211.344" stroke="#9ca3af" stroke-width="1"/><line x1="399.2432432432432" y1="184.1267728" x2="399.2432432432432" y2="211.6096" stroke="#9ca3af" stroke-width="1"/><line x1="405.98198198198196" y1="177.4903584" x2="405.98198198198196" y2="192.088" stroke="#9ca3af" stroke-width="1"/><line x1="412.72072072072075" y1="179.6461672" x2="412.72072072072075" y2="207.36" stroke="#9ca3af" stroke-width="1"/><line x1="419.4594594594595" y1="177.7456" x2="419.4594594594595" y2="197.6258264" stroke="#9ca3af" stroke-width="1"/><line x1="426.1981981981982" y1="159.8722472" x2="426.1981981981982" y2="188.729488" stroke="#9ca3af" stroke-width="1"/><line x1="432.93693693693695" y1="158.2240664" x2="432.93693693693695" y2="171.3362072" stroke="#9ca3af" stroke-width="1"/><line x1="439.6756756756757" y1="154.675252" x2="439.6756756756757" y2="168.5367168" stroke="#9ca3af" stroke-width="1"/><line x1="446.4144144144144" y1="140.0888984" x2="446.4144144144144" y2="167.52" stroke="#9ca3af" stroke-width="1"/><line x1="453.15315315315314" y1="115.0640664" x2="453.15315315315314" y2="147.5312096" stroke="#9ca3af" stroke-width="1"/><line x1="459.8918918918919" y1="129.008" x2="459.8918918918919" y2="142.5214624" stroke="#9ca3af" stroke-width="1"/><line x1="466.6306306306306" y1="102.38159999999999" x2="466.6306306306306" y2="138.9679336" stroke="#9ca3af" stroke-width="1"/><line x1="473.3693693693694" y1="98.464" x2="473.3693693693694" y2="156.232" stroke="#9ca3af" stroke-width="1"/><line x1="480.1081081081081" y1="140.78736" x2="480.1081081081081" y2="167.0242576" stroke="#9ca3af" stroke-width="1"/><line x1="486.84684684684686" y1="153.355884" x2="486.84684684684686" y2="165.2528384" stroke="#9ca3af" stroke-width="1"/><line x1="493.5855855855856" y1="148.3034416" x2="493.5855855855856" y2="163.7206584" stroke="#9ca3af" stroke-width="1"/><line x1="500.3243243243243" y1="156.0116184" x2="500.3243243243243" y2="184.5832728" stroke="#9ca3af" stroke-width="1"/><line x1="507.06306306306305" y1="154.904" x2="507.06306306306305" y2="202.7784" stroke="#9ca3af" stroke-width="1"/><line x1="513.8018018018017" y1="186.0599424" x2="513.8018018018017" y2="209.0386584" stroke="#9ca3af" stroke-width="1"/><line x1="520.5405405405405" y1="183.4884032" x2="520.5405405405405" y2="204.04" stroke="#9ca3af" stroke-width="1"/><line x1="527.2792792792793" y1="164.5984664" x2="527.2792792792793" y2="205.4438288" stroke="#9ca3af" stroke-width="1"/><line x1="534.018018018018" y1="169.512" x2="534.018018018018" y2="192.088" stroke="#9ca3af" stroke-width="1"/><line x1="540.7567567567568" y1="181.0797432" x2="540.7567567567568" y2="220.64" stroke="#9ca3af" stroke-width="1"/><line x1="547.4954954954956" y1="196.1458368" x2="547.4954954954956" y2="235.0851208" stroke="#9ca3af" stroke-width="1"/><line x1="554.2342342342342" y1="208.7543336" x2="554.2342342342342" y2="245.208" stroke="#9ca3af" stroke-width="1"/><line x1="560.9729729729729" y1="201.9128096" x2="560.9729729729729" y2="223.5608696" stroke="#9ca3af" stroke-width="1"/><line x1="567.7117117117117" y1="198.5321864" x2="567.7117117117117" y2="221.968" stroke="#9ca3af" stroke-width="1"/><line x1="574.4504504504505" y1="207.5131184" x2="574.4504504504505" y2="256.7118664" stroke="#9ca3af" stroke-width="1"/><line x1="581.1891891891892" y1="243.6397648" x2="581.1891891891892" y2="257.46099119999997" stroke="#9ca3af" stroke-width="1"/><line x1="587.927927927928" y1="238.2118304" x2="587.927927927928" y2="252.1610096" stroke="#9ca3af" stroke-width="1"/><line x1="594.6666666666667" y1="234.4047864" x2="594.6666666666667" y2="259.9713096" stroke="#9ca3af" stroke-width="1"/><line x1="601.4054054054054" y1="211.6153104" x2="601.4054054054054" y2="242.6037256" stroke="#9ca3af" stroke-width="1"/><line x1="608.1441441441441" y1="202.7120664" x2="608.1441441441441" y2="219.0315928" stroke="#9ca3af" stroke-width="1"/><line x1="614.8828828828829" y1="197.317" x2="614.8828828828829" y2="227.5455336" stroke="#9ca3af" stroke-width="1"/><line x1="621.6216216216217" y1="195.408" x2="621.6216216216217" y2="230.1691968" stroke="#9ca3af" stroke-width="1"/><line x1="628.3603603603603" y1="218.648" x2="628.3603603603603" y2="229.936" stroke="#9ca3af" stroke-width="1"/><line x1="635.0990990990991" y1="209.3438328" x2="635.0990990990991" y2="228.7550096" stroke="#9ca3af" stroke-width="1"/><line x1="641.8378378378378" y1="202.41154" x2="641.8378378378378" y2="219.6750088" stroke="#9ca3af" stroke-width="1"/><line x1="648.5765765765766" y1="202.3978616" x2="648.5765765765766" y2="224.2167688" stroke="#9ca3af" stroke-width="1"/><line x1="655.3153153153153" y1="191.424" x2="655.3153153153153" y2="222.056644" stroke="#9ca3af" stroke-width="1"/><line x1="662.0540540540541" y1="178.808" x2="662.0540540540541" y2="196.7434368" stroke="#9ca3af" stroke-width="1"/><line x1="668.7927927927927" y1="170.84" x2="668.7927927927927" y2="180.7942232" stroke="#9ca3af" stroke-width="1"/>
  <rect x="93.3906976744186" y="298.46744" width="5.21860465116279" height="1" fill="#16a34a"/><rect x="100.12943641315734" y="298.46744" width="5.21860465116279" height="5.786428000000001" fill="#ef4444"/><rect x="106.86817515189608" y="304.2538016" width="5.21860465116279" height="11.164828000000057" fill="#ef4444"/><rect x="113.60691389063483" y="315.418696" width="5.21860465116279" height="11.237934399999972" fill="#ef4444"/><rect x="120.34565262937356" y="289.0393704" width="5.21860465116279" height="37.61725999999999" fill="#16a34a"/><rect x="127.08439136811229" y="288.6573048" width="5.21860465116279" height="1" fill="#16a34a"/><rect x="133.82313010685107" y="277.7439336" width="5.21860465116279" height="10.690466399999991" fill="#16a34a"/><rect x="140.5618688455898" y="277.7439336" width="5.21860465116279" height="2.7224664000000303" fill="#ef4444"/><rect x="147.30060758432853" y="279.94728480000003" width="5.21860465116279" height="1" fill="#16a34a"/><rect x="154.03934632306726" y="277.6605352" width="5.21860465116279" height="2.2867496000000074" fill="#16a34a"/><rect x="160.778085061806" y="269.6460552" width="5.21860465116279" height="8.014480000000049" fill="#16a34a"/><rect x="167.51682380054473" y="269.6460552" width="5.21860465116279" height="15.13481760000002" fill="#ef4444"/><rect x="174.2555625392835" y="284.7331976" width="5.21860465116279" height="16.09868" fill="#ef4444"/><rect x="180.99430127802222" y="276.033536" width="5.21860465116279" height="24.798341599999958" fill="#16a34a"/><rect x="187.73304001676098" y="259.224044" width="5.21860465116279" height="16.809492000000034" fill="#16a34a"/><rect x="194.4717787554997" y="259.224044" width="5.21860465116279" height="10.57353599999999" fill="#ef4444"/><rect x="201.21051749423845" y="269.5245432" width="5.21860465116279" height="1" fill="#16a34a"/><rect x="207.94925623297718" y="260.4717664" width="5.21860465116279" height="9.053042400000038" fill="#16a34a"/><rect x="214.6879949717159" y="259.309368" width="5.21860465116279" height="1.170565599999975" fill="#16a34a"/><rect x="221.42673371045464" y="248.527668" width="5.21860465116279" height="10.78176639999998" fill="#16a34a"/><rect x="228.1654724491934" y="232.592" width="5.21860465116279" height="15.935667999999993" fill="#16a34a"/><rect x="234.90421118793213" y="187.4400664" width="5.21860465116279" height="45.15193360000001" fill="#16a34a"/><rect x="241.64294992667087" y="163.3708632" width="5.21860465116279" height="24.069136799999995" fill="#16a34a"/><rect x="248.3816886654096" y="162.4113168" width="5.21860465116279" height="1" fill="#16a34a"/><rect x="255.12042740414836" y="147.2564464" width="5.21860465116279" height="15.154804000000013" fill="#16a34a"/><rect x="261.8591661428871" y="132.886756" width="5.21860465116279" height="14.369624000000016" fill="#16a34a"/><rect x="268.5979048816258" y="132.8866896" width="5.21860465116279" height="12.4762944" fill="#ef4444"/><rect x="275.33664362036455" y="143.7914952" width="5.21860465116279" height="1.5714223999999888" fill="#16a34a"/><rect x="282.07538235910334" y="135.5950792" width="5.21860465116279" height="8.196416000000028" fill="#16a34a"/><rect x="288.814121097842" y="135.5951456" width="5.21860465116279" height="9.565716800000018" fill="#ef4444"/><rect x="295.5528598365808" y="143.5312072" width="5.21860465116279" height="1.6295887999999934" fill="#16a34a"/><rect x="302.2915985753195" y="143.5312072" width="5.21860465116279" height="8.427753599999988" fill="#ef4444"/><rect x="309.0303373140583" y="151.9589608" width="5.21860465116279" height="6.4514904000000115" fill="#ef4444"/><rect x="315.769076052797" y="140.0388992" width="5.21860465116279" height="18.37155200000001" fill="#16a34a"/><rect x="322.50781479153574" y="140.0681152" width="5.21860465116279" height="13.5078848" fill="#ef4444"/><rect x="329.24655353027447" y="153.538816" width="5.21860465116279" height="1" fill="#ef4444"/><rect x="335.9852922690132" y="154.174264" width="5.21860465116279" height="1.653891200000004" fill="#ef4444"/><rect x="342.724031007752" y="152.1556376" width="5.21860465116279" height="3.6724511999999834" fill="#16a34a"/><rect x="349.46276974649066" y="138.6480848" width="5.21860465116279" height="13.507552800000013" fill="#16a34a"/><rect x="356.20150848522945" y="138.4205984" width="5.21860465116279" height="4.811476800000008" fill="#ef4444"/><rect x="362.9402472239682" y="143.0761016" width="5.21860465116279" height="1.2249472000000026" fill="#ef4444"/><rect x="369.6789859627069" y="140.4254136" width="5.21860465116279" height="3.8755687999999964" fill="#16a34a"/><rect x="376.41772470144565" y="140.4253472" width="5.21860465116279" height="7.6563184000000035" fill="#ef4444"/><rect x="383.1564634401844" y="148.081732" width="5.21860465116279" height="50.38976480000002" fill="#ef4444"/><rect x="389.8952021789231" y="198.4714968" width="5.21860465116279" height="8.100534399999987" fill="#ef4444"/><rect x="396.63394091766185" y="189.2896384" width="5.21860465116279" height="17.282392799999997" fill="#16a34a"/><rect x="403.3726796564006" y="184.784" width="5.21860465116279" height="4.505638400000009" fill="#16a34a"/><rect x="410.11141839513937" y="184.8786864" width="5.21860465116279" height="4.782858400000009" fill="#ef4444"/><rect x="416.8501571338781" y="184.251804" width="5.21860465116279" height="5.409740800000009" fill="#16a34a"/><rect x="423.58889587261683" y="163.5620288" width="5.21860465116279" height="20.690704799999992" fill="#16a34a"/><rect x="430.32763461135556" y="163.5620288" width="5.21860465116279" height="2.0596615999999983" fill="#ef4444"/><rect x="437.0663733500943" y="165.6216904" width="5.21860465116279" height="1" fill="#ef4444"/><rect x="443.805112088833" y="140.296" width="5.21860465116279" height="26.303297600000008" fill="#16a34a"/><rect x="450.54385082757176" y="140.2959336" width="5.21860465116279" height="1" fill="#ef4444"/><rect x="457.2825895663105" y="130.3359336" width="5.21860465116279" height="10.955999999999989" fill="#16a34a"/><rect x="464.0213283050492" y="105.47066080000002" width="5.21860465116279" height="24.865272799999985" fill="#16a34a"/><rect x="470.760067043788" y="105.23347999999999" width="5.21860465116279" height="40.36874320000001" fill="#ef4444"/><rect x="477.49880578252674" y="145.6022232" width="5.21860465116279" height="13.523090400000001" fill="#ef4444"/><rect x="484.2375445212655" y="159.1253136" width="5.21860465116279" height="1" fill="#ef4444"/><rect x="490.9762832600042" y="157.8919336" width="5.21860465116279" height="1.46465120000002" fill="#16a34a"/><rect x="497.71502199874294" y="157.8919336" width="5.21860465116279" height="8.555374400000005" fill="#ef4444"/><rect x="504.4537607374817" y="166.4473744" width="5.21860465116279" height="34.4452656" fill="#ef4444"/><rect x="511.19249947622035" y="189.1044488" width="5.21860465116279" height="11.7881912" fill="#16a34a"/><rect x="517.9312382149591" y="189.1045152" width="5.21860465116279" height="10.560720799999984" fill="#ef4444"/><rect x="524.6699769536979" y="169.9768664" width="5.21860465116279" height="29.688369599999987" fill="#16a34a"/><rect x="531.4087156924365" y="169.9768" width="5.21860465116279" height="13.264993599999997" fill="#ef4444"/><rect x="538.1474544311753" y="183.2417936" width="5.21860465116279" height="15.136411199999998" fill="#ef4444"/><rect x="544.8861931699141" y="198.3782048" width="5.21860465116279" height="26.780647200000004" fill="#ef4444"/><rect x="551.6249319086528" y="214.131804" width="5.21860465116279" height="11.0269816" fill="#16a34a"/><rect x="558.3636706473915" y="214.131804" width="5.21860465116279" height="6.211122400000022" fill="#ef4444"/><rect x="565.1024093861303" y="209.6840664" width="5.21860465116279" height="10.658860000000004" fill="#16a34a"/><rect x="571.841148124869" y="209.6840664" width="5.21860465116279" height="37.51593359999998" fill="#ef4444"/><rect x="578.5798868636077" y="244.9597968" width="5.21860465116279" height="2.240136800000016" fill="#16a34a"/><rect x="585.3186256023465" y="244.9598632" width="5.21860465116279" height="5.913384799999989" fill="#ef4444"/><rect x="592.0573643410853" y="240.8065432" width="5.21860465116279" height="10.066704799999997" fill="#16a34a"/><rect x="598.796103079824" y="212.5278456" width="5.21860465116279" height="28.278763999999995" fill="#16a34a"/><rect x="605.5348418185627" y="211.3469216" width="5.21860465116279" height="1" fill="#16a34a"/><rect x="612.2735805573014" y="211.3468552" width="5.21860465116279" height="5.335771200000011" fill="#ef4444"/><rect x="619.0123192960402" y="216.3902672" width="5.21860465116279" height="8.683659199999994" fill="#ef4444"/><rect x="625.7510580347789" y="225.0739264" width="5.21860465116279" height="3.681016800000009" fill="#ef4444"/><rect x="632.4897967735177" y="213.849604" width="5.21860465116279" height="14.905339200000014" fill="#16a34a"/><rect x="639.2285355122564" y="212.008" width="5.21860465116279" height="2.200495999999987" fill="#16a34a"/><rect x="645.9672742509952" y="212.008" width="5.21860465116279" height="4.2610871999999915" fill="#ef4444"/><rect x="652.7060129897338" y="193.2897736" width="5.21860465116279" height="22.97931360000001" fill="#16a34a"/><rect x="659.4447517284726" y="178.898636" width="5.21860465116279" height="14.391137599999979" fill="#16a34a"/><rect x="666.1834904672113" y="176.8523208" width="5.21860465116279" height="2.0463152000000093" fill="#16a34a"/>
      </g>
      <g class="legend">
        <g font-size="12" fill="#e5e7eb"><g transform="translate(96, 30)">
        <rect y="-10" width="12" height="12" fill="#00a3ff"></rect>
        <text x="16" y="0"></text>
      </g><g transform="translate(226, 30)">
        <rect y="-10" width="12" height="12" fill="#ff4d4d"></rect>
        <text x="16" y="0"></text>
      </g></g>
      </g>
    </svg>
  
