<svg xmlns="http://www.w3.org/2000/svg" width="860" height="420" viewBox="0 0 860 420">
  <rect x="0" y="0" width="860" height="420" fill="#ffffff"/>
  <g class="grid">
    <line x1="48" y1="388" x2="844" y2="388" stroke="#e5e7eb"/>
    <line x1="48" y1="24" x2="48" y2="388" stroke="#e5e7eb"/>
  </g>
  <!-- ローソク -->
  <line x1="48" y1="140.28388641550376" x2="48" y2="163.76445059673014" stroke="#9ca3af" stroke-width="1"/><line x1="66.0909090909091" y1="108.47618691309066" x2="66.0909090909091" y2="147.51857533016573" stroke="#9ca3af" stroke-width="1"/><line x1="84.18181818181819" y1="104.76576003591606" x2="84.18181818181819" y2="135.93819447042537" stroke="#9ca3af" stroke-width="1"/><line x1="102.27272727272728" y1="96.85734595383292" x2="102.27272727272728" y2="145.216506416252" stroke="#9ca3af" stroke-width="1"/><line x1="120.36363636363636" y1="104.94204796288676" x2="120.36363636363636" y2="161.77470163492836" stroke="#9ca3af" stroke-width="1"/><line x1="138.45454545454544" y1="76.54577425268434" x2="138.45454545454544" y2="142.22365221295223" stroke="#9ca3af" stroke-width="1"/><line x1="156.54545454545456" y1="130.51786449175052" x2="156.54545454545456" y2="261.94380635265065" stroke="#9ca3af" stroke-width="1"/><line x1="174.63636363636363" y1="229.57611582924912" x2="174.63636363636363" y2="278.4053275468592" stroke="#9ca3af" stroke-width="1"/><line x1="192.72727272727272" y1="217.06401286991658" x2="192.72727272727272" y2="279.0039283175577" stroke="#9ca3af" stroke-width="1"/><line x1="210.8181818181818" y1="202.1070747128587" x2="210.8181818181818" y2="235.00677167121853" stroke="#9ca3af" stroke-width="1"/><line x1="228.9090909090909" y1="206.96576751842568" x2="228.9090909090909" y2="269.42631598638184" stroke="#9ca3af" stroke-width="1"/><line x1="247" y1="202.68233005349995" x2="247" y2="247.48774739047477" stroke="#9ca3af" stroke-width="1"/><line x1="265.0909090909091" y1="162.39994013992293" x2="265.0909090909091" y2="227.4374649257361" stroke="#9ca3af" stroke-width="1"/><line x1="283.1818181818182" y1="158.68532305735343" x2="283.1818181818182" y2="188.2370459051966" stroke="#9ca3af" stroke-width="1"/><line x1="301.27272727272725" y1="150.68711885966553" x2="301.27272727272725" y2="181.92764413184182" stroke="#9ca3af" stroke-width="1"/><line x1="319.3636363636364" y1="117.81286243406038" x2="319.3636363636364" y2="179.63620038160798" stroke="#9ca3af" stroke-width="1"/><line x1="337.45454545454544" y1="61.412697818848414" x2="337.45454545454544" y2="134.58610497961016" stroke="#9ca3af" stroke-width="1"/><line x1="355.54545454545456" y1="92.83908863032661" x2="355.54545454545456" y2="123.2952972426952" stroke="#9ca3af" stroke-width="1"/><line x1="373.6363636363636" y1="32.82936136780273" x2="373.6363636363636" y2="115.28646788132738" stroke="#9ca3af" stroke-width="1"/><line x1="391.72727272727275" y1="24" x2="391.72727272727275" y2="154.19566762692207" stroke="#9ca3af" stroke-width="1"/><line x1="409.8181818181818" y1="119.38703281080473" x2="409.8181818181818" y2="178.51891204309925" stroke="#9ca3af" stroke-width="1"/><line x1="427.90909090909093" y1="147.71356953122077" x2="427.90909090909093" y2="174.52654420292566" stroke="#9ca3af" stroke-width="1"/><line x1="446" y1="136.32653672041602" x2="446" y2="171.07336600695874" stroke="#9ca3af" stroke-width="1"/><line x1="464.09090909090907" y1="153.698978637435" x2="464.09090909090907" y2="218.0928579445546" stroke="#9ca3af" stroke-width="1"/><line x1="482.1818181818182" y1="151.2026637734296" x2="482.1818181818182" y2="259.10045269183286" stroke="#9ca3af" stroke-width="1"/><line x1="500.27272727272725" y1="221.42092857944556" x2="500.27272727272725" y2="273.209622507389" stroke="#9ca3af" stroke-width="1"/><line x1="518.3636363636364" y1="215.62527591754275" x2="518.3636363636364" y2="261.94380635265065" stroke="#9ca3af" stroke-width="1"/><line x1="536.4545454545455" y1="173.05174155411726" x2="536.4545454545455" y2="265.1077107261776" stroke="#9ca3af" stroke-width="1"/><line x1="554.5454545454545" y1="184.1257061618467" x2="554.5454545454545" y2="235.00677167121853" stroke="#9ca3af" stroke-width="1"/><line x1="572.6363636363636" y1="210.19671517827078" x2="572.6363636363636" y2="299.35635452130646" stroke="#9ca3af" stroke-width="1"/><line x1="590.7272727272727" y1="244.15219424595008" x2="590.7272727272727" y2="331.9123049870927" stroke="#9ca3af" stroke-width="1"/><line x1="608.8181818181819" y1="272.56882038235625" x2="608.8181818181819" y2="354.726925810917" stroke="#9ca3af" stroke-width="1"/><line x1="626.9090909090909" y1="257.14961278012646" x2="626.9090909090909" y2="305.93931684687044" stroke="#9ca3af" stroke-width="1"/><line x1="645" y1="249.53047252048336" x2="645" y2="302.3493583747989" stroke="#9ca3af" stroke-width="1"/><line x1="663.0909090909091" y1="269.7714093306895" x2="663.0909090909091" y2="380.6539713419881" stroke="#9ca3af" stroke-width="1"/><line x1="681.1818181818181" y1="351.1924875603277" x2="681.1818181818181" y2="382.3423248157432" stroke="#9ca3af" stroke-width="1"/><line x1="699.2727272727273" y1="338.959182909948" x2="699.2727272727273" y2="370.39739608664746" stroke="#9ca3af" stroke-width="1"/><line x1="717.3636363636364" y1="330.3789891129485" x2="717.3636363636364" y2="388" stroke="#9ca3af" stroke-width="1"/><line x1="735.4545454545455" y1="279.0167982341277" x2="735.4545454545455" y2="348.8574956040256" stroke="#9ca3af" stroke-width="1"/><line x1="753.5454545454545" y1="258.9509521493509" x2="753.5454545454545" y2="295.73137790414904" stroke="#9ca3af" stroke-width="1"/><line x1="771.6363636363636" y1="246.79172434434508" x2="771.6363636363636" y2="314.91982490927455" stroke="#9ca3af" stroke-width="1"/><line x1="789.7272727272727" y1="242.48928130494969" x2="789.7272727272727" y2="320.83295297242694" stroke="#9ca3af" stroke-width="1"/><line x1="807.8181818181819" y1="294.86684874106777" x2="807.8181818181819" y2="320.3073814957537" stroke="#9ca3af" stroke-width="1"/><line x1="825.9090909090909" y1="273.89741479292155" x2="825.9090909090909" y2="317.64570316884283" stroke="#9ca3af" stroke-width="1"/><line x1="844" y1="280.7721949942011" x2="844" y2="297.18148827116613" stroke="#9ca3af" stroke-width="1"/>
  <rect x="42.693333333333335" y="145.0084926484343" width="10.613333333333333" height="8.276852856448045" fill="#16a34a"/><rect x="60.78424242424243" y="114.56560290321374" width="10.613333333333333" height="30.442889745220555" fill="#16a34a"/><rect x="78.87515151515152" y="114.05290134311048" width="10.613333333333333" height="10.843952261588527" fill="#ef4444"/><rect x="96.96606060606061" y="124.54532530210633" width="10.613333333333333" height="2.7607467544614224" fill="#ef4444"/><rect x="115.05696969696969" y="118.57128961053536" width="10.613333333333333" height="8.73463279583973" fill="#16a34a"/><rect x="133.14787878787877" y="118.57113996034269" width="10.613333333333333" height="17.255565116540083" fill="#ef4444"/><rect x="151.2387878787879" y="135.82685472707547" width="10.613333333333333" height="113.5668375173033" fill="#ef4444"/><rect x="169.32969696969695" y="249.39369224437877" width="10.613333333333333" height="18.256724905533304" fill="#ef4444"/><rect x="187.42060606060605" y="228.69991395113922" width="10.613333333333333" height="38.95050319877285" fill="#16a34a"/><rect x="205.51151515151514" y="218.54525047701" width="10.613333333333333" height="10.154663474129222" fill="#16a34a"/><rect x="223.60242424242423" y="218.758651651764" width="10.613333333333333" height="10.77945302854576" fill="#ef4444"/><rect x="241.69333333333333" y="217.34580418272287" width="10.613333333333333" height="12.1923004975869" fill="#16a34a"/><rect x="259.78424242424245" y="170.71585169665906" width="10.613333333333333" height="46.63204758876128" fill="#16a34a"/><rect x="277.8751515151515" y="170.71585169665906" width="10.613333333333333" height="4.641999326574137" fill="#ef4444"/><rect x="295.9660606060606" y="175.3578510232332" width="10.613333333333333" height="2.2032997867484596" fill="#ef4444"/><rect x="314.0569696969697" y="118.27962138501255" width="10.613333333333333" height="59.28152942496911" fill="#16a34a"/><rect x="332.14787878787877" y="118.27947173481988" width="10.613333333333333" height="2.2449025403120118" fill="#ef4444"/><rect x="350.2387878787879" y="95.83194283362639" width="10.613333333333333" height="24.692281791312837" fill="#16a34a"/><rect x="368.32969696969695" y="39.79138763141157" width="10.613333333333333" height="56.04055520221482" fill="#16a34a"/><rect x="386.4206060606061" y="39.25683714317785" width="10.613333333333333" height="90.98178008904182" fill="#ef4444"/><rect x="404.51151515151514" y="130.23861723221967" width="10.613333333333333" height="30.477907890306426" fill="#ef4444"/><rect x="422.60242424242426" y="160.7165251225261" width="10.613333333333333" height="1" fill="#ef4444"/><rect x="440.6933333333333" y="157.93677279359497" width="10.613333333333333" height="3.3009839500168425" fill="#16a34a"/><rect x="458.7842424242424" y="157.93677279359497" width="10.613333333333333" height="19.2818287253545" fill="#ef4444"/><rect x="476.8751515151515" y="177.21875116914214" width="10.613333333333333" height="77.6316360507314" fill="#ef4444"/><rect x="494.9660606060606" y="228.2825395637697" width="10.613333333333333" height="26.56784765610385" fill="#16a34a"/><rect x="513.0569696969698" y="228.28268921396236" width="10.613333333333333" height="23.801414194320785" fill="#ef4444"/><rect x="531.1478787878789" y="185.1734071607617" width="10.613333333333333" height="66.91069624752143" fill="#16a34a"/><rect x="549.2387878787879" y="185.17325751056904" width="10.613333333333333" height="29.89621759138015" fill="#ef4444"/><rect x="567.329696969697" y="215.0694751019492" width="10.613333333333333" height="34.113958621721736" fill="#ef4444"/><rect x="585.4206060606061" y="249.18343372367093" width="10.613333333333333" height="60.35736466010701" fill="#ef4444"/><rect x="603.5115151515153" y="284.6883908863033" width="10.613333333333333" height="24.852257847281976" fill="#16a34a"/><rect x="621.6024242424243" y="284.6883908863033" width="10.613333333333333" height="13.9984286729769" fill="#ef4444"/><rect x="639.6933333333334" y="274.6642223801863" width="10.613333333333333" height="24.022597179093907" fill="#16a34a"/><rect x="657.7842424242425" y="274.6642223801863" width="10.613333333333333" height="84.55220921096941" fill="#ef4444"/><rect x="675.8751515151515" y="354.16753339069925" width="10.613333333333333" height="5.048748550263724" fill="#16a34a"/><rect x="693.9660606060606" y="354.1676830408919" width="10.613333333333333" height="13.3273972090239" fill="#ef4444"/><rect x="712.0569696969698" y="344.8070634890942" width="10.613333333333333" height="22.688016760821597" fill="#16a34a"/><rect x="730.1478787878789" y="281.0734408320551" width="10.613333333333333" height="63.73377230723179" fill="#16a34a"/><rect x="748.2387878787879" y="278.4119121553369" width="10.613333333333333" height="1.8843952261588583" fill="#16a34a"/><rect x="766.329696969697" y="278.4117625051442" width="10.613333333333333" height="12.025590182947326" fill="#ef4444"/><rect x="784.4206060606061" y="289.77844288974524" width="10.613333333333333" height="19.570952897601842" fill="#ef4444"/><rect x="802.5115151515153" y="309.3493957873471" width="10.613333333333333" height="8.296157731303083" fill="#ef4444"/><rect x="820.6024242424243" y="284.0523775674361" width="10.613333333333333" height="33.59317595121405" fill="#16a34a"/><rect x="838.6933333333334" y="284.86123685884246" width="10.613333333333333" height="5.16218339631115" fill="#ef4444"/>
  <!-- SMA -->
  <path d="M 482.1818181818182,164.70436155486533 L 500.27272727272725,168.0353234314788 L 518.3636363636364,173.5360634516816 L 536.4545454545455,175.94712559392414 L 554.5454545454545,179.4576617157396 L 572.6363636363636,184.68214748026506 L 590.7272727272727,191.63071121254075 L 608.8181818181819,193.04249915821742 L 626.9090909090909,194.2839552545925 L 645,196.1225275917545 L 663.0909090909091,201.74937483632033 L 681.1818181818181,206.7345519847358 L 699.2727272727273,212.7405230274233 L 717.3636363636364,219.7041714991207 L 735.4545454545455,223.93279509147393 L 753.5454545454545,227.96682554528795 L 771.6363636363636,234.85313479741097 L 789.7272727272727,242.40613565789943 L 807.8181818181819,251.27868008530072 L 825.9090909090909,261.04911968274166 L 844,267.44051180365886" fill="none" stroke="#3b82f6" stroke-width="1.5"/>
  <!-- Bollinger Bands -->
  
      <path d="M 48,12.388101313180528 L 66.0909090909091,28.870368513599374 L 84.18181818181819,53.19766396049232 L 102.27272727272728,86.55177971491622 L 120.36363636363636,97.13824684799295 L 138.45454545454544,99.10741591529819 L 156.54545454545456,77.5419985783231 L 174.63636363636363,61.46972052826504 L 192.72727272727272,62.38873134049186 L 210.8181818181818,62.52870515170804 L 228.9090909090909,63.16289273822417 L 247,68.63969920311257 L 265.0909090909091,72.12211455722252 L 283.1818181818182,76.5224153541098 L 301.27272727272725,78.85065958322429 L 319.3636363636364,74.0524060009729 L 337.45454545454544,74.4924104904785 L 355.54545454545456,66.91005873770041 L 373.6363636363636,47.17932432937994 L 391.72727272727275,45.259152231658334 L 409.8181818181818,46.25813760335234 L 427.90909090909093,50.587445845336674 L 446,53.583563919338474 L 464.09090909090907,57.34359534587878 L 482.1818181818182,60.3276546073551 L 500.27272727272725,64.0813453552322 L 518.3636363636364,63.880659957349565 L 536.4545454545455,67.0521860151893 L 554.5454545454545,67.57007445097071 L 572.6363636363636,65.77926596580494 L 590.7272727272727,57.172085749560665 L 608.8181818181819,53.13378876875328 L 626.9090909090909,50.355092970182284 L 645,50.70246249392062 L 663.0909090909091,43.24433686258351 L 681.1818181818181,47.37938119645344 L 699.2727272727273,53.27468143215208 L 717.3636363636364,69.67948071383154 L 735.4545454545455,108.06222903961964 L 753.5454545454545,126.51356204871115 L 771.6363636363636,140.49263496576754 L 789.7272727272727,156.33899360245402 L 807.8181818181819,175.72332223427765 L 825.9090909090909,192.50759399902742 L 844,195.4194260915112 L 844,381.9858490777806 L 825.9090909090909,381.3803778667364 L 807.8181818181819,387.4812720266378 L 789.7272727272727,390.8947225859553 L 771.6363636363636,391.92991731826845 L 753.5454545454545,392.93690747876843 L 735.4545454545455,396.570910995548 L 717.3636363636364,410.82545400127213 L 699.2727272727273,402.3327412174045 L 681.1818181818181,383.530970855625 L 663.0909090909091,364.07722398892577 L 645,338.4535702794716 L 626.9090909090909,328.8703026675147 L 608.8181818181819,313.29451008268177 L 590.7272727272727,302.52195443151635 L 572.6363636363636,285.91450484492486 L 554.5454545454545,281.0598780350929 L 536.4545454545455,282.94081035579336 L 518.3636363636364,294.3600374125481 L 500.27272727272725,293.8903108982752 L 482.1818181818182,288.39841819746346 L 464.09090909090907,277.75456769800604 L 446,276.5233461783083 L 427.90909090909093,276.2154723334206 L 409.8181818181818,275.8775651913651 L 391.72727272727275,275.3057473156497 L 373.6363636363636,275.6902630102136 L 355.54545454545456,266.9361906543454 L 337.45454545454544,264.59161061019853 L 319.3636363636364,264.74919525608897 L 301.27272727272725,264.0335186501553 L 283.1818181818182,263.0621706760447 L 265.0909090909091,262.48378914287866 L 247,261.8190085674736 L 228.9090909090909,256.32971828351225 L 210.8181818181818,246.62586104979613 L 192.72727272727272,237.8812525721127 L 174.63636363636363,226.08836245276677 L 156.54545454545456,196.6477279359499 L 138.45454545454544,166.95518276029773 L 120.36363636363636,172.37018219910934 L 102.27272727272728,193.55266115455117 L 84.18181818181819,246.80550862359226 L 66.0909090909091,294.86398742938394 L 48,338.54050806240423 Z" fill="rgba(59, 130, 246, 0.1)" stroke="none" />
      <path d="M 48,12.388101313180528 L 66.0909090909091,28.870368513599374 L 84.18181818181819,53.19766396049232 L 102.27272727272728,86.55177971491622 L 120.36363636363636,97.13824684799295 L 138.45454545454544,99.10741591529819 L 156.54545454545456,77.5419985783231 L 174.63636363636363,61.46972052826504 L 192.72727272727272,62.38873134049186 L 210.8181818181818,62.52870515170804 L 228.9090909090909,63.16289273822417 L 247,68.63969920311257 L 265.0909090909091,72.12211455722252 L 283.1818181818182,76.5224153541098 L 301.27272727272725,78.85065958322429 L 319.3636363636364,74.0524060009729 L 337.45454545454544,74.4924104904785 L 355.54545454545456,66.91005873770041 L 373.6363636363636,47.17932432937994 L 391.72727272727275,45.259152231658334 L 409.8181818181818,46.25813760335234 L 427.90909090909093,50.587445845336674 L 446,53.583563919338474 L 464.09090909090907,57.34359534587878 L 482.1818181818182,60.3276546073551 L 500.27272727272725,64.0813453552322 L 518.3636363636364,63.880659957349565 L 536.4545454545455,67.0521860151893 L 554.5454545454545,67.57007445097071 L 572.6363636363636,65.77926596580494 L 590.7272727272727,57.172085749560665 L 608.8181818181819,53.13378876875328 L 626.9090909090909,50.355092970182284 L 645,50.70246249392062 L 663.0909090909091,43.24433686258351 L 681.1818181818181,47.37938119645344 L 699.2727272727273,53.27468143215208 L 717.3636363636364,69.67948071383154 L 735.4545454545455,108.06222903961964 L 753.5454545454545,126.51356204871115 L 771.6363636363636,140.49263496576754 L 789.7272727272727,156.33899360245402 L 807.8181818181819,175.72332223427765 L 825.9090909090909,192.50759399902742 L 844,195.4194260915112" fill="none" stroke="#3b82f6" stroke-width="1"/>
      <path d="M 48,338.54050806240423 L 66.0909090909091,294.86398742938394 L 84.18181818181819,246.80550862359226 L 102.27272727272728,193.55266115455117 L 120.36363636363636,172.37018219910934 L 138.45454545454544,166.95518276029773 L 156.54545454545456,196.6477279359499 L 174.63636363636363,226.08836245276677 L 192.72727272727272,237.8812525721127 L 210.8181818181818,246.62586104979613 L 228.9090909090909,256.32971828351225 L 247,261.8190085674736 L 265.0909090909091,262.48378914287866 L 283.1818181818182,263.0621706760447 L 301.27272727272725,264.0335186501553 L 319.3636363636364,264.74919525608897 L 337.45454545454544,264.59161061019853 L 355.54545454545456,266.9361906543454 L 373.6363636363636,275.6902630102136 L 391.72727272727275,275.3057473156497 L 409.8181818181818,275.8775651913651 L 427.90909090909093,276.2154723334206 L 446,276.5233461783083 L 464.09090909090907,277.75456769800604 L 482.1818181818182,288.39841819746346 L 500.27272727272725,293.8903108982752 L 518.3636363636364,294.3600374125481 L 536.4545454545455,282.94081035579336 L 554.5454545454545,281.0598780350929 L 572.6363636363636,285.91450484492486 L 590.7272727272727,302.52195443151635 L 608.8181818181819,313.29451008268177 L 626.9090909090909,328.8703026675147 L 645,338.4535702794716 L 663.0909090909091,364.07722398892577 L 681.1818181818181,383.530970855625 L 699.2727272727273,402.3327412174045 L 717.3636363636364,410.82545400127213 L 735.4545454545455,396.570910995548 L 753.5454545454545,392.93690747876843 L 771.6363636363636,391.92991731826845 L 789.7272727272727,390.8947225859553 L 807.8181818181819,387.4812720266378 L 825.9090909090909,381.3803778667364 L 844,381.9858490777806" fill="none" stroke="#3b82f6" stroke-width="1"/>
      <path d="M 48,175.46430468779252 L 66.0909090909091,161.86717797149151 L 84.18181818181819,150.0015862920426 L 102.27272727272728,140.0522204347337 L 120.36363636363636,134.75421452355144 L 138.45454545454544,133.03129933779766 L 156.54545454545456,137.0948632571362 L 174.63636363636363,143.7790414905159 L 192.72727272727272,150.13499195630226 L 210.8181818181818,154.5772831007521 L 228.9090909090909,159.74630551086835 L 247,165.22935388529336 L 265.0909090909091,167.30295185005028 L 283.1818181818182,169.79229301507738 L 301.27272727272725,171.44208911668952 L 319.3636363636364,169.40080062853082 L 337.45454545454544,169.54201055033883 L 355.54545454545456,166.92312469602317 L 373.6363636363636,161.43479366979662 L 391.72727272727275,160.28244977365384 L 409.8181818181818,161.06785139735845 L 427.90909090909093,163.40145908937833 L 446,165.05345504882325 L 464.09090909090907,167.5490815219427 L 482.1818181818182,174.36303640240914 L 500.27272727272725,178.98582812675383 L 518.3636363636364,179.12034868494882 L 536.4545454545455,174.99649818549165 L 554.5454545454545,174.3149762430319 L 572.6363636363636,175.84688540536519 L 590.7272727272727,179.84702009053836 L 608.8181818181819,183.21414942571738 L 626.9090909090909,189.61269781884832 L 645,194.578016386696 L 663.0909090909091,203.6607804257548 L 681.1818181818181,215.45517602603937 L 699.2727272727273,227.80371132477856 L 717.3636363636364,240.25246735755184 L 735.4545454545455,252.31657001758396 L 753.5454545454545,259.72523476373965 L 771.6363636363636,266.21127614201816 L 789.7272727272727,273.6168580942048 L 807.8181818181819,281.60229713045743 L 825.9090909090909,286.9439859328818 L 844,288.7026375846458" fill="none" stroke="#9ca3af" stroke-width="1" stroke-dasharray="4 4"/>
    
  <!-- 目盛り（軽量） -->
  <text x="430" y="24" text-anchor="middle" font-family="sans-serif" font-size="18" fill="#111">
    BTC/JPY 1day (45 bars)
  </text>
</svg>
